<?xml version="1.0" encoding="UTF-8"?>
<svg id="Layer_2" data-name="Layer 2" xmlns="http://www.w3.org/2000/svg" viewBox="0 0 343.32 430.79">
  <defs>
    <style>
      .cls-1 {
        fill: #efdbb7;
      }

      .cls-2 {
        fill: #fff;
      }

      .cls-3 {
        fill: #85654b;
      }

      .cls-4 {
        fill: #bf8d5d;
      }

      .cls-5 {
        fill: #603a15;
      }
    </style>
  </defs>
  <g id="Layer_1-2" data-name="Layer 1">
    <g id="Eevee">
      <g id="Tail">
        <path d="M341.76,167.73c-1.77-11.79-5.09-23.13-11.52-34.27-1.26,3.6,.51,6.64-.89,9.28-1.73,.11-.97-2.05-2.52-2.27-.42,1.28-.66,2.74-1.34,3.94-7.86,13.85-19.14,23.58-34.18,29.14-15.36,5.69-31.57,8.03-47.27,12.42-22.18,6.21-39.36,17.52-46.85,40.39-1.95,5.95-3.73,11.96-4.25,19.05,.03,.02,.06,.04,.09,.07,.85,1.02,1.67,2.07,2.48,3.12-.59-2.53-.48-5.24,0-8.11,4.8-28.45,22.09-45.07,49.15-53.1,12.95-3.85,26.33-5.68,39.26-9.5,18.27-5.39,32.97-15.45,43.58-32.6,.68,2.34,1.12,3.87,1.83,6.32,1.73-4.22,2.08-7.7,1.68-12,2.63,2.26,3.1,4.95,3.85,7.29,5.6,17.44,8.01,35.16,6.46,53.61-1.76,20.9-5.12,41.62-13.02,60.79-16.61,40.31-49.88,58.85-92.62,52.32-2.73-.41-4.63-1.42-6.05-3.15,.11,.33,.22,.66,.3,1,.2,.89,.29,1.83,.27,2.76,2.43-1.23,5.78,1.54,8.77,1.84,30.9,3.09,57.03-5.62,77.31-30.14,10.84-13.12,16.37-28.24,20.14-44.52,5.64-24.33,9.08-48.74,5.34-73.67Z"/>
        <path class="cls-4" d="M341.32,200.51c-1.76,20.9-5.12,41.62-13.02,60.79-16.61,40.31-49.88,58.85-92.62,52.32-4.83-.73-7.08-3.32-8.61-8.53-3.81-13.02-9.84-25.11-20.99-33.78-.78-.61-1.54-1.26-2.23-1.96-.44-.45-.72-1.05-1.3-1.92,2.43-.14,4.48-.25,7.28-.4-3.7-4.17-6.73-8.04-10.25-11.43-4.5-4.33-5.04-9.38-4.07-15.11,4.8-28.45,22.09-45.07,49.15-53.1,12.95-3.85,26.33-5.68,39.26-9.5,18.27-5.39,32.97-15.45,43.58-32.6,.68,2.34,1.12,3.87,1.83,6.32,1.73-4.22,2.08-7.7,1.68-12,2.63,2.26,3.1,4.95,3.85,7.29,5.6,17.44,8.01,35.16,6.46,53.61Z"/>
        <path class="cls-1" d="M341.32,200.13c-.54,6.44-1.24,12.87-2.17,19.23-1.08,1.81-2.55,3.38-4.32,4.56-.35,.24-.71-.09-.75-.43-.49-3.81-.99-7.63-1.48-11.44-3.41,3.34-6.02,7.43-7.54,11.96-.18,.53-.97,.44-.99-.13-.05-2.18,.04-4.37,.29-6.54,.76-6.77,2.93-13.35,6.35-19.23-2.32,1.7-4.42,3.67-6.32,5.84-4.31,4.93-7.59,10.65-10.91,16.27-3.35,5.66-6.78,11.35-11.25,16.22-.31,.34-.82,.05-.85-.35-.19-2.48-.15-4.98,.11-7.46,.84-7.85,3.88-15.4,8.72-21.63-6.3,3.41-11.63,8.48-15.3,14.65-.31,.53-1,.15-.91-.38,.39-2.5,.91-4.97,1.57-7.41,2.09-7.77,5.53-15.16,10.09-21.78-1.75,1-3.49,2.04-5.18,3.14-8.17,5.33-15.57,11.81-21.95,19.19-.32,.37-1.01-.03-.84-.49,.91-2.5,1.91-4.96,3.01-7.38,3.62-7.99,8.29-15.49,13.82-22.3-5,2.21-9.81,4.84-14.35,7.87-.43,.29-.93-.27-.69-.68,3.42-5.95,7.51-11.49,12.16-16.53,0-.02,0-.03,.02-.05,14.72-5.8,26.77-15.28,35.84-29.94,.68,2.34,1.12,3.87,1.83,6.32,1.73-4.22,2.08-7.7,1.68-12,2.63,2.26,3.1,4.95,3.85,7.29,5.6,17.44,8.01,35.16,6.46,53.61Z"/>
      </g>
      <g id="Base">
        <path class="cls-4" d="M313.97,92.7c-4.5,.43-8.82,1.61-13.18,2.68-14.1,3.45-28.72,3.24-42.92,6.15-13.69,2.8-27.42,5.69-40.54,10.39-16.73,5.99-30.42,16.92-42.45,29.87-2.47,2.66-3.89,2.84-5.81-.45-1.61-2.77-3.59-5.31-5.99-7.46-.86-1.1-1.71-2.21-2.54-3.34-1.19-2.46-2.38-4.92-3.61-7.37-.48-.95-.5-2.69-1.88-2.48-.97,.15-1.3,.93-1.45,1.81-.43,.91-.84,1.83-1.21,2.77-1.29,2.04-1.91,.57-2.8-.71-2.56-3.7-3.75-8.27-7.11-11.86-.08,.86-.56,1.94-.63,3.12-.08,1.33-1.97,5.82-2.38,7.6-.37,.18-2.2-1.96-2.79-2.7-1.28-1.58-2.46-2.18-3.96-4.82-.34-.6-.73-1.17-1.15-1.71-3.46-5.92-9.73-13.91-12.53-16.62-.92,1.6-1.37,3.08-1.54,4.53-.3,1.89-.59,4.78-.63,5.39-.21,3.47-.45,4.73-1.67,6.71-2.3,.86-7.95-1.63-9.34-2.34-.63-.32-3.84-1.62-6.39-3.84-.27-.26-.54-.52-.8-.76-.02-.01-.03-.02-.04-.03-.11-.11-.18-.18-.24-.22-.13-.12-.27-.23-.39-.34-2.8-2.85-6.61-6.06-7.67-7.18-2.61,4.4-1.92,8.75-2.02,12.96-.05,2.02-.35,3.97-2.79,2.36-3.94-2.82-8.83-5.55-12.38-7.49,.6,3.99,.36,2.13,1.06,6.6,.26,1.62,1.34,8.18,1.45,9.57-.73-.52-6.05-2.75-6.74-2.85-1.03-.15-1.09-.27-1.64,0,.76,1.68,.84,1.77,1.94,4.81,1,2.78,.49,1.17-2.36,2.93-1.49,.92-1.32,1.88-1.62-2.07-.21-2.72-1.19-7.2-1.63-10.82-1.78-14.58-5.09-28.78-10.01-42.63C44.1,46.09,26.59,24.17,10.71,1.27,10.12,.41,9.4-.13,8.31,.02,6.13,.02,5.69,7.36,5.36,9.93,3.14,27.37-.92,37.06,.19,62.49c.5,11.57,3.25,23.1,6.41,34.23,6.39,22.53,19.64,40.87,37.17,56.18,1.81,1.58,2.19,2.86,1.38,5.1-1.62,4.52-2.74,9.18-3.72,13.92-2.62,12.65-.29,27.44-7.42,44.31-.81,.53-1.74,.97-2.81,1.32-8.45,2.75-18.48,12.2-24.4,19.18-2.03,2.08-2.82,2.82-3.38,3.46-.55,.63-.88,1.16-1.98,2.82,8.61-1.26,6.82-.86,3.78,5.78C.49,259.09,.16,270.02,.76,281.06c.04,.68-.07,1.74,2.04,1.73-.06-.46-.11-.92-.17-1.38,.66-1.87,1.4-3.72,2.21-5.54,.1,.53,.26,1.1,.52,1.71,1.64,3.9,1.34,8.76,2.6,13.06,.3,1.05,1.23,3.21,2.29,.93,1.45-3.13,1.79-1.08,2.65,.12,2.65,3.69,5.16,7.52,8.98,10.09,1.05,.84,2.15,1.6,3.29,2.31,2.52,1.97,5.05,3.93,7.55,5.93,1.66,1.33,3.17,2.65,4.16,4.77,2.8,6.03,5.99,11.86,11.35,16.14,1.01,.8,2.07,1.66,2.26,3.15,1.69,13.27,6.93,25.55,10.77,38.22,2.5,8.26,4.23,16.52,2.79,25.06-.02,.03-.04,.06-.05,.1-.2,.91-.78,1.61-1.41,2.28-.64,.69-1.28,1.36-1.78,2.17-.37,.6-.66,1.24-.87,1.91-.01,.02-.03,.04-.04,.07-.35,1.3-.69,2.62-.78,3.96-.48,2.96,.78,5.42,3.99,7.6,7.52,5.12,15.89,6.62,24.71,4.69,2.27-.49,3.46-.43,5.01,1.44,7.59,9.2,17.73,11.43,28.87,7.02,5.31-2.09,8.33-5.71,9.65-11.13,.9-3.7,2.21-7.31,3.13-11.01,.94-3.73,2.8-5.09,6.83-4.29,6.96,1.38,12.44-.61,16.39-7.23,4.51-7.54,9.92-14.53,14.89-21.8,2.38-3.49,3.87-7.19,3.56-11.64-.29-4.29,.15-8.63,.21-12.95,.03-2,1.2-3.25,2.88-3.59,2.4-.5,1.93,1.82,2.18,3.02,1.15,5.49,3.79,10.16,7.17,14.46,.44,.83,.81,1.68,1.08,2.57,.44,3.89,.14,7.73-.94,11.57-.53,1.86-1.36,3.65-1.86,5.52-.02,.04-.05,.09-.06,.16-.39,1.89-1.08,3.7-2.08,5.36-1,1.67-2.31,3.07-3.7,4.42-1.46,1.41-2.99,2.89-4.09,4.6-4.76,5.69-1.16,16.55,6.58,15.98,5.56,2.28,11.51,2.23,17.33,2.72,5.68,.48,10.04-2,12.35-7.26,3.7-8.43,7.25-16.93,10.83-25.41,.06-.04,.11-.09,.15-.17,3.26-6.14,5.38-12.82,6.31-19.7,.55-1.55,.89-3.16,1-4.79,.79-12.46,1.43-24.92,2.19-37.38,.2-3.05-1.55-6.96,.04-9.13,.14-1.28,.04-2.62-.31-3.83-.43-1.47-1.19-2.87-1.22-4.43,0-.02,0-.03,0-.05-.2-.53-.39-1.1-.56-1.7-3.81-13.02-9.84-25.11-20.99-33.78-.78-.61-1.54-1.26-2.23-1.96-.44-.45-.72-1.05-1.3-1.92,2.43-.14,4.48-.25,7.28-.4-3.7-4.17-6.73-8.04-10.25-11.43-.39-.38-.74-.76-1.07-1.15-.06-.04-.12-.09-.17-.16-.05-.08-.1-.15-.16-.23-.49-.61-.92-1.24-1.29-1.88-1.29-1.84-2.64-3.63-4.06-5.36,0,.02,0,.03,0,.05-5.46-7.09-10.52-12.97-18.78-13.94-3.95-.47-3.72-2.03-2.85-5.13,3.6-12.8,7.34-25.59,10.12-38.58,1.13-5.28,3.43-6.68,8.24-7.06,8.95-.71,17.91-1.66,26.77-3.1,8.21-1.34,16.7-2.25,23.55-7.82h0c3.74-1.09,6.73-3.49,9.78-5.72,22.62-16.59,40.89-37.48,58.36-59.17,.21-.26,.38-.53,.53-.81,.15-.19,.29-.39,.43-.58h.01c.85-1.22,1.74-2.4,2.68-3.53,.72-.88,1.55-1.85,1.41-2.98,.48-1.66-.54-2.47-3.68-2.16Zm-145.13,56.73s0,0,0,0c.87-1.08,1.19-2.02,1.16-2.89,.03,.87-.3,1.81-1.16,2.89Zm-50.51-45.57c0,.45,0,.93,0,1.41,0-.49,0-.96,0-1.41h0Zm-28.84,6.62c.01,2.61,.23,5.28,.45,8.05h0c-.22-2.77-.43-5.44-.45-8.05Zm-14.89-.27h0c1.14,5.18,1.22,10.25,2.45,14.46h0c-1.23-4.21-1.31-9.28-2.45-14.46Zm-5.77,11.48h0c1.02,2.41,2.06,4.03,2.54,7.14h0c-.48-3.11-1.52-4.73-2.54-7.14Zm-25.67,28.44C23.57,131.64,9.75,110.09,4.97,82.96c-1.93-11-3.26-21.91-3.29-32.84,.04,10.93,1.36,21.84,3.29,32.84,4.78,27.13,18.6,48.68,38.2,67.16,1.72,1.61,3.48,4.3,6.14,.41,0,0,0,0,0,0-2.66,3.89-4.42,1.2-6.14-.41Zm160.56,117.65c.03,.58,.43,1.2,.59,1.75,1.54,5.14,2.37,10.32,2.32,15.83,.04-5.51-.78-10.7-2.32-15.83-.16-.55-.56-1.17-.59-1.75Zm-113.1,96.67c0-.26-.02-.53-.04-.78h0c.02,.25,.04,.52,.04,.78Zm-30.93-111.26c-1.8,2.41-5.4,3.11-7.59,7h0c2.19-3.89,5.79-4.59,7.59-7h0Zm140.97,29.03c2.19,.22,2.66,1.65,2.89,3.29h.01c1.32,.12,1.61-.4,1.62-1.12,0,.72-.3,1.24-1.62,1.12h-.01c-.23-1.64-.7-3.07-2.89-3.29-.17,.92-.19,1.85-.18,2.78,0-.93,.01-1.86,.18-2.78Zm-85.73,66.31c.03,1.05-.44,2.14-.44,3.2,0-1.06,.46-2.15,.44-3.2Zm-21.56,13.38c-2.16-2.87-1.28-6.3-2.95-9.83h0c1.67,3.53,.79,6.96,2.95,9.83,2.84-3.89,3.85-9.12,9-11.86h0c-5.15,2.74-6.16,7.97-9,11.86Zm45.56-40.62c.18,.53,.27,1,.28,1.43-.02-.43-.11-.9-.28-1.43-6.03,9.18-12.93,16.92-21.74,22.85-1.75,1.18-3.85,1.99-5.37,3.5-.03,.02-.07,.04-.09,.06-.85,.83-1.76,1.62-2.69,2.35-2.81,1.33-4.49,4.28-7.42,6.09h0c2.93-1.81,4.61-4.76,7.42-6.09,.93-.73,1.84-1.52,2.69-2.35,.02-.02,.06-.04,.09-.06,1.52-1.51,3.62-2.32,5.37-3.5,8.81-5.93,15.71-13.67,21.74-22.85Zm-16.03,25c0-.39-.19-.76-.82-1.08-1.34,1.02-2.45,2.59-4.35,3.04-.11-.39-.17-.74-.19-1.07,.01,.33,.07,.68,.19,1.07,1.9-.45,3.01-2.02,4.35-3.04,.63,.32,.82,.69,.82,1.08Zm31.05-58.83h0c1.97,2.92,2.86,6.73,2.7,11.33,.16-4.6-.74-8.41-2.7-11.33Zm-6.7,40.45c2.25-1.28,3.87-2.21,5.54-3.16,.58,.41,.74,.87,.72,1.35,.01-.48-.15-.94-.72-1.35-1.67,.95-3.29,1.88-5.54,3.16h0Zm53.24-41.23c0,1.5-.14,3.02-.88,4.55-2.4-2.78-3.43-5.59-3.89-8.86-1.53,17.95-10.31,30.43-26.16,38.64-4.02,2.08-8.64,2.61-12.26,5.48-1.23,.98-2.09,2.56-3.83,2.8-.31-.35-.39-.73-.37-1.12-.02,.39,.06,.77,.37,1.12,1.74-.24,2.6-1.82,3.83-2.8,3.62-2.87,8.24-3.4,12.26-5.48,15.85-8.21,24.63-20.69,26.16-38.64,.46,3.27,1.49,6.08,3.89,8.86,.74-1.53,.87-3.05,.88-4.55Zm-45.89,13.14c-.04,11.47-3.99,21.69-11.97,30.37-5.95,6.46-12.61,12.27-18.97,18.36-.17,.17-.53,.15-.71,.19-.35-.24-.45-.51-.44-.81-.01,.3,.09,.57,.44,.81,.18-.04,.54-.02,.71-.19,6.36-6.09,13.02-11.9,18.97-18.36,7.98-8.68,11.93-18.91,11.97-30.37Zm-90.14,37.16c.37,.15,.79,.28,1.18,.48,10.61,5.43,18.06,13.8,23.03,24.54,.29,.61,1.12,.97,1.75,1.42h0c-.63-.45-1.46-.81-1.75-1.42-4.97-10.74-12.42-19.11-23.03-24.54-.39-.2-.81-.33-1.18-.48-.12,.2-.18,.38-.19,.56,.02-.18,.08-.36,.19-.56Zm5.28,9.86c.02-1.61-1.35-2.76-1.25-3.96-.11,1.21,1.27,2.36,1.25,3.96Zm29.71,35.57c-.02-1.32-.08-2.64-.18-3.98-.44-5.63-.98-11.25-1.39-16.88-.07-.99-.35-2.04-.32-3.05-.02,1.01,.25,2.06,.32,3.05,.41,5.63,.95,11.25,1.39,16.88,.1,1.33,.17,2.66,.18,3.98Zm.04-24.05c0-.42,.06-.85,.05-1.25,0,.4-.05,.83-.05,1.25Zm20.24-5.99c-.01-.61,.16-1.25,.15-1.86,.01,.6-.16,1.25-.15,1.86Zm83.75-87.86c-1.14,.36-1.41-1.59-2.93-.64h0c1.52-.95,1.79,1,2.93,.64,.03-.11,.04-.21,.05-.31,0,.1-.02,.2-.05,.31Zm-59.73,.29c3.13,5.06,7.54,9.13,8.01,15.44h0c-.47-6.31-4.88-10.38-8.01-15.44h0ZM5.96,240.45h0c2.34-.73,4.67-1.46,7.42-2.32h0c-2.75,.86-5.08,1.59-7.42,2.32Zm-.99,32.78c-.95,1.95-1.82,3.94-2.59,5.96-.28-2.77-.41-5.5-.38-8.2-.03,2.7,.11,5.44,.38,8.2,.77-2.02,1.64-4.01,2.59-5.96,.42-1.48,1.38-2.97,2.53-5.06h0c-1.15,2.09-2.11,3.58-2.53,5.06Zm4.02,15.02c-1.4-3.85-1.67-7.76-1.66-12.01-.02,4.25,.26,8.16,1.66,12.01,1.23-.55,1.36-1.38,1.35-2.36,.02,.98-.12,1.82-1.35,2.37Zm16.13,14.63c-.99-.64-1.96-1.32-2.88-2.07-.03-.03-.07-.04-.1-.06-4.79-5.09-9.12-10.57-11.36-18.13-.39,.72-.47,1.43-.47,2.1,0-.67,.08-1.38,.47-2.1,2.24,7.56,6.57,13.04,11.36,18.13,.03,.02,.07,.03,.1,.06,.92,.75,1.89,1.43,2.88,2.07,3.32,1.42,5.83,4.3,9.35,6.04h0c-3.52-1.74-6.03-4.62-9.35-6.04Zm8.58-5.94c.15-8.58,2.22-16.66,8.45-23.85,0,0,0,0,0,0-6.23,7.2-8.3,15.28-8.45,23.85Zm3.77,14.98c-1.65-5.03-2.6-10.04-2.7-14.98,.1,4.94,1.06,9.94,2.7,14.98,4.52,13.84,16.14,21.41,27.51,29.19,.25-.33,.36-.62,.37-.9-.01,.27-.12,.57-.37,.9-11.37-7.78-22.99-15.35-27.51-29.19Zm21.14,46.3c-2.3-7.52-4.33-15.13-6.49-22.7h0c2.16,7.57,4.19,15.18,6.49,22.7,3.2,10.49,7.08,20.81,7.22,31.99,0,.48,0,.96,0,1.44,0-.48,0-.96,0-1.44-.14-11.18-4.02-21.5-7.22-31.99Zm6.42,56.25c-3-1.86-4.2-4.35-4.49-7.2-.02-.23-.03-.47-.03-.7,0,.23,0,.46,.03,.7,.29,2.85,1.49,5.34,4.49,7.2,.59-.5,.67-1.11,.67-1.75,0,.64-.08,1.25-.67,1.75Zm10.54,3.94c-4.82-.83-8.56-2.76-9.45-8.06-.39,.47-.45,1-.45,1.55,0-.55,.06-1.08,.45-1.55,.89,5.3,4.63,7.23,9.45,8.06,.38-.26,.5-.56,.48-.87,.02,.32-.09,.61-.48,.87Zm9.69,1.11c-4.25,.46-7.51-.78-9.15-4.95-.45,.29-.62,.61-.63,.95,.02-.33,.18-.65,.63-.95,1.64,4.17,4.9,5.41,9.15,4.95,3.07-.33,5.53-.96,5.54-4.54,0,3.57-2.48,4.21-5.54,4.54Zm6.67-9.56c-.6,1.11-1.13,2.48-1.17,3.74,.04-1.26,.57-2.63,1.17-3.74,4.51-8.24,5.71-16.94,5.77-25.8-.06,8.85-1.26,17.56-5.77,25.8Zm.4,5.3c.04,4.26,2.48,7.85,7.1,10.96h0c-4.61-3.11-7.06-6.7-7.1-10.96Zm19.77,13.36c-4.84,1.47-9.78-.95-12.05-5.5-.6-1.2-.24-2.96-1.91-3.68-.09,.31-.15,.62-.16,.91,.02-.3,.07-.6,.16-.91,1.67,.72,1.31,2.48,1.91,3.68,2.27,4.55,7.21,6.97,12.05,5.5,1.14-.35,1.51-.85,1.53-1.42-.02,.58-.39,1.08-1.53,1.42Zm16.16-7.41c-1.16,4.75-6.27,5.59-10.4,6.77-4.09,1.17-2.44-3.93-4.64-4.81-.33,.31-.44,.66-.44,1.02,0-.37,.11-.71,.44-1.02,2.2,.88,.55,5.98,4.64,4.81,4.13-1.18,9.24-2.02,10.4-6.77,3.54-14.47,11.23-27.41,14.83-41.83,2.38-9.52,5.17-18.94,7.91-28.36,1.24-4.24-.52-9.15,3.39-12.97h0c-3.91,3.82-2.15,8.73-3.39,12.97-2.74,9.42-5.53,18.84-7.91,28.36-3.6,14.42-11.29,27.36-14.83,41.83Zm33.68-35.76c-2.22,2.9-4.11,6.06-6.15,9.1-3.91,5.83-9.1,7.75-15.9,6.06-1.34-.33-1.76-.87-1.77-1.46,0,.59,.42,1.13,1.77,1.46,6.8,1.69,11.99-.23,15.9-6.06,2.04-3.04,3.93-6.2,6.15-9.1,6.62-8.62,12.41-17.48,12.61-28.09-.2,10.61-5.99,19.46-12.61,28.09Zm13.33-40.86c-7.57,3.31-15.74,5.2-23.39,10.53h0c7.65-5.33,15.82-7.22,23.39-10.53,2.43-1.06,5.31-1.62,5.43-4.52-.11,2.9-3,3.46-5.43,4.52Zm14.03,17.04c-.63-2.4-2.22-4.4-3.37-6.57-2.56-4.82-3.99-10.02-5.25-15.6h0c1.26,5.58,2.69,10.78,5.25,15.6,1.15,2.17,2.74,4.17,3.37,6.57,.88,1.55,1.47,3.24,1.76,4.99,.27,.9,.4,1.81,.42,2.72-.02-.91-.15-1.81-.42-2.72-.29-1.75-.88-3.44-1.76-4.99Zm-5.86,50.86c-4.74-3.06-6.62-7.17-6.51-12.01-.11,4.84,1.77,8.95,6.51,12.01,.13-.53,.18-1.07,.19-1.61,0,.54-.06,1.08-.19,1.61Zm10.85,1.02c-2.85-.1-5.62-.11-7.89-2.26-2.18-2.05-1.21-5.09-2.33-7.77-.55,1.2-.68,2.36-.66,3.5-.02-1.14,.11-2.31,.66-3.5,1.12,2.68,.15,5.72,2.33,7.77,2.27,2.15,5.04,2.16,7.89,2.26,2.73,.1,3.24-.92,3.21-2.21,.03,1.29-.48,2.3-3.21,2.21Zm37.45-85.18c-.97,11.07-1.44,22.18-2.06,33.27-.01,.03-.03,.06-.03,.1-.74,6.37-2.57,12.6-5.37,18.37-.15,.2-.29,.4-.39,.63-3.53,7.84-7.03,15.71-10.42,23.61-1.26,2.92-2.37,5.8-5.15,7.72-4.89,3.4-8.11,2.26-9.48-3.48-.17-.72,.08-1.7-.45-1.81-.92,.4-1.15,1.12-1.15,1.96,0-.83,.23-1.56,1.15-1.96,.53,.11,.28,1.09,.45,1.81,1.37,5.74,4.59,6.88,9.48,3.48,2.78-1.92,3.89-4.8,5.15-7.72,3.39-7.9,6.89-15.77,10.42-23.61,.1-.23,.24-.43,.39-.63,2.8-5.77,4.63-12,5.37-18.37,0-.04,.02-.07,.03-.1,.62-11.09,1.09-22.2,2.06-33.27,.23-2.6,.33-5.17,.32-7.69,.01,2.52-.1,5.09-.32,7.69Zm-30.05-67.71h0c2.73-1.21,5.22,1.35,8.48,.81h0c-3.26,.54-5.75-2.02-8.48-.81Zm-17.5-74.58c-4.57,18.7-8.79,37.53-15.78,55.54-4.75,12.25-13.78,19.54-26.72,22.21-5.23,1.08-10.5,1.66-15.76,2.45-13.52,2.05-27.06,.97-39.98-2.63-18.32-5.11-33.39-15.93-45.76-30.52-2.89-3.41-4.17-6.97-4.23-10.81,.06,3.84,1.34,7.4,4.23,10.81,12.37,14.59,27.44,25.41,45.76,30.52,12.92,3.6,26.46,4.68,39.98,2.63,5.26-.79,10.53-1.37,15.76-2.45,12.94-2.67,21.97-9.96,26.72-22.21,6.99-18.01,11.21-36.84,15.78-55.54,.42-1.73,.64-2.99,.59-3.92,.05,.93-.17,2.18-.59,3.92Zm132.02-89.75c-.35,.49-.78,.94-1.16,1.42-.74,.91-1.44,1.86-2.12,2.82-4.03,3.36-7.48,7.28-10.56,11.5-10.06,13.77-22.58,25.2-34.68,37.06-7.1,6.97-16.05,11.53-23.15,18.43,0,0,0,.01,0,.01-20.76,8.45-43.04,8.55-64.83,11.35,0,0,0,0,0,0,21.79-2.8,44.07-2.9,64.83-11.35,0,0,0-.01,0-.01,7.1-6.9,16.05-11.46,23.15-18.43,12.1-11.86,24.62-23.29,34.68-37.06,3.08-4.22,6.53-8.14,10.56-11.5,.68-.96,1.38-1.91,2.12-2.82,.38-.48,.81-.93,1.16-1.42,.18-.24,.35-.54,.43-.84h0c-.08,.3-.25,.6-.43,.84Z"/>
        <path d="M180.68,339.46c-.15-.67-.3-1.33-.44-2.01,.26,.77,.39,1.43,.44,2.01Z"/>
        <path d="M232.19,303.24s0-.03,0-.05c-.2-.53-.39-1.1-.56-1.7-3.81-13.02-9.84-25.11-20.99-33.78-.78-.61-1.54-1.26-2.23-1.96-.44-.45-.72-1.05-1.3-1.92,2.43-.14,4.48-.25,7.28-.4-3.7-4.17-6.73-8.04-10.25-11.43-.39-.38-.74-.76-1.07-1.15-.06-.04-.12-.09-.17-.16-.05-.08-.1-.15-.16-.23-.49-.61-.92-1.24-1.29-1.88-1.29-1.84-2.64-3.63-4.06-5.36,0,.02,0,.03,0,.05-5.46-7.09-10.52-12.97-18.78-13.94-3.95-.47-3.72-2.03-2.85-5.13,3.6-12.8,7.34-25.59,10.12-38.58,1.13-5.28,3.43-6.68,8.24-7.06,8.95-.71,17.91-1.66,26.77-3.1,8.21-1.34,16.7-2.25,23.55-7.82h0c3.74-1.09,6.73-3.49,9.78-5.72,22.62-16.59,40.89-37.48,58.36-59.17,.21-.26,.38-.53,.53-.81,.15-.19,.29-.39,.43-.58h.01c.85-1.22,1.74-2.4,2.68-3.53,.72-.88,1.55-1.85,1.41-2.98,.48-1.66-.54-2.47-3.68-2.16-4.5,.43-8.82,1.61-13.18,2.68-14.1,3.45-28.72,3.24-42.92,6.15-13.69,2.8-27.42,5.69-40.54,10.39-16.73,5.99-30.42,16.92-42.45,29.87-2.47,2.66-3.89,2.84-5.81-.45-1.61-2.77-3.59-5.31-5.99-7.46-.86-1.1-1.71-2.21-2.54-3.34-1.19-2.46-2.38-4.92-3.61-7.37-.48-.95-.5-2.69-1.88-2.48-.97,.15-1.3,.93-1.45,1.81-.43,.91-.84,1.83-1.21,2.77-1.29,2.04-1.91,.57-2.8-.71-2.56-3.7-3.75-8.27-7.11-11.86-.08,.86-.56,1.94-.63,3.12-.08,1.33-1.97,5.82-2.38,7.6-.37,.18-2.2-1.96-2.79-2.7-1.28-1.58-2.46-2.18-3.96-4.82-.34-.6-.73-1.17-1.15-1.71-3.46-5.92-9.73-13.91-12.53-16.62-.92,1.6-1.37,3.08-1.54,4.53-.3,1.89-.59,4.78-.63,5.39-.21,3.47-.45,4.73-1.67,6.71-2.3,.86-7.95-1.63-9.34-2.34-.63-.32-3.84-1.62-6.39-3.84-.27-.26-.54-.52-.8-.76-.02-.01-.03-.02-.04-.03-.11-.11-.18-.18-.24-.22-.13-.12-.27-.23-.39-.34-2.8-2.85-6.61-6.06-7.67-7.18-2.61,4.4-1.92,8.75-2.02,12.96-.05,2.02-.35,3.97-2.79,2.36-3.94-2.82-8.83-5.55-12.38-7.49,.6,3.99,.36,2.13,1.06,6.6,.26,1.62,1.34,8.18,1.45,9.57-.73-.52-6.05-2.75-6.74-2.85-1.03-.15-1.09-.27-1.64,0,.76,1.68,.84,1.77,1.94,4.81,1,2.78,.49,1.17-2.36,2.93-1.49,.92-1.32,1.88-1.62-2.07-.21-2.72-1.19-7.2-1.63-10.82-1.78-14.58-5.09-28.78-10.01-42.63C44.1,46.09,26.59,24.17,10.71,1.27,10.12,.41,9.4-.13,8.31,.02,6.13,.02,5.69,7.36,5.36,9.93,3.14,27.37-.92,37.06,.19,62.49c.5,11.57,3.25,23.1,6.41,34.23,6.39,22.53,19.64,40.87,37.17,56.18,1.81,1.58,2.19,2.86,1.38,5.1-1.62,4.52-2.74,9.18-3.72,13.92-2.62,12.65-.29,27.44-7.42,44.31-.81,.53-1.74,.97-2.81,1.32-8.45,2.75-18.48,12.2-24.4,19.18-2.03,2.08-2.82,2.82-3.38,3.46-.55,.63-.88,1.16-1.98,2.82,8.61-1.26,6.82-.86,3.78,5.78C.49,259.09,.16,270.02,.76,281.06c.04,.68-.07,1.74,2.04,1.73-.06-.46-.11-.92-.17-1.38,.66-1.87,1.4-3.72,2.21-5.54,.1,.53,.26,1.1,.52,1.71,1.64,3.9,1.34,8.76,2.6,13.06,.3,1.05,1.23,3.21,2.29,.93,1.45-3.13,1.79-1.08,2.65,.12,2.65,3.69,5.16,7.52,8.98,10.09,1.05,.84,2.15,1.6,3.29,2.31,2.52,1.97,5.05,3.93,7.55,5.93,1.66,1.33,3.17,2.65,4.16,4.77,2.8,6.03,5.99,11.86,11.35,16.14,1.01,.8,2.07,1.66,2.26,3.15,1.69,13.27,6.93,25.55,10.77,38.22,2.5,8.26,4.23,16.52,2.79,25.06-.02,.03-.04,.06-.05,.1-.2,.91-.78,1.61-1.41,2.28-.64,.69-1.28,1.36-1.78,2.17-.37,.6-.66,1.24-.87,1.91-.01,.02-.03,.04-.04,.07-.35,1.3-.69,2.62-.78,3.96-.48,2.96,.78,5.42,3.99,7.6,7.52,5.12,15.89,6.62,24.71,4.69,2.27-.49,3.46-.43,5.01,1.44,7.59,9.2,17.73,11.43,28.87,7.02,5.31-2.09,8.33-5.71,9.65-11.13,.9-3.7,2.21-7.31,3.13-11.01,.94-3.73,2.8-5.09,6.83-4.29,6.96,1.38,12.44-.61,16.39-7.23,4.51-7.54,9.92-14.53,14.89-21.8,2.38-3.49,3.87-7.19,3.56-11.64-.29-4.29,.15-8.63,.21-12.95,.03-2,1.2-3.25,2.88-3.59,2.4-.5,1.93,1.82,2.18,3.02,1.15,5.49,3.79,10.16,7.17,14.46,.44,.83,.81,1.68,1.08,2.57,.44,3.89,.14,7.73-.94,11.57-.53,1.86-1.36,3.65-1.86,5.52-.02,.04-.05,.09-.06,.16-.39,1.89-1.08,3.7-2.08,5.36-1,1.67-2.31,3.07-3.7,4.42-1.46,1.41-2.99,2.89-4.09,4.6-4.76,5.69-1.16,16.55,6.58,15.98,5.56,2.28,11.51,2.23,17.33,2.72,5.68,.48,10.04-2,12.35-7.26,3.7-8.43,7.25-16.93,10.83-25.41,.06-.04,.11-.09,.15-.17,3.26-6.14,5.38-12.82,6.31-19.7,.55-1.55,.89-3.16,1-4.79,.79-12.46,1.43-24.92,2.19-37.38,.2-3.05-1.55-6.96,.04-9.13,.14-1.28,.04-2.62-.31-3.83-.43-1.47-1.19-2.87-1.22-4.43ZM36.58,216.86c.25-1.11,.46-2.22,.67-3.33,1.39-3.43,2.77-8.2,3.12-11.97,1.12-11.89,.4-23.92,3.78-35.56,1.49-5.13,3.27-10.15,5.16-15.47-2.66,3.89-4.42,1.2-6.14-.41C23.57,131.64,9.75,110.09,4.97,82.96,1.53,63.41,.03,44.14,4.23,24.55c1.36-6.35,3.53-14.57,3.99-21.58,.06-.57,.24-.8,.48-.8,.56,0,1.45,1.21,2.01,1.98,13.16,18.15,26.43,36.25,36.14,56.57,6.98,14.6,11.5,30.03,14,46.02,1.29,8.23,2.41,16.48,3.63,24.83,2.8-.67,.56-2.34,6.9-2.75-.48-3.11-1.52-4.73-2.54-7.14,2.72,.08,5.54,2.69,8.22,2.98-1.23-4.21-1.31-9.28-2.45-14.46,4.29,2.03,11.63,7.35,15.33,8.32-.43-5.54-.87-10.68,.34-15.75,1.07,.14,3.76,2.7,6.23,4.9,1.85,1.89,4.61,4,7.13,5.36,.31,.21,.62,.42,.94,.6,2.47,1.63,6.01,3.02,9.56,3.24,2.67,.16,2.76,.31,3.19-1.65,.6-2.79,1.07-7.75,1-11.37,.13-1.07,.28-2.54,1.03-3.09,2.34,2.54,8.72,12.16,12.67,16.49,3.1,4.23,6.63,7.8,8,8.14l3.23-9.26c2.1,3.17,3.83,7.18,5.89,10.16,.62,.9,1.16,2.46,2.4,2.15,.42-.11,.67-.3,.82-.54,.05-.03,.09-.07,.13-.12,.14-.26,.21-.6,.31-.87,.2-.57,.41-1.14,.64-1.7,.23-.55,.47-1.1,.72-1.65,1.2-.28,1.47,1.05,2,1.91,1.2,1.96,2.1,4.15,3.7,5.82,.82,1.11,1.66,2.21,2.51,3.29,1.46,2.87,3.42,5.43,5.45,7.89,1.78,2.16,3.32,4.08,1.01,6.95,2.08-1.63,3.91-3.1,5.44-4.84,19.04-21.53,43.26-33.12,71.12-39.08,22.46-4.8,45.67-4.79,67.75-11.48,2.44-.74,3.43-.17,3.49,1.43-.08,.3-.25,.6-.43,.84-.35,.49-.78,.94-1.16,1.42-.74,.91-1.44,1.86-2.12,2.82-4.03,3.36-7.48,7.28-10.56,11.5-10.06,13.77-22.58,25.2-34.68,37.06-7.1,6.97-16.05,11.53-23.15,18.43,0,0,0,.01,0,.01-20.76,8.45-43.04,8.55-64.83,11.35,5.15,1.01,5.84,1.61,4.49,7.16-4.57,18.7-8.79,37.53-15.78,55.54-4.75,12.25-13.78,19.54-26.72,22.21-5.23,1.08-10.5,1.66-15.76,2.45-13.52,2.05-27.06,.97-39.98-2.63-18.32-5.11-33.39-15.93-45.76-30.52-4.21-4.96-4.99-10.24-3.61-16.23Zm.89,95.06c-4.39-13.42-3.87-26.67,4.68-38.83-9.06,10.47-9.32,22.8-7.68,35.83-3.52-1.74-6.03-4.62-9.35-6.04-.99-.64-1.96-1.32-2.88-2.07-.03-.03-.07-.04-.1-.06-4.79-5.09-9.12-10.57-11.36-18.13-1.25,2.3,.67,4.53-1.79,5.63-2.24-6.16-1.6-12.48-1.49-20.08-1.15,2.09-2.11,3.58-2.53,5.06-.95,1.95-1.82,3.94-2.59,5.96-1.48-14.75,1.08-28.67,11-41.06-2.75,.86-5.08,1.59-7.42,2.32q.37-.77,2.3-2.95s.6-.79,.6-.79c6.45-8.8,14.76-14.98,24.75-18.77,.29,18.44,15.32,25.16,26.09,35.24-1.8,2.41-5.4,3.11-7.59,7,3.03-1.97,5.15-3.22,7.11-4.67,1.74-1.28,3.11-1.15,4.93,.04,22.89,14.9,48,15.19,73.66,10.61,3.55-.63,5.23,.1,6.87,2.82,2.29,3.79,4.72,7.5,7.09,11.25-.47-6.31-4.88-10.38-8.01-15.44,16.39-4.1,25.2-15.17,29.14-30.64,.89-3.48,2.61-4.12,5.72-3.23,7.59,2.17,13.19,7.07,17.53,13.34,4.15,5.99,8.06,12.12,14.02,17.17-3.26,.54-5.75-2.02-8.48-.81-.12,1.76,2.21,2.15,1.8,3.88-1.14,.36-1.41-1.59-2.93-.64,2.49,6.05,3.99,12.46,4.5,19.1,.1,1.29,.62,2.73-1.49,2.54h-.01c-.23-1.64-.7-3.07-2.89-3.29-.54,2.95,.44,5.95-1.05,9.01-2.4-2.78-3.43-5.59-3.89-8.86-1.53,17.95-10.31,30.43-26.16,38.64-4.02,2.08-8.64,2.61-12.26,5.48-1.23,.98-2.09,2.56-3.83,2.8-1.24-1.4,1.16-3.23-.68-4.54-1.67,.95-3.29,1.88-5.54,3.16,9.55-18.55,11.94-32.66,6.7-40.45,.16,2.8,.23,5.1,.43,7.38,1.23,13.5-2.63,25.44-11.75,35.36-5.95,6.46-12.61,12.27-18.97,18.36-.17,.17-.53,.15-.71,.19-1.39-.95,1.15-2.52-.87-3.54-1.34,1.02-2.45,2.59-4.35,3.04-.9-3.1,1.59-4.17,3.4-5.35,6.53-4.25,11.55-9.98,16.12-16.15,1.01-1.38,2.63-2.65,1.68-5.46-6.03,9.18-12.93,16.92-21.74,22.85-1.75,1.18-3.85,1.99-5.37,3.5-.03,.02-.07,.04-.09,.06-.85,.83-1.76,1.62-2.69,2.35-2.81,1.33-4.49,4.28-7.42,6.09,.25-2.05,.47-3.78,.75-6.09-5.15,2.74-6.16,7.97-9,11.86-2.16-2.87-1.28-6.3-2.95-9.83v11.35c-.63-.45-1.46-.81-1.75-1.42-4.97-10.74-12.42-19.11-23.03-24.54-.39-.2-.81-.33-1.18-.48-.94,1.58,1.86,2.38,.51,4.13-11.37-7.78-22.99-15.35-27.51-29.19Zm54.46,98.04c-.69,1.27-1.28,2.88-1.16,4.27,.35,4.24-2.24,4.94-5.51,5.29-4.25,.46-7.51-.78-9.15-4.95-1.81,1.17,1,2.8-.54,3.84-4.82-.83-8.56-2.76-9.45-8.06-1.04,1.25,.26,2.98-1.09,4.12-3-1.86-4.2-4.35-4.49-7.2-.15-1.86,.32-3.72,1.4-5.26,.92-1.31,2.33-2.29,2.88-3.82,.14-.3,.24-.62,.32-.94,.11-.4,.24-.8,.3-1.2,.01-.07,.02-.14,.01-.2,.39-1.81,.4-3.72,.38-5.64-.14-11.18-4.02-21.5-7.22-31.99-2.3-7.52-4.33-15.13-6.49-22.7,6.41,3.48,12.23,6.86,17.59,11.73,.37-2.25-2.18-3.61-.81-5.3,5.88,2.7,10.09,7.1,13.36,12.46,1.99,3.27,3.88,6.59,5.86,9.87,.45,.76,.38,2.38,1.72,1.92,.86-.29,.84-1.54,.75-2.54,1.57,.35,1.36,2.34,2.55,3.03,1.39-1.12,.62-3.72,3.09-4.3,.39,3.39,.88,6.5,1.06,9.63,.76,12.99,1.2,25.95-5.36,37.94Zm70.01-24.51c-2.22,2.9-4.11,6.06-6.15,9.1-3.91,5.83-9.1,7.75-15.9,6.06-3.07-.76-1.32-2.58-.79-3.73,3.76-8.21,7.59-16.65,8.44-25.5,1.28-13.23,9.64-18.32,20.6-21.54,1.88-.56,3.51-1.94,5.16-1.83,4.23,14.98-2.88,26.4-11.36,37.44Zm69.8-57.12c-.97,11.07-1.44,22.18-2.06,33.27-.01,.03-.03,.06-.03,.1-.74,6.37-2.57,12.6-5.37,18.37-.15,.2-.29,.4-.39,.63-3.53,7.84-7.03,15.71-10.42,23.61-1.26,2.92-2.37,5.8-5.15,7.72-4.89,3.4-8.11,2.26-9.48-3.48-.17-.72,.08-1.7-.45-1.81-3.26,1.41,2.15,6.99-4.1,6.77-2.85-.1-5.62-.11-7.89-2.26-2.18-2.05-1.21-5.09-2.33-7.77-1.47,3.19,.07,6.17-.63,9.01-5.42-3.5-7.1-8.37-6.34-14.13,1.16-2.52,3.52-4.48,5.44-6.41,2.34-2.35,4.08-5.13,4.95-8.31,1.1-1.9,1.69-4.03,2.34-6.1,1.14-3.64,2.31-7.31,1.23-10.92-.29-1.75-.88-3.44-1.76-4.99-.63-2.4-2.22-4.4-3.37-6.57-2.56-4.82-3.99-10.02-5.25-15.6,.29,3.44-2.82,4-5.41,5.13-7.57,3.31-15.74,5.2-23.39,10.53,1.08-6.26,2.59-11.53,2.51-17.07-3.91,3.82-2.15,8.73-3.39,12.97-2.74,9.42-5.53,18.84-7.91,28.36-3.6,14.42-11.29,27.36-14.83,41.83-1.16,4.75-6.27,5.59-10.4,6.77-4.09,1.17-2.44-3.93-4.64-4.81-1.74,1.65,2.54,4.34-1.12,5.45-4.84,1.47-9.78-.95-12.05-5.5-.6-1.2-.24-2.96-1.91-3.68-.76,2.5,1.34,4.39,1.29,6.78-6.71-4.52-8.84-10.07-5.63-17.19,4.42-9.82,6.3-19.93,5.47-30.6-.44-5.63-.98-11.25-1.39-16.88-.14-1.98-1.1-4.22,1.14-5.8,1.35,1.23-.58,3.32,1.58,4.65,2.18-3.58,5.63-5.88,8.36-8.88,.66-.42,1.27-.9,1.87-1.41,.05-.04,.1-.07,.15-.1,.13-.08,.26-.17,.39-.26,.08-.05,.17-.11,.26-.16,1.05-.45,1.85-1.78,3.29-1.38,.22,1.66-1.08,3.45,.07,5.07,2.19-.82,2.25-3.6,4.51-3.91,1.14,1.39-.81,3.38,1.19,4.67,9.21-9.52,18.27-19.29,29.93-25.94,1.45,2.03-.02,3.91,1.69,5.68,2.22-2.99,5.49-4.29,8.73-5.82,4.17-1.98,7.81-5.03,11.85-7.32,10.96-6.2,19.75-14.11,22.53-27.1,.22-1.02,.32-2.3,1.86-2.88,.95,1.41,1.9,2.83,2.93,4.36,2.66-2.81,.92-6.77,3.27-9.3,.49,1.75,.67,3.68,2.82,5.27,.86-7.69,.07-14.62-1.98-21.47-.26-.88-1.12-1.94-.11-2.72,.9-.7,1.88-.01,2.72,.53,2.66,1.74,5.06,3.79,7.15,6.18,13.74,15.75,19.47,33.99,17.66,54.82Z"/>
        <path class="cls-4" d="M91.93,409.96c-.69,1.27-1.28,2.88-1.16,4.27,.35,4.24-2.24,4.94-5.51,5.29-4.25,.46-7.51-.78-9.15-4.95-1.81,1.17,1,2.8-.54,3.84-4.82-.83-8.56-2.76-9.45-8.06-1.04,1.25,.26,2.98-1.09,4.12-3-1.86-4.2-4.35-4.49-7.2-.15-1.86,.32-3.72,1.4-5.26,.92-1.31,2.33-2.29,2.88-3.82,.14-.3,.24-.62,.32-.94,.11-.4,.24-.8,.3-1.2,.01-.07,.02-.14,.01-.2,.39-1.81,.4-3.72,.38-5.64-.14-11.18-4.02-21.5-7.22-31.99-2.3-7.52-4.33-15.13-6.49-22.7,6.41,3.48,12.23,6.86,17.59,11.73,.37-2.25-2.18-3.61-.81-5.3,5.88,2.7,10.09,7.1,13.36,12.46,1.99,3.27,3.88,6.59,5.86,9.87,.45,.76,.38,2.38,1.72,1.92,.86-.29,.84-1.54,.75-2.54,1.57,.35,1.36,2.34,2.55,3.03,1.39-1.12,.62-3.72,3.09-4.3,.39,3.39,.88,6.5,1.06,9.63,.76,12.99,1.2,25.95-5.36,37.94Z"/>
        <path class="cls-3" d="M161.94,385.45c-2.22,2.9-4.11,6.06-6.15,9.1-3.91,5.83-9.1,7.75-15.9,6.06-3.07-.76-1.32-2.58-.79-3.73,3.76-8.21,7.59-16.65,8.44-25.5,1.28-13.23,9.64-18.32,20.6-21.54,1.88-.56,3.51-1.94,5.16-1.83,4.23,14.98-2.88,26.4-11.36,37.44Z"/>
        <path class="cls-4" d="M231.74,328.33c-.97,11.07-1.44,22.18-2.06,33.27-.01,.03-.03,.06-.03,.1-.74,6.37-2.57,12.6-5.37,18.37-.15,.2-.29,.4-.39,.63-3.53,7.84-7.03,15.71-10.42,23.61-1.26,2.92-2.37,5.8-5.15,7.72-4.89,3.4-8.11,2.26-9.48-3.48-.17-.72,.08-1.7-.45-1.81-3.26,1.41,2.15,6.99-4.1,6.77-2.85-.1-5.62-.11-7.89-2.26-2.18-2.05-1.21-5.09-2.33-7.77-1.47,3.19,.07,6.17-.63,9.01-5.42-3.5-7.1-8.37-6.34-14.13,1.16-2.52,3.52-4.48,5.44-6.41,2.34-2.35,4.08-5.13,4.95-8.31,1.1-1.9,1.69-4.03,2.34-6.1,1.14-3.64,2.31-7.31,1.23-10.92-.29-1.75-.88-3.44-1.76-4.99-.63-2.4-2.22-4.4-3.37-6.57-2.56-4.82-3.99-10.02-5.25-15.6-.05-.58-.18-1.24-.44-2.01,.14,.68,.29,1.34,.44,2.01,.29,3.44-2.82,4-5.41,5.13-7.57,3.31-15.74,5.2-23.39,10.53,1.08-6.26,2.59-11.53,2.51-17.07-3.91,3.82-2.15,8.73-3.39,12.97-2.74,9.42-5.53,18.84-7.91,28.36-3.6,14.42-11.29,27.36-14.83,41.83-1.16,4.75-6.27,5.59-10.4,6.77-4.09,1.17-2.44-3.93-4.64-4.81-1.74,1.65,2.54,4.34-1.12,5.45-4.84,1.47-9.78-.95-12.05-5.5-.6-1.2-.24-2.96-1.91-3.68-.76,2.5,1.34,4.39,1.29,6.78-6.71-4.52-8.84-10.07-5.63-17.19,4.42-9.82,6.3-19.93,5.47-30.6-.44-5.63-.98-11.25-1.39-16.88-.14-1.98-1.1-4.22,1.14-5.8,1.35,1.23-.58,3.32,1.58,4.65,2.18-3.58,5.63-5.88,8.36-8.88,.66-.42,1.27-.9,1.87-1.41,.05-.04,.1-.07,.15-.1,.13-.08,.26-.17,.39-.26,.08-.05,.17-.11,.26-.16,1.05-.45,1.85-1.78,3.29-1.38,.22,1.66-1.08,3.45,.07,5.07,2.19-.82,2.25-3.6,4.51-3.91,1.14,1.39-.81,3.38,1.19,4.67,9.21-9.52,18.27-19.29,29.93-25.94,1.45,2.03-.02,3.91,1.69,5.68,2.22-2.99,5.49-4.29,8.73-5.82,4.17-1.98,7.81-5.03,11.85-7.32,10.96-6.2,19.75-14.11,22.53-27.1,.22-1.02,.32-2.3,1.86-2.88,.95,1.41,1.9,2.83,2.93,4.36,2.66-2.81,.92-6.77,3.27-9.3,.49,1.75,.67,3.68,2.82,5.27,.86-7.69,.07-14.62-1.98-21.47-.26-.88-1.12-1.94-.11-2.72,.9-.7,1.88-.01,2.72,.53,2.66,1.74,5.06,3.79,7.15,6.18,13.74,15.75,19.47,33.99,17.66,54.82Z"/>
        <path class="cls-1" d="M210.17,261.43c-5.96-5.05-9.87-11.18-14.02-17.17-4.34-6.27-9.94-11.17-17.53-13.34-3.11-.89-4.83-.25-5.72,3.23-3.94,15.47-12.75,26.54-29.14,30.64,3.13,5.06,7.54,9.13,8.01,15.44-2.37-3.75-4.8-7.46-7.09-11.25-1.64-2.72-3.32-3.45-6.87-2.82-25.66,4.58-50.77,4.29-73.66-10.61-1.82-1.19-3.19-1.32-4.93-.04-1.96,1.45-4.08,2.7-7.11,4.67,2.19-3.89,5.79-4.59,7.59-7-10.77-10.08-25.8-16.8-26.09-35.24-9.99,3.79-18.3,9.97-24.75,18.77,0,0-.6,.78-.6,.79q-1.93,2.18-2.3,2.95c2.34-.73,4.67-1.46,7.42-2.32-9.92,12.39-12.48,26.31-11,41.06,.77-2.02,1.64-4.01,2.59-5.96,.42-1.48,1.38-2.97,2.53-5.06-.11,7.6-.75,13.92,1.49,20.08,2.46-1.1,.54-3.33,1.79-5.63,2.24,7.56,6.57,13.04,11.36,18.13,.03,.02,.07,.03,.1,.06,.92,.75,1.89,1.43,2.88,2.07,3.32,1.42,5.83,4.3,9.35,6.04-1.64-13.03-1.38-25.36,7.68-35.83-8.55,12.16-9.07,25.41-4.68,38.83,4.52,13.84,16.14,21.41,27.51,29.19,1.35-1.75-1.45-2.55-.51-4.13,.37,.15,.79,.28,1.18,.48,10.61,5.43,18.06,13.8,23.03,24.54,.29,.61,1.12,.97,1.75,1.42v-11.35c1.67,3.53,.79,6.96,2.95,9.83,2.84-3.89,3.85-9.12,9-11.86-.28,2.31-.5,4.04-.75,6.09,2.93-1.81,4.61-4.76,7.42-6.09,.93-.73,1.84-1.52,2.69-2.35,.02-.02,.06-.04,.09-.06,1.52-1.51,3.62-2.32,5.37-3.5,8.81-5.93,15.71-13.67,21.74-22.85,.95,2.81-.67,4.08-1.68,5.46-4.57,6.17-9.59,11.9-16.12,16.15-1.81,1.18-4.3,2.25-3.4,5.35,1.9-.45,3.01-2.02,4.35-3.04,2.02,1.02-.52,2.59,.87,3.54,.18-.04,.54-.02,.71-.19,6.36-6.09,13.02-11.9,18.97-18.36,9.12-9.92,12.98-21.86,11.75-35.36-.2-2.28-.27-4.58-.43-7.38,5.24,7.79,2.85,21.9-6.7,40.45,2.25-1.28,3.87-2.21,5.54-3.16,1.84,1.31-.56,3.14,.68,4.54,1.74-.24,2.6-1.82,3.83-2.8,3.62-2.87,8.24-3.4,12.26-5.48,15.85-8.21,24.63-20.69,26.16-38.64,.46,3.27,1.49,6.08,3.89,8.86,1.49-3.06,.51-6.06,1.05-9.01,2.19,.22,2.66,1.65,2.89,3.29h.01c2.11,.19,1.59-1.25,1.49-2.54-.51-6.64-2.01-13.05-4.5-19.1,1.52-.95,1.79,1,2.93,.64,.41-1.73-1.92-2.12-1.8-3.88,2.73-1.21,5.22,1.35,8.48,.81Zm-154.08,38.34c-.57,12.31,2.57,23.52,9.53,33.68-9.96-9.23-10.51-21.24-9.53-33.68Zm77.53,22.18c5.76-10.96,3.82-22.03,.8-34.1,6.48,10.75,6.07,24.68-.8,34.1Z"/>
        <path d="M133.62,321.95c5.76-10.96,3.82-22.03,.8-34.1,6.48,10.75,6.07,24.68-.8,34.1Z"/>
        <path d="M65.62,333.45c-9.96-9.23-10.51-21.24-9.53-33.68-.57,12.31,2.57,23.52,9.53,33.68Z"/>
        <g>
          <path d="M298.97,103.38c-20.52,1.47-40.4,6.47-60.18,11.6-13.62,3.53-27.28,7.45-38.79,16.4-10.72,8.33-21.54,16.48-29.59,28.84,5.2-1.98,9.14-4.87,14.77-5.78-2.71,3.84-4.95,7-7.38,10.45,2.45,.86,4.72-.92,6.87,.26-1.5,2.66-5.13,2.78-6.15,6.05,10.23-1.27,20.15-2.3,30-3.77,14.69-2.2,29.38-4.65,41.7-13.93,17.24-13,32.06-28.49,45.73-45.12,1.59-1.92,2.84-4.02,5.44-5.14-.81,.05-1.61,.09-2.42,.14Zm-14.42,12.74c-3.05,5.44-7.24,9.96-11.53,14.34-5.35,5.45-11.06,10.55-16.61,15.8-5.65,5.36-12.39,6.73-19.86,5.38-.48-.09-1.28-.03-1.42-.3-3.57-7.11-8.36-1.38-12.6-1.21-1.6,.07-3,1.52-4.77,.8-.24-2.05,2.41-2.28,2.46-4.34-2.02-1.06-4.03,.46-6.62,.2,3.28-3.02,7.06-4.43,10.5-6.37,2.1-1.19,4.74-1.61,3.67-5.53-1.03-3.79-3.51-1.89-5.4-2.34-.76-.18-1.57-.15-2.86-.26,1.53-2.54,3.94-3,5.85-4.09,2.87-1.65,5.86-2.95,7.41-6.31,1.04-2.26,3.6-2.83,5.86-3.37,14.25-3.42,28.66-5.72,43.29-6.75,4.4-.32,4.43,1.13,2.63,4.35Z"/>
          <path class="cls-5" d="M284.55,116.12c-3.05,5.44-7.24,9.96-11.53,14.34-5.35,5.45-11.06,10.55-16.61,15.8-5.65,5.36-12.39,6.73-19.86,5.38-.48-.09-1.28-.03-1.42-.3-3.57-7.11-8.36-1.38-12.6-1.21-1.6,.07-3,1.52-4.77,.8-.24-2.05,2.41-2.28,2.46-4.34-2.02-1.06-4.03,.46-6.62,.2,3.28-3.02,7.06-4.43,10.5-6.37,2.1-1.19,4.74-1.61,3.67-5.53-1.03-3.79-3.51-1.89-5.4-2.34-.76-.18-1.57-.15-2.86-.26,1.53-2.54,3.94-3,5.85-4.09,2.87-1.65,5.86-2.95,7.41-6.31,1.04-2.26,3.6-2.83,5.86-3.37,14.25-3.42,28.66-5.72,43.29-6.75,4.4-.32,4.43,1.13,2.63,4.35Z"/>
        </g>
        <g>
          <path d="M11.24,17.5C.77,55.85,5.26,105.97,49.69,147.28c-.89-3.47-2.9-6.09-2.39-9.81,1.57,1.45,2.71,2.52,4.47,4.15-.58-3.37-1.02-5.91-1.49-8.63,1.99,.37,2.36,1.88,3.37,2.68,1.05,.84,1.13,3,3.08,2.51,.82-46.16-19.57-84.19-45.49-120.68Zm30.05,72.66c.22,3.81,.47,7.1,.58,10.39,.04,1.07,1.74,3.33-1.72,2.45-1.74-.44-.7,1.31-.45,1.96,1,2.63,2.15,5.2,2.55,8.28-.84-1.22-1.68-2.45-2.53-3.66-.93-1.32-1.31-3.1-3.25-3.83-2.04,1.93,.3,4.44-.91,6.76-1.85-1.08-2.49-3.05-3.7-4.51-1.33-1.61-1.5-4.54-5.03-3.57-1.48,.4-1.96-1.96-2.69-3.2-2.25-3.81-2.79-8.63-7.93-10.69-1.68-.67-3-3.78-3.57-6.33-3.39-15.36-3.22-30.7,.24-46.01,1.08-4.78,2.11-5.08,5.54-1.7,13.5,13.28,21.84,29.46,26.34,47.73,.87,3.51,1.6,7.06,2.48,11.01-2.82-.93-2.97-3.96-5.95-5.08Z"/>
          <path class="cls-5" d="M47.24,95.24c-2.82-.93-2.97-3.96-5.95-5.08,.22,3.81,.47,7.1,.58,10.39,.04,1.07,1.74,3.33-1.72,2.45-1.74-.44-.7,1.31-.45,1.96,1,2.63,2.15,5.2,2.55,8.28-.84-1.22-1.68-2.45-2.53-3.66-.93-1.32-1.31-3.1-3.25-3.83-2.04,1.93,.3,4.44-.91,6.76-1.85-1.08-2.49-3.05-3.7-4.51-1.33-1.61-1.5-4.54-5.03-3.57-1.48,.4-1.96-1.96-2.69-3.2-2.25-3.81-2.79-8.63-7.93-10.69-1.68-.67-3-3.78-3.57-6.33-3.39-15.36-3.22-30.7,.24-46.01,1.08-4.78,2.11-5.08,5.54-1.7,13.5,13.28,21.84,29.46,26.34,47.73,.87,3.51,1.6,7.06,2.48,11.01Z"/>
        </g>
        <path d="M100.57,227.48c.08,1.48-2.08,2-3.57,1.84-2.04-.2-4.1-1.07-4.27-3.33-.09-1.29,1.67-1.23,3.1-1.24,1.41,.98,4.57-.2,4.74,2.73Z"/>
      </g>
      <g id="RightEye">
        <path d="M159.48,208.48c-.85-9.82-.44-17.13-6.15-22.77-2.39-2.36-4.3-2.79-7.34-.91-10.41,6.46-18.72,28.5-15.49,41.37,1.25,5.02,4.59,7.49,9.21,8.76,4.46,1.23,8.17-.17,11.2-3.52,6.62-7.3,9.47-15.84,8.57-22.93Zm-10.92-20.38c2.69,.39,2.82,2.6,2.55,4.59-.45,3.33-1.22,7.04-5.06,7.7-2.77,.47-3.04-2.38-3.17-4.2,.14-4.34,3.1-8.46,5.68-8.09Zm.53,42.22c-3.48,3.59-7.65,3.7-11.93,1.95-5.18-2.13-5.2-6.24-.03-12.73,1.28,3.21,2.66,6.68,6.64,6.38,5.34-.4,4.75-6.14,7.28-9.18,2.12,4.01,1.21,10.28-1.96,13.58Z"/>
        <path class="cls-2" d="M151.11,192.69c-.45,3.33-1.22,7.04-5.06,7.7-2.77,.47-3.04-2.38-3.17-4.2,.14-4.34,3.1-8.46,5.68-8.09,2.69,.39,2.82,2.6,2.55,4.59Z"/>
        <path class="cls-5" d="M149.09,230.32c-3.48,3.59-7.65,3.7-11.93,1.95-5.18-2.13-5.2-6.24-.03-12.73,1.28,3.21,2.66,6.68,6.64,6.38,5.34-.4,4.75-6.14,7.28-9.18,2.12,4.01,1.21,10.28-1.96,13.58Z"/>
      </g>
      <g id="LeftEye">
        <path d="M74.66,173.36c-1.3-4.79-5.49-6.19-9.66-3.54-4.28,2.72-6.71,6.77-8.73,11.19-4.61,10.11-5.14,20.52-1.64,30.98,1.35,4.04,4.77,6.37,9.14,6.64,4.32,.27,6.56-2.42,8.06-6.11,3.33-8.13,4.41-16.63,4.39-25.32-.07-4.68-.32-9.32-1.56-13.84Zm-7.49-.14c2.1-.26,2.47,1.96,2.22,3.67-.46,3.12-.9,6.72-4.65,7.37-2.36,.41-2.39-2.18-2.53-4.27,.46-2.95,1.09-6.3,4.96-6.77Zm1.18,41.73c-2.12,2.8-5.39,2.25-8.11,.44-2.89-1.92-4.61-4.61-5.04-8.22-.28-2.36-.39-4.84,1.98-5.52,2.31-.66,1.65,2.27,2.43,3.51,2.46,3.87,6.34,4,8.67,.06,.98-1.67,1.71-3.5,2.84-5.86,2.19,6.27,.51,11.26-2.77,15.59Z"/>
        <path class="cls-2" d="M69.39,176.89c-.46,3.12-.9,6.72-4.65,7.37-2.36,.41-2.39-2.18-2.53-4.27,.46-2.95,1.09-6.3,4.96-6.77,2.1-.26,2.47,1.96,2.22,3.67Z"/>
        <path class="cls-5" d="M68.35,214.95c-2.12,2.8-5.39,2.25-8.11,.44-2.89-1.92-4.61-4.61-5.04-8.22-.28-2.36-.39-4.84,1.98-5.52,2.31-.66,1.65,2.27,2.43,3.51,2.46,3.87,6.34,4,8.67,.06,.98-1.67,1.71-3.5,2.84-5.86,2.19,6.27,.51,11.26-2.77,15.59Z"/>
      </g>
      <path id="Mouth" d="M118.48,242.3c-4.42,5.5-9.55,4.77-14.1,3.49-7.53-2.13-14.74-5.33-22.87-4.47-2.4,.26-4.34-1.21-5.54-3.01,10.57,1.13,21.08,3.27,31.36,6.67,3.58,1.18,6.92-1.1,11.15-2.68Z"/>
    </g>
  </g>
</svg>