<?xml version="1.0" encoding="UTF-8"?>
<svg id="Layer_2" data-name="Layer 2" xmlns="http://www.w3.org/2000/svg" viewBox="0 0 276.44 264.92">
  <defs>
    <style>
      .cls-1 {
        fill: #fff;
      }

      .cls-2 {
        fill: #9d3348;
      }

      .cls-3 {
        fill: #d6bacc;
      }

      .cls-4 {
        fill: #231f20;
      }

      .cls-5 {
        fill: #887181;
      }

      .cls-6 {
        fill: #5b4a7a;
      }

      .cls-7 {
        fill: #494f5d;
      }
    </style>
  </defs>
  <g id="Layer_1-2" data-name="Layer 1">
    <g>
      <path class="cls-1" d="M83.62,105.65c-.01-.06-.01-.12-.02-.17,0-.15,0-.3,.05-.41,1.74-2.96,5.5-3.03,8.01-4.6,.69-.43,1.6-.3,2.16,.27,.06,.06,.12,.12,.17,.19,4,5.42-9.58,13.61-10.37,4.72Z"/>
      <path class="cls-1" d="M56.82,93.89c-.37,.46-.87,.71-1.52,.64-.18-.01-.35-.11-.48-.23-2.49-2.39-1.76-5.25-1.04-8.12,.84-1.65,1.64-1.95,2.3-1.48h0c1.64,1.17,2.4,7.19,.74,9.19Z"/>
      <path class="cls-4" d="M275.29,96.69c-2.18-2.68-4.87-4.66-8.02-5.94-4.23-1.73-8.75-2.15-13.26-2.72-6.94-.89-13.46,.93-19.97,2.73-3.92,1.08-7.28,3.49-10.79,5.52-.34,.2-.65,.75-1.08,.34-.51-.49,.05-.86,.33-1.21,1.93-2.42,3.8-4.9,5.84-7.23,4.1-4.69,8.5-9.09,14.21-11.79,4.97-2.34,10.22-4.05,15.44-5.8,2.82-.95,5.44-2.2,7.63-4.25,2.29-2.14,2.69-4.59,1.34-7.59-.96-2.14-2.88-3.14-5.94-2.67-3.05,.46-6.1,.95-9.08,1.88-3.02,.95-5.79,2.46-8.7,3.63-5.37,2.15-10.43,4.89-15.12,8.26-5.18,3.71-9.18,8.64-12.74,13.83-3.6,5.24-6.39,10.94-8.38,17.04-2,6.15-3.88,12.31-4.58,18.77-.79,7.28-.03,14.48,.82,21.71,.97,8.3,1.8,16.63,.93,25.03-.45,4.41-.67,8.89-1.72,13.17-2.55,10.34-6.18,20.23-13.67,28.24-1.82,1.94-2.75,2.06-4.53,.07-2.85-3.19-5.91-6.1-9.59-8.38-4.28-2.64-8.74-4.9-13.11-7.36-5.73-3.21-10.66-7.66-15.67-11.89-4.61-3.89-8.8-8.24-12.79-12.77-3.48-3.98-6.86-8.05-9.71-12.49-1.59-2.47-2.64-5.24-3.85-7.92-1.72-3.78-3.75-7.44-4.9-11.46-.7-2.44-1.56-4.86-1.29-7.57,.43,.47,.88,.91,1.27,1.41,4.88,6.37,10.5,11.93,17.56,15.91,2.98,1.69,6.02,3.23,9.28,4.29,1.69,.55,2.32-.08,2.15-1.77-.67-6.65-2.49-13.01-5.1-19.12-2.91-6.77-6.66-13.02-12.48-17.79-.34-.28-1.02-.41-.86-1.01,.14-.54,.78-.49,1.22-.62,5.55-1.75,11.03-3.7,16.37-6.01,9.17-3.97,18.31-7.98,27.1-12.72,6.64-3.58,13.12-7.4,18.64-12.65,2.26-2.14,4.28-4.47,5.76-7.23,.24-.45,.5-1.01,.12-1.52-.4-.53-.97-.34-1.48-.21-2.07,.53-4.16,.92-6.18,1.67-3.34,1.24-6.72,2.57-10.41,1.88-3.88-.73-7.74-1.57-11.64-2.23-6.16-1.04-12.32-2.07-18.53-2.68-4.52-.44-9.05-.75-13.58-1.01-6.28-.35-12.58-.45-18.87-.02-3.18,.22-5.99-.18-8.61-2.42-4.49-3.83-9.75-6.66-15.53-7.6-4.84-.8-8.14-2.78-11.08-6.71-4.6-6.15-10.03-11.66-15.34-17.23-5.69-5.95-11.46-11.81-18.13-16.7-.76-.55-1.31-1.25-1.43-2.22-.37-2.93-.99-5.8-1.66-8.66-.32-1.35-.72-2.7-1.29-3.95-.59-1.29-1.52-1.24-2.2,0-.83,1.55-1.75,3.05-2.38,4.71-1.9,5.04-4.23,9.97-3.48,15.6,.15,1.06,.37,2.11,.39,3.18,.1,6.83,1.84,13.43,3.26,20.03,1.95,9.07,5.15,17.83,7.81,26.73,.3,1.02,.19,1.45-.93,1.28-3.13-.47-6.27-.6-9.42-.58-7.66,.02-15.11,1.12-22.15,4.36-4.15,1.91-7.51,4.84-10.71,8.01-1.12,1.11-1.14,1.36,.4,1.82,5.02,1.5,10.2,2.29,15.37,3.05,4.39,.65,8.82,.87,13.26,.39,.67-.07,1.22,.08,.65,.83-1.37,1.8-2.26,3.87-3.36,5.81-.25,.44-.88,.8-.37,1.37,.45,.51,1,.15,1.49-.02,4.33-1.46,8.29-3.67,12.09-6.18,2.16-1.43,4.28-2.91,6.6-4.49-.08,1.58-.27,2.95-.2,4.3,.49,10.39,3.69,19.69,11.28,27.11,4.07,3.96,8.72,6.84,14.67,6.99,2.26,.05,2.48,.42,2.58,2.72,.27,6.15-.21,12.26-.86,18.38-.77,7.22-1.19,14.48-1.98,21.69-.67,6.04-.47,12.03,.37,18.02,.7,4.95,2.61,9.57,3.84,14.37,1.75,6.79,3.03,13.66,3.43,20.64,.47,8.39-.96,16.62-2.81,24.77-1,4.43-2.86,8.59-4.5,12.82-.49,1.26-.74,2.45,.43,3.52,1.18,1.09,2.45,1.23,3.83,.49,1.12-.6,2.21-1.25,3.24-2.04,.92-.71,1.76-1.87,3.19-1.45,1.66,.48,2.94-.16,4.34-.98,4.16-2.45,7.26-5.91,10.01-9.77,.39-.55,.83-.77,1.24-.13,.95,1.48,2.45,2.37,3.71,3.51,1.39,1.25,1.34,1.67-.41,2.16-2.47,.69-4.19,2.29-5.56,4.33-1.43,2.13-.42,4.44,2.12,4.99,1.42,.31,2.84,.39,4.29,.38,4-.03,7.99-.24,11.99-.05,2.12,.1,4.28,.19,6.37-.39,.71-.2,1.34-.18,2.03,.03,2.76,.86,5.63,1.33,8.48,1.51,3.98,.26,7.97,.17,11.98-.25,6.03-.63,11.92-1.74,17.73-3.45,2.44-.72,4.91-1.23,7.54-1.04,2.89,.22,5.68-.35,8.38-1.58,2.61-1.2,4.89-2.88,7.09-4.64,3.34-2.67,6.57-5.45,7.7-9.91,1.59-6.24,2.37-12.48,.64-18.8-.3-1.08-.24-1.89,.52-2.79,1.14-1.34,2.2-2.76,3.15-4.24,6.18-9.63,12-19.43,15.51-30.44,2.23-7.02,3.57-14.17,4.1-21.5,.45-6.27-.41-12.49-1.13-18.68-.76-6.43-1.4-12.82-.96-19.31,.43-6.31,2.66-11.69,7.61-15.82,4.84-4.04,10.16-7.29,16.04-9.51,5.89-2.23,11.98-3.04,18.24-1.55,3.25,.78,6.24,2.17,9.2,3.64,2.44,1.22,4.93,1.41,7.43,.28,3.06-1.39,4.97-5.41,2.47-8.5Zm-120.77-.11c-2.94,1.37-5.88,2.71-8.87,3.97-4.5,1.88-9.04,3.69-13.56,5.52-2.42,.97-4.78,2.12-7.44,2.37-.99,.1-1.7-.17-2.49-.75-2.65-1.96-5.32-3.92-8.11-5.69-1.13-.71-.87-1.54-.85-2.47,.2-2.33,.64-4.66,.23-7.01-.13-.7,.36-.85,.91-1.06,3.2-1.21,6.53-1.94,9.84-2.76,4.14-1.03,8.28-2.09,12.47-2.89,4.54-.87,9.07-1.81,13.74-1.97,7.73-.26,15.45-.73,23.17-1.11,.36-.02,.82-.16,1.03,.21,.3,.54-.3,.69-.57,.98-1.85,1.97-4.1,3.42-6.38,4.8-2.39,1.43-4.5,3.25-6.85,4.7-1.98,1.24-4.15,2.18-6.27,3.16ZM41.41,58.28c-.77-3.1-2.08-6.04-2.61-9.22-.83-5.01-1.11-10.07-1.59-15.1-.2-2.01-.43-4.02-.64-6.02,2.59,2.81,5.05,5.58,7.11,8.68,4.34,6.55,8.08,13.43,11.49,20.5,1.2,2.5,2.17,5.1,3.31,7.63,.29,.66,.16,1.08-.34,1.53-2.15,1.94-4.04,4.09-5.47,6.63-.44,.79-1,1.18-1.97,.82-.64-.24-1.35-.43-2.03-.41-2.84,.1-3.83-1.73-4.42-4.07-.93-3.66-1.93-7.3-2.84-10.97Zm4.61,28.14c-5.17,4-10.92,7.03-16.83,9.76-.3,.14-.7,.48-.99,.02-.19-.31,.05-.62,.25-.87,1.47-1.83,2.29-4.12,4.11-5.69,.25-.21,.48-.46,.38-.82-.13-.42-.51-.31-.81-.28-9.3,1.11-18.39-.36-27.43-2.37-.97-.21-2.51,.15-2.78-1.08-.24-1.13,1.22-1.59,1.95-2.3,5.04-4.89,11.36-7.3,18.01-8.81,3.4-.78,6.95-1.15,10-.93,6.43-.19,12.3,.42,18.12,1.56,.9,.18,1.29,.51,.84,1.38-1.48,2.9-2.94,5.8-3.52,9.05-.12,.65-.79,.99-1.3,1.38Zm49.14,163.51c-2.11,2.83-4.7,5.2-7.54,7.29-.7,.52-1.49,.83-2.33,1.03-.31,.07-.67,.12-.84-.23-.18-.36,.13-.55,.35-.79,3.61-4.07,6.76-8.46,9.05-13.42,.18-.38,.17-.95,.61-1.07,.6-.17,.77,.48,1.03,.83,.61,.8,1.15,1.65,1.79,2.6-.97,1.15-1.27,2.63-2.12,3.76ZM270.53,104.64c-3.17,.46-5.69-1.2-8.33-2.37-3.82-1.71-7.79-2.38-11.94-2.52-11.01-.36-19.96,4.35-28.13,11.13-2.6,2.15-4.64,4.76-6.37,7.57-1.71,2.78-2.19,5.98-2.59,9.23-.68,5.6,.01,11.03,.76,16.55,1.07,7.8,1.97,15.67,1.3,23.57-.45,5.35-1.13,10.69-2.74,15.87-2.15,6.87-4.32,13.74-7.99,19.98-5.19,8.83-10.52,17.58-17.04,25.53-.71,.87-1.29,1.84-1.9,2.77-.13,.21-.29,.63-.2,.71,1.27,1.2,.04,2.13-.29,3.15-.25,.76-1.2,1.88-.36,2.22,.94,.39,.75-1.06,1.06-1.7,.59-1.22,.87-2.52,1.09-3.84,.47-2.8,2.6-4.61,4.12-6.77,.61-.86,1.12-.05,1.39,.52,.65,1.33,.61,2.83,.63,4.24,.11,8.01-1.51,15.56-7.31,21.51-3.87,3.97-8.58,6.63-14.22,7.3-.83,.11-1.7-.02-2.55-.05-.4-.01-.94,.16-1.11-.37-.16-.51,.32-.72,.66-.97,.23-.17,.43-.39,.53-.48-17.45,6.58-35.09,9.17-53.4,1.9,1.12,1.12,2.4,1.58,3.69,2.05,.47,.17,1.24,.27,1.07,.93-.16,.61-.83,.18-1.27,.18-4.01-.05-8.02-.09-12.03-.14-2.46-.04-4.93-.02-7.39-.16-1.91-.1-2.22-.65-1.7-2.48,1.26-4.4,6.93-6.71,10.86-4.41,.68,.4,1.32,.91,2.63,.74-1.51-1-2.7-1.88-3.98-2.62-5.56-3.19-9.92-7.6-12.88-13.25-1.43-2.73-1.47-5.82-1.04-8.9,.66-4.67,2.42-8.89,5.5-12.41,5.44-6.21,11.79-11.28,19.51-14.47,.48-.2,.94-.47,1.35-.83-2.2,.22-4.15,1.16-6.05,2.18-3.94,2.09-7.5,4.71-10.79,7.7-1.34,1.22-1.38,1-2.11-.56-1.28-2.75-.14-5.46-.27-8.18-.1-2.03-.1-4.06-.16-6.09-.03-1.07-.12-2.12,.76-2.98,.32-.31,.69-.82-.24-.97-.64-.11-.48-.67-.55-1.15-.41-3-.31-6.07-1.11-9.03-.06-.19-.01-.44-.5-.5,.76,3.5,.53,7.01,.62,10.5,.16,6.83,.19,13.66-.67,20.47-.24,1.95-.84,3.49-1.96,5.07-2.21,3.09-3.21,6.67-3.93,10.39-.47,2.38-.7,4.71-.31,7.09,.04,.21,.04,.46,.14,.62,1.61,2.42,.52,4.55-.63,6.72-3.08,5.76-6.97,10.84-12.11,14.96-1.54,1.23-3.35,1.57-5.06,2.2-1.1,.4-1.44-.71-1.22-1.63,.44-1.76,.83-3.56,1.55-5.21,2.31-5.28,3.43-10.85,4.41-16.47,.82-4.66,1.6-9.34,1.53-14.08-.06-3.23-.72-6.45-.83-9.69-.14-3.9-.85-7.72-1.65-11.5-.68-3.21-1.6-6.4-2.74-9.47-2.35-6.31-3.33-12.79-2.93-19.47,.33-5.64,.79-11.26,1.52-16.87,.64-4.86,.61-9.8,1.24-14.66,.69-5.44,.24-10.86,.28-16.29,0-1.21,.7-1.45,1.63-1.48,1.55-.06,3.1-.07,4.65-.1,.57-.02,1.15-.01,1.79-.57-2.81,0-5.42-.05-8.02,0-9.06,.21-15.7-3.98-21.07-11-3.53-4.63-5.57-9.81-6.81-15.33-1.92-8.58-.21-16.57,4.52-23.98,4.6-7.2,11.09-12.01,18.82-15.32,.4-.17,.77-.37,1.15-.58,.18-.09,.33-.23,.45-.51-1.14-.03-2.19,.34-3.17,.87-2.87,1.54-5.72,3.1-8.31,5.1-1.41,1.09-2.11,.91-2.8-.74-3.28-7.79-7.1-15.3-11.47-22.52-3.17-5.22-6.82-10.08-10.85-14.67-.3-.34-.56-.95-1.11-.72-.64,.25-.37,.91-.35,1.42,.2,4.3,1.17,8.53,1.04,12.89-.43-1.68-.98-3.34-1.26-5.04-.81-5-1.38-10.03-1.72-15.1-.18-2.6,.63-4.96,1.35-7.34,1.04-3.47,2.41-6.84,4.13-10.04,.21-.4,.32-.98,.97-.86,.37,.06,.43,.42,.49,.74,.61,3.13,2.02,6.07,2.23,9.3,.01,.16,.15,.32,.12,.46-.61,3.74,2.4,5.3,4.5,7.33,2.43,2.32,5.25,4.19,7.69,6.52,3.01,2.88,5.91,5.88,8.73,8.94,4.79,5.17,9.42,10.49,14.16,15.71,1.26,1.38,2.17,3.04,3.53,4.35,.71,.68,.45,.98-1.11,1.4,.09,.52,.52,.46,.87,.48,9.61,.34,18.17,3.4,25.4,9.86,.99,.89,1.89,1.19,3.26,1.06,4.91-.43,9.82-.15,14.74-.02,2.67,.06,5.35,.01,8,.26,5.72,.54,11.47,.62,17.18,1.44,6.6,.96,13.19,1.99,19.78,3.03,2.47,.39,4.94,.86,7.38,1.4,1.59,.36,3.11,.11,4.59-.29,3.45-.93,6.86-1.97,10.3-2.94,.53-.15,1.19-.69,1.63-.12,.5,.66-.39,.96-.66,1.43-2.16,3.65-5.22,6.56-8.57,9-5.12,3.72-10.58,6.99-16.11,10.13-.65,.37-1.2,1.05-2.12,.98,.05-.81,.67-1,1.15-1.28,3.52-2.12,6.8-4.57,10.02-7.11,.45-.35,.33-.6,.07-.9-.51-.56-1.16-.62-1.89-.66-4.01-.22-7.98,.52-11.98,.55-5.33,.03-10.66,.44-15.96,.86-5.29,.43-10.56,1.43-15.73,2.8-3.66,.96-7.31,1.95-10.99,2.83-2.59,.62-5.01,1.86-7.75,1.9-.83,.01-.77,.79-.62,1.37,.67,2.59,.19,5.19,.13,7.78-.01,.26-.02,.64-.18,.75-1.74,1.24-.15,1.62,.57,2.04,5.51,3.21,10.62,7.01,15.26,11.34,3.47,3.23,6.15,7.2,8.22,11.54,2.98,6.25,4.78,12.85,6.24,19.58,.09,.41,.06,.85,.1,1.27,.24,2.88,.26,2.83-2.33,1.74-5.13-2.17-10.02-4.69-14.33-8.3-5.79-4.84-10.97-10.14-14.09-17.15-.13-.29-.3-.57-.48-.83-.04-.07-.18-.07-.41-.15,.15,3.82-1.32,7.24-2.33,10.77-.1,.36-.24,.7-.38,1.05-.14,.35-.28,.75-.72,.77-.53,.02-.66-.47-.81-.86-.68-1.75-.8-3.62-1.02-5.46-.45-3.93-.11-7.84,.5-11.84-1.76,1.78-4.08,2.56-6.11,3.82,1.41,.12,2.53-.56,3.65-1.2,.37-.21,.73-.63,1.14-.33,.41,.29,.12,.79,.08,1.2-.55,4.82-.36,9.58,1.14,14.23,.27,.85,.5,2.11,1.32,2.24,.83,.12,1.02-1.18,1.36-1.89,1.18-2.46,2.06-5.03,2.31-7.78,.04-.38-.08-.97,.56-.94,.47,.02,.49,.52,.53,.87,.19,1.96,.36,3.91,.74,5.86,.9,4.66,2.6,8.99,4.55,13.27,2.36,5.16,5.14,10.1,8.58,14.6,2.65,3.47,5.44,6.85,8.27,10.19,5.35,6.32,11.65,11.58,18.11,16.66,4.07,3.2,8.29,6.13,13.01,8.41,4.01,1.94,8.02,4.03,11.61,6.72,3.16,2.36,5.81,5.3,8.27,8.41,.76,.97,.51,1.6-.35,2.27-1.15,.9-2.28,1.84-3.42,2.76,.11,.15,.22,.3,.33,.45,1.27-.88,2.58-1.69,3.78-2.66,1.24-1,2.38-2.15,3.32-3.46,2.28-3.21,4.73-6.34,6.75-9.72,4.31-7.2,7.01-15.01,8.47-23.3,1.05-5.97,1.55-11.98,1.42-18-.14-7.23-.33-14.49-1.56-21.67-.65-3.85-.73-7.73-.63-11.64,.08-3.68,.09-7.35,.85-10.95,1.12-5.27,2.76-10.39,4.76-15.39,1.57-3.92,3.25-7.79,5.5-11.37,4.17-6.61,8.87-12.66,15.29-17.44,5.27-3.93,11.12-6.46,16.99-9.12,4.56-2.06,9.29-3.36,14.26-3.88,2.97-.31,4.22,.25,5.58,2.54,.88,1.5,.18,2.78-.46,4.04-1.21,2.41-3.37,3.79-5.68,4.97-2.77,1.41-5.8,2.13-8.7,3.19-5.36,1.94-10.77,3.76-15.39,7.31-7.84,6.02-14.12,13.29-18.06,22.43-.72,1.66-1.84,3.14-2.19,4.96-.06,.3-.24,.6,.02,.98,.7-.16,.65-.82,.86-1.3,1.23-2.72,2.22-5.63,4.69-7.51,2.64-2,5.5-3.67,8.51-5.08,9.16-4.31,18.72-5.43,28.73-3.96,5.47,.81,10.47,2.37,14.7,6.02,2.18,1.89,2.5,2.83,1.59,5.46-.74,2.12-2.3,3.17-4.53,3.49Z"/>
      <path class="cls-5" d="M97.28,246.17c-.97,1.15-1.27,2.63-2.12,3.76-2.11,2.83-4.7,5.2-7.54,7.29-.7,.52-1.49,.83-2.33,1.03-.31,.07-.67,.12-.84-.23-.18-.36,.13-.55,.35-.79,3.61-4.07,6.76-8.46,9.05-13.42,.18-.38,.17-.95,.61-1.07,.6-.17,.77,.48,1.03,.83,.61,.8,1.15,1.65,1.79,2.6Z"/>
      <path class="cls-7" d="M58.14,66.28c-2.15,1.94-4.04,4.09-5.47,6.63-.44,.79-1,1.18-1.97,.82-.64-.24-1.35-.43-2.03-.41-2.84,.1-3.83-1.73-4.42-4.07-.93-3.66-1.93-7.3-2.84-10.97-.77-3.1-2.08-6.04-2.61-9.22-.83-5.01-1.11-10.07-1.59-15.1-.2-2.01-.43-4.02-.64-6.02,2.59,2.81,5.05,5.58,7.11,8.68,4.34,6.55,8.08,13.43,11.49,20.5,1.2,2.5,2.17,5.1,3.31,7.63,.29,.66,.16,1.08-.34,1.53Z"/>
      <path class="cls-3" d="M50.84,75.99c-1.48,2.9-2.94,5.8-3.52,9.05-.12,.65-.79,.99-1.3,1.38-5.17,4-10.92,7.03-16.83,9.76-.3,.14-.7,.48-.99,.02-.19-.31,.05-.62,.25-.87,1.47-1.83,2.29-4.12,4.11-5.69,.25-.21,.48-.46,.38-.82-.13-.42-.51-.31-.81-.28-9.3,1.11-18.39-.36-27.43-2.37-.97-.21-2.51,.15-2.78-1.08-.24-1.13,1.22-1.59,1.95-2.3,5.04-4.89,11.36-7.3,18.01-8.81,3.4-.78,6.95-1.15,10-.93,6.43-.19,12.3,.42,18.12,1.56,.9,.18,1.29,.51,.84,1.38Z"/>
      <path class="cls-7" d="M174.02,83.92c-1.85,1.97-4.1,3.42-6.38,4.8-2.39,1.43-4.5,3.25-6.85,4.7-1.98,1.24-4.15,2.18-6.27,3.16-2.94,1.37-5.88,2.71-8.87,3.97-4.5,1.88-9.04,3.69-13.56,5.52-2.42,.97-4.78,2.12-7.44,2.37-.99,.1-1.7-.17-2.49-.75-2.65-1.96-5.32-3.92-8.11-5.69-1.13-.71-.87-1.54-.85-2.47,.2-2.33,.64-4.66,.23-7.01-.13-.7,.36-.85,.91-1.06,3.2-1.21,6.53-1.94,9.84-2.76,4.14-1.03,8.28-2.09,12.47-2.89,4.54-.87,9.07-1.81,13.74-1.97,7.73-.26,15.45-.73,23.17-1.11,.36-.02,.82-.16,1.03,.21,.3,.54-.3,.69-.57,.98Z"/>
      <path class="cls-3" d="M273.47,95.69c-4.23-3.65-9.23-5.21-14.7-6.02-10.01-1.47-19.57-.35-28.73,3.96-3.01,1.41-5.87,3.08-8.51,5.08-2.47,1.88-3.46,4.79-4.69,7.51-.21,.48-.16,1.14-.86,1.3-.26-.38-.08-.68-.02-.98,.35-1.82,1.47-3.3,2.19-4.96,3.94-9.14,10.22-16.41,18.06-22.43,4.62-3.55,10.03-5.37,15.39-7.31,2.9-1.06,5.93-1.78,8.7-3.19,2.31-1.18,4.47-2.56,5.68-4.97,.64-1.26,1.34-2.54,.46-4.04-1.36-2.29-2.61-2.85-5.58-2.54-4.97,.52-9.7,1.82-14.26,3.88-5.87,2.66-11.72,5.19-16.99,9.12-6.42,4.78-11.12,10.83-15.29,17.44-2.25,3.58-3.93,7.45-5.5,11.37-2,5-3.64,10.12-4.76,15.39-.76,3.6-.77,7.27-.85,10.95-.1,3.91-.02,7.79,.63,11.64,1.23,7.18,1.42,14.44,1.56,21.67,.13,6.02-.37,12.03-1.42,18-1.46,8.29-4.16,16.1-8.47,23.3-2.02,3.38-4.47,6.51-6.75,9.72-.94,1.31-2.08,2.46-3.32,3.46-1.2,.97-2.51,1.78-3.78,2.66-.11-.15-.22-.3-.33-.45,1.14-.92,2.27-1.86,3.42-2.76,.86-.67,1.11-1.3,.35-2.27-2.46-3.11-5.11-6.05-8.27-8.41-3.59-2.69-7.6-4.78-11.61-6.72-4.72-2.28-8.94-5.21-13.01-8.41-6.46-5.08-12.76-10.34-18.11-16.66-2.83-3.34-5.62-6.72-8.27-10.19-3.44-4.5-6.22-9.44-8.58-14.6-1.95-4.28-3.65-8.61-4.55-13.27-.38-1.95-.55-3.9-.74-5.86-.04-.35-.06-.85-.53-.87-.64-.03-.52,.56-.56,.94-.25,2.75-1.13,5.32-2.31,7.78-.34,.71-.53,2.01-1.36,1.89-.82-.13-1.05-1.39-1.32-2.24-1.5-4.65-1.69-9.41-1.14-14.23,.04-.41,.33-.91-.08-1.2-.41-.3-.77,.12-1.14,.33-1.12,.64-2.24,1.32-3.65,1.2,2.03-1.26,4.35-2.04,6.11-3.82-.61,4-.95,7.91-.5,11.84,.22,1.84,.34,3.71,1.02,5.46,.15,.39,.28,.88,.81,.86,.44-.02,.58-.42,.72-.77,.14-.35,.28-.69,.38-1.05,1.01-3.53,2.48-6.95,2.33-10.77,.23,.08,.37,.08,.41,.15,.18,.26,.35,.54,.48,.83,3.12,7.01,8.3,12.31,14.09,17.15,4.31,3.61,9.2,6.13,14.33,8.3,2.59,1.09,2.57,1.14,2.33-1.74-.04-.42-.01-.86-.1-1.27-1.46-6.73-3.26-13.33-6.24-19.58-2.07-4.34-4.75-8.31-8.22-11.54-4.64-4.33-9.75-8.13-15.26-11.34-.72-.42-2.31-.8-.57-2.04,.16-.11,.17-.49,.18-.75,.06-2.59,.54-5.19-.13-7.78-.15-.58-.21-1.36,.62-1.37,2.74-.04,5.16-1.28,7.75-1.9,3.68-.88,7.33-1.87,10.99-2.83,5.17-1.37,10.44-2.37,15.73-2.8,5.3-.42,10.63-.83,15.96-.86,4-.03,7.97-.77,11.98-.55,.73,.04,1.38,.1,1.89,.66,.26,.3,.38,.55-.07,.9-3.22,2.54-6.5,4.99-10.02,7.11-.48,.28-1.1,.47-1.15,1.28,.92,.07,1.47-.61,2.12-.98,5.53-3.14,10.99-6.41,16.11-10.13,3.35-2.44,6.41-5.35,8.57-9,.27-.47,1.16-.77,.66-1.43-.44-.57-1.1-.03-1.63,.12-3.44,.97-6.85,2.01-10.3,2.94-1.48,.4-3,.65-4.59,.29-2.44-.54-4.91-1.01-7.38-1.4-6.59-1.04-13.18-2.07-19.78-3.03-5.71-.82-11.46-.9-17.18-1.44-2.65-.25-5.33-.2-8-.26-4.92-.13-9.83-.41-14.74,.02-1.37,.13-2.27-.17-3.26-1.06-7.23-6.46-15.79-9.52-25.4-9.86-.35-.02-.78,.04-.87-.48,1.56-.42,1.82-.72,1.11-1.4-1.36-1.31-2.27-2.97-3.53-4.35-4.74-5.22-9.37-10.54-14.16-15.71-2.82-3.06-5.72-6.06-8.73-8.94-2.44-2.33-5.26-4.2-7.69-6.52-2.1-2.03-5.11-3.59-4.5-7.33,.03-.14-.11-.3-.12-.46-.21-3.23-1.62-6.17-2.23-9.3-.06-.32-.12-.68-.49-.74-.65-.12-.76,.46-.97,.86-1.72,3.2-3.09,6.57-4.13,10.04-.72,2.38-1.53,4.74-1.35,7.34,.34,5.07,.91,10.1,1.72,15.1,.28,1.7,.83,3.36,1.26,5.04,.13-4.36-.84-8.59-1.04-12.89-.02-.51-.29-1.17,.35-1.42,.55-.23,.81,.38,1.11,.72,4.03,4.59,7.68,9.45,10.85,14.67,4.37,7.22,8.19,14.73,11.47,22.52,.69,1.65,1.39,1.83,2.8,.74,2.59-2,5.44-3.56,8.31-5.1,.98-.53,2.03-.9,3.17-.87-.12,.28-.27,.42-.45,.51-.38,.21-.75,.41-1.15,.58-7.73,3.31-14.22,8.12-18.82,15.32-4.73,7.41-6.44,15.4-4.52,23.98,1.24,5.52,3.28,10.7,6.81,15.33,5.37,7.02,12.01,11.21,21.07,11,2.6-.05,5.21,0,8.02,0-.64,.56-1.22,.55-1.79,.57-1.55,.03-3.1,.04-4.65,.1-.93,.03-1.62,.27-1.63,1.48-.04,5.43,.41,10.85-.28,16.29-.63,4.86-.6,9.8-1.24,14.66-.73,5.61-1.19,11.23-1.52,16.87-.4,6.68,.58,13.16,2.93,19.47,1.14,3.07,2.06,6.26,2.74,9.47,.8,3.78,1.51,7.6,1.65,11.5,.11,3.24,.77,6.46,.83,9.69,.07,4.74-.71,9.42-1.53,14.08-.98,5.62-2.1,11.19-4.41,16.47-.72,1.65-1.11,3.45-1.55,5.21-.22,.92,.12,2.03,1.22,1.63,1.71-.63,3.52-.97,5.06-2.2,5.14-4.12,9.03-9.2,12.11-14.96,1.15-2.17,2.24-4.3,.63-6.72-.1-.16-.1-.41-.14-.62-.39-2.38-.16-4.71,.31-7.09,.72-3.72,1.72-7.3,3.93-10.39,1.12-1.58,1.72-3.12,1.96-5.07,.86-6.81,.83-13.64,.67-20.47-.09-3.49,.14-7-.62-10.5,.49,.06,.44,.31,.5,.5,.8,2.96,.7,6.03,1.11,9.03,.07,.48-.09,1.04,.55,1.15,.93,.15,.56,.66,.24,.97-.88,.86-.79,1.91-.76,2.98,.06,2.03,.06,4.06,.16,6.09,.13,2.72-1.01,5.43,.27,8.18,.73,1.56,.77,1.78,2.11,.56,3.29-2.99,6.85-5.61,10.79-7.7,1.9-1.02,3.85-1.96,6.05-2.18-.41,.36-.87,.63-1.35,.83-7.72,3.19-14.07,8.26-19.51,14.47-3.08,3.52-4.84,7.74-5.5,12.41-.43,3.08-.39,6.17,1.04,8.9,2.96,5.65,7.32,10.06,12.88,13.25,1.28,.74,2.47,1.62,3.98,2.62-1.31,.17-1.95-.34-2.63-.74-3.93-2.3-9.6,.01-10.86,4.41-.52,1.83-.21,2.38,1.7,2.48,2.46,.14,4.93,.12,7.39,.16,4.01,.05,8.02,.09,12.03,.14,.44,0,1.11,.43,1.27-.18,.17-.66-.6-.76-1.07-.93-1.29-.47-2.57-.93-3.69-2.05,18.31,7.27,35.95,4.68,53.4-1.9-.1,.09-.3,.31-.53,.48-.34,.25-.82,.46-.66,.97,.17,.53,.71,.36,1.11,.37,.85,.03,1.72,.16,2.55,.05,5.64-.67,10.35-3.33,14.22-7.3,5.8-5.95,7.42-13.5,7.31-21.51-.02-1.41,.02-2.91-.63-4.24-.27-.57-.78-1.38-1.39-.52-1.52,2.16-3.65,3.97-4.12,6.77-.22,1.32-.5,2.62-1.09,3.84-.31,.64-.12,2.09-1.06,1.7-.84-.34,.11-1.46,.36-2.22,.33-1.02,1.56-1.95,.29-3.15-.09-.08,.07-.5,.2-.71,.61-.93,1.19-1.9,1.9-2.77,6.52-7.95,11.85-16.7,17.04-25.53,3.67-6.24,5.84-13.11,7.99-19.98,1.61-5.18,2.29-10.52,2.74-15.87,.67-7.9-.23-15.77-1.3-23.57-.75-5.52-1.44-10.95-.76-16.55,.4-3.25,.88-6.45,2.59-9.23,1.73-2.81,3.77-5.42,6.37-7.57,8.17-6.78,17.12-11.49,28.13-11.13,4.15,.14,8.12,.81,11.94,2.52,2.64,1.17,5.16,2.83,8.33,2.37,2.23-.32,3.79-1.37,4.53-3.49,.91-2.63,.59-3.57-1.59-5.46Zm-215.82,.92c-.01,.1-.05,.18-.1,.25-.04,1.47-.27,2.89-.4,4.31-.1,1-.69,.79-1.39,.55-4.05-1.38-5.58-4.6-6.02-8.46-.49-4.35,.33-8.48,2.52-12.34,.74-1.3,2-2.19,2.59-3.61,.26-.63,.72-.25,.8,.24,.29,1.76,.73,3.5,1.03,5.32,1.11,4.48,1.45,9.14,.97,13.74Zm30.68-2.62c-3.07,2.51-5.92,5.23-8.65,8.12,2.15-3.47,4.84-6.39,8.65-8.12Zm-26.83-5.11c.13,.03,.26,.06,.4,.09-.36,1.46-.72,2.91-1.08,4.37-.14-.04-.29-.07-.43-.1-.06-1.56,.44-2.98,1.11-4.36Zm.41,28.04c-.62-.09-1.36-.13-1.5-.9-.08-.48,.42-.6,.78-.53,.6,.13,1.22,.27,1.55,.86-.08,.54-.47,.62-.83,.57Zm11.37-23.68c-3.9-.1-6.12-2.27-6.01-5.88-.08-4.03,2.69-6.1,5.55-6.14,2.9-.05,5.69,3,5.57,5.8-.14,3.26-2.61,6.28-5.11,6.22Zm17.82,21.38c-3.51,.88-6.77-.07-9.75-2.02-.75-.5-1.45-1.09-2.14-1.68-1.63-1.37-1.68-1.46-.12-2.91,.78-.72,1.57-1.42,2.37-2.09,.03-.09,.08-.18,.17-.24,.49-.36,.98-.72,1.47-1.07,1.34-1.02,2.74-1.95,4.24-2.74,.15-.08,.29-.17,.44-.25,1.52-.85,3.12-1.29,4.77-1.64,.88-.42,1.76-.52,2.59-.68,2.37-.45,4.77-.52,7.17-.29,.82,.08,.93,.4,.95,1.23,.21,6.83-6.12,12.86-12.16,14.38Zm13.2,75.01c-.71,1.49-1.11,3.12-2.18,4.45,1.03-1.42,.53-3.27,1.4-4.73,.14-.23,.23-.5,.57-.38,.32,.12,.33,.41,.21,.66Z"/>
      <path class="cls-4" d="M102.31,99.01c-2.4-.23-4.8-.16-7.17,.29-.83,.16-1.71,.26-2.59,.68-1.65,.35-3.25,.79-4.77,1.64-.15,.08-.29,.17-.44,.25-1.5,.79-2.9,1.72-4.24,2.74-.49,.35-.98,.71-1.47,1.07-.09,.06-.14,.15-.17,.24-.8,.67-1.59,1.37-2.37,2.09-1.56,1.45-1.51,1.54,.12,2.91,.69,.59,1.39,1.18,2.14,1.68,2.98,1.95,6.24,2.9,9.75,2.02,6.04-1.52,12.37-7.55,12.16-14.38-.02-.83-.13-1.15-.95-1.23Zm-.2,2.9c-.07,.58-.25,1.15-.4,1.71-1.1,3.94-3.76,6.58-7.07,8.77-5.16,3.42-11.41,1.49-14.84-2.2-.36-.38-.71-.79-.19-1.22,.89-.72,1.69-1.56,2.48-2.41,0-.01,.03-.01,.05-.02,.48-.36,.97-.72,1.46-1.06,1.45-1.03,2.94-2.01,4.49-2.89,1.01-.58,2.06-1.05,3.19-1.33,.82-.2,1.64-.36,2.47-.52h.07c.22-.01,.44-.04,.67-.12,.09-.02,.17-.04,.25-.07,.09-.02,.19-.03,.29-.05,.07-.02,.14-.05,.19-.08,1.63-.4,3.32-.37,4.97-.51,1.71-.15,2.12,.3,1.92,2Z"/>
      <path class="cls-6" d="M102.11,101.91c-.07,.58-.25,1.15-.4,1.71-1.1,3.94-3.76,6.58-7.07,8.77-5.16,3.42-11.41,1.49-14.84-2.2-.36-.38-.71-.79-.19-1.22,.89-.72,1.69-1.56,2.48-2.41,0-.01,.03-.01,.05-.02,.48-.36,.97-.72,1.46-1.06,.01,.05,.01,.11,.02,.17,.79,8.89,14.37,.7,10.37-4.72-.05-.07-.11-.13-.17-.19,.22-.01,.44-.04,.67-.12,.09-.02,.17-.04,.25-.07,.09-.02,.19-.03,.29-.05,.07-.02,.14-.05,.19-.08,1.63-.4,3.32-.37,4.97-.51,1.71-.15,2.12,.3,1.92,2Z"/>
      <path class="cls-4" d="M56.68,82.87c-.3-1.82-.74-3.56-1.03-5.32-.08-.49-.54-.87-.8-.24-.59,1.42-1.85,2.31-2.59,3.61-2.19,3.86-3.01,7.99-2.52,12.34,.44,3.86,1.97,7.08,6.02,8.46,.7,.24,1.29,.45,1.39-.55,.13-1.42,.36-2.84,.4-4.31,.05-.07,.09-.15,.1-.25,.48-4.6,.14-9.26-.97-13.74Zm.04,12.85c-.11,.23-.15,.5-.13,.81,.04,.79,.04,1.6-.05,2.39-.06,.6,.16,1.43-.56,1.72-.74,.3-1.31-.34-1.82-.77-2.39-1.98-3.37-4.58-3.68-7.67-.46-4.57,.77-8.53,3.47-12.13,.24-.33,.46-.84,.98-.65,.37,.14,.34,.61,.4,.98,.06,.46,.12,.92,.19,1.39-.06,.1-.09,.22-.05,.37,.23,.84,.44,1.69,.61,2.54h0c.62,3.03,.86,6.11,.74,9.19-.01,.61-.05,1.22-.1,1.83Z"/>
      <path class="cls-6" d="M56.72,95.72c-.11,.23-.15,.5-.13,.81,.04,.79,.04,1.6-.05,2.39-.06,.6,.16,1.43-.56,1.72-.74,.3-1.31-.34-1.82-.77-2.39-1.98-3.37-4.58-3.68-7.67-.46-4.57,.77-8.53,3.47-12.13,.24-.33,.46-.84,.98-.65,.37,.14,.34,.61,.4,.98,.06,.46,.12,.92,.19,1.39-.06,.1-.09,.22-.05,.37,.23,.84,.44,1.69,.61,2.54-.66-.47-1.46-.17-2.3,1.48-.72,2.87-1.45,5.73,1.04,8.12,.13,.12,.3,.22,.48,.23,.65,.07,1.15-.18,1.52-.64-.01,.61-.05,1.22-.1,1.83Z"/>
      <path class="cls-4" d="M72.82,81.22c-2.86,.04-5.63,2.11-5.55,6.14-.11,3.61,2.11,5.78,6.01,5.88,2.5,.06,4.97-2.96,5.11-6.22,.12-2.8-2.67-5.85-5.57-5.8Zm.31,11.09c-2.74,.06-4.65-1.93-4.77-4.98-.11-2.99,1.4-4.98,3.86-5.08,2.71-.11,4.89,1.97,4.95,4.72,.07,3.14-1.55,5.28-4.04,5.34Z"/>
      <path class="cls-2" d="M77.17,86.97c.07,3.14-1.55,5.28-4.04,5.34-2.74,.06-4.65-1.93-4.77-4.98-.11-2.99,1.4-4.98,3.86-5.08,2.71-.11,4.89,1.97,4.95,4.72Z"/>
      <path class="cls-4" d="M88.33,93.99c-3.07,2.51-5.92,5.23-8.65,8.12,2.15-3.47,4.84-6.39,8.65-8.12Z"/>
      <path class="cls-4" d="M104.3,189.63c-.71,1.49-1.11,3.12-2.18,4.45,1.03-1.42,.53-3.27,1.4-4.73,.14-.23,.23-.5,.57-.38,.32,.12,.33,.41,.21,.66Z"/>
      <path class="cls-4" d="M61.9,88.97c-.36,1.46-.72,2.91-1.08,4.37-.14-.04-.29-.07-.43-.1-.06-1.56,.44-2.98,1.11-4.36,.13,.03,.26,.06,.4,.09Z"/>
      <path class="cls-4" d="M62.74,116.35c-.08,.54-.47,.62-.83,.57-.62-.09-1.36-.13-1.5-.9-.08-.48,.42-.6,.78-.53,.6,.13,1.22,.27,1.55,.86Z"/>
    </g>
  </g>
</svg>