<?xml version="1.0" encoding="UTF-8"?>
<svg id="Layer_2" data-name="Layer 2" xmlns="http://www.w3.org/2000/svg" viewBox="0 0 353.25 315.25">
  <defs>
    <style>
      .cls-1 {
        fill: #f7eaa0;
      }

      .cls-2 {
        fill: #002c3a;
      }

      .cls-3 {
        fill: #e87e4b;
      }

      .cls-4 {
        fill: #fff;
      }

      .cls-5 {
        fill: #caa0b4;
      }

      .cls-6 {
        fill: #c56a3e;
      }
    </style>
  </defs>
  <g id="Layer_1-2" data-name="Layer 1">
    <g>
      <path class="cls-3" d="M28.34,190.12c-1.38-.12-2.77-.1-4.26-.46,.52,.77,1.78,.86,1.35,1.99-.21,.55-.83,.55-1.25,.36-.76-.36-2.17-.73-1.8-1.59,1.07-2.46-1.07-1.56-1.88-2.04,.28,1.72,1.45,2.84,2.54,3.89,1.8,1.72,4.41,1.39,5.98-.43,.97-1.13,.42-1.63-.68-1.72Zm55.75-22.35c-.21-1.1-.88-1.85-2.09-1.91-6.04-.29-12.05,.03-17.82,1.92-5.87,1.92-9.08,6.66-12.01,11.72-1.18,2.03-1.16,3.34,.43,5.24,4.18,5.03,9.73,7.14,15.71,6.08,10.7-1.89,15.62-8.38,16.1-20.24-.07-.65-.11-1.74-.32-2.81Zm-7.87,18.11c-3.37,4.28-11.7,5.46-16.11,2.27-2.29-1.65-2.32-4.23,.04-5.98,3-2.22,6.4-3.34,10.45-3.3,1.83-.1,3.8,.24,5.36,1.86,1.55,1.63,1.65,3.38,.26,5.15Zm.73-7.29c-2.33-.05-4.16-2.41-4.18-5.41-.02-3.14,2.36-5.95,5.02-5.93,2.34,.02,4.04,2.11,4.04,4.98,.01,3.19-2.45,6.4-4.88,6.36Zm95.64-95.1c-13.43,5.3-26.38,11.61-39.22,18.16-2.61,1.33-5.22,2.7-7.48,4.62-3.08,2.6-6.25,5.1-9.25,7.79-5.1,4.58-9.86,9.44-13.65,15.23-2.32,3.53-4.12,7.38-6.83,10.68-1.07,1.31-1.22,3.25-1.25,5.13,.83-2,2.6-2.84,4.21-3.79,3.53-2.08,7.12-4.05,10.69-6.07,.43-.24,.91-.52,1.28-.01,.28,.39-.16,.72-.32,1.08-1.73,3.67-4.73,6.5-6.62,10.07-.22,.4-.75,.74-.42,1.26,.35,.55,.87,.12,1.31,.06,6.16-.86,12.1-2.73,18.28-3.63,6.19-.91,12.23-2.76,18.25-4.54,8.18-2.43,15.03-6.79,20.32-13.52,8.23-10.47,14.89-21.91,20.7-33.86,2.65-5.44,5.34-10.87,7.6-16.53-5.88,2.65-11.63,5.52-17.6,7.87Zm4.55,14.97c-.75,1.62-1.77,3.08-2.84,4.5-.92,1.2-1.79,2.37-1.65,4.06,.05,.67-.41,1.44-.79,2.07-4.16,6.84-8.14,13.79-14.04,19.4-3.45,3.28-7.15,6.04-11.61,7.9-6.03,2.51-12.24,4.31-18.6,5.69-.62,.14-1.28,.52-1.98-.19,.73-.92,1.91-1.03,2.78-1.62,.62-.41,1.02-.68,1.06-1.68,.07-1.58-.12-2.28-2.48-1.42,2.17-1.85,3.95-3.02,4.99-5.01-3.3,1.12-6.4,2.72-9.89,3.44,1.17-1.73,2.93-2.91,4.11-4.62,.59-.85,1.23-1.66,1.41-2.69,.39-2.21,1.69-3.82,3.21-5.36,7.27-7.32,16.01-12.32,25.47-16.18,1.16-.47,2.48-1.5,3.51,.35,.2,.36,.76,.16,1.16,.05,4.57-1.35,8.93-3.03,12.08-6.91,.81-1,1.81-1.85,2.76-2.74,.39-.36,.87-.91,1.41-.53,.57,.4,.15,1.01-.07,1.49Zm-4.55-14.97c-13.43,5.3-26.38,11.61-39.22,18.16-2.61,1.33-5.22,2.7-7.48,4.62-3.08,2.6-6.25,5.1-9.25,7.79-5.1,4.58-9.86,9.44-13.65,15.23-2.32,3.53-4.12,7.38-6.83,10.68-1.07,1.31-1.22,3.25-1.25,5.13,.83-2,2.6-2.84,4.21-3.79,3.53-2.08,7.12-4.05,10.69-6.07,.43-.24,.91-.52,1.28-.01,.28,.39-.16,.72-.32,1.08-1.73,3.67-4.73,6.5-6.62,10.07-.22,.4-.75,.74-.42,1.26,.35,.55,.87,.12,1.31,.06,6.16-.86,12.1-2.73,18.28-3.63,6.19-.91,12.23-2.76,18.25-4.54,8.18-2.43,15.03-6.79,20.32-13.52,8.23-10.47,14.89-21.91,20.7-33.86,2.65-5.44,5.34-10.87,7.6-16.53-5.88,2.65-11.63,5.52-17.6,7.87Zm4.55,14.97c-.75,1.62-1.77,3.08-2.84,4.5-.92,1.2-1.79,2.37-1.65,4.06,.05,.67-.41,1.44-.79,2.07-4.16,6.84-8.14,13.79-14.04,19.4-3.45,3.28-7.15,6.04-11.61,7.9-6.03,2.51-12.24,4.31-18.6,5.69-.62,.14-1.28,.52-1.98-.19,.73-.92,1.91-1.03,2.78-1.62,.62-.41,1.02-.68,1.06-1.68,.07-1.58-.12-2.28-2.48-1.42,2.17-1.85,3.95-3.02,4.99-5.01-3.3,1.12-6.4,2.72-9.89,3.44,1.17-1.73,2.93-2.91,4.11-4.62,.59-.85,1.23-1.66,1.41-2.69,.39-2.21,1.69-3.82,3.21-5.36,7.27-7.32,16.01-12.32,25.47-16.18,1.16-.47,2.48-1.5,3.51,.35,.2,.36,.76,.16,1.16,.05,4.57-1.35,8.93-3.03,12.08-6.91,.81-1,1.81-1.85,2.76-2.74,.39-.36,.87-.91,1.41-.53,.57,.4,.15,1.01-.07,1.49Zm-93.05,69.31c-.21-1.1-.88-1.85-2.09-1.91-6.04-.29-12.05,.03-17.82,1.92-5.87,1.92-9.08,6.66-12.01,11.72-1.18,2.03-1.16,3.34,.43,5.24,4.18,5.03,9.73,7.14,15.71,6.08,10.7-1.89,15.62-8.38,16.1-20.24-.07-.65-.11-1.74-.32-2.81Zm-7.87,18.11c-3.37,4.28-11.7,5.46-16.11,2.27-2.29-1.65-2.32-4.23,.04-5.98,3-2.22,6.4-3.34,10.45-3.3,1.83-.1,3.8,.24,5.36,1.86,1.55,1.63,1.65,3.38,.26,5.15Zm.73-7.29c-2.33-.05-4.16-2.41-4.18-5.41-.02-3.14,2.36-5.95,5.02-5.93,2.34,.02,4.04,2.11,4.04,4.98,.01,3.19-2.45,6.4-4.88,6.36Zm-48.61,11.53c-1.38-.12-2.77-.1-4.26-.46,.52,.77,1.78,.86,1.35,1.99-.21,.55-.83,.55-1.25,.36-.76-.36-2.17-.73-1.8-1.59,1.07-2.46-1.07-1.56-1.88-2.04,.28,1.72,1.45,2.84,2.54,3.89,1.8,1.72,4.41,1.39,5.98-.43,.97-1.13,.42-1.63-.68-1.72Zm0,0c-1.38-.12-2.77-.1-4.26-.46,.52,.77,1.78,.86,1.35,1.99-.21,.55-.83,.55-1.25,.36-.76-.36-2.17-.73-1.8-1.59,1.07-2.46-1.07-1.56-1.88-2.04,.28,1.72,1.45,2.84,2.54,3.89,1.8,1.72,4.41,1.39,5.98-.43,.97-1.13,.42-1.63-.68-1.72Zm55.75-22.35c-.21-1.1-.88-1.85-2.09-1.91-6.04-.29-12.05,.03-17.82,1.92-5.87,1.92-9.08,6.66-12.01,11.72-1.18,2.03-1.16,3.34,.43,5.24,4.18,5.03,9.73,7.14,15.71,6.08,10.7-1.89,15.62-8.38,16.1-20.24-.07-.65-.11-1.74-.32-2.81Zm-7.87,18.11c-3.37,4.28-11.7,5.46-16.11,2.27-2.29-1.65-2.32-4.23,.04-5.98,3-2.22,6.4-3.34,10.45-3.3,1.83-.1,3.8,.24,5.36,1.86,1.55,1.63,1.65,3.38,.26,5.15Zm.73-7.29c-2.33-.05-4.16-2.41-4.18-5.41-.02-3.14,2.36-5.95,5.02-5.93,2.34,.02,4.04,2.11,4.04,4.98,.01,3.19-2.45,6.4-4.88,6.36Zm95.64-95.1c-13.43,5.3-26.38,11.61-39.22,18.16-2.61,1.33-5.22,2.7-7.48,4.62-3.08,2.6-6.25,5.1-9.25,7.79-5.1,4.58-9.86,9.44-13.65,15.23-2.32,3.53-4.12,7.38-6.83,10.68-1.07,1.31-1.22,3.25-1.25,5.13,.83-2,2.6-2.84,4.21-3.79,3.53-2.08,7.12-4.05,10.69-6.07,.43-.24,.91-.52,1.28-.01,.28,.39-.16,.72-.32,1.08-1.73,3.67-4.73,6.5-6.62,10.07-.22,.4-.75,.74-.42,1.26,.35,.55,.87,.12,1.31,.06,6.16-.86,12.1-2.73,18.28-3.63,6.19-.91,12.23-2.76,18.25-4.54,8.18-2.43,15.03-6.79,20.32-13.52,8.23-10.47,14.89-21.91,20.7-33.86,2.65-5.44,5.34-10.87,7.6-16.53-5.88,2.65-11.63,5.52-17.6,7.87Zm4.55,14.97c-.75,1.62-1.77,3.08-2.84,4.5-.92,1.2-1.79,2.37-1.65,4.06,.05,.67-.41,1.44-.79,2.07-4.16,6.84-8.14,13.79-14.04,19.4-3.45,3.28-7.15,6.04-11.61,7.9-6.03,2.51-12.24,4.31-18.6,5.69-.62,.14-1.28,.52-1.98-.19,.73-.92,1.91-1.03,2.78-1.62,.62-.41,1.02-.68,1.06-1.68,.07-1.58-.12-2.28-2.48-1.42,2.17-1.85,3.95-3.02,4.99-5.01-3.3,1.12-6.4,2.72-9.89,3.44,1.17-1.73,2.93-2.91,4.11-4.62,.59-.85,1.23-1.66,1.41-2.69,.39-2.21,1.69-3.82,3.21-5.36,7.27-7.32,16.01-12.32,25.47-16.18,1.16-.47,2.48-1.5,3.51,.35,.2,.36,.76,.16,1.16,.05,4.57-1.35,8.93-3.03,12.08-6.91,.81-1,1.81-1.85,2.76-2.74,.39-.36,.87-.91,1.41-.53,.57,.4,.15,1.01-.07,1.49Zm-4.55-14.97c-13.43,5.3-26.38,11.61-39.22,18.16-2.61,1.33-5.22,2.7-7.48,4.62-3.08,2.6-6.25,5.1-9.25,7.79-5.1,4.58-9.86,9.44-13.65,15.23-2.32,3.53-4.12,7.38-6.83,10.68-1.07,1.31-1.22,3.25-1.25,5.13,.83-2,2.6-2.84,4.21-3.79,3.53-2.08,7.12-4.05,10.69-6.07,.43-.24,.91-.52,1.28-.01,.28,.39-.16,.72-.32,1.08-1.73,3.67-4.73,6.5-6.62,10.07-.22,.4-.75,.74-.42,1.26,.35,.55,.87,.12,1.31,.06,6.16-.86,12.1-2.73,18.28-3.63,6.19-.91,12.23-2.76,18.25-4.54,8.18-2.43,15.03-6.79,20.32-13.52,8.23-10.47,14.89-21.91,20.7-33.86,2.65-5.44,5.34-10.87,7.6-16.53-5.88,2.65-11.63,5.52-17.6,7.87Zm4.55,14.97c-.75,1.62-1.77,3.08-2.84,4.5-.92,1.2-1.79,2.37-1.65,4.06,.05,.67-.41,1.44-.79,2.07-4.16,6.84-8.14,13.79-14.04,19.4-3.45,3.28-7.15,6.04-11.61,7.9-6.03,2.51-12.24,4.31-18.6,5.69-.62,.14-1.28,.52-1.98-.19,.73-.92,1.91-1.03,2.78-1.62,.62-.41,1.02-.68,1.06-1.68,.07-1.58-.12-2.28-2.48-1.42,2.17-1.85,3.95-3.02,4.99-5.01-3.3,1.12-6.4,2.72-9.89,3.44,1.17-1.73,2.93-2.91,4.11-4.62,.59-.85,1.23-1.66,1.41-2.69,.39-2.21,1.69-3.82,3.21-5.36,7.27-7.32,16.01-12.32,25.47-16.18,1.16-.47,2.48-1.5,3.51,.35,.2,.36,.76,.16,1.16,.05,4.57-1.35,8.93-3.03,12.08-6.91,.81-1,1.81-1.85,2.76-2.74,.39-.36,.87-.91,1.41-.53,.57,.4,.15,1.01-.07,1.49Zm-93.05,69.31c-.21-1.1-.88-1.85-2.09-1.91-6.04-.29-12.05,.03-17.82,1.92-5.87,1.92-9.08,6.66-12.01,11.72-1.18,2.03-1.16,3.34,.43,5.24,4.18,5.03,9.73,7.14,15.71,6.08,10.7-1.89,15.62-8.38,16.1-20.24-.07-.65-.11-1.74-.32-2.81Zm-7.87,18.11c-3.37,4.28-11.7,5.46-16.11,2.27-2.29-1.65-2.32-4.23,.04-5.98,3-2.22,6.4-3.34,10.45-3.3,1.83-.1,3.8,.24,5.36,1.86,1.55,1.63,1.65,3.38,.26,5.15Zm.73-7.29c-2.33-.05-4.16-2.41-4.18-5.41-.02-3.14,2.36-5.95,5.02-5.93,2.34,.02,4.04,2.11,4.04,4.98,.01,3.19-2.45,6.4-4.88,6.36Zm-48.61,11.53c-1.38-.12-2.77-.1-4.26-.46,.52,.77,1.78,.86,1.35,1.99-.21,.55-.83,.55-1.25,.36-.76-.36-2.17-.73-1.8-1.59,1.07-2.46-1.07-1.56-1.88-2.04,.28,1.72,1.45,2.84,2.54,3.89,1.8,1.72,4.41,1.39,5.98-.43,.97-1.13,.42-1.63-.68-1.72Zm0,0c-1.38-.12-2.77-.1-4.26-.46,.52,.77,1.78,.86,1.35,1.99-.21,.55-.83,.55-1.25,.36-.76-.36-2.17-.73-1.8-1.59,1.07-2.46-1.07-1.56-1.88-2.04,.28,1.72,1.45,2.84,2.54,3.89,1.8,1.72,4.41,1.39,5.98-.43,.97-1.13,.42-1.63-.68-1.72Zm55.75-22.35c-.21-1.1-.88-1.85-2.09-1.91-6.04-.29-12.05,.03-17.82,1.92-5.87,1.92-9.08,6.66-12.01,11.72-1.18,2.03-1.16,3.34,.43,5.24,4.18,5.03,9.73,7.14,15.71,6.08,10.7-1.89,15.62-8.38,16.1-20.24-.07-.65-.11-1.74-.32-2.81Zm-7.87,18.11c-3.37,4.28-11.7,5.46-16.11,2.27-2.29-1.65-2.32-4.23,.04-5.98,3-2.22,6.4-3.34,10.45-3.3,1.83-.1,3.8,.24,5.36,1.86,1.55,1.63,1.65,3.38,.26,5.15Zm.73-7.29c-2.33-.05-4.16-2.41-4.18-5.41-.02-3.14,2.36-5.95,5.02-5.93,2.34,.02,4.04,2.11,4.04,4.98,.01,3.19-2.45,6.4-4.88,6.36Zm95.64-95.1c-13.43,5.3-26.38,11.61-39.22,18.16-2.61,1.33-5.22,2.7-7.48,4.62-3.08,2.6-6.25,5.1-9.25,7.79-5.1,4.58-9.86,9.44-13.65,15.23-2.32,3.53-4.12,7.38-6.83,10.68-1.07,1.31-1.22,3.25-1.25,5.13,.83-2,2.6-2.84,4.21-3.79,3.53-2.08,7.12-4.05,10.69-6.07,.43-.24,.91-.52,1.28-.01,.28,.39-.16,.72-.32,1.08-1.73,3.67-4.73,6.5-6.62,10.07-.22,.4-.75,.74-.42,1.26,.35,.55,.87,.12,1.31,.06,6.16-.86,12.1-2.73,18.28-3.63,6.19-.91,12.23-2.76,18.25-4.54,8.18-2.43,15.03-6.79,20.32-13.52,8.23-10.47,14.89-21.91,20.7-33.86,2.65-5.44,5.34-10.87,7.6-16.53-5.88,2.65-11.63,5.52-17.6,7.87Zm4.55,14.97c-.75,1.62-1.77,3.08-2.84,4.5-.92,1.2-1.79,2.37-1.65,4.06,.05,.67-.41,1.44-.79,2.07-4.16,6.84-8.14,13.79-14.04,19.4-3.45,3.28-7.15,6.04-11.61,7.9-6.03,2.51-12.24,4.31-18.6,5.69-.62,.14-1.28,.52-1.98-.19,.73-.92,1.91-1.03,2.78-1.62,.62-.41,1.02-.68,1.06-1.68,.07-1.58-.12-2.28-2.48-1.42,2.17-1.85,3.95-3.02,4.99-5.01-3.3,1.12-6.4,2.72-9.89,3.44,1.17-1.73,2.93-2.91,4.11-4.62,.59-.85,1.23-1.66,1.41-2.69,.39-2.21,1.69-3.82,3.21-5.36,7.27-7.32,16.01-12.32,25.47-16.18,1.16-.47,2.48-1.5,3.51,.35,.2,.36,.76,.16,1.16,.05,4.57-1.35,8.93-3.03,12.08-6.91,.81-1,1.81-1.85,2.76-2.74,.39-.36,.87-.91,1.41-.53,.57,.4,.15,1.01-.07,1.49Zm-4.55-14.97c-13.43,5.3-26.38,11.61-39.22,18.16-2.61,1.33-5.22,2.7-7.48,4.62-3.08,2.6-6.25,5.1-9.25,7.79-5.1,4.58-9.86,9.44-13.65,15.23-2.32,3.53-4.12,7.38-6.83,10.68-1.07,1.31-1.22,3.25-1.25,5.13,.83-2,2.6-2.84,4.21-3.79,3.53-2.08,7.12-4.05,10.69-6.07,.43-.24,.91-.52,1.28-.01,.28,.39-.16,.72-.32,1.08-1.73,3.67-4.73,6.5-6.62,10.07-.22,.4-.75,.74-.42,1.26,.35,.55,.87,.12,1.31,.06,6.16-.86,12.1-2.73,18.28-3.63,6.19-.91,12.23-2.76,18.25-4.54,8.18-2.43,15.03-6.79,20.32-13.52,8.23-10.47,14.89-21.91,20.7-33.86,2.65-5.44,5.34-10.87,7.6-16.53-5.88,2.65-11.63,5.52-17.6,7.87Zm4.55,14.97c-.75,1.62-1.77,3.08-2.84,4.5-.92,1.2-1.79,2.37-1.65,4.06,.05,.67-.41,1.44-.79,2.07-4.16,6.84-8.14,13.79-14.04,19.4-3.45,3.28-7.15,6.04-11.61,7.9-6.03,2.51-12.24,4.31-18.6,5.69-.62,.14-1.28,.52-1.98-.19,.73-.92,1.91-1.03,2.78-1.62,.62-.41,1.02-.68,1.06-1.68,.07-1.58-.12-2.28-2.48-1.42,2.17-1.85,3.95-3.02,4.99-5.01-3.3,1.12-6.4,2.72-9.89,3.44,1.17-1.73,2.93-2.91,4.11-4.62,.59-.85,1.23-1.66,1.41-2.69,.39-2.21,1.69-3.82,3.21-5.36,7.27-7.32,16.01-12.32,25.47-16.18,1.16-.47,2.48-1.5,3.51,.35,.2,.36,.76,.16,1.16,.05,4.57-1.35,8.93-3.03,12.08-6.91,.81-1,1.81-1.85,2.76-2.74,.39-.36,.87-.91,1.41-.53,.57,.4,.15,1.01-.07,1.49Zm-93.05,69.31c-.21-1.1-.88-1.85-2.09-1.91-6.04-.29-12.05,.03-17.82,1.92-5.87,1.92-9.08,6.66-12.01,11.72-1.18,2.03-1.16,3.34,.43,5.24,4.18,5.03,9.73,7.14,15.71,6.08,10.7-1.89,15.62-8.38,16.1-20.24-.07-.65-.11-1.74-.32-2.81Zm-7.87,18.11c-3.37,4.28-11.7,5.46-16.11,2.27-2.29-1.65-2.32-4.23,.04-5.98,3-2.22,6.4-3.34,10.45-3.3,1.83-.1,3.8,.24,5.36,1.86,1.55,1.63,1.65,3.38,.26,5.15Zm.73-7.29c-2.33-.05-4.16-2.41-4.18-5.41-.02-3.14,2.36-5.95,5.02-5.93,2.34,.02,4.04,2.11,4.04,4.98,.01,3.19-2.45,6.4-4.88,6.36Zm-48.61,11.53c-1.38-.12-2.77-.1-4.26-.46,.52,.77,1.78,.86,1.35,1.99-.21,.55-.83,.55-1.25,.36-.76-.36-2.17-.73-1.8-1.59,1.07-2.46-1.07-1.56-1.88-2.04,.28,1.72,1.45,2.84,2.54,3.89,1.8,1.72,4.41,1.39,5.98-.43,.97-1.13,.42-1.63-.68-1.72Zm0,0c-1.38-.12-2.77-.1-4.26-.46,.52,.77,1.78,.86,1.35,1.99-.21,.55-.83,.55-1.25,.36-.76-.36-2.17-.73-1.8-1.59,1.07-2.46-1.07-1.56-1.88-2.04,.28,1.72,1.45,2.84,2.54,3.89,1.8,1.72,4.41,1.39,5.98-.43,.97-1.13,.42-1.63-.68-1.72Zm55.75-22.35c-.21-1.1-.88-1.85-2.09-1.91-6.04-.29-12.05,.03-17.82,1.92-5.87,1.92-9.08,6.66-12.01,11.72-1.18,2.03-1.16,3.34,.43,5.24,4.18,5.03,9.73,7.14,15.71,6.08,10.7-1.89,15.62-8.38,16.1-20.24-.07-.65-.11-1.74-.32-2.81Zm-7.87,18.11c-3.37,4.28-11.7,5.46-16.11,2.27-2.29-1.65-2.32-4.23,.04-5.98,3-2.22,6.4-3.34,10.45-3.3,1.83-.1,3.8,.24,5.36,1.86,1.55,1.63,1.65,3.38,.26,5.15Zm.73-7.29c-2.33-.05-4.16-2.41-4.18-5.41-.02-3.14,2.36-5.95,5.02-5.93,2.34,.02,4.04,2.11,4.04,4.98,.01,3.19-2.45,6.4-4.88,6.36Zm95.64-95.1c-13.43,5.3-26.38,11.61-39.22,18.16-2.61,1.33-5.22,2.7-7.48,4.62-3.08,2.6-6.25,5.1-9.25,7.79-5.1,4.58-9.86,9.44-13.65,15.23-2.32,3.53-4.12,7.38-6.83,10.68-1.07,1.31-1.22,3.25-1.25,5.13,.83-2,2.6-2.84,4.21-3.79,3.53-2.08,7.12-4.05,10.69-6.07,.43-.24,.91-.52,1.28-.01,.28,.39-.16,.72-.32,1.08-1.73,3.67-4.73,6.5-6.62,10.07-.22,.4-.75,.74-.42,1.26,.35,.55,.87,.12,1.31,.06,6.16-.86,12.1-2.73,18.28-3.63,6.19-.91,12.23-2.76,18.25-4.54,8.18-2.43,15.03-6.79,20.32-13.52,8.23-10.47,14.89-21.91,20.7-33.86,2.65-5.44,5.34-10.87,7.6-16.53-5.88,2.65-11.63,5.52-17.6,7.87Zm4.55,14.97c-.75,1.62-1.77,3.08-2.84,4.5-.92,1.2-1.79,2.37-1.65,4.06,.05,.67-.41,1.44-.79,2.07-4.16,6.84-8.14,13.79-14.04,19.4-3.45,3.28-7.15,6.04-11.61,7.9-6.03,2.51-12.24,4.31-18.6,5.69-.62,.14-1.28,.52-1.98-.19,.73-.92,1.91-1.03,2.78-1.62,.62-.41,1.02-.68,1.06-1.68,.07-1.58-.12-2.28-2.48-1.42,2.17-1.85,3.95-3.02,4.99-5.01-3.3,1.12-6.4,2.72-9.89,3.44,1.17-1.73,2.93-2.91,4.11-4.62,.59-.85,1.23-1.66,1.41-2.69,.39-2.21,1.69-3.82,3.21-5.36,7.27-7.32,16.01-12.32,25.47-16.18,1.16-.47,2.48-1.5,3.51,.35,.2,.36,.76,.16,1.16,.05,4.57-1.35,8.93-3.03,12.08-6.91,.81-1,1.81-1.85,2.76-2.74,.39-.36,.87-.91,1.41-.53,.57,.4,.15,1.01-.07,1.49Zm-4.55-14.97c-13.43,5.3-26.38,11.61-39.22,18.16-2.61,1.33-5.22,2.7-7.48,4.62-3.08,2.6-6.25,5.1-9.25,7.79-5.1,4.58-9.86,9.44-13.65,15.23-2.32,3.53-4.12,7.38-6.83,10.68-1.07,1.31-1.22,3.25-1.25,5.13,.83-2,2.6-2.84,4.21-3.79,3.53-2.08,7.12-4.05,10.69-6.07,.43-.24,.91-.52,1.28-.01,.28,.39-.16,.72-.32,1.08-1.73,3.67-4.73,6.5-6.62,10.07-.22,.4-.75,.74-.42,1.26,.35,.55,.87,.12,1.31,.06,6.16-.86,12.1-2.73,18.28-3.63,6.19-.91,12.23-2.76,18.25-4.54,8.18-2.43,15.03-6.79,20.32-13.52,8.23-10.47,14.89-21.91,20.7-33.86,2.65-5.44,5.34-10.87,7.6-16.53-5.88,2.65-11.63,5.52-17.6,7.87Zm4.55,14.97c-.75,1.62-1.77,3.08-2.84,4.5-.92,1.2-1.79,2.37-1.65,4.06,.05,.67-.41,1.44-.79,2.07-4.16,6.84-8.14,13.79-14.04,19.4-3.45,3.28-7.15,6.04-11.61,7.9-6.03,2.51-12.24,4.31-18.6,5.69-.62,.14-1.28,.52-1.98-.19,.73-.92,1.91-1.03,2.78-1.62,.62-.41,1.02-.68,1.06-1.68,.07-1.58-.12-2.28-2.48-1.42,2.17-1.85,3.95-3.02,4.99-5.01-3.3,1.12-6.4,2.72-9.89,3.44,1.17-1.73,2.93-2.91,4.11-4.62,.59-.85,1.23-1.66,1.41-2.69,.39-2.21,1.69-3.82,3.21-5.36,7.27-7.32,16.01-12.32,25.47-16.18,1.16-.47,2.48-1.5,3.51,.35,.2,.36,.76,.16,1.16,.05,4.57-1.35,8.93-3.03,12.08-6.91,.81-1,1.81-1.85,2.76-2.74,.39-.36,.87-.91,1.41-.53,.57,.4,.15,1.01-.07,1.49Zm-93.05,69.31c-.21-1.1-.88-1.85-2.09-1.91-6.04-.29-12.05,.03-17.82,1.92-5.87,1.92-9.08,6.66-12.01,11.72-1.18,2.03-1.16,3.34,.43,5.24,4.18,5.03,9.73,7.14,15.71,6.08,10.7-1.89,15.62-8.38,16.1-20.24-.07-.65-.11-1.74-.32-2.81Zm-7.87,18.11c-3.37,4.28-11.7,5.46-16.11,2.27-2.29-1.65-2.32-4.23,.04-5.98,3-2.22,6.4-3.34,10.45-3.3,1.83-.1,3.8,.24,5.36,1.86,1.55,1.63,1.65,3.38,.26,5.15Zm.73-7.29c-2.33-.05-4.16-2.41-4.18-5.41-.02-3.14,2.36-5.95,5.02-5.93,2.34,.02,4.04,2.11,4.04,4.98,.01,3.19-2.45,6.4-4.88,6.36Zm-48.61,11.53c-1.38-.12-2.77-.1-4.26-.46,.52,.77,1.78,.86,1.35,1.99-.21,.55-.83,.55-1.25,.36-.76-.36-2.17-.73-1.8-1.59,1.07-2.46-1.07-1.56-1.88-2.04,.28,1.72,1.45,2.84,2.54,3.89,1.8,1.72,4.41,1.39,5.98-.43,.97-1.13,.42-1.63-.68-1.72Zm0,0c-1.38-.12-2.77-.1-4.26-.46,.52,.77,1.78,.86,1.35,1.99-.21,.55-.83,.55-1.25,.36-.76-.36-2.17-.73-1.8-1.59,1.07-2.46-1.07-1.56-1.88-2.04,.28,1.72,1.45,2.84,2.54,3.89,1.8,1.72,4.41,1.39,5.98-.43,.97-1.13,.42-1.63-.68-1.72Zm55.75-22.35c-.21-1.1-.88-1.85-2.09-1.91-6.04-.29-12.05,.03-17.82,1.92-5.87,1.92-9.08,6.66-12.01,11.72-1.18,2.03-1.16,3.34,.43,5.24,4.18,5.03,9.73,7.14,15.71,6.08,10.7-1.89,15.62-8.38,16.1-20.24-.07-.65-.11-1.74-.32-2.81Zm-7.87,18.11c-3.37,4.28-11.7,5.46-16.11,2.27-2.29-1.65-2.32-4.23,.04-5.98,3-2.22,6.4-3.34,10.45-3.3,1.83-.1,3.8,.24,5.36,1.86,1.55,1.63,1.65,3.38,.26,5.15Zm.73-7.29c-2.33-.05-4.16-2.41-4.18-5.41-.02-3.14,2.36-5.95,5.02-5.93,2.34,.02,4.04,2.11,4.04,4.98,.01,3.19-2.45,6.4-4.88,6.36Zm95.64-95.1c-13.43,5.3-26.38,11.61-39.22,18.16-2.61,1.33-5.22,2.7-7.48,4.62-3.08,2.6-6.25,5.1-9.25,7.79-5.1,4.58-9.86,9.44-13.65,15.23-2.32,3.53-4.12,7.38-6.83,10.68-1.07,1.31-1.22,3.25-1.25,5.13,.83-2,2.6-2.84,4.21-3.79,3.53-2.08,7.12-4.05,10.69-6.07,.43-.24,.91-.52,1.28-.01,.28,.39-.16,.72-.32,1.08-1.73,3.67-4.73,6.5-6.62,10.07-.22,.4-.75,.74-.42,1.26,.35,.55,.87,.12,1.31,.06,6.16-.86,12.1-2.73,18.28-3.63,6.19-.91,12.23-2.76,18.25-4.54,8.18-2.43,15.03-6.79,20.32-13.52,8.23-10.47,14.89-21.91,20.7-33.86,2.65-5.44,5.34-10.87,7.6-16.53-5.88,2.65-11.63,5.52-17.6,7.87Zm4.55,14.97c-.75,1.62-1.77,3.08-2.84,4.5-.92,1.2-1.79,2.37-1.65,4.06,.05,.67-.41,1.44-.79,2.07-4.16,6.84-8.14,13.79-14.04,19.4-3.45,3.28-7.15,6.04-11.61,7.9-6.03,2.51-12.24,4.31-18.6,5.69-.62,.14-1.28,.52-1.98-.19,.73-.92,1.91-1.03,2.78-1.62,.62-.41,1.02-.68,1.06-1.68,.07-1.58-.12-2.28-2.48-1.42,2.17-1.85,3.95-3.02,4.99-5.01-3.3,1.12-6.4,2.72-9.89,3.44,1.17-1.73,2.93-2.91,4.11-4.62,.59-.85,1.23-1.66,1.41-2.69,.39-2.21,1.69-3.82,3.21-5.36,7.27-7.32,16.01-12.32,25.47-16.18,1.16-.47,2.48-1.5,3.51,.35,.2,.36,.76,.16,1.16,.05,4.57-1.35,8.93-3.03,12.08-6.91,.81-1,1.81-1.85,2.76-2.74,.39-.36,.87-.91,1.41-.53,.57,.4,.15,1.01-.07,1.49Zm-4.55-14.97c-13.43,5.3-26.38,11.61-39.22,18.16-2.61,1.33-5.22,2.7-7.48,4.62-3.08,2.6-6.25,5.1-9.25,7.79-5.1,4.58-9.86,9.44-13.65,15.23-2.32,3.53-4.12,7.38-6.83,10.68-1.07,1.31-1.22,3.25-1.25,5.13,.83-2,2.6-2.84,4.21-3.79,3.53-2.08,7.12-4.05,10.69-6.07,.43-.24,.91-.52,1.28-.01,.28,.39-.16,.72-.32,1.08-1.73,3.67-4.73,6.5-6.62,10.07-.22,.4-.75,.74-.42,1.26,.35,.55,.87,.12,1.31,.06,6.16-.86,12.1-2.73,18.28-3.63,6.19-.91,12.23-2.76,18.25-4.54,8.18-2.43,15.03-6.79,20.32-13.52,8.23-10.47,14.89-21.91,20.7-33.86,2.65-5.44,5.34-10.87,7.6-16.53-5.88,2.65-11.63,5.52-17.6,7.87Zm4.55,14.97c-.75,1.62-1.77,3.08-2.84,4.5-.92,1.2-1.79,2.37-1.65,4.06,.05,.67-.41,1.44-.79,2.07-4.16,6.84-8.14,13.79-14.04,19.4-3.45,3.28-7.15,6.04-11.61,7.9-6.03,2.51-12.24,4.31-18.6,5.69-.62,.14-1.28,.52-1.98-.19,.73-.92,1.91-1.03,2.78-1.62,.62-.41,1.02-.68,1.06-1.68,.07-1.58-.12-2.28-2.48-1.42,2.17-1.85,3.95-3.02,4.99-5.01-3.3,1.12-6.4,2.72-9.89,3.44,1.17-1.73,2.93-2.91,4.11-4.62,.59-.85,1.23-1.66,1.41-2.69,.39-2.21,1.69-3.82,3.21-5.36,7.27-7.32,16.01-12.32,25.47-16.18,1.16-.47,2.48-1.5,3.51,.35,.2,.36,.76,.16,1.16,.05,4.57-1.35,8.93-3.03,12.08-6.91,.81-1,1.81-1.85,2.76-2.74,.39-.36,.87-.91,1.41-.53,.57,.4,.15,1.01-.07,1.49Zm-93.05,69.31c-.21-1.1-.88-1.85-2.09-1.91-6.04-.29-12.05,.03-17.82,1.92-5.87,1.92-9.08,6.66-12.01,11.72-1.18,2.03-1.16,3.34,.43,5.24,4.18,5.03,9.73,7.14,15.71,6.08,10.7-1.89,15.62-8.38,16.1-20.24-.07-.65-.11-1.74-.32-2.81Zm-7.87,18.11c-3.37,4.28-11.7,5.46-16.11,2.27-2.29-1.65-2.32-4.23,.04-5.98,3-2.22,6.4-3.34,10.45-3.3,1.83-.1,3.8,.24,5.36,1.86,1.55,1.63,1.65,3.38,.26,5.15Zm.73-7.29c-2.33-.05-4.16-2.41-4.18-5.41-.02-3.14,2.36-5.95,5.02-5.93,2.34,.02,4.04,2.11,4.04,4.98,.01,3.19-2.45,6.4-4.88,6.36Zm-48.61,11.53c-1.38-.12-2.77-.1-4.26-.46,.52,.77,1.78,.86,1.35,1.99-.21,.55-.83,.55-1.25,.36-.76-.36-2.17-.73-1.8-1.59,1.07-2.46-1.07-1.56-1.88-2.04,.28,1.72,1.45,2.84,2.54,3.89,1.8,1.72,4.41,1.39,5.98-.43,.97-1.13,.42-1.63-.68-1.72Zm0,0c-1.38-.12-2.77-.1-4.26-.46,.52,.77,1.78,.86,1.35,1.99-.21,.55-.83,.55-1.25,.36-.76-.36-2.17-.73-1.8-1.59,1.07-2.46-1.07-1.56-1.88-2.04,.28,1.72,1.45,2.84,2.54,3.89,1.8,1.72,4.41,1.39,5.98-.43,.97-1.13,.42-1.63-.68-1.72Zm55.75-22.35c-.21-1.1-.88-1.85-2.09-1.91-6.04-.29-12.05,.03-17.82,1.92-5.87,1.92-9.08,6.66-12.01,11.72-1.18,2.03-1.16,3.34,.43,5.24,4.18,5.03,9.73,7.14,15.71,6.08,10.7-1.89,15.62-8.38,16.1-20.24-.07-.65-.11-1.74-.32-2.81Zm-7.87,18.11c-3.37,4.28-11.7,5.46-16.11,2.27-2.29-1.65-2.32-4.23,.04-5.98,3-2.22,6.4-3.34,10.45-3.3,1.83-.1,3.8,.24,5.36,1.86,1.55,1.63,1.65,3.38,.26,5.15Zm.73-7.29c-2.33-.05-4.16-2.41-4.18-5.41-.02-3.14,2.36-5.95,5.02-5.93,2.34,.02,4.04,2.11,4.04,4.98,.01,3.19-2.45,6.4-4.88,6.36Zm95.64-95.1c-13.43,5.3-26.38,11.61-39.22,18.16-2.61,1.33-5.22,2.7-7.48,4.62-3.08,2.6-6.25,5.1-9.25,7.79-5.1,4.58-9.86,9.44-13.65,15.23-2.32,3.53-4.12,7.38-6.83,10.68-1.07,1.31-1.22,3.25-1.25,5.13,.83-2,2.6-2.84,4.21-3.79,3.53-2.08,7.12-4.05,10.69-6.07,.43-.24,.91-.52,1.28-.01,.28,.39-.16,.72-.32,1.08-1.73,3.67-4.73,6.5-6.62,10.07-.22,.4-.75,.74-.42,1.26,.35,.55,.87,.12,1.31,.06,6.16-.86,12.1-2.73,18.28-3.63,6.19-.91,12.23-2.76,18.25-4.54,8.18-2.43,15.03-6.79,20.32-13.52,8.23-10.47,14.89-21.91,20.7-33.86,2.65-5.44,5.34-10.87,7.6-16.53-5.88,2.65-11.63,5.52-17.6,7.87Zm4.55,14.97c-.75,1.62-1.77,3.08-2.84,4.5-.92,1.2-1.79,2.37-1.65,4.06,.05,.67-.41,1.44-.79,2.07-4.16,6.84-8.14,13.79-14.04,19.4-3.45,3.28-7.15,6.04-11.61,7.9-6.03,2.51-12.24,4.31-18.6,5.69-.62,.14-1.28,.52-1.98-.19,.73-.92,1.91-1.03,2.78-1.62,.62-.41,1.02-.68,1.06-1.68,.07-1.58-.12-2.28-2.48-1.42,2.17-1.85,3.95-3.02,4.99-5.01-3.3,1.12-6.4,2.72-9.89,3.44,1.17-1.73,2.93-2.91,4.11-4.62,.59-.85,1.23-1.66,1.41-2.69,.39-2.21,1.69-3.82,3.21-5.36,7.27-7.32,16.01-12.32,25.47-16.18,1.16-.47,2.48-1.5,3.51,.35,.2,.36,.76,.16,1.16,.05,4.57-1.35,8.93-3.03,12.08-6.91,.81-1,1.81-1.85,2.76-2.74,.39-.36,.87-.91,1.41-.53,.57,.4,.15,1.01-.07,1.49Zm-4.55-14.97c-13.43,5.3-26.38,11.61-39.22,18.16-2.61,1.33-5.22,2.7-7.48,4.62-3.08,2.6-6.25,5.1-9.25,7.79-5.1,4.58-9.86,9.44-13.65,15.23-2.32,3.53-4.12,7.38-6.83,10.68-1.07,1.31-1.22,3.25-1.25,5.13,.83-2,2.6-2.84,4.21-3.79,3.53-2.08,7.12-4.05,10.69-6.07,.43-.24,.91-.52,1.28-.01,.28,.39-.16,.72-.32,1.08-1.73,3.67-4.73,6.5-6.62,10.07-.22,.4-.75,.74-.42,1.26,.35,.55,.87,.12,1.31,.06,6.16-.86,12.1-2.73,18.28-3.63,6.19-.91,12.23-2.76,18.25-4.54,8.18-2.43,15.03-6.79,20.32-13.52,8.23-10.47,14.89-21.91,20.7-33.86,2.65-5.44,5.34-10.87,7.6-16.53-5.88,2.65-11.63,5.52-17.6,7.87Zm4.55,14.97c-.75,1.62-1.77,3.08-2.84,4.5-.92,1.2-1.79,2.37-1.65,4.06,.05,.67-.41,1.44-.79,2.07-4.16,6.84-8.14,13.79-14.04,19.4-3.45,3.28-7.15,6.04-11.61,7.9-6.03,2.51-12.24,4.31-18.6,5.69-.62,.14-1.28,.52-1.98-.19,.73-.92,1.91-1.03,2.78-1.62,.62-.41,1.02-.68,1.06-1.68,.07-1.58-.12-2.28-2.48-1.42,2.17-1.85,3.95-3.02,4.99-5.01-3.3,1.12-6.4,2.72-9.89,3.44,1.17-1.73,2.93-2.91,4.11-4.62,.59-.85,1.23-1.66,1.41-2.69,.39-2.21,1.69-3.82,3.21-5.36,7.27-7.32,16.01-12.32,25.47-16.18,1.16-.47,2.48-1.5,3.51,.35,.2,.36,.76,.16,1.16,.05,4.57-1.35,8.93-3.03,12.08-6.91,.81-1,1.81-1.85,2.76-2.74,.39-.36,.87-.91,1.41-.53,.57,.4,.15,1.01-.07,1.49Zm-95.14,67.4c-6.04-.29-12.05,.03-17.82,1.92-5.87,1.92-9.08,6.66-12.01,11.72-1.18,2.03-1.16,3.34,.43,5.24,4.18,5.03,9.73,7.14,15.71,6.08,10.7-1.89,15.62-8.38,16.1-20.24-.07-.65-.11-1.74-.32-2.81-.21-1.1-.88-1.85-2.09-1.91Zm-5.78,20.02c-3.37,4.28-11.7,5.46-16.11,2.27-2.29-1.65-2.32-4.23,.04-5.98,3-2.22,6.4-3.34,10.45-3.3,1.83-.1,3.8,.24,5.36,1.86,1.55,1.63,1.65,3.38,.26,5.15Zm.73-7.29c-2.33-.05-4.16-2.41-4.18-5.41-.02-3.14,2.36-5.95,5.02-5.93,2.34,.02,4.04,2.11,4.04,4.98,.01,3.19-2.45,6.4-4.88,6.36Zm-48.61,11.53c-1.38-.12-2.77-.1-4.26-.46,.52,.77,1.78,.86,1.35,1.99-.21,.55-.83,.55-1.25,.36-.76-.36-2.17-.73-1.8-1.59,1.07-2.46-1.07-1.56-1.88-2.04,.28,1.72,1.45,2.84,2.54,3.89,1.8,1.72,4.41,1.39,5.98-.43,.97-1.13,.42-1.63-.68-1.72ZM172.59,83.49c-13.43,5.3-26.38,11.61-39.22,18.16-2.61,1.33-5.22,2.7-7.48,4.62-3.08,2.6-6.25,5.1-9.25,7.79-5.1,4.58-9.86,9.44-13.65,15.23-2.32,3.53-4.12,7.38-6.83,10.68-1.07,1.31-1.22,3.25-1.25,5.13,.83-2,2.6-2.84,4.21-3.79,3.53-2.08,7.12-4.05,10.69-6.07,.43-.24,.91-.52,1.28-.01,.28,.39-.16,.72-.32,1.08-1.73,3.67-4.73,6.5-6.62,10.07-.22,.4-.75,.74-.42,1.26,.35,.55,.87,.12,1.31,.06,6.16-.86,12.1-2.73,18.28-3.63,6.19-.91,12.23-2.76,18.25-4.54,8.18-2.43,15.03-6.79,20.32-13.52,8.23-10.47,14.89-21.91,20.7-33.86,2.65-5.44,5.34-10.87,7.6-16.53-5.88,2.65-11.63,5.52-17.6,7.87Zm4.55,14.97c-.75,1.62-1.77,3.08-2.84,4.5-.92,1.2-1.79,2.37-1.65,4.06,.05,.67-.41,1.44-.79,2.07-4.16,6.84-8.14,13.79-14.04,19.4-3.45,3.28-7.15,6.04-11.61,7.9-6.03,2.51-12.24,4.31-18.6,5.69-.62,.14-1.28,.52-1.98-.19,.73-.92,1.91-1.03,2.78-1.62,.62-.41,1.02-.68,1.06-1.68,.07-1.58-.12-2.28-2.48-1.42,2.17-1.85,3.95-3.02,4.99-5.01-3.3,1.12-6.4,2.72-9.89,3.44,1.17-1.73,2.93-2.91,4.11-4.62,.59-.85,1.23-1.66,1.41-2.69,.39-2.21,1.69-3.82,3.21-5.36,7.27-7.32,16.01-12.32,25.47-16.18,1.16-.47,2.48-1.5,3.51,.35,.2,.36,.76,.16,1.16,.05,4.57-1.35,8.93-3.03,12.08-6.91,.81-1,1.81-1.85,2.76-2.74,.39-.36,.87-.91,1.41-.53,.57,.4,.15,1.01-.07,1.49Zm-95.14,67.4c-6.04-.29-12.05,.03-17.82,1.92-5.87,1.92-9.08,6.66-12.01,11.72-1.18,2.03-1.16,3.34,.43,5.24,4.18,5.03,9.73,7.14,15.71,6.08,10.7-1.89,15.62-8.38,16.1-20.24-.07-.65-.11-1.74-.32-2.81-.21-1.1-.88-1.85-2.09-1.91Zm-5.78,20.02c-3.37,4.28-11.7,5.46-16.11,2.27-2.29-1.65-2.32-4.23,.04-5.98,3-2.22,6.4-3.34,10.45-3.3,1.83-.1,3.8,.24,5.36,1.86,1.55,1.63,1.65,3.38,.26,5.15Zm.73-7.29c-2.33-.05-4.16-2.41-4.18-5.41-.02-3.14,2.36-5.95,5.02-5.93,2.34,.02,4.04,2.11,4.04,4.98,.01,3.19-2.45,6.4-4.88,6.36Zm-48.61,11.53c-1.38-.12-2.77-.1-4.26-.46,.52,.77,1.78,.86,1.35,1.99-.21,.55-.83,.55-1.25,.36-.76-.36-2.17-.73-1.8-1.59,1.07-2.46-1.07-1.56-1.88-2.04,.28,1.72,1.45,2.84,2.54,3.89,1.8,1.72,4.41,1.39,5.98-.43,.97-1.13,.42-1.63-.68-1.72Zm0,0c-1.38-.12-2.77-.1-4.26-.46,.52,.77,1.78,.86,1.35,1.99-.21,.55-.83,.55-1.25,.36-.76-.36-2.17-.73-1.8-1.59,1.07-2.46-1.07-1.56-1.88-2.04,.28,1.72,1.45,2.84,2.54,3.89,1.8,1.72,4.41,1.39,5.98-.43,.97-1.13,.42-1.63-.68-1.72Zm55.75-22.35c-.21-1.1-.88-1.85-2.09-1.91-6.04-.29-12.05,.03-17.82,1.92-5.87,1.92-9.08,6.66-12.01,11.72-1.18,2.03-1.16,3.34,.43,5.24,4.18,5.03,9.73,7.14,15.71,6.08,10.7-1.89,15.62-8.38,16.1-20.24-.07-.65-.11-1.74-.32-2.81Zm-7.87,18.11c-3.37,4.28-11.7,5.46-16.11,2.27-2.29-1.65-2.32-4.23,.04-5.98,3-2.22,6.4-3.34,10.45-3.3,1.83-.1,3.8,.24,5.36,1.86,1.55,1.63,1.65,3.38,.26,5.15Zm.73-7.29c-2.33-.05-4.16-2.41-4.18-5.41-.02-3.14,2.36-5.95,5.02-5.93,2.34,.02,4.04,2.11,4.04,4.98,.01,3.19-2.45,6.4-4.88,6.36Zm95.64-95.1c-13.43,5.3-26.38,11.61-39.22,18.16-2.61,1.33-5.22,2.7-7.48,4.62-3.08,2.6-6.25,5.1-9.25,7.79-5.1,4.58-9.86,9.44-13.65,15.23-2.32,3.53-4.12,7.38-6.83,10.68-1.07,1.31-1.22,3.25-1.25,5.13,.83-2,2.6-2.84,4.21-3.79,3.53-2.08,7.12-4.05,10.69-6.07,.43-.24,.91-.52,1.28-.01,.28,.39-.16,.72-.32,1.08-1.73,3.67-4.73,6.5-6.62,10.07-.22,.4-.75,.74-.42,1.26,.35,.55,.87,.12,1.31,.06,6.16-.86,12.1-2.73,18.28-3.63,6.19-.91,12.23-2.76,18.25-4.54,8.18-2.43,15.03-6.79,20.32-13.52,8.23-10.47,14.89-21.91,20.7-33.86,2.65-5.44,5.34-10.87,7.6-16.53-5.88,2.65-11.63,5.52-17.6,7.87Zm4.55,14.97c-.75,1.62-1.77,3.08-2.84,4.5-.92,1.2-1.79,2.37-1.65,4.06,.05,.67-.41,1.44-.79,2.07-4.16,6.84-8.14,13.79-14.04,19.4-3.45,3.28-7.15,6.04-11.61,7.9-6.03,2.51-12.24,4.31-18.6,5.69-.62,.14-1.28,.52-1.98-.19,.73-.92,1.91-1.03,2.78-1.62,.62-.41,1.02-.68,1.06-1.68,.07-1.58-.12-2.28-2.48-1.42,2.17-1.85,3.95-3.02,4.99-5.01-3.3,1.12-6.4,2.72-9.89,3.44,1.17-1.73,2.93-2.91,4.11-4.62,.59-.85,1.23-1.66,1.41-2.69,.39-2.21,1.69-3.82,3.21-5.36,7.27-7.32,16.01-12.32,25.47-16.18,1.16-.47,2.48-1.5,3.51,.35,.2,.36,.76,.16,1.16,.05,4.57-1.35,8.93-3.03,12.08-6.91,.81-1,1.81-1.85,2.76-2.74,.39-.36,.87-.91,1.41-.53,.57,.4,.15,1.01-.07,1.49Zm-4.55-14.97c-13.43,5.3-26.38,11.61-39.22,18.16-2.61,1.33-5.22,2.7-7.48,4.62-3.08,2.6-6.25,5.1-9.25,7.79-5.1,4.58-9.86,9.44-13.65,15.23-2.32,3.53-4.12,7.38-6.83,10.68-1.07,1.31-1.22,3.25-1.25,5.13,.83-2,2.6-2.84,4.21-3.79,3.53-2.08,7.12-4.05,10.69-6.07,.43-.24,.91-.52,1.28-.01,.28,.39-.16,.72-.32,1.08-1.73,3.67-4.73,6.5-6.62,10.07-.22,.4-.75,.74-.42,1.26,.35,.55,.87,.12,1.31,.06,6.16-.86,12.1-2.73,18.28-3.63,6.19-.91,12.23-2.76,18.25-4.54,8.18-2.43,15.03-6.79,20.32-13.52,8.23-10.47,14.89-21.91,20.7-33.86,2.65-5.44,5.34-10.87,7.6-16.53-5.88,2.65-11.63,5.52-17.6,7.87Zm4.55,14.97c-.75,1.62-1.77,3.08-2.84,4.5-.92,1.2-1.79,2.37-1.65,4.06,.05,.67-.41,1.44-.79,2.07-4.16,6.84-8.14,13.79-14.04,19.4-3.45,3.28-7.15,6.04-11.61,7.9-6.03,2.51-12.24,4.31-18.6,5.69-.62,.14-1.28,.52-1.98-.19,.73-.92,1.91-1.03,2.78-1.62,.62-.41,1.02-.68,1.06-1.68,.07-1.58-.12-2.28-2.48-1.42,2.17-1.85,3.95-3.02,4.99-5.01-3.3,1.12-6.4,2.72-9.89,3.44,1.17-1.73,2.93-2.91,4.11-4.62,.59-.85,1.23-1.66,1.41-2.69,.39-2.21,1.69-3.82,3.21-5.36,7.27-7.32,16.01-12.32,25.47-16.18,1.16-.47,2.48-1.5,3.51,.35,.2,.36,.76,.16,1.16,.05,4.57-1.35,8.93-3.03,12.08-6.91,.81-1,1.81-1.85,2.76-2.74,.39-.36,.87-.91,1.41-.53,.57,.4,.15,1.01-.07,1.49Zm-93.05,69.31c-.21-1.1-.88-1.85-2.09-1.91-6.04-.29-12.05,.03-17.82,1.92-5.87,1.92-9.08,6.66-12.01,11.72-1.18,2.03-1.16,3.34,.43,5.24,4.18,5.03,9.73,7.14,15.71,6.08,10.7-1.89,15.62-8.38,16.1-20.24-.07-.65-.11-1.74-.32-2.81Zm-7.87,18.11c-3.37,4.28-11.7,5.46-16.11,2.27-2.29-1.65-2.32-4.23,.04-5.98,3-2.22,6.4-3.34,10.45-3.3,1.83-.1,3.8,.24,5.36,1.86,1.55,1.63,1.65,3.38,.26,5.15Zm.73-7.29c-2.33-.05-4.16-2.41-4.18-5.41-.02-3.14,2.36-5.95,5.02-5.93,2.34,.02,4.04,2.11,4.04,4.98,.01,3.19-2.45,6.4-4.88,6.36Zm-48.61,11.53c-1.38-.12-2.77-.1-4.26-.46,.52,.77,1.78,.86,1.35,1.99-.21,.55-.83,.55-1.25,.36-.76-.36-2.17-.73-1.8-1.59,1.07-2.46-1.07-1.56-1.88-2.04,.28,1.72,1.45,2.84,2.54,3.89,1.8,1.72,4.41,1.39,5.98-.43,.97-1.13,.42-1.63-.68-1.72Zm0,0c-1.38-.12-2.77-.1-4.26-.46,.52,.77,1.78,.86,1.35,1.99-.21,.55-.83,.55-1.25,.36-.76-.36-2.17-.73-1.8-1.59,1.07-2.46-1.07-1.56-1.88-2.04,.28,1.72,1.45,2.84,2.54,3.89,1.8,1.72,4.41,1.39,5.98-.43,.97-1.13,.42-1.63-.68-1.72Zm55.75-22.35c-.21-1.1-.88-1.85-2.09-1.91-6.04-.29-12.05,.03-17.82,1.92-5.87,1.92-9.08,6.66-12.01,11.72-1.18,2.03-1.16,3.34,.43,5.24,4.18,5.03,9.73,7.14,15.71,6.08,10.7-1.89,15.62-8.38,16.1-20.24-.07-.65-.11-1.74-.32-2.81Zm-7.87,18.11c-3.37,4.28-11.7,5.46-16.11,2.27-2.29-1.65-2.32-4.23,.04-5.98,3-2.22,6.4-3.34,10.45-3.3,1.83-.1,3.8,.24,5.36,1.86,1.55,1.63,1.65,3.38,.26,5.15Zm.73-7.29c-2.33-.05-4.16-2.41-4.18-5.41-.02-3.14,2.36-5.95,5.02-5.93,2.34,.02,4.04,2.11,4.04,4.98,.01,3.19-2.45,6.4-4.88,6.36Zm95.64-95.1c-13.43,5.3-26.38,11.61-39.22,18.16-2.61,1.33-5.22,2.7-7.48,4.62-3.08,2.6-6.25,5.1-9.25,7.79-5.1,4.58-9.86,9.44-13.65,15.23-2.32,3.53-4.12,7.38-6.83,10.68-1.07,1.31-1.22,3.25-1.25,5.13,.83-2,2.6-2.84,4.21-3.79,3.53-2.08,7.12-4.05,10.69-6.07,.43-.24,.91-.52,1.28-.01,.28,.39-.16,.72-.32,1.08-1.73,3.67-4.73,6.5-6.62,10.07-.22,.4-.75,.74-.42,1.26,.35,.55,.87,.12,1.31,.06,6.16-.86,12.1-2.73,18.28-3.63,6.19-.91,12.23-2.76,18.25-4.54,8.18-2.43,15.03-6.79,20.32-13.52,8.23-10.47,14.89-21.91,20.7-33.86,2.65-5.44,5.34-10.87,7.6-16.53-5.88,2.65-11.63,5.52-17.6,7.87Zm4.55,14.97c-.75,1.62-1.77,3.08-2.84,4.5-.92,1.2-1.79,2.37-1.65,4.06,.05,.67-.41,1.44-.79,2.07-4.16,6.84-8.14,13.79-14.04,19.4-3.45,3.28-7.15,6.04-11.61,7.9-6.03,2.51-12.24,4.31-18.6,5.69-.62,.14-1.28,.52-1.98-.19,.73-.92,1.91-1.03,2.78-1.62,.62-.41,1.02-.68,1.06-1.68,.07-1.58-.12-2.28-2.48-1.42,2.17-1.85,3.95-3.02,4.99-5.01-3.3,1.12-6.4,2.72-9.89,3.44,1.17-1.73,2.93-2.91,4.11-4.62,.59-.85,1.23-1.66,1.41-2.69,.39-2.21,1.69-3.82,3.21-5.36,7.27-7.32,16.01-12.32,25.47-16.18,1.16-.47,2.48-1.5,3.51,.35,.2,.36,.76,.16,1.16,.05,4.57-1.35,8.93-3.03,12.08-6.91,.81-1,1.81-1.85,2.76-2.74,.39-.36,.87-.91,1.41-.53,.57,.4,.15,1.01-.07,1.49Zm-4.55-14.97c-13.43,5.3-26.38,11.61-39.22,18.16-2.61,1.33-5.22,2.7-7.48,4.62-3.08,2.6-6.25,5.1-9.25,7.79-5.1,4.58-9.86,9.44-13.65,15.23-2.32,3.53-4.12,7.38-6.83,10.68-1.07,1.31-1.22,3.25-1.25,5.13,.83-2,2.6-2.84,4.21-3.79,3.53-2.08,7.12-4.05,10.69-6.07,.43-.24,.91-.52,1.28-.01,.28,.39-.16,.72-.32,1.08-1.73,3.67-4.73,6.5-6.62,10.07-.22,.4-.75,.74-.42,1.26,.35,.55,.87,.12,1.31,.06,6.16-.86,12.1-2.73,18.28-3.63,6.19-.91,12.23-2.76,18.25-4.54,8.18-2.43,15.03-6.79,20.32-13.52,8.23-10.47,14.89-21.91,20.7-33.86,2.65-5.44,5.34-10.87,7.6-16.53-5.88,2.65-11.63,5.52-17.6,7.87Zm4.55,14.97c-.75,1.62-1.77,3.08-2.84,4.5-.92,1.2-1.79,2.37-1.65,4.06,.05,.67-.41,1.44-.79,2.07-4.16,6.84-8.14,13.79-14.04,19.4-3.45,3.28-7.15,6.04-11.61,7.9-6.03,2.51-12.24,4.31-18.6,5.69-.62,.14-1.28,.52-1.98-.19,.73-.92,1.91-1.03,2.78-1.62,.62-.41,1.02-.68,1.06-1.68,.07-1.58-.12-2.28-2.48-1.42,2.17-1.85,3.95-3.02,4.99-5.01-3.3,1.12-6.4,2.72-9.89,3.44,1.17-1.73,2.93-2.91,4.11-4.62,.59-.85,1.23-1.66,1.41-2.69,.39-2.21,1.69-3.82,3.21-5.36,7.27-7.32,16.01-12.32,25.47-16.18,1.16-.47,2.48-1.5,3.51,.35,.2,.36,.76,.16,1.16,.05,4.57-1.35,8.93-3.03,12.08-6.91,.81-1,1.81-1.85,2.76-2.74,.39-.36,.87-.91,1.41-.53,.57,.4,.15,1.01-.07,1.49Zm-93.05,69.31c-.21-1.1-.88-1.85-2.09-1.91-6.04-.29-12.05,.03-17.82,1.92-5.87,1.92-9.08,6.66-12.01,11.72-1.18,2.03-1.16,3.34,.43,5.24,4.18,5.03,9.73,7.14,15.71,6.08,10.7-1.89,15.62-8.38,16.1-20.24-.07-.65-.11-1.74-.32-2.81Zm-7.87,18.11c-3.37,4.28-11.7,5.46-16.11,2.27-2.29-1.65-2.32-4.23,.04-5.98,3-2.22,6.4-3.34,10.45-3.3,1.83-.1,3.8,.24,5.36,1.86,1.55,1.63,1.65,3.38,.26,5.15Zm.73-7.29c-2.33-.05-4.16-2.41-4.18-5.41-.02-3.14,2.36-5.95,5.02-5.93,2.34,.02,4.04,2.11,4.04,4.98,.01,3.19-2.45,6.4-4.88,6.36Zm-48.61,11.53c-1.38-.12-2.77-.1-4.26-.46,.52,.77,1.78,.86,1.35,1.99-.21,.55-.83,.55-1.25,.36-.76-.36-2.17-.73-1.8-1.59,1.07-2.46-1.07-1.56-1.88-2.04,.28,1.72,1.45,2.84,2.54,3.89,1.8,1.72,4.41,1.39,5.98-.43,.97-1.13,.42-1.63-.68-1.72Zm0,0c-1.38-.12-2.77-.1-4.26-.46,.52,.77,1.78,.86,1.35,1.99-.21,.55-.83,.55-1.25,.36-.76-.36-2.17-.73-1.8-1.59,1.07-2.46-1.07-1.56-1.88-2.04,.28,1.72,1.45,2.84,2.54,3.89,1.8,1.72,4.41,1.39,5.98-.43,.97-1.13,.42-1.63-.68-1.72Zm55.75-22.35c-.21-1.1-.88-1.85-2.09-1.91-6.04-.29-12.05,.03-17.82,1.92-5.87,1.92-9.08,6.66-12.01,11.72-1.18,2.03-1.16,3.34,.43,5.24,4.18,5.03,9.73,7.14,15.71,6.08,10.7-1.89,15.62-8.38,16.1-20.24-.07-.65-.11-1.74-.32-2.81Zm-7.87,18.11c-3.37,4.28-11.7,5.46-16.11,2.27-2.29-1.65-2.32-4.23,.04-5.98,3-2.22,6.4-3.34,10.45-3.3,1.83-.1,3.8,.24,5.36,1.86,1.55,1.63,1.65,3.38,.26,5.15Zm.73-7.29c-2.33-.05-4.16-2.41-4.18-5.41-.02-3.14,2.36-5.95,5.02-5.93,2.34,.02,4.04,2.11,4.04,4.98,.01,3.19-2.45,6.4-4.88,6.36Zm95.64-95.1c-13.43,5.3-26.38,11.61-39.22,18.16-2.61,1.33-5.22,2.7-7.48,4.62-3.08,2.6-6.25,5.1-9.25,7.79-5.1,4.58-9.86,9.44-13.65,15.23-2.32,3.53-4.12,7.38-6.83,10.68-1.07,1.31-1.22,3.25-1.25,5.13,.83-2,2.6-2.84,4.21-3.79,3.53-2.08,7.12-4.05,10.69-6.07,.43-.24,.91-.52,1.28-.01,.28,.39-.16,.72-.32,1.08-1.73,3.67-4.73,6.5-6.62,10.07-.22,.4-.75,.74-.42,1.26,.35,.55,.87,.12,1.31,.06,6.16-.86,12.1-2.73,18.28-3.63,6.19-.91,12.23-2.76,18.25-4.54,8.18-2.43,15.03-6.79,20.32-13.52,8.23-10.47,14.89-21.91,20.7-33.86,2.65-5.44,5.34-10.87,7.6-16.53-5.88,2.65-11.63,5.52-17.6,7.87Zm4.55,14.97c-.75,1.62-1.77,3.08-2.84,4.5-.92,1.2-1.79,2.37-1.65,4.06,.05,.67-.41,1.44-.79,2.07-4.16,6.84-8.14,13.79-14.04,19.4-3.45,3.28-7.15,6.04-11.61,7.9-6.03,2.51-12.24,4.31-18.6,5.69-.62,.14-1.28,.52-1.98-.19,.73-.92,1.91-1.03,2.78-1.62,.62-.41,1.02-.68,1.06-1.68,.07-1.58-.12-2.28-2.48-1.42,2.17-1.85,3.95-3.02,4.99-5.01-3.3,1.12-6.4,2.72-9.89,3.44,1.17-1.73,2.93-2.91,4.11-4.62,.59-.85,1.23-1.66,1.41-2.69,.39-2.21,1.69-3.82,3.21-5.36,7.27-7.32,16.01-12.32,25.47-16.18,1.16-.47,2.48-1.5,3.51,.35,.2,.36,.76,.16,1.16,.05,4.57-1.35,8.93-3.03,12.08-6.91,.81-1,1.81-1.85,2.76-2.74,.39-.36,.87-.91,1.41-.53,.57,.4,.15,1.01-.07,1.49Zm-4.55-14.97c-13.43,5.3-26.38,11.61-39.22,18.16-2.61,1.33-5.22,2.7-7.48,4.62-3.08,2.6-6.25,5.1-9.25,7.79-5.1,4.58-9.86,9.44-13.65,15.23-2.32,3.53-4.12,7.38-6.83,10.68-1.07,1.31-1.22,3.25-1.25,5.13,.83-2,2.6-2.84,4.21-3.79,3.53-2.08,7.12-4.05,10.69-6.07,.43-.24,.91-.52,1.28-.01,.28,.39-.16,.72-.32,1.08-1.73,3.67-4.73,6.5-6.62,10.07-.22,.4-.75,.74-.42,1.26,.35,.55,.87,.12,1.31,.06,6.16-.86,12.1-2.73,18.28-3.63,6.19-.91,12.23-2.76,18.25-4.54,8.18-2.43,15.03-6.79,20.32-13.52,8.23-10.47,14.89-21.91,20.7-33.86,2.65-5.44,5.34-10.87,7.6-16.53-5.88,2.65-11.63,5.52-17.6,7.87Zm4.55,14.97c-.75,1.62-1.77,3.08-2.84,4.5-.92,1.2-1.79,2.37-1.65,4.06,.05,.67-.41,1.44-.79,2.07-4.16,6.84-8.14,13.79-14.04,19.4-3.45,3.28-7.15,6.04-11.61,7.9-6.03,2.51-12.24,4.31-18.6,5.69-.62,.14-1.28,.52-1.98-.19,.73-.92,1.91-1.03,2.78-1.62,.62-.41,1.02-.68,1.06-1.68,.07-1.58-.12-2.28-2.48-1.42,2.17-1.85,3.95-3.02,4.99-5.01-3.3,1.12-6.4,2.72-9.89,3.44,1.17-1.73,2.93-2.91,4.11-4.62,.59-.85,1.23-1.66,1.41-2.69,.39-2.21,1.69-3.82,3.21-5.36,7.27-7.32,16.01-12.32,25.47-16.18,1.16-.47,2.48-1.5,3.51,.35,.2,.36,.76,.16,1.16,.05,4.57-1.35,8.93-3.03,12.08-6.91,.81-1,1.81-1.85,2.76-2.74,.39-.36,.87-.91,1.41-.53,.57,.4,.15,1.01-.07,1.49Zm-93.05,69.31c-.21-1.1-.88-1.85-2.09-1.91-6.04-.29-12.05,.03-17.82,1.92-5.87,1.92-9.08,6.66-12.01,11.72-1.18,2.03-1.16,3.34,.43,5.24,4.18,5.03,9.73,7.14,15.71,6.08,10.7-1.89,15.62-8.38,16.1-20.24-.07-.65-.11-1.74-.32-2.81Zm-7.87,18.11c-3.37,4.28-11.7,5.46-16.11,2.27-2.29-1.65-2.32-4.23,.04-5.98,3-2.22,6.4-3.34,10.45-3.3,1.83-.1,3.8,.24,5.36,1.86,1.55,1.63,1.65,3.38,.26,5.15Zm.73-7.29c-2.33-.05-4.16-2.41-4.18-5.41-.02-3.14,2.36-5.95,5.02-5.93,2.34,.02,4.04,2.11,4.04,4.98,.01,3.19-2.45,6.4-4.88,6.36Zm-48.61,11.53c-1.38-.12-2.77-.1-4.26-.46,.52,.77,1.78,.86,1.35,1.99-.21,.55-.83,.55-1.25,.36-.76-.36-2.17-.73-1.8-1.59,1.07-2.46-1.07-1.56-1.88-2.04,.28,1.72,1.45,2.84,2.54,3.89,1.8,1.72,4.41,1.39,5.98-.43,.97-1.13,.42-1.63-.68-1.72Zm0,0c-1.38-.12-2.77-.1-4.26-.46,.52,.77,1.78,.86,1.35,1.99-.21,.55-.83,.55-1.25,.36-.76-.36-2.17-.73-1.8-1.59,1.07-2.46-1.07-1.56-1.88-2.04,.28,1.72,1.45,2.84,2.54,3.89,1.8,1.72,4.41,1.39,5.98-.43,.97-1.13,.42-1.63-.68-1.72Zm55.75-22.35c-.21-1.1-.88-1.85-2.09-1.91-6.04-.29-12.05,.03-17.82,1.92-5.87,1.92-9.08,6.66-12.01,11.72-1.18,2.03-1.16,3.34,.43,5.24,4.18,5.03,9.73,7.14,15.71,6.08,10.7-1.89,15.62-8.38,16.1-20.24-.07-.65-.11-1.74-.32-2.81Zm-7.87,18.11c-3.37,4.28-11.7,5.46-16.11,2.27-2.29-1.65-2.32-4.23,.04-5.98,3-2.22,6.4-3.34,10.45-3.3,1.83-.1,3.8,.24,5.36,1.86,1.55,1.63,1.65,3.38,.26,5.15Zm.73-7.29c-2.33-.05-4.16-2.41-4.18-5.41-.02-3.14,2.36-5.95,5.02-5.93,2.34,.02,4.04,2.11,4.04,4.98,.01,3.19-2.45,6.4-4.88,6.36Zm95.64-95.1c-13.43,5.3-26.38,11.61-39.22,18.16-2.61,1.33-5.22,2.7-7.48,4.62-3.08,2.6-6.25,5.1-9.25,7.79-5.1,4.58-9.86,9.44-13.65,15.23-2.32,3.53-4.12,7.38-6.83,10.68-1.07,1.31-1.22,3.25-1.25,5.13,.83-2,2.6-2.84,4.21-3.79,3.53-2.08,7.12-4.05,10.69-6.07,.43-.24,.91-.52,1.28-.01,.28,.39-.16,.72-.32,1.08-1.73,3.67-4.73,6.5-6.62,10.07-.22,.4-.75,.74-.42,1.26,.35,.55,.87,.12,1.31,.06,6.16-.86,12.1-2.73,18.28-3.63,6.19-.91,12.23-2.76,18.25-4.54,8.18-2.43,15.03-6.79,20.32-13.52,8.23-10.47,14.89-21.91,20.7-33.86,2.65-5.44,5.34-10.87,7.6-16.53-5.88,2.65-11.63,5.52-17.6,7.87Zm4.55,14.97c-.75,1.62-1.77,3.08-2.84,4.5-.92,1.2-1.79,2.37-1.65,4.06,.05,.67-.41,1.44-.79,2.07-4.16,6.84-8.14,13.79-14.04,19.4-3.45,3.28-7.15,6.04-11.61,7.9-6.03,2.51-12.24,4.31-18.6,5.69-.62,.14-1.28,.52-1.98-.19,.73-.92,1.91-1.03,2.78-1.62,.62-.41,1.02-.68,1.06-1.68,.07-1.58-.12-2.28-2.48-1.42,2.17-1.85,3.95-3.02,4.99-5.01-3.3,1.12-6.4,2.72-9.89,3.44,1.17-1.73,2.93-2.91,4.11-4.62,.59-.85,1.23-1.66,1.41-2.69,.39-2.21,1.69-3.82,3.21-5.36,7.27-7.32,16.01-12.32,25.47-16.18,1.16-.47,2.48-1.5,3.51,.35,.2,.36,.76,.16,1.16,.05,4.57-1.35,8.93-3.03,12.08-6.91,.81-1,1.81-1.85,2.76-2.74,.39-.36,.87-.91,1.41-.53,.57,.4,.15,1.01-.07,1.49Zm-4.55-14.97c-13.43,5.3-26.38,11.61-39.22,18.16-2.61,1.33-5.22,2.7-7.48,4.62-3.08,2.6-6.25,5.1-9.25,7.79-5.1,4.58-9.86,9.44-13.65,15.23-2.32,3.53-4.12,7.38-6.83,10.68-1.07,1.31-1.22,3.25-1.25,5.13,.83-2,2.6-2.84,4.21-3.79,3.53-2.08,7.12-4.05,10.69-6.07,.43-.24,.91-.52,1.28-.01,.28,.39-.16,.72-.32,1.08-1.73,3.67-4.73,6.5-6.62,10.07-.22,.4-.75,.74-.42,1.26,.35,.55,.87,.12,1.31,.06,6.16-.86,12.1-2.73,18.28-3.63,6.19-.91,12.23-2.76,18.25-4.54,8.18-2.43,15.03-6.79,20.32-13.52,8.23-10.47,14.89-21.91,20.7-33.86,2.65-5.44,5.34-10.87,7.6-16.53-5.88,2.65-11.63,5.52-17.6,7.87Zm4.55,14.97c-.75,1.62-1.77,3.08-2.84,4.5-.92,1.2-1.79,2.37-1.65,4.06,.05,.67-.41,1.44-.79,2.07-4.16,6.84-8.14,13.79-14.04,19.4-3.45,3.28-7.15,6.04-11.61,7.9-6.03,2.51-12.24,4.31-18.6,5.69-.62,.14-1.28,.52-1.98-.19,.73-.92,1.91-1.03,2.78-1.62,.62-.41,1.02-.68,1.06-1.68,.07-1.58-.12-2.28-2.48-1.42,2.17-1.85,3.95-3.02,4.99-5.01-3.3,1.12-6.4,2.72-9.89,3.44,1.17-1.73,2.93-2.91,4.11-4.62,.59-.85,1.23-1.66,1.41-2.69,.39-2.21,1.69-3.82,3.21-5.36,7.27-7.32,16.01-12.32,25.47-16.18,1.16-.47,2.48-1.5,3.51,.35,.2,.36,.76,.16,1.16,.05,4.57-1.35,8.93-3.03,12.08-6.91,.81-1,1.81-1.85,2.76-2.74,.39-.36,.87-.91,1.41-.53,.57,.4,.15,1.01-.07,1.49Zm-93.05,69.31c-.21-1.1-.88-1.85-2.09-1.91-6.04-.29-12.05,.03-17.82,1.92-5.87,1.92-9.08,6.66-12.01,11.72-1.18,2.03-1.16,3.34,.43,5.24,4.18,5.03,9.73,7.14,15.71,6.08,10.7-1.89,15.62-8.38,16.1-20.24-.07-.65-.11-1.74-.32-2.81Zm-7.87,18.11c-3.37,4.28-11.7,5.46-16.11,2.27-2.29-1.65-2.32-4.23,.04-5.98,3-2.22,6.4-3.34,10.45-3.3,1.83-.1,3.8,.24,5.36,1.86,1.55,1.63,1.65,3.38,.26,5.15Zm.73-7.29c-2.33-.05-4.16-2.41-4.18-5.41-.02-3.14,2.36-5.95,5.02-5.93,2.34,.02,4.04,2.11,4.04,4.98,.01,3.19-2.45,6.4-4.88,6.36Zm-48.61,11.53c-1.38-.12-2.77-.1-4.26-.46,.52,.77,1.78,.86,1.35,1.99-.21,.55-.83,.55-1.25,.36-.76-.36-2.17-.73-1.8-1.59,1.07-2.46-1.07-1.56-1.88-2.04,.28,1.72,1.45,2.84,2.54,3.89,1.8,1.72,4.41,1.39,5.98-.43,.97-1.13,.42-1.63-.68-1.72Zm0,0c-1.38-.12-2.77-.1-4.26-.46,.52,.77,1.78,.86,1.35,1.99-.21,.55-.83,.55-1.25,.36-.76-.36-2.17-.73-1.8-1.59,1.07-2.46-1.07-1.56-1.88-2.04,.28,1.72,1.45,2.84,2.54,3.89,1.8,1.72,4.41,1.39,5.98-.43,.97-1.13,.42-1.63-.68-1.72Zm55.75-22.35c-.21-1.1-.88-1.85-2.09-1.91-6.04-.29-12.05,.03-17.82,1.92-5.87,1.92-9.08,6.66-12.01,11.72-1.18,2.03-1.16,3.34,.43,5.24,4.18,5.03,9.73,7.14,15.71,6.08,10.7-1.89,15.62-8.38,16.1-20.24-.07-.65-.11-1.74-.32-2.81Zm-7.87,18.11c-3.37,4.28-11.7,5.46-16.11,2.27-2.29-1.65-2.32-4.23,.04-5.98,3-2.22,6.4-3.34,10.45-3.3,1.83-.1,3.8,.24,5.36,1.86,1.55,1.63,1.65,3.38,.26,5.15Zm.73-7.29c-2.33-.05-4.16-2.41-4.18-5.41-.02-3.14,2.36-5.95,5.02-5.93,2.34,.02,4.04,2.11,4.04,4.98,.01,3.19-2.45,6.4-4.88,6.36Zm95.64-95.1c-13.43,5.3-26.38,11.61-39.22,18.16-2.61,1.33-5.22,2.7-7.48,4.62-3.08,2.6-6.25,5.1-9.25,7.79-5.1,4.58-9.86,9.44-13.65,15.23-2.32,3.53-4.12,7.38-6.83,10.68-1.07,1.31-1.22,3.25-1.25,5.13,.83-2,2.6-2.84,4.21-3.79,3.53-2.08,7.12-4.05,10.69-6.07,.43-.24,.91-.52,1.28-.01,.28,.39-.16,.72-.32,1.08-1.73,3.67-4.73,6.5-6.62,10.07-.22,.4-.75,.74-.42,1.26,.35,.55,.87,.12,1.31,.06,6.16-.86,12.1-2.73,18.28-3.63,6.19-.91,12.23-2.76,18.25-4.54,8.18-2.43,15.03-6.79,20.32-13.52,8.23-10.47,14.89-21.91,20.7-33.86,2.65-5.44,5.34-10.87,7.6-16.53-5.88,2.65-11.63,5.52-17.6,7.87Zm4.55,14.97c-.75,1.62-1.77,3.08-2.84,4.5-.92,1.2-1.79,2.37-1.65,4.06,.05,.67-.41,1.44-.79,2.07-4.16,6.84-8.14,13.79-14.04,19.4-3.45,3.28-7.15,6.04-11.61,7.9-6.03,2.51-12.24,4.31-18.6,5.69-.62,.14-1.28,.52-1.98-.19,.73-.92,1.91-1.03,2.78-1.62,.62-.41,1.02-.68,1.06-1.68,.07-1.58-.12-2.28-2.48-1.42,2.17-1.85,3.95-3.02,4.99-5.01-3.3,1.12-6.4,2.72-9.89,3.44,1.17-1.73,2.93-2.91,4.11-4.62,.59-.85,1.23-1.66,1.41-2.69,.39-2.21,1.69-3.82,3.21-5.36,7.27-7.32,16.01-12.32,25.47-16.18,1.16-.47,2.48-1.5,3.51,.35,.2,.36,.76,.16,1.16,.05,4.57-1.35,8.93-3.03,12.08-6.91,.81-1,1.81-1.85,2.76-2.74,.39-.36,.87-.91,1.41-.53,.57,.4,.15,1.01-.07,1.49Zm-4.55-14.97c-13.43,5.3-26.38,11.61-39.22,18.16-2.61,1.33-5.22,2.7-7.48,4.62-3.08,2.6-6.25,5.1-9.25,7.79-5.1,4.58-9.86,9.44-13.65,15.23-2.32,3.53-4.12,7.38-6.83,10.68-1.07,1.31-1.22,3.25-1.25,5.13,.83-2,2.6-2.84,4.21-3.79,3.53-2.08,7.12-4.05,10.69-6.07,.43-.24,.91-.52,1.28-.01,.28,.39-.16,.72-.32,1.08-1.73,3.67-4.73,6.5-6.62,10.07-.22,.4-.75,.74-.42,1.26,.35,.55,.87,.12,1.31,.06,6.16-.86,12.1-2.73,18.28-3.63,6.19-.91,12.23-2.76,18.25-4.54,8.18-2.43,15.03-6.79,20.32-13.52,8.23-10.47,14.89-21.91,20.7-33.86,2.65-5.44,5.34-10.87,7.6-16.53-5.88,2.65-11.63,5.52-17.6,7.87Zm4.55,14.97c-.75,1.62-1.77,3.08-2.84,4.5-.92,1.2-1.79,2.37-1.65,4.06,.05,.67-.41,1.44-.79,2.07-4.16,6.84-8.14,13.79-14.04,19.4-3.45,3.28-7.15,6.04-11.61,7.9-6.03,2.51-12.24,4.31-18.6,5.69-.62,.14-1.28,.52-1.98-.19,.73-.92,1.91-1.03,2.78-1.62,.62-.41,1.02-.68,1.06-1.68,.07-1.58-.12-2.28-2.48-1.42,2.17-1.85,3.95-3.02,4.99-5.01-3.3,1.12-6.4,2.72-9.89,3.44,1.17-1.73,2.93-2.91,4.11-4.62,.59-.85,1.23-1.66,1.41-2.69,.39-2.21,1.69-3.82,3.21-5.36,7.27-7.32,16.01-12.32,25.47-16.18,1.16-.47,2.48-1.5,3.51,.35,.2,.36,.76,.16,1.16,.05,4.57-1.35,8.93-3.03,12.08-6.91,.81-1,1.81-1.85,2.76-2.74,.39-.36,.87-.91,1.41-.53,.57,.4,.15,1.01-.07,1.49Zm-93.05,69.31c-.21-1.1-.88-1.85-2.09-1.91-6.04-.29-12.05,.03-17.82,1.92-5.87,1.92-9.08,6.66-12.01,11.72-1.18,2.03-1.16,3.34,.43,5.24,4.18,5.03,9.73,7.14,15.71,6.08,10.7-1.89,15.62-8.38,16.1-20.24-.07-.65-.11-1.74-.32-2.81Zm-7.87,18.11c-3.37,4.28-11.7,5.46-16.11,2.27-2.29-1.65-2.32-4.23,.04-5.98,3-2.22,6.4-3.34,10.45-3.3,1.83-.1,3.8,.24,5.36,1.86,1.55,1.63,1.65,3.38,.26,5.15Zm.73-7.29c-2.33-.05-4.16-2.41-4.18-5.41-.02-3.14,2.36-5.95,5.02-5.93,2.34,.02,4.04,2.11,4.04,4.98,.01,3.19-2.45,6.4-4.88,6.36Zm-48.61,11.53c-1.38-.12-2.77-.1-4.26-.46,.52,.77,1.78,.86,1.35,1.99-.21,.55-.83,.55-1.25,.36-.76-.36-2.17-.73-1.8-1.59,1.07-2.46-1.07-1.56-1.88-2.04,.28,1.72,1.45,2.84,2.54,3.89,1.8,1.72,4.41,1.39,5.98-.43,.97-1.13,.42-1.63-.68-1.72Z"/>
      <path class="cls-1" d="M352.02,58.51c-.3,1.58-.87,3.12-1.48,4.61-.9,2.21-1.83,4.4-2.74,6.6-.01,.02,0,.04-.01,.06-.31,.69-.62,1.37-.94,2.05-1.67,3.64-2.31,7.75-4.86,10.99-2.88,3.67-6.18,6.93-9.73,9.95-1.67,1.42-3.24,2.97-4.38,5.01,.77,.24,1.03-.12,1.26-.42,2.89-3.8,6.81-6.52,10.18-9.81,.64-.62,1.36-1.97,2.26-1.25,1.02,.82-.43,1.57-.81,2.34-.21,.41-.75,.79-.32,1.26,.47,.5,.88-.08,1.24-.3,2.12-1.24,4.21-2.53,6.32-3.79,.45-.27,1.01-.89,1.44-.4,.53,.62-.21,1.12-.66,1.43-3.31,2.26-5.84,5.32-8.46,8.29-3.09,3.49-5.85,7.21-8.44,11.07-.24,.35-.82,.74-.28,1.2,.44,.37,.9,.03,1.29-.26,.88-.66,1.74-1.33,2.63-1.97,.46-.34,1-.76,1.49-.28-.71,1.04-1.39,2.09-2.05,3.17-.02,.04-.03,.08-.04,.12-.01,.02-.02,.03-.03,.05-2.41,3.41-3.2,7.42-4.52,11.28-3.24,9.46-2.6,19.26-3.33,28.94,.44,.11,.7-.12,.95-.35,.6-.53,1.37-.9,2.05-.48,.83,.51,.23,1.32,.07,2.03-.4,1.78-.94,3.5-1.83,5.22,1.4-.87,2.79-1.75,4.66-2.91,.26-.15,.52-.31,.78-.45,.15-.09,.3-.17,.45-.25,1.03,.21,.74,.89,.27,1.61-.89,1.36-1.8,2.71-2.71,4.08,.77,.42,1.28-.12,1.74-.43,2.05-1.38,4.52-1.94,6.51-3.43,.33-.25,.84-.63,1.28-.12,.33,.39,.12,.88-.19,1.1-2.2,1.55-2.99,4.19-4.76,6.1-2.7,2.89-5.32,5.89-7.28,9.37-2.18,3.86-5.03,7.11-8.69,9.64-.23,.16-.61,.35-.34,.78,.7,.14,1.57-.77,2.04,.15,.36,.71-.41,1.2-.89,1.67-.29,.28-.71,.58-.43,1.02,.24,.38,.73,.3,1.13,.2,.46-.11,.9-.32,1.37-.4,.52-.1,1.17-.26,1.37,.47,.18,.61-.41,.77-.8,1.02-.29,.18-.57,.37-.88,.53-7.27,3.63-13.05,9.12-18.5,15.01-1.24,1.34-2.74,2-4.6,2.36-4.13,.8-8.37,1.24-12.29,2.97-3.28,1.44-6.57,2.43-10.27,1.49-4.91-1.25-10.23-1.67-12.21-7.58-.05-.12-.19-.21-.25-.33-2.52-4.36-5.4-8.54-7.42-13.17-4.9-11.2-10.02-22.17-17.91-31.76-7.46-9.08-16.29-16.05-26.94-20.82-2.36-1.06-4.91-1.72-7.19-2.92-5.85-3.07-12.2-4.39-18.62-5.15-3.44-.41-4.7-2.56-5.96-5.08-.01-.04-.03-.08-.04-.12,.48-.04,.96-.08,1.44-.14,.19-.02,.38-.05,.56-.07,.16-.03,.3-.05,.44-.13,.21-.14,.33-.37,.29-.62-.01-.1-.04-.19-.1-.28,0-.01,0-.02-.02-.03,0-.41-.26-.79-.47-1.09-2.72-3.79-2.45-7.46,.31-11.08,.08-.11,.1-.26,.16-.38,4.16-8.43,8.37-16.83,12.46-25.3,.85-1.76,1.49-1.4,2.38-.21,.71,.95,1.55,1.81,2.19,2.91-.03-2.48,.36-4.86,.51-7.24,.08-1.25,.52-1.67,1.24-1.88,.11,.18,.23,.37,.32,.56,.21,.39,.41,.78,.64,1.16,.06,.41,.14,.82,.61,.86,.72,.07,.5-.64,.65-1.05,.33-.89,.71-1.76,1.02-2.66,.16-.48-.06-1.25,.74-1.23,.79,.03,1.02,.82,.94,1.37-.45,3.03,1.09,5.72,1.33,8.63,.05,.58,.1,1.16,.74,1.45,.53-1.07-.49-1.99-.17-3.02,1.01-3.25,1.93-6.52,2.99-9.75,2.82-8.5,6.76-16.52,10.53-24.61,.14-.01,.28-.07,.37-.24,.6-1.08,1.23-2.14,1.86-3.21,1.04,.16,.59,1.09,.42,1.78-.32,1.28-.39,2.58-.32,3.86,.14,2.49,.34,4.98-.69,7.36,.33-.6,.71-1.19,1.11-1.75,.11,.32,.66,.5,.95,.13,2.43-3.2,4.76-6.48,6.97-9.83,.94,.45,.34,1.38,.2,2.08-.28,1.4-.37,2.87-.72,4.21-.53,2.07,1.56,3.23,1.3,5.1-.14,1.02,.17,1.54,1.2,.69,.37-.31,.8-.64,1.26-.24,.14,.12,.15,.5,.09,.73-.92,3.55-.2,7.24-.9,10.81-.22,1.1-.04,2.27-.04,3.41,.24,.04,.47,.08,.71,.11-.08-2.17,.63-3.84,2.07-5.45,4.77-5.3,9.96-10.15,15.37-14.77,.47-.41,.99-1,1.56-.44,.53,.52-.02,1.13-.37,1.62-1.18,1.66-1.91,3.51-2.36,5.57,1.45-1.07,2.91-2.01,4.4-2.91,.34-.21,.77-.47,1.09-.07,.18,.22,.26,.69,.15,.95-.82,2.01-1.12,4.5-4.09,4.66-.32,.02-.64,.21-.97,.32-.41,.15-.82,.37-.56,.87,.17,.34,.56,.24,.91,.12,1.08-.41,2.16-.81,3.26-1.17,3.82-1.26,7.67-2.41,11.76-2.17,3.72,.21,7.34,1.03,10.95,1.95,0,.02,.02,.03,.02,.05h.09c.3,.23,.58,.51,.91,.65,4.42,1.74,8.83,3.53,13.29,5.15,2.36,.86,4.85,2.06,7.23,1.94,5.92-.28,11.83-1.33,17.18-4.09,2.32-1.21,4.38-2.94,5.41-5.78,.4-.79,.75-1.62,.96-2.49,.35-1.45,.41-2.96,.51-4.45,.2-2.96,.26-5.98-.61-8.86-.01-.04-.03-.06-.05-.09-.07-.35-.2-.67-.32-1.01-.13-.37-.24-.74-.33-1.12-.09-.37-.15-.74-.19-1.11-.01-.08-.01-.17-.02-.26,.04-.03,.06-.08,.11-.11,.48-.32,.9,.1,1.27,.39,1.73,1.41,3.18,3.08,4.54,5.19,.17-.85,.03-1.56-.18-2.23,.02-2.19-.26-4.39-.84-6.51-.3-1.05-.66-2.07-1.1-3.07-.36-.84-.82-1.63-1.2-2.46,.09-.09,.23-.15,.41-.17,.26,.17,.51,.36,.76,.53,.61,.43,1.23,.85,1.84,1.27,.02,.02,.05,.02,.08,.03,.35,.33,.73,.64,1.15,.94,.13-1.17-.56-1.94-.77-2.85-2.06-9.15-5.82-17.58-10.83-25.48-.31-.49-.95-.98-.56-1.63,.15-.25,.31-.3,.48-.28,.32,.28,.64,.55,.96,.83,.75,.66,1.5,1.32,2.25,1.98,.06,.05,.12,.08,.19,.1,2.75,2.58,5.41,5.34,8.14,8.51-.02-.63-.05-1.25-.14-1.81,.12-.13,.17-.31,.14-.49-.12-.62-.23-1.25-.35-1.87-.07-.37-.11-.73-.14-1.1,.54,0,.75,.48,1.02,.88,1.45,2.13,2.95,4.23,4.35,6.4,2.91,4.52,5.72,9.14,7.81,14.09,2.32,5.49,4.8,10.95,6.17,16.8,.96,4.11,3.48,7.98,2.99,12.33Z"/>
      <path d="M172.59,83.49c-13.43,5.3-26.38,11.61-39.22,18.16-2.61,1.33-5.22,2.7-7.48,4.62-3.08,2.6-6.25,5.1-9.25,7.79-5.1,4.58-9.86,9.44-13.65,15.23-2.32,3.53-4.12,7.38-6.83,10.68-1.07,1.31-1.22,3.25-1.25,5.13,.83-2,2.6-2.84,4.21-3.79,3.53-2.08,7.12-4.05,10.69-6.07,.43-.24,.91-.52,1.28-.01,.28,.39-.16,.72-.32,1.08-1.73,3.67-4.73,6.5-6.62,10.07-.22,.4-.75,.74-.42,1.26,.35,.55,.87,.12,1.31,.06,6.16-.86,12.1-2.73,18.28-3.63,6.19-.91,12.23-2.76,18.25-4.54,8.18-2.43,15.03-6.79,20.32-13.52,8.23-10.47,14.89-21.91,20.7-33.86,2.65-5.44,5.34-10.87,7.6-16.53-5.88,2.65-11.63,5.52-17.6,7.87Zm4.55,14.97c-.75,1.62-1.77,3.08-2.84,4.5-.92,1.2-1.79,2.37-1.65,4.06,.05,.67-.41,1.44-.79,2.07-4.16,6.84-8.14,13.79-14.04,19.4-3.45,3.28-7.15,6.04-11.61,7.9-6.03,2.51-12.24,4.31-18.6,5.69-.62,.14-1.28,.52-1.98-.19,.73-.92,1.91-1.03,2.78-1.62,.62-.41,1.02-.68,1.06-1.68,.07-1.58-.12-2.28-2.48-1.42,2.17-1.85,3.95-3.02,4.99-5.01-3.3,1.12-6.4,2.72-9.89,3.44,1.17-1.73,2.93-2.91,4.11-4.62,.59-.85,1.23-1.66,1.41-2.69,.39-2.21,1.69-3.82,3.21-5.36,7.27-7.32,16.01-12.32,25.47-16.18,1.16-.47,2.48-1.5,3.51,.35,.2,.36,.76,.16,1.16,.05,4.57-1.35,8.93-3.03,12.08-6.91,.81-1,1.81-1.85,2.76-2.74,.39-.36,.87-.91,1.41-.53,.57,.4,.15,1.01-.07,1.49Z"/>
      <path d="M84.09,167.77c-.21-1.1-.88-1.85-2.09-1.91-6.04-.29-12.05,.03-17.82,1.92-5.87,1.92-9.08,6.66-12.01,11.72-1.18,2.03-1.16,3.34,.43,5.24,4.18,5.03,9.73,7.14,15.71,6.08,10.7-1.89,15.62-8.38,16.1-20.24-.07-.65-.11-1.74-.32-2.81Zm-7.87,18.11c-3.37,4.28-11.7,5.46-16.11,2.27-2.29-1.65-2.32-4.23,.04-5.98,3-2.22,6.4-3.34,10.45-3.3,1.83-.1,3.8,.24,5.36,1.86,1.55,1.63,1.65,3.38,.26,5.15Zm.73-7.29c-2.33-.05-4.16-2.41-4.18-5.41-.02-3.14,2.36-5.95,5.02-5.93,2.34,.02,4.04,2.11,4.04,4.98,.01,3.19-2.45,6.4-4.88,6.36Z"/>
      <path d="M279.44,59.78l-.03,.04s-.02-.03-.02-.05c.02,0,.04,0,.05,.01Z"/>
      <path d="M348.23,71.88c.28-.92,.59-1.84,.89-2.75,.83-1.99,1.66-3.97,2.47-5.96,.88-2.16,1.63-4.38,1.65-6.74,0-.01-.01-.01-.01-.02,.07-1.18-.08-2.32-.47-3.41-1.74-4.89-3.43-9.8-5.34-14.61-1.94-4.88-3.13-10.06-5.68-14.69-2.35-4.26-5.39-8.07-8.08-12.1-1.09-1.64-2.38-3.16-3.61-4.71-.25-.33-.63-.61-1.06-.41-.33,.16-.38,.53-.32,.9h0c-.04,.65,.06,1.29,.17,1.92,0,.04,.02,.08,.03,.12-1.76-.55-2.47-1.99-3.64-3.01-.88-.77-1.72-1.6-2.61-2.35-.02-.03-.04-.07-.07-.1-.8-.7-1.6-1.4-2.39-2.1-.39-.33-.78-.67-1.17-1.01-.39-.34-.77-.67-1.27-.83-.25-.07-.43,.04-.53,.21-.01,.01-.02,.01-.02,.01-.7,.46-.39,1.26-.09,1.87,.85,1.71,1.68,3.44,2.66,5.08,3.91,6.5,6.28,13.63,8.68,20.76,.25,.74,.1,1.1-.3,1.31-.15-.1-.29-.2-.43-.3-.47-.33-.93-.67-1.45-.91-.37-.37-.78-.76-1.32-.32-.37,.3-.25,.64-.08,.99-.06,.1-.08,.23-.03,.38,.26,.66,.59,1.28,.91,1.91,.53,1.46,1.05,2.93,1.45,4.43,.13,.53,.46,1.14,.65,1.73,.06,.29,.11,.58,.15,.87-.02,.31-.12,.59-.41,.8-.94,.71-1.85-1-2.88-1.44-.54-.23-.98-.91-1.64-.41-.07,.05-.12,.11-.17,.16-.32,.21-.43,.6-.41,.96,.01,.47,.08,.95,.17,1.41,.08,.44,.19,.88,.33,1.3,.15,.44,.35,.87,.43,1.33,.01,.05,.04,.08,.06,.12,.78,2.68,.73,5.48,.55,8.25-.09,1.4-.14,2.82-.43,4.19-.3,1.38-.95,2.63-1.65,3.85-2.07,2.05-4.17,3.81-6.75,4.92-4.79,2.06-9.94,2.46-15.03,3.02-.85,.09-1.74-.31-2.61-.46-4.24-.7-7.94-2.93-11.97-4.18-2.04-.63-3.8-2.08-6.06-2.04,.3,.23,.58,.51,.91,.65,4.42,1.74,8.83,3.53,13.29,5.15,2.36,.86,4.85,2.06,7.23,1.94,5.92-.28,11.83-1.33,17.18-4.09,2.32-1.21,4.38-2.94,5.41-5.78,.4-.79,.75-1.62,.96-2.49,.35-1.45,.41-2.96,.51-4.45,.2-2.96,.26-5.98-.61-8.86-.01-.04-.03-.06-.05-.09-.07-.35-.2-.67-.32-1.01-.13-.37-.24-.74-.33-1.12-.09-.37-.15-.74-.19-1.11-.01-.08-.01-.17-.02-.26,.04-.03,.06-.08,.11-.11,.48-.32,.9,.1,1.27,.39,1.73,1.41,3.18,3.08,4.54,5.19,.17-.85,.03-1.56-.18-2.23,.02-2.19-.26-4.39-.84-6.51-.3-1.05-.66-2.07-1.1-3.07-.36-.84-.82-1.63-1.2-2.46,.09-.09,.23-.15,.41-.17,.26,.17,.51,.36,.76,.53,.61,.43,1.23,.85,1.84,1.27,.02,.02,.05,.02,.08,.03,.35,.33,.73,.64,1.15,.94,.13-1.17-.56-1.94-.77-2.85-2.06-9.15-5.82-17.58-10.83-25.48-.31-.49-.95-.98-.56-1.63,.15-.25,.31-.3,.48-.28,.32,.28,.64,.55,.96,.83,.75,.66,1.5,1.32,2.25,1.98,.06,.05,.12,.08,.19,.1,2.75,2.58,5.41,5.34,8.14,8.51-.02-.63-.05-1.25-.14-1.81,.12-.13,.17-.31,.14-.49-.12-.62-.23-1.25-.35-1.87-.07-.37-.11-.73-.14-1.1,.54,0,.75,.48,1.02,.88,1.45,2.13,2.95,4.23,4.35,6.4,2.91,4.52,5.72,9.14,7.81,14.09,2.32,5.49,4.8,10.95,6.17,16.8,.96,4.11,3.48,7.98,2.99,12.33-.3,1.58-.87,3.12-1.48,4.61-.9,2.21-1.83,4.4-2.74,6.6-.01,.02,0,.04-.01,.06-.31,.69-.62,1.37-.94,2.05-1.67,3.64-2.31,7.75-4.86,10.99-2.88,3.67-6.18,6.93-9.73,9.95-1.67,1.42-3.24,2.97-4.38,5.01,.77,.24,1.03-.12,1.26-.42,2.89-3.8,6.81-6.52,10.18-9.81,.64-.62,1.36-1.97,2.26-1.25,1.02,.82-.43,1.57-.81,2.34-.21,.41-.75,.79-.32,1.26,.47,.5,.88-.08,1.24-.3,2.12-1.24,4.21-2.53,6.32-3.79,.45-.27,1.01-.89,1.44-.4,.53,.62-.21,1.12-.66,1.43-3.31,2.26-5.84,5.32-8.46,8.29-3.09,3.49-5.85,7.21-8.44,11.07-.24,.35-.82,.74-.28,1.2,.44,.37,.9,.03,1.29-.26,.88-.66,1.74-1.33,2.63-1.97,.46-.34,1-.76,1.49-.28-.71,1.04-1.39,2.09-2.05,3.17-.02,.04-.03,.08-.04,.12-.01,.02-.02,.03-.03,.05-2.41,3.41-3.2,7.42-4.52,11.28-3.24,9.46-2.6,19.26-3.33,28.94,.44,.11,.7-.12,.95-.35,.6-.53,1.37-.9,2.05-.48,.83,.51,.23,1.32,.07,2.03-.4,1.78-.94,3.5-1.83,5.22,1.4-.87,2.79-1.75,4.66-2.91,.26-.15,.52-.31,.78-.45,.15-.09,.3-.17,.45-.25,1.03,.21,.74,.89,.27,1.61-.89,1.36-1.8,2.71-2.71,4.08,.77,.42,1.28-.12,1.74-.43,2.05-1.38,4.52-1.94,6.51-3.43,.33-.25,.84-.63,1.28-.12,.33,.39,.12,.88-.19,1.1-2.2,1.55-2.99,4.19-4.76,6.1-2.7,2.89-5.32,5.89-7.28,9.37-2.18,3.86-5.03,7.11-8.69,9.64-.23,.16-.61,.35-.34,.78,.7,.14,1.57-.77,2.04,.15,.36,.71-.41,1.2-.89,1.67-.29,.28-.71,.58-.43,1.02,.24,.38,.73,.3,1.13,.2,.46-.11,.9-.32,1.37-.4,.52-.1,1.17-.26,1.37,.47,.18,.61-.41,.77-.8,1.02-.29,.18-.57,.37-.88,.53-7.27,3.63-13.05,9.12-18.5,15.01-1.24,1.34-2.74,2-4.6,2.36-4.13,.8-8.37,1.24-12.29,2.97-3.28,1.44-6.57,2.43-10.27,1.49-4.91-1.25-10.23-1.67-12.21-7.58-.05-.12-.19-.21-.25-.33-2.52-4.36-5.4-8.54-7.42-13.17-4.9-11.2-10.02-22.17-17.91-31.76-7.46-9.08-16.29-16.05-26.94-20.82-2.36-1.06-4.91-1.72-7.19-2.92-5.85-3.07-12.2-4.39-18.62-5.15-3.44-.41-4.7-2.56-5.96-5.08-.01-.04-.03-.08-.04-.12,.48-.04,.96-.08,1.44-.14,.19-.02,.38-.05,.56-.07,.16-.03,.3-.05,.44-.13,.21-.14,.33-.37,.29-.62-.01-.1-.04-.19-.1-.28,0-.01,0-.02-.02-.03,0-.41-.26-.79-.47-1.09-2.72-3.79-2.45-7.46,.31-11.08,.08-.11,.1-.26,.16-.38,4.16-8.43,8.37-16.83,12.46-25.3,.85-1.76,1.49-1.4,2.38-.21,.71,.95,1.55,1.81,2.19,2.91-.03-2.48,.36-4.86,.51-7.24,.08-1.25,.52-1.67,1.24-1.88,.11,.18,.23,.37,.32,.56,.21,.39,.41,.78,.64,1.16,.06,.41,.14,.82,.61,.86,.72,.07,.5-.64,.65-1.05,.33-.89,.71-1.76,1.02-2.66,.16-.48-.06-1.25,.74-1.23,.79,.03,1.02,.82,.94,1.37-.45,3.03,1.09,5.72,1.33,8.63,.05,.58,.1,1.16,.74,1.45,.53-1.07-.49-1.99-.17-3.02,1.01-3.25,1.93-6.52,2.99-9.75,2.82-8.5,6.76-16.52,10.53-24.61,.14-.01,.28-.07,.37-.24,.6-1.08,1.23-2.14,1.86-3.21,1.04,.16,.59,1.09,.42,1.78-.32,1.28-.39,2.58-.32,3.86,.14,2.49,.34,4.98-.69,7.36,.33-.6,.71-1.19,1.11-1.75,.11,.32,.66,.5,.95,.13,2.43-3.2,4.76-6.48,6.97-9.83,.94,.45,.34,1.38,.2,2.08-.28,1.4-.37,2.87-.72,4.21-.53,2.07,1.56,3.23,1.3,5.1-.14,1.02,.17,1.54,1.2,.69,.37-.31,.8-.64,1.26-.24,.14,.12,.15,.5,.09,.73-.92,3.55-.2,7.24-.9,10.81-.22,1.1-.04,2.27-.04,3.41,.24,.04,.47,.08,.71,.11-.08-2.17,.63-3.84,2.07-5.45,4.77-5.3,9.96-10.15,15.37-14.77,.47-.41,.99-1,1.56-.44,.53,.52-.02,1.13-.37,1.62-1.18,1.66-1.91,3.51-2.36,5.57,1.45-1.07,2.91-2.01,4.4-2.91,.34-.21,.77-.47,1.09-.07,.18,.22,.26,.69,.15,.95-.82,2.01-1.12,4.5-4.09,4.66-.32,.02-.64,.21-.97,.32-.41,.15-.82,.37-.56,.87,.17,.34,.56,.24,.91,.12,1.08-.41,2.16-.81,3.26-1.17,3.82-1.26,7.67-2.41,11.76-2.17,3.72,.21,7.34,1.03,10.95,1.95-.12-.55-.64-.61-1.04-.76-6.09-2.26-12.24-3.5-18.61-1.11-.49,.18-1.09,.53-1.53,.03-.51-.57-.02-1.15,.23-1.69,.44-1,.93-1.98,1.38-2.97,.18-.39,.3-.82-.12-1.11-.32-.22-.65-.02-.94,.17-.81,.52-1.6,1.05-2.42,1.54-.38,.23-.8,.71-1.26,.23-.35-.36-.02-.76,.15-1.13,.4-.86,.83-1.72,1.19-2.61,.27-.65,.92-1.4,.11-2.03-.77-.59-1.43,.06-2,.53-5.66,4.62-11.43,9.14-16.32,14.63-.31,.34-.61,.88-1.16,.6-.54-.28-.24-.85-.2-1.3,.26-2.65,.53-5.3,.8-7.95,.05-.47,.33-1.02-.13-1.35-.65-.47-.94,.22-1.32,.57-.39,.36-1.04,.6-1.06-.09-.04-1.93-1.74-3.44-1.04-5.62,.55-1.72,.46-3.65,.63-5.49,.04-.41,.04-.9-.46-1.01-.66-.14-1.04,.29-1.39,.72-.1,.03-.2,.08-.27,.19-.93,1.42-1.89,2.81-2.86,4.2-1.26,.94-1.92,1.87-2.6,2.77-.31,.4-.51,1.14-1.21,.8-.5-.26-.22-.85-.2-1.31,.1-2.93,.2-5.86,.28-8.79,.01-.45-.01-1.16-.67-.99-.72,.19-.84,.88-1.06,1.5-.5,.82-.97,1.65-1.45,2.48,0,0,0-.01-.01-.02-.08,.15-.16,.3-.24,.45-.21,.37-.43,.73-.64,1.1-.03,.06-.04,.11-.05,.17-3.3,6.05-6.27,12.1-8.61,18.43-1.4,3.77-3.1,7.44-3.9,11.42-.1,.45-.29,1.06-.84,1.02-.6-.05-.52-.71-.59-1.16-.23-1.49-.46-2.98-.69-4.46-.07-.47-.04-1.05-.65-1.13-.54-.07-.88,.33-1.13,.75-.68,1.14-.84,2.44-1.16,3.7-.16,.61-.4,1.02-.69,1.03-.41-.79-.75-1.63-1.46-2.19-.07-.05-.14-.09-.22-.11-.12-.16-.31-.26-.62-.22-.66,.08-.81,.71-.98,1.2-.23,.64-.41,1.31-.46,1.98-.08,1.09-.02,2.19-.05,3.28,0,.39,.14,.89-.37,1.05-.49,.16-.7-.31-.96-.6-.64-.72-1.18-1.37-.65-2.53,1.5-3.22,3.05-6.41,4.81-9.51,.54-.95,1.1-1.89,1.59-2.87,.09-.07,.17-.16,.21-.27,.19-.47,.53-.92,.81-1.35,.3-.46,.6-.91,.91-1.37,.58-.85,1.16-1.69,1.71-2.56,.35-.33,.63-.68,.32-1.21-.39-.68-1.12-.33-1.66-.07-.39,.2-.78,.4-1.17,.6-.77,.27-1.5,.68-2.19,1.15-1.83,.99-3.64,2.04-5.37,3.22-.91,.63-1.97,1.84-3.05,1.21-1.05-.61,.06-1.84,.15-2.8,.14-1.39-.32-1.92-1.6-1.24-1.13,.61-2.26,1.3-3.25,2.12-6.51,5.41-13.77,9.61-21.43,13.13-8.68,4.01-17.57,7.58-26.01,12.12-.87,.46-1.69,1.78-2.65,1.37,.51-1.2,1.16-2.53,.51-3.8-.05-.08-.12-.13-.2-.18-.07-.15-.18-.3-.39-.41-.52-.28-.89,.13-1.27,.42-1.24,.96-2.47,1.94-3.72,2.89-.53,.4-1.07,.87-1.7,.74,.19-1.35,.38-2.7,.57-4.06,.08-.17,.14-.38,.2-.6,.13-.46,.29-1.04-.31-1.23-.84-.26-1.15,.54-1.61,1.01-4.94,5.12-9.32,10.75-14.48,15.67-1.33,1.27-2.76,2.14-4.49,2.12-1.72-.02-3.2,.6-4.77,1.06-1.12,.34-2.42,1.68-3.31,.73-.74-.78,.62-2.04,.96-3.13,.15-.49,.7-.99,.19-1.49-.56-.57-1.17-.14-1.68,.17-2.35,1.4-4.68,2.83-7.01,4.26-1.98,1.21-2.46,.97-2.62-1.31-.36-5.24-1.73-10.23-3.84-15.01-.54-1.22-.52-2.09,.15-3.22,3.56-5.9,6.14-12.19,7.57-18.95,1.86-8.77,3.72-17.54,5.69-26.28,1.8-8.01,3.74-15.99,5.6-23.98,.07-.3,.16-.61,.22-.94,.12-.46,.23-.93,.35-1.39,.19-.72,.45-1.48,.41-2.23,0-.01-.01-.03-.01-.04,.02-.28-.02-.57-.19-.79-.41-.55-.86-.12-1.22,.19-.51,.44-.99,.94-1.48,1.41-.29,.28-.59,.67-1.04,.43-.36-.19-.25-.58-.13-.91,.12-.37,.46-.8-.06-1.07-.42-.22-.77,.15-1.08,.4-.17,.14-.33,.27-.49,.41-.45,.27-.85,.63-1.22,.99,0,.01-.03,.03-.04,.04-.4,.33-.8,.67-1.19,1.01-.03,.02-.06,.04-.1,.06-.06,.04-.11,.09-.15,.15-.04,.04-.08,.07-.12,.1-10.05,8.82-19.21,18.49-27.96,28.58-2.15,2.48-3.81,5.36-6.29,7.56-.97,.86-1.66,1.16-2.37-.22-.4-.8-.35-2.2-1.57-2.1-.23,.01-.38,.11-.5,.23-.08,.02-.15,.05-.2,.12-.37,.46-.57,1-.69,1.57-.11,.58-.15,1.18-.33,1.75-.02,.06-.02,.13-.01,.19-.1,.27-.27,.47-.67,.49-.79,.06-.93-.88-1.28-1.44-.26-.4-.49-.9-1.08-.76-.59,.13-.55,.69-.63,1.15-.46,2.84-.99,5.66-1.36,8.5-1.52,11.43-6.21,21.78-10.94,32.1-2.16,4.71-5.14,9.08-5.21,14.53-.02,1.24-1.05,1.65-2.04,2.02-4.25,1.62-7.83,4.12-10.6,7.8-1.9,2.54-3.35,5.31-4.56,8.22-2.85,6.83-4.34,13.83-2.54,21.21,.5,2.01,.26,3.92-.45,5.82-.72,1.94-1.1,3.97-1.22,6.01-.09,1.65-.41,3.19-.88,4.79-1.44,4.91-2.23,9.9-.35,14.91,.56,1.48,.28,2.83-.14,4.35-.58,2.1-1.54,4.27-1.15,6.57-.04,.13-.03,.28,.03,.42,.05,.13,.11,.26,.17,.39,.15,.46,.36,.93,.64,1.4,.81,1.72,1.7,3.39,2.68,5.01,.15,.29,.32,.56,.49,.8,.11,.18,.22,.37,.34,.56,.07,.11,.17,.17,.28,.2,.1,.11,.19,.23,.3,.34,2.61,2.67,5.55,5.03,8.99,6.32,3.3,1.23,5.53,2.92,5.9,6.55,.01,.13,.1,.26,.17,.38,.4,.72,.38,1.21-.15,1.45-.37-.22-.74-.44-1.11-.66-.52-.32-1.1-.61-1.73-.64-.06-.04-.13-.08-.24-.11-.47-.15-.86,.11-.89,.57-.03,.45,.13,.92,.24,1.38,.98,4.22,3.53,7.82,4.67,11.98,.05,.17,.22,.42,.35,.43,.38,.03,.68,.15,.94,.32-.03,.03-.06,.05-.08,.08-.44,.73-.75,1.54-.9,2.37-.01-.04-.04-.09-.04-.13,0,.1,0,.18,.02,.28-.04,.24-.07,.49-.08,.74-.05,.99,.13,2,.28,3,.11,1.86,.54,1.9,4.28,4.64,.61,.45,1.25,.84,1.88,1.25,2.85,1.85,3.3,4.22,1.2,6.8-4.1,5.05-8.4,9.92-13.12,14.4-6.65,6.32-14.09,11.2-23.14,13.45-2.93,.74-5.52,2.46-7.58,4.71-3.72,4.03-2.76,11.28,2.02,15.12,3.71,2.98,8.01,3.97,12.62,4.08,9.58,.23,18.5-1.58,25.88-8.27,.91-.82,1.81-1.66,2.78-2.43,10.61-8.42,21.55-16.4,32.44-24.46,.69-.51,1.23-.66,1.71,.07,1.47,2.24,3.88,3.43,5.7,5.28,.48,.49,.97,1.46,1.82,.91,.44-.28,.51-.63,.45-1,.01-.28-.03-.57-.07-.83-.06-.47-.14-.92-.27-1.37-.06-.25-.16-.5-.25-.74h0c.61-.64,1.29-.06,1.87,.23,3.66,1.83,7.33,3.67,10.97,5.56,.76,.4,1.46,.69,2.33,.4,2.99-1,5.85-2.39,8.47-4.06,1.98-1.26,3.91-2.07,6.21-2.35,2.98-.37,5.78-1.28,8.42-2.62,1.71-.78,3.39-1.61,5.04-2.52,.02,.01,.02,.02,.04,.03,.56,.22,1.01-.3,1.53-.43,1.06-.26,1.95-1.45,3.23-.6,5.36,3.56,11.63,5.13,17.35,7.89,1.56,.76,1.9,1.44,.98,2.94-3.06,5.01-6.04,10.09-9.09,15.11-2.58,4.23-6.06,7.32-10.87,8.9-3.83,1.26-7.09,3.49-8.76,7.27-3,6.76-2.43,12.59,4.86,16,5.12,2.39,10.46,3.64,16.07,2.72,.76-.12,1.53-.23,2.3-.38,.09,.03,.18,.05,.29,.03,2.38-.55,4.9-.95,6.92-2.38,1.77-.88,3.28-2.17,4.68-3.57,10.66-10.62,19.93-22.35,27.82-35.16,3.05-4.95,6.39-9.91,5.94-16.08-.26-3.67,.12-7.64-2.46-10.78-1.69-2.05-3.55-3.99-5.45-5.85-1.8-1.75-1.98-1.84,.1-3.27,3.46-2.37,4.9-5.6,5.29-9.69,.42-4.34,1.28-8.65,2.02-12.96,.35-2,.95-2.19,2.83-1.56,1.5,.5,1.99,1.8,2.7,2.93,4.16,6.73,9.96,11.33,17.53,13.7,5.3,1.65,10.84,1.38,16.26,2.01,5.95,.7,11.77,1.77,17.44,3.66,1.07,.36,2.09,.69,1.57,2.27-2.16,6.5-4.44,12.93-8.19,18.74-2.39,3.68-6.17,5.77-9.44,8.43-3.11,2.52-4.04,5.94-4.18,9.64-.06,1.53,.27,3.18,1.36,4.43,2.23,2.55,4.91,4.55,7.96,6.03,5.14,2.48,10.42,1.98,15.54,.14,3.18-1.14,6.51-2.28,8.89-4.93,3.04-3.37,5.66-7.02,7.58-11.16,2.74-5.89,5.53-11.76,8.25-17.66,2.83-6.14,5.98-12.15,8.07-18.61,1.03-3.18,1.61-6.32-.63-9.19-1.16-1.49-2.61-2.78-3.99-4.1-3.98-3.83-8.48-7.17-11.5-11.93-.28-.44-.96-.81-.62-1.4,.41-.68,1.12-.25,1.68-.12,1.47,.33,2.91,.75,4.39,1.06,2.97,.63,6.05,1.14,8.9-.09,5.51-2.39,11.23-3.92,17.11-4.91,1.74-.3,2.98-1.12,4.07-2.48,2.64-3.3,5.32-6.49,8.76-9.14,3.16-2.43,6.58-4.4,9.78-6.72,.72-.52,2.39-.78,1.84-2-.48-1.05-1.71-.02-2.6,.09-.47,.07-.98,.3-1.35-.12-.44-.49,0-.87,.32-1.21,.37-.38,.63-.84,.23-1.26-.88-.95-.06-1.44,.45-2.04,2.4-2.81,4.84-5.59,6.77-8.76,1.85-3.06,4.04-5.84,6.5-8.44,2.2-2.33,4.26-4.79,5.87-7.59,.27-.47,.75-.93,.28-1.46-.45-.51-1.01-.21-1.51,.02-1.73,.81-3.46,1.63-5.2,2.44-.52,.25-1.06,1.03-1.61,.52-.65-.61,.31-1.17,.43-1.79,.18-1,1.72-2.02,.69-2.82-.35-.27-.7-.17-1.04,.09-.32,.08-.61,.22-.9,.38-.4,.21-.79,.43-1.19,.65-.64,.36-1.28,.73-1.92,1.11-.39-.31-.35-.84-.14-1.46,.19-.59,.44-1.16,.62-1.74,.63-2.08,.24-2.51-1.88-1.93-1.14,.32-1.69,.06-1.33-1.11,.92-2.98,.29-5.97,.27-8.96-.03-6.03-.07-12.12,2.44-17.73,1.57-3.51,3.2-7,4.77-10.68,.63-1.03,1.29-2.04,1.98-3.03,.03-.04,.06-.07,.09-.11,.33-.38,.62-.82,.26-1.28-.36-.47-.84-.22-1.31-.05-.78,.27-1.39,1.17-2.65,.61,5.51-7.4,11.63-14.1,18.34-20.34-3.94-.52-6.47,2.46-10.09,3.73,.86-1.49,1.57-2.67-.26-3.46-.42-.19-.14-.78,.16-1.06,3.28-3.05,4.33-7.18,5.58-11.23Zm-166.84,45.77c.07,.29,.08,.57,.15,.8-.46,.05-.92,.09-1.37,.13-.07,0-.14,.02-.2,.05-.03,.01-.05,.01-.09,.02-.82,.25-.98,.97-.64,1.66,.36,.72,.86,1.4,1.39,2.01,1.4,1.61,1.42,1.61-.72,2.13-1.73,.42-3.46,.81-5.07,1.64-.46,.23-1.03,.69-1.5,.22-.51-.52,.09-1,.32-1.46,1.34-2.61,2.65-5.25,4.07-7.82,.57-1.02,.83-2.93,2.05-2.69,1.07,.2,1.28,2.1,1.61,3.31Zm-86.02-11.33c-.04-1.45,.48-2.22,1.71-2.89,2.1-1.13,4.09-2.46,6.1-3.73,.5-.32,.98-1.03,1.57-.51,.54,.48,.05,1.15-.21,1.69-.79,1.62-1.19,3.51-3,4.53,.25-.04,.55,0,.75-.12,3.38-2.21,7.37-2.69,11.09-3.92,.46-.15,.96-.46,1.26,.11,.25,.49-.1,.92-.44,1.27-5.27,5.47-10.26,11.19-14.97,17.14-1.69,2.14-3.2,4.42-4.8,6.63-.34,.47-.64,1.29-1.37,.91-.56-.29-.24-1.04-.08-1.51,2.23-6.36,2.55-12.96,2.39-19.6Zm-52.39-3.67c.95-3.2,1.44-6.55,2.95-9.58,3.63-7.28,7.02-14.66,9.68-22.37,2.24-6.51,3.7-13.13,3.73-20.03,0-.4-.13-.89,.41-1.01,.49-.11,.77,.29,.91,.66,.25,.63,.41,1.3,.62,1.95,.47,1.42,.68,2.97,1.74,4.23,.72-.73,.53-1.5,.25-2.03-.86-1.61-.68-3.12,.01-4.7,.04-.09,.06-.18,.09-.27,.08-.06,.15-.14,.19-.25,.16-.54,.21-1.1,.31-1.65,.04-.24,.09-.47,.17-.7,.01,0,.05-.13,.05-.13,.02-.04,.04-.09,.06-.12,.01-.03,.03-.05,.04-.07,.88-.19,.77,.74,1.12,1.17,.88,1.06,.62,2.7,1.97,4-.03-1.78,.88-2.66,1.78-3.61,1.5-1.59,2.92-3.25,4.34-4.92,3.93-4.65,7.97-9.2,12.02-13.75,3.82-4.28,8.21-8.03,12.25-12.13,1.79-1.82,3.92-3.29,5.6-5.23h.01c.55-.32,1.01-.77,1.47-1.21,.21-.21,.43-.42,.66-.61,.02-.03,.05-.05,.08-.07t.02-.02h.01c.06-.05,.12-.09,.17-.13,.04-.02,.07-.03,.1-.05,.74,.62-.38,1.34-.71,2-.32,.64-1.09,1.36-.18,1.94,.78,.51,1.12-.48,1.61-.88,1.21-.96,1.57-2.96,3.43-3.17-.08,.42-.21,.84-.31,1.24-.16,.62-.32,1.25-.48,1.87-.07,.26-.13,.52-.18,.79-1.17,6.16-2.72,12.24-4.23,18.33-2.46,9.95-5.18,19.84-7.05,29.92-1.31,7.07-3.92,13.62-7.18,19.97-.72,1.4-1.26,.87-1.86-.02-2.18-3.21-5.15-5.44-8.65-7.04-1.48-.67-3.03-.71-4.98-.78,1.16,1.3,2.48,2.15,2.95,3.52,.08,.45,.14,.9,.19,1.35,.1,1.67,.19,3.34,.26,5,.17,3.66-1.27,6.6-3.86,9.13-2.78,2.72-6.17,4.21-9.76,5.42-4.74,1.6-9.62,2.64-14.49,3.67-2.01,.42-3.91,1.26-5.97,1.4-.72,.05-1.74,.28-1.36-1.03Zm-20.88,32.1c.82-5.73,2.11-11.32,4.75-16.35,4.05-7.7,11.03-11.99,19.23-14.46,5.55-1.67,11.35-2.22,16.89-3.94,4.95-1.54,9.81-3.1,13.38-7.33,2.89-3.42,3.56-7.12,2.98-11.15,0-.03,.01-.05,.01-.09-.02-1.14-.14-2.27-.32-3.4,.71-.17,1.19,.68,1.48,1.27,.77,1.53,1.39,3.12,2.07,4.7,.61-.32,.42-.72,.33-1.11-.55-2.49-1.74-4.56-3.81-6.11-.37-.27-.85-.67-.54-1.18,.28-.45,.71-.11,1.07,.08,4.99,2.54,8.55,6.42,10.9,11.48,1.71,3.7,2.42,7.66,3.16,11.59,.64,3.41,1.46,6.95,1.15,10.34-.55,5.99-.96,12.03-2.85,17.9-1.27,3.93-2.62,7.69-5.02,11.04,.03,0,.06-.01,.09-.01-.03,.05-.07,.1-.1,.15-.01-.04,0-.08,0-.12-.77,1.14-1.54,2.29-2.31,3.44-.28,.36-.56,.72-.87,1.06-1.52,1.67-3.3,3.07-5.27,4.19-.36-.27-.38-.68,.01-1.32,1.95-3.21,1.24-6.76,1.2-10.21-.01-.64-.24-1.35-.93-1.73-.06,.13-.17,.24-.15,.34,.04,.4,.13,.8,.19,1.2,.45,3.21,.38,6.4-.72,9.48-1.75,4.92-5.18,8.6-9.1,11.86-1.66,1.37-3.42,2.59-5.25,3.68-.09-.01-.17,0-.26,.03-2.37,1.01-4.63,2.33-7.13,2.96-2.46,.61-5.04,.69-7.55,.33-.16-.02-.3,.03-.4,.11-1.77-.12-3.5-.28-5.24-.49-7.75-.91-13.76-4.45-17.53-11.2-2.92-5.22-4.43-10.79-3.54-17.03Zm-3.45,36.29c-.27-1.46-.83-2.9-.55-4.43,.15-.78,.27-2.06,1.06-2,.26,.02,.48,.01,.66-.01,.17,1.24,.51,2.46,.68,3.69,.1,.74,.28,1.63,.13,2.37-.1,.45-.31,.89-.53,1.32-.16,.12-.34,.22-.56,.24-.73,.07-.8-.7-.89-1.18Zm4.1,22.62s-.03-.1-.06-.15c-1.59-2.49-2.98-5.1-4.16-7.81-.36-3.9,.58-7.59,1.98-11.22,.26-.7,.4-1.44,.54-2.18,.18-.37,.35-.75,.48-1.14,.25-.79,.11-1.66,.02-2.47-.2-1.71-.77-3.39-.82-5.11,0-.11-.05-.2-.1-.27-.03-.28-.09-.57-.09-.82-.02-4.12,.1-8.21,1.19-12.21,.14-.51,.1-1.22,.76-1.33,.69-.1,.76,.61,1.02,1.08,2.86,5.01,6.42,9.23,11.89,11.72,4.18,1.9,8.51,2.35,12.93,2.49,.06,.04,.13,.07,.21,.09,2.62,.37,5.29,.33,7.87-.29,1.31-.31,2.55-.81,3.78-1.36,5.2-1.89,9.4-5.22,13.2-9.14,1.74-1.79,2.94-4.1,5.19-5.7,.02-.01,.04-.01,.05-.02,2.19-1.18,4.18-2.72,5.85-4.57,1.47-1.62,2.64-3.48,3.81-5.32,.61,.09,.76,.54-.06,1.76-.24,.36-.45,.87,.23,1.26,.51-.42,.58-1.02,.72-1.6,.69-2.93,1.44-5.87,3.15-8.38,6.92-10.23,15.08-19.44,23.48-28.47,5.29-5.7,11.15-10.91,15.42-17.52,.29-.45,.7-1.11,1.26-.84,.09,.04,.17,.07,.25,.1-.2,1.44-.4,2.88-.6,4.32-.58,1.3-1.3,2.57-1.25,4.09,.74-1.09,1.16-2.33,2.18-3.18,1.74-1.44,3.73-2.55,5.23-4.27,.33-.38,.84-.59,1.28-.22,.06,.05,.09,.11,.13,.17,.08,.26,.09,.52,.05,.79-.04,.11-.08,.22-.13,.33-.55,1.33-1.01,2.7-1.56,4.19,.4-.1,.6-.11,.76-.2,9.29-5.38,19.19-9.51,28.92-14,8.98-4.14,17.88-8.47,24.99-15.63,.29-.29,.61-.65,1.05-.4,.51,.28,.49,.82,.35,1.28-.32,1.04-.69,2.07-1.08,3.09-.14,.37-.53,.74-.2,1.11,.45,.52,.9,.01,1.24-.22,2.89-2,5.96-3.7,9.11-5.22,.05,0,.1-.02,.15-.06,.92-.64,1.94-1.27,3.03-1.5,.07,.03,.13,.08,.2,.13-.43,.66-.87,1.31-1.31,1.96-.32,.47-.64,.94-.94,1.41-.3,.47-.62,.94-.82,1.46-.01,.01-.01,.03-.01,.05-1.24,1.95-2.27,4.03-3.43,6.01-4.12,7.08-7.2,14.7-10.87,22.02-4.35,8.65-8.54,17.39-12.97,26-3.44,6.7-6.93,13.35-12.15,18.9-3.86,4.11-8.29,7.3-13.76,8.93-6.17,1.84-12.46,2.95-18.85,3.72-6.57,.79-13.09,1.93-19.73,2.05-1.39,.03-2.9-.19-4.54,.62,1.41,.42,2.51,.41,3.58,.28,1.77-.22,3.53-.27,5.31-.25,.99,.01,1.43,.3,1.64,1.34,1.27,6.15,.64,12.24-.35,18.34-.48,2.93-1.42,5.67-2.65,8.36-4.1,8.98-10.82,15.72-18.6,21.48-5.83,4.31-12.32,7.21-19.48,8.69-4.94,1.02-9.91,1.09-14.88,1.15-2.7,.04-5.44-.23-8.02-1.27-.65-.27-1.39-.42-1.25-1.32,.06-.38,.05-.71,.02-1.01,.07-.11,.11-.24,.08-.39-.17-.97-.84-1.73-1.53-2.39-.76-.72-1.61-1.35-2.48-1.92-.85-.56-1.76-1.03-2.78-1.21-.99-.18-2-.15-3-.09-1.62-.21-3.25-.36-4.87-.37-6.42-.02-11.15-3.18-15.2-7.73Zm28.68,14.75c-.22,.34-.48,.51-.77,.58-.45-.1-.93-.37-1.3-.52-.62-.25-1.25-.5-1.88-.76-.34-.13-.69-.26-1.03-.42-.22-.15-.45-.28-.67-.42-.44-.35-.81-.75-1.28-1.06-.06-.04-.13-.07-.2-.08-.44-.39-.84-.83-1.04-1.42-.17-.5-.6-1.03-.13-1.57,.75-.04,1.51-.07,2.25,.04,.95,.14,1.78,.54,2.57,1.05,.79,.5,1.54,1.05,2.23,1.68,.05,.04,.09,.09,.14,.13,.2,.27,.4,.55,.61,.81,.48,.59,.99,1.17,.5,1.96Zm25.83,48.47c-2.29,1.72-4.47,3.58-6.79,5.27-8.45,6.15-16.81,12.43-25,18.93-2.67,2.13-5.17,4.5-7.98,6.41-5.37,3.65-11.36,5.01-17.87,4.46-4.17-.35-5.5-2.06-4.5-6.13,.47-1.93,1.67-3.43,2.82-5.43-3.47,2.04-5.08,6.67-3.71,9.8,.21,.46,.46,.88,.14,1.33-.4,.54-.96,.32-1.51,.25-1.91-.28-3.61-1.21-5.41-1.8-4.34-1.4-4.52-5.78-2.55-8.79,.57-.88,1.23-1.69,2.19-3.01-2.16,1.25-3.4,2.54-4.21,4.24-.22,.46-.29,1.22-1.02,1.05-.7-.17-.85-.82-.77-1.49,.71-5.94,3.85-10.1,9.53-11.82,7.49-2.27,14.35-5.55,20.37-10.61,6.44-5.4,11.68-11.88,16.88-18.4,.44-.55,.94-1.39,1.54-.49,1.61,2.42,4.02,2.23,6.35,2.33,.53,.14,1.03,.35,1.5,.62,.27,.17,.52,.35,.78,.52,.17,.14,.34,.29,.5,.45,.07,.07,.15,.1,.23,.12,.07,.07,.15,.12,.21,.19,1.17,1.11,2.81,1.98,2.07,4.2-.3,.88,.75,1.31,1.64,1.39,1.65,.16,3.26-.1,4.89-.31,1.79-.23,3.02,.85,3.07,2.65,.03,1.3-.06,2.6,.02,3.89,.04,.83-.42,2.12,.56,2.35,.91,.22,1.25-.8,1.68-1.55,.5-.5,.98-1.03,1.42-1.59,.06-.08,.13-.17,.19-.26,.35-.3,.64-.67,.95-1.02,.8-.86,1.34-.19,1.84,.38,.54,.61,.85,1.19-.05,1.87Zm54.53-3.53c-.55,.04-1.06,.13-1.34,.61-2.06,1.16-4.17,2.21-6.33,3.16-1.36,.44-2.69,1-4.06,1.41-2.54,.75-5.03,1.71-7.78,1.37-2.54-.31-5.09-.54-7.63-.8,1.55,1.27,3.33,1.16,5.09,1.16,.65,0,1.27,.03,1.4,.85,.1,.72-.52,.85-.96,1.16-3.03,2.13-6.71,2.04-10.1,2.95-.62,.16-1.18-.1-1.72-.47-3.19-2.24-6.97-3.41-10.18-5.64-.82-.57-2.09-1.7-2.83-1.04-.3,.27-.22,.57,0,.89,0,.07,.02,.14,.07,.21,.41,.7,.74,1.45,.96,2.23,.09,.34,.16,.69,.22,1.04-.06,.06-.14,.13-.24,.19-.76,.44-1.16-.45-1.67-.86-3.48-2.8-6.06-6.36-8.51-10.43-.54,.95-1.04,1.82-1.52,2.65-.12,.1-.24,.2-.35,.32-.27,.31-.5,.67-.76,1-.42,.54-.89,1.04-1.37,1.52-.44,.03-.69-.31-.65-1.31,.12-2.86-.06-5.72,.23-8.6,.14-1.35,.96-2.75,.21-4.18-.4,1.6-.62,3.23-.88,4.85-.16,.94-.53,1.71-1.66,1.76-1.56,.08-3.12,.22-4.69,.22-1.41,0-3.44,.48-2.3-2.24,.07-.17-.11-.54-.29-.71-1.02-.99-1.92-2.2-3.1-2.95-1.52-1.38-3.6-2.11-5.65-1.9-.04,.01-.07,.02-.1,.03-.17-.05-.33-.09-.49-.14-2.76-.8-3.53-3.64-5.43-5.33,1.01-1.95-.93-1.76-1.74-2.34-1.22-.88-2.5-1.66-3.76-2.47-.87-.56-1.56-1.23-2.04-2.02,0-.01,.01-.02,.01-.03-.15-1.11-.38-2.25-.38-3.37,.01-1.02,.3-2,.82-2.87,.39,.49,.74,1.03,1.33,1.34-.23-.47-.46-.95-.7-1.42-2.11-4.18-4.74-8.11-6.35-12.55-.2-.56-.62-1.09-.39-1.67,.02,.01,.05,.02,.07,.02,.58-.05,1.09,.28,1.59,.58,.35,.21,.7,.43,1.05,.64,.97,.71,1.78,1.3,2.78,2.03-.94-2.74-1.44-5.19-2.52-7.47-.39-.82-.71-1.73,.46-2.25,1.24-.54,4.16,.55,4.71,1.89,.39,.93,.93,1.63,1.58,2.19,.03,.04,.06,.08,.11,.12,.52,.35,.94,.84,1.46,1.19,.56,.39,1.25,.61,1.88,.86,.7,.28,1.39,.56,2.08,.84,.44,.18,.86,.35,1.3,.41,1.98,.65,4.01,1.08,6.1,1.46,6.79,1.25,13.58,.89,20.17-.41,12.89-2.53,23.19-9.86,31.59-19.63,9.05-10.53,12.58-22.89,10.31-36.73-.31-1.85,.44-3.11,2.28-3.18,4.26-.16,8.35-1.36,12.55-1.8,5.56-.59,11.02-1.56,16.4-3.17,6.11-1.83,11-5.26,15.14-9.95,.37-.43,.7-.96,1.32-.78,.67,.19,.55,.85,.55,1.38,.03,4.54,2.18,8.73,2.1,13.32,.44-1.5,1.23-3.31,.91-4.49,.1-.84,.28-1.66,.55-2.46,.26,.35,.79,.49,1.17,.75,.42,.29,.69,.25,.89,.07,.25,.13,.53,.04,.67-.18,.82-1.24,1.82-2.34,2.96-3.3,.55,.38,.32,1.03,.37,1.59,.19,2.4-.38,4.75-.51,7.13-.29,5.44-.57,10.87-.85,16.31,.17,.01,.35,.01,.52,.02,0-1.19-.01-2.38,0-3.57,.01-.38-.13-.89,.38-1.05,.6-.2,.95,.28,1.04,.72,.53,2.46,1.86,4.7,1.91,7.29,.1,4.39-.25,8.76-.46,13.13-.05,1.02-1.41,2.74,1.1,2.88,.09,.01,.14,.49,.25,.74,.68,1.69,.61,3.24-.44,4.84-1.28,1.92-2.36,3.98-3.54,5.98-.23,.39-.69,.69-.33,1.26,.62,.97-.17,1.48-.71,2.08-.39,.44-1.19,.62-1.09,1.92,1.23-1.09,2.69-1.5,3.84-2.3,.6-.13,1.18-.36,1.69-.67,.17-.1,.34-.21,.5-.31,.35,.26,.34,.69-.19,1.27-1.77,1.89-2.4,4.4-3.68,6.54-1.72,2.88-2.29,6.95-6.81,7.23-.05,0-.08,.2-.14,.35,.94,.09,1.82-.01,2.7-.23,.08,.06,.17,.11,.29,.11,.74,0,1.47-.12,2.2-.03,.51,.05,.99,.21,1.45,.43-.54,.39-1.09,.78-1.64,1.18-2.74,1.98-4.21,5.25-7.07,7.08-2.29,1.47-3.95,3.55-5.77,5.49-1.07,1.14-1.51,2.82-2.93,3.64-2.45,1.42-4.65,3.28-7.93,4.45,1.31,0,2.04-.02,2.76,.01,.57,.02,1.38-.31,1.56,.53,.18,.81-.56,1.14-1.15,1.49-1.46,.87-3.41,1.28-3.26,3.63,.02,.17-.29,.45-.51,.53-3.6,1.4-6.8,3.74-10.81,4.53,1.38,1.21,2.98,.54,4.39,.85,.75,.17,1.87-.21,2.03,.9,.13,.99-.93,1-1.58,1.27-3.92,1.6-7.92,2.91-12.18,3.23Zm56.08-8.25c2.47,2.5,4.52,4.92,4.36,8.77-.15,3.46,.26,6.97-1.13,10.26-2.12,5.05-4.91,9.75-7.92,14.32-4.48,6.8-9.14,13.49-14.59,19.53-4.57,5.06-8.76,10.57-14.86,14.02-.02,.01-.03,.02-.04,.03-.61,.3-1.24,.53-1.91,.71-.96,.25-1.92,.47-2.88,.69-2.9,.36-4.48-1.14-4.71-4.18-.25-3.24,.13-6.34,1.23-9.38-2.12,3.36-2.98,7-1.99,10.86,.69,2.68,.85,2.64-1.86,2.79-.28,.02-.55,.07-.82,.05-8.17-.52-10.67-2.19-10.82-10.23-.03-1.44,.54-2.79,1.02-4.14,.17-.45,.73-.87,.04-1.75-1.74,3.85-2.56,7.55-1.39,11.53,.14,.5,.67,1.02,.13,1.47-.41,.34-.89-.08-1.31-.28-3.19-1.48-4.56-4.27-4.14-8,.62-5.47,3.11-10.09,8.95-12.12,4.24-1.47,8.24-3.69,10.88-7.39,4.17-5.84,7.8-12.03,10.88-18.53,.33-.7,.61-1.5-.21-2.03-1.2-.77-2.18-1.85-3.64-2.24-4.44-1.19-8.68-2.9-12.78-4.97-.51-.26-1.38-.31-1.29-1.09,.09-.76,.95-.68,1.51-.79,3.34-.63,6.33-2.16,9.37-3.54,.41-.19,1-.35,.8-.99-.14-.43-.61-.47-1.03-.52-.81-.11-1.63-.2-2.43-.38-.51-.11-1.21-.17-1.26-.83-.04-.69,.67-.74,1.16-.95,2.21-.92,4.42-1.83,6.6-2.81,.59-.26,1.78-.64,.74-1.48-1.14-.91-.38-1.14,.25-1.56,1.25-.83,2.54-1.61,3.75-2.5,.62-.46,1.04-1.11-.18-1.4-.44-.1-1.06,.13-1.09-.59-.02-.57,.47-.83,.9-1.02,3.94-1.71,6.51-4.92,8.98-8.2,.91-1.21,1.63-1.25,2.61-.19,.84,.9,1.72,1.76,2.6,2.62,5.72,5.6,11.89,10.73,17.52,16.43Zm4.21-30.04c-.64,4.67-1.22,9.35-1.96,14-.63,3.99-3.78,6.17-6.56,8.59-.49,.43-.99,.34-1.46-.08-3.25-2.92-6.5-5.84-9.75-8.76-.79-.71-1.08-1.39,.03-2.11,4.54-2.93,8.19-7.05,12.97-9.64,1.86-1.01,3.73-2,5.62-2.96,1.02-.52,1.39-.07,1.11,.96Zm85.42,1.98c2.21,2.03,4.57,3.91,6.92,5.78,1.2,.96,1.76,2.17,2.08,3.64,.69,3.09-.55,5.83-1.57,8.54-5.04,13.39-11.26,26.24-17.87,38.91-1.27,2.43-2.54,5.06-5.17,6.49-2.4,1.3-4.84,2.51-7.35,3.61-1.62,.7-2.35,.1-3.03-1.28-1.92-3.88-.48-7.29,1.33-10.67,.35-.66,1.1-1.14,1.02-2.26-3.99,3.73-4.63,8.11-3.45,12.93,.16,.67,.6,1.26-.27,1.76-2.41,1.41-8.95,1.03-10.76-1.01-2.62-2.94-4.34-6.32-3.18-10.51,.16-.59,.69-1.17,.32-2.02-2.13,3.23-2.39,6.39-.45,9.68,.27,.47,.99,1.08,.22,1.57-.51,.33-.96-.31-1.35-.67-4.95-4.58-4.52-13.33,1.12-17.19,6.55-4.48,11.3-10.21,13.81-17.77,.51-1.54,1.11-3.02,1.96-4.46,2.39-4.04,1.33-6.61-3.03-8.16-.13-.05-.27-.06-.4-.11-7.97-3.05-16.49-2.92-24.75-4.31-3.09-.52-6.39-.07-9.29-1.35-4.64-2.05-8.89-4.63-11.87-9.08-3.28-4.88-6.93-9.48-8.2-15.42-.24-1.16-.93-2.21-1.42-3.32,.27,2.36,.86,4.57,1.51,6.77,.34,1.17,1.23,2.4,1.05,3.46-.26,1.47-2.14,.94-3.24,1.5-6,3.05-11.83,6.31-16.72,11.03-1.25,1.22-2.74,2.02-4.41,2.52-1.45,.43-2.48-.4-3.15-1.39-.64-.94,.61-1.35,1.13-1.88,2.39-2.44,4.83-4.84,7.25-7.26,.1-.09,.22-.2,.28-.32,.39-.07,.62-.66,.18-.92-.66-.39-1.38-.64-2.14-.74,.39-.15,.78-.31,1.19-.47-.89-.49-1.22-1.05-.7-1.86,2.37-3.67,3.86-7.8,6.04-11.57,.26-.45,.88-.95,.48-1.44-.23-.28-.48-.28-.74-.19-.02,0-.03-.01-.04-.01-.63-.03-1.15,.32-1.65,.64-.12,.08-.24,.16-.37,.22-.06,.04-.13,.07-.2,.1-.03,.02-.06,.03-.1,.05,0,0-.02,.01-.03,.01s-.02,.01-.02,.01c-.09,.04-.19,.05-.28,.09-.7-.02-1-.4-.59-1.77,.36-1.21,.8-2.31,1.54-3.27,2.56-3.39,3.32-6.96,1.34-10.89-.95-1.89-.6-3.87-.35-5.83,.58-4.59,.66-9.05-1.44-13.44-1.27-2.65-2.3-5.45-1.94-8.66,.53-4.86,1.36-9.73,.9-14.67-.04-.45,.34-1.04-.22-1.29-.54-.24-.82,.35-1.12,.69-.09,.11-.22,.22-.32,.34-.02,.01-.04,.02-.06,.04-1.13,.9-2.12,1.97-2.96,3.14-.15,.06-.32,.08-.53,.01-1.12-.33-.31-1.24-.3-1.9,.01-.36-.05-.72-.46-.79-.24-.03-.39,.08-.5,.24-.16-.01-.32,.05-.43,.24-.6,1.07-1.03,2.23-1.32,3.42-.41-1.22-.53-2.45-.92-3.66-1.38-4.28-.73-8.11,2.43-11.43,.46-.49,.73-1.14,1.45-1.38,5.56-1.9,11.11-2.78,17.08-1.73,7.38,1.29,14.11,4.15,20.94,6.94,6.14,2.5,11.74,5.81,16.99,9.81,3.9,2.98,6.99,6.74,10.13,10.44,4.74,5.57,9.26,11.29,12.47,17.97,4.23,8.8,7.71,17.95,12.94,26.27,4.34,6.9,8.49,13.91,14.56,19.49Z"/>
      <path class="cls-3" d="M20.63,170.66c-.1,.45-.31,.89-.53,1.32-.16,.12-.34,.22-.56,.24-.73,.07-.8-.7-.89-1.18-.27-1.46-.83-2.9-.55-4.43,.15-.78,.27-2.06,1.06-2,.26,.02,.48,.01,.66-.01,.17,1.24,.51,2.46,.68,3.69,.1,.74,.28,1.63,.13,2.37Z"/>
      <path class="cls-3" d="M284.93,235c-5.04,13.39-11.26,26.24-17.87,38.91-1.27,2.43-2.54,5.06-5.17,6.49-2.4,1.3-4.84,2.51-7.35,3.61-1.62,.7-2.35,.1-3.03-1.28-1.92-3.88-.48-7.29,1.33-10.67,.35-.66,1.1-1.14,1.02-2.26-3.99,3.73-4.63,8.11-3.45,12.93,.16,.67,.6,1.26-.27,1.76-2.41,1.41-8.95,1.03-10.76-1.01-2.62-2.94-4.34-6.32-3.18-10.51,.16-.59,.69-1.17,.32-2.02-2.13,3.23-2.39,6.39-.45,9.68,.27,.47,.99,1.08,.22,1.57-.51,.33-.96-.31-1.35-.67-4.95-4.58-4.52-13.33,1.12-17.19,6.55-4.48,11.3-10.21,13.81-17.77,.51-1.54,1.11-3.02,1.96-4.46,2.39-4.04,1.33-6.61-3.03-8.16-.13-.05-.27-.06-.4-.11-7.97-3.05-16.49-2.92-24.75-4.31-3.09-.52-6.39-.07-9.29-1.35-4.64-2.05-8.89-4.63-11.87-9.08-3.28-4.88-6.93-9.48-8.2-15.42-.24-1.16-.93-2.21-1.42-3.32,.27,2.36,.86,4.57,1.51,6.77,.34,1.17,1.23,2.4,1.05,3.46-.26,1.47-2.14,.94-3.24,1.5-6,3.05-11.83,6.31-16.72,11.03-1.25,1.22-2.74,2.02-4.41,2.52-1.45,.43-2.48-.4-3.15-1.39-.64-.94,.61-1.35,1.13-1.88,2.39-2.44,4.83-4.84,7.25-7.26,.1-.09,.22-.2,.28-.32,.39-.07,.62-.66,.18-.92-.66-.39-1.38-.64-2.14-.74,.39-.15,.78-.31,1.19-.47-.89-.49-1.22-1.05-.7-1.86,2.37-3.67,3.86-7.8,6.04-11.57,.26-.45,.88-.95,.48-1.44-.23-.28-.48-.28-.74-.19-.02,0-.03-.01-.04-.01-.63-.03-1.15,.32-1.65,.64-.12,.08-.24,.16-.37,.22-.06,.04-.13,.07-.2,.1-.03,.02-.06,.03-.1,.05,0,0-.02,.01-.03,.01s-.02,.01-.02,.01c-.09,.04-.19,.05-.28,.09-.7-.02-1-.4-.59-1.77,.36-1.21,.8-2.31,1.54-3.27,2.56-3.39,3.32-6.96,1.34-10.89-.95-1.89-.6-3.87-.35-5.83,.58-4.59,.66-9.05-1.44-13.44-1.27-2.65-2.3-5.45-1.94-8.66,.53-4.86,1.36-9.73,.9-14.67-.04-.45,.34-1.04-.22-1.29-.54-.24-.82,.35-1.12,.69-.09,.11-.22,.22-.32,.34-.02,.01-.04,.02-.06,.04-1.13,.9-2.12,1.97-2.96,3.14-.15,.06-.32,.08-.53,.01-1.12-.33-.31-1.24-.3-1.9,.01-.36-.05-.72-.46-.79-.24-.03-.39,.08-.5,.24-.16-.01-.32,.05-.43,.24-.6,1.07-1.03,2.23-1.32,3.42-.41-1.22-.53-2.45-.92-3.66-1.38-4.28-.73-8.11,2.43-11.43,.46-.49,.73-1.14,1.45-1.38,5.56-1.9,11.11-2.78,17.08-1.73,7.38,1.29,14.11,4.15,20.94,6.94,6.14,2.5,11.74,5.81,16.99,9.81,3.9,2.98,6.99,6.74,10.13,10.44,4.74,5.57,9.26,11.29,12.47,17.97,4.23,8.8,7.71,17.95,12.94,26.27,4.34,6.9,8.49,13.91,14.56,19.49,2.21,2.03,4.57,3.91,6.92,5.78,1.2,.96,1.76,2.17,2.08,3.64,.69,3.09-.55,5.83-1.57,8.54Z"/>
      <path class="cls-6" d="M192.08,215.06c-.64,4.67-1.22,9.35-1.96,14-.63,3.99-3.78,6.17-6.56,8.59-.49,.43-.99,.34-1.46-.08-3.25-2.92-6.5-5.84-9.75-8.76-.79-.71-1.08-1.39,.03-2.11,4.54-2.93,8.19-7.05,12.97-9.64,1.86-1.01,3.73-2,5.62-2.96,1.02-.52,1.39-.07,1.11,.96Z"/>
      <path class="cls-3" d="M77.26,256.88c-2.29,1.72-4.47,3.58-6.79,5.27-8.45,6.15-16.81,12.43-25,18.93-2.67,2.13-5.17,4.5-7.98,6.41-5.37,3.65-11.36,5.01-17.87,4.46-4.17-.35-5.5-2.06-4.5-6.13,.47-1.93,1.67-3.43,2.82-5.43-3.47,2.04-5.08,6.67-3.71,9.8,.21,.46,.46,.88,.14,1.33-.4,.54-.96,.32-1.51,.25-1.91-.28-3.61-1.21-5.41-1.8-4.34-1.4-4.52-5.78-2.55-8.79,.57-.88,1.23-1.69,2.19-3.01-2.16,1.25-3.4,2.54-4.21,4.24-.22,.46-.29,1.22-1.02,1.05-.7-.17-.85-.82-.77-1.49,.71-5.94,3.85-10.1,9.53-11.82,7.49-2.27,14.35-5.55,20.37-10.61,6.44-5.4,11.68-11.88,16.88-18.4,.44-.55,.94-1.39,1.54-.49,1.61,2.42,4.02,2.23,6.35,2.33,.53,.14,1.03,.35,1.5,.62,.27,.17,.52,.35,.78,.52,.17,.14,.34,.29,.5,.45,.07,.07,.15,.1,.23,.12,.07,.07,.15,.12,.21,.19,1.17,1.11,2.81,1.98,2.07,4.2-.3,.88,.75,1.31,1.64,1.39,1.65,.16,3.26-.1,4.89-.31,1.79-.23,3.02,.85,3.07,2.65,.03,1.3-.06,2.6,.02,3.89,.04,.83-.42,2.12,.56,2.35,.91,.22,1.25-.8,1.68-1.55,.5-.5,.98-1.03,1.42-1.59,.06-.08,.13-.17,.19-.26,.35-.3,.64-.67,.95-1.02,.8-.86,1.34-.19,1.84,.38,.54,.61,.85,1.19-.05,1.87Z"/>
      <path class="cls-3" d="M192.23,253.87c-.15,3.46,.26,6.97-1.13,10.26-2.12,5.05-4.91,9.75-7.92,14.32-4.48,6.8-9.14,13.49-14.59,19.53-4.57,5.06-8.76,10.57-14.86,14.02-.02,.01-.03,.02-.04,.03-.61,.3-1.24,.53-1.91,.71-.96,.25-1.92,.47-2.88,.69-2.9,.36-4.48-1.14-4.71-4.18-.25-3.24,.13-6.34,1.23-9.38-2.12,3.36-2.98,7-1.99,10.86,.69,2.68,.85,2.64-1.86,2.79-.28,.02-.55,.07-.82,.05-8.17-.52-10.67-2.19-10.82-10.23-.03-1.44,.54-2.79,1.02-4.14,.17-.45,.73-.87,.04-1.75-1.74,3.85-2.56,7.55-1.39,11.53,.14,.5,.67,1.02,.13,1.47-.41,.34-.89-.08-1.31-.28-3.19-1.48-4.56-4.27-4.14-8,.62-5.47,3.11-10.09,8.95-12.12,4.24-1.47,8.24-3.69,10.88-7.39,4.17-5.84,7.8-12.03,10.88-18.53,.33-.7,.61-1.5-.21-2.03-1.2-.77-2.18-1.85-3.64-2.24-4.44-1.19-8.68-2.9-12.78-4.97-.51-.26-1.38-.31-1.29-1.09,.09-.76,.95-.68,1.51-.79,3.34-.63,6.33-2.16,9.37-3.54,.41-.19,1-.35,.8-.99-.14-.43-.61-.47-1.03-.52-.81-.11-1.63-.2-2.43-.38-.51-.11-1.21-.17-1.26-.83-.04-.69,.67-.74,1.16-.95,2.21-.92,4.42-1.83,6.6-2.81,.59-.26,1.78-.64,.74-1.48-1.14-.91-.38-1.14,.25-1.56,1.25-.83,2.54-1.61,3.75-2.5,.62-.46,1.04-1.11-.18-1.4-.44-.1-1.06,.13-1.09-.59-.02-.57,.47-.83,.9-1.02,3.94-1.71,6.51-4.92,8.98-8.2,.91-1.21,1.63-1.25,2.61-.19,.84,.9,1.72,1.76,2.6,2.62,5.72,5.6,11.89,10.73,17.52,16.43,2.47,2.5,4.52,4.92,4.36,8.77Z"/>
      <path class="cls-5" d="M51.43,208.41c-.22,.34-.48,.51-.77,.58-.45-.1-.93-.37-1.3-.52-.62-.25-1.25-.5-1.88-.76-.34-.13-.69-.26-1.03-.42-.22-.15-.45-.28-.67-.42-.44-.35-.81-.75-1.28-1.06-.06-.04-.13-.07-.2-.08-.44-.39-.84-.83-1.04-1.42-.17-.5-.6-1.03-.13-1.57,.75-.04,1.51-.07,2.25,.04,.95,.14,1.78,.54,2.57,1.05,.79,.5,1.54,1.05,2.23,1.68,.05,.04,.09,.09,.14,.13,.2,.27,.4,.55,.61,.81,.48,.59,.99,1.17,.5,1.96Z"/>
      <path class="cls-1" d="M180.06,198.87c.35,.26,.34,.69-.19,1.27-1.77,1.89-2.4,4.4-3.68,6.54-1.72,2.88-2.29,6.95-6.81,7.23-.05,0-.08,.2-.14,.35,.94,.09,1.82-.01,2.7-.23,.08,.06,.17,.11,.29,.11,.74,0,1.47-.12,2.2-.03,.51,.05,.99,.21,1.45,.43-.54,.39-1.09,.78-1.64,1.18-2.74,1.98-4.21,5.25-7.07,7.08-2.29,1.47-3.95,3.55-5.77,5.49-1.07,1.14-1.51,2.82-2.93,3.64-2.45,1.42-4.65,3.28-7.93,4.45,1.31,0,2.04-.02,2.76,.01,.57,.02,1.38-.31,1.56,.53,.18,.81-.56,1.14-1.15,1.49-1.46,.87-3.41,1.28-3.26,3.63,.02,.17-.29,.45-.51,.53-3.6,1.4-6.8,3.74-10.81,4.53,1.38,1.21,2.98,.54,4.39,.85,.75,.17,1.87-.21,2.03,.9,.13,.99-.93,1-1.58,1.27-3.92,1.6-7.92,2.91-12.18,3.23-.55,.04-1.06,.13-1.34,.61-2.06,1.16-4.17,2.21-6.33,3.16-1.36,.44-2.69,1-4.06,1.41-2.54,.75-5.03,1.71-7.78,1.37-2.54-.31-5.09-.54-7.63-.8,1.55,1.27,3.33,1.16,5.09,1.16,.65,0,1.27,.03,1.4,.85,.1,.72-.52,.85-.96,1.16-3.03,2.13-6.71,2.04-10.1,2.95-.62,.16-1.18-.1-1.72-.47-3.19-2.24-6.97-3.41-10.18-5.64-.82-.57-2.09-1.7-2.83-1.04-.3,.27-.22,.57,0,.89,0,.07,.02,.14,.07,.21,.41,.7,.74,1.45,.96,2.23,.09,.34,.16,.69,.22,1.04-.06,.06-.14,.13-.24,.19-.76,.44-1.16-.45-1.67-.86-3.48-2.8-6.06-6.36-8.51-10.43-.54,.95-1.04,1.82-1.52,2.65-.12,.1-.24,.2-.35,.32-.27,.31-.5,.67-.76,1-.42,.54-.89,1.04-1.37,1.52-.44,.03-.69-.31-.65-1.31,.12-2.86-.06-5.72,.23-8.6,.14-1.35,.96-2.75,.21-4.18-.4,1.6-.62,3.23-.88,4.85-.16,.94-.53,1.71-1.66,1.76-1.56,.08-3.12,.22-4.69,.22-1.41,0-3.44,.48-2.3-2.24,.07-.17-.11-.54-.29-.71-1.02-.99-1.92-2.2-3.1-2.95-1.52-1.38-3.6-2.11-5.65-1.9-.04,.01-.07,.02-.1,.03-.17-.05-.33-.09-.49-.14-2.76-.8-3.53-3.64-5.43-5.33,1.01-1.95-.93-1.76-1.74-2.34-1.22-.88-2.5-1.66-3.76-2.47-.87-.56-1.56-1.23-2.04-2.02,0-.01,.01-.02,.01-.03-.15-1.11-.38-2.25-.38-3.37,.01-1.02,.3-2,.82-2.87,.39,.49,.74,1.03,1.33,1.34-.23-.47-.46-.95-.7-1.42-2.11-4.18-4.74-8.11-6.35-12.55-.2-.56-.62-1.09-.39-1.67,.02,.01,.05,.02,.07,.02,.58-.05,1.09,.28,1.59,.58,.35,.21,.7,.43,1.05,.64,.97,.71,1.78,1.3,2.78,2.03-.94-2.74-1.44-5.19-2.52-7.47-.39-.82-.71-1.73,.46-2.25,1.24-.54,4.16,.55,4.71,1.89,.39,.93,.93,1.63,1.58,2.19,.03,.04,.06,.08,.11,.12,.52,.35,.94,.84,1.46,1.19,.56,.39,1.25,.61,1.88,.86,.7,.28,1.39,.56,2.08,.84,.44,.18,.86,.35,1.3,.41,1.98,.65,4.01,1.08,6.1,1.46,6.79,1.25,13.58,.89,20.17-.41,12.89-2.53,23.19-9.86,31.59-19.63,9.05-10.53,12.58-22.89,10.31-36.73-.31-1.85,.44-3.11,2.28-3.18,4.26-.16,8.35-1.36,12.55-1.8,5.56-.59,11.02-1.56,16.4-3.17,6.11-1.83,11-5.26,15.14-9.95,.37-.43,.7-.96,1.32-.78,.67,.19,.55,.85,.55,1.38,.03,4.54,2.18,8.73,2.1,13.32,.44-1.5,1.23-3.31,.91-4.49,.1-.84,.28-1.66,.55-2.46,.26,.35,.79,.49,1.17,.75,.42,.29,.69,.25,.89,.07,.25,.13,.53,.04,.67-.18,.82-1.24,1.82-2.34,2.96-3.3,.55,.38,.32,1.03,.37,1.59,.19,2.4-.38,4.75-.51,7.13-.29,5.44-.57,10.87-.85,16.31,.17,.01,.35,.01,.52,.02,0-1.19-.01-2.38,0-3.57,.01-.38-.13-.89,.38-1.05,.6-.2,.95,.28,1.04,.72,.53,2.46,1.86,4.7,1.91,7.29,.1,4.39-.25,8.76-.46,13.13-.05,1.02-1.41,2.74,1.1,2.88,.09,.01,.14,.49,.25,.74,.68,1.69,.61,3.24-.44,4.84-1.28,1.92-2.36,3.98-3.54,5.98-.23,.39-.69,.69-.33,1.26,.62,.97-.17,1.48-.71,2.08-.39,.44-1.19,.62-1.09,1.92,1.23-1.09,2.69-1.5,3.84-2.3,.6-.13,1.18-.36,1.69-.67,.17-.1,.34-.21,.5-.31Z"/>
      <path class="cls-3" d="M206.39,58.71c-1.09,.23-2.11,.86-3.03,1.5-.05,.04-.1,.05-.15,.06-3.15,1.52-6.22,3.22-9.11,5.22-.34,.23-.79,.74-1.24,.22-.33-.37,.06-.74,.2-1.11,.39-1.02,.76-2.05,1.08-3.09,.14-.46,.16-1-.35-1.28-.44-.25-.76,.11-1.05,.4-7.11,7.16-16.01,11.49-24.99,15.63-9.73,4.49-19.63,8.62-28.92,14-.16,.09-.36,.1-.76,.2,.55-1.49,1.01-2.86,1.56-4.19,.05-.11,.09-.22,.13-.33,.04-.27,.03-.53-.05-.79-.04-.06-.07-.12-.13-.17-.44-.37-.95-.16-1.28,.22-1.5,1.72-3.49,2.83-5.23,4.27-1.02,.85-1.44,2.09-2.18,3.18-.05-1.52,.67-2.79,1.25-4.09,.2-1.44,.4-2.88,.6-4.32-.08-.03-.16-.06-.25-.1-.56-.27-.97,.39-1.26,.84-4.27,6.61-10.13,11.82-15.42,17.52-8.4,9.03-16.56,18.24-23.48,28.47-1.71,2.51-2.46,5.45-3.15,8.38-.14,.58-.21,1.18-.72,1.6-.68-.39-.47-.9-.23-1.26,.82-1.22,.67-1.67,.06-1.76-1.17,1.84-2.34,3.7-3.81,5.32-1.67,1.85-3.66,3.39-5.85,4.57-.01,0-.03,0-.05,.02-2.25,1.6-3.45,3.91-5.19,5.7-3.8,3.92-8,7.25-13.2,9.14-1.23,.55-2.47,1.05-3.78,1.36-2.58,.62-5.25,.66-7.87,.29-.08-.02-.15-.05-.21-.09-4.42-.14-8.75-.59-12.93-2.49-5.47-2.49-9.03-6.71-11.89-11.72-.26-.47-.33-1.18-1.02-1.08-.66,.11-.62,.82-.76,1.33-1.09,4-1.21,8.09-1.19,12.21,0,.25,.06,.54,.09,.82,.05,.07,.09,.16,.1,.27,.05,1.72,.62,3.4,.82,5.11,.09,.81,.23,1.68-.02,2.47-.13,.39-.3,.77-.48,1.14-.14,.74-.28,1.48-.54,2.18-1.4,3.63-2.34,7.32-1.98,11.22,1.18,2.71,2.57,5.32,4.16,7.81,.03,.05,.05,.1,.06,.15,4.05,4.55,8.78,7.71,15.2,7.73,1.62,0,3.25,.16,4.87,.37,1-.06,2.01-.09,3,.09,1.02,.18,1.93,.65,2.78,1.21,.87,.57,1.72,1.2,2.48,1.92,.69,.66,1.36,1.42,1.53,2.39,.03,.15-.01,.28-.08,.39,.03,.3,.04,.63-.02,1.01-.14,.9,.6,1.05,1.25,1.32,2.58,1.04,5.32,1.31,8.02,1.27,4.97-.06,9.94-.13,14.88-1.15,7.16-1.48,13.65-4.38,19.48-8.69,7.78-5.76,14.5-12.5,18.6-21.48,1.23-2.69,2.17-5.43,2.65-8.36,.99-6.1,1.62-12.19,.35-18.34-.21-1.04-.65-1.33-1.64-1.34-1.78-.02-3.54,.03-5.31,.25-1.07,.13-2.17,.14-3.58-.28,1.64-.81,3.15-.59,4.54-.62,6.64-.12,13.16-1.26,19.73-2.05,6.39-.77,12.68-1.88,18.85-3.72,5.47-1.63,9.9-4.82,13.76-8.93,5.22-5.55,8.71-12.2,12.15-18.9,4.43-8.61,8.62-17.35,12.97-26,3.67-7.32,6.75-14.94,10.87-22.02,1.16-1.98,2.19-4.06,3.43-6.01,0-.02,0-.04,.01-.05,.2-.52,.52-.99,.82-1.46,.3-.47,.62-.94,.94-1.41,.44-.65,.88-1.3,1.31-1.96-.07-.05-.13-.1-.2-.13ZM29.02,191.84c-1.57,1.82-4.18,2.15-5.98,.43-1.09-1.05-2.26-2.17-2.54-3.89,.81,.48,2.95-.42,1.88,2.04-.37,.86,1.04,1.23,1.8,1.59,.42,.19,1.04,.19,1.25-.36,.43-1.13-.83-1.22-1.35-1.99,1.49,.36,2.88,.34,4.26,.46,1.1,.09,1.65,.59,.68,1.72Zm39.29-1.02c-5.98,1.06-11.53-1.05-15.71-6.08-1.59-1.9-1.61-3.21-.43-5.24,2.93-5.06,6.14-9.8,12.01-11.72,5.77-1.89,11.78-2.21,17.82-1.92,1.21,.06,1.88,.81,2.09,1.91,.21,1.07,.25,2.16,.32,2.81-.48,11.86-5.4,18.35-16.1,20.24Zm114.28-98.67c-5.81,11.95-12.47,23.39-20.7,33.86-5.29,6.73-12.14,11.09-20.32,13.52-6.02,1.78-12.06,3.63-18.25,4.54-6.18,.9-12.12,2.77-18.28,3.63-.44,.06-.96,.49-1.31-.06-.33-.52,.2-.86,.42-1.26,1.89-3.57,4.89-6.4,6.62-10.07,.16-.36,.6-.69,.32-1.08-.37-.51-.85-.23-1.28,.01-3.57,2.02-7.16,3.99-10.69,6.07-1.61,.95-3.38,1.79-4.21,3.79,.03-1.88,.18-3.82,1.25-5.13,2.71-3.3,4.51-7.15,6.83-10.68,3.79-5.79,8.55-10.65,13.65-15.23,3-2.69,6.17-5.19,9.25-7.79,2.26-1.92,4.87-3.29,7.48-4.62,12.84-6.55,25.79-12.86,39.22-18.16,5.97-2.35,11.72-5.22,17.6-7.87-2.26,5.66-4.95,11.09-7.6,16.53Z"/>
      <path class="cls-2" d="M76.22,185.88c-3.37,4.28-11.7,5.46-16.11,2.27-2.29-1.65-2.32-4.23,.04-5.98,3-2.22,6.4-3.34,10.45-3.3,1.83-.1,3.8,.24,5.36,1.86,1.55,1.63,1.65,3.38,.26,5.15Z"/>
      <path class="cls-4" d="M81.83,172.23c.01,3.19-2.45,6.4-4.88,6.36-2.33-.05-4.16-2.41-4.18-5.41-.02-3.14,2.36-5.95,5.02-5.93,2.34,.02,4.04,2.11,4.04,4.98Z"/>
      <path class="cls-2" d="M177.14,98.46c-.75,1.62-1.77,3.08-2.84,4.5-.92,1.2-1.79,2.37-1.65,4.06,.05,.67-.41,1.44-.79,2.07-4.16,6.84-8.14,13.79-14.04,19.4-3.45,3.28-7.15,6.04-11.61,7.9-6.03,2.51-12.24,4.31-18.6,5.69-.62,.14-1.28,.52-1.98-.19,.73-.92,1.91-1.03,2.78-1.62,.62-.41,1.02-.68,1.06-1.68,.07-1.58-.12-2.28-2.48-1.42,2.17-1.85,3.95-3.02,4.99-5.01-3.3,1.12-6.4,2.72-9.89,3.44,1.17-1.73,2.93-2.91,4.11-4.62,.59-.85,1.23-1.66,1.41-2.69,.39-2.21,1.69-3.82,3.21-5.36,7.27-7.32,16.01-12.32,25.47-16.18,1.16-.47,2.48-1.5,3.51,.35,.2,.36,.76,.16,1.16,.05,4.57-1.35,8.93-3.03,12.08-6.91,.81-1,1.81-1.85,2.76-2.74,.39-.36,.87-.91,1.41-.53,.57,.4,.15,1.01-.07,1.49Z"/>
      <path class="cls-3" d="M114.2,102.75c-5.27,5.47-10.26,11.19-14.97,17.14-1.69,2.14-3.2,4.42-4.8,6.63-.34,.47-.64,1.29-1.37,.91-.56-.29-.24-1.04-.08-1.51,2.23-6.36,2.55-12.96,2.39-19.6-.04-1.45,.48-2.22,1.71-2.89,2.1-1.13,4.09-2.46,6.1-3.73,.5-.32,.98-1.03,1.57-.51,.54,.48,.05,1.15-.21,1.69-.79,1.62-1.19,3.51-3,4.53,.25-.04,.55,0,.75-.12,3.38-2.21,7.37-2.69,11.09-3.92,.46-.15,.96-.46,1.26,.11,.25,.49-.1,.92-.44,1.27Z"/>
      <path class="cls-1" d="M94.83,109.09c-.55,5.99-.96,12.03-2.85,17.9-1.27,3.93-2.62,7.69-5.02,11.04h-.01v.02c-.77,1.14-1.54,2.29-2.31,3.44-.28,.36-.56,.72-.87,1.06-1.52,1.67-3.3,3.07-5.27,4.19-.36-.27-.38-.68,.01-1.32,1.95-3.21,1.24-6.76,1.2-10.21-.01-.64-.24-1.35-.93-1.73-.06,.13-.17,.24-.15,.34,.04,.4,.13,.8,.19,1.2,.45,3.21,.38,6.4-.72,9.48-1.75,4.92-5.18,8.6-9.1,11.86-1.66,1.37-3.42,2.59-5.25,3.68-.09-.01-.17,0-.26,.03-2.37,1.01-4.63,2.33-7.13,2.96-2.46,.61-5.04,.69-7.55,.33-.16-.02-.3,.03-.4,.11-1.77-.12-3.5-.28-5.24-.49-7.75-.91-13.76-4.45-17.53-11.2-2.92-5.22-4.43-10.79-3.54-17.03,.82-5.73,2.11-11.32,4.75-16.35,4.05-7.7,11.03-11.99,19.23-14.46,5.55-1.67,11.35-2.22,16.89-3.94,4.95-1.54,9.81-3.1,13.38-7.33,2.89-3.42,3.56-7.12,2.98-11.15,0-.03,.01-.05,.01-.09-.02-1.14-.14-2.27-.32-3.4,.71-.17,1.19,.68,1.48,1.27,.77,1.53,1.39,3.12,2.07,4.7,.61-.32,.42-.72,.33-1.11-.55-2.49-1.74-4.56-3.81-6.11-.37-.27-.85-.67-.54-1.18,.28-.45,.71-.11,1.07,.08,4.99,2.54,8.55,6.42,10.9,11.48,1.71,3.7,2.42,7.66,3.16,11.59,.64,3.41,1.46,6.95,1.15,10.34Z"/>
      <path class="cls-3" d="M109.94,9.91c-.08,.42-.21,.84-.31,1.24-.16,.62-.32,1.25-.48,1.87-.07,.26-.13,.52-.18,.79-1.17,6.16-2.72,12.24-4.23,18.33-2.46,9.95-5.18,19.84-7.05,29.92-1.31,7.07-3.92,13.62-7.18,19.97-.72,1.4-1.26,.87-1.86-.02-2.18-3.21-5.15-5.44-8.65-7.04-1.48-.67-3.03-.71-4.98-.78,1.16,1.3,2.48,2.15,2.95,3.52,.08,.45,.14,.9,.19,1.35,.1,1.67,.19,3.34,.26,5,.17,3.66-1.27,6.6-3.86,9.13-2.78,2.72-6.17,4.21-9.76,5.42-4.74,1.6-9.62,2.64-14.49,3.67-2.01,.42-3.91,1.26-5.97,1.4-.72,.05-1.74,.28-1.36-1.03,.95-3.2,1.44-6.55,2.95-9.58,3.63-7.28,7.02-14.66,9.68-22.37,2.24-6.51,3.7-13.13,3.73-20.03,0-.4-.13-.89,.41-1.01,.49-.11,.77,.29,.91,.66,.25,.63,.41,1.3,.62,1.95,.47,1.42,.68,2.97,1.74,4.23,.72-.73,.53-1.5,.25-2.03-.86-1.61-.68-3.12,.01-4.7,.04-.09,.06-.18,.09-.27,.08-.06,.15-.14,.19-.25,.16-.54,.21-1.1,.31-1.65,.04-.24,.09-.47,.17-.7,.01,0,.05-.13,.05-.13,.02-.04,.04-.09,.06-.12,.01-.03,.03-.05,.04-.07,.88-.19,.77,.74,1.12,1.17,.88,1.06,.62,2.7,1.97,4-.03-1.78,.88-2.66,1.78-3.61,1.5-1.59,2.92-3.25,4.34-4.92,3.93-4.65,7.97-9.2,12.02-13.75,3.82-4.28,8.21-8.03,12.25-12.13,1.79-1.82,3.92-3.29,5.6-5.23h.01c.55-.32,1.01-.77,1.47-1.21,.21-.21,.43-.42,.66-.61,.02-.03,.05-.05,.08-.07t.02-.02h.01c.06-.05,.12-.09,.17-.13,.04-.02,.07-.03,.1-.05,.74,.62-.38,1.34-.71,2-.32,.64-1.09,1.36-.18,1.94,.78,.51,1.12-.48,1.61-.88,1.21-.96,1.57-2.96,3.43-3.17Z"/>
      <path d="M279.5,59.82h-.09l.03-.04s.04,.03,.06,.04Z"/>
      <path d="M29.02,191.84c-1.57,1.82-4.18,2.15-5.98,.43-1.09-1.05-2.26-2.17-2.54-3.89,.81,.48,2.95-.42,1.88,2.04-.37,.86,1.04,1.23,1.8,1.59,.42,.19,1.04,.19,1.25-.36,.43-1.13-.83-1.22-1.35-1.99,1.49,.36,2.88,.34,4.26,.46,1.1,.09,1.65,.59,.68,1.72Z"/>
      <path d="M86.96,138.03s-.01,.01-.01,.02v-.02h.01Z"/>
    </g>
  </g>
</svg>