<?xml version="1.0" encoding="UTF-8"?>
<svg id="Layer_2" data-name="Layer 2" xmlns="http://www.w3.org/2000/svg" viewBox="0 0 439.52 364.25">
  <defs>
    <style>
      .cls-1 {
        fill: #fff;
      }

      .cls-2 {
        fill: #b6e1de;
      }

      .cls-3 {
        fill: #32656d;
      }

      .cls-4 {
        fill: #403e3e;
      }

      .cls-5 {
        fill: #95b3af;
      }

      .cls-6 {
        fill: #51afc5;
      }
    </style>
  </defs>
  <g id="Layer_1-2" data-name="Layer 1">
    <g>
      <path class="cls-4" d="M253.28,130.05c-3.48-1.66-6.65-3.89-10.18-5.48-5.16-2.32-9.99-5.34-15.35-7.28-2.19-.79-4.3-1.56-6.7-1.5-2.94,.06-5.79,.58-8.69,.97-9.17,1.23-17.96,4.02-26.87,6.31-.78,.2-2.34,.07-2.34,1.43,0,.91,1.26,.84,1.9,1.29,.61,.42,1.18,.94,1.85,1.24,6.43,2.9,12.8,5.96,19.35,8.57,4.01,1.59,7.99,3.4,12.58,3.3,9.82-.22,19.06-3.07,28.33-5.85,2.48-.75,4.86-1.71,8.01-1.18-.71-1.02-1.16-1.47-1.89-1.82Zm-4.38,1.48c-9.46,2.44-18.97,4.68-28.54,6.61-2.36,.48-4.37-.79-6.52-1.46-5.27-1.65-10.37-3.72-15.41-5.97-4.21-1.1-7.84-3.51-11.71-5.36-.87-.42-1.01-1.31,.46-1.22,.27,1.6,1.77,1.21,2.92,2.14q-.78-1.82-1.92-2.65c4.79-1.18,9.55-2.54,14.39-3.5,5.22-1.03,10.34-2.69,15.74-2.7,2.51-.87,4.87-.36,7.31,.52,8.24,2.98,15.79,7.38,23.59,11.27,.55,.28,1.19,.48,1.13,1.16-.06,.77-.89,1.02-1.44,1.16Z"/>
      <path class="cls-4" d="M336.01,178.05c.06,1.54-3.37,4.09-4.76,3.56-.22-.08-.4-.3-.6-.44-.53-.38-.5-.97-.2-1.33,1.06-1.26,2.1-2.58,3.89-2.85,.63-.09,1.16,.08,1.52,.64,.08,.13,.11,.3,.15,.42Z"/>
      <path class="cls-4" d="M306.87,138.76c-2.74-5.36-4.08-11.16-5.62-16.9,2.95,5.29,4.26,11.1,5.62,16.9Z"/>
      <path class="cls-4" d="M308.14,140.71c-.07,.05-.14,.1-.2,.16-.39-.09-.93-.06-.85-.64,.04-.25,.41-.44,.63-.67,.14,.39,.28,.77,.42,1.15Z"/>
      <path class="cls-4" d="M328.46,75.43c-.03-3.21,.31-6.41-.27-9.64-.66-3.71-2.81-6.61-4.71-9.66-3.93-6.31-7.42-12.95-13.01-18.07-.43-.39-.72-1.33-1.47-.94-.25,.13-.4,.27-.48,.41-.06,.08-.1,.17-.09,.29,.11,1.9,.2,3.8,.29,5.69-.6,1.29-.07,2.7-.19,4.05,.11,.64,.29,1.28,.33,1.93,.25,4.19-.25,8.42,.62,12.57,.44,2.09,.4,4.23,1.11,6.31,1.88,5.42,4.41,10.56,6.55,15.87,1.76,4.38,3.75,8.67,5.63,13.01,.73,1.38,.77,3.18,2.71,4.34-.09,.09-.17,.21-.19,.29-.06,.48,.19,.81,.69,.76,.15-.02,.26-.33,.35-.45,0-.52-.3-.69-.63-.72-.05,0-.12,.04-.19,.1-.21-1.39-.47-2.49-.16-3.56,2.16-7.37,3.19-14.9,3.11-22.58Zm-3.76,20.05c-.15,.88-.28,1.49-1.31,1.4-2.78-7.9-5.99-15.61-9.32-23.28-1.11-2.57-2.57-5.1-2.46-8.07-.52-3.12-1.39-6.24-1.47-9.38-.03-1.26-.13-2.52-.25-3.77,.04-.07,.07-.14,.07-.24-.01-4.2-.21-8.39-.44-12.58,.05,.09,.11,.17,.2,.23,.22,.16,.43,.32,.65,.48,.11,.08,.22,.16,.33,.24,.05,.04,.1,.08,.15,.12,.01,0,.03,.02,.04,.02l.07,.06c.2,.16,.39,.34,.59,.51,.01,.05,.02,.09,.03,.15v.05c-.01,.08-.02,.15-.02,.22,0,.63,.45,.83,1.06,.88,4.13,4.53,7.01,9.9,10.33,14.98,3.24,4.95,4.6,10.04,4.43,16.06-.22,7.44-1.42,14.66-2.68,21.92Z"/>
      <path class="cls-4" d="M54.89,138.07s-.13,.11-.2,.11c-.5,0-.6-.4-.73-.77,.08-.05,.15-.11,.22-.17,.36,.17,.67,.39,.71,.83Z"/>
      <path class="cls-4" d="M435.42,206.98c-.53-2.06-1.54-4.03-3.01-5.56-3.13-3.22-6.39-6.27-10.18-8.77-2.44-1.61-4.91-3.33-7.07-5.18-3.44-2.96-7.2-5.45-10.98-7.72-11.47-6.89-23.26-13.26-34.91-19.85-7.22-4.08-14.75-7.65-21.17-13.04-4.99-4.21-4.86-4.15-2.67-10.24,1.97-5.48,3.23-11.14-1.44-15.99-2.69-2.8-5.4-5.65-8.83-7.61-1.61-.92-2.62-1.82-1.72-4.02,.98-2.41,1.45-5.04,2.09-7.59,2.42-9.55,4.19-19.2,4.91-29.05,.39-5.26,.53-10.28-2.25-15.25-4.59-8.21-9.04-16.46-14.37-24.24-5.17-7.54-11.33-14.16-17.6-20.69-4.29-4.48-9.49-7.89-14.55-11.44-2.2-1.54-4.46-.6-4.84,2.17-.51,3.6-.98,7.23-1.14,10.86-.6,13.78,.67,27.41,2.53,41.08,1.3,9.56,4.66,17.88,10.39,25.5,4.43,5.9,8.57,12.01,13.16,17.79,.34,.43,.96,.84,.58,1.53-.36,.66-1.03,.44-1.59,.45-1.9,.04-3.65-.79-5.5-1-11.53-1.28-22.8-.3-33.64,4.07-5.45,2.19-10.3,5.21-14.2,9.59-.6,.32-1.08,.87-1.56,1.35-.01,.01-.02,.02-.02,.03-.23,.01-.37,.19-.44,.46-.26,.26-.51,.53-.76,.8-.49,.11-1.06,0-1.75-.45-8.29-5.48-17.02-10.17-26.06-14.29-4.27-1.94-8.52-3.58-13.42-1.79-1.51,.56-3.23,.91-4.89,1.24-8.73,1.75-17.37,3.91-25.87,6.59-6.53,2.06-13.01,4.27-19.52,6.39-5.5,1.78-10.79,4.06-15.99,6.54-2.74,1.31-2.9,2.73-.61,4.59,7.39,6.02,15.21,11.37,23.95,15.27,8.39,3.74,16.76,7.56,25.23,11.13,0,0,.01,0,.01,.01h.01c3.47,1.46,6.95,2.89,10.46,4.24,2.42,.94,4.87,1.48,7.44,1.11,2.85-.4,5.73-.73,8.53-1.35,7.27-1.62,14.52-3.34,21.76-5.12,2.11-.52,3.39-.22,3.83,2.18,1.2,6.52,3.98,12.43,7.59,17.92,1.4,2.13,1.31,4.19,.36,6.27-2.11,4.65-5.02,8.84-8.22,12.79-5.97,7.37-13.73,12.2-22.62,15.38-10.47,3.75-21.2,5.99-32.36,5.66-5.84-.17-11.66-.59-17.5-.85-6.29-.27-12.29,.89-17.95,3.74-1.42,.71-2.78,1.51-4.46,1.76-6.21,.89-12.15-.82-18.11-1.89-6.2-1.11-11.72-4.27-17.46-6.8-11.42-5.02-21.48-12-30.03-20.98-7.84-8.24-13.82-17.88-17.95-28.45-3.2-8.18-6.93-15.58-13.97-21.34-6.52-5.32-12.99-10.71-20.17-15.03-9.43-5.66-19.22-10.75-29.73-14.23-3.79-1.26-4.8-.43-5.04,3.63-.84,13.79,2.67,26.94,5.64,40.18,1.61,7.21,4.56,14.03,6.23,21.2,2.02,8.63,6.77,14.91,14.31,19.46,7.84,4.74,15.69,9.39,24.09,13.12,14.18,6.3,28.45,12.18,43.9,14.91,10.04,1.78,20.1,3.2,30.23,4.18,6.09,.59,12.2,.55,18.32,.18,.55-.03,1.22-.3,1.64,.28,.29,.42-.12,.76-.35,1.11-1.55,2.32-3.17,4.6-4.61,6.99-2.65,4.38-4.89,8.96-5.76,14.05-.93,5.43-1.63,10.91-2.59,16.34-.85,4.8-1.26,9.73-3.41,14.22-4.63,9.67-10.46,18.6-17.22,26.91-1.44,1.76-2.24,3.55-1.83,5.82,.99,5.51,1.86,11.04,2.94,16.52,1.44,7.32,3.21,14.57,4.5,21.91,.95,5.39,3.22,9.62,7.77,12.84,4.83,3.41,9.93,5.24,15.91,4.63,2.84-.29,5.69-1.84,6.6-4.18,1.58-4.1,1.34-5.3-1.67-8.13-.44-.41-.93-.75-1.37-1.15-.43-.4-1.04-.85-.74-1.48,.35-.73,1.05-.29,1.58-.13,2.46,.77,5.01,.87,7.54,1.1,2.82,.26,4.95-1.13,6.49-3.29,1.44-2.02,.64-4.08-.6-5.93-.8-1.19-1.72-2.3-2.62-3.42-1.86-2.31-4.04-4.4-4.84-7.39-1.42-5.28-1.81-10.7-2-16.13-.06-1.66,.25-3.54,1.23-4.58,4.1-4.34,7.52-9.36,12.79-12.58,8.51-5.19,16.73-10.79,21.49-20.03,.65-1.27,1.6-1.58,2.94-1.36,2.44,.4,4.9,.48,7.36,.43,11.19-.22,21.72-3.56,32.24-6.85,6.02-1.89,12.1-3.29,18.42-3.55,1.24-.05,2,.45,2.05,1.7,.37,8.73,.66,17.43-2.79,25.79-2.09,5.08-3.97,10.25-3.41,15.99,.73,7.56,3.25,14.52,6.32,21.36,2.43,5.43,4.7,10.93,10.35,13.97,.2,.11,.37,.38,.44,.61,1.62,5.08,5.26,8.08,9.72,10.82,5.55,3.42,10.98,3.59,16.76,1.46,3.39-1.25,4.35-3.91,2.81-7.12-.77-1.62-1.89-3-3.02-4.38-3.48-4.27-5.55-9.02-5.53-14.68,.02-4.85,.11-9.69,.54-14.5,.78-8.91,.75-17.88,3.72-26.58,3.31-9.75,5.47-19.88,9.75-29.33,.73-1.63,1.18-3.46,1.47-5.34,.79-5.13,.78-10.31,1.44-15.44,.06-.49-.12-1.13,.48-1.31,.67-.19,.8,.44,.94,.92,.23,.78,.61,1.47,1.05,2.12,.43,.84,.96,1.62,1.56,2.35-.01,.24,.1,.37,.32,.38,.21,.24,.43,.47,.64,.7,3,4.91,6.69,9.33,10.32,13.75,1.91,2.33,4.2,4.82,7.55,5.34,10.3,1.58,20.55,3.52,30.97,4.09,2.78,.15,5.56,.76,8.37,.26,1.43-.26,2.6-1.03,2.14-2.46-.92-2.89-1.19-5.92-1.98-8.82-2.16-7.87-5.19-15.42-8.6-22.82-1.54-3.33-3.69-6.02-6.88-7.87-6.09-3.54-12.62-6.17-18.89-9.32-8.94-4.5-17.3-9.75-24.27-17-.44-.45-1.31-.72-1.01-1.58,.3-.85,1.14-.57,1.77-.62,2.94-.26,5.92,.19,8.86-.64,10.41-2.95,19.92-7.59,27.93-14.97,4.05-3.75,6.88-7.99,4.31-13.93-.76-1.74-.58-3.6,.59-5.34,.79-1.18,1.26-2.58,1.11-4.11-.17-1.91,.57-1.97,2.07-1.09,5.81,3.42,12.2,5.43,18.54,7.57,7.18,2.43,15.16,3.23,19.93,10.5,2.55,3.88,6.17,7.12,8.02,11.42,2.45,5.67,4.49,11.53,6.42,17.41,1.91,5.79,4.27,11.21,8.81,15.51,4.55,4.31,8.86,8.9,13.45,13.17,4.85,4.51,10.08,8.57,16,11.62,2.31,1.19,3.48,.55,3.59-2.06,.13-3.14-.02-6.29,.08-9.43,.32-9.12-1.81-17.87-4.07-26.58Zm-133.36-123.92c-3.33-4.24-6.14-8.87-9.03-13.44-1.93-3.06-2.22-6.54-2.78-9.89-1.12-6.65-1.95-13.35-2.57-20.07-.6-6.38-.57-12.81-.63-19.23-.05-5.9,.37-11.75,.99-17.6,.19-1.76,1.27-2.2,3.06-1.12,3.22,1.93,6.11,4.3,9,6.67,10.5,8.6,18.94,18.97,26.25,30.32,5.02,7.79,9.49,15.87,12.83,24.55,.55,1.44,.39,2.85,.34,4.25-.44,10.66-2.42,21.11-4.48,31.54-.69,3.54-2.08,6.91-2.7,10.49-.25,1.49-1.41,.63-2.28,.11-3.33-1.97-6.5-4.24-10.27-5.34-.15-.1-.3-.21-.45-.31-.33-.23-.66-.45-.99-.68-.63-.42-1.27-.84-1.92-1.24-.57-1.71-2.28-2.67-3.36-3.94-4.05-4.76-7.17-10.17-11.01-15.07Zm-45.53,31.82c.24-.24,.47-.48,.72-.71,.11-.11,.23-.22,.35-.32t.02-.01s.07-.05,.1-.08c.01,0,.02-.01,.03-.01,1.79-.83,2.79-2.8,4.38-3.88,7.3-4.94,15.13-8.17,23.92-9.33,7.7-1.01,15.34-.21,22.99,.1,2.26,.09,4.48,1.29,6.71,2.17h0c.45,.29,.89,.58,1.32,.87,.27,.28,.56,.48,.89,.58,.66,.45,1.3,.99,2.06,1.26,.06,.02,.12,.03,.19,.02,4.91,2.39,9.61,5.16,14.2,8.12,4.2,2.71,7.42,6.54,10.6,10.3,2.07,2.45,1.07,5.68,.4,8.45-1.41,5.79-4.19,10.97-7.88,15.66-.88,1.11-1.78,2.21-2.59,3.38-.3,.43-.52,.97-1.06,.97-2.82,0-3.99,2.4-5.62,4-1.55,1.53-2.93,1.33-4.46,.33-1.6-1.05-3.34-1.92-4.56-3.49-.22-.3-.5-.53-.82-.68-.02-.01-.04-.03-.06-.04-.45-.33-.91-.64-1.35-.98-.95-.73-1.84-1.52-2.74-2.31-.04-.04-.08-.05-.12-.07-.06-.07-.12-.13-.19-.19-1.49-1.34-2.72-2.9-3.91-4.51-.55-1.3-.66-2.83-1.92-3.77-.07,.05-.14,.1-.2,.16-.69,1.79,.36,3.16,1.1,4.6,1.36,1.48,2.69,2.98,4.07,4.43,.11,.12,.27,.22,.45,.28,1.47,1.38,3.03,2.69,4.66,3.9,.51,.81,1.4,1.53,3.39,2.66,.63,.37,.97,1.12,1.41,1.72-.36,.08-.71,.16-1.07,.24-.75,.17-1.57,.44-2.35,.29-.14-.02-.28,0-.39,.07-1.66,.09-3.3,.45-4.9,.68-6.52,.93-13.02,.28-19.51,.18-1.88-.03-4.04-.56-5.94-.62-2.67-.1-5.12-1.41-7.77-1.19-.46-.08-.9-.2-1.3-.41-.1-.06-.2-.12-.3-.18-.08-.05-.16-.1-.23-.16-.11-.08-.24-.14-.36-.14-1.69-.72-3.63-.8-5.3-1.62-3.49-1.7-4.42-2.87-3.76-5.97,.04-.05,.07-.1,.08-.18,.45-1.97,.98-3.92,1.61-5.85,.02-.08,.03-.15,.02-.22,.71-1.99,1.37-4,1.83-6.05,.35-1.49,1.37-2.81,1.53-4.34,.3-.47,.59-.95,.87-1.44,.05-.09,.06-.2,.05-.31,.35-.72,.65-1.47,.98-2.2,.05-.12,.06-.24,.04-.36,.44-1.2,.75-2.46,1.21-3.65,1.2-3.07,2.68-6.03,4.04-9.04,1.93-3.06,3.87-6.12,5.8-9.18,.04-.02,.08-.05,.12-.07,.28,.36,1.5,.03,2,.52,1.12,1.1,2.47,1.99,3.79,2.88,.56,.61,1.16,1.19,1.81,1.7,.31,.26,.65,.49,.98,.73,.11,.17,.31,.37,.62,.6,.12,.09,.23,.19,.34,.29,0,.02,.03,.03,.04,.05,.05,.08,.11,.13,.17,.17,.75,.81,1.21,1.87,1.86,2.87,.48-1,.27-1.82,.25-2.64-.22-3.17-1.82-5.99-2.36-9.11-.25-1.41,.26-1.61,1.3-1.73,3.55,.18,6.71,1.79,10.05,2.73,.23,.39,.59,.61,.91,.39,.36,.17,.72,.34,1.08,.5,.2,.19,.45,.29,.73,.34,1.7,.79,3.38,1.62,5.01,2.54,.11,.11,.24,.17,.38,.21,1.51,.87,2.95,1.85,4.31,2.92,.19,.31,.46,.5,.76,.62,.97,.8,1.92,1.63,2.81,2.52,.1,.11,.23,.14,.34,.14,.2,.17,.39,.34,.59,.51,4.58,4.05,8.93,8.32,11.28,14.17,.16,.42,.22,.82,.22,1.23,0,1.81-1.25,3.52-.73,5.37-.85,4.8-2.1,9.49-3.85,14.07,3.59-3.42,3.47-8.35,5.28-12.48,.84-2.9,1.81-5.79,.16-8.73-.36-.75-.69-1.52-1.08-2.26-3.13-5.96-7.74-10.55-13.22-14.34-.19-.17-.39-.33-.58-.49-.2-.3-.46-.5-.77-.63-.4-.33-.8-.65-1.21-.95-.11-.11-.22-.19-.34-.25-.95-.69-1.92-1.35-2.93-1.96-.26-.37-.61-.62-1.11-.64-.19-.1-.39-.21-.58-.32-.61-.43-1.24-.84-2.04-1.06-.41-.2-.81-.4-1.22-.6-.23-.77-.52-1.5-1.69-1.13-.12,.05-.31,.08-.48,.12-.98-.45-1.96-.89-2.94-1.35-.11-.05-.22-.05-.32-.03-1.69-.83-3.58-1.17-5.4-1.6-1.85-.44-3.84-1.33-5.76-.05l-.22,.03-.04,.23c-.3,.27-.83,.54-.01,.82-.01,.17,.01,.33,.08,.49,.49,2.34,.98,4.68,1.47,7.02-.29,.13-.59,.27-.83,.42-.18-.14-.37-.27-.55-.41-.78-.61-1.5-1.3-2.15-2.05-.03-.04-.07-.06-.11-.08-.84-1.02-2-1.69-3.11-2.38-.26-.15-.55-.39-.85-.6-.16-.22-.39-.38-.64-.48-.35-.14-.75-.14-1.12-.07-.7,.12-1.34,.59-1.77,1.13-.09,.11-.14,.26-.14,.41-2,2.49-3.32,5.45-4.77,8.33-2.15,2.55-2.97,5.78-4.27,8.73-.74,1.69-1.67,3.35-2.2,5.15l-.03,.03c-.45,.77-.85,1.56-1.23,2.37h-.21s-.02-.01-.04-.02c-.66-.34-1.26-.91-1.84-1.38-.64-.54-1.27-1.09-1.88-1.67-.1-.1-.22-.13-.33-.13-.07-.08-.14-.15-.21-.23,.03-.13,0-.28-.13-.41-2.29-2.38-5.01-4.27-7.75-6.09-1.18-1.4-2.85-2.23-4.17-3.41-.78-.69-1.71-1.2-2-2.3,.36-.39,.72-.78,1.1-1.15Zm-13.88,81.37c1.64-2.59,4.3-4.29,6.03-6.83,2.59-3.83,5.33-7.56,7.47-11.67,.27-.53,.41-1.26,.84-1.54,.15-.1,.28-.19,.4-.29,.02,1.64,.31,3.27,.37,4.92,.04,1.12-.02,2.22-.15,3.32-.02,.16-.04,.32-.07,.49-.05,.37-.12,.75-.19,1.13-.04,.18-.07,.36-.11,.54-.12,.54-.25,1.07-.41,1.6-.03,.11-.02,.2,0,.28-.15,.69-.31,1.38-.56,2.04-.12,.32-.27,.61-.46,.88-2.66,2.22-5.84,3.47-9.05,4.64-1.36,.49-2.53,1.93-4.2,1.18,.03-.14,.06-.28,.11-.41,.03-.09,.01-.19-.02-.28Zm-55.34,15.09c1.97-.73,4.03-.18,6.06-.17,10.46,.07,20.63-1.56,30.5-5.2,3.82-1.4,7.49-3.02,11.06-4.92,1.48-.78,2.44-.7,2.66,.72-.05,.27-.18,.54-.3,.77-.09,.19-.21,.36-.32,.54-1.68,1.48-2.75,3.45-4,5.27-.03,.02-.06,.03-.08,.06-.54,.66-1.07,1.31-1.61,1.96-.9,.33-1.5,1.04-1.71,2.02-.66,.76-1.33,1.51-2.02,2.23-.93-.09-1.35,.33-1.26,1.26-.34,.33-.67,.68-1.02,1-1.17,1.07-2.47,2.01-3.63,3.09-.61,.18-.98,.56-1.17,1.18-.95,1.01-1.91,2.01-3.19,2.59-.02,0-.03,.03-.05,.04-.4,.22-.74,.65-1.11,.95-2.65,2.08-5.69,3.64-9,2.61-6.95-2.16-13.84-4.59-20.03-8.59-1.98-1.07-3.87-2.27-5.44-3.9-1.01-.13-1.51-.66-1.6-1.51,.06-.03,.11-.06,.16-.09,.21-.13,.42-.25,.63-.38,.41-.22,.82-.44,1.24-.63,.49-.23,1-.43,1.51-.6,1.25,.12,2.46,.16,3.72-.3ZM20.65,183.28c-.42-.21-.9-.35-1.27-.6-1.94-1.3-2.97-2.95-3.52-5.32-.91-3.91-2.45-7.67-3.68-11.51-.55-1.72-.98-3.48-1.47-5.22-3.5-8.93-4.98-18.36-6.85-27.68-1.56-7.8-2.45-15.72-2.63-23.69-.07-3.01,.26-3.25,3.1-2.49,2.23,.61,4.41,1.31,6.52,2.32,10.58,5.06,21.02,10.39,30.75,16.98,2.63,1.78,5.26,3.57,7.36,6.01,.98,.66,2.17,1.05,2.73,2.22-.42,.03-1.32-.17-.57,.65,.84,.92,1.56,2.04,2.84,2.46,.08-.05,.15-.11,.22-.17-.04-.19-.08-.39-.12-.58,1.24,.57,2.28,1.38,3.22,2.3s1.78,1.94,2.66,2.93c3.16,3.54,5.47,7.59,6.61,12.21,.44,1.75,.52,3.59,.8,5.38,.08,.46-.16,1.12,.11,1.49,.04,1.09,.51,2.14,.82,3.17,.16,.56,.32,1.13,.46,1.69,.12,1.24,.39,2.45,.79,3.62-.01,.04-.02,.07-.02,.11,.05,.56,.24,1.04,.44,1.55,.2,.53,.4,1.06,.57,1.59,.21,.64,.39,1.29,.56,1.94-.11,.14-.13,.37,0,.79,1.71,5.57,3.27,11.2,5.1,16.74,1.13,3.42,.45,4.63-3.05,4.72-1.53,.03-2.98-.43-4.47-.5-6.6-.31-12.96-1.86-19.28-3.62-8.1-2.26-16.08-4.86-23.91-7.94-.09-.04-.18-.08-.26-.11-.3-.14-.82-.65-1.33-.52-.22-.07-.44-.15-.66-.21-.83-.24-1.66-.47-2.48-.71h-.09Zm121.77,38.16c-6.51,.05-13.01-.38-19.5-.69-6.17-.3-12.29-1.35-18.51-1.55-3.3-.11-6.71-1.38-10.13-1.88-5.71-.82-11.34-2.02-16.75-4.08-6.96-2.66-14.02-5.07-20.9-7.95-2.05-.86-3.48-2.53-5.51-3.34-9.79-3.91-18.58-9.62-27.42-15.23-.83-.53-1.57-1.05-2.01-1.92,.46,.16,.92,.31,1.39,.42,.14,.04,.28,.07,.43,.09,.67,.37,1.35,.7,2.04,1.02,1.43,.83,3,1.38,4.5,1.78,6.17,1.64,12.07,4.06,18.22,5.74,8.25,2.25,16.53,4.17,25.15,4.12,4.43-.02,4.95-.62,4.19-5-.06-.31-.33-.58-.41-.89-1.24-5.36-2.97-10.58-4.68-15.8-.34-1.68-.79-3.34-1.24-4.99-.32-2.12-1-4.15-1.63-6.2v-.07c-.28-1.49-.64-2.97-1.07-4.43,.51-1.17,.95,.09,1.33,.71,1.43,2.38,2.17,5.09,3.68,7.47,4.15,6.52,8.28,13.11,13.95,18.4,6.08,5.69,12.31,11.12,19.96,14.98,7.65,3.86,15.03,8.14,23.29,10.61,5.47,1.64,11.07,2.6,16.78,3,.13,0,.26-.01,.39-.03,1.11,.14,2.23,.17,3.34,.13,.18,1.15-1.81,1.78-2.56,2.83-1.54,2.15-3.61,2.73-6.32,2.75Zm.71,130.54c.66,.63,1.88,1.23,.49,2.36-.59,.48,.01,.95,.22,1.32,1.83,3.2,1.65,3.94-1.82,6.44-.07-3.74-1.88-6.45-4.57-8.75-.55,.8-.27,1.34,.25,1.84,.3,.29,.62,.58,.88,.91,1.49,1.85,2.65,4.23,1.37,6.18-1.15,1.77-3.84,1.01-5.66,.5-5.32-1.49-10.15-4.12-14.08-8.02-1.57-1.56-1.9-4.09-2.25-6.27-.92-5.56-1.87-11.11-3.23-16.57-.36-1.43-.09-1.6,1.11-2.02,5.28-1.86,9.79-4.94,13.53-9.11,.33-.37,.67-.74,.9-1.15,.5-.37,.96-.79,1.38-1.25,.28,.15,.47,.45,.46,1.09-.08,5.28,.61,10.51,1.52,15.69,.75,4.24,1.95,8.44,4.36,12.02,1.27,1.89,3.43,3.18,5.14,4.79Zm11.32-12.63c.88,1.38,1.81,2.73,2.35,4.32,.31,.91,.35,1.68-.23,2.53-.46-2.55-1.78-4.55-3.46-6.38-.59-.65-1.28-1.11-1.91-.49-.72,.71-.12,1.47,.61,1.81,2.08,.97,2.32,3.03,2.45,4.8,.12,1.58-.48,2.95-2.93,2.91-4.93-.08-9.2-1.82-12.73-4.88-2.28-1.98-2.05-5.46-2.85-8.3-1.23-4.38-.63-8.97-1.51-13.4-.14-.69,.23-1.17,.8-1.42,4.39-1.96,7.72-5.27,11.05-8.59,.11,.13,.23,.25,.34,.38-.81,3.98,.42,7.85,.67,11.77,.38,6.06,4.35,10.23,7.35,14.94Zm-5.41-32.29c-3.29,3.21-6.16,6.88-10,9.5-1.14,.79-2.43,1.38-3.61,2.13-1.55,1-1.83,.03-1.7-1.16,.4-3.71,1.12-7.06,5.13-8.98,5.28-2.53,10.84-4.43,15.95-7.42-1.29,2.69-3.82,4.02-5.77,5.93Zm93.7,6.95c-2.18-7.16-.2-13.72,2.54-20.29,3.2-7.66,3.77-15.7,2.64-23.88-.07-.51-.15-1.04-.03-1.52,.24-1.01-.87-2.64,.97-2.91,2.28-.34,3.84,1.12,3.95,3.26,.35,6.81,.99,13.63,1.01,20.44,.02,6.14-.93,12.27-.95,18.44,0,1.44-1.17,2.37-1.76,3.56-.03,.03-.06,.05-.09,.07-.06,.04-.12,.09-.18,.13l-.36,.24c-.52,.34-1.04,.67-1.51,1.08-.02,.02-.04,.05-.05,.07-.52,.37-.96,.83-1.42,1.28-1.18,.83-2.36,1.67-3.54,2.5-.85-.4-.94-1.55-1.22-2.47Zm6.61,18.27c-1.36-4.15-3.37-8.04-4.67-12.23-.44-1.39-.4-2.04,.81-2.82,1.47-.93,2.83-2.04,4.16-3.16,.36-.3,.9-.56,1.13-.99,.44-.28,.87-.57,1.3-.87,.17,.11,.29,.33,.3,.78,.16,7.36,2.44,14.47,2.59,21.86,.05,2.14,.81,4.26,1.34,6.87-3.81-2.49-5.73-5.72-6.96-9.44Zm29-21.87c-1.68,5.39-1.52,11.02-1.84,16.54-.22,3.83,.31,7.91,1.52,11.54,1.13,3.44,3.03,6.77,5.78,9.42,1.61,1.54,2.23,5.04,1.45,6.98-.3,.75-.8,1.4-1.53,1.26-.99-.19-.18-.96-.16-1.44,.11-2.49-2.37-6.27-5.3-7.55,1.17,1.66,2.17,3,3.07,4.4,1.66,2.57,.35,5.2-2.68,5.33-6.24,.29-11.84-1.58-16.41-5.78-2.23-2.06-3.46-5.1-3.91-8.06-.49-3.2-1.49-6.35-1.33-9.66,.06-1.39,.55-2.13,1.66-3.04,1.13-.92,2.72-1.62,3.34-3.06,.21-.13,.4-.29,.59-.44,.27-.21,.53-.44,.77-.68,.18-.18,.35-.37,.52-.56,1.56-1.05,3.55-3.19,4.67-4.98,.04-.03,.09-.06,.13-.12,.65-.82,1.3-1.64,1.95-2.47,.63-.22,1-.69,1.1-1.39,.08-.1,.15-.19,.23-.29,.2-.26,.4-.52,.61-.78,.53-.13,.75-.5,.78-1,.07-.08,.13-.16,.19-.24,.24-.3,.47-.6,.69-.9,.81-.37,1.21-1.24,1.69-2.01,.36-.56,.67-1.15,1.08-1.67,.3-.38,.71-.9,1.26-.53,.35,.24,.21,.75,.08,1.18Zm15.8-70.4c-.93,3.82-.85,7.78-1.28,11.63-.61,5.49-2.68,10.35-4.53,15.33-2.3,6.18-4.3,12.4-5.41,18.91-.5,2.92-2.56,5.3-3.14,8.3-.43,2.22-.71,4.49-.68,6.65,.06,3.28-1.34,5.73-3.05,8.21-.65,.95-1.41,1.83-2.02,2.82-.06,.05-.12,.12-.15,.21-.27,.7-.83,1.29-1.28,1.87-.06,.07-.11,.13-.17,.2-.26,.21-.49,.46-.61,.78-.25,.33-.5,.65-.76,.98-.17,.22-.35,.44-.52,.66-.27,.27-.52,.57-.72,.91-.56,.7-1.11,1.41-1.67,2.11-1.31,1.41-2.61,2.81-3.92,4.21-.13,.03-.25,.11-.34,.23-.05,.07-.09,.14-.14,.21-.02,.02-.04,.05-.06,.08t-.03,.03c-.1,.13-.2,.25-.3,.37-.21,.25-.44,.49-.67,.72-.21,.2-.42,.39-.65,.58-1.47,.84-2.54,2.14-3.71,3.33-.55,.56-1.17,.7-1.84,.53-.84-.22-.4-.97-.47-1.49-.81-5.61-1.96-11.16-2.13-16.86-.11-3.83,.64-7.57,.79-11.37,.22-5.77,1.52-11.51,.4-17.32-.11-.58-.1-1.18-.08-1.78,.17-5.8-.43-11.54-1.69-17.35-.83,.66-1.66,1.16-2.72,.96-7.23-1.38-14.17-.24-21.14,1.91-8.19,2.54-16.4,5.1-24.84,6.64-5.6,1.02-11.34,1.3-17.06,1.16-2.1-.05-2.19-1.05-1.5-2.62,1.12-2.55,2.37-5.06,2.44-7.97-1.29,2.97-2.66,5.9-3.95,8.86-2.19,5.01-5.4,9.32-9.42,12.87-4.63,4.09-9.22,8.38-14.8,11.2-7.65,3.86-15.38,7.56-23.11,11.25-2.27,1.08-4.09,2.74-4.22,5.1-.02,.49-.16,.91-.34,1.3-1.11,1.48-2.3,2.9-3.57,4.25-.03,.02-.03,.05-.05,.07-.47,.42-.79,1.01-1.09,1.47-3,4.47-7.77,6.26-12.28,8.48-1.07,.52-1.48,.38-1.96-1.09-2.05-6.24-1.77-12.9-3.88-19.14-.67-1.98,.74-4.17,2.11-5.88,5.92-7.37,11.4-15.02,15.8-23.41,2.84-5.43,3.48-11.41,4.41-17.33,.65-4.15,1.24-8.3,2.02-12.44,1.52-8.08,4.64-15.47,8.99-22.3,3.9-6.14,9.37-10.72,16.06-13.79,5.07-2.33,10.34-3.44,15.92-3.12,2.28,.13,4.53,.95,6.87,.09,.61-.22,1.07-.01,1.34,.45-.66,.23-1.31,.48-1.94,.78-.48,.23-.94,.48-1.39,.75-.29,.17-.64,.36-.87,.63-.9,.19-1,.81-.02,1.78,1.35,1.34,2.8,2.63,4.37,3.71,6.38,4.39,13.65,6.9,20.81,9.62,1.59,.6,3.33,.98,5.03,1.07,3.64,.2,5.88-2.31,8.33-4.38,.04-.01,.08-.01,.11-.02,1.54-.7,2.65-1.97,3.79-3.16,.08-.1,.18-.18,.27-.27,.01,0,.02-.02,.03-.03,1.24-1.23,2.65-2.24,3.94-3.41,2.88-2.61,5.34-5.62,7.78-8.62,.09-.11,.12-.22,.12-.34,1.06-1.04,2.07-2.12,2.82-3.37,.38-.43,.73-.89,1.04-1.37,.45-.68,.94-1.46,1.01-2.29,.1-.26,.14-.56,.07-.91-.42-2.16,.65-3.54,2.88-3.8-.02,.2-.02,.4,.04,.6,.06,.24,.19,.46,.37,.63,.16,.15,.35,.26,.55,.36,.1,.05,.21,.06,.32,.05,.31,.06,.73-.03,1.3-.29,1.76-.83,3.66-1.37,5.34-2.32,2.03-1.13,4.47-1.66,6.15-3.34,1.5-.98,1.91-2.95,2.28-4.63,.1-.12,.15-.28,.16-.47,.01-.18,.03-.36,.04-.54,.47-1.89,.72-3.83,.69-5.78-.04-2.41-.7-4.85-.26-7.25,.01-.09,0-.17-.02-.25-.09-1.01-.85-2.03-1.39-3.05-2.58-4.86-5.93-9.31-7.33-14.79-.4-1.57-.72-3.18-1.3-4.74-.57-1.54-.22-3.17,1.83-3.72,3.12-.83,6.22-1.69,9.32-2.56,.62-.17,1.22-.43,2.1-.74-.01-.01-.02-.01-.03-.01,.73-.26,1.45-.54,2.17-.83,1.72-.48,3.43-1,4.73-2.46-1.3,.47-2.68,.72-3.96,1.25-.13-.05-.29-.04-.44,.02-1.82,.77-3.69,1.41-5.6,1.93-.54,.15-1.05,.35-1.55,.47-4.07,1.01-8.2,1.96-12.11,3.43-5.6,2.11-11.57,2.48-17.2,4.15-4.7,1.4-9.59,1.35-14.27,2.64-.65,.06-1.3,.1-1.95,.11-.76-.26-1.59-.75-2.37-.82-1.07-.08-2.12-.24-3.16-.45-.34-.15-.68-.28-1.03-.39-.05-.04-.1-.07-.17-.09-.01-.01-.03-.01-.04-.01-.02-.01-.03-.03-.06-.04-.71-.34-1.48-.59-2.21-.88-.72-.29-1.44-.57-2.15-.87-1.38-.57-2.73-1.23-4.17-1.63-5.3-2.81-10.82-5.05-16.3-7.45-6.03-2.65-12.14-5.16-17.73-8.67-5.17-3.25-10.14-6.83-15.12-10.38-1.12-.81-.86-1.86,.5-2.48,7.71-3.52,15.57-6.59,23.72-8.97,4.54-1.33,8.91-3.28,13.48-4.53,6.96-1.89,14.04-3.38,21.05-5.13,3.27-.81,6.54-1.56,9.84-2.23,3.39-.68,6.56-.04,9.43,1.29,8.06,3.76,15.88,8.03,23.48,12.65,4.26,2.58,8.41,5.36,12.22,8.61,.31,.28,.6,.64,1.1,.64,1.41,.96,2.8,1.95,4.12,3.02,1.1,1.04,2.17,2.1,3.3,3.11,.02,.03,.04,.07,.07,.1,.7,.66,1.43,1.3,2.18,1.9,.37,.31,.75,.6,1.14,.89,.06,.05,.12,.09,.18,.14,.96,4.02-1.72,7.39-2.24,11.08h0c-.55,1.73-1.03,3.48-1.44,5.24-.98,2.77-.39,4.83,1.9,7.11,.43,.43,.79,.85,.81,1.49,0,.01,.01,.01,.01,.01-.34,1.26-.11,2.56,.11,3.83,.14,.75,.24,1.51,.3,2.26,0,.48,.02,.96,.05,1.44,.01,.29,.01,.59,0,.88-.01,.12,.03,.21,.09,.29,.21,2.6,.6,5.19,.76,7.8,.32,5.08,1.81,9.89,2.6,14.85,.89,5.62,2.96,10.91,4.84,16.23,.88,2.5,1.58,5.14,2.92,7.73v.03c.12,.53,.37,1.01,.62,1.49,.25,.47,.49,.94,.71,1.43,.26,.54,.49,1.1,.7,1.66,.03,.48,.26,.9,.47,1.29,0,.02,.01,.03,.02,.05,.02,.06,.05,.11,.09,.16,.02,.03,.03,.06,.05,.1,2.31,4.7,4.45,9.51,7.08,14.03,1.43,2.47,1.51,4.8,.9,7.29Zm52.78-6.62c-.21-.33-.45-.64-.72-.93,.28,.29,.51,.6,.72,.93Zm-1.65-1.74h-.01c-.69-.08-1.67,.51-1.18,.8,2.53,1.51,2.65,4.49,4.31,6.59,.49-.81-.37-1.31-.23-1.95,1.93,2.11,2.63,4.84,3.6,7.41,.82,2.15,1.46,4.35,2.18,6.53-1.56-1.18-1.09-3.45-2.84-4.59,1.75,5.17,3.5,10.35,5.24,15.52,.15-.04,.3-.07,.45-.11-.16-1.12-.32-2.24-.48-3.36,1.12,2.46,2.27,4.92,1.58,7.75l.04-.03c.03,.95-.57,.97-1.32,1.02-3.3,.23-6.63,.02-9.8-.66-2.65-.57-5.37-.67-7.94-.72-5.77-.14-11.15-2.48-16.83-2.53-4.46-.04-5.82-2.91-6.88-6.33-2.26-7.34-4.28-14.73-5.19-22.39-.21-1.75-.4-3.49-.44-5.24-.02-1.57,.73-2.3,2.31-2.34,8.48-.24,16.88,.28,25.17,2.27,1.48,.36,3,.82,4.57,.78,.28,.08,.56,.16,.84,.23,.83,.68,2.28,.17,2.85,1.35Zm-37.22-22.02c7,4.71,14.35,8.91,22.11,12.22,4.28,1.83,8.12,4.42,12.38,6.22,.64,.28,1.65,.6,1.38,1.51-.01,.03-.03,.05-.04,.07-1.05-.27-2.11-.56-3.15-.86-1.6-.9-3.56-.87-5.27-1.28-8.31-1.99-16.83-1.76-25.31-1.68-1.56,.01-1.7,1.12-1.79,2.2-.27,3.36,.33,6.69,.73,10.01,.87,7.35,3.37,14.32,5.55,21.36,.16,.5,.19,.72-.25,1.05-4.85-3.79-8.18-8.89-11.7-13.81-.53-1.09-1.35-1.97-2.16-2.87-.98-1.06-1.76-2.26-2.32-3.59-.05-.11-.15-.18-.26-.21-3.12-7.85-7.64-15.03-11.33-22.8-.25-.69-.53-1.38-.83-2.05-.22-.48-.46-.96-.71-1.43-.11-.22-.22-.43-.32-.64-.07-.21-.15-.42-.23-.62-.02-.06-.05-.12-.06-.19-.02-.08-.06-.15-.1-.2-.41-.96-.84-1.84-.82-2.83-2.63-4.34-3.61-9.32-4.99-14.08-1.95-6.79-3.3-13.77-4.59-20.72-.39-2.09-.92-4.26-.64-6.47,.15-1.13,.09-2.25-.03-3.36-.02-1.14-.12-2.27-.31-3.39-.22-1.25-.52-2.54-.18-3.79,.34-.1,.68-.26,1.01-.14,1.58,.68,3.71,.6,4.31,2.7,.81,2.83,1.34,5.75,2.21,8.56,.89,2.9,1.69,5.86,3.24,8.48,.57,1.29,1.11,2.59,1.64,3.89,.43,1.96,1.57,3.6,2.72,5.23t.01,.02c.56,.87,1.06,1.78,1.56,2.69,.03,.18,.09,.34,.24,.45,.14,.27,.29,.53,.43,.8,.07,.13,.14,.26,.21,.39,.08,.24,.18,.48,.36,.67,.26,.49,.54,.98,.87,1.42,.04,.1,.12,.19,.21,.27,.13,.15,.27,.3,.41,.44,0,.04,.02,.07,.04,.11,.22,.32,.46,.64,.69,.96,.52,1.05,1.14,1.83,1.89,2.5,.32,.47,.65,.94,1.01,1.38,3.08,4.82,7.53,8.28,12.18,11.41Zm29.87-30.32c-4.26,4.57-8.89,8.72-15.16,10.45-.85,.23-1.84,.46-2.13,1.53-.21,.76-.9,1.05-1.48,1.26-3.86,1.42-7.78,2.56-11.84,3.39-3.3,.69-6.73-.3-9.89,1.08-.6,.27-.95-.23-1.39-.23-.27-.38-.54-.75-.79-1.15-.01-.02-.03-.03-.04-.05-.33-.56-.75-1.11-1.28-1.63-.23-.32-.47-.64-.69-.97-.01-.1-.05-.2-.15-.28-.16-.14-.29-.31-.42-.47-.05-.23-.18-.38-.39-.49-.26-.38-.5-.8-.72-1.22-.12-.45-.34-.84-.63-1.19-.67-1.25-1.34-2.51-2.11-3.7h0c-.75-1.66-1.56-3.27-2.54-4.79-.41-1.03-.84-2.05-1.27-3.07-.03-.3-.1-.59-.26-.9-2.52-4.71-3.94-9.82-5.16-14.98-.24-1.03-.65-2.25,.13-3.16,.83,.33,1.73,.45,2.64,.48,.04,.01,.07,.02,.11,.03,8.26,2.39,16.72,2.01,25.17,2.05,4.13,.02,8.16-.51,12.16-1.3,.75,.04,1.48-.13,2.22-.29,.65-.15,1.31-.29,1.96-.44,.34,.12,.75,.14,1.28-.01,2.36-.65,4.41-1.73,6.21-3.36,.88-.8,1.83-1.55,2.8-2.34-.7,2.21-1.22,4.42-1.01,6.75,.21,2.45,.73,4.89,1.12,7.31,0,.06,.05,.1,.06,.16,.13,1.76,.79,1.46,3.42-.06,1.3-.75,1.52-.18,1.96,.76,1.86,4.06,.99,7.75-1.89,10.83Zm-.56-13c-.53,.37-.9,.51-1.14,.29-.36-2.08-.79-4.18-.97-6.29-.12-1.33,.02-2.6,.29-3.85,1.89-1.4,2.03-1.11,3.05,1.17,1.27-.85,.19-1.73-.18-2.31-.46-.71-.71-1.46-1.07-2.19-.93-1.91,.14-2.39,1.7-2.6-.4,2.31,1.41,3.99,1.74,6.09,.48,3.01-.77,7.81-3.42,9.69Zm65.32,45.9c-1.9-.81-1.9-2.53-2.32-3.84-2.55-8.01-5.26-15.98-9.32-23.35-2.09-3.8-4.41-7.59-7.75-10.55-.5-.44-1.14-.93-.65-1.69,.36-.56,.68,.19,1.04,.21,.96,1.23,2.79,1.11,3.71,2.41,2.77,1.22,5.54,2.44,8.68,3.82-1.15-2.28-3.04-3.56-6.65-4.81-1.8-.7-3.6-1.41-5.4-2.11-3.59-2.71-7.84-4.01-11.96-5.6-.13-.06-.23-.21-.35-.32-7.9-1.47-15.31-4.39-22.56-7.77-2.59-1.3-5.59-1.92-7.47-4.43-1.66-.66-.55-3.3-2.62-3.67-.39-.81-.7-1.48,.1-2.4,1.15-1.31,2.04-2.86,3.04-4.31,.23-.41,.63-.35,.82-.1,2.54,3.49,6.09,5.75,9.61,8.07,4.82,3.18,9.73,6.2,14.88,8.84,.56,.39,1.12,.78,1.69,1.17,5.78,2.34,10.9,5.93,16.38,8.84,8.11,4.3,16.24,8.58,23.65,14.08,2.42,1.8,4.99,3.42,7.55,5.03,.62,.39,1.01,.76,.56,1.31-.51,.62-.81-.21-1.19-.42-3.46-1.88-7.13-2.84-11.08-2.49-1.66,.15-2.74,1.51-2.31,2.73,.97,2.78,.01,5.41-.25,7.99-.45,4.42-.78,8.76,.17,13.36Zm35.19,31.18c-.17,1.52-1.01,.83-1.74,.43-4.08-2.26-7.76-5.09-11.39-7.97-3.47-2.75-6.34-6.25-9.77-8.95-3.45-2.72-6.39-5.79-9.34-8.95-1.23-1.33-1.79-2.76-1.79-4.47-.02-4.75-.23-9.52,.08-14.25,.17-2.51,.29-5.02,.46-7.53,.11-1.76,1.11-2.7,3.03-2.37,6.81,1.17,12.88,4.28,18.57,7.87,5.49,3.46,8.44,8.97,9.37,15.47,.53,3.76,1.95,7.37,2.1,12.11,1.08,3.12,.3,7.28,.77,11.38,.26,2.28-.07,4.82-.35,7.23Z"/>
      <path class="cls-3" d="M437.88,243.39c-.17,1.52-1.01,.83-1.74,.43-4.08-2.26-7.76-5.09-11.39-7.97-3.47-2.75-6.34-6.25-9.77-8.95-3.45-2.72-6.39-5.79-9.34-8.95-1.23-1.33-1.79-2.76-1.79-4.47-.02-4.75-.23-9.52,.08-14.25,.17-2.51,.29-5.02,.46-7.53,.11-1.76,1.11-2.7,3.03-2.37,6.81,1.17,12.88,4.28,18.57,7.87,5.49,3.46,8.44,8.97,9.37,15.47,.53,3.76,1.95,7.37,2.1,12.11,1.08,3.12,.3,7.28,.77,11.38,.26,2.28-.07,4.82-.35,7.23Z"/>
      <path class="cls-6" d="M417.35,191.04c-.51,.62-.81-.21-1.19-.42-3.46-1.88-7.13-2.84-11.08-2.49-1.66,.15-2.74,1.51-2.31,2.73,.97,2.78,.01,5.41-.25,7.99-.45,4.42-.78,8.76,.17,13.36-1.9-.81-1.9-2.53-2.32-3.84-2.55-8.01-5.26-15.98-9.32-23.35-2.09-3.8-4.41-7.59-7.75-10.55-.5-.44-1.14-.93-.65-1.69,.36-.56,.68,.19,1.04,.21,.96,1.23,2.79,1.11,3.71,2.41,2.77,1.22,5.54,2.44,8.68,3.82-1.15-2.28-3.04-3.56-6.65-4.81-1.8-.7-3.6-1.41-5.4-2.11-3.59-2.71-7.84-4.01-11.96-5.6-.13-.06-.23-.21-.35-.32-7.9-1.47-15.31-4.39-22.56-7.77-2.59-1.3-5.59-1.92-7.47-4.43-1.66-.66-.55-3.3-2.62-3.67-.39-.81-.7-1.48,.1-2.4,1.15-1.31,2.04-2.86,3.04-4.31,.23-.41,.63-.35,.82-.1,2.54,3.49,6.09,5.75,9.61,8.07,4.82,3.18,9.73,6.2,14.88,8.84,.56,.39,1.12,.78,1.69,1.17,5.78,2.34,10.9,5.93,16.38,8.84,8.11,4.3,16.24,8.58,23.65,14.08,2.42,1.8,4.99,3.42,7.55,5.03,.62,.39,1.01,.76,.56,1.31Z"/>
      <path class="cls-2" d="M339.18,63.25c-3.34-8.68-7.81-16.76-12.83-24.55-7.31-11.35-15.75-21.72-26.25-30.32-2.89-2.37-5.78-4.74-9-6.67-1.79-1.08-2.87-.64-3.06,1.12-.62,5.85-1.04,11.7-.99,17.6,.06,6.42,.03,12.85,.63,19.23,.62,6.72,1.45,13.42,2.57,20.07,.56,3.35,.85,6.83,2.78,9.89,2.89,4.57,5.7,9.2,9.03,13.44,3.84,4.9,6.96,10.31,11.01,15.07,1.08,1.27,2.79,2.23,3.36,3.94,.65,.4,1.29,.82,1.92,1.24,.33,.23,.66,.45,.99,.68,.15,.1,.3,.21,.45,.31,3.77,1.1,6.94,3.37,10.27,5.34,.87,.52,2.03,1.38,2.28-.11,.62-3.58,2.01-6.95,2.7-10.49,2.06-10.43,4.04-20.88,4.48-31.54,.05-1.4,.21-2.81-.34-4.25Zm-10.72,12.18c.08,7.68-.95,15.21-3.11,22.58-.31,1.07-.05,2.17,.16,3.56,.07-.06,.14-.1,.19-.1,.33,.03,.63,.2,.63,.72-.09,.12-.2,.43-.35,.45-.5,.05-.75-.28-.69-.76,.02-.08,.1-.2,.19-.29-1.94-1.16-1.98-2.96-2.71-4.34-1.88-4.34-3.87-8.63-5.63-13.01-2.14-5.31-4.67-10.45-6.55-15.87-.71-2.08-.67-4.22-1.11-6.31-.87-4.15-.37-8.38-.62-12.57-.04-.65-.22-1.29-.33-1.93,.12-1.35-.41-2.76,.19-4.05-.09-1.89-.18-3.79-.29-5.69-.01-.12,.03-.21,.09-.29,.08-.14,.23-.28,.48-.41,.75-.39,1.04,.55,1.47,.94,5.59,5.12,9.08,11.76,13.01,18.07,1.9,3.05,4.05,5.95,4.71,9.66,.58,3.23,.24,6.43,.27,9.64Z"/>
      <path class="cls-6" d="M327.38,73.56c-.22,7.44-1.42,14.66-2.68,21.92-.15,.88-.28,1.49-1.31,1.4-2.78-7.9-5.99-15.61-9.32-23.28-1.11-2.57-2.57-5.1-2.46-8.07-.52-3.12-1.39-6.24-1.47-9.38-.03-1.26-.13-2.52-.25-3.77,.04-.07,.07-.14,.07-.24-.01-4.2-.21-8.39-.44-12.58,.05,.09,.11,.17,.2,.23,.22,.16,.43,.32,.65,.48,.11,.08,.22,.16,.33,.24,.05,.04,.1,.08,.15,.12,.01,0,.03,.02,.04,.02l.07,.06c.2,.16,.39,.34,.59,.51,.01,.05,.02,.09,.03,.15v.05c-.01,.08-.02,.15-.02,.22,0,.63,.45,.83,1.06,.88,4.13,4.53,7.01,9.9,10.33,14.98,3.24,4.95,4.6,10.04,4.43,16.06Z"/>
      <path class="cls-6" d="M345.02,123.96c-3.18-3.76-6.4-7.59-10.6-10.3-4.59-2.96-9.29-5.73-14.2-8.12-.07,.01-.13,0-.19-.02-.76-.27-1.4-.81-2.06-1.26-.33-.1-.62-.3-.89-.58-.43-.29-.87-.58-1.32-.86h0c-2.23-.89-4.45-2.09-6.71-2.18-7.65-.31-15.29-1.11-22.99-.1-8.79,1.16-16.62,4.39-23.92,9.33-1.59,1.08-2.59,3.05-4.38,3.88-.01,0-.02,.01-.03,.01-.03,.03-.06,.05-.1,.08t-.02,.01c-.12,.1-.24,.21-.35,.32-.25,.23-.48,.47-.72,.71-.38,.37-.74,.76-1.1,1.15,.29,1.1,1.22,1.61,2,2.3,1.32,1.18,2.99,2.01,4.17,3.41,2.74,1.82,5.46,3.71,7.75,6.09,.13,.13,.16,.28,.13,.41,.07,.08,.14,.15,.21,.23,.11,0,.23,.03,.33,.13,.61,.58,1.24,1.13,1.88,1.67,.58,.47,1.18,1.04,1.84,1.38,.02,.01,.03,.01,.04,.02h.21c.38-.81,.78-1.6,1.23-2.37l.03-.03c.53-1.8,1.46-3.46,2.2-5.15,1.3-2.95,2.12-6.18,4.27-8.73,1.45-2.88,2.77-5.84,4.77-8.33,0-.15,.05-.3,.14-.41,.43-.54,1.07-1.01,1.77-1.13,.37-.07,.77-.07,1.12,.07,.25,.1,.48,.26,.64,.48,.3,.21,.59,.45,.85,.6,1.11,.69,2.27,1.36,3.11,2.38,.04,.02,.08,.04,.11,.08,.65,.75,1.37,1.44,2.15,2.05,.18,.14,.37,.27,.55,.41,.24-.15,.54-.29,.83-.42-.49-2.34-.98-4.68-1.47-7.02-.07-.16-.09-.32-.08-.49-.82-.28-.29-.55,.01-.82l.04-.23,.22-.03c1.92-1.28,3.91-.39,5.76,.05,1.82,.43,3.71,.77,5.4,1.6,.1-.02,.21-.02,.32,.03,.98,.46,1.96,.9,2.94,1.35,.17-.04,.36-.07,.48-.12,1.17-.37,1.46,.36,1.69,1.13,.41,.2,.81,.4,1.22,.6,.8,.22,1.43,.63,2.04,1.06,.19,.11,.39,.22,.58,.32,.5,.02,.85,.27,1.11,.64,1.01,.61,1.98,1.27,2.93,1.96,.12,.06,.23,.14,.34,.25,.41,.3,.81,.62,1.21,.95,.31,.13,.57,.33,.77,.63,.19,.16,.39,.32,.58,.49,5.48,3.79,10.09,8.38,13.22,14.34,.39,.74,.72,1.51,1.08,2.26,1.65,2.94,.68,5.83-.16,8.73-1.81,4.13-1.69,9.06-5.28,12.48,1.75-4.58,3-9.27,3.85-14.07-.52-1.85,.73-3.56,.73-5.37,0-.41-.06-.81-.22-1.23-2.35-5.85-6.7-10.12-11.28-14.17-.2-.17-.39-.34-.59-.51-.11,0-.24-.03-.34-.14-.89-.89-1.84-1.72-2.81-2.52-.3-.12-.57-.31-.76-.62-1.36-1.07-2.8-2.05-4.31-2.92-.14-.04-.27-.1-.38-.21-1.63-.92-3.31-1.75-5.01-2.54-.28-.05-.53-.15-.73-.34-.36-.16-.72-.33-1.08-.5-.32,.22-.68,0-.91-.39-3.34-.94-6.5-2.55-10.05-2.73-1.04,.12-1.55,.32-1.3,1.73,.54,3.12,2.14,5.94,2.36,9.11,.02,.82,.23,1.64-.25,2.64-.65-1-1.11-2.06-1.86-2.87-.06-.04-.12-.09-.17-.17-.01-.02-.03-.03-.04-.05-.11-.1-.22-.2-.34-.29-.31-.23-.51-.43-.62-.6-.33-.24-.67-.47-.98-.73-.65-.51-1.25-1.09-1.81-1.7-1.32-.89-2.67-1.78-3.79-2.88-.5-.49-1.72-.16-2-.52-.04,.02-.08,.05-.12,.07-1.93,3.06-3.87,6.12-5.8,9.18-1.36,3.01-2.84,5.97-4.04,9.04-.46,1.19-.77,2.45-1.21,3.65,.02,.12,.01,.24-.04,.36-.33,.73-.63,1.48-.98,2.2,.01,.11,0,.22-.05,.31-.28,.49-.57,.97-.87,1.44-.16,1.53-1.18,2.85-1.53,4.34-.46,2.05-1.12,4.06-1.83,6.05,.01,.07,0,.14-.02,.22-.63,1.93-1.16,3.88-1.61,5.85-.01,.08-.04,.13-.08,.18-.66,3.1,.27,4.27,3.76,5.97,1.67,.82,3.61,.9,5.3,1.62,.12,0,.25,.06,.36,.14,.07,.06,.15,.11,.23,.16,.1,.06,.2,.12,.3,.18,.4,.21,.84,.33,1.3,.41,2.65-.22,5.1,1.09,7.77,1.19,1.9,.06,4.06,.59,5.94,.62,6.49,.1,12.99,.75,19.51-.18,1.6-.23,3.24-.59,4.9-.68,.11-.07,.25-.09,.39-.07,.78,.15,1.6-.12,2.35-.29,.36-.08,.71-.16,1.07-.24-.44-.6-.78-1.35-1.41-1.72-1.99-1.13-2.88-1.85-3.39-2.66-1.63-1.21-3.19-2.52-4.66-3.9-.18-.06-.34-.16-.45-.28-1.38-1.45-2.71-2.95-4.07-4.43-.74-1.44-1.79-2.81-1.1-4.6-.39-.09-.93-.06-.85-.64,.04-.25,.41-.44,.63-.67,.14,.39,.28,.77,.42,1.15,1.26,.94,1.37,2.47,1.92,3.77,1.19,1.61,2.42,3.17,3.91,4.51,.07,.06,.13,.12,.19,.19,.04,.02,.08,.03,.12,.07,.9,.79,1.79,1.58,2.74,2.31,.44,.34,.9,.65,1.35,.98,.02,.01,.04,.03,.06,.04,.32,.15,.6,.38,.82,.68,1.22,1.57,2.96,2.44,4.56,3.49,1.53,1,2.91,1.2,4.46-.33,1.63-1.6,2.8-3.99,5.62-4,.54,0,.76-.54,1.06-.97,.81-1.17,1.71-2.27,2.59-3.38,3.69-4.69,6.47-9.87,7.88-15.66,.67-2.77,1.67-6-.4-8.45Zm-43.77-2.1c2.95,5.29,4.26,11.1,5.62,16.9-2.74-5.36-4.08-11.16-5.62-16.9Z"/>
      <path class="cls-6" d="M337.37,166.31c-.53,.37-.9,.51-1.14,.29-.36-2.08-.79-4.18-.97-6.29-.12-1.33,.02-2.6,.29-3.85,1.89-1.4,2.03-1.11,3.05,1.17,1.27-.85,.19-1.73-.18-2.31-.46-.71-.71-1.46-1.07-2.19-.93-1.91,.14-2.39,1.7-2.6-.4,2.31,1.41,3.99,1.74,6.09,.48,3.01-.77,7.81-3.42,9.69Z"/>
      <path class="cls-2" d="M339.82,168.48c-.44-.94-.66-1.51-1.96-.76-2.63,1.52-3.29,1.82-3.42,.06-.01-.06-.05-.1-.06-.16-.39-2.42-.91-4.86-1.12-7.31-.21-2.33,.31-4.54,1.01-6.75-.97,.79-1.92,1.54-2.8,2.34-1.8,1.63-3.85,2.71-6.21,3.36-.53,.15-.94,.13-1.28,.01-.65,.15-1.31,.29-1.96,.44-.74,.16-1.47,.33-2.22,.29-4,.79-8.03,1.32-12.16,1.3-8.45-.04-16.91,.34-25.17-2.05-.04,0-.07-.02-.11-.03-.91-.03-1.81-.15-2.64-.48-.78,.91-.37,2.13-.13,3.16,1.22,5.16,2.64,10.27,5.16,14.98,.16,.31,.23,.6,.26,.9,.43,1.02,.86,2.04,1.27,3.07,.98,1.52,1.79,3.13,2.54,4.78h0c.77,1.2,1.44,2.46,2.11,3.71,.29,.35,.51,.74,.63,1.19,.22,.42,.46,.84,.72,1.22,.21,.11,.34,.26,.39,.49,.13,.16,.26,.33,.42,.47,.1,.08,.14,.18,.15,.28,.22,.33,.46,.65,.69,.97,.53,.52,.95,1.07,1.28,1.63,.01,.02,.03,.03,.04,.05,.25,.4,.52,.77,.79,1.15,.44,0,.79,.5,1.39,.23,3.16-1.38,6.59-.39,9.89-1.08,4.06-.83,7.98-1.97,11.84-3.39,.58-.21,1.27-.5,1.48-1.26,.29-1.07,1.28-1.3,2.13-1.53,6.27-1.73,10.9-5.88,15.16-10.45,2.88-3.08,3.75-6.77,1.89-10.83Zm-32.89,9.32c-4.69,4.44-9.35,5.66-14.5,2.72-.14-.08-.25-.2-.36-.33-.44-.26-.84-.57-1.23-.9-1.08-.53-1.79-1.34-2.1-2.45-.48-.71-.92-1.45-1.36-2.17-1.08-1.25-1.03-3.05-1.26-4.54-.31-1.92,.02-3.96,.26-5.97,.2-1.66,.6-2.13,1.12-2.05,.09-.03,.2-.04,.3-.03,2.45,.37,4.81,1.17,6.99,2.33,0,.01,.01,.01,.01,.02,2.1,.92,4.2,1.83,6.3,2.73,.03,0,.06,0,.08,.01,1.11,.29,2.18,.7,3.16,1.3,.64,.39,1.25,.85,1.84,1.31,4.42,1.96,4.67,4.3,.75,8.02Zm24.32,3.81c-.22-.08-.4-.3-.6-.44-.53-.38-.5-.97-.2-1.33,1.06-1.26,2.1-2.58,3.89-2.85,.63-.09,1.16,.08,1.52,.64,.08,.13,.11,.3,.15,.42,.06,1.54-3.37,4.09-4.76,3.56Z"/>
      <path class="cls-6" d="M343.93,229.58s-.03,.05-.04,.07c-1.05-.27-2.11-.56-3.15-.86-1.6-.9-3.56-.87-5.27-1.28-8.31-1.99-16.83-1.76-25.31-1.68-1.56,.01-1.7,1.12-1.79,2.2-.27,3.36,.33,6.69,.73,10.01,.87,7.35,3.37,14.32,5.55,21.36,.16,.5,.19,.72-.25,1.05-4.85-3.79-8.18-8.89-11.7-13.81-.53-1.09-1.35-1.97-2.16-2.87-.98-1.06-1.76-2.26-2.32-3.59-.05-.11-.15-.18-.26-.21-3.12-7.85-7.64-15.03-11.33-22.8-.25-.69-.53-1.38-.83-2.05-.22-.48-.46-.96-.71-1.43-.11-.22-.22-.43-.32-.64-.07-.21-.15-.42-.23-.62-.02-.06-.05-.12-.06-.19-.02-.08-.06-.15-.1-.2-.41-.96-.84-1.84-.82-2.83-2.63-4.34-3.61-9.32-4.99-14.08-1.95-6.79-3.3-13.77-4.59-20.72-.39-2.09-.92-4.26-.64-6.47,.15-1.13,.09-2.25-.03-3.36-.02-1.14-.12-2.27-.31-3.39-.22-1.25-.52-2.54-.18-3.79,.34-.1,.68-.26,1.01-.14,1.58,.68,3.71,.6,4.31,2.7,.81,2.83,1.34,5.75,2.21,8.56,.89,2.9,1.69,5.86,3.24,8.48,.57,1.29,1.11,2.59,1.64,3.89,.43,1.96,1.57,3.6,2.72,5.23t.01,.02c.56,.87,1.06,1.78,1.56,2.69,.03,.18,.09,.34,.24,.45,.14,.27,.29,.53,.43,.8,.07,.13,.14,.26,.21,.39,.08,.24,.18,.48,.36,.67,.26,.49,.54,.98,.87,1.42,.04,.1,.12,.19,.21,.27,.13,.15,.27,.3,.41,.44,0,.04,.02,.07,.04,.11,.22,.32,.46,.64,.69,.96,.52,1.05,1.14,1.83,1.89,2.5,.32,.47,.65,.94,1.01,1.38,3.08,4.82,7.53,8.28,12.18,11.41,7,4.71,14.35,8.91,22.11,12.22,4.28,1.83,8.12,4.42,12.38,6.22,.64,.28,1.65,.6,1.38,1.51Z"/>
      <path class="cls-3" d="M357.9,266.24l.04-.03c.03,.95-.57,.97-1.32,1.02-3.3,.23-6.63,.02-9.8-.66-2.65-.57-5.37-.67-7.94-.72-5.77-.14-11.15-2.48-16.83-2.53-4.46-.04-5.82-2.91-6.88-6.33-2.26-7.34-4.28-14.73-5.19-22.39-.21-1.75-.4-3.49-.44-5.24-.02-1.57,.73-2.3,2.31-2.34,8.48-.24,16.88,.28,25.17,2.27,1.48,.36,3,.82,4.57,.78,.28,.08,.56,.16,.84,.23,.83,.68,2.28,.17,2.85,1.35h-.01c-.69-.08-1.67,.51-1.18,.8,2.53,1.51,2.65,4.49,4.31,6.59,.49-.81-.37-1.31-.23-1.95,1.93,2.11,2.63,4.84,3.6,7.41,.82,2.15,1.46,4.35,2.18,6.53-1.56-1.18-1.09-3.45-2.84-4.59,1.75,5.17,3.5,10.35,5.24,15.52,.15-.04,.3-.07,.45-.11-.16-1.12-.32-2.24-.48-3.36,1.12,2.46,2.27,4.92,1.58,7.75Z"/>
      <path class="cls-6" d="M142.02,362.1c-.07-3.74-1.88-6.45-4.57-8.75-.55,.8-.27,1.34,.25,1.84,.3,.29,.62,.58,.88,.91,1.49,1.85,2.65,4.23,1.37,6.18-1.15,1.77-3.84,1.01-5.66,.5-5.32-1.49-10.15-4.12-14.08-8.02-1.57-1.56-1.9-4.09-2.25-6.27-.92-5.56-1.87-11.11-3.23-16.57-.36-1.43-.09-1.6,1.11-2.02,5.28-1.86,9.79-4.94,13.53-9.11,.33-.37,.67-.74,.9-1.15,.5-.37,.96-.79,1.38-1.25,.28,.15,.47,.45,.46,1.09-.08,5.28,.61,10.51,1.52,15.69,.75,4.24,1.95,8.44,4.36,12.02,1.27,1.89,3.43,3.18,5.14,4.79,.66,.63,1.88,1.23,.49,2.36-.59,.48,.01,.95,.22,1.32,1.83,3.2,1.65,3.94-1.82,6.44Z"/>
      <path class="cls-6" d="M151.2,339.33c-.72,.71-.12,1.47,.61,1.81,2.08,.97,2.32,3.03,2.45,4.8,.12,1.58-.48,2.95-2.93,2.91-4.93-.08-9.2-1.82-12.73-4.88-2.28-1.98-2.05-5.46-2.85-8.3-1.23-4.38-.63-8.97-1.51-13.4-.14-.69,.23-1.17,.8-1.42,4.39-1.96,7.72-5.27,11.05-8.59,.11,.13,.23,.25,.34,.38-.81,3.98,.42,7.85,.67,11.77,.38,6.06,4.35,10.23,7.35,14.94,.88,1.38,1.81,2.73,2.35,4.32,.31,.91,.35,1.68-.23,2.53-.46-2.55-1.78-4.55-3.46-6.38-.59-.65-1.28-1.11-1.91-.49Z"/>
      <path class="cls-5" d="M154.81,301.13c-1.29,2.69-3.82,4.02-5.77,5.93-3.29,3.21-6.16,6.88-10,9.5-1.14,.79-2.43,1.38-3.61,2.13-1.55,1-1.83,.03-1.7-1.16,.4-3.71,1.12-7.06,5.13-8.98,5.28-2.53,10.84-4.43,15.95-7.42Z"/>
      <path class="cls-5" d="M253.82,289.11c.02,6.14-.93,12.27-.95,18.44,0,1.44-1.17,2.37-1.76,3.56-.03,.03-.06,.05-.09,.07-.06,.04-.12,.09-.18,.13l-.36,.24c-.52,.34-1.04,.67-1.51,1.08-.02,.02-.04,.05-.05,.07-.52,.37-.96,.83-1.42,1.28-1.18,.83-2.36,1.67-3.54,2.5-.85-.4-.94-1.55-1.22-2.47-2.18-7.16-.2-13.72,2.54-20.29,3.2-7.66,3.77-15.7,2.64-23.88-.07-.51-.15-1.04-.03-1.52,.24-1.01-.87-2.64,.97-2.91,2.28-.34,3.84,1.12,3.95,3.26,.35,6.81,.99,13.63,1.01,20.44Z"/>
      <path class="cls-6" d="M256.31,341.72c-3.81-2.49-5.73-5.72-6.96-9.44-1.36-4.15-3.37-8.04-4.67-12.23-.44-1.39-.4-2.04,.81-2.82,1.47-.93,2.83-2.04,4.16-3.16,.36-.3,.9-.56,1.13-.99,.44-.28,.87-.57,1.3-.87,.17,.11,.29,.33,.3,.78,.16,7.36,2.44,14.47,2.59,21.86,.05,2.14,.81,4.26,1.34,6.87Z"/>
      <path class="cls-6" d="M285.26,354.89c-.3,.75-.8,1.4-1.53,1.26-.99-.19-.18-.96-.16-1.44,.11-2.49-2.37-6.27-5.3-7.55,1.17,1.66,2.17,3,3.07,4.4,1.66,2.57,.35,5.2-2.68,5.33-6.24,.29-11.84-1.58-16.41-5.78-2.23-2.06-3.46-5.1-3.91-8.06-.49-3.2-1.49-6.35-1.33-9.66,.06-1.39,.55-2.13,1.66-3.04,1.13-.92,2.72-1.62,3.34-3.06,.21-.13,.4-.29,.59-.44,.27-.21,.53-.44,.77-.68,.18-.18,.35-.37,.52-.56,1.56-1.05,3.55-3.19,4.67-4.98,.04-.03,.09-.06,.13-.12,.65-.82,1.3-1.64,1.95-2.47,.63-.22,1-.69,1.1-1.39,.08-.1,.15-.19,.23-.29,.2-.26,.4-.52,.61-.78,.53-.13,.75-.5,.78-1,.07-.08,.13-.16,.19-.24,.24-.3,.47-.6,.69-.9,.81-.37,1.21-1.24,1.69-2.01,.36-.56,.67-1.15,1.08-1.67,.3-.38,.71-.9,1.26-.53,.35,.24,.21,.75,.08,1.18-1.68,5.39-1.52,11.02-1.84,16.54-.22,3.83,.31,7.91,1.52,11.54,1.13,3.44,3.03,6.77,5.78,9.42,1.61,1.54,2.23,5.04,1.45,6.98Z"/>
      <path class="cls-6" d="M257.76,180.84c.04,1.12-.02,2.22-.15,3.32-.02,.16-.04,.32-.07,.49-.05,.37-.12,.75-.19,1.13-.04,.18-.07,.36-.11,.54-.12,.54-.25,1.07-.41,1.6-.03,.11-.02,.2,0,.28-.15,.69-.31,1.38-.56,2.04-.12,.32-.27,.61-.46,.88-2.66,2.22-5.84,3.47-9.05,4.64-1.36,.49-2.53,1.93-4.2,1.18,.03-.14,.06-.28,.11-.41,.03-.09,.01-.19-.02-.28,1.64-2.59,4.3-4.29,6.03-6.83,2.59-3.83,5.33-7.56,7.47-11.67,.27-.53,.41-1.26,.84-1.54,.15-.1,.28-.19,.4-.29,.02,1.64,.31,3.27,.37,4.92Z"/>
      <path class="cls-6" d="M237.59,201.77c-.05,.27-.18,.54-.3,.77-.09,.19-.21,.36-.32,.54-1.68,1.48-2.75,3.45-4,5.27-.03,.02-.06,.03-.08,.06-.54,.66-1.07,1.31-1.61,1.96-.9,.33-1.5,1.04-1.71,2.02-.66,.76-1.33,1.51-2.02,2.23-.93-.09-1.35,.33-1.26,1.26-.34,.33-.67,.68-1.02,1-1.17,1.07-2.47,2.01-3.63,3.09-.61,.18-.98,.56-1.17,1.18-.95,1.01-1.91,2.01-3.19,2.59-.02,0-.03,.03-.05,.04-.4,.22-.74,.65-1.11,.95-2.65,2.08-5.69,3.64-9,2.61-6.95-2.16-13.84-4.59-20.03-8.59-1.98-1.07-3.87-2.27-5.44-3.9-1.01-.13-1.51-.66-1.6-1.51,.06-.03,.11-.06,.16-.09,.21-.13,.42-.25,.63-.38,.41-.22,.82-.44,1.24-.63,.49-.23,1-.43,1.51-.6,1.25,.12,2.46,.16,3.72-.3,1.97-.73,4.03-.18,6.06-.17,10.46,.07,20.63-1.56,30.5-5.2,3.82-1.4,7.49-3.02,11.06-4.92,1.48-.78,2.44-.7,2.66,.72Z"/>
      <path class="cls-2" d="M293.25,232.72c-2.63-4.52-4.77-9.33-7.08-14.03-.02-.04-.03-.07-.05-.1-.04-.05-.07-.1-.09-.16-.01-.02-.02-.03-.02-.05-.21-.39-.44-.81-.47-1.29-.21-.56-.44-1.12-.7-1.66-.22-.49-.46-.96-.71-1.43-.25-.48-.5-.96-.62-1.49v-.03c-1.34-2.59-2.04-5.23-2.92-7.73-1.88-5.32-3.95-10.61-4.84-16.23-.79-4.96-2.28-9.77-2.6-14.85-.16-2.61-.55-5.2-.76-7.8-.06-.08-.1-.17-.09-.29,.01-.29,.01-.59,0-.88-.03-.48-.04-.96-.05-1.44-.06-.75-.16-1.51-.3-2.26-.22-1.27-.45-2.57-.11-3.83,0,0-.01,0-.01-.01-.02-.64-.38-1.06-.81-1.49-2.29-2.28-2.88-4.34-1.9-7.11,.41-1.76,.89-3.51,1.44-5.23h0c.52-3.7,3.2-7.07,2.24-11.09-.06-.05-.12-.09-.18-.14-.39-.29-.77-.58-1.14-.89-.75-.6-1.48-1.24-2.18-1.9-.03-.03-.05-.07-.07-.1-1.13-1.01-2.2-2.07-3.3-3.11-1.32-1.07-2.71-2.06-4.12-3.02-.5,0-.79-.36-1.1-.64-3.81-3.25-7.96-6.03-12.22-8.61-7.6-4.62-15.42-8.89-23.48-12.65-2.87-1.33-6.04-1.97-9.43-1.29-3.3,.67-6.57,1.42-9.84,2.23-7.01,1.75-14.09,3.24-21.05,5.13-4.57,1.25-8.94,3.2-13.48,4.53-8.15,2.38-16.01,5.45-23.72,8.97-1.36,.62-1.62,1.67-.5,2.48,4.98,3.55,9.95,7.13,15.12,10.38,5.59,3.51,11.7,6.02,17.73,8.67,5.48,2.4,11,4.64,16.3,7.45,1.44,.4,2.79,1.06,4.17,1.63,.71,.3,1.43,.58,2.15,.87,.73,.29,1.5,.54,2.21,.88,.03,0,.04,.03,.06,.04,.01,0,.03,0,.04,.01,.07,.02,.12,.05,.17,.09,.35,.11,.69,.24,1.03,.39,1.04,.21,2.09,.37,3.16,.45,.78,.07,1.61,.56,2.37,.82,.65-.01,1.3-.05,1.95-.11,4.68-1.29,9.57-1.24,14.27-2.64,5.63-1.67,11.6-2.04,17.2-4.15,3.91-1.47,8.04-2.42,12.11-3.43,.5-.12,1.01-.32,1.55-.47,1.91-.52,3.78-1.16,5.6-1.93,.15-.06,.31-.07,.44-.02,1.28-.53,2.66-.78,3.96-1.25-1.3,1.46-3.01,1.98-4.73,2.46-.72,.29-1.44,.57-2.17,.83,0,0,.02,0,.03,.01-.88,.31-1.48,.57-2.1,.74-3.1,.87-6.2,1.73-9.32,2.56-2.05,.55-2.4,2.18-1.83,3.72,.58,1.56,.9,3.17,1.3,4.74,1.4,5.48,4.75,9.93,7.33,14.79,.54,1.02,1.3,2.04,1.39,3.05,.02,.08,.03,.16,.02,.25-.44,2.4,.22,4.84,.26,7.25,.03,1.95-.22,3.89-.69,5.78-.01,.18-.03,.36-.04,.54-.01,.19-.06,.35-.16,.47-.37,1.68-.78,3.65-2.28,4.63-1.68,1.68-4.12,2.21-6.15,3.34-1.68,.95-3.58,1.49-5.34,2.32-.57,.26-.99,.35-1.3,.29-.11,.01-.22,0-.32-.05-.2-.1-.39-.21-.55-.36-.18-.17-.31-.39-.37-.63-.06-.2-.06-.4-.04-.6-2.23,.26-3.3,1.64-2.88,3.8,.07,.35,.03,.65-.07,.91-.07,.83-.56,1.61-1.01,2.29-.31,.48-.66,.94-1.04,1.37-.75,1.25-1.76,2.33-2.82,3.37,0,.12-.03,.23-.12,.34-2.44,3-4.9,6.01-7.78,8.62-1.29,1.17-2.7,2.18-3.94,3.41-.01,.01-.02,.02-.03,.03-.09,.09-.19,.17-.27,.27-1.14,1.19-2.25,2.46-3.79,3.16-.03,0-.07,0-.11,.02-2.45,2.07-4.69,4.58-8.33,4.38-1.7-.09-3.44-.47-5.03-1.07-7.16-2.72-14.43-5.23-20.81-9.62-1.57-1.08-3.02-2.37-4.37-3.71-.98-.97-.88-1.59,.02-1.78,.23-.27,.58-.46,.87-.63,.45-.27,.91-.52,1.39-.75,.63-.3,1.28-.55,1.94-.78-.27-.46-.73-.67-1.34-.45-2.34,.86-4.59,.04-6.87-.09-5.58-.32-10.85,.79-15.92,3.12-6.69,3.07-12.16,7.65-16.06,13.79-4.35,6.83-7.47,14.22-8.99,22.3-.78,4.14-1.37,8.29-2.02,12.44-.93,5.92-1.57,11.9-4.41,17.33-4.4,8.39-9.88,16.04-15.8,23.41-1.37,1.71-2.78,3.9-2.11,5.88,2.11,6.24,1.83,12.9,3.88,19.14,.48,1.47,.89,1.61,1.96,1.09,4.51-2.22,9.28-4.01,12.28-8.48,.3-.46,.62-1.05,1.09-1.47,.02-.02,.02-.05,.05-.07,1.27-1.35,2.46-2.77,3.57-4.25,.18-.39,.32-.81,.34-1.3,.13-2.36,1.95-4.02,4.22-5.1,7.73-3.69,15.46-7.39,23.11-11.25,5.58-2.82,10.17-7.11,14.8-11.2,4.02-3.55,7.23-7.86,9.42-12.87,1.29-2.96,2.66-5.89,3.95-8.86-.07,2.91-1.32,5.42-2.44,7.97-.69,1.57-.6,2.57,1.5,2.62,5.72,.14,11.46-.14,17.06-1.16,8.44-1.54,16.65-4.1,24.84-6.64,6.97-2.15,13.91-3.29,21.14-1.91,1.06,.2,1.89-.3,2.72-.96,1.26,5.81,1.86,11.55,1.69,17.35-.02,.6-.03,1.2,.08,1.78,1.12,5.81-.18,11.55-.4,17.32-.15,3.8-.9,7.54-.79,11.37,.17,5.7,1.32,11.25,2.13,16.86,.07,.52-.37,1.27,.47,1.49,.67,.17,1.29,.03,1.84-.53,1.17-1.19,2.24-2.49,3.71-3.33,.23-.19,.44-.38,.65-.58,.23-.23,.46-.47,.67-.72,.1-.12,.2-.24,.3-.37t.03-.03s.04-.06,.06-.08c.05-.07,.09-.14,.14-.21,.09-.12,.21-.2,.34-.23,1.31-1.4,2.61-2.8,3.92-4.21,.56-.7,1.11-1.41,1.67-2.11,.2-.34,.45-.64,.72-.91,.17-.22,.35-.44,.52-.66,.26-.33,.51-.65,.76-.98,.12-.32,.35-.57,.61-.78,.06-.07,.11-.13,.17-.2,.45-.58,1.01-1.17,1.28-1.87,.03-.09,.09-.16,.15-.21,.61-.99,1.37-1.87,2.02-2.82,1.71-2.48,3.11-4.93,3.05-8.21-.03-2.16,.25-4.43,.68-6.65,.58-3,2.64-5.38,3.14-8.3,1.11-6.51,3.11-12.73,5.41-18.91,1.85-4.98,3.92-9.84,4.53-15.33,.43-3.85,.35-7.81,1.28-11.63,.61-2.49,.53-4.82-.9-7.29Zm-46.09-99.67c-9.27,2.78-18.51,5.63-28.33,5.85-4.59,.1-8.57-1.71-12.58-3.3-6.55-2.61-12.92-5.67-19.35-8.57-.67-.3-1.24-.82-1.85-1.24-.64-.45-1.9-.38-1.9-1.29,0-1.36,1.56-1.23,2.34-1.43,8.91-2.29,17.7-5.08,26.87-6.31,2.9-.39,5.75-.91,8.69-.97,2.4-.06,4.51,.71,6.7,1.5,5.36,1.94,10.19,4.96,15.35,7.28,3.53,1.59,6.7,3.82,10.18,5.48,.73,.35,1.18,.8,1.89,1.82-3.15-.53-5.53,.43-8.01,1.18Z"/>
      <path class="cls-6" d="M250.34,130.37c-.06,.77-.89,1.02-1.44,1.16-9.46,2.44-18.97,4.68-28.54,6.61-2.36,.48-4.37-.79-6.52-1.46-5.27-1.65-10.37-3.72-15.41-5.97-4.21-1.1-7.84-3.51-11.71-5.36-.87-.42-1.01-1.31,.46-1.22,.27,1.6,1.77,1.21,2.92,2.14q-.78-1.82-1.92-2.65c4.79-1.18,9.55-2.54,14.39-3.5,5.22-1.03,10.34-2.69,15.74-2.7,2.51-.87,4.87-.36,7.31,.52,8.24,2.98,15.79,7.38,23.59,11.27,.55,.28,1.19,.48,1.13,1.16Z"/>
      <path class="cls-2" d="M151.3,215.86c.18,1.15-1.81,1.78-2.56,2.83-1.54,2.15-3.61,2.73-6.32,2.75-6.51,.05-13.01-.38-19.5-.69-6.17-.3-12.29-1.35-18.51-1.55-3.3-.11-6.71-1.38-10.13-1.88-5.71-.82-11.34-2.02-16.75-4.08-6.96-2.66-14.02-5.07-20.9-7.95-2.05-.86-3.48-2.53-5.51-3.34-9.79-3.91-18.58-9.62-27.42-15.23-.83-.53-1.57-1.05-2.01-1.92,.46,.16,.92,.31,1.39,.42,.14,.04,.28,.07,.43,.09,.67,.37,1.35,.7,2.04,1.02,1.43,.83,3,1.38,4.5,1.78,6.17,1.64,12.07,4.06,18.22,5.74,8.25,2.25,16.53,4.17,25.15,4.12,4.43-.02,4.95-.62,4.19-5-.06-.31-.33-.58-.41-.89-1.24-5.36-2.97-10.58-4.68-15.8-.34-1.68-.79-3.34-1.24-4.99-.32-2.12-1-4.15-1.63-6.2v-.07c-.28-1.49-.64-2.97-1.07-4.43,.51-1.17,.95,.09,1.33,.71,1.43,2.38,2.17,5.09,3.68,7.47,4.15,6.52,8.28,13.11,13.95,18.4,6.08,5.69,12.31,11.12,19.96,14.98,7.65,3.86,15.03,8.14,23.29,10.61,5.47,1.64,11.07,2.6,16.78,3,.13,0,.26-.01,.39-.03,1.11,.14,2.23,.17,3.34,.13Z"/>
      <path class="cls-6" d="M73.13,196.89c-1.53,.03-2.98-.43-4.47-.5-6.6-.31-12.96-1.86-19.28-3.62-8.1-2.26-16.08-4.86-23.91-7.94-.09-.04-.18-.08-.26-.11-.3-.14-.82-.65-1.33-.52-.22-.07-.44-.15-.66-.21-.83-.24-1.66-.47-2.48-.71h-.09c-.42-.21-.9-.35-1.27-.6-1.94-1.3-2.97-2.95-3.52-5.32-.91-3.91-2.45-7.67-3.68-11.51-.55-1.72-.98-3.48-1.47-5.22-3.5-8.93-4.98-18.36-6.85-27.68-1.56-7.8-2.45-15.72-2.63-23.69-.07-3.01,.26-3.25,3.1-2.49,2.23,.61,4.41,1.31,6.52,2.32,10.58,5.06,21.02,10.39,30.75,16.98,2.63,1.78,5.26,3.57,7.36,6.01,.98,.66,2.17,1.05,2.73,2.22-.42,.03-1.32-.17-.57,.65,.84,.92,1.56,2.04,2.84,2.46,.13,.37,.23,.77,.73,.77,.07,0,.2-.08,.2-.11-.04-.44-.35-.66-.71-.83-.04-.19-.08-.39-.12-.58,1.24,.57,2.28,1.38,3.22,2.3s1.78,1.94,2.66,2.93c3.16,3.54,5.47,7.59,6.61,12.21,.44,1.75,.52,3.59,.8,5.38,.08,.46-.16,1.12,.11,1.49,.04,1.09,.51,2.14,.82,3.17,.16,.56,.32,1.13,.46,1.69,.12,1.24,.39,2.45,.79,3.62-.01,.04-.02,.07-.02,.11,.05,.56,.24,1.04,.44,1.55,.2,.53,.4,1.06,.57,1.59,.21,.64,.39,1.29,.56,1.94-.11,.14-.13,.37,0,.79,1.71,5.57,3.27,11.2,5.1,16.74,1.13,3.42,.45,4.63-3.05,4.72Z"/>
      <path class="cls-4" d="M306.11,171.62c-.8,.27-.6-.42-.74-.77,.25,.26,.49,.51,.74,.77Z"/>
      <path class="cls-4" d="M306.18,169.78c-.59-.46-1.2-.92-1.84-1.31-.98-.6-2.05-1.01-3.16-1.3-.02-.01-.05-.01-.08-.01-2.1-.9-4.2-1.81-6.3-2.73,0,0-.01,0-.01-.02-2.18-1.16-4.54-1.96-6.99-2.33-.1-.01-.21,0-.3,.03-.52-.08-.92,.39-1.12,2.05-.24,2.01-.57,4.05-.26,5.97,.23,1.49,.18,3.29,1.26,4.54,.44,.72,.88,1.46,1.36,2.17,.31,1.11,1.02,1.92,2.1,2.45,.39,.33,.79,.64,1.23,.9,.11,.13,.22,.25,.36,.33,5.15,2.94,9.81,1.72,14.5-2.72,3.92-3.72,3.67-6.06-.75-8.02Zm1.04,5.63c-.91,.97-1.94,1.83-2.92,2.73,0,.16-.08,.24-.22,.26-2.48,1.93-5.03,3.09-8.41,2.28-.98-.24-1.83-1.06-2.84-1.22-.43-.24-.84-.53-1.23-.84-.02-.05-.04-.1-.04-.15l-.84-.84c-.21-.2-.42-.41-.64-.61-.63-.84-1.18-1.77-1.73-2.67-.32-1.86-.61-3.73-1.03-5.57-.48-2.08-.41-3.88,1.33-5.15,.51,.13,1.02,.27,1.52,.43,.11,.16,.3,.28,.61,.41,2.59,1.11,5.11,2.39,8.04,3.79-1.98,1.01-3.13-.29-4.32-.65-.67-.21-1.27-1.2-2-.41-.64,.71-1.16,1.73-.78,2.77,.37,.99,1.33,.51,2,.5,1.68-.04,3.2-.33,3.77,2.07,.28,1.18,.87-.27,1.33-.48,.33-3.34,.71-4.01,3.09-3.62,.66,.23,1.3,.51,1.9,.88,.23,.16,.46,.32,.7,.49,.28,.34,.57,.69,.86,1.03h0c.25,.27,.49,.52,.74,.78l.13,.14c2.52,1.14,2.72,1.77,.98,3.65Z"/>
      <path class="cls-6" d="M307.22,175.41c-.91,.97-1.94,1.83-2.92,2.73,0,.16-.08,.24-.22,.26-2.48,1.93-5.03,3.09-8.41,2.28-.98-.24-1.83-1.06-2.84-1.22-.43-.24-.84-.53-1.23-.84-.02-.05-.04-.1-.04-.15l-.84-.84c-.21-.2-.42-.41-.64-.61-.63-.84-1.18-1.77-1.73-2.67-.32-1.86-.61-3.73-1.03-5.57-.48-2.08-.41-3.88,1.33-5.15,.51,.13,1.02,.27,1.52,.43,.11,.16,.3,.28,.61,.41,2.59,1.11,5.11,2.39,8.04,3.79-1.98,1.01-3.13-.29-4.32-.65-.67-.21-1.27-1.2-2-.41-.64,.71-1.16,1.73-.78,2.77,.37,.99,1.33,.51,2,.5,1.68-.04,3.2-.33,3.77,2.07,.28,1.18,.87-.27,1.33-.48,.33-3.34,.71-4.01,3.09-3.62,.66,.23,1.3,.51,1.9,.88,.23,.16,.46,.32,.7,.49,.28,.34,.57,.69,.86,1.03h0c.14,.36-.06,1.05,.74,.78l.13,.14c2.52,1.14,2.72,1.77,.98,3.65Z"/>
      <ellipse class="cls-1" cx="301.25" cy="173.26" rx="2.9" ry="5.44"/>
      <ellipse class="cls-1" cx="336.92" cy="158.62" rx="2.13" ry="5.04"/>
    </g>
  </g>
</svg>