<?xml version="1.0" encoding="UTF-8"?>
<svg id="Layer_2" data-name="Layer 2" xmlns="http://www.w3.org/2000/svg" viewBox="0 0 159.75 131.9">
  <defs>
    <style>
      .cls-1 {
        fill: #FFFFFF;
      }
    </style>
  </defs>
  <g id="Layer_1-2" data-name="Layer 1">
    <g>
      <path class="cls-1" d="M121.88,0c0,13.27-.01,25.63,.01,38,0,1.95-1.07,3-2.66,3.79-10.79,5.36-21.59,10.71-32.36,16.13-2.41,1.21-3.55,1.14-3.52-2.03,.1-10.91,.06-21.83,.02-32.74,0-1.78,.3-3.11,2.09-4.04,11.85-6.16,23.65-12.4,36.41-19.11Z"/>
      <path class="cls-1" d="M121.89,112.29c0,5.62-.06,11.24,.03,16.87,.04,2.34-.3,3.56-2.96,2.14-11.07-5.9-22.15-11.79-33.3-17.55-2.01-1.04-2.29-2.49-2.28-4.43,.04-10.75,.12-21.5-.04-32.24-.05-3.53,1.17-3.38,3.71-2.1,10.47,5.27,20.97,10.48,31.52,15.59,2.41,1.16,3.44,2.67,3.36,5.37-.16,5.45-.05,10.91-.05,16.37Z"/>
      <path class="cls-1" d="M38.32,20.72c0-5.47,.08-10.94-.03-16.41-.07-3.34,1.08-3.63,3.82-2.16,10.35,5.56,20.74,11.04,31.19,16.42,2.19,1.13,3.11,2.43,3.08,4.97-.14,10.61-.19,21.22,.01,31.82,.08,3.96-1.34,3.54-3.98,2.21-10.2-5.13-20.41-10.25-30.72-15.17-2.67-1.28-3.53-2.94-3.43-5.78,.19-5.3,.05-10.61,.06-15.91Z"/>
      <path class="cls-1" d="M38.32,111.8c0-5.3,.12-10.61-.05-15.91-.08-2.64,.7-4.16,3.21-5.37,10.44-5.02,20.79-10.22,31.1-15.51,3.12-1.6,3.85-.93,3.8,2.46-.16,10.61-.11,21.22-.02,31.83,.02,2.25-.63,3.61-2.72,4.69-10.6,5.44-21.16,10.96-31.66,16.6-3.09,1.66-3.73,.56-3.68-2.38,.08-5.47,.02-10.94,.02-16.41Z"/>
      <path class="cls-1" d="M76.25,66.4c-8.6,4.15-16.79,7.11-23.89,11.75-9.87,6.45-18.58,6.49-28.46,.02-7.1-4.65-15.32-7.62-23.9-11.75,10.51-5.12,20.35-9.41,29.67-14.65,5.96-3.35,10.75-3.51,16.79-.07,9.3,5.29,19.19,9.54,29.8,14.7Z"/>
      <path class="cls-1" d="M159.75,66.4c-10.51,5.09-20.39,9.32-29.7,14.57-6,3.38-10.81,3.38-16.81,0-9.32-5.24-19.2-9.48-29.68-14.56,12.89-6.29,24.9-12.15,36.9-18.02,.81-.4,1.54-.39,2.35,0,12.01,5.86,24.03,11.71,36.95,18Z"/>
    </g>
  </g>
</svg>