<?xml version="1.0" encoding="UTF-8"?>
<svg id="Layer_2" data-name="Layer 2" xmlns="http://www.w3.org/2000/svg" viewBox="0 0 211.62 239.84">
  <defs>
    <style>
      .cls-1 {
        fill: #fbd56f;
      }

      .cls-2 {
        fill: #fff;
      }

      .cls-3 {
        fill: #d8b55f;
      }

      .cls-4 {
        fill: #dee3e7;
      }

      .cls-5 {
        fill: #36164f;
      }
    </style>
  </defs>
  <g id="Layer_1-2" data-name="Layer 1">
    <g>
      <path d="M211.58,110.88c-.1-.25-.32-.34-.56-.37-.26-.02-.53-.01-.79,.01-2.43,.18-4.84,.39-7.27,.55-4.24,.28-8.47,.74-12.7,1.21-4.2,.47-8.41,.8-12.61,1.17-1.79,.16-3.58,.3-5.37,.43-.33,.03-.74,.05-.91-.28-.17-.33,.23-.5,.41-.71,3.91-4.76,8.32-9.05,12.53-13.53,1.42-1.52,3.13-2.69,4.63-4.1,2.77-2.59,5.41-5.32,8.01-8.09,.3-.32,.9-.52,.51-1.1-.34-.5-.84-.22-1.27-.1-.16,.04-.31,.14-.46,.19-2.5,.91-5,1.82-7.5,2.7-.29,.1-.71,.39-.92,.07-.24-.35,.18-.65,.39-.93,.94-1.29,1.89-2.57,2.85-3.85,.21-.28,.41-.57,.13-.89-.28-.33-.6-.18-.9,0-.66,.39-1.28,.85-1.97,1.16-3.13,1.39-6.26,2.8-9.31,4.35-3.11,1.59-6.23,3.16-9.34,4.75-4.08,2.09-8.02,4.44-12.03,6.67-3.08,1.72-6.39,2.98-9.38,4.87-.29,.17-.6,.4-1.02,.32,.05-.16,.07-.26,.1-.35,1.05-2.91,2.44-5.68,3.38-8.64,.51-1.58,1.04-3.15,1.7-4.69,1.54-3.6,3.22-7.16,4.32-10.94,.1-.34,.34-.72-.05-1-.45-.33-.74,.09-1.03,.33-1.37,1.1-2.7,2.27-4.09,3.34-3.18,2.43-6.2,5.02-9.15,7.72-1.21,1.1-2.59,2.02-4.15,3.21,.78-1.95,1.14-3.69,1.56-5.43,.1-.4,.45-.88-.1-1.14-.45-.21-.81,.18-1.1,.5-.8,.89-1.55,1.83-2.38,2.69-2.82,2.91-5.75,5.71-8.44,8.73-1.14,1.27-2.03,1.81-3.77,1.24-2.88-.95-5.93-1.19-8.9-1.77-.31-.06-.78-.04-.86-.4-.1-.46,.42-.53,.71-.7,2.11-1.21,4.14-2.54,6.17-3.89,.4-.26,.97-.57,.74-1.15-.23-.57-.81-.27-1.25-.22-3.16,.34-6.32,.7-9.51,1.22,.07-.14,.09-.21,.14-.25,3.7-2.71,7.6-5.15,11.49-7.57,2.97-1.84,5.94-3.67,8.73-5.76,1.15-.86,2.21-1.83,3.27-2.79,.3-.27,.66-.68,.4-1.13-.21-.36-.67-.24-1.02-.17-.78,.14-1.55,.34-2.36,.39-2.59,.16-5.16,.57-7.7,1.08-4.76,.97-9.53,1.85-14.29,2.82-5.79,1.2-11.62,2.26-17.35,3.74-.2,.05-.42,.23-.66-.03,.58-1.11,1.17-2.22,1.73-3.34,.17-.34,.48-.72,.15-1.11-.34-.39-.75-.16-1.1,0-3.23,1.42-6.59,2.55-9.54,4.55-.3,.2-.62,.45-1.01,.3-1.2-.48-2.18-1.27-3.23-2.18,1.21-.52,2.25-.84,3.34-.99,.36-.05,.77-.1,.89-.53,.13-.48-.27-.71-.57-.96-.2-.17-.41-.34-.64-.48-1.91-1.21-3.65-2.66-5.46-4.01-.28-.21-.75-.43-.66-.8,.11-.46,.62-.24,.95-.25,2.33-.01,4.66,.11,6.98-.2,.63-.09,1.56,.14,1.69-.67,.13-.81-.69-1.19-1.39-1.45-.19-.07-.38-.12-.57-.19-.78-.31-1.55-.61-2.33-.92,.93-.26,1.83-.29,2.71-.44,6.59-1.15,13.21-2.08,19.62-4.1,5.2-1.64,10.59-2.58,15.72-4.49,3.09-1.15,6.2-2.24,9.18-3.65,.76-.36,1.41-.88,2.08-1.37,.35-.26,.58-.67-.05-.74-1.09-.12-2.08-.62-3.21-.66-1.58-.07-3.19-.27-4.65-.99-.6-.29-.73-.55-.15-1.16,1.53-1.63,3.33-2.96,4.87-4.58,3.03-3.18,6.26-6.16,9.36-9.27,4.44-4.44,8.98-8.78,13.13-13.51,.15-.18,.35-.34,.24-.6-.12-.29-.39-.35-.66-.35-.67,0-1.34-.05-1.99,.05-4.54,.65-9.07,1.38-13.65,1.73-4.38,.34-8.69,1.24-13.04,1.77-3.48,.43-6.79,1.66-10.21,2.37-1.33,.27-2.68,.49-4.02,.75-2.52,.49-4.85,1.61-7.36,2.14-1.63,.34-3.27,.63-4.85,1.18-.47,.17-.98,.22-1.47,.32,3.23-3.41,6.06-7.01,8.54-10.89,.15-.24,.48-.46,.25-.79-.23-.33-.59-.43-.98-.31-.44,.15-.87,.33-1.31,.47-.95,.29-1.81,.91-3.04,.97,1.63-2.3,3.11-4.46,4.67-6.57,2.06-2.81,4.27-5.52,6.11-8.5,1.66-2.69,3.5-5.28,4.18-8.45,.1-.5,.19-.98,0-1.47h-1.19c-1.46,.69-3.14,.59-4.6,1.3-.98,.48-2,.88-3.03,1.28-3.04,1.17-6.08,2.33-9.13,3.48-2.28,.86-4.39,2.07-6.58,3.12-3.49,1.7-7.2,2.95-10.47,5.13-.8,.53-1.66,.98-2.51,1.43-3.03,1.59-6.05,3.21-9.02,4.9-1.61,.92-3.18,1.94-4.68,3.03-2.74,2-5.83,3.43-7.97,6.33-2.55,3.47-5.5,6.68-7.88,10.27-2.98,4.49-6.28,8.79-8.35,13.82-.35,.83-.94,1.25-1.86,1.23-2.22-.07-4.33,.58-6.49,.94-3.78,.64-6.78,2.35-9.11,5.5-2.29,3.09-4.22,6.38-6.01,9.76-.57,1.08-1.33,1.68-2.43,2-1.8,.52-3.51,1.25-5.19,2.05-2.34,1.11-3.87,2.86-4.01,5.5-.2,3.7,1.35,6.77,3.73,9.5,.72,.83,1.69,1.38,2.35,2.29,.56,.77,.85,1.65,1.29,2.46,1.71,3.19,4.1,5.77,7.04,7.86,.76,.53,1.47,1.16,2.29,1.59,2.71,1.41,5.44,2.79,8.3,3.86,.74,.27,.86,.58,.18,1.06-1.79,1.26-3.53,2.58-5.4,3.73-2.31,1.44-4.76,2.68-6.73,4.61-.26,.26-.79,.45-.53,.95,.23,.42,.72,.49,1.15,.45,2.52-.21,5.04-.4,7.55-.68,1.91-.22,3.81-.57,5.72-.83,.33-.04,.82-.18,.97,.24,.13,.36-.33,.53-.56,.75-.92,.91-1.87,1.8-2.79,2.71-.3,.29-.53,.63-.31,1.07,.21,.43,.59,.33,.96,.27,.43-.06,.85-.13,1.28-.18,.29-.04,.64-.19,.83,.13s-.12,.56-.3,.78c-.93,1.09-1.89,2.15-2.8,3.25-1.34,1.61-2.67,3.23-3.96,4.88-.39,.49-.81,1.15-.35,1.73,.49,.62,1.1,.08,1.62-.14,2.07-.92,4.12-1.86,6.19-2.78,.21-.1,.44-.34,.77-.01-.15,.3-.31,.63-.47,.95-1.88,3.89-3.87,7.74-5.61,11.7-1.5,3.4-2.72,6.93-4.19,10.35-1.41,3.28-2.48,6.67-3.01,10.21-.06,.44-.3,1.01,.2,1.28,.49,.26,.72-.33,1.05-.57,.07-.06,.13-.15,.2-.22,2.44-2.6,4.98-5.08,7.37-7.72,2.82-3.1,5.76-6.1,8.28-9.46,.66-.87,1.45-1.65,2.2-2.5,.21,2.01,.48,3.88,.52,5.76,.01,.86,.11,1.73,.22,2.58,.57,4.49,1.09,8.97,2.06,13.4,.85,3.87,1.7,7.73,2.58,11.59,.68,2.98,1.55,5.93,2.14,8.92,.79,3.96,1.18,8.01,1.08,12.07-.16,6.28-.91,12.47-2.83,18.48-.76,2.39-1.74,4.73-3.7,6.4-.97,.83-1.51,1.82-1.97,2.92-.88,2.1,.15,4.93,2.09,6.08,1.77,1.04,3.73,1.37,5.7,1.74,.4,.08,.77,.14,1.02,.52,.8,1.28,1.92,2.2,3.14,3.12,1.51,1.13,3.15,1.53,4.89,1.61,2.26,.11,4.26-.63,6.13-1.97,2.88-2.07,5.36-4.46,7.05-7.6,1.36-2.53,1.77-5.34,2.29-8.11,.25-1.28,.68-2.5,.93-3.76,.32-1.62,.4-3.29,.82-4.91,.45-1.76,1.03-3.51,1.24-5.33,.29-2.48,.6-4.95,1.02-7.41,.95-5.47,2.07-10.91,3.81-16.19,1.27-3.85,2.58-7.68,4.05-11.47,.38-.97,.88-1.25,1.82-1.25,1.4,.01,2.79,.01,4.18-.11,4.86-.42,9.37-2.25,13.96-3.69,5.08-1.6,9.97-3.75,15.12-5.12,.86-.23,1.38-.09,1.8,.7,1.68,3.18,3.23,6.42,4.47,9.79,1.19,3.24,2.64,6.39,3.52,9.75,.57,2.16,.94,4.22-.22,6.37-.85,1.6-1.93,3.02-2.84,4.58-2.19,3.77-4.62,7.38-7.86,10.37-1.55,1.44-3.08,2.85-5.46,2.57-.54-.06-1.11,.21-1.67,.28-3.68,.45-5.97,4.95-3.35,8.84,1.58,2.34,4.02,2.61,6.34,2.63,3.44,.05,6.88-.45,10.21-1.55,1.21-.41,2.24-.93,3.09-1.88,3.75-4.23,8.01-7.98,11.55-12.39,1.08-1.36,2.33-2.56,3.45-3.88,2.29-2.68,4.41-5.51,6.91-8.01,.45-.44,.74-.5,1.27-.19,2.14,1.22,4.3,2.39,6.44,3.61,3.45,1.96,6.64,4.29,9.7,6.79,1.1,.89,1.24,1.3,.75,2.6-.74,2-1.59,3.95-2.53,5.86-1.52,3.14-2.8,6.38-4.63,9.39-1.34,2.21-3.22,3.17-5.54,3.62-2.58,.5-4.44,1.9-5.54,4.26-.81,1.72-.98,3.65,.19,5.12,.73,.92,1.57,1.81,2.34,2.73,1.41,1.68,3.32,1.77,5.32,1.43,.41-.07,.82-.29,1.27-.1,1.03,.45,2.02,.14,3.01-.19,3.08-1.02,5.59-3.01,8.2-4.83,1.01-.7,1.91-1.47,2.38-2.61,.71-1.7,1.75-3.22,2.79-4.71,1.78-2.57,3.48-5.19,5.12-7.85,2.13-3.46,3.99-7.06,5.54-10.81,.73-1.76,.94-3.6,.09-5.43-.84-1.82-1.85-3.52-3.24-4.99-2.22-2.34-4-4.97-5.2-7.98-1.24-3.1-2.1-6.29-2.8-9.56-.91-4.25-1.04-8.56-1.24-12.86-.05-1.11,.42-1.43,1.51-1.16,.32,.09,.64,.19,.95,.31,2.51,.97,4.99,2.02,7.52,2.92,2.7,.96,5.37,2,8.15,2.68,.4,.1,.82,.23,1.09-.18,.28-.42-.02-.77-.3-1.05-.48-.5-.91-1.06-1.42-1.54-1.03-.97-1.98-2.02-3.12-3.21,1.03-.06,1.81-.11,2.59-.14,.4-.02,.86,.1,1.02-.4,.15-.48-.26-.72-.55-.97-1.76-1.52-3.39-3.15-4.83-5.08,.73-.13,1.41-.11,2.08,.1,1.39,.45,2.89,.46,4.26,1.01,.28,.11,.62,.16,.81-.17,.21-.38-.03-.63-.31-.85-.28-.22-.61-.41-.87-.66-3.81-3.76-7.91-7.21-11.82-10.86-.26-.24-.61-.44-.41-.91,.18-.43,.46-.66,.97-.7,6.65-.6,13.32-1.09,19.96-1.84,.42-.05,.94,0,1-.6,.05-.53-.25-.85-.75-1.05-.62-.24-1.22-.52-1.83-.78-5.8-2.51-11.51-5.23-17.43-7.45-.47-.18-1.25-.18-1.28-.77-.03-.56,.75-.53,1.17-.74,4.45-2.18,8.9-4.37,13.39-6.46,2.83-1.32,5.75-2.47,8.49-3.99,3.89-2.16,7.54-4.73,11.49-6.8,.79-.42,1.51-.97,2.25-1.48,.22-.15,.4-.37,.28-.68ZM37.07,52.67c.7-1.17,1.37-2.36,2.13-3.49,3.34-4.93,6.78-9.8,10.04-14.78,2.98-4.55,7.29-7.48,11.75-10.31,3.55-2.24,7.09-4.48,10.85-6.34,2.78-1.37,5.38-3.06,8.09-4.53,3.01-1.62,6.18-2.94,9.27-4.39,5.06-2.38,10.36-4.19,15.5-6.37,1.08-.47,2.21-.93,3.43-1.03,1.15-.1,1.21,0,.84,1.07-.38,1.11-.95,2.12-1.54,3.12-3.45,5.82-7.45,11.25-11.29,16.81-1.52,2.2-3.46,4.02-4.92,6.24-.26,.41-.94,.94-.42,1.33,.44,.34,.81-.4,1.06-.79,1.12-1.79,2.8-2.79,4.76-3.42,.68-.22,1.36-.46,2.19-.74-.62,1.4-1.55,2.4-2.36,3.47-2.01,2.65-4.21,5.14-6.7,7.36-.74,.67-1.63,.86-2.52,1.13-2.83,.85-5.73,1.57-8.35,2.99-3.67,1.98-7.09,4.32-10.28,7.02-2.51,2.12-5.09,4.17-7.63,6.26-.65,.53-1.39,.04-2.09,.22-.75,.2-1.59-.02-2.37,.2-.18,.05-.42,.08-.52-.16-.07-.18,.06-.32,.18-.44,.39-.4,.78-.82,1.2-1.2,1.04-.95,1.72-2.19,2.59-3.27,.18-.22,.26-.48,.09-.74-.21-.34-.52-.21-.81-.13-1.29,.34-2.57,.69-3.86,1.04-.34,.09-.69,.22-1.14,.09,.22-.68,.6-1.23,.98-1.75,1.12-1.57,2.01-3.29,3.23-4.8,.83-1.03,1.05-2.35,1.45-3.58,.15-.48-.17-.69-.6-.67-.19,.01-.38,.12-.55,.22-3.74,2.39-7.73,4.39-11.18,7.26-2.96,2.46-6.27,4.49-9.19,7.02-.25,.22-.54,.4-.82,.57-.18,.11-.38,.38-.61,.15-.19-.21,.01-.45,.12-.64Zm-13.77,54.03c-3.32-1.47-6.73-2.92-9.27-5.71-.45-.5-1.05-.81-1.59-1.18-1.66-1.12-2.58-2.83-3.69-4.41-.59-.85-.93-1.83-1.44-2.71-.17-.29-.12-.58-.07-.87,.1-.73,.42-.98,1.04-.44,1.64,1.43,3.57,2.42,5.37,3.62,2.21,1.47,4.66,2.11,7.23,2.32,2.23,.18,4.45,.01,6.61-.67,.58-.18,1.1-.44,1.65-.93-.76-.25-1.43-.1-2,.09-5.27,1.71-9.94,.07-14.46-2.52-1.54-.88-2.93-1.95-4.28-3.09-1.14-.97-1.36-.9-1.84,.5-.2,.58-.44,.52-.87,.2-3.39-2.52-4.67-5.98-4.64-10.08,.01-1.64,1.07-2.72,2.2-3.45,2.37-1.54,4.97-2.7,7.73-3.42,.59-.16,.92-.62,1.18-1.14,.64-1.24,1.11-2.61,1.94-3.71,1.95-2.6,3.3-5.64,5.56-7.99,1.82-1.88,3.81-3.56,6.69-3.82,1.6-.14,3.15-.84,4.77-1,.95-.09,1.94-.44,2.81,.46,.41,.42,.92-.14,1.3-.42,1.59-1.2,3.11-2.49,4.7-3.71,1.74-1.33,3.49-2.65,5.26-3.95,2.59-1.92,5.14-3.9,7.78-5.76,1.64-1.16,3.24-2.43,5.33-3.21-1.21,2.48-2.46,4.71-4.05,6.74-.99,1.27-1.47,2.82-2.37,4.15-.16,.23-.41,.56-.15,.81,.34,.32,.64-.04,.85-.24,1.43-1.41,3.4-1.29,5.15-1.88-1.15,1.68-2.12,3.46-3.83,4.63-.05,.03-.12,.05-.17,.09-.24,.16-.82-.28-.74,.32,.07,.49,.63,.44,1.01,.41,1.75-.12,3.52,.31,5.36-.16-.4,.45-.84,.86-1.2,1.34-1.4,1.91-3.14,3.51-4.71,5.25-.29,.32-.63,.61-.77,1.04-.08,.25-.21,.56,.06,.73,.28,.2,.49-.09,.66-.28,.77-.83,1.51-1.69,2.3-2.49,4.59-4.68,9.48-9.04,14.61-13.13,2.24-1.78,4.51-3.54,6.88-5.11,1.7-1.13,3.59-2.02,5.61-2.54,2.71-.69,5.4-1.44,8.1-2.15,3.15-.84,6.3-1.66,9.45-2.49,2.54-.68,5.05-1.46,7.61-2.02,2.79-.62,5.59-1.22,8.37-1.9,6.11-1.5,12.36-2.17,18.61-2.87,3.73-.41,7.45-.95,11.17-1.43,.27-.04,.63-.26,.8,.11,.13,.27-.17,.47-.3,.7-.95,1.67-2.61,2.63-3.94,3.93-1.66,1.63-3.05,3.51-4.75,5.11-2.88,2.71-5.69,5.5-8.52,8.27-1.73,1.7-3.37,3.5-5.19,5.09-2.1,1.84-4.01,3.89-6.08,5.75-.25,.22-.63,.52-.43,.81,.28,.38,.69,.03,.95-.18,.56-.45,1.18-.64,1.86-.5,2.06,.43,4.17,.43,6.21,.94,.29,.08,.67,.06,.75,.39,.1,.45-.37,.52-.64,.64-2.98,1.32-6.03,2.46-9.1,3.57-5.8,2.11-11.9,3.14-17.77,4.99-6.31,1.99-12.84,2.84-19.36,3.78-1.68,.24-3.35,.49-5.04,.68-.69,.07-1.41,.35-2.13,.51,1.6,.53,3.22-.19,4.78,.11,1.58,.31,2.99,1.19,4.43,2.04-.91,.08-1.82,.24-2.73,.24-5.52,.01-11.03-.18-16.51-.91-.13-.02-.27-.04-.4-.03-.26,.01-.59,0-.65,.33-.06,.35,.26,.43,.52,.47,.95,.15,1.91,.29,2.87,.39,1.35,.15,2.71,.36,4.07,.36,1.77-.01,3.26,.64,4.56,1.73,2.01,1.68,4.27,3.03,6.44,4.82-1.39,.4-2.62,.84-3.93,1.01-.27,.04-.65-.23-.77,.2-.12,.39,.19,.61,.47,.8,1.45,1.06,2.93,2.08,4.36,3.16,1.55,1.18,3.06,2.41,4.79,3.77-2.09,.12-3.9,.21-5.71,.31-2.81,.17-5.56-.47-8.35-.6-.43-.01-1.17-.26-1.23,.24-.07,.6,.72,.5,1.16,.63,.6,.19,1.23,.23,1.69,.76,1.88,2.11,3.77,4.2,5.72,6.37-.53,.29-1,.12-1.48,.05-.72-.1-1.44-.21-2.17-.3-.24-.03-.58-.21-.69,.15-.09,.31,.21,.48,.44,.6,1.29,.68,2.6,1.34,3.9,2.01,.58,.31,1.16,.62,1.9,1.01-2.44,.2-4.68,.32-6.9-.18-1.76-.4-3.56-.45-5.35-.51-1.97-.07-3.92-.26-5.88-.35-.41-.02-.83-.04-1.08,.33-.24,.36,.12,.62,.25,.9,.5,1.06,1.41,1.84,2.09,2.97-1.81-.45-3.41-1.08-5-1.69-.2-.08-.35-.39-.6-.21-.27,.19-.14,.49-.09,.74,.36,1.9,1.02,3.72,1.65,5.54,.31,.91,.71,1.79,1.07,2.69,.14,.36,.44,.79,.17,1.12-.32,.39-.83,.12-1.21,0-1.64-.55-3.27-1.14-4.9-1.72-1.22-.44-2.43-.91-3.54-1.6-.35-.22-.8-.3-1.14-.06-.43,.31,.01,.66,.1,.98,.23,.8,.49,1.59,.73,2.38,.04,.16,.1,.35-.06,.47-.15,.11-.31-.01-.45-.09-1.48-.84-2.95-1.66-4.41-2.52-.25-.14-.4-.44-.6-.66-.25-.28-.39-.81-.91-.51-.38,.22-.43,.63-.34,1.06,.33,1.56,.66,3.12,.94,4.69,.26,1.54,.46,3.09,.68,4.63,.04,.32,.11,.66-.07,.95-.17,.09-.28,0-.37-.1-2.31-2.33-4.97-4.32-6.9-7.02-.49-.69-.82-.48-1.17,.1-.96,1.58-1.4,3.37-2.07,5.07-.11,.27-.08,.6-.48,.84-.54-2.08-1.87-3.82-2.08-5.98-.05-.5-.23-.97-.32-1.46-.09-.48-.05-.83,.59-.54,.23,.11,.56,.23,.66-.15,.08-.31-.16-.47-.4-.62-1-.61-2.1-.99-3.19-1.36-2.34-.78-4.79-1.28-7.03-2.26Zm4.05,44.79c-1.14,1.35-2.36,2.63-3.59,3.89-2.14,2.19-4.05,4.6-6.29,6.69-.24,.22-.42,.52-.84,.65-.2-1.1,.21-2.08,.52-3.05,1.16-3.54,2.66-6.96,4.07-10.4,.51-1.23,.96-2.48,1.37-3.75,.95-2.93,2.6-5.54,3.87-8.32,1.66-3.66,3.4-7.29,5.11-10.93,.08-.18,.27-.38,.06-.53-.29-.2-.42,.1-.53,.27-.29,.45-.63,.89-.81,1.38-.58,1.54-1.75,2.31-3.24,2.82-1.54,.52-3.03,1.2-4.54,1.8-.27,.1-.61,.38-.83,.13-.3-.35,.15-.6,.33-.82,2.28-2.77,4.57-5.54,6.88-8.29,1.09-1.3,2.22-2.56,3.33-3.85,.23-.26,.61-.62,.2-.92-.35-.28-.55,.21-.76,.43-.4,.44-.83,.88-1.14,1.39-.9,1.43-2.33,1.65-3.81,1.78-.25,.02-.59,.14-.7-.19-.09-.3,.21-.47,.4-.64,1.46-1.25,2.71-2.74,4.25-3.91,.13-.1,.31-.19,.24-.39-.07-.19-.27-.14-.41-.2-.61-.27-1.14,.07-1.71,.14-2.69,.34-5.39,.65-8.08,.98-1.48,.18-2.97,.39-4.45,.57-.48,.06-.97,.05-1.49,.08,2.82-2.09,5.56-4.13,8.32-6.13,1.1-.81,2.25-1.55,3.38-2.3,.44-.29,.92-.34,1.44-.23,3.08,.61,3.16,.58,3.81,3.65,.55,2.54,1.91,4.73,2.91,7.07,.12,.28,.33,.53,.68,.49,.3-.04,.41-.32,.49-.57,.51-1.52,1-3.04,1.51-4.55,.14-.42,.06-1,.64-1.15,.6-.15,1.04,.24,1.37,.65,.99,1.21,1.99,2.43,3.18,3.45,1.33,1.14,2.42,2.57,3.96,3.47,.84,.48,1.13,.31,1.13-.67,0-1.31-.23-2.6-.55-3.84-.53-2.07-.83-4.15-1.1-6.32,.62,.1,1.1,.48,1.55,.82,1.16,.86,2.54,1.33,3.74,2.1,.31,.2,.66,.33,1.03,.1,.44-.27,.26-.65,.18-.98-.23-1-.49-1.99-.74-2.98,.38-.23,.62,.02,.87,.14,2.96,1.41,6.06,2.36,9.23,3.14,.9,.22,1.08-.17,1.05-.91-.02-.57-.24-1.1-.45-1.62-.84-2.14-1.67-4.28-2.5-6.42-.07-.2-.29-.43-.07-.64,.2-.19,.44-.05,.66,.02,1.4,.42,2.84,.68,4.29,.94,.28,.05,.62,.21,.83-.08,.23-.31-.06-.54-.2-.8-.46-.86-1.14-1.55-1.72-2.32-.15-.21-.43-.43-.29-.7,.17-.33,.53-.16,.81-.15,6.08,.23,12.12,1.11,18.21,1.14,.37,0,.91,.23,1.04-.29,.12-.44-.39-.65-.69-.89-.97-.75-2.1-1.26-3.19-1.84-.27-.14-.63-.21-.73-.58,.06-.17,.2-.17,.33-.2,1.11-.2,1.35-.85,.59-1.7-1.56-1.77-3.15-3.52-4.72-5.28-.17-.19-.42-.34-.39-.71,1.09-.26,2.16,.08,3.24,.13,2.96,.13,5.92-.05,8.87-.23,.27-.02,.56-.04,.69-.32,.14-.34-.07-.58-.3-.78-1.12-1-2.26-1.97-3.51-2.81-1.05-.71-1.03-.9,.04-1.5,2.33-1.3,4.81-2.29,7.19-3.48,.21-.11,.5-.33,.72-.07,.18,.21-.05,.42-.16,.62-.41,.76-.82,1.52-1.22,2.29-.26,.51-.6,.87-1.23,.85-.19,0-.45,.02-.43,.29,.03,.23,.27,.28,.47,.29,.53,.03,1.06,.04,1.59-.09,5.26-1.32,10.56-2.51,15.89-3.51,6.93-1.28,13.81-2.85,20.77-3.99,1.7-.28,3.4-.48,5.25-.75-.32,.65-.77,1.01-1.22,1.37-2.65,2.08-5.61,3.67-8.44,5.48-3.16,2.02-6.37,3.97-9.45,6.13-1.77,1.24-3.58,2.41-5.27,3.78-.57,.46-1.31,.45-1.99,.55-2.18,.3-4.31,.83-6.46,1.24-.15,.03-.29,.12-.43,.18,.02,.1,.03,.19,.05,.29,6.44-.86,12.88-1.72,19.32-2.59-1.05,.84-2.09,1.63-3.28,2.21-1.07,.54-2.15,1.06-3.08,1.84-.5,.42-1.07,.47-1.68,.4-.29-.03-.67-.14-.76,.25-.1,.39,.33,.44,.57,.58,.16,.1,.36,.18,.55,.21,4.56,.76,9.05,1.84,13.56,2.86,4.83,1.09,9.66,2.23,14.31,3.96,.3,.11,.78,.08,.74,.51-.04,.43-.5,.33-.81,.37-3.83,.53-7.66,1.01-11.47,1.6-1.75,.27-3.5,.33-5.26,.46-4.61,.33-9.18,1.02-13.77,1.5-2.07,.22-4.11,.64-6.24,.59-1.83-.05-3.21-.93-4.7-1.69-.29-.15-.47-.49-.86-.45,.34,.94,.9,1.41,3.83,3.06,1.45,.81,2.93,1.56,4.58,2.43-1.17,.66-2.29,.87-3.41,.97-1.09,.09-2.12,.53-3.26,.35-.54-.09-.18,.46-.06,.62,.6,.84,1.23,1.65,1.89,2.45,2.39,2.89,4.8,5.76,7.38,8.86-.62-.07-1.05-.01-1.36-.17-2.38-1.18-5.04-1.16-7.53-1.89-1.33-.39-2.57-.86-3.33-2.13-.14-.24-.31-.64-.66-.4-.33,.22-.06,.55,.1,.78,1.22,1.75,2.47,3.48,3.69,5.22,2.54,3.62,5.19,7.17,7.56,10.9,2.05,3.24,4.32,6.31,6.5,9.45,.13,.18,.33,.34,.29,.68-.89,.06-1.62-.41-2.24-.87-1.47-1.07-3.08-1.87-4.67-2.68-4.01-2.04-7.86-4.32-11.62-6.78-2.61-1.71-5.4-3.15-8.1-4.72-2.55-1.5-5-3.16-7.39-4.9-.21-.15-.28-.36-.39-.57-.09-.18-.09-.54-.42-.41-.27,.1-.19,.4-.13,.62,.33,1.37,1,2.61,1.59,3.87,1.31,2.81,2.22,5.77,3.44,8.61,.62,1.42,1.27,2.83,1.91,4.25-.09,.05-.17,.11-.26,.16-1.22-1.02-2.37-2.11-3.44-3.29-.16-.17-.3-.35-.47-.51-.18-.16-.39-.28-.64-.15-.27,.16-.19,.4-.11,.62,.34,1.08,.62,2.18,1.06,3.22,1.47,3.43,2.36,7.07,3.82,10.5,1.25,2.92,2.12,5.96,3.17,8.94,.05,.15,.07,.31,.12,.56-.61-.13-.93-.51-1.25-.86-2.51-2.77-5.43-5.1-8.13-7.66-1.52-1.45-3.07-2.85-4.61-4.27-2.22-2.06-4.67-3.85-6.82-5.98-.91-.89-1.65-1.93-2.56-2.8-.17-.18-.25-.55-.59-.41-.3,.12-.27,.46-.27,.7,.04,1.23,.08,2.46,.19,3.68,.19,1.91,.24,3.82,.14,5.78-3.46-4.41-6.34-9.17-9.3-14.11-.08,.69,.06,1.18,.3,1.58,.59,.97,.52,1.94,.31,2.99-1.56,7.82-2.69,15.72-4.07,23.58-.5,2.88-.85,5.78-1.28,8.77-.65-.28-.77-.82-.94-1.28-1.13-3.17-2.31-6.31-3.35-9.51-.82-2.52-1.32-5.15-2.19-7.66-1.51-4.34-1.94-8.89-2.93-13.33-.83-3.7-1.4-7.45-1.52-11.25-.02-.51-.07-1.04-.46-1.58-.67,1.21-.25,2.37-.13,3.47,.1,.97-.07,1.62-.74,2.39-3.5,4.09-6.88,8.28-10.34,12.4Zm15.49,80.9c-.07,.42,.12,1.05-.54,1.14-.61,.1-1.19-.07-1.6-.6-1.3-1.68-1.23-3.68,.18-5.28,.16-.19,.43-.32,.38-.65-1.59,.52-2.43,2.64-2.29,5.75-2.74-1.26-3.17-4.77-.82-6.62,.12-.1,.33-.18,.24-.37-.1-.24-.33-.18-.51-.1-1.05,.47-1.61,1.36-1.99,2.39-.08,.23-.12,.48-.22,.85-.22-1.89,.13-3.3,1.62-4.55,2.52-2.12,3.47-5.23,4.36-8.26,.88-2.96,1.73-5.95,2.05-9.04,.63-6.17,.7-12.29-.31-18.48-.96-5.79-2.62-11.39-3.72-17.13-1.32-6.92-2.69-13.84-3.39-20.86-.24-2.41-.46-4.83-.28-7.26,.1-1.36,1.19-2.02,2.02-2.84,.36-.36,.52,.18,.58,.5,.32,1.66,.68,3.32,.91,5,.11,.83,.31,1.63,.48,2.44,1.02,4.99,1.83,10.02,3.4,14.87,1.59,4.91,3.21,9.8,5.24,14.55,.27,.64,.75,1.09,1.12,1.63,.14,.2,.34,.34,.6,.28,.31-.07,.41-.32,.44-.6,.2-2.22,.66-4.4,1-6.6,.22-1.41,.68-2.79,.81-4.23,.25,2.04,.5,4.08,.74,6.12,.65,5.62,.84,11.27,1.37,16.89,.14,1.57-.03,3.15-.27,4.68-.86,5.28-1.44,10.6-2.8,15.8-.93,3.53-1.63,7.12-2.53,10.66-.53,2.09-1.55,3.86-3.45,5.15-1.61,1.1-2.47,2.83-2.82,4.77Zm99.61-41.61c-1.68,1.83-3.5,3.56-4.98,5.58-2.29,3.15-5.05,5.91-7.64,8.81-1.7,1.9-3.51,3.73-5.21,5.61-1.53,1.69-3.32,3.05-4.92,4.62-1.38,1.34-3.37,1.51-5.21,1.77-1.88,.26-3.77,.36-5.66,.41-.8,.02-1.06-.23-.89-1.06,.28-1.29,.23-2.66,1.12-3.77,.13-.17,.29-.45,.02-.61-.25-.14-.43,.11-.59,.27-1.08,1.13-1.54,2.53-1.75,4.05-.13,.96-.41,1.1-1.32,.73-.37-.15-.76-.28-1.08-.51-1.97-1.34-2.21-2.35-.85-4.06,.43-.55,.98-.99,1.46-1.5,.19-.2,.52-.33,.43-.81-1.33,.36-2.02,1.55-3.11,2.33-.2-.86,.23-1.45,.63-1.96,1.33-1.7,3.09-2.91,5.28-2.78,2.54,.14,4.29-1.03,5.95-2.68,3.05-3.02,5.42-6.53,7.7-10.14,1.3-2.07,1.94-4.43,3.17-6.52,.64-1.09,.42-2.43,.18-3.62-.66-3.17-1.71-6.23-2.85-9.24-1.45-3.79-2.97-7.55-4.83-11.16-.19-.35-.38-.7-.59-1.04-.66-1.02-.6-1.2,.54-1.44,3.15-.69,5.58,.55,7.57,2.89,3.55,4.19,6.02,9.06,8.74,13.79,2.29,3.99,4.75,7.96,8.72,10.61,.81,.54,.4,.96-.03,1.43Zm62.15-76.48c-2.47,1.31-4.73,2.96-7.18,4.32-2.76,1.53-5.6,2.89-8.49,4.16-3.07,1.35-6.11,2.79-9.1,4.3-2,1-4.1,1.76-6.15,2.61-1.02,.43-1.87,1.17-2.94,1.48-.16,.05-.32,.17-.27,.36,.07,.25,.31,.27,.49,.2,1.57-.59,2.81,.26,4.15,.86,2.28,1.02,4.62,1.89,6.91,2.88,3.73,1.6,7.45,3.23,11.17,4.86,.1,.04,.17,.16,.33,.31-.87,.36-1.71,.26-2.51,.36-2.81,.34-5.62,.69-8.43,.87-3.28,.21-6.54,.84-9.85,.56-.63-.05-1.56-.15-1.81,.47-.25,.6,.68,.85,1.08,1.26,1.12,1.14,2.33,2.19,3.39,3.38,1.61,1.8,3.61,3.14,5.35,4.77,1.26,1.19,2.59,2.3,3.88,3.45,.16,.15,.28,.34,.48,.59-.69,.14-1.24-.05-1.75-.2-1.56-.49-3.15-.83-4.75-1.14-.51-.1-.92-.37-1.36-.61-.21-.12-.44-.22-.64,0-.19,.22-.06,.45,.07,.64,.52,.75,1.16,1.38,1.86,1.95,1.49,1.23,2.71,2.74,4.15,4.02,.19,.17,.51,.34,.37,.64-.14,.29-.47,.16-.72,.1-1.25-.3-2.55-.43-3.71-1.07-.15-.09-.31-.2-.44-.03-.22,.27-.05,.52,.12,.72,.71,.83,1.54,1.56,2.35,2.3,1.38,1.25,2.72,2.54,4.15,3.88-.43,.19-.78,.07-1.1-.03-.72-.24-1.42-.56-2.15-.78-4.24-1.3-8.24-3.19-12.34-4.82-3.21-1.28-6.45-2.48-9.69-3.69-3.08-1.15-6.16-2.31-9.28-3.36-2.97-1-5.94-1.97-8.9-2.97-1.95-.67-3.89-1.36-5.83-2.04-.28-.1-.56-.34-.82-.03-.21,.25,0,.5,.07,.75,.14,.5,.63,1.14,.25,1.48-.39,.34-.95-.24-1.41-.47-1.32-.63-2.6-1.33-3.91-2-.72-.36-1.13-1.01-1.58-1.63-.11-.16-.2-.36-.65-.22,.91,1.99,2.38,3.61,3.6,5.6-5.57-2.63-10.13-6.58-15.51-9.15,.26,.84,.96,1.21,1.58,1.57,4.07,2.34,7.81,5.2,11.86,7.58,1,.59,1.94,1.28,3.05,1.69,.27,.1,.57,.29,.81-.01,.24-.29,.19-.61,0-.93-.5-.87-1.4-1.42-1.85-2.49,.78,.1,1.31,.51,1.89,.77,.97,.45,1.92,.93,2.87,1.41,.22,.1,.43,.22,.64,.02,.18-.17,.23-.41,.17-.65-.03-.09-.09-.18-.12-.27-.17-.44-.67-.92-.24-1.36,.48-.49,1.07-.07,1.58,.13,3.82,1.46,7.69,2.78,11.59,4.03,2.06,.65,4.06,1.48,6.08,2.24,3.24,1.2,6.47,2.44,9.73,3.61,.72,.26,1.1,.67,1.16,1.42,.16,2.36,.3,4.71,.5,7.06,.46,5.58,1.01,11.12,3.2,16.38,1.87,4.5,4.73,8.31,7.77,12.02,1.28,1.56,1.64,3.21,1.31,5.1-.39,2.31-1.6,4.29-2.62,6.33-1.74,3.48-3.65,6.88-5.82,10.11-1.27,1.87-2.48,3.78-3.77,5.64-1.01,1.44-1.41,3.25-2.78,4.46-.05,.04-.06,.13-.11,.17-2.74,2.26-5.61,4.31-9.26,4.73-2.24,.26-2.86-.53-2.59-2.93,.12-1.06,.2-2.12,.59-3.13,.07-.21,.21-.44-.1-.7-1.2,.98-1.43,2.38-1.68,3.77-.16,.89,.14,1.71,.36,2.54,.29,1.04,.19,1.1-.91,1.03-1.98-.13-3.29-1.31-3.92-2.99-.62-1.66-.2-3.35,1.07-4.72,.16-.18,.32-.34,.47-.52,.04-.04,.03-.12,.05-.18-.98-.07-1.1,.09-2.97,3.92-1.26-2.76,.36-6.34,3.24-7.13,.64-.18,1.3-.35,1.95-.43,2.33-.28,3.94-1.57,5.24-3.43,1.89-2.73,3.08-5.81,4.54-8.76,.94-1.91,1.83-3.84,2.79-5.74,.26-.52,.42-1.05,.62-1.58,.6-1.58,.53-2.1-.9-3.04-1.99-1.3-3.64-2.99-5.53-4.4-1.93-1.45-4.12-2.44-6.11-3.76-2.94-1.95-6.16-3.43-9.03-5.49-2.31-1.66-3.82-3.95-5.35-6.25-2.56-3.86-4.6-8.03-7.14-11.89-1.63-2.48-3.6-4.69-5.51-6.95-1.13-1.34-2.85-1.36-4.35-1.26-3.08,.2-6.16,.59-9.09,1.67-.56,.21-1.14,.38-1.67,.65-3.32,1.72-7.03,2.24-10.49,3.49-2.82,1.02-5.67,1.93-8.48,2.94-2.16,.77-4.47,1.12-6.79,.9-.77-.07-1.52,.12-2.28,.04-.69-.07-1.01-.24-.53-.98,.55-.84,1.34-1.65,.78-2.92-.95,.52-1.36,1.49-1.79,2.36-2.24,4.55-3.74,9.39-5.39,14.17-1.75,5.08-2.81,10.32-3.81,15.58-.35,1.86-.53,3.75-.87,5.62-.69,3.72-1.24,7.47-2.13,11.16-.82,3.39-1.42,6.83-2.22,10.22-.91,3.87-2.51,7.31-5.81,9.85-1.16,.89-2.39,1.65-3.6,2.45-.86,.56-1.82,.37-2.71,.13-.58-.15-.68-.76-.7-1.31-.08-1.7,.02-3.38,.9-4.99-.69,.33-1.37,1.24-1.5,2.11-.16,1.11-.41,2.21-.2,3.37,.23,1.28-.06,1.38-1.35,1.05-1.5-.38-2.63-1.16-3.42-2.49-.89-1.49-.84-2.97,.22-4.37,.17-.23,.46-.39,.41-.75-1.17,.63-1.9,1.91-2.28,3.92-.72-2.15-.94-4.09,.59-5.9,.37-.45,.93-.31,1.27-.7,.93-1.03,1.98-1.96,2.61-3.25,1.12-2.28,1.43-4.78,2.03-7.19,1.01-4.1,1.95-8.22,2.76-12.36,.66-3.36,1.33-6.73,1.54-10.15,.16-2.55,.04-5.13-.09-7.68-.17-3.32-.39-6.64-.72-9.95-.34-3.4-.41-6.83-1.24-10.17-.56-2.22-.5-4.45-.05-6.7,.6-3.03,1.14-6.08,1.65-9.13,.26-1.54,.44-3.1,.8-4.62,.07-.29,.08-.61,.44-.72,.43-.12,.6,.22,.78,.48,1.29,1.94,2.59,3.87,3.85,5.84,.7,1.09,1.58,2.06,2.14,3.25,.11,.22,.32,.43,.54,.57,.35,.23,.73,.57,1.18,.32,.42-.24,.31-.72,.26-1.1-.31-2.51,.04-5.06-.52-7.55-.06-.28-.14-.66,.17-.83,.38-.21,.61,.17,.8,.4,2.84,3.45,6.6,5.88,9.74,9,1.75,1.73,3.62,3.34,5.37,5.07,2.32,2.29,4.73,4.48,7.31,6.48,.32,.24,.66,.57,1.07,.27,.38-.27,.15-.67,.05-1.01-1.39-4.73-3.03-9.37-4.85-13.95-.87-2.19-1.54-4.47-2.48-6.64-.16-.35-.22-.74-.34-1.16,.66,.01,.96,.43,1.32,.75,.68,.6,1.34,1.21,2.01,1.8,.28,.24,.6,.5,.98,.24,.4-.28,.23-.67,.08-1-.64-1.5-1.25-3.01-1.98-4.47-.62-1.22-1.14-2.47-1.55-3.77-.64-2-1.53-3.91-2.37-5.83-.11-.25-.43-.55-.12-.8,.23-.19,.5,.05,.71,.2,3.17,2.28,6.59,4.14,9.89,6.2,3.81,2.38,7.67,4.68,11.57,6.91,3.21,1.83,6.63,3.27,9.77,5.22,.48,.3,1.01,.51,1.52,.75,.39,.18,.82,.47,1.19,.05,.37-.43,.02-.84-.22-1.17-1.32-1.83-2.47-3.79-3.92-5.53-1.57-1.9-2.65-4.14-4.08-6.14-2.69-3.76-5.37-7.53-8.06-11.3-.18-.26-.51-.54-.3-.87,.24-.37,.62-.09,.92-.03,2.89,.62,5.73,1.49,8.69,1.8,.37,.04,.83,.3,1.09-.16,.23-.41-.15-.69-.37-.96-2.58-3.26-5.2-6.48-8.01-9.55-.19-.21-.56-.37-.44-.71,.12-.32,.49-.32,.77-.38,1.61-.29,3.17-.76,4.71-1.32,.37-.14,.81-.23,.85-.72,.04-.5-.41-.64-.75-.83-.72-.41-1.46-.8-2.19-1.2-.19-.11-.49-.19-.43-.48,.06-.28,.36-.25,.58-.3,1.86-.44,3.77-.33,5.65-.61,3.85-.57,7.74-.73,11.6-1.24,2.89-.38,5.82-.49,8.72-.93,2.96-.46,5.92-.88,8.89-1.29,1.11-.16,2.25-.21,3.37-.33,.5-.06,1.07-.16,1.1-.79,.03-.62-.56-.66-1-.79-3.18-.95-6.3-2.15-9.54-2.93-1.49-.35-2.94-.83-4.41-1.24-.58-.16-.67-.36-.27-.78,3.2-3.37,6.42-6.73,9.63-10.1,.06-.06,.17-.08,.36-.17-.41,1.93-.95,3.71-1.95,5.32-.15,.24-.5,.47-.17,.76,.28,.25,.55-.02,.8-.17,1.71-1.04,3.22-2.36,4.81-3.56,2.41-1.84,4.47-4.08,6.87-5.93,2.17-1.68,4.27-3.46,6.61-5.37-.57,2.17-1.46,3.94-2.12,5.78-1.31,3.63-3.12,7.05-4.17,10.79-.5,1.8-1.76,3.35-2.33,5.17-.42,1.34-.82,2.68-1.81,3.73-.07,.07-.1,.27-.05,.36,.12,.21,.35,.17,.53,.09,.83-.36,1.68-.67,2.46-1.1,6.15-3.38,12.49-6.41,18.54-9.98,4.7-2.77,9.62-5.13,14.52-7.54,2.53-1.25,5.02-2.58,7.6-3.8-.76,1.71-1.77,3.24-2.91,4.68-.35,.44-1.02,.45-1.55,.64-.78,.28-1.58,.52-2.36,.81-.22,.08-.62,.1-.5,.47,.11,.33,.44,.21,.7,.15,1.95-.4,3.86-.99,5.74-1.68,2.25-.82,4.52-1.59,6.78-2.37,.18-.06,.37-.18,.58-.05,.12,.29-.14,.41-.28,.56-2.93,3.19-6.12,6.1-9.23,9.11-2.78,2.7-5.69,5.31-8.17,8.33-1.6,1.95-3.44,3.69-5.33,5.38-.71,.64-1.36,1.37-1.94,2.14-.42,.55-.87,.85-1.56,.91-1.55,.13-3.1,.31-4.66,.46-.29,.03-.68-.09-.7,.34,0,.41,.4,.45,.67,.44,1.46-.02,2.93,.02,4.37-.16,5.55-.68,11.12-1.16,16.69-1.59,3.07-.23,6.15-.56,9.22-.97,3.42-.46,6.87-.81,10.33-.96,1.49-.06,2.97-.29,4.46-.46,.28-.03,.57-.14,.99,.12-1.5,.88-2.88,1.76-4.31,2.53Z"/>
      <path class="cls-4" d="M139.56,106.82c-.04,.43-.5,.33-.81,.37-3.83,.53-7.66,1.01-11.47,1.6-1.75,.27-3.5,.33-5.26,.46-4.61,.33-9.18,1.02-13.77,1.5-2.07,.22-4.11,.64-6.24,.59-1.83-.05-3.21-.93-4.7-1.69-.29-.15-.47-.49-.86-.45,.34,.94,.9,1.41,3.83,3.06,1.45,.81,2.93,1.56,4.58,2.43-1.17,.66-2.29,.87-3.41,.97-1.09,.09-2.12,.53-3.26,.35-.54-.09-.18,.46-.06,.62,.6,.84,1.23,1.65,1.89,2.45,2.39,2.89,4.8,5.76,7.38,8.86-.62-.07-1.05-.01-1.36-.17-2.38-1.18-5.04-1.16-7.53-1.89-1.33-.39-2.57-.86-3.33-2.13-.14-.24-.31-.64-.66-.4-.33,.22-.06,.55,.1,.78,1.22,1.75,2.47,3.48,3.69,5.22,2.54,3.62,5.19,7.17,7.56,10.9,2.05,3.24,4.32,6.31,6.5,9.45,.13,.18,.33,.34,.29,.68-.89,.06-1.62-.41-2.24-.87-1.47-1.07-3.08-1.87-4.67-2.68-4.01-2.04-7.86-4.32-11.62-6.78-2.61-1.71-5.4-3.15-8.1-4.72-2.55-1.5-5-3.16-7.39-4.9-.21-.15-.28-.36-.39-.57-.09-.18-.09-.54-.42-.41-.27,.1-.19,.4-.13,.62,.33,1.37,1,2.61,1.59,3.87,1.31,2.81,2.22,5.77,3.44,8.61,.62,1.42,1.27,2.83,1.91,4.25-.09,.05-.17,.11-.26,.16-1.22-1.02-2.37-2.11-3.44-3.29-.16-.17-.3-.35-.47-.51-.18-.16-.39-.28-.64-.15-.27,.16-.19,.4-.11,.62,.34,1.08,.62,2.18,1.06,3.22,1.47,3.43,2.36,7.07,3.82,10.5,1.25,2.92,2.12,5.96,3.17,8.94,.05,.15,.07,.31,.12,.56-.61-.13-.93-.51-1.25-.86-2.51-2.77-5.43-5.1-8.13-7.66-1.52-1.45-3.07-2.85-4.61-4.27-2.22-2.06-4.67-3.85-6.82-5.98-.91-.89-1.65-1.93-2.56-2.8-.17-.18-.25-.55-.59-.41-.3,.12-.27,.46-.27,.7,.04,1.23,.08,2.46,.19,3.68,.19,1.91,.24,3.82,.14,5.78-3.46-4.41-6.34-9.17-9.3-14.11-.08,.69,.06,1.18,.3,1.58,.59,.97,.52,1.94,.31,2.99-1.56,7.82-2.69,15.72-4.07,23.58-.5,2.88-.85,5.78-1.28,8.77-.65-.28-.77-.82-.94-1.28-1.13-3.17-2.31-6.31-3.35-9.51-.82-2.52-1.32-5.15-2.19-7.66-1.51-4.34-1.94-8.89-2.93-13.33-.83-3.7-1.4-7.45-1.52-11.25-.02-.51-.07-1.04-.46-1.58-.67,1.21-.25,2.37-.13,3.47,.1,.97-.07,1.62-.74,2.39-3.5,4.09-6.88,8.28-10.34,12.4-1.14,1.35-2.36,2.63-3.59,3.89-2.14,2.19-4.05,4.6-6.29,6.69-.24,.22-.42,.52-.84,.65-.2-1.1,.21-2.08,.52-3.05,1.16-3.54,2.66-6.96,4.07-10.4,.51-1.23,.96-2.48,1.37-3.75,.95-2.93,2.6-5.54,3.87-8.32,1.66-3.66,3.4-7.29,5.11-10.93,.08-.18,.27-.38,.06-.53-.29-.2-.42,.1-.53,.27-.29,.45-.63,.89-.81,1.38-.58,1.54-1.75,2.31-3.24,2.82-1.54,.52-3.03,1.2-4.54,1.8-.27,.1-.61,.38-.83,.13-.3-.35,.15-.6,.33-.82,2.28-2.77,4.57-5.54,6.88-8.29,1.09-1.3,2.22-2.56,3.33-3.85,.23-.26,.61-.62,.2-.92-.35-.28-.55,.21-.76,.43-.4,.44-.83,.88-1.14,1.39-.9,1.43-2.33,1.65-3.81,1.78-.25,.02-.59,.14-.7-.19-.09-.3,.21-.47,.4-.64,1.46-1.25,2.71-2.74,4.25-3.91,.13-.1,.31-.19,.24-.39-.07-.19-.27-.14-.41-.2-.61-.27-1.14,.07-1.71,.14-2.69,.34-5.39,.65-8.08,.98-1.48,.18-2.97,.39-4.45,.57-.48,.06-.97,.05-1.49,.08,2.82-2.09,5.56-4.13,8.32-6.13,1.1-.81,2.25-1.55,3.38-2.3,.44-.29,.92-.34,1.44-.23,3.08,.61,3.16,.58,3.81,3.65,.55,2.54,1.91,4.73,2.91,7.07,.12,.28,.33,.53,.68,.49,.3-.04,.41-.32,.49-.57,.51-1.52,1-3.04,1.51-4.55,.14-.42,.06-1,.64-1.15,.6-.15,1.04,.24,1.37,.65,.99,1.21,1.99,2.43,3.18,3.45,1.33,1.14,2.42,2.57,3.96,3.47,.84,.48,1.13,.31,1.13-.67,0-1.31-.23-2.6-.55-3.84-.53-2.07-.83-4.15-1.1-6.32,.62,.1,1.1,.48,1.55,.82,1.16,.86,2.54,1.33,3.74,2.1,.31,.2,.66,.33,1.03,.1,.44-.27,.26-.65,.18-.98-.23-1-.49-1.99-.74-2.98,.38-.23,.62,.02,.87,.14,2.96,1.41,6.06,2.36,9.23,3.14,.9,.22,1.08-.17,1.05-.91-.02-.57-.24-1.1-.45-1.62-.84-2.14-1.67-4.28-2.5-6.42-.07-.2-.29-.43-.07-.64,.2-.19,.44-.05,.66,.02,1.4,.42,2.84,.68,4.29,.94,.28,.05,.62,.21,.83-.08,.23-.31-.06-.54-.2-.8-.46-.86-1.14-1.55-1.72-2.32-.15-.21-.43-.43-.29-.7,.17-.33,.53-.16,.81-.15,6.08,.23,12.12,1.11,18.21,1.14,.37,0,.91,.23,1.04-.29,.12-.44-.39-.65-.69-.89-.97-.75-2.1-1.26-3.19-1.84-.27-.14-.63-.21-.73-.58,.06-.17,.2-.17,.33-.2,1.11-.2,1.35-.85,.59-1.7-1.56-1.77-3.15-3.52-4.72-5.28-.17-.19-.42-.34-.39-.71,1.09-.26,2.16,.08,3.24,.13,2.96,.13,5.92-.05,8.87-.23,.27-.02,.56-.04,.69-.32,.14-.34-.07-.58-.3-.78-1.12-1-2.26-1.97-3.51-2.81-1.05-.71-1.03-.9,.04-1.5,2.33-1.3,4.81-2.29,7.19-3.48,.21-.11,.5-.33,.72-.07,.18,.21-.05,.42-.16,.62-.41,.76-.82,1.52-1.22,2.29-.26,.51-.6,.87-1.23,.85-.19,0-.45,.02-.43,.29,.03,.23,.27,.28,.47,.29,.53,.03,1.06,.04,1.59-.09,5.26-1.32,10.56-2.51,15.89-3.51,6.93-1.28,13.81-2.85,20.77-3.99,1.7-.28,3.4-.48,5.25-.75-.32,.65-.77,1.01-1.22,1.37-2.65,2.08-5.61,3.67-8.44,5.48-3.16,2.02-6.37,3.97-9.45,6.13-1.77,1.24-3.58,2.41-5.27,3.78-.57,.46-1.31,.45-1.99,.55-2.18,.3-4.31,.83-6.46,1.24-.15,.03-.29,.12-.43,.18,.02,.1,.03,.19,.05,.29,6.44-.86,12.88-1.72,19.32-2.59-1.05,.84-2.09,1.63-3.28,2.21-1.07,.54-2.15,1.06-3.08,1.84-.5,.42-1.07,.47-1.68,.4-.29-.03-.67-.14-.76,.25-.1,.39,.33,.44,.57,.58,.16,.1,.36,.18,.55,.21,4.56,.76,9.05,1.84,13.56,2.86,4.83,1.09,9.66,2.23,14.31,3.96,.3,.11,.78,.08,.74,.51Z"/>
      <path class="cls-1" d="M108.97,2.5c-.38,1.11-.95,2.12-1.54,3.12-3.45,5.82-7.45,11.25-11.29,16.81-1.52,2.2-3.46,4.02-4.92,6.24-.26,.41-.94,.94-.42,1.33,.44,.34,.81-.4,1.06-.79,1.12-1.79,2.8-2.79,4.76-3.42,.68-.22,1.36-.46,2.19-.74-.62,1.4-1.55,2.4-2.36,3.47-2.01,2.65-4.21,5.14-6.7,7.36-.74,.67-1.63,.86-2.52,1.13-2.83,.85-5.73,1.57-8.35,2.99-3.67,1.98-7.09,4.32-10.28,7.02-2.51,2.12-5.09,4.17-7.63,6.26-.65,.53-1.39,.04-2.09,.22-.75,.2-1.59-.02-2.37,.2-.18,.05-.42,.08-.52-.16-.07-.18,.06-.32,.18-.44,.39-.4,.78-.82,1.2-1.2,1.04-.95,1.72-2.19,2.59-3.27,.18-.22,.26-.48,.09-.74-.21-.34-.52-.21-.81-.13-1.29,.34-2.57,.69-3.86,1.04-.34,.09-.69,.22-1.14,.09,.22-.68,.6-1.23,.98-1.75,1.12-1.57,2.01-3.29,3.23-4.8,.83-1.03,1.05-2.35,1.45-3.58,.15-.48-.17-.69-.6-.67-.19,.01-.38,.12-.55,.22-3.74,2.39-7.73,4.39-11.18,7.26-2.96,2.46-6.27,4.49-9.19,7.02-.25,.22-.54,.4-.82,.57-.18,.11-.38,.38-.61,.15-.19-.21,.01-.45,.12-.64,.7-1.17,1.37-2.36,2.13-3.49,3.34-4.93,6.78-9.8,10.04-14.78,2.98-4.55,7.29-7.48,11.75-10.31,3.55-2.24,7.09-4.48,10.85-6.34,2.78-1.37,5.38-3.06,8.09-4.53,3.01-1.62,6.18-2.94,9.27-4.39,5.06-2.38,10.36-4.19,15.5-6.37,1.08-.47,2.21-.93,3.43-1.03,1.15-.1,1.21,0,.84,1.07Z"/>
      <path class="cls-1" d="M146.91,26.63c-.17-.37-.53-.15-.8-.11-3.72,.48-7.44,1.02-11.17,1.43-6.25,.7-12.5,1.37-18.61,2.87-2.78,.68-5.58,1.28-8.37,1.9-2.56,.56-5.07,1.34-7.61,2.02-3.15,.83-6.3,1.65-9.45,2.49-2.7,.71-5.39,1.46-8.1,2.15-2.02,.52-3.91,1.41-5.61,2.54-2.37,1.57-4.64,3.33-6.88,5.11-5.13,4.09-10.02,8.45-14.61,13.13-.79,.8-1.53,1.66-2.3,2.49-.17,.19-.38,.48-.66,.28-.27-.17-.14-.48-.06-.73,.14-.43,.48-.72,.77-1.04,1.57-1.74,3.31-3.34,4.71-5.25,.36-.48,.8-.89,1.2-1.34-1.84,.47-3.61,.04-5.36,.16-.38,.03-.94,.08-1.01-.41-.08-.6,.5-.16,.74-.32,.05-.04,.12-.06,.17-.09,1.71-1.17,2.68-2.95,3.83-4.63-1.75,.59-3.72,.47-5.15,1.88-.21,.2-.51,.56-.85,.24-.26-.25-.01-.58,.15-.81,.9-1.33,1.38-2.88,2.37-4.15,1.59-2.03,2.84-4.26,4.05-6.74-2.09,.78-3.69,2.05-5.33,3.21-2.64,1.86-5.19,3.84-7.78,5.76-1.77,1.3-3.52,2.62-5.26,3.95-1.59,1.22-3.11,2.51-4.7,3.71-.38,.28-.89,.84-1.3,.42-.87-.9-1.86-.55-2.81-.46-1.62,.16-3.17,.86-4.77,1-2.88,.26-4.87,1.94-6.69,3.82-2.26,2.35-3.61,5.39-5.56,7.99-.83,1.1-1.3,2.47-1.94,3.71-.26,.52-.59,.98-1.18,1.14-2.76,.72-5.36,1.88-7.73,3.42-1.13,.73-2.19,1.81-2.2,3.45-.03,4.1,1.25,7.56,4.64,10.08,.43,.32,.67,.38,.87-.2,.48-1.4,.7-1.47,1.84-.5,1.35,1.14,2.74,2.21,4.28,3.09,4.52,2.59,9.19,4.23,14.46,2.52,.57-.19,1.24-.34,2-.09-.55,.49-1.07,.75-1.65,.93-2.16,.68-4.38,.85-6.61,.67-2.57-.21-5.02-.85-7.23-2.32-1.8-1.2-3.73-2.19-5.37-3.62-.62-.54-.94-.29-1.04,.44-.05,.29-.1,.58,.07,.87,.51,.88,.85,1.86,1.44,2.71,1.11,1.58,2.03,3.29,3.69,4.41,.54,.37,1.14,.68,1.59,1.18,2.54,2.79,5.95,4.24,9.27,5.71,2.24,.98,4.69,1.48,7.03,2.26,1.09,.37,2.19,.75,3.19,1.36,.24,.15,.48,.31,.4,.62-.1,.38-.43,.26-.66,.15-.64-.29-.68,.06-.59,.54,.09,.49,.27,.96,.32,1.46,.21,2.16,1.54,3.9,2.08,5.98,.4-.24,.37-.57,.48-.84,.67-1.7,1.11-3.49,2.07-5.07,.35-.58,.68-.79,1.17-.1,1.93,2.7,4.59,4.69,6.9,7.02,.09,.09,.2,.19,.37,.1,.18-.29,.11-.63,.07-.95-.22-1.54-.42-3.09-.68-4.63-.28-1.57-.61-3.13-.94-4.69-.09-.43-.04-.84,.34-1.06,.52-.3,.66,.23,.91,.51,.2,.22,.35,.52,.6,.66,1.46,.86,2.93,1.68,4.41,2.52,.14,.08,.3,.2,.45,.09,.16-.12,.1-.31,.06-.47-.24-.79-.5-1.58-.73-2.38-.09-.32-.53-.67-.1-.98,.34-.24,.79-.16,1.14,.06,1.11,.69,2.32,1.16,3.54,1.6,1.63,.58,3.26,1.17,4.9,1.72,.38,.12,.89,.39,1.21,0,.27-.33-.03-.76-.17-1.12-.36-.9-.76-1.78-1.07-2.69-.63-1.82-1.29-3.64-1.65-5.54-.05-.25-.18-.55,.09-.74,.25-.18,.4,.13,.6,.21,1.59,.61,3.19,1.24,5,1.69-.68-1.13-1.59-1.91-2.09-2.97-.13-.28-.49-.54-.25-.9,.25-.37,.67-.35,1.08-.33,1.96,.09,3.91,.28,5.88,.35,1.79,.06,3.59,.11,5.35,.51,2.22,.5,4.46,.38,6.9,.18-.74-.39-1.32-.7-1.9-1.01-1.3-.67-2.61-1.33-3.9-2.01-.23-.12-.53-.29-.44-.6,.11-.36,.45-.18,.69-.15,.73,.09,1.45,.2,2.17,.3,.48,.07,.95,.24,1.48-.05-1.95-2.17-3.84-4.26-5.72-6.37-.46-.53-1.09-.57-1.69-.76-.44-.13-1.23-.03-1.16-.63,.06-.5,.8-.25,1.23-.24,2.79,.13,5.54,.77,8.35,.6,1.81-.1,3.62-.19,5.71-.31-1.73-1.36-3.24-2.59-4.79-3.77-1.43-1.08-2.91-2.1-4.36-3.16-.28-.19-.59-.41-.47-.8,.12-.43,.5-.16,.77-.2,1.31-.17,2.54-.61,3.93-1.01-2.17-1.79-4.43-3.14-6.44-4.82-1.3-1.09-2.79-1.74-4.56-1.73-1.36,0-2.72-.21-4.07-.36-.96-.1-1.92-.24-2.87-.39-.26-.04-.58-.12-.52-.47,.06-.33,.39-.32,.65-.33,.13-.01,.27,.01,.4,.03,5.48,.73,10.99,.92,16.51,.91,.91,0,1.82-.16,2.73-.24-1.44-.85-2.85-1.73-4.43-2.04-1.56-.3-3.18,.42-4.78-.11,.72-.16,1.44-.44,2.13-.51,1.69-.19,3.36-.44,5.04-.68,6.52-.94,13.05-1.79,19.36-3.78,5.87-1.85,11.97-2.88,17.77-4.99,3.07-1.11,6.12-2.25,9.1-3.57,.27-.12,.74-.19,.64-.64-.08-.33-.46-.31-.75-.39-2.04-.51-4.15-.51-6.21-.94-.68-.14-1.3,.05-1.86,.5-.26,.21-.67,.56-.95,.18-.2-.29,.18-.59,.43-.81,2.07-1.86,3.98-3.91,6.08-5.75,1.82-1.59,3.46-3.39,5.19-5.09,2.83-2.77,5.64-5.56,8.52-8.27,1.7-1.6,3.09-3.48,4.75-5.11,1.33-1.3,2.99-2.26,3.94-3.93,.13-.23,.43-.43,.3-.7ZM6.13,82.71c-1.06,.86-3.33,.62-4.19-.45-.29-.35-.44-.76-.24-1.2,.24-.49,.69-.57,1.21-.53,1.01,.19,2.09,.15,3.06,.66,.8,.42,.85,.95,.16,1.52Zm38.75-8.36c-.46,1.25-.87,2.52-1.45,3.72-.77,1.58-1.59,3.15-2.55,4.62-1.28,1.96-3.21,2.92-5.61,3.1-2.72-.44-5.39-1.2-7.97-2.31-1.09-.48-2.15-1.04-3.23-1.56-.18-.08-.38-.27-.53-.24-1.43,.27-.94-.69-.7-1.21,.7-1.52,1.77-2.79,3.04-3.89,4.15-3.59,9.11-4.35,14.35-4.25,1.31,.02,2.55,.23,3.8,.58,.86,.24,1.13,.66,.85,1.44Zm91.31-42.33c-2.06,.33-3.94,.95-5.07,2.91-.19,.31-.45,.58-.69,.86-2.69,3.14-5.81,5.84-8.89,8.58-3.43,3.05-6.86,6.1-10.27,9.18-1.99,1.79-4.19,3.28-6.47,4.65-.72,.43-1.42,.85-2.06,1.4-1.16,.99-2.55,1.57-4.02,1.9-4.91,1.08-9.8,2.19-14.72,3.17-3.32,.66-6.7,1.05-10.02,1.72-2.78,.56-5.55,1.07-8.37,1.24-1.2,.07-2.39,.06-3.53,.49-.3,.11-.74,.17-.87-.23-.1-.36,.33-.45,.57-.58,3.42-1.77,6.24-4.27,8.81-7.1,.06-.06,.08-.16,.11-.21-5.04,.99-9.44,3.64-14.16,5.77,0-.33-.02-.43,0-.45,2-1.44,3.42-3.51,5.35-5.03,.86-.69,1.53-1.57,2.23-2.42,3.03-3.64,7-6.1,10.95-8.56,2.15-1.34,4.11-2.96,6.38-4.1,2.65-1.33,5.44-2.29,8.28-3.11,6.97-2,13.91-4.11,20.89-6.06,4.04-1.13,8.21-1.68,12.32-2.52,1.75-.35,3.53-.63,5.27-1.07,2.6-.65,5.28-.59,7.91-1.02,.23-.04,.54-.06,.6,.2,.09,.43-.31,.35-.54,.39Z"/>
      <path class="cls-3" d="M142.45,190.78c-1.68,1.83-3.5,3.56-4.98,5.58-2.29,3.15-5.05,5.91-7.64,8.81-1.7,1.9-3.51,3.73-5.21,5.61-1.53,1.69-3.32,3.05-4.92,4.62-1.38,1.34-3.37,1.51-5.21,1.77-1.88,.26-3.77,.36-5.66,.41-.8,.02-1.06-.23-.89-1.06,.28-1.29,.23-2.66,1.12-3.77,.13-.17,.29-.45,.02-.61-.25-.14-.43,.11-.59,.27-1.08,1.13-1.54,2.53-1.75,4.05-.13,.96-.41,1.1-1.32,.73-.37-.15-.76-.28-1.08-.51-1.97-1.34-2.21-2.35-.85-4.06,.43-.55,.98-.99,1.46-1.5,.19-.2,.52-.33,.43-.81-1.33,.36-2.02,1.55-3.11,2.33-.2-.86,.23-1.45,.63-1.96,1.33-1.7,3.09-2.91,5.28-2.78,2.54,.14,4.29-1.03,5.95-2.68,3.05-3.02,5.42-6.53,7.7-10.14,1.3-2.07,1.94-4.43,3.17-6.52,.64-1.09,.42-2.43,.18-3.62-.66-3.17-1.71-6.23-2.85-9.24-1.45-3.79-2.97-7.55-4.83-11.16-.19-.35-.38-.7-.59-1.04-.66-1.02-.6-1.2,.54-1.44,3.15-.69,5.58,.55,7.57,2.89,3.55,4.19,6.02,9.06,8.74,13.79,2.29,3.99,4.75,7.96,8.72,10.61,.81,.54,.4,.96-.03,1.43Z"/>
      <path class="cls-1" d="M54.44,196.01c-.86,5.28-1.44,10.6-2.8,15.8-.93,3.53-1.63,7.12-2.53,10.66-.53,2.09-1.55,3.86-3.45,5.15-1.61,1.1-2.47,2.83-2.82,4.77-.07,.42,.12,1.05-.54,1.14-.61,.1-1.19-.07-1.6-.6-1.3-1.68-1.23-3.68,.18-5.28,.16-.19,.43-.32,.38-.65-1.59,.52-2.43,2.64-2.29,5.75-2.74-1.26-3.17-4.77-.82-6.62,.12-.1,.33-.18,.24-.37-.1-.24-.33-.18-.51-.1-1.05,.47-1.61,1.36-1.99,2.39-.08,.23-.12,.48-.22,.85-.22-1.89,.13-3.3,1.62-4.55,2.52-2.12,3.47-5.23,4.36-8.26,.88-2.96,1.73-5.95,2.05-9.04,.63-6.17,.7-12.29-.31-18.48-.96-5.79-2.62-11.39-3.72-17.13-1.32-6.92-2.69-13.84-3.39-20.86-.24-2.41-.46-4.83-.28-7.26,.1-1.36,1.19-2.02,2.02-2.84,.36-.36,.52,.18,.58,.5,.32,1.66,.68,3.32,.91,5,.11,.83,.31,1.63,.48,2.44,1.02,4.99,1.83,10.02,3.4,14.87,1.59,4.91,3.21,9.8,5.24,14.55,.27,.64,.75,1.09,1.12,1.63,.14,.2,.34,.34,.6,.28,.31-.07,.41-.32,.44-.6,.2-2.22,.66-4.4,1-6.6,.22-1.41,.68-2.79,.81-4.23,.25,2.04,.5,4.08,.74,6.12,.65,5.62,.84,11.27,1.37,16.89,.14,1.57-.03,3.15-.27,4.68Z"/>
      <path class="cls-1" d="M208.91,111.77c-1.5,.88-2.88,1.76-4.31,2.53-2.47,1.31-4.73,2.96-7.18,4.32-2.76,1.53-5.6,2.89-8.49,4.16-3.07,1.35-6.11,2.79-9.1,4.3-2,1-4.1,1.76-6.15,2.61-1.02,.43-1.87,1.17-2.94,1.48-.16,.05-.32,.17-.27,.36,.07,.25,.31,.27,.49,.2,1.57-.59,2.81,.26,4.15,.86,2.28,1.02,4.62,1.89,6.91,2.88,3.73,1.6,7.45,3.23,11.17,4.86,.1,.04,.17,.16,.33,.31-.87,.36-1.71,.26-2.51,.36-2.81,.34-5.62,.69-8.43,.87-3.28,.21-6.54,.84-9.85,.56-.63-.05-1.56-.15-1.81,.47-.25,.6,.68,.85,1.08,1.26,1.12,1.14,2.33,2.19,3.39,3.38,1.61,1.8,3.61,3.14,5.35,4.77,1.26,1.19,2.59,2.3,3.88,3.45,.16,.15,.28,.34,.48,.59-.69,.14-1.24-.05-1.75-.2-1.56-.49-3.15-.83-4.75-1.14-.51-.1-.92-.37-1.36-.61-.21-.12-.44-.22-.64,0-.19,.22-.06,.45,.07,.64,.52,.75,1.16,1.38,1.86,1.95,1.49,1.23,2.71,2.74,4.15,4.02,.19,.17,.51,.34,.37,.64-.14,.29-.47,.16-.72,.1-1.25-.3-2.55-.43-3.71-1.07-.15-.09-.31-.2-.44-.03-.22,.27-.05,.52,.12,.72,.71,.83,1.54,1.56,2.35,2.3,1.38,1.25,2.72,2.54,4.15,3.88-.43,.19-.78,.07-1.1-.03-.72-.24-1.42-.56-2.15-.78-4.24-1.3-8.24-3.19-12.34-4.82-3.21-1.28-6.45-2.48-9.69-3.69-3.08-1.15-6.16-2.31-9.28-3.36-2.97-1-5.94-1.97-8.9-2.97-1.95-.67-3.89-1.36-5.83-2.04-.28-.1-.56-.34-.82-.03-.21,.25,0,.5,.07,.75,.14,.5,.63,1.14,.25,1.48-.39,.34-.95-.24-1.41-.47-1.32-.63-2.6-1.33-3.91-2-.72-.36-1.13-1.01-1.58-1.63-.11-.16-.2-.36-.65-.22,.91,1.99,2.38,3.61,3.6,5.6-5.57-2.63-10.13-6.58-15.51-9.15,.26,.84,.96,1.21,1.58,1.57,4.07,2.34,7.81,5.2,11.86,7.58,1,.59,1.94,1.28,3.05,1.69,.27,.1,.57,.29,.81-.01,.24-.29,.19-.61,0-.93-.5-.87-1.4-1.42-1.85-2.49,.78,.1,1.31,.51,1.89,.77,.97,.45,1.92,.93,2.87,1.41,.22,.1,.43,.22,.64,.02,.18-.17,.23-.41,.17-.65-.03-.09-.09-.18-.12-.27-.17-.44-.67-.92-.24-1.36,.48-.49,1.07-.07,1.58,.13,3.82,1.46,7.69,2.78,11.59,4.03,2.06,.65,4.06,1.48,6.08,2.24,3.24,1.2,6.47,2.44,9.73,3.61,.72,.26,1.1,.67,1.16,1.42,.16,2.36,.3,4.71,.5,7.06,.46,5.58,1.01,11.12,3.2,16.38,1.87,4.5,4.73,8.31,7.77,12.02,1.28,1.56,1.64,3.21,1.31,5.1-.39,2.31-1.6,4.29-2.62,6.33-1.74,3.48-3.65,6.88-5.82,10.11-1.27,1.87-2.48,3.78-3.77,5.64-1.01,1.44-1.41,3.25-2.78,4.46-.05,.04-.06,.13-.11,.17-2.74,2.26-5.61,4.31-9.26,4.73-2.24,.26-2.86-.53-2.59-2.93,.12-1.06,.2-2.12,.59-3.13,.07-.21,.21-.44-.1-.7-1.2,.98-1.43,2.38-1.68,3.77-.16,.89,.14,1.71,.36,2.54,.29,1.04,.19,1.1-.91,1.03-1.98-.13-3.29-1.31-3.92-2.99-.62-1.66-.2-3.35,1.07-4.72,.16-.18,.32-.34,.47-.52,.04-.04,.03-.12,.05-.18-.98-.07-1.1,.09-2.97,3.92-1.26-2.76,.36-6.34,3.24-7.13,.64-.18,1.3-.35,1.95-.43,2.33-.28,3.94-1.57,5.24-3.43,1.89-2.73,3.08-5.81,4.54-8.76,.94-1.91,1.83-3.84,2.79-5.74,.26-.52,.42-1.05,.62-1.58,.6-1.58,.53-2.1-.9-3.04-1.99-1.3-3.64-2.99-5.53-4.4-1.93-1.45-4.12-2.44-6.11-3.76-2.94-1.95-6.16-3.43-9.03-5.49-2.31-1.66-3.82-3.95-5.35-6.25-2.56-3.86-4.6-8.03-7.14-11.89-1.63-2.48-3.6-4.69-5.51-6.95-1.13-1.34-2.85-1.36-4.35-1.26-3.08,.2-6.16,.59-9.09,1.67-.56,.21-1.14,.38-1.67,.65-3.32,1.72-7.03,2.24-10.49,3.49-2.82,1.02-5.67,1.93-8.48,2.94-2.16,.77-4.47,1.12-6.79,.9-.77-.07-1.52,.12-2.28,.04-.69-.07-1.01-.24-.53-.98,.55-.84,1.34-1.65,.78-2.92-.95,.52-1.36,1.49-1.79,2.36-2.24,4.55-3.74,9.39-5.39,14.17-1.75,5.08-2.81,10.32-3.81,15.58-.35,1.86-.53,3.75-.87,5.62-.69,3.72-1.24,7.47-2.13,11.16-.82,3.39-1.42,6.83-2.22,10.22-.91,3.87-2.51,7.31-5.81,9.85-1.16,.89-2.39,1.65-3.6,2.45-.86,.56-1.82,.37-2.71,.13-.58-.15-.68-.76-.7-1.31-.08-1.7,.02-3.38,.9-4.99-.69,.33-1.37,1.24-1.5,2.11-.16,1.11-.41,2.21-.2,3.37,.23,1.28-.06,1.38-1.35,1.05-1.5-.38-2.63-1.16-3.42-2.49-.89-1.49-.84-2.97,.22-4.37,.17-.23,.46-.39,.41-.75-1.17,.63-1.9,1.91-2.28,3.92-.72-2.15-.94-4.09,.59-5.9,.37-.45,.93-.31,1.27-.7,.93-1.03,1.98-1.96,2.61-3.25,1.12-2.28,1.43-4.78,2.03-7.19,1.01-4.1,1.95-8.22,2.76-12.36,.66-3.36,1.33-6.73,1.54-10.15,.16-2.55,.04-5.13-.09-7.68-.17-3.32-.39-6.64-.72-9.95-.34-3.4-.41-6.83-1.24-10.17-.56-2.22-.5-4.45-.05-6.7,.6-3.03,1.14-6.08,1.65-9.13,.26-1.54,.44-3.1,.8-4.62,.07-.29,.08-.61,.44-.72,.43-.12,.6,.22,.78,.48,1.29,1.94,2.59,3.87,3.85,5.84,.7,1.09,1.58,2.06,2.14,3.25,.11,.22,.32,.43,.54,.57,.35,.23,.73,.57,1.18,.32,.42-.24,.31-.72,.26-1.1-.31-2.51,.04-5.06-.52-7.55-.06-.28-.14-.66,.17-.83,.38-.21,.61,.17,.8,.4,2.84,3.45,6.6,5.88,9.74,9,1.75,1.73,3.62,3.34,5.37,5.07,2.32,2.29,4.73,4.48,7.31,6.48,.32,.24,.66,.57,1.07,.27,.38-.27,.15-.67,.05-1.01-1.39-4.73-3.03-9.37-4.85-13.95-.87-2.19-1.54-4.47-2.48-6.64-.16-.35-.22-.74-.34-1.16,.66,.01,.96,.43,1.32,.75,.68,.6,1.34,1.21,2.01,1.8,.28,.24,.6,.5,.98,.24,.4-.28,.23-.67,.08-1-.64-1.5-1.25-3.01-1.98-4.47-.62-1.22-1.14-2.47-1.55-3.77-.64-2-1.53-3.91-2.37-5.83-.11-.25-.43-.55-.12-.8,.23-.19,.5,.05,.71,.2,3.17,2.28,6.59,4.14,9.89,6.2,3.81,2.38,7.67,4.68,11.57,6.91,3.21,1.83,6.63,3.27,9.77,5.22,.48,.3,1.01,.51,1.52,.75,.39,.18,.82,.47,1.19,.05,.37-.43,.02-.84-.22-1.17-1.32-1.83-2.47-3.79-3.92-5.53-1.57-1.9-2.65-4.14-4.08-6.14-2.69-3.76-5.37-7.53-8.06-11.3-.18-.26-.51-.54-.3-.87,.24-.37,.62-.09,.92-.03,2.89,.62,5.73,1.49,8.69,1.8,.37,.04,.83,.3,1.09-.16,.23-.41-.15-.69-.37-.96-2.58-3.26-5.2-6.48-8.01-9.55-.19-.21-.56-.37-.44-.71,.12-.32,.49-.32,.77-.38,1.61-.29,3.17-.76,4.71-1.32,.37-.14,.81-.23,.85-.72,.04-.5-.41-.64-.75-.83-.72-.41-1.46-.8-2.19-1.2-.19-.11-.49-.19-.43-.48,.06-.28,.36-.25,.58-.3,1.86-.44,3.77-.33,5.65-.61,3.85-.57,7.74-.73,11.6-1.24,2.89-.38,5.82-.49,8.72-.93,2.96-.46,5.92-.88,8.89-1.29,1.11-.16,2.25-.21,3.37-.33,.5-.06,1.07-.16,1.1-.79,.03-.62-.56-.66-1-.79-3.18-.95-6.3-2.15-9.54-2.93-1.49-.35-2.94-.83-4.41-1.24-.58-.16-.67-.36-.27-.78,3.2-3.37,6.42-6.73,9.63-10.1,.06-.06,.17-.08,.36-.17-.41,1.93-.95,3.71-1.95,5.32-.15,.24-.5,.47-.17,.76,.28,.25,.55-.02,.8-.17,1.71-1.04,3.22-2.36,4.81-3.56,2.41-1.84,4.47-4.08,6.87-5.93,2.17-1.68,4.27-3.46,6.61-5.37-.57,2.17-1.46,3.94-2.12,5.78-1.31,3.63-3.12,7.05-4.17,10.79-.5,1.8-1.76,3.35-2.33,5.17-.42,1.34-.82,2.68-1.81,3.73-.07,.07-.1,.27-.05,.36,.12,.21,.35,.17,.53,.09,.83-.36,1.68-.67,2.46-1.1,6.15-3.38,12.49-6.41,18.54-9.98,4.7-2.77,9.62-5.13,14.52-7.54,2.53-1.25,5.02-2.58,7.6-3.8-.76,1.71-1.77,3.24-2.91,4.68-.35,.44-1.02,.45-1.55,.64-.78,.28-1.58,.52-2.36,.81-.22,.08-.62,.1-.5,.47,.11,.33,.44,.21,.7,.15,1.95-.4,3.86-.99,5.74-1.68,2.25-.82,4.52-1.59,6.78-2.37,.18-.06,.37-.18,.58-.05,.12,.29-.14,.41-.28,.56-2.93,3.19-6.12,6.1-9.23,9.11-2.78,2.7-5.69,5.31-8.17,8.33-1.6,1.95-3.44,3.69-5.33,5.38-.71,.64-1.36,1.37-1.94,2.14-.42,.55-.87,.85-1.56,.91-1.55,.13-3.1,.31-4.66,.46-.29,.03-.68-.09-.7,.34,0,.41,.4,.45,.67,.44,1.46-.02,2.93,.02,4.37-.16,5.55-.68,11.12-1.16,16.69-1.59,3.07-.23,6.15-.56,9.22-.97,3.42-.46,6.87-.81,10.33-.96,1.49-.06,2.97-.29,4.46-.46,.28-.03,.57-.14,.99,.12Z"/>
      <path d="M136.73,31.63c.09,.43-.31,.35-.54,.39-2.06,.33-3.94,.95-5.07,2.91-.19,.31-.45,.58-.69,.86-2.69,3.14-5.81,5.84-8.89,8.58-3.43,3.05-6.86,6.1-10.27,9.18-1.99,1.79-4.19,3.28-6.47,4.65-.72,.43-1.42,.85-2.06,1.4-1.16,.99-2.55,1.57-4.02,1.9-4.91,1.08-9.8,2.19-14.72,3.17-3.32,.66-6.7,1.05-10.02,1.72-2.78,.56-5.55,1.07-8.37,1.24-1.2,.07-2.39,.06-3.53,.49-.3,.11-.74,.17-.87-.23-.1-.36,.33-.45,.57-.58,3.42-1.77,6.24-4.27,8.81-7.1,.06-.06,.08-.16,.11-.21-5.04,.99-9.44,3.64-14.16,5.77,0-.33-.02-.43,0-.45,2-1.44,3.42-3.51,5.35-5.03,.86-.69,1.53-1.57,2.23-2.42,3.03-3.64,7-6.1,10.95-8.56,2.15-1.34,4.11-2.96,6.38-4.1,2.65-1.33,5.44-2.29,8.28-3.11,6.97-2,13.91-4.11,20.89-6.06,4.04-1.13,8.21-1.68,12.32-2.52,1.75-.35,3.53-.63,5.27-1.07,2.6-.65,5.28-.59,7.91-1.02,.23-.04,.54-.06,.6,.2Z"/>
      <path d="M44.03,72.91c-1.25-.35-2.49-.56-3.8-.58-5.24-.1-10.2,.66-14.35,4.25-1.27,1.1-2.34,2.37-3.04,3.89-.24,.52-.73,1.48,.7,1.21,.15-.03,.35,.16,.53,.24,1.08,.52,2.14,1.08,3.23,1.56,2.58,1.11,5.25,1.87,7.97,2.31,2.4-.18,4.33-1.14,5.61-3.1,.96-1.47,1.78-3.04,2.55-4.62,.58-1.2,.99-2.47,1.45-3.72,.28-.78,.01-1.2-.85-1.44Zm-9.87,3.2c-.89,1.44-2.24,2.21-3.67,2.41-1.47,.01-2.04-.99-1.48-2.15,.59-1.18,2.78-2.37,4.12-2.22,1.03,.12,1.58,1.07,1.03,1.96Z"/>
      <path class="cls-2" d="M34.16,76.11c-.89,1.44-2.24,2.21-3.67,2.41-1.47,.01-2.04-.99-1.48-2.15,.59-1.18,2.78-2.37,4.12-2.22,1.03,.12,1.58,1.07,1.03,1.96Z"/>
      <path d="M6.13,82.71c-1.06,.86-3.33,.62-4.19-.45-.29-.35-.44-.76-.24-1.2,.24-.49,.69-.57,1.21-.53,1.01,.19,2.09,.15,3.06,.66,.8,.42,.85,.95,.16,1.52Z"/>
      <path class="cls-5" d="M107.33,43.89c.1-.02,.21-.04,.31-.07,.19,.24,.42,.11,.64,.05,1.03-.26,2.06-.52,3.09-.76,1.42-.32,2.81-.8,4.3-.75,.29,0,.64-.09,.77,.28,.12,.34-.16,.55-.37,.76-.5,.5-1.1,.84-1.75,1.11-2.58,1.08-5.03,2.4-7.45,3.79-.27,.15-.51,.33-.57,.66-.2,1.05-.85,1.76-1.7,2.35-.41,.29-.73,.71-1.21,1.2,.62,.08,1,.08,1.39-.02,.9-.23,1.8-.43,2.71-.63,.31-.07,.72-.26,.89,.11,.17,.37-.29,.53-.49,.77-.06,.07-.16,.11-.25,.17-3.45,2.31-6.93,4.55-10.62,6.47-1.31,.68-2.71,1.24-3.86,2.21-.27-.02-.52,.05-.74,.21-.08-.1-.12-.04-.15,.04-7.84,2.01-15.83,3.14-24.08,4.39,1.66-2.43,2.71-4.83,3.92-7.15,.49-1.09,1.5-1.65,2.4-2.31,3.27-2.41,6.78-4.39,10.48-6.07,5.86-2.66,11.97-4.51,18.24-5.86,.43-.09,.96,.16,1.27-.36,.11-.01,.23-.02,.34-.04,.88,.03,1.79,.21,2.49-.54Z"/>
      <path class="cls-5" d="M35.77,78.71c1.05,.11,2.09,.13,3.04,.62,1.63,.83,1.92,2.45,.53,3.61-.92,.77-1.75,1.9-3.05,1.93-1.9,.05-3.78-.33-5.46-1.27-.88-.49-1.39-1.35-1.23-2.43,.14-.97,.84-1.46,1.7-1.76,1.46-.52,2.99-.53,4.48-.7Z"/>
    </g>
  </g>
</svg>