<?xml version="1.0" encoding="UTF-8"?>
<svg id="Layer_2" data-name="Layer 2" xmlns="http://www.w3.org/2000/svg" viewBox="0 0 128.05 137.12">
  <defs>
    <style>
      .cls-1 {
        fill: #FFFFFF;
      }
    </style>
  </defs>
  <g id="Layer_1-2" data-name="Layer 1">
    <path class="cls-1" d="M84.69,72.77c4.08-1.38,8.14-.44,12.14-1.7,2.47-1.88,7.92,1.77,8.4-2.55-.51-4.31-5.92-.73-8.34-2.65-3.7-1.26-7.41-.38-11.2-1.66-18.91,4.05,25.33-37.11,11.7-37.11-7.89,3.3-23.45,33.12-29.12,24.79-.97-3.97-10.49-28.98-11.04-14.75,6.62,30.49,4.32,28.19-17.24,50.05-3.18-5.65-8.17-47.79-14.09-35.7C45.89,199.62-79.02,20.07,89.66,2.34c7.21-.6,28.91-5.81,31.79,1.58,7.32,37.2,13.77,81.21-10.94,113.56-12.48,15.02-34.68,21.78-53.44,19.05-4.61-2.69-21.42-2.27-16.71-10.27,10.11-22.62,34.52-15.53,54.59-21.18,9.94-9.36-31.61-3.39-38.22-4.96,8.55-10.73,11.88-29.93,27.96-27.35Z"/>
  </g>
</svg>