<?xml version="1.0" encoding="UTF-8"?>
<svg id="Layer_2" data-name="Layer 2" xmlns="http://www.w3.org/2000/svg" viewBox="0 0 397.06 464.67">
  <defs>
    <style>
      .cls-1 {
        fill: #f4e0a9;
      }

      .cls-2 {
        fill: #fefefe;
      }

      .cls-3 {
        fill: #916434;
      }

      .cls-4 {
        fill: #a5ab87;
      }

      .cls-5 {
        fill: #231f20;
      }

      .cls-6 {
        fill: #87c8a3;
      }

      .cls-7 {
        fill: #5f4827;
      }
    </style>
  </defs>
  <g id="Layer_1-2" data-name="Layer 1">
    <g>
      <path class="cls-1" d="M333.48,395.44c-3.94,.51-7.5,2.41-11.42,3.05-6.41,1.05-11.85-.94-15.89-5.71-3.17-3.74-4.75-8.38-4.07-13.5,.08-.62,.51-1.42-.44-1.84-.81,1.51-.87,1.51-.86,2.67,.04,4.86,1.24,9.41,4.23,13.3,1.14,1.48,1.5,2.78,1.08,4.66-.76,3.38-2.35,6.39-3.54,9.57-3.63,9.67-7.17,19.36-10.91,28.98-1.71,4.4-4.07,8.45-8.61,10.62-2.64,1.25-4.51,.42-4.94-2.43-.33-2.17-.82-4.43,.14-6.62,.23-.53,.76-1.29-.09-1.6-.71-.26-1.02,.54-1.29,1.11-1.02,2.08-1.24,4.32-1.07,6.57,.22,3.01-.74,3.78-3.72,2.81-1.09-.36-1.83-1.09-2.35-2.09-1.52-2.91-1.35-5.85-.19-8.84,.35-.92,1.42-1.7,.69-3.11-3.12,3-4.32,6.49-3.28,10.92-3.67-2.61-4.18-8.12-1.37-12,1.16-1.6,2.48-3.08,3.78-4.56,5.03-5.76,7.92-12.48,9.45-19.93,.74-3.61,.89-7.28,1.59-10.88,1.41-7.21,2.91-14.39,4.15-21.62,.8-4.68-1.47-8.65-5.74-10.73-11.83-5.77-24.11-10.65-35.03-18.2-6.09-4.21-11.98-8.53-15.89-15.02-.65-1.07-1.33-2.22-2.99-2.85,.45,2.01,1.77,3.04,2.56,4.38,.62,1.04,2.3,1.89,1.55,3.14-.6,.99-1.9-.41-2.95-.35-.26,.02-.53-.05-.8-.06-7.99-.31-15.95-.2-23.86,1.22-10.25,1.83-20.43,3.77-30.38,6.96-5.25,1.69-10.58,3.48-16.23,3.6-.6,0-1.3,.37-1.71-.32-.38-.66,.14-1.18,.46-1.71,2.4-3.99,4.81-7.98,7.19-11.99,1.17-1.96,2.46-3.88,3.1-6.29-1.19,.37-1.42,1.3-1.88,2.01-8.22,12.66-15.14,26-20.82,39.98-3.69,9.08-7.05,18.19-5.47,28.38,1.32,8.51,6.08,14.55,12.74,19.46,1.14,.84,3.09,.47,3.55,2.45-2.29,.6-4.76,.46-7.11,.32-.08-.01-.15,0-.21,.03-14.45-1.94-23.12-10.08-23.6-27.23-1.43,1.65-1.04,3.1-.89,4.46,.43,3.95,1.34,7.78,3.44,11.21,.77,1.27,.82,2.38,.23,3.78-4.75,11.22-9.45,22.47-15.11,33.27-3.3,6.31-7.45,12.06-13.73,15.89-2.39,1.45-2.96,1.21-3.69-1.5-.6-2.24-.24-4.49,.3-7.22-2.61,2.43-3.48,5.88-2.06,8.45,1.09,1.96,.38,2.35-1.35,2.45-1.16,.07-2.33,.22-3.49,.13-4.34-.33-6.14-2.55-5.92-6.94,.09-1.88,1-3.55,1.14-5.45-1.68,1.65-2.58,3.67-3.02,5.93-.12,.63,.62,1.62-.38,1.84-.99,.22-1.27-.86-1.54-1.57-1.34-3.61-1.79-7.17,1.17-10.3,1.54-1.62,3.12-3.22,4.73-4.77,2.23-2.15,4.11-4.5,4.95-7.56,.19-.67,.54-1.35,.96-1.9,1.9-2.48,2.89-5.41,3.75-8.29,2.1-7.03,3.92-14.14,5.69-21.25,.49-1.95,1.32-3.1,3.29-3.76,3.32-1.11,5.65-3.48,6.34-6.38-3.65,4.73-8.7,6.01-13.48,7.73-5.2,1.87-10.4,1.52-15.52-.47-2.44-.95-4.04-2.92-5.7-4.8-.28-.33-.48-.81-.16-1.23,.37-.5,.83-.15,1.19,.04,1.2,.63,2.47,.92,3.81,1.19,3.98,.78,7.52-1.1,10.85-2.35,8.18-3.07,13.86-9.28,16.91-17.41,1.84-4.91,2.74-10.18,3.93-15.32,2.1-9.01,3.53-18.12,3.21-27.43-.04-1.2,.77-2.48-.39-4-1.39,9.51-.95,18.9-3.96,28.28-.47-.77-.76-1.04-.81-1.35-.92-6.19-3.38-11.84-6.08-17.42-1.84-3.79-1.07-5.46,3.59-7.1,6.82-2.39,12.04-10.86,10.61-18.2-.64,7.06-3.49,12.74-9.99,16.21,2.23-4.55,4.1-9.13,3.7-14.3-.01,1.52-.76,2.83-1.1,4.27-2.46,10.35-9.52,17.89-21.08,18.76-9.17,.69-17.97-.57-24.98-7.37-3.75-3.63-7.42-7.38-8.29-12.88-.14-.88-1.11-1.96,.12-2.66,1.17-.67,1.76,.55,2.42,1.18,4.02,3.75,8.85,5.07,14.16,4.47,10.16-1.16,17.49-6.91,23.08-15.07,1.82-2.65,3.66-5.47,4.08-9.05-.42,.2-.64,.22-.72,.34-3.9,6.28-10.63,8.46-17.57,5.7-.61-.24-1.25-.52-1.23-1.24,.03-.95,.85-.7,1.44-.74,2.8-.2,5.15-1.51,7.31-3.16,5.58-4.26,9.34-9.57,9.66-16.88,.21-4.99-.17-9.86-1.96-14.56-.52-1.37-.6-2.43,1.23-2.8,8.82-1.78,17.27-4.66,25.44-8.46,5.77-2.69,11.01-6.03,15.26-10.76,1.21-1.33,1.75-1.21,2.85,.09,2.1,2.46,4.36,4.8,7.31,6.28,.49,.25,1.19,1.17,1.55,.43,.84-1.73,2.22-.74,3-.5,2.44,.77,4.89,.9,7.41,1.09,7.63,.56,14.78-.73,20.41-6.16,6.21-5.98,11.32-12.68,9-22.24-.05-.21,.13-.47,.19-.66,.76-.24,1.06,.28,1.37,.69,3.15,4.29,5.31,8.84,5.01,14.41-.42,8.11-4.06,14.17-10.99,18.25-5.56,3.28-11.71,3.06-17.82,2.4-4.61-.49-8.98-2.03-13.32-4.03,.06,.42,.03,.64,.12,.72,.41,.34,.82,.69,1.28,.94,6.3,3.42,12.56,6.88,19.54,8.82,7.66,2.12,15.3,4.63,23.37,3.63,10.49-1.29,20.61-4.45,30.95-6.53,6.07-1.22,12.14-2.75,18.31-2.63,9.03,.17,17.01,3.48,24.18,9.12,6.03,4.74,10.43,10.45,13.45,17.46,4.56,10.55,7.59,21.6,11.19,32.47,1.98,5.94,4.04,11.85,6.83,17.48,3.14,6.33,7.35,11.93,11.99,17.17,2.54,2.87,3.16,5.92,2.53,9.44-.59,3.26-1.21,6.53-1.95,9.76-.34,1.49-.14,3.25-1.94,4.18-.72,.37-.35,1.35-.11,2,1.29,3.56,2.85,7,5.66,9.67,4.56,4.35,9.81,6.83,16.32,5.81,.82-.13,1.99-.41,2.32,.71,.26,.86-.66,1.25-1.35,1.34Z"/>
      <path class="cls-4" d="M346.74,184.13c-.88,5.45-2.49,10.78-3.89,16.13-1.65,6.33-3.29,12.66-5.15,18.93-2.55,8.61-7.93,15.25-15.37,20.06-8.2,5.3-16.59,10.32-25.01,15.27-6.62,3.9-12.46,8.77-18.28,13.7-1.1,.92-2.23,1.81-3.4,2.65-1.38,.99-2.09-.21-2.92-.98-.76-.71-.63-1.29,.07-2.04,4.93-5.3,7.67-11.84,10.07-18.51,.69-1.92,1.81-2.91,3.57-3.63,15.65-6.37,27.3-16.88,33.72-32.76,.47-1.17,1.14-2.28,1.41-3.49,.47-2.19,1.94-3.1,3.89-3.58,.44-.11,.89-.18,1.31-.33,1.3-.47,3.65-.29,3.64-1.56-.02-1.65-2.21-.57-3.39-1-1.55-.58-2.58-1.3-1.95-3.14,.03-.09,.07-.18,.06-.26-.53-5.43,3.04-7.83,7.17-9.94,1.29-.67,3.67-1.29,3.31-2.63-.41-1.5-2.69-.2-4.12-.56-.66-.16-1.42,.01-2.14,.06-3.75,.28-6.72-.75-8.86-4.21-1.45-2.33-3.53-4.28-5.41-6.33-.91-1-.92-1.67,.08-2.68,3.02-3.08,5.91-6.27,8.86-9.41,.35-.37,.96-.66,.69-1.3-.26-.64-.92-.49-1.41-.43-6.24,.8-12.61-.1-18.78,.98-4.92,.85-8.19-1.28-11.11-4.55-5.17-5.79-11.41-10.39-17.19-15.49-1.33-1.17-2.23-2.34-2.67-4.14-1.68-6.95-1.8-14.04-2.51-21.09-.36-3.67-.68-7.32-.64-11.59-.19-7.67-.67-15.92-.37-24.18,.1-2.6,.33-5.19,.51-7.79,.06-.82,.22-1.74,1.17-1.9,.93-.15,1.01,.85,1.36,1.43,4.87,8.02,9.23,16.31,13.03,24.9,1.15,2.61,2.97,4.56,5.29,6.27,13.99,10.29,27.04,21.45,37.15,35.92,6.7,9.6,12.56,19.58,17.99,29.89,2.39,4.54,.92,8.96,.22,13.31Z"/>
      <path class="cls-4" d="M393.17,158.73c-12.41-9.48-23.22-20.59-33.08-32.66-1.91-2.34-3.25-5.09-3.28-8.1-.13-13.99,.18-27.99-.53-41.99-.3-5.93,.87-11.8,.97-17.71,.14-8.05,2.1-15.58,5.79-22.68,3.74-7.19,8.69-13.59,13.29-20.21,1.95-2.8,3.91-5.6,6.07-8.23,1.12-1.35,0-2.37-.12-3.48-.1-.93-.96-.3-1.49-.04-8.61,4.2-17.17,8.54-25.86,12.56-9.42,4.36-18.64,9.24-28.8,11.81-1.67,.42-3.14,1.27-4.21,2.73-7.64,10.34-17.32,18.32-28.37,24.81-6.58,3.86-12.7,8.44-18.69,13.17-1.08,.86-2.76,1.62-1.44,3.67,5.25,8.15,9.21,17,13.53,25.65,1.01,2.02,1.99,4.1,3.98,5.31,2.16,1.32,4.09,2.91,6.11,4.4,13.17,9.73,24.77,20.91,33.97,34.6,5.62,8.35,11.12,16.72,15.21,25.95,.27,.62,.42,1.56,1.32,1.47,.83-.08,.8-.96,.64-1.52-1.04-3.66-.04-7.32,.04-10.96,.2-9.56,1.82-18.87,5.67-27.7,.45-1.01,.43-2.27,1.85-2.89-.78,2.52-1.4,5.1-2.36,7.55-4.06,10.32-4.61,21.11-4.39,32,.11,5.2,.46,10.44-.7,15.54-2.85,12.47-5.89,24.91-8.88,37.35-.2,.87-.41,1.77-.82,2.55-4.66,8.82-10.84,16.1-19.6,21.28-6.86,4.05-13.63,8.28-20.5,12.33-7.86,4.62-14.78,10.46-21.72,16.28-.7,.58-1.28,1.11-.7,1.99,.55,.82,1.29,1.74,2.42,1.01,2.45-1.58,5.18-1.2,7.84-1.23,3.78-.03,7.52,.46,11.2,1.32,2.4,.56,4.37,.02,6.07-1.85,2-2.19,4.05-4.35,6.27-6.3,3.14-2.77,5.83-6.5,9.99-7.57,12.86-3.3,25.91-5.68,39.22-6.18,4.5-.17,8.64-1.06,11-5.33,2.6-4.7,4.96-9.54,7.4-14.32,1.28-2.5,.51-4.42-1.64-6.07-3.64-2.8-6.83-6.09-10.02-9.38-1.21-1.24-1.17-2.15,.32-2.93,4.26-2.25,8.17-5.17,13.01-6.29,2.41-.55,4.68-1.57,4.51-4.77-.06-1.08,.71-1.81,1.5-2.43,1.49-1.15,2.95-2.36,4.52-3.39,1.02-.66,1.44-1.36,1.44-2.61,.01-4.58-.02-9.17,.31-13.74,.46-6.41,.69-12.91,3.18-18.99,.77-1.89-.12-2.77-1.44-3.78Zm-87.15-56.66c-.11-10.8-.87-21.61,3.03-31.99-2.24,10.58-1.68,21.39-3.03,31.99Zm13.09-43.6c18.24-20.41,39.03-37.9,61.89-52.95-22.48,15.47-42.32,34.03-61.89,52.95Z"/>
      <path class="cls-1" d="M259.74,370.32c-5.12,8.21-10.64,16.18-14.9,24.89-2.48,5.08-4.45,10.38-6.17,15.77-1.44,4.5-3.79,8.53-7.25,11.78-1.56,1.46-3.53,2.85-5.79,2.02-1.67-.62-2.55-2.37-2.36-4.18,.15-1.49,.88-2.91,1.25-4.38,.24-.94,1.49-2.27,.18-2.79-1.32-.51-1.81,1.17-2.15,2.22-.72,2.25-2.28,4.35-1.46,6.95,.2,.63-.25,.99-.89,1.04-2.66,.19-5.86-1.65-5.92-4.25-.08-2.74,.41-5.15,2.3-7.21,.52-.57,1.35-1.36,.58-2.07-.91-.85-1.58,.12-2.17,.79-2.17,2.42-3.61,5.12-3.46,8.58-2.07-2.65-1.54-5.49-.56-8.26,.53-1.52,1.6-2.85,2.93-3.8,6.44-4.61,9.69-11.42,12.46-18.45,2.61-6.66,4.87-13.45,7.2-20.22,1.56-4.5,.28-8.33-3.37-11.56-6.64-5.86-14.03-10.93-19.57-17.99-.53-.67-1.74-1.16-1.29-2.14,.42-.93,1.62-.54,2.47-.58,5.48-.25,10.94-.37,16.4,.4,1.47,.21,2.74,.64,3.85,1.68,7.02,6.51,15.15,11.46,23.46,16.08,5.73,3.18,7.7,10.12,4.23,15.68Z"/>
      <path class="cls-1" d="M141.62,406.19c-4.55-4.88-7.08-19.6-1.99-27.35,.8,9.02,2.03,17.99,1.99,27.35Z"/>
      <path class="cls-1" d="M135.74,421c-4.54,7.71-10.56,13.76-18.92,17.27-.33,.14-.67,.27-.98,.4-1.38,.04-1.22-.64-.82-1.54,2.63-5.99,5.24-11.99,7.85-17.99,.75-1.73,1.5-3.46,2.19-5.21,.39-.99,.73-1.69,1.84-.64,2.36,2.25,5.3,3.67,8.01,5.41,.97,.63,1.55,1.07,.83,2.3Z"/>
      <path class="cls-1" d="M233.81,34.76c.09-1.44-.27-1.65-1.7-.87-2.57,1.4-4.13,3.71-5.8,5.88-9.07,11.78-19.48,22.21-31.09,31.48-6.09,4.87-12.17,9.76-18.28,14.61-.91,.72-1.72,1.3-.83,2.61,1.85,2.73,2.64,6.11,5.11,8.48,.41,.39,.58,.91-.13,1.43-3.17-2.53-7.31-2.51-10.98-3.86-1.99-.72-4.34-.27-6.15,1.58-6.32,6.42-11.9,13.41-17.02,20.81-6.44,9.3-9.53,20.03-13.11,30.51-3.53,10.34-6.75,20.79-8.23,31.68-.3,2.18-.8,4.32-1.21,6.49-.46-1.17-.61-2.27-.44-3.31,1.62-9.53,2.9-19.17,6.48-28.22,2.79-7.08,1.27-13.52-1.99-19.89-.83-1.61-1.84-1.66-2.81-.24-1.23,1.79-2.5,3.39-4.34,4.73-2.51,1.84-4.57,4.29-6.86,6.44-7.56,7.05-16.53,12.41-23.8,19.77-8.13,8.22-12.42,17.86-10.57,29.54-.58-.24-1.1-1.22-1.63-2.08-6.33-10.26-7.11-20.99-2.27-31.97,2.96-6.71,8.17-11.97,12.28-17.94,6.7-9.72,12.12-19.75,8.53-32.23-.82-2.86-1.72-5.06-3.31-6.02-.08,.38-.23,.71-.21,1.04,.65,10.68-2.99,19.98-8.78,28.74-4.5,6.83-10.32,12.65-14.64,19.61-3.33,5.37-4.64,11.01-3.48,17.21,.4,2.14,.9,4.27,1.52,7.17-4.93-9.56-4.15-18.62,2.03-26.56,1.52-1.95,2.36-3.86,2.07-6.39-.72-6.17-2.78-11.84-6.18-17-1.1-1.67-2.26-3.43-4.46-4.35-.21,2,.9,3.53,.96,5.33,.32,9.24-2.28,17.69-6.42,25.81-2.32,4.54-4.95,8.96-6.55,13.84-1.82,5.53-2.05,11.2-1.02,16.94-.87-.52-1-1.2-1.17-1.89-1.85-7.82,.42-14.93,3.86-21.77,1.62-3.23,3.22-6.1,1.6-10.01-1.38-3.32-.32-7.1-.6-10.68-.5-6.52-1.11-13.06-1.01-19.58,.14-8.5,1.08-16.97,3.89-25.1,.24-.69,.65-1.4-.27-1.84-1.31-.63-.66-1.23,.01-1.73,1-.75,2.01-1.57,3.15-2.03,6.72-2.77,13.71-3.26,20.84-2.08,2.79,.46,5.31,1.6,7.55,3.34,11.85,9.23,15.98,24.52,10.29,38.42-2.89,7.06-7.6,13-12.18,18.97-4.07,5.3-7.63,10.73-9.22,17.42-1.63,6.85-.64,13.32,1.25,19.85,.21,.73,.56,1.55,1.33,1.47,1.01-.1,.57-1.12,.66-1.76,1.13-8.01,3.99-15.19,9.74-21.09,6.24-6.39,13.72-11.27,20.53-16.96,10.52-8.8,20.36-18.04,25.79-31.14,2.04-4.93,4.07-9.93,4.19-15.11,.14-6.64-.66-13.32-3.9-19.51-4.52-8.62-10.82-15-20.12-18.29-9.8-3.45-19.61-2.41-29.29,.1-16.29,4.21-26.89,15.33-34.6,29.69-.32,.6-1.04,1.54-.39,1.91,1.79,1.04,.41,1.89,.06,2.81-.47,1.26-.98,2.5-1.42,3.77-.26,.77-.05,2.14-1.26,1.85-.88-.22-.38-1.37-.21-2.14,1.7-7.42,4.44-14.37,9.44-20.25,1.09-1.28,1.25-2.1-.73-2.57-2.83-.68-5.61-1.55-9.05-2.52,2.58-1.46,4.51-3.02,6.71-3.71,4.74-1.5,8.08-3.6,9.81-8.95,3.46-10.73,10.2-19.86,16.16-29.33,1.35-2.14,2.65-4.29,3.38-6.76-12.43,14.75-28.31,26-40.42,41.02,.03-.82,.36-1.35,.75-1.84,6.56-8.37,14.39-15.53,21.99-22.91,5.03-4.87,10.08-9.72,15.11-14.58,.44-.43,1.09-.97,.67-1.59-.5-.74-1.19-.1-1.59,.27-3.39,3.16-7.59,5.1-11.41,7.6-11.57,7.58-22.48,16.01-32.79,25.24-1.59,1.42-3.6,2.46-3.9,4.9-.04,.27-.06,.92-.57,.66-2.01-1.05-2.49,.85-3.35,1.77-2.77,2.94-5.27,6.11-7.69,9.36-1.05,1.4-1.27,2.5-.53,4.12,1.04,2.27,1.73,4.71,2.63,7.05,.49,1.26,.19,1.7-1.16,1.39-2.1-.47-4.19-.93-6.3-1.36-2.34-.47-3.99,.47-5.09,2.53-4.32,8.05-7.51,16.37-7.17,25.76,.23,6.45,.03,12.91,.53,19.37,.78,10.19,1.22,20.4,1.82,30.61,.09,1.55,.89,1.86,2.16,1.1,1.23-.73,2.42-1.52,3.65-2.27,.5-.31,1-.97,1.63-.33,.47,.48,.01,1.01-.2,1.48-1.16,2.71-2.36,5.41-3.51,8.12-.23,.55-.7,1.18-.12,1.75,.63,.6,1.12,.03,1.65-.29,.63-.38,1.26-1.36,2.03-.61,.65,.62,.22,1.58-.16,2.27-1.9,3.44-.9,6.3,1.66,8.89,.31,.31,.57,.69,.86,1.03,6.36,7.37,13.51,13.9,21.03,20.04,2.16,1.76,4.32,3.52,6.09,5.69,.61,.74,1.49,1.46,.94,3.4-3.11-6.29-7.99-8.13-14.09-7.37-1.15,.14-2.3,.31-3.45,.47-.83,.11-2.02-.27-1.98,1.14,.03,1.26,1.16,1.05,2.02,1.23,12.28,2.49,19.7,10.6,22.2,22.4,1.47,6.92,4.48,12.25,10.66,15.86,7.28,4.25,15.21,6.69,23.18,9.16,5.09,1.59,10.1,2.21,15.27,.45,5.4-1.85,11.03-2.9,16.37-5.1,5.32-2.2,10.55-4.42,15.24-7.83,8.74-6.36,13.74-15.5,18.37-24.85,3.05-6.15,7.19-11.33,12.29-15.81,.97-.85,2.15-1.26,3.45-1.36,.94-.07,2.24,.1,2.28-1.27s-1.32-1.17-2.21-1.45c-2.32-.75-4.76-.6-7.73-.49,3.1-2.82,6.19-4.36,8.8-6.49,5.61-4.56,12.02-7.84,18.15-11.5,5.9-3.53,11.39-7.39,16.3-12.16,1.69-1.63,2.18-3.15,.66-5.12-.45-.59-1.36-1.25-.85-2.09,.55-.9,1.62-.43,2.48-.45,.45-.01,.9,.1,1.35,.09,.67-.01,1.54,.36,1.89-.53,.35-.88-.47-1.23-1.01-1.68-2.21-1.82-4.43-3.64-7.05-5.79,4.02,.08,7.02,1.66,10.2,2.5,1.44,.38,2.72,.08,3.25-1.12,1.17-2.61,3.12-4.61,4.77-6.82,4.91-6.56,7.64-14.17,10.64-21.64,1.15-2.89,2.43-5.77,3.13-8.85,.49-2.12,.24-3.5-2.25-3.81-1.6-.2-3.18-.59-4.74-.97-.48-.12-1.16-.23-1.21-.87-.06-.67,.64-.78,1.08-1.02,2.46-1.29,4.85-2.75,7.41-3.8,2.15-.88,3.06-2.41,3.24-4.48,.63-6.88,1.79-13.7,2.21-20.6,.13-2.19-.51-2.22-2.26-1.63-2.49,.83-4.72,2.41-7.81,2.81,2.22-1.52,4.27-2.45,6.4-3.09,3.38-1.01,4.52-3.14,4.49-6.62-.08-8.32-.12-16.67,.39-24.98,.37-5.94-.61-11.8-.28-17.71ZM30.97,75.61v5.84c-.99-1.98-.86-3.91,0-5.84Zm6.54,112.74c.47-3.53-2.25-4.86-4.18-6.8-8.27-8.33-13.49-18.36-15.37-29.9-1.34-8.25-.56-16.58,.73-24.82,1.4-8.98,3.64-17.74,7.28-26.08,2.01-4.61,3.65-9.33,5.31-14.06,1.26-3.57,3.35-6.69,5.88-9.57-1.81,3.93-3.75,7.81-5.34,11.87-2.53,6.47-4.35,13.03-4.89,20-.69,9.04-1.49,18.07-.77,27.14,.81,10.26,3.93,19.98,7.24,29.65,2.03,5.92,4.48,11.72,4.5,18.14,0,1.42,.36,2.85-.39,4.43Zm25.21,49.76c-5.8-.31-10.34-3.17-12.86-8.07-3.23-6.26-3.72-13.06-.7-19.73,1.17-2.58,1.87-2.64,4.33-1.21,2.56,1.49,4.43,3.49,5.8,6.15,3.47,6.79,6.51,13.72,8.42,21.12,.15,.58,.2,1.19,.4,2.36-1.97-1.89-3.69-.53-5.39-.62Zm23.6,16.99c-2.12,3.04-5.52,3.01-7.75-.04-.33-.45-.69-.9-.29-1.41,.18-.24,.6-.29,.7-.33,1.04,.02,1.14,.67,1.5,1.19,1.39,2.03,3.18,1.93,4.3-.3,.49-.96,1.2-1.23,1.9-.81,1,.62-.01,1.2-.36,1.7Zm21.78-88.7c1.86-4.91,4.84-9.18,7.63-13.55,2.89-4.53,5.85-9,7.8-14.1-.23,3.57-1.57,6.7-3.62,9.61-4.5,6.37-8.84,12.84-11.53,20.25-.63,1.73-1.09,3.53-1.93,5.22-.19-2.64,.74-5.03,1.65-7.43Zm-8.24,56.2c-.54-2.21-.09-3.71,1.72-5.45-.34,2.19-.45,3.79-1.72,5.45Zm34.68-4.44c-1.24,2.99-.61,6.34-1.61,9.44-3.37,10.42-14.55,13.71-23.41,10.31-.09-.04-.16-.08-.25-.12-1.45-.68-2.89-1.9-4.35-1.92-2.26-.03-.34,2.97-2.76,4.02,.73-3.83,1.07-7.38,2.13-10.69,2.22-7,4.81-13.88,9.98-19.4,2.29-2.44,5.4-2.89,8.1-2.01,4.41,1.42,8.55,3.68,11.53,7.52,.69,.88,1.17,1.57,.64,2.85Zm11.5-11.27c1.61-2.6,4.15-3.26,6.98-3.34-2.33,1.11-4.66,2.22-6.98,3.34Zm69.7-116.26c-1.29,.66-2.6,1.27-4.51,2.2,1.41-1.67,2.86-1.94,4.03-2.67,.85-.54,1.88-.8,2.83-1.19,.04,.09,.08,.19,.12,.28-.82,.46-1.63,.95-2.47,1.38Zm14.99-48.16c-3.35,13.47-9.78,25.54-16.97,37.27-3.57,5.81-7.75,11.22-11.35,16.99-3.44,5.5-4.64,11.98-6.55,18.14-3.96,12.73-6.18,25.96-11.26,38.38-3.53,8.63-9.57,13.85-18.4,16.59-6.21,1.93-12.23,4.55-18.19,7.24-4.81,2.17-7.97,5.64-9.81,10.47-.26,.66-.57,1.3-.86,1.94,2.01-11.9,7.45-22.66,11.68-33.85,3.4-8.99,8.79-16.85,14.6-24.34,3.43-4.43,7.89-8.08,12.01-11.96,8.55-8.06,17.31-15.89,25.71-24.11,4.68-4.58,8.16-10.2,11.53-15.84,5.84-9.77,11.37-19.7,14.97-30.56,1.2-3.63,2.07-7.37,3.67-11.01-.26,1.55-.4,3.13-.78,4.65Z"/>
      <path class="cls-5" d="M227.84,48.83c-3.6,10.86-9.13,20.79-14.97,30.56-3.37,5.64-6.85,11.26-11.53,15.84-8.4,8.22-17.16,16.05-25.71,24.11-4.12,3.88-8.58,7.53-12.01,11.96-5.81,7.49-11.2,15.35-14.6,24.34-4.23,11.19-9.67,21.95-11.68,33.85,.29-.64,.6-1.28,.86-1.94,1.84-4.83,5-8.3,9.81-10.47,5.96-2.69,11.98-5.31,18.19-7.24,8.83-2.74,14.87-7.96,18.4-16.59,5.08-12.42,7.3-25.65,11.26-38.38,1.91-6.16,3.11-12.64,6.55-18.14,3.6-5.77,7.78-11.18,11.35-16.99,7.19-11.73,13.62-23.8,16.97-37.27,.38-1.52,.52-3.1,.78-4.65-1.6,3.64-2.47,7.38-3.67,11.01Zm-30.97,57.52c-4.27,12.78-7.09,25.94-10.75,38.88-1.32,4.7-3.58,8.95-6.06,13.15-3.08,5.2-7.72,8.02-13.22,9.93-7.79,2.71-15.53,5.57-22.83,9.49-.61,.32-1.29,1.11-1.92,.61-.88-.71,.12-1.45,.39-2.12,3.22-7.99,6.39-16,9.74-23.93,3.86-9.14,9.85-16.87,16.54-24.07,8.14-8.76,17.29-16.46,25.9-24.73,1.36-1.31,2.74-2.62,4.11-3.93-.17,2.5-1.18,4.58-1.9,6.72Z"/>
      <path class="cls-3" d="M198.78,99.63c-.17,2.5-1.18,4.58-1.9,6.72-4.27,12.78-7.09,25.94-10.75,38.88-1.32,4.7-3.58,8.95-6.06,13.15-3.08,5.2-7.72,8.02-13.22,9.93-7.79,2.71-15.53,5.57-22.83,9.49-.61,.32-1.29,1.11-1.92,.61-.88-.71,.12-1.45,.39-2.12,3.22-7.99,6.39-16,9.74-23.93,3.86-9.14,9.85-16.87,16.54-24.07,8.14-8.76,17.29-16.46,25.9-24.73,1.36-1.31,2.74-2.62,4.11-3.93Z"/>
      <path class="cls-3" d="M303.37,404.43c-.53,1.72-.96,3.48-1.59,5.16-2.76,7.43-5.53,14.86-8.31,22.28-.01,.03-.02,.05-.03,.08-.06,.17-.13,.33-.19,.5-.01,.05-.03,.09-.05,.14-1.3,3.46-2.59,6.91-3.88,10.37-.47-.01-.86,.05-1.17,.19-.47,.18-.77,.53-.89,1.04-.08,.3-.1,.66-.05,1.07l-.08-.13c-.35,0-.69,.07-1.04,.18h-.01c-2.43,.78-4.79,3.57-7.24,.44-1.51-1.93-.64-4.5-.83-6.97-.04-.61-.15-1.21-.37-1.79-.43,.39-.76,.79-1,1.21h0s-.01,.02-.01,.03c-.37,.63-.55,1.3-.63,1.97t-.01,.02h0c-.13,1-.07,2.02-.15,2.99-.08,.9,.32,2.03-.12,2.82h0c-.2,.36-.56,.65-1.19,.81-1.77,.47-3.18-.31-4.28-1.68-.66-.81-1.12-1.66-1.43-2.54-.69-1.95-.63-4.05-.25-6.21,.31-.78,.61-1.56,.91-2.34,.16-.2,.31-.41,.46-.61-.12,.09-.25,.19-.37,.29t-.02,.02c-.07,.05-.14,.1-.21,.16-.05,.07-.09,.15-.13,.22h-.01c-.37,.61-.74,1.23-1.1,1.83-.16,.14-.31,.29-.44,.44h0c-1.33,1.57-1.09,3.88-2.14,5.71-1.66-1.88-1.57-3.86-1.62-5.86,0-.16,0-.31,.02-.46,0-.01,0-.02,0-.03,.06-.9,.39-1.69,.83-2.44,.05-.1,.1-.2,.17-.3,.21-.36,.44-.71,.66-1.06,.02-.02,.03-.04,.05-.06t.01-.02c.74-1.13,1.44-2.28,1.48-3.68,.01-.11,.01-.22,.01-.34,.35-.37,.75-.7,1.15-1.03,.95-.8,1.88-1.61,2.13-2.91,.05-.23,.07-.49,.07-.76,.15,0,.3-.02,.44-.04,1.29-.15,2.09-.81,2.72-1.69,.01,0,.02-.03,.02-.04,.48-.67,.84-1.48,1.23-2.29,.13-.27,.26-.53,.38-.8,.05-.09,.09-.18,.13-.27,1.23-2.75,2.13-5.59,2.91-8.48,.01-.06,.03-.11,.04-.17,.65-2.42,1.22-4.88,1.81-7.32,7.17,6.36,15.28,3.39,23.2,2.35Z"/>
      <path class="cls-3" d="M117.65,424.63c-.92,4.1-3.45,7.57-4.69,11.49-.08,.25-.17,.5-.26,.75,0,.01-.01,.02-.01,.03s-.01,.02-.01,.03,0,.02-.02,.03c-.49,1.32-1.13,2.56-1.85,3.77-.01,.02-.02,.03-.02,.05-1.81,3.1-4.04,5.98-5.19,9.38h0s-.01,.02-.01,.03h0c-.29,.86-.51,1.75-.64,2.68l-.18-.17c-.79-.04-1.17,.33-1.17,1.08-.76,0-1.11,.4-1.1,1.16l.26,.06c-.55-.03-.91,.08-1.14,.29h0s-.01,.02-.01,.02c-.03,.02-.06,.05-.08,.08h-.01c-.29,.36-.29,.91-.2,1.53-.72,.04-1.09,.42-1.12,1.15-1.11-.19-2-.07-1.88,1.43l-.06,.08c-.34-.24-.68-.34-1.01-.33h-.02s-.01,0-.01,.01c-1.96,.09-3.79,3.68-5.38,.79-.74-1.35-.77-3.08-.78-4.95v-.09c0-.76,0-1.54-.06-2.33h0c0-.19-.02-.38-.04-.56-1.25,1.16-1.66,2.36-1.77,3.55t0,.02v.02c-.09,.97,0,1.93-.02,2.86-.01,.58,.14,1.19,.24,1.78,.16,.96,.21,1.88-.71,2.61-.13,.12-.28,.22-.46,.32-1.88,.75-3.77,.71-5.65-.01-.65-.38-1.21-.8-1.69-1.27-.01,0-.01-.01-.02-.01-.94-.9-1.57-1.96-1.96-3.12-.01-.01-.01-.02-.01-.03-.49-1.47-.59-3.13-.44-4.88-.39,.09-.7,.23-.94,.41h0c-1.12,.82-.94,2.4-2.12,2.89-.6-1.17-1.06-2.34-1.34-3.49h0s0-.04,0-.06c-.68-2.92-.13-5.72,2.57-7.92,4.12-3.36,6.96-7.47,9.31-11.87,0-.02,0-.04,.02-.06,.21-.39,.41-.77,.6-1.16,0,0,0,0,0,0,1.39-2.74,2.62-5.57,3.88-8.39h0s.01-.03,.01-.04t.01-.02c.24-.55,.48-1.1,.73-1.64,1.03,1.84,4,1.28,4.58,3.51,1.24,4.84,6.08,4.3,7.8,2.93,4.35-3.48,9.75-2.02,14.09-4.41Z"/>
      <path class="cls-6" d="M392.71,168.95c-1.2-.57-1.26-1.54-.67-2.57,2.83-4.84,.84-7.93-3.29-10.88-4.32-3.09-8.28-6.7-12.18-10.31-1.18-1.09-3-2.02-3.11-3.98-.02-.17-.01-.36,.01-.55-.17,.05-.33,.08-.46,.08-.5,.05-.73-.19-.68-.7,0-.13,.03-.29,.08-.46,.01,0,.04,.01,.04,.01-.65-.46-1.28-.93-1.89-1.41t-.02-.02h-.01c-4.7-3.76-8.45-8.4-11.97-13.27,.13-.09,.27-.17,.4-.26,.15-.1,.29-.2,.44-.29-.76-1.32-1.52-2.64-2.27-3.96-.03-.05-.07-.1-.1-.15h0c-2.55-4.01-.81-8.44-1.1-12.64-.56-8.45,.54-16.95-.76-25.41-.29-1.86-1.06-4.21,.78-5.98-.27-2.52,.07-5,.5-7.48v-.04c.65-3.73,1.5-7.44,.8-11.25-.02-.17-.05-.33-.09-.5-2.23-2.72-.38-5.56,.15-8.11,1.69-8.21,4.63-15.95,10.73-22.08-.44-1.54,.81-1.7,1.76-2.12,.06-.07,.12-.14,.18-.21,0-.01,0-.01,0-.02,3.69-4.4,7.69-8.6,9.88-13.95,.01,0,.01-.01,.01-.01,.41-.98,.76-2,1.03-3.07-1,.49-2,.52-3.02,.38-.04,0-.07-.01-.11-.01h-.01c-1.31-.18-2.64-.6-4.02-.59-.95,.01-1.94,.22-2.94,.88-1.24,.82-2.52,1.71-3.88,2.47,0,0,0,.01-.02,.01-.73,.42-1.49,.8-2.28,1.12-.02,.01-.04,.02-.05,.03-1.32,.52-2.71,.86-4.22,.88-.17,1.84-1.85,1.87-3.04,2.41-10.27,4.72-20.3,10-31.23,13.13-.21,.05-.41,.11-.61,.18-.09,.02-.17,.05-.26,.07-1.78,.49-3.08,1.63-4.22,3.11-7.62,9.91-17.07,17.69-27.76,24.15-6.11,3.69-11.77,8.12-17.64,12.2-.88,.61-1.61,1.26-2.04,1.98-.01,0-.03,.02-.03,.04-.45,.77-.56,1.62-.17,2.61,0,.01,0,.02,.02,.03,.13,.35,.33,.72,.61,1.11,.13,.47,.25,.95,.37,1.42,.52,.59,1.04,1.18,1.56,1.77,.36,.72,.71,1.43,1.07,2.15,.39,.67,.78,1.34,1.17,2,.35,.57,.72,1.13,1.06,1.71,.13,.24,.25,.48,.37,.72,.05,.1,.11,.21,.15,.31,.4,.93,.63,1.92,.5,3.08h0c-.04,.39-.12,.78-.25,1.19-.94-2.01-1.88-4.03-2.83-6.04-.88-.51-.96-1.37-.99-2.25-.38-.7-.76-1.39-1.14-2.09-.46-.62-.91-1.25-1.37-1.88-.27-.44-.53-.88-.8-1.33-1.03-1.18-1.85-1.35-2.29-.54v.02c-.17,.3-.28,.72-.33,1.27-.25,2.66-.31,5.34-.31,8.01v1.25c0,2.62,0,5.23,.02,7.85v.73c.05,12.42,.39,24.82,2.08,37.14,0,.04,.01,.07,.01,.11,0,.02,0,.04,0,.06,.33,2.39,.71,4.78,1.15,7.17,.11,.6,.23,1.19,.35,1.79,0,.02,.01,.03,.01,.05s.01,.03,.01,.05,.01,.03,.02,.05c.18,.88,.37,1.76,.56,2.65,.38-.06,.7-.06,.91,.06,.11,.06,.18,.14,.22,.26,.06,.17,.05,.42-.06,.77,.46,.11,.89,.24,1.31,.4h.01c2.26,.88,3.89,2.5,5.23,4.46h.01c.34,.52,.67,1.06,.98,1.61,.82,.36,1.59,.75,2.33,1.19,.01,.01,.02,.02,.03,.02l.02,.02c3.85,2.29,6.74,5.62,9.44,9.16h.01c.36,.48,.72,.96,1.08,1.44,.32,.09,.65,.17,.97,.24h.01s.01,0,.01,.01c7.04,1.55,14.1-.25,21.14-.11,2.23,.04,4.51-.7,6.79,.45-.05,.13-.09,.26-.15,.39-.73,1.81-1.95,2.69-3.73,2.91-1.16,1.15-2.33,2.31-3.49,3.46,.64,3.21-4,4.24-3.12,7.55,.77,.75,1.54,1.49,2.3,2.24,0,0-.01-.01-.01-.02,.65,.55,1.29,1.11,1.94,1.68,.25,.13,.55,.24,.79,.38h0c.25,.14,.44,.31,.46,.6,.02,.16-.02,.37-.15,.62,.28,.06,.53,.14,.75,.23,.5,.22,.82,.53,.71,1.06h0c-.03,.25-.16,.53-.4,.88v.02c.37-.15,.68-.22,.94-.22,.97-.01,1.38,.85,1.83,1.62h.01c.14,.25,.3,.49,.48,.69,.45,.12,.91,.16,1.37,.17h.03c2.13,.03,4.36-.77,6.36,.33,.28,.15,.54,.33,.81,.56-.2,.37-.4,.74-.6,1.11-.16,.3-.32,.6-.48,.89-.03,.11-.07,.22-.12,.33-1.14,2.72-5.62,2.38-5.69,6.39,0,.1,0,.19,0,.29h0v.03s0,.01-.01,.02c-.13,3.1-1.31,6.22,3.77,6.27,.71,0,1.08,.57,1.14,1.28h.01v.03c.02,.19,.01,.4-.02,.6h0s-.01,.02-.01,.02c0,.03,0,.07,0,.1,6.53-1.8,7.54-1.34,8.79,4.02,1.07-3.08,2.14-6.16,3.21-9.24,.17,.67,.27,1.32,.3,1.97,.23,4.02-1.77,7.68-1.74,11.62,.03-.05,.06-.09,.09-.13h0c2.37-3.68,6.13-2.9,9.65-2.97,9.69-.21,19-1.93,27.27-7.32,1.63-1.07,3.18-1.43,4.99-1.12,6.47-2.92,7.52-8.53,7.59-14.79,.04-3.43-.94-7.08,1.33-10.24,.01-.01,.01-.02,.02-.03,1.14-2.3,1.28-4.74,1-7.24-.03-.01-.06-.03-.08-.04Zm-48.39-135.78c-.66-.79,.72-1.3,1.33-1.83,.81-.68,1.62-1.37,2.44-2.05,.42-.08,.84-.16,1.26-.24-.02,.06-.04,.1-.06,.16h0c-.13,.33-.25,.66-.38,.97-.74,.71-1.48,1.41-2.22,2.11-.62,.69-1.3,1.94-2.21,1.05-.05-.04-.11-.1-.16-.17Zm5.32,110.13c-.32,.6-.66,1.19-1.04,1.77v.03l-.03,.02s.02-.03,.03-.05c.15-6.89,3.42-12.77,6.07-18.85-.21,.94-.4,1.89-.6,2.84,0,.01-.01,.02-.01,.03h0c-1.01,4.89-2.02,9.76-4.42,14.19v.02Zm15.57-128c.86-.6,1.72-1.19,2.58-1.79,.7-1.21,1.72-2,3.11-2.28,.53-.48,1.06-.96,1.6-1.44,.93-.65,1.9-2.34,2.99-1.03,.12,.14,.16,.29,.13,.43,0,.08-.04,.17-.1,.25-.23,.39-.81,.75-1.37,1-.01,0-.02,0-.03,.02-.19,.09-.39,.17-.56,.23-.63,.47-1.26,.94-1.89,1.41-1.03,.79-2.06,1.58-3.09,2.37-.84,.54-1.68,1.09-2.52,1.63-.4,.32-.8,.64-1.19,.95-.64,1.05-1.45,1.73-2.82,1.94-.58,.09-1.26,.1-2.06,.02,1.84-1.27,3.02-2.08,4.21-2.9,.34-.27,.67-.54,1.01-.81Zm-39.46,34.81c.35-.36,.71-.73,1.06-1.09,.33-.38,.67-.76,1.01-1.14,.35-.36,.71-.73,1.06-1.09,.36-.36,.72-.72,1.07-1.09,.36-.36,.73-.72,1.09-1.08,2.91-3.99,6.55-7.08,11.07-9.16t0,0c.82-.38,1.66-.73,2.54-1.04-4.28,3.81-8.56,7.63-12.84,11.44-.16,.26-.36,.47-.62,.63-.37,.38-.73,.75-1.1,1.13-.35,.36-.72,.72-1.08,1.08-.39,.37-.78,.74-1.17,1.11-.36,.36-.72,.72-1.09,1.08-.35,.36-.71,.72-1.08,1.08-.36,.36-.72,.72-1.08,1.08-.38,.37-.76,.73-1.15,1.1-.4,.36-.81,.71-1.21,1.07-.36,.39-.73,.79-1.09,1.18-.28,.26-.56,.52-.84,.77-.02,.01-.03,.01-.02,.02-.11,.1-.2,.18-.31,.28-.41,.02-.82,.04-1.23,.06,.2-.3,.4-.59,.59-.89,.37-.35,.74-.7,1.11-1.06,.37-.34,.74-.69,1.11-1.03,.35-.37,.71-.74,1.06-1.11,.34-.38,.68-.76,1.02-1.14,.35-.36,.7-.73,1.05-1.1,.35-.36,.71-.72,1.06-1.09Zm-19.88,43.06c-.16,.71-.34,1.42-.53,2.13-.55-6.95-.26-13.84,1.7-20.62,.05,.64,.09,1.26,.12,1.9v.02c.28,5.57-.03,11.11-1.29,16.57Zm.06,5.1v-.02s.02-.02,.03-.04v10.91c-.46-3.58-1.77-7.13-.03-10.85Zm-24.43-8.94s.07,.03,.1,.04h0c1.83,.77,2.15,2.27,2.41,4.29-.17-.1-.33-.2-.47-.3h0c-1.6-1.16-1.63-2.69-2.04-4.03Zm43.52,47.87c-2.43-3.13-4.86-6.24-7.28-9.37l-.03-.03c-.2-.26-.41-.53-.61-.79-.58-.57-1.16-1.15-1.74-1.73-.5-.48-1.01-.96-1.51-1.45-.05-.04-.1-.09-.15-.13-.01,0-.03-.03-.04-.04-3.05-2.69-6.08-5.39-9.12-8.08-.3-.3-.59-.61-.88-.91l-.03-.03c-.17-.18-.34-.36-.52-.54-.25-.17-.49-.34-.74-.5h0c-3.14-2.13-6.36-4.16-8.95-6.99-.01-.01-.03-.03-.05-.03t-.02-.02c-4.75-2.31-7.88-5.88-8.83-11.16h-.01c-.06-.33-.11-.66-.15-.99,1.02,1.73,2.07,3.44,3.25,5.02,0,0,0,.01,.01,.01,0,0,0,0,0,.02,1.86,2.5,4.04,4.7,6.96,6.2,3.21,2.52,6.42,5.04,9.63,7.56,.44,.43,.89,.86,1.33,1.3,0,0,.02,.01,.03,.02l.02,.02s.01,.01,.02,.02c.04,.04,.07,.07,.11,.11,1.9,1.68,3.82,3.36,5.72,5.04l.02,.02c1.21,1.06,2.41,2.13,3.62,3.19,.46,.49,.91,.99,1.37,1.48,.51,.47,1.01,.94,1.52,1.41,3.12,2.77,5.41,6.18,7.86,9.48,.01,.02,.03,.03,.04,.05,.16,.22,.32,.43,.48,.65-.31,.27-.62,.55-.93,.83-.14,.12-.27,.24-.4,.36Zm11.91,17.05c-.79-1.38-1.59-2.76-2.38-4.14,0-.01,0-.02,0-.02-.01-.01-.02-.03-.02-.04-.01-.02-.02-.04-.04-.06-.06-.11-.13-.22-.19-.33-.04-.05-.08-.09-.12-.14-2.89-3.35-5.62-6.82-7.43-10.95-.05-.09-.09-.19-.13-.29-.13-.29-.25-.58-.36-.87,.2,.17,.41,.35,.61,.53h0s.05,.05,.08,.08c.17,.16,.34,.32,.51,.48,.33,.31,.65,.64,.97,.97,.13,.13,.25,.26,.37,.4,.32,.33,.62,.67,.92,1.02,.33,.38,.65,.77,.96,1.16,.16,.2,.31,.41,.48,.61,.02,.01,.03,.03,.04,.05t.01,.02s.01,.01,.01,.02t.02,.02c1.47,1.93,2.8,3.98,4.11,6.05,.34,.58,.69,1.17,1.03,1.75,.02,.03,.04,.06,.06,.09,0,.01,.01,.03,.02,.04,.02,.03,.03,.05,.05,.08,.52,.9,1.05,1.79,1.58,2.69,.12,.14,.24,.27,.35,.41,1.94,2.28,3.15,4.98,4.51,7.84,.02,.03,.04,.05,.05,.08,.18,.38,.37,.77,.57,1.16,.25,.49,.51,.99,.78,1.49,.58,1.1,1.24,2.2,2,3.29,.47-6.05,.87-11.31,1.28-16.56,.12,2.62,.29,5.23,.46,7.85h0v.06c.69,11.01,1.21,22-2.98,32.64-.23,.59-.47,1.18-.73,1.76,.08-6.9,3.99-13.8,1.79-20.49-2.16-6.55-6.08-12.52-9.23-18.75Zm36.54-13.62v.03h.01v-.03Zm-5.44-113.89v.02l.07-.1s-.05,.05-.07,.08Zm-7.74-14.21h.06s0-.03,0-.05l-.07,.05Zm-36.55,173.51s-.03-.01-.05-.01l.12,.09s-.05-.05-.07-.08Zm-4.4-4.3l.04,.1s.03-.05,.04-.08c-.03-.01-.05-.01-.08-.02Zm-23.7-20.38l.02,.02v-.02h-.02Zm-12.89-11.83s-.03-.01-.05-.02l.07,.06s-.02-.03-.02-.04Zm-7.57-6.48l.03,.02h0s-.02-.02-.03-.02Zm-1.04-1.08h-.04l.05,.06s-.01-.04-.01-.06Z"/>
      <path class="cls-6" d="M158.5,139.6s-.01,.04-.02,.06l.04-.06h-.02Zm1.1-39.72s.03-.03,.05-.05c0-.02,.01-.03,.02-.05l-.07,.1Zm12.93,22.53h0s.01,0,.01,0h-.01Zm5.37-4.38s-.02,.04-.03,.06l.06-.05s-.02-.01-.03-.01Zm16.13-15.12s-.03-.02-.04-.03c0,0,.01,.03,.01,.05,.01,.02,.02,.05,.03,.07l.05-.06s-.04-.02-.05-.03Zm1.08-1.02h0s0,.02,0,.03l.02-.02s-.01,0-.02-.01Zm1.07-1.07s.01,.02,.01,.03l.02-.02s-.02,0-.03,0Zm1.1-1.06s.01,.03,.01,.04l.03-.03s-.03,0-.04,0Zm4.28-34.4h.02s.06-.07,.09-.1l-.11,.1Zm.16,95.81s-.01,.01-.01,.02h.04l-.03-.02Zm.95-96.82s.05-.05,.08-.07c.01-.02,0-.04,0-.06l-.08,.13Zm.15,97.91s-.09,.07-.14,.1c.05-.02,.11-.05,.17-.07l-.03-.03Zm4.2-102.33l-.03,.03s.03,.01,.04,.01c0-.01-.01-.03-.01-.04Zm3.15-2.16s.04,.01,.05,.01c0-.03,.02-.05,.03-.08l-.08,.07Zm1.12-1.12l-.04,.04s.04,0,.05,0c0,0,0-.03,0-.05Zm1.01-.99s.06-.04,.09-.07v-.02l-.09,.09Zm5.41-6.53h.02s.01-.03,.01-.05l-.03,.05Zm1.05-1.03s.05-.02,.07-.03v-.04l-.07,.07Zm6.62,68.91s.04,.04,.06,.06c.01,0,.01-.01,.02-.01l-.08-.05Zm3.26-6.38s-.03,.06-.04,.09l.1-.07s-.04-.01-.06-.02Zm-14.85-19.5c-.07,.06-.13,.12-.19,.19-.04-.01-.07-.02-.11-.02-.08,.13-.16,.25-.25,.36,.77-.53,1.53-.82,2.21-1.18-.55,.22-1.11,.44-1.66,.65Zm20.24-42.14c.01-2.68-.32-5.37-.15-8.04,.18-2.72-.81-4.58-2.75-5.9-.33-.23-.7-.44-1.09-.64-.06-.03-.12-.06-.18-.09-1.98,2.12-4.42,3.91-5.46,6.72-.14,.35-.25,.72-.33,1.11-1.8,1.93-2.42,4.91-5.24,5.92,.1,.83-.17,1.28-1.1,1.06-.56,3.17-3.03,4.75-5.34,6.46,.06,.8-.16,1.31-1.09,1.11,.2,.92-.18,1.25-1.08,1.08-.52,1.41-1.18,2.61-2.93,2.24-.08,0-.17-.02-.26-.05,.02,.09,.04,.17,.05,.25,.43,2.25-2.13,1.74-2.94,2.84,0-.01-.14,0-.23,.01h-.07v.06l-.02,.24c-.35,.31-.72,.61-1.07,.91,.06,.82-.41,1.1-1.17,1.08-5.89,6.63-13.05,11.87-20.1,17.05-1.36,1-2.41,1.94-3.12,2.9,0,0,0,0,0,.01-1.03,1.39-1.35,2.81-.85,4.44,.23,.76,.63,1.56,1.23,2.43,.16,.24,.33,.48,.52,.72,.82,1.06,1.49,2.24,2.08,3.54,.23,.5,.44,1.03,.65,1.58-.66-.37-1.37-.59-2.11-.76h-.01c-1.8-.39-3.72-.45-5.18-1.61-.38-.31-.73-.69-1.04-1.17-.11-.04-.22-.09-.33-.12-.74-.29-1.47-.52-2.18-.7-1.81-.46-3.51-.57-5.04-.18-2.1,.52-3.9,1.99-5.26,4.8-.06,.12-.12,.25-.18,.38-.34,.39-.67,.78-1,1.16-2.81,5.57-7.34,9.89-10.88,14.94-6.12,8.72-9.82,18.43-12.86,28.44-.37,1.23-.73,2.46-1.09,3.7,3.8,3.9,8.34,6.7,13.26,8.96,2.36-4.34,4.62-8.73,7.13-12.98,.74-1.24,.74-3.52,3.05-3.32,.08,0,.16,0,.24,.03,.08-.26,.16-.51,.26-.76,2.27-6.68,6.88-11.5,12.69-15.35h.01c-.08-.79,.29-1.15,1.07-1.08-.07-.79,.32-1.12,1.08-1.07-.04-.76,.3-1.14,1.09-1.08h0c.63-1.35,1.07-2.95,3.09-2.27,.03,.01,.07,.02,.11,.04,.05-.1,.09-.19,.15-.28,2.62-5.13,7.02-8.46,11.72-11.5-.09-.73,.18-1.09,.81-1.09,.08,0,.17,.01,.27,.02-.1-.81,.31-1.13,1.08-1.08h.01c.26-1.18,.67-2.11,2.05-1.22-.36-1.06,.02-1.38,1.11-.99-.41-1.14-.03-1.47,1.08-1.07-.43-1.18,.16-1.3,1.1-1.06-.24-.95,0-1.44,1.11-1.07l-.06-.06c1.28-3.94,5.11-5.66,7.49-8.64,.32-.2,.64-.39,.95-.58,0,.13-.01,.26-.01,.39-.01,.28-.01,.56-.01,.85-1.69,2.29-3.09,4.68-4.29,7.15-.01,.01-.01,.02-.02,.03-4.48,9.23-6.12,19.53-9.29,29.25-.03,.08-.05,.16-.08,.24-2.55,7.9-4.07,16.08-7.11,23.86-3.46,8.84-8.98,15.28-18.15,18.27,.05,.03,.1,.06,.14,.09,5.61,3.58,8.74,9.48,13.14,14.18,7.43-1.84,12.33-7.23,17.37-12.42-.84-1.84-.86-3.27-.37-4.47,.21-.54,.52-1.02,.91-1.48,.82-.98,1.97-1.8,3.14-2.61,.18-.13,.36-.26,.54-.38-.32,.12-.58,.19-.77,.19h-.01c-.26,0-.41-.12-.43-.36-.03-.23,.05-.56,.24-1-.61,.02-1.16-.04-1.67-.17-2.11-.54-3.45-2.26-4.77-4.02,2.68-.24,5.33-.33,7.34,1.95l.03,.03c1.38,.86,2.76,1.86,4.16,1.19,.42-.2,.84-.54,1.26-1.08,7.9-10.49,13.56-22.13,17.79-34.51,.79-2.3,1.68-4.56,.26-6.69-.18-.28-.41-.55-.67-.82-1.33,.63-2.44,.46-3.22-.91-.23-1.29,.14-2.01,.76-2.48,.31-.24,.68-.42,1.07-.58,.81-.34,1.69-.6,2.24-1.17,.07-.06,.13-.12,.18-.19l-.02-.05-.04,.03c.28-1.34,1.17-1.39,2.23-1.09,3.34-7.46,3.51-15.63,3.54-23.4,.01-1.06,.11-2.1,.27-3.12,.07-.51,.15-1.02,.25-1.53,.36-2.08,.76-4.13,.67-6.28-.19-4.44,.31-8.92,.43-13.38,.13-4.64,.21-9.29,.23-13.93Zm-14.63,20.23c-.94,3.33-2.75,6.23-5.07,8.87-.63,.71-1.3,1.41-2,2.09,2.55-4.61,5.11-9.23,7.66-13.84-.12,1-.32,1.96-.59,2.88Zm12.09-32.37c-.1,1.3-.24,2.58-.43,3.84-1.1,7.67-3.74,14.86-7.68,21.62-.08,.86-.22,1.69-1.13,2.11-.27,.34-.53,.68-.8,1.02l-.03-.03c-.71-.63-.15-1.1,.25-1.58,.36-.71,.73-1.41,1.1-2.12,2.92-8.28,6.56-16.31,8.72-24.86Zm-19.9,45.62c-.24,.04-.53-.23-.8-.37,.31-.28,.6-.6,.96-.8,.07-.04,.25,.16,.44,.34,.07,.07,.14,.14,.2,.19-.26,.23-.47,.49-.68,.6-.04,.02-.08,.03-.12,.04Zm7.21,6.7c-1.12,.44-2.23,.87-3.35,1.31-.55,.22-1.11,.44-1.66,.65-.07,.06-.13,.12-.19,.19-.04-.01-.07-.02-.11-.02-.08,.13-.16,.25-.25,.36h0c-.37,.51-.77,.91-1.29,1.15-.51,.26-1.13,.35-1.92,.19,1.05-1.09,1.95-2.06,3.46-1.7,.02-.02,.03-.05,.05-.07,.08-.03,.17-.07,.25-.1,2.81-2.87,6.54-3.72,10.35-4.36,.43-.07,.86-.14,1.29-.21-.49,.19-.99,.39-1.48,.58-1.72,.68-3.43,1.35-5.15,2.03Zm-21.48,10.6s-.03,0-.04,0c0,0,.01,.03,.01,.04l.03-.03Zm-1.11,1.06s-.02,0-.03,0c0,0,.01,.02,.01,.03l.02-.02Zm-1.1,1.09l.02-.02s-.01,0-.02-.01h0s0,.02,0,.03Zm-1.08,1.08l.05-.06s-.04-.02-.05-.03c-.02-.01-.03-.02-.04-.03,0,0,.01,.03,.01,.05,.01,.02,.02,.05,.03,.07Zm-16.1,15.04s-.02-.01-.03-.01c-.01,.02-.02,.04-.03,.06l.06-.05Zm-5.39,4.37h-.01s.01,0,.01,0Zm-14.02,17.19h-.02s-.01,.04-.02,.06l.04-.06Zm55.27-48.47c-.07,.06-.13,.12-.19,.19-.04-.01-.07-.02-.11-.02-.08,.13-.16,.25-.25,.36,.77-.53,1.53-.82,2.21-1.18-.55,.22-1.11,.44-1.66,.65Z"/>
      <path class="cls-6" d="M113.81,312.92h0s-.02,.1-.03,.14c0,.02,0,.04-.01,.06-2.51,4.95-3.23,10.94-8.35,14.37-.37,.02-.63,.02-.81-.04-.43-.15-.31-.66,.24-2,.84-1.55,2.04-2.99,1.58-5.12-.15,.07-.28,.15-.41,.22-1.64,1-1.89,2.61-2.28,4.14-2.18,4.55-6.65,7.02-9.72,10.75-1.49,.57-2.97,1.13-4.43,1.68-8.24-.02-16.41-.57-24.35-2.93,0-.01,0-.01,0-.01-.64-.19-1.29-.39-1.93-.61-3.67-2.55-6.89-5.56-9.3-9.34-.02-.55-.09-1.09-.2-1.63h0s0-.03,0-.04c-.52-2.53-1.83-4.96-1.67-7.59,.03-.59,.14-1.19,.35-1.8,.7,.46,1.4,.91,2.1,1.37,.03,.8-.31,1.87,1.11,1.77,.68,1.03,1.47,1.77,2.34,2.29,.07,.05,.15,.09,.22,.13,.04,.02,.07,.04,.11,.06,.01,.01,.02,.02,.03,.02,.22,.12,.44,.23,.67,.32,2.48,1.03,5.42,.81,8.08,1.17,7.02,.95,18.53-5.96,21.71-12.67,3.52-.78,3.4-4.71,5.68-6.58,.01,0,.01,.01,.02,.01,.61,.33,1.25,.97,1.83,.92,5.91-.42,11.28,1.41,16.52,3.82,.83,2.32,1.4,4.65,.92,7.12Z"/>
      <path class="cls-6" d="M106.09,391.98c-3.02,1.49-5.34,3.94-8.5,5.4-6.41,2.96-13.03,3.12-19.77,2.99-.22,0-.43-.01-.65-.01-2.24-.41-3.75-1.95-5.32-3.4,.11-.23,.09-.55,.04-.88-.12-.89-.43-1.91,1-1.73h.01s.01,.01,.02,.01c.19,.02,.42,.07,.68,.14,2.66,.74,5.2,.08,7.88-.37,8.59-1.44,14.13-7.05,19.44-13.15,.03,.01,.06,.02,.09,.03,6.22,1.72,7.44,4.36,5.08,10.97Z"/>
      <path class="cls-6" d="M150.01,418.07c-14.74,2.18-27.09-7.27-28.57-21.59-.22-2.13-.14-4.29-.19-6.43,.79-.37,1.81-.55,2.35-1.16,3.25-3.67,6.73-4.18,10.63-1.09-.17,8.33,1.05,16.21,7.27,22.46,0,0,.02,.02,.02,.02,.37,.36,.73,.72,1.09,1.08,.36,.36,.72,.72,1.08,1.07,1.58,1.42,3.18,2.84,4.84,4.33,.01,0,.01,0,.02,0,.48,.42,.97,.86,1.46,1.3Z"/>
      <path class="cls-6" d="M125.72,71.23c-.23-.23-.42-.5-.6-.79-.17-.26-.33-.53-.5-.79-.21,.02-.38,0-.53-.04-.22-.06-.37-.18-.47-.35-.1-.18-.14-.41-.13-.69-.4-.08-.8-.15-1.19-.25-1.2-.28-2.32-.71-3.12-1.82,0-.01,0-.01,0-.02-.8-1.31-2.24-1.58-3.47-2.18-2.28-.68-4.56-1.09-6.86-1.32-.02,0-.04-.01-.06-.01-5.48-.54-11-.07-16.51,.16-2.22,.1-4.44,.15-6.66,.09-.41,.46-.81,.93-1.22,1.39-14.07,3.78-23.49,13.82-32.15,24.87,0-.05,0-.09,.01-.14,.16-3.93,5-5.96,3.95-8.76-.18-.47-.46-.83-.82-1.11-1.06-.82-2.8-.96-4.58-1.27-.99-.17-1.99-.4-2.89-.83h-.01c-.18-.08-.35-.18-.52-.28-.13-.08-.26-.16-.38-.25,2.36-1.93,4.58-3.57,7.52-3.91,.33,.01,.66,.01,.98-.01,1.13-.06,2.14-.38,2.8-1.31,.18-.27,.34-.58,.47-.95,.66-.78,1.38-1.34,2.27-1.26,.33,.02,.68,.14,1.06,.36,.04-.7,.11-1.39,.21-2.06,.84-6.37,3.67-11.88,7.73-16.86,.14-.19,.29-.37,.45-.56,.93-1.82,3.93-2.31,3.34-5.13,.02-.22,.06-.44,.1-.66,.73-4.14,3.93-6.96,5.87-10.46,.4-.73,.44-.86-.75-.83-.2,0-.44,0-.72,.01-.35,.37-.68,.74-1.02,1.12-.37,.35-.74,.69-1.11,1.05-.56,.62-1.13,1.23-1.71,1.85-.49,.47-1,.94-1.5,1.41-.36,.36-.72,.7-1.09,1.06-.35,.36-.71,.71-1.07,1.08-.36,.36-.72,.71-1.08,1.07-.98,.98-1.96,1.95-2.93,2.93-.2,.26-.42,.49-.68,.66-.39,.38-.77,.76-1.16,1.14-3.19,3.05-6.4,6.12-10.3,9.86,.47-.91,.95-1.76,1.45-2.56,2.19-3.53,4.69-6.09,7.76-8.18,.38-.34,.76-.69,1.13-1.02,.39-.34,.77-.67,1.16-1.01,.95-.94,1.91-1.89,2.87-2.83,.36-.33,.7-.67,1.06-1.01,.36-.35,.71-.69,1.08-1.04,.24-.27,.49-.54,.72-.81l1.82-1.81c.61-.61,1.22-1.22,1.82-1.83,.35-.33,.7-.67,1.06-1,.26-.27,.53-.53,.79-.8,.67-.73,.89-1.53,.8-2.37-.04-.32-.13-.66-.26-1-.01-.02-.01-.03-.02-.05-6.21,2.79-11.56,6.91-16.99,10.88-1.76,1.29-3.53,2.57-5.34,3.77-.61,.41-1.22,.81-1.84,1.2-2.55,1.6-5.38,3.06-7.19,5.64-.21,.28-.4,.58-.57,.89-.41,1.11-.7,2.36-2.35,1.96-.35,.97-.87,1.79-1.5,2.5-1.02,1.18-2.32,2.1-3.56,3.04-.19,.14-.38,.28-.57,.43-1.11,.86-2.13,1.79-3.11,2.78-1,1.01-1.96,2.07-2.89,3.14-.48,.53-.95,1.08-1.42,1.62-2.16,2.47-4.36,4.92-7.06,6.89-.07,.07-.15,.12-.23,.18-1.86,1.33-2.91,2.85-3.37,4.5-.46,1.62-.34,3.36,.14,5.13,.27,1.03,.67,2.06,1.15,3.1,0,.02,.01,.04,.02,.06,.07,.15,.15,.31,.22,.46,.54,1.11,.86,1.99,.86,2.61s-.37,1-1.22,1h-.02c-.54,0-1.28-.14-2.25-.44-.25-.08-.49-.15-.74-.21-.74-.21-1.48-.38-2.23-.48-1.55-.22-3.11-.17-4.62,.36-.7,.24-1.39,.59-2.07,1.06-.11,1-.32,1.97-.61,2.91-1.12,3.82-3.34,7.25-4.48,11.14-.13,.41-.24,.82-.33,1.24-.08,.36-.15,.73-.21,1.1-1.17,7.44,.1,14.9-.87,22.22-.01,.05-.01,.09-.02,.14-.61,4.56,.25,9.06,.79,13.57,.27,2.15,.46,4.29,.4,6.45-.06,1.75-.3,3.51-.8,5.28-.28,.97,.65,2.28,1.02,3.43,.01,1.19,.01,2.37,.01,3.56,.15,.01,.29,.01,.43,0,1.33-.12,2.06-1.32,3.13-1.93,3.26-1.88,5.78-5.14,9.9-5.47-.36-3.58-.72-7.17-1.09-10.74-1.55-.36-1.77-1.53-1.77-2.87,0-5.66-.36-11.4,2.97-16.47,.13-.79,.26-1.59,.39-2.38-2.06-3.03-1.06-5.34,1.71-7.23,2.59-9.92,7.26-18.98,11.49-28.32,0-.02,0-.05,.02-.07,.52-1.12,1.02-2.25,1.51-3.39,.22-.5,.44-1.01,.65-1.52-.11,.3-.21,.6-.31,.9-1.96,5.55-3.51,11.12-4.65,16.73-.62,3-1.12,6.02-1.5,9.04-.6,4.63-.92,9.29-.96,13.96-.09,7.94,.62,15.94,2.12,24.01,7.89-.9,15.39-3.42,23-5.51-.1-12.11-1.71-24.21,.84-36.34,.68-3.28,4.6-6.83,.74-10.57,1.94-1.36,3.09-4.26,6.13-3.42,.13,.03,.27,.07,.41,.12,.68-.31,1.36-.63,2.04-.95,.01-.01,.02-.01,.04-.01,.61-.29,1.23-.57,1.84-.86,16.3-5.31,32.46,5.05,35.49,23.06,1.22,7.24,.46,14.04-2.68,20.16-1.24,2.44-2.87,4.78-4.9,6.99-.32,.27-.63,.54-.95,.81-.44,.38-.89,.76-1.33,1.13,.02,.3,.02,.59-.01,.87-.06,1.35-.47,2.47-1.12,3.46-.24,.38-.52,.74-.81,1.08-.02,.02-.03,.04-.05,.05-.93,1.03-2.08,1.93-3.24,2.81-1.22,4.21-5.17,7.03-6.14,11.38-.05,.22-.1,.45-.13,.68-.12,.12-.23,.24-.33,.37-.35,.44-.55,.93-.67,1.44-.04,.17-.07,.34-.09,.51v.02c-.08,.5-.1,1.02-.12,1.54-1.88,4.68-1.23,9.51-.87,14.32-.17,.29-.22,.61-.18,.93-.01,.07-.02,.13-.03,.2-.05,.42-.12,.83-.17,1.25,0,.01-.03,.15-.03,.15l-.13,.28s.22,.17,.23,.17c-.32,1.78,.45,3.33,.95,4.95,.03,.08,.05,.15,.07,.23,.01,0,.02-.01,.03-.01,.27-.1,.5-.21,.7-.33,2.29-1.34,.82-3.97,1.42-5.88,1.25-2.63,2.16-5.46,3.33-8.12,1.19-2.67,2.65-5.2,5-7.23,.36-.33,.72-.68,1.08-1.02,.08-.23,.1-.47,.06-.72,.49,.02,.99,.05,1.49,.06,.37-1.28,.81-2.43,2.03-2.43,.19,0,.4,.03,.64,.1,.17,.03,.36,.1,.57,.19-.06-.21-.1-.41-.12-.59-.25-1.45,.31-2.1,1.94-1.67,.11,.03,.22,.06,.34,.1h0c.03-.17,.06-.33,.11-.48,.79-3.2,3.52-4.1,6.28-4.96,.07-.02,.15-.05,.22-.07,1.08-.72,2.16-1.46,3.25-2.19,.05-.19,.11-.38,.18-.56,.74-2.2,2.06-3.7,4.62-3.71,.09-.01,.19,0,.28,0-.03-.06-.05-.13-.07-.18-.38-1.06,.26-1.09,1.09-.92,.02,0,.04,.01,.06,.01,0-.02-.01-.04-.01-.05-.25-.95,.24-1.18,1.09-1.01-.18-.92,.2-1.27,1.09-1.08,.12-2.02,1.67-2.62,3.24-3.2h0c1.01-1.51,1.8-3.3,3.95-3.28,.12,0,.22,.01,.34,.02,.02-.15,.04-.29,.07-.43,.44-2.43,2.3-3.71,4.25-4.94,3.09-5.97,7.17-11.33,9.8-17.63,6.65-15.9,3.71-32.35-8.56-44.34Zm-79.64-5.64c-.33,.37-.68,.75-1.02,1.13-.03,.06-.06,.13-.09,.2-.21,.54-.37,1.3-.95,1.12-.12-.04-.26-.12-.42-.25-.03-.02-.05-.04-.07-.07-.61-.6,.18-1.39,.73-1.95,.25-.28,.5-.58,.76-.87,.59-.61,1.18-1.23,1.78-1.84,.34-.36,.7-.73,1.04-1.1,.46-1.18,1.02-2.26,2.71-2.47,0,.03,.01,.05,.01,.08,.1,.61-.02,1.08-.25,1.48-.4,.71-1.16,1.2-1.69,1.81-.26,.29-.52,.6-.78,.89-.4,.42-.79,.84-1.2,1.26-.18,.19-.37,.39-.56,.58Zm5.19,31.55s-.02,.05-.03,.07c-.18,.47-.36,.93-.56,1.4-.2,.49-.41,1-.63,1.51-.03,.04-.04,.09-.06,.14-.56,1.33-1.2,2.75-1.93,4.43-.16,.38-.34,.78-.52,1.2-1.25-4.39,.2-7.02,.87-9.74,.18-.73,.65-1.54,1.5-1.56,.11,0,.24,.01,.37,.04,.1,.02,.19,.05,.27,.09,1.1,.41,1.01,1.56,.72,2.42Z"/>
      <path class="cls-7" d="M248.54,388.32c-1.32,2.28-2.57,4.59-3.73,6.96-.3,.61-.59,1.22-.87,1.83-2.08,4.52-3.79,9.19-5.31,13.93-1.44,4.51-3.78,8.54-7.25,11.78-1.56,1.47-3.52,2.85-5.78,2.02-1.67-.61-2.56-2.36-2.37-4.17,.16-1.49,.88-2.91,1.26-4.38,.24-.94,1.49-2.28,.18-2.79-1.33-.52-1.81,1.16-2.15,2.21-.72,2.26-2.28,4.35-1.46,6.96,.2,.63-.25,.99-.89,1.03-2.66,.19-5.86-1.64-5.93-4.25,0-.29,0-.57,0-.84h0c.04-2.4,.61-4.53,2.3-6.37,.53-.57,1.36-1.35,.59-2.06-.91-.86-1.58,.12-2.17,.78-2.17,2.42-3.61,5.12-3.46,8.59-.81-1.04-1.23-2.11-1.36-3.19-.23-1.68,.2-3.39,.8-5.07,.53-1.53,1.59-2.85,2.92-3.8,3.01-2.15,5.31-4.78,7.19-7.67,.58-.88,1.12-1.78,1.61-2.71,1.41-2.58,2.57-5.31,3.66-8.08,.22-.56,.44-1.12,.65-1.68,6.78,4.41,14.24,2.02,21.57,.97Z"/>
      <path class="cls-5" d="M37.91,183.92c-.02-6.42-2.47-12.22-4.5-18.14-3.31-9.67-6.43-19.39-7.24-29.65-.72-9.07,.08-18.1,.77-27.14,.54-6.97,2.36-13.53,4.89-20,1.59-4.06,3.53-7.94,5.34-11.87-2.53,2.88-4.62,6-5.88,9.57-1.66,4.73-3.3,9.45-5.31,14.06-3.64,8.34-5.88,17.1-7.28,26.08-1.29,8.24-2.07,16.57-.73,24.82,1.88,11.54,7.1,21.57,15.37,29.9,1.93,1.94,4.65,3.27,4.18,6.8,.75-1.58,.39-3.01,.39-4.43Zm-1.78-2.6c-.59,.39-.95-.18-1.32-.55-11.76-11.86-16.99-26.18-15.9-42.78,.64-9.62,2.66-19.01,5.31-28.27,.16-.58,.16-1.24,1.31-2.09-.79,6.02-1.07,11.56-1.24,17.11-.35,11.42,1.84,22.36,5.14,33.27,2.23,7.37,5.08,14.56,6.81,22.08,.11,.45,.3,.96-.11,1.23Z"/>
      <path class="cls-3" d="M36.12,181.32c-.59,.39-.95-.18-1.32-.55-11.76-11.86-16.99-26.18-15.9-42.78,.64-9.62,2.66-19.01,5.31-28.27,.16-.58,.16-1.24,1.31-2.09-.79,6.02-1.07,11.56-1.24,17.11-.35,11.42,1.84,22.36,5.14,33.27,2.23,7.37,5.08,14.56,6.81,22.08,.11,.45,.3,.96-.11,1.23Z"/>
      <path class="cls-5" d="M133.91,215.31c-2.98-3.84-7.12-6.1-11.53-7.52-2.7-.88-5.81-.43-8.1,2.01-5.17,5.52-7.76,12.4-9.98,19.4-1.06,3.31-1.4,6.86-2.13,10.69,2.42-1.05,.5-4.05,2.76-4.02,1.46,.02,2.9,1.24,4.35,1.92,.09,.04,.16,.08,.25,.12,8.86,3.4,20.04,.11,23.41-10.31,1-3.1,.37-6.45,1.61-9.44,.53-1.28,.05-1.97-.64-2.85Zm-8.23,19.96c-5.88,3.55-11.93,3.3-17.96,.31-1.69-.84-2.47-2.13-2.14-4.16,.55-3.5,1.78-6.72,3.43-9.82,1.64-3.07,2.88-6.35,5.04-9.15,1.21-1.57,2.54-2.57,4.58-2.92,7.3-1.26,13.81,3.9,14.02,11.26,.22,6.05-1.53,11.21-6.97,14.48Z"/>
      <path class="cls-3" d="M132.65,220.79c-.21-7.36-6.72-12.52-14.02-11.26-2.04,.35-3.37,1.35-4.58,2.92-2.16,2.8-3.4,6.08-5.04,9.15-1.65,3.1-2.88,6.32-3.43,9.82-.33,2.03,.45,3.32,2.14,4.16,6.03,2.99,12.08,3.24,17.96-.31,5.44-3.27,7.19-8.43,6.97-14.48Zm-11.35-5.11c-2.21,.03-1.52,1.4-1.41,2.62,.28,3.12,.46,6.24-1.83,8.89,1.63-4.47,1.02-8.68-1.38-12.63-.82-1.36-.28-1.67,.9-1.99,1.87-.5,3.11,.36,4.12,1.76,.42,.58,.58,1.34-.4,1.35Z"/>
      <path class="cls-5" d="M67.72,236.37c-1.91-7.4-4.95-14.33-8.42-21.12-1.37-2.66-3.24-4.66-5.8-6.15-2.46-1.43-3.16-1.37-4.33,1.21-3.02,6.67-2.53,13.47,.7,19.73,2.52,4.9,7.06,7.76,12.86,8.07,1.7,.09,3.42-1.27,5.39,.62-.2-1.17-.25-1.78-.4-2.36Zm-5.67,.73c-4.18-.04-9.85-4.7-11.52-9.76-1.44-4.37-2.48-8.84-1.12-13.47,.38-1.27,.58-3.01,2.01-3.26,1.63-.29,3.01,.92,4.11,2.12,.66,.72,1.3,1.54,1.69,2.43,2.64,5.98,6.16,11.57,7.97,17.93,.88,3.11,.16,4.03-3.14,4.01Z"/>
      <path class="cls-3" d="M65.18,233.09c-1.81-6.36-5.33-11.95-7.97-17.93-.39-.89-1.03-1.71-1.69-2.43-1.1-1.2-2.48-2.41-4.11-2.12-1.43,.25-1.63,1.99-2.01,3.26-1.36,4.63-.32,9.1,1.12,13.47,1.67,5.06,7.34,9.72,11.52,9.76,3.3,.02,4.02-.9,3.14-4.01Zm-9.71-7.37c1.02-4.26-.44-7.67-.9-11.63,3.39,2.61,3.96,8.18,.9,11.63Z"/>
      <path class="cls-5" d="M123.53,138.75c-.23,3.57-1.57,6.7-3.62,9.61-4.5,6.37-8.84,12.84-11.53,20.25-.63,1.73-1.09,3.53-1.93,5.22-.19-2.64,.74-5.03,1.65-7.43,1.86-4.91,4.84-9.18,7.63-13.55,2.89-4.53,5.85-9,7.8-14.1Z"/>
      <path class="cls-5" d="M86.33,255.1c-2.12,3.04-5.52,3.01-7.75-.04-.33-.45-.69-.9-.29-1.41,.18-.24,.6-.29,.7-.33,1.04,.02,1.14,.67,1.5,1.19,1.39,2.03,3.18,1.93,4.3-.3,.49-.96,1.2-1.23,1.9-.81,1,.62-.01,1.2-.36,1.7Z"/>
      <path class="cls-5" d="M153.03,203.55c-2.33,1.11-4.66,2.22-6.98,3.34,1.61-2.6,4.15-3.26,6.98-3.34Z"/>
      <path class="cls-5" d="M30.97,75.61v5.84c-.99-1.98-.86-3.91,0-5.84Z"/>
      <path class="cls-5" d="M218.22,89.25c-.82,.46-1.63,.95-2.47,1.38-1.29,.66-2.6,1.27-4.51,2.2,1.41-1.67,2.86-1.94,4.03-2.67,.85-.54,1.88-.8,2.83-1.19,.04,.09,.08,.19,.12,.28Z"/>
      <path class="cls-5" d="M101.59,217.15c-.34,2.19-.45,3.79-1.72,5.45-.54-2.21-.09-3.71,1.72-5.45Z"/>
      <path class="cls-5" d="M381.01,5.52c-22.48,15.47-42.32,34.03-61.89,52.95,18.24-20.41,39.03-37.9,61.89-52.95Z"/>
      <path class="cls-5" d="M309.05,70.08c-2.24,10.58-1.68,21.39-3.03,31.99-.11-10.8-.87-21.61,3.03-31.99Z"/>
      <path class="cls-5" d="M121.29,215.68c-2.21,.03-1.52,1.4-1.41,2.62,.28,3.12,.46,6.24-1.83,8.89,1.63-4.47,1.02-8.68-1.38-12.63-.82-1.36-.28-1.67,.9-1.99,1.87-.5,3.11,.36,4.12,1.76,.42,.58,.58,1.34-.4,1.35Z"/>
      <path class="cls-5" d="M55.47,225.72c1.02-4.26-.44-7.67-.9-11.63,3.39,2.61,3.96,8.18,.9,11.63Z"/>
      <path class="cls-5" d="M396.06,158.59c-13.66-9.15-24.46-21.3-35.05-33.66-2.05-2.39-2.87-5.14-2.81-8.2,.1-5.29,.48-10.58,.37-15.87-.32-15.06-1.66-30.13,.34-45.18,1.08-8.14,2.59-16.09,7.21-23.18,3.54-5.42,7.32-10.66,11.02-15.95,3.3-4.71,6.54-9.45,9.8-14.18,.4-.59,.9-1.28,.4-1.98-.44-.61-1.13-.4-1.7-.06-4.82,2.83-10.3,4.16-15.23,6.77-9.11,4.84-18.41,9.28-28,13.1-5.09,2.03-10.09,4.29-15.37,5.8-4.99,1.42-7.88,5.5-11.11,9.03-6.22,6.79-12.95,12.97-20.88,17.66-7.58,4.48-14.6,9.76-21.84,14.72-2.08,1.43-3.31,3.28-3.58,5.73-.37,3.3-.73,6.6-.91,9.92-.9,16.53,.01,33.02,1.66,49.47,.36,3.6,.48,7.54,3.45,10.24,7.42,6.78,14.98,13.41,22.43,20.16,1.39,1.26,2.82,1.69,4.65,1.52,5.72-.51,11.46-.79,17.21-.78,.86,0,1.97-.38,2.47,.55,.6,1.11-.66,1.49-1.22,2.09-1.66,1.76-3.31,3.54-5.08,5.2-1.65,1.55-2.08,2.9-.26,4.72,1.77,1.77,3.52,3.67,4.79,5.8,2.48,4.19,5.9,6.06,10.73,5.45,.75-.09,1.82-.42,2.16,.52,.44,1.22-.8,1.46-1.55,1.77-4.08,1.72-6.95,4.13-6.79,9.15,.06,2.15-.46,4.16,2.65,5.2-4.07,.48-5.39,3.31-6.44,6.33-5.77,16.66-17.92,27.11-33.47,34.11-2.61,1.18-4.3,2.7-5.24,5.31-1.67,4.65-3.57,9.24-6.39,13.29-3.97,5.7-2.31,5.61-8.17,1.48-5.75-4.06-12.01-6.66-19.11-7.34-5.86-.56-11.44,.79-17.07,1.82-11.64,2.14-23,5.68-34.75,7.3-1.96,.27-3.87,.82-5.87,.56-7.41-.96-14.58-2.95-21.65-5.28-2.15-.7-4.49-1.19-6.61-3.18,21.03,3.71,28.35-4.4,31.69-15.29,3.16-10.3-1.3-21.89-9.1-25.13-.22,1.15,.49,1.74,.72,2.49,1.11,3.67,1.76,7.41,.2,11.06-3.25,7.58-7.71,14.04-16.21,16.5-7.31,2.1-14.63,2.39-21.97,.17-2.94-.89-5.76-2.01-7.72-4.61-1.06-1.39-1.27-2.62-.11-4.11,4.23-5.42,6.68-11.87,10.14-17.73,4.04-6.84,8.71-13.28,17.13-15.38,.52-.13,1.15-.15,1.29-.79,.17-.79-.48-1.09-1.04-1.35-1.73-.79-3.54-1.31-5.39-1.69-1.66-.34-2.02-1.13-.65-2.3,1.09-.93,2.25-1.79,3.4-2.65,6.14-4.59,13.02-7.94,19.62-11.75,6.2-3.58,11.91-7.71,16.37-13.39,.74-.94,1.52-1.82,.73-3.12-.49-.8-1.73-1.54-.99-2.54,.73-.99,2.01-.25,3.04-.2,.63,.03,1.25,.14,1.88,.2,.78,.08,1.73,.5,2.19-.41,.55-1.07-.49-1.59-1.11-2.17-1.46-1.36-3.51-2.14-4.31-4.2,.93-.75,1.6,.02,2.31,.21,3.9,1.03,5.39,.58,7.41-1.98,8.25-10.47,13.52-22.39,17.14-35.1,1.47-5.18,1.4-5.2-3.73-6.76-.59-.18-1.33-.18-1.34-1.03,0-.74,.61-1.04,1.17-1.34,1.82-.97,3.63-1.98,5.47-2.9,1.01-.51,1.95-1.07,2.07-2.28,.51-4.73,1.68-9.35,2.14-14.11,1.02-10.47,1.36-20.96,1.53-31.47,.17-10.67,1.01-21.36-.49-32.01-.1-.76,.22-1.73-.83-2.04-.74-.23-1.13,.38-1.49,.9-3.81,5.69-8.64,10.54-13.01,15.76-5.87,7.03-11.89,13.91-19.23,19.53-8.4,6.44-16.69,13.03-25.05,19.53-1.22,.95-1.37,1.89-.59,3.23,.94,1.62,1.7,3.35,2.54,5.04,.26,.55,.77,1.12,.24,1.72-.5,.57-1.2,.26-1.78,.09-2.15-.62-4.34-1.18-6.41-2.01-1.54-.62-2.8-.54-3.96,.56-3.83,3.62-7.95,6.93-11.29,11.07-8.78,10.86-15.58,22.76-19.42,36.27-.22,.79-.29,1.79-1.66,2.21-.9-3.97-2.15-7.76-4.5-11.09-.49-.68,.14-1.33,.59-1.91,2.69-3.4,4.63-7.24,6.57-11.1,5.89-11.76,5.9-23.69,1.03-35.68-4.86-11.96-14.3-18.92-26.49-21.52-9.36-2-18.91-.67-28.11,2.17-7.97,2.45-14.85,6.71-20.56,12.82-.82,.89-1.52,2.11-3.08,1.76-1.58-.36-3.17-.66-4.74-1.04-.66-.16-1.57-.13-1.62-1.09-.04-.89,.84-1.08,1.45-1.39,2.4-1.22,4.82-2.41,7.22-3.61,1.82-.91,3.4-2.09,3.95-4.17,1.79-6.76,4.98-12.86,8.6-18.78,4.86-7.97,9.62-16,14.42-24.01,.31-.51,.96-1.09,.4-1.67-.73-.75-1.32,.03-1.8,.49-1.75,1.7-3.76,3.04-5.84,4.3-4.38,2.65-8.74,5.33-13.05,8.08-11.74,7.52-22.7,16.05-33.22,25.2-5.04,4.38-9.71,9-13.75,14.34-2.68,3.54-2.88,6.95-1.07,10.77,.36,.76,1.16,1.62,.47,2.48-.68,.84-1.66,.28-2.53,.13-5.15-.89-6.89-.29-8.94,3.36-.96,1.71-1.79,3.51-2.54,5.33C1.86,106.63,1.14,116.46,.06,126.24c-.39,3.61,1.09,6.83,1.39,10.23,.88,9.92,1.43,19.86,2.03,29.8,.26,4.22,.99,4.72,4.79,2.94,.52-.25,1.07-.9,1.67-.24,.44,.48,0,1.01-.2,1.48-1.01,2.4-2.03,4.79-3.03,7.19-.25,.59-.46,1.24,.07,1.76,.59,.59,1.15,.16,1.7-.16,.59-.34,1.19-1.05,1.89-.35,.7,.71,.29,1.59-.07,2.27-1.15,2.18-.47,4.05,.95,5.7,3.57,4.14,6.72,8.65,10.97,12.19,3.31,2.76,6.44,5.73,9.65,8.6,.4,.35,.93,.67,.82,1.28-.12,.72-.75,.66-1.28,.61-3.41-.34-6.55,.83-9.73,1.73-.82,.23-2.11,.2-2.08,1.31,.03,1.2,1.34,.9,2.15,1.08,13.07,2.96,22.42,9.78,24.92,23.83,1.14,6.46,3.89,12.01,9.99,15.17,10.18,5.27,20.86,9.15,32.22,10.97,1.59,.26,2.54,.85,3.08,2.46,1.16,3.46,1.46,7.06,1.6,10.62,.35,9.2-3.21,16.45-11.46,20.96-2,1.1-4.08,2.34-6.57,1.99-.67-.09-1.5-.68-1.89,.24-.39,.94,.47,1.44,1.14,1.87,4.2,2.69,8.68,3.72,13.59,2.35,.72-.2,1.65-.95,2.19-.09,.48,.76-.42,1.45-.88,2.08-5.46,7.44-12.62,12.11-21.86,13.3-4.77,.61-12.04-1.85-14.42-6.96-.26-.56-.49-1.3-1.29-1.13-.87,.2-.9,1.04-.98,1.74-.43,3.96,.29,7.7,2.29,11.14,3.27,5.64,8.18,9.63,13.9,12.35,8.96,4.26,18.14,3.35,27.19-.08,1.32-.51,2.11-.73,3.05,.8,4.23,6.94,7.06,14.37,7.63,22.48,.5,7.26-1.37,14.44-5.1,20.3-5.04,7.9-13.08,12.41-22.63,13.53-2.53,.3-5.06,.16-6.96-1.99-.45-.51-.94-1.35-1.74-.74-.72,.57-.16,1.37,.13,1.97,1.81,3.6,4.11,6.66,8.04,8.31,5.51,2.31,10.99,1.93,16.54,.36,.5-.14,1.01-.53,1.51-.12,.53,.43,.22,.98,.06,1.48-1.99,6.52-3.07,13.3-5.76,19.62-3.46,8.14-6.1,16.66-13.7,22.41-3.06,2.31-4.39,5.95-3.49,10.16,.9,4.21,7.79,8.92,10.96,9.39,5.19,.77,10.17-.25,14.49-3.56,4.32-3.32,7.75-7.42,10.74-11.95,2.68-4.05,4.6-8.99,10.52-9.48,.25-.03,.47-.26,.71-.38,7.74-3.74,13.98-9.05,17.65-16.99,.94-2.03,2.15-2.69,4.46-1.96,1.65,.52,3.93,.57,5.82,.35,2.15,.04,4.31-.15,6.3-1,.15-.04,.29-.08,.42-.12,.62-.15,1.19-.5,1.24-1.24,.04-.57-.43-.8-.88-.78-4.12,.19-6.25-3.13-9.09-5.16-2.02-1.45-3.26-3.26-2.14-5.99,.36-.85,.13-1.94,.14-2.92,.14-8.3-1.61-16.42-2.47-24.62-.4-3.85,.39-7.25,1.92-10.68,2.43-5.4,5.26-10.62,7.19-16.24,.8-2.31,2.15-3.82,4.98-3.44,1.86,.26,3.74-.24,5.6-.63,13.59-2.88,26.62-8.02,40.54-9.77,4.05-.51,7.01,.39,9.35,3.04,5.75,6.49,12.14,12.22,19.07,17.4,2.92,2.19,3.81,5.12,2.65,8.61-1.26,3.74-2.44,7.51-3.86,11.19-4.34,11.28-7.83,23.06-18.24,30.78-1.62,1.2-2.25,3.2-2.4,5.26-.41,5.93,4.06,10.94,10.03,11.31,2.66,.16,5.38-.15,7.91,1.19,.87,.46,1.92,.1,2.87-.26,4.58-1.74,7.42-5.41,9.58-9.43,2.07-3.84,3.45-8.06,5.03-12.16,3.54-9.24,7.81-18.09,13.44-26.27,2.54-3.69,5.05-7.42,6.84-11.57,.63-1.45,.63-2.71-.2-4.07-.85-1.42-1.53-2.94-2.37-4.58,.6-.06,.89-.18,1.09-.1,5.65,2.52,11.35,4.96,16.92,7.65,3.06,1.47,4.56,4.9,4.12,8.23-1.43,10.87-3.77,21.58-5.8,32.34-1.72,9.13-5.33,17.29-12.09,23.86-.64,.62-1.17,1.37-1.67,2.11-3.24,4.75-1.97,10.55,2.98,13.46,1.39,.81,2.82,1.71,4.35,2.1,4.86,1.23,9.78,2.76,14.56-.34,3.14-2.04,5.11-5.06,6.65-8.3,5.5-11.61,9.57-23.79,13.93-35.84,2.14-5.93,1.97-6.06,8.08-4.28,6.07,1.78,11.76,.13,17.37-1.87,5.76-2.07,11.49-3.67,17.57-1.42,.33,.13,.69,.12,1.11-.5-1.41-1.38-3.16-2.26-5.11-2.29-3.5-.04-6.98-.63-10.49-.23-5.55,.64-10.44-1.08-14.97-4.16-4.69-3.2-7.75-8.94-6.65-13.14,1.01-3.91,1.91-7.83,2.68-11.8,.79-4.09,.92-7.81-2.12-11.35-3.08-3.59-5.67-7.63-8.32-11.58-6.08-9.05-9.41-19.31-12.76-29.55-3.72-11.4-6.3-23.24-12.85-33.55-.65-1.03-.38-1.64,.72-2.06,1-.39,2-.72,3.1-.81,4.42-.39,8.79-.08,13.14,.75,3.94,.75,7.45,.27,10.16-3.16,1.27-1.61,2.79-3.04,4.31-4.45,3.19-2.98,6.06-6.33,10.56-7.64,13.17-3.84,26.59-6.21,40.29-6.55,5.09-.13,8.22-2.36,10.51-6.51,2.6-4.72,4.92-9.54,6.54-14.72,.88-2.84,.41-4.87-2.01-6.53-3.28-2.25-5.91-5.22-8.79-7.92-1.34-1.26-1.4-1.9,.31-2.95,4.46-2.74,9.08-5.07,14.11-6.56,1.21-.37,2.74-.84,2.68-2.29-.18-4.11,2.71-5.77,5.57-7.51,1.29-.79,1.77-1.87,1.85-3.34,.43-7.61,.8-15.23,1.43-22.82,.33-3.91,.79-7.93,2.59-11.47,.71-1.41,.79-1.79-.48-2.63Zm-123.27,109.26c4.93-5.3,7.67-11.84,10.07-18.51,.69-1.92,1.81-2.91,3.57-3.63,15.65-6.37,27.3-16.88,33.72-32.76,.47-1.17,1.14-2.28,1.41-3.49,.47-2.19,1.94-3.1,3.89-3.58,.44-.11,.89-.18,1.31-.33,1.3-.47,3.65-.29,3.64-1.56-.02-1.65-2.21-.57-3.39-1-1.55-.58-2.58-1.3-1.95-3.14,.03-.09,.07-.18,.06-.26-.53-5.43,3.04-7.83,7.17-9.94,1.29-.67,3.67-1.29,3.31-2.63-.41-1.5-2.69-.2-4.12-.56-.66-.16-1.42,.01-2.14,.06-3.75,.28-6.72-.75-8.86-4.21-1.45-2.33-3.53-4.28-5.41-6.33-.91-1-.92-1.67,.08-2.68,3.02-3.08,5.91-6.27,8.86-9.41,.35-.37,.96-.66,.69-1.3-.26-.64-.92-.49-1.41-.43-6.24,.8-12.61-.1-18.78,.98-4.92,.85-8.19-1.28-11.11-4.55-5.17-5.79-11.41-10.39-17.19-15.49-1.33-1.17-2.23-2.34-2.67-4.14-1.68-6.95-1.8-14.04-2.51-21.09-.36-3.67-.68-7.32-.64-11.59-.19-7.67-.67-15.92-.37-24.18,.1-2.6,.33-5.19,.51-7.79,.06-.82,.22-1.74,1.17-1.9,.93-.15,1.01,.85,1.36,1.43,4.87,8.02,9.23,16.31,13.03,24.9,1.15,2.61,2.97,4.56,5.29,6.27,13.99,10.29,27.04,21.45,37.15,35.92,6.7,9.6,12.56,19.58,17.99,29.89,2.39,4.54,.92,8.96,.22,13.31-.88,5.45-2.49,10.78-3.89,16.13-1.65,6.33-3.29,12.66-5.15,18.93-2.55,8.61-7.93,15.25-15.37,20.06-8.2,5.3-16.59,10.32-25.01,15.27-6.62,3.9-12.46,8.77-18.28,13.7-1.1,.92-2.23,1.81-3.4,2.65-1.38,.99-2.09-.21-2.92-.98-.76-.71-.63-1.29,.07-2.04Zm-191.69-6.96c-7.97-2.47-15.9-4.91-23.18-9.16-6.18-3.61-9.19-8.94-10.66-15.86-2.5-11.8-9.92-19.91-22.2-22.4-.86-.18-1.99,.03-2.02-1.23-.04-1.41,1.15-1.03,1.98-1.14,1.15-.16,2.3-.33,3.45-.47,6.1-.76,10.98,1.08,14.09,7.37,.55-1.94-.33-2.66-.94-3.4-1.77-2.17-3.93-3.93-6.09-5.69-7.52-6.14-14.67-12.67-21.03-20.04-.29-.34-.55-.72-.86-1.03-2.56-2.59-3.56-5.45-1.66-8.89,.38-.69,.81-1.65,.16-2.27-.77-.75-1.4,.23-2.03,.61-.53,.32-1.02,.89-1.65,.29-.58-.57-.11-1.2,.12-1.75,1.15-2.71,2.35-5.41,3.51-8.12,.21-.47,.67-1,.2-1.48-.63-.64-1.13,.02-1.63,.33-1.23,.75-2.42,1.54-3.65,2.27-1.27,.76-2.07,.45-2.16-1.1-.6-10.21-1.04-20.42-1.82-30.61-.5-6.46-.3-12.92-.53-19.37-.34-9.39,2.85-17.71,7.17-25.76,1.1-2.06,2.75-3,5.09-2.53,2.11,.43,4.2,.89,6.3,1.36,1.35,.31,1.65-.13,1.16-1.39-.9-2.34-1.59-4.78-2.63-7.05-.74-1.62-.52-2.72,.53-4.12,2.42-3.25,4.92-6.42,7.69-9.36,.86-.92,1.34-2.82,3.35-1.77,.51,.26,.53-.39,.57-.66,.3-2.44,2.31-3.48,3.9-4.9,10.31-9.23,21.22-17.66,32.79-25.24,3.82-2.5,8.02-4.44,11.41-7.6,.4-.37,1.09-1.01,1.59-.27,.42,.62-.23,1.16-.67,1.59-5.03,4.86-10.08,9.71-15.11,14.58-7.6,7.38-15.43,14.54-21.99,22.91-.39,.49-.72,1.02-.75,1.84,12.11-15.02,27.99-26.27,40.42-41.02-.73,2.47-2.03,4.62-3.38,6.76-5.96,9.47-12.7,18.6-16.16,29.33-1.73,5.35-5.07,7.45-9.81,8.95-2.2,.69-4.13,2.25-6.71,3.71,3.44,.97,6.22,1.84,9.05,2.52,1.98,.47,1.82,1.29,.73,2.57-5,5.88-7.74,12.83-9.44,20.25-.17,.77-.67,1.92,.21,2.14,1.21,.29,1-1.08,1.26-1.85,.44-1.27,.95-2.51,1.42-3.77,.35-.92,1.73-1.77-.06-2.81-.65-.37,.07-1.31,.39-1.91,7.71-14.36,18.31-25.48,34.6-29.69,9.68-2.51,19.49-3.55,29.29-.1,9.3,3.29,15.6,9.67,20.12,18.29,3.24,6.19,4.04,12.87,3.9,19.51-.12,5.18-2.15,10.18-4.19,15.11-5.43,13.1-15.27,22.34-25.79,31.14-6.81,5.69-14.29,10.57-20.53,16.96-5.75,5.9-8.61,13.08-9.74,21.09-.09,.64,.35,1.66-.66,1.76-.77,.08-1.12-.74-1.33-1.47-1.89-6.53-2.88-13-1.25-19.85,1.59-6.69,5.15-12.12,9.22-17.42,4.58-5.97,9.29-11.91,12.18-18.97,5.69-13.9,1.56-29.19-10.29-38.42-2.24-1.74-4.76-2.88-7.55-3.34-7.13-1.18-14.12-.69-20.84,2.08-1.14,.46-2.15,1.28-3.15,2.03-.67,.5-1.32,1.1-.01,1.73,.92,.44,.51,1.15,.27,1.84-2.81,8.13-3.75,16.6-3.89,25.1-.1,6.52,.51,13.06,1.01,19.58,.28,3.58-.78,7.36,.6,10.68,1.62,3.91,.02,6.78-1.6,10.01-3.44,6.84-5.71,13.95-3.86,21.77,.17,.69,.3,1.37,1.17,1.89-1.03-5.74-.8-11.41,1.02-16.94,1.6-4.88,4.23-9.3,6.55-13.84,4.14-8.12,6.74-16.57,6.42-25.81-.06-1.8-1.17-3.33-.96-5.33,2.2,.92,3.36,2.68,4.46,4.35,3.4,5.16,5.46,10.83,6.18,17,.29,2.53-.55,4.44-2.07,6.39-6.18,7.94-6.96,17-2.03,26.56-.62-2.9-1.12-5.03-1.52-7.17-1.16-6.2,.15-11.84,3.48-17.21,4.32-6.96,10.14-12.78,14.64-19.61,5.79-8.76,9.43-18.06,8.78-28.74-.02-.33,.13-.66,.21-1.04,1.59,.96,2.49,3.16,3.31,6.02,3.59,12.48-1.83,22.51-8.53,32.23-4.11,5.97-9.32,11.23-12.28,17.94-4.84,10.98-4.06,21.71,2.27,31.97,.53,.86,1.05,1.84,1.63,2.08-1.85-11.68,2.44-21.32,10.57-29.54,7.27-7.36,16.24-12.72,23.8-19.77,2.29-2.15,4.35-4.6,6.86-6.44,1.84-1.34,3.11-2.94,4.34-4.73,.97-1.42,1.98-1.37,2.81,.24,3.26,6.37,4.78,12.81,1.99,19.89-3.58,9.05-4.86,18.69-6.48,28.22-.17,1.04-.02,2.14,.44,3.31,.41-2.17,.91-4.31,1.21-6.49,1.48-10.89,4.7-21.34,8.23-31.68,3.58-10.48,6.67-21.21,13.11-30.51,5.12-7.4,10.7-14.39,17.02-20.81,1.81-1.85,4.16-2.3,6.15-1.58,3.67,1.35,7.81,1.33,10.98,3.86,.71-.52,.54-1.04,.13-1.43-2.47-2.37-3.26-5.75-5.11-8.48-.89-1.31-.08-1.89,.83-2.61,6.11-4.85,12.19-9.74,18.28-14.61,11.61-9.27,22.02-19.7,31.09-31.48,1.67-2.17,3.23-4.48,5.8-5.88,1.43-.78,1.79-.57,1.7,.87-.33,5.91,.65,11.77,.28,17.71-.51,8.31-.47,16.66-.39,24.98,.03,3.48-1.11,5.61-4.49,6.62-2.13,.64-4.18,1.57-6.4,3.09,3.09-.4,5.32-1.98,7.81-2.81,1.75-.59,2.39-.56,2.26,1.63-.42,6.9-1.58,13.72-2.21,20.6-.18,2.07-1.09,3.6-3.24,4.48-2.56,1.05-4.95,2.51-7.41,3.8-.44,.24-1.14,.35-1.08,1.02,.05,.64,.73,.75,1.21,.87,1.56,.38,3.14,.77,4.74,.97,2.49,.31,2.74,1.69,2.25,3.81-.7,3.08-1.98,5.96-3.13,8.85-3,7.47-5.73,15.08-10.64,21.64-1.65,2.21-3.6,4.21-4.77,6.82-.53,1.2-1.81,1.5-3.25,1.12-3.18-.84-6.18-2.42-10.2-2.5,2.62,2.15,4.84,3.97,7.05,5.79,.54,.45,1.36,.8,1.01,1.68-.35,.89-1.22,.52-1.89,.53-.45,.01-.9-.1-1.35-.09-.86,.02-1.93-.45-2.48,.45-.51,.84,.4,1.5,.85,2.09,1.52,1.97,1.03,3.49-.66,5.12-4.91,4.77-10.4,8.63-16.3,12.16-6.13,3.66-12.54,6.94-18.15,11.5-2.61,2.13-5.7,3.67-8.8,6.49,2.97-.11,5.41-.26,7.73,.49,.89,.28,2.25,.08,2.21,1.45s-1.34,1.2-2.28,1.27c-1.3,.1-2.48,.51-3.45,1.36-5.1,4.48-9.24,9.66-12.29,15.81-4.63,9.35-9.63,18.49-18.37,24.85-4.69,3.41-9.92,5.63-15.24,7.83-5.34,2.2-10.97,3.25-16.37,5.1-5.17,1.76-10.18,1.14-15.27-.45ZM60.36,126.9c1.58,8.07-.52,15.63-3.35,23.06-.16,.42-.37,.82-.61,1.2-.28,.44-.49,1.08-1.13,1-.72-.09-.54-.79-.66-1.28-2.17-8.99-1.76-18.18-1.97-27.3-.23-9.56,1.23-18.94,3.95-28.12,.6-2.03,1.54-3.81,3.59-4.37,8.18-2.26,16.41-2.7,24,1.7,5.55,3.22,8.79,8.18,8.46,15.04-.45,9.26-3.93,17.41-8.91,25-2.41,3.66-4.9,7.3-8,10.45-.48,.48-.68,1.43-1.58,1.23-.8-.18-.51-1.03-.71-1.58-1.45-4.03-2.31-8.24-4.4-12.07-2.44-4.48-5.36-8.41-10.46-11.39,.72,2.96,1.34,5.18,1.78,7.43Zm75.38,294.1c-4.54,7.71-10.56,13.76-18.92,17.27-.33,.14-.67,.27-.98,.4-1.38,.04-1.22-.64-.82-1.54,2.63-5.99,5.24-11.99,7.85-17.99,.75-1.73,1.5-3.46,2.19-5.21,.39-.99,.73-1.69,1.84-.64,2.36,2.25,5.3,3.67,8.01,5.41,.97,.63,1.55,1.07,.83,2.3Zm5.88-14.81c-4.55-4.88-7.08-19.6-1.99-27.35,.8,9.02,2.03,17.99,1.99,27.35Zm118.12-35.87c-5.12,8.21-10.64,16.18-14.9,24.89-2.48,5.08-4.45,10.38-6.17,15.77-1.44,4.5-3.79,8.53-7.25,11.78-1.56,1.46-3.53,2.85-5.79,2.02-1.67-.62-2.55-2.37-2.36-4.18,.15-1.49,.88-2.91,1.25-4.38,.24-.94,1.49-2.27,.18-2.79-1.32-.51-1.81,1.17-2.15,2.22-.72,2.25-2.28,4.35-1.46,6.95,.2,.63-.25,.99-.89,1.04-2.66,.19-5.86-1.65-5.92-4.25-.08-2.74,.41-5.15,2.3-7.21,.52-.57,1.35-1.36,.58-2.07-.91-.85-1.58,.12-2.17,.79-2.17,2.42-3.61,5.12-3.46,8.58-2.07-2.65-1.54-5.49-.56-8.26,.53-1.52,1.6-2.85,2.93-3.8,6.44-4.61,9.69-11.42,12.46-18.45,2.61-6.66,4.87-13.45,7.2-20.22,1.56-4.5,.28-8.33-3.37-11.56-6.64-5.86-14.03-10.93-19.57-17.99-.53-.67-1.74-1.16-1.29-2.14,.42-.93,1.62-.54,2.47-.58,5.48-.25,10.94-.37,16.4,.4,1.47,.21,2.74,.64,3.85,1.68,7.02,6.51,15.15,11.46,23.46,16.08,5.73,3.18,7.7,10.12,4.23,15.68Zm22.25-84.91c4.56,10.55,7.59,21.6,11.19,32.47,1.98,5.94,4.04,11.85,6.83,17.48,3.14,6.33,7.35,11.93,11.99,17.17,2.54,2.87,3.16,5.92,2.53,9.44-.59,3.26-1.21,6.53-1.95,9.76-.34,1.49-.14,3.25-1.94,4.18-.72,.37-.35,1.35-.11,2,1.29,3.56,2.85,7,5.66,9.67,4.56,4.35,9.81,6.83,16.32,5.81,.82-.13,1.99-.41,2.32,.71,.26,.86-.66,1.25-1.35,1.34-3.94,.51-7.5,2.41-11.42,3.05-6.41,1.05-11.85-.94-15.89-5.71-3.17-3.74-4.75-8.38-4.07-13.5,.08-.62,.51-1.42-.44-1.84-.81,1.51-.87,1.51-.86,2.67,.04,4.86,1.24,9.41,4.23,13.3,1.14,1.48,1.5,2.78,1.08,4.66-.76,3.38-2.35,6.39-3.54,9.57-3.63,9.67-7.17,19.36-10.91,28.98-1.71,4.4-4.07,8.45-8.61,10.62-2.64,1.25-4.51,.42-4.94-2.43-.33-2.17-.82-4.43,.14-6.62,.23-.53,.76-1.29-.09-1.6-.71-.26-1.02,.54-1.29,1.11-1.02,2.08-1.24,4.32-1.07,6.57,.22,3.01-.74,3.78-3.72,2.81-1.09-.36-1.83-1.09-2.35-2.09-1.52-2.91-1.35-5.85-.19-8.84,.35-.92,1.42-1.7,.69-3.11-3.12,3-4.32,6.49-3.28,10.92-3.67-2.61-4.18-8.12-1.37-12,1.16-1.6,2.48-3.08,3.78-4.56,5.03-5.76,7.92-12.48,9.45-19.93,.74-3.61,.89-7.28,1.59-10.88,1.41-7.21,2.91-14.39,4.15-21.62,.8-4.68-1.47-8.65-5.74-10.73-11.83-5.77-24.11-10.65-35.03-18.2-6.09-4.21-11.98-8.53-15.89-15.02-.65-1.07-1.33-2.22-2.99-2.85,.45,2.01,1.77,3.04,2.56,4.38,.62,1.04,2.3,1.89,1.55,3.14-.6,.99-1.9-.41-2.95-.35-.26,.02-.53-.05-.8-.06-7.99-.31-15.95-.2-23.86,1.22-10.25,1.83-20.43,3.77-30.38,6.96-5.25,1.69-10.58,3.48-16.23,3.6-.6,0-1.3,.37-1.71-.32-.38-.66,.14-1.18,.46-1.71,2.4-3.99,4.81-7.98,7.19-11.99,1.17-1.96,2.46-3.88,3.1-6.29-1.19,.37-1.42,1.3-1.88,2.01-8.22,12.66-15.14,26-20.82,39.98-3.69,9.08-7.05,18.19-5.47,28.38,1.32,8.51,6.08,14.55,12.74,19.46,1.14,.84,3.09,.47,3.55,2.45-2.29,.6-4.76,.46-7.11,.32-.08-.01-.15,0-.21,.03-14.45-1.94-23.12-10.08-23.6-27.23-1.43,1.65-1.04,3.1-.89,4.46,.43,3.95,1.34,7.78,3.44,11.21,.77,1.27,.82,2.38,.23,3.78-4.75,11.22-9.45,22.47-15.11,33.27-3.3,6.31-7.45,12.06-13.73,15.89-2.39,1.45-2.96,1.21-3.69-1.5-.6-2.24-.24-4.49,.3-7.22-2.61,2.43-3.48,5.88-2.06,8.45,1.09,1.96,.38,2.35-1.35,2.45-1.16,.07-2.33,.22-3.49,.13-4.34-.33-6.14-2.55-5.92-6.94,.09-1.88,1-3.55,1.14-5.45-1.68,1.65-2.58,3.67-3.02,5.93-.12,.63,.62,1.62-.38,1.84-.99,.22-1.27-.86-1.54-1.57-1.34-3.61-1.79-7.17,1.17-10.3,1.54-1.62,3.12-3.22,4.73-4.77,2.23-2.15,4.11-4.5,4.95-7.56,.19-.67,.54-1.35,.96-1.9,1.9-2.48,2.89-5.41,3.75-8.29,2.1-7.03,3.92-14.14,5.69-21.25,.49-1.95,1.32-3.1,3.29-3.76,3.32-1.11,5.65-3.48,6.34-6.38-3.65,4.73-8.7,6.01-13.48,7.73-5.2,1.87-10.4,1.52-15.52-.47-2.44-.95-4.04-2.92-5.7-4.8-.28-.33-.48-.81-.16-1.23,.37-.5,.83-.15,1.19,.04,1.2,.63,2.47,.92,3.81,1.19,3.98,.78,7.52-1.1,10.85-2.35,8.18-3.07,13.86-9.28,16.91-17.41,1.84-4.91,2.74-10.18,3.93-15.32,2.1-9.01,3.53-18.12,3.21-27.43-.04-1.2,.77-2.48-.39-4-1.39,9.51-.95,18.9-3.96,28.28-.47-.77-.76-1.04-.81-1.35-.92-6.19-3.38-11.84-6.08-17.42-1.84-3.79-1.07-5.46,3.59-7.1,6.82-2.39,12.04-10.86,10.61-18.2-.64,7.06-3.49,12.74-9.99,16.21,2.23-4.55,4.1-9.13,3.7-14.3-.01,1.52-.76,2.83-1.1,4.27-2.46,10.35-9.52,17.89-21.08,18.76-9.17,.69-17.97-.57-24.98-7.37-3.75-3.63-7.42-7.38-8.29-12.88-.14-.88-1.11-1.96,.12-2.66,1.17-.67,1.76,.55,2.42,1.18,4.02,3.75,8.85,5.07,14.16,4.47,10.16-1.16,17.49-6.91,23.08-15.07,1.82-2.65,3.66-5.47,4.08-9.05-.42,.2-.64,.22-.72,.34-3.9,6.28-10.63,8.46-17.57,5.7-.61-.24-1.25-.52-1.23-1.24,.03-.95,.85-.7,1.44-.74,2.8-.2,5.15-1.51,7.31-3.16,5.58-4.26,9.34-9.57,9.66-16.88,.21-4.99-.17-9.86-1.96-14.56-.52-1.37-.6-2.43,1.23-2.8,8.82-1.78,17.27-4.66,25.44-8.46,5.77-2.69,11.01-6.03,15.26-10.76,1.21-1.33,1.75-1.21,2.85,.09,2.1,2.46,4.36,4.8,7.31,6.28,.49,.25,1.19,1.17,1.55,.43,.84-1.73,2.22-.74,3-.5,2.44,.77,4.89,.9,7.41,1.09,7.63,.56,14.78-.73,20.41-6.16,6.21-5.98,11.32-12.68,9-22.24-.05-.21,.13-.47,.19-.66,.76-.24,1.06,.28,1.37,.69,3.15,4.29,5.31,8.84,5.01,14.41-.42,8.11-4.06,14.17-10.99,18.25-5.56,3.28-11.71,3.06-17.82,2.4-4.61-.49-8.98-2.03-13.32-4.03,.06,.42,.03,.64,.12,.72,.41,.34,.82,.69,1.28,.94,6.3,3.42,12.56,6.88,19.54,8.82,7.66,2.12,15.3,4.63,23.37,3.63,10.49-1.29,20.61-4.45,30.95-6.53,6.07-1.22,12.14-2.75,18.31-2.63,9.03,.17,17.01,3.48,24.18,9.12,6.03,4.74,10.43,10.45,13.45,17.46Zm112.62-122.9c-2.49,6.08-2.72,12.58-3.18,18.99-.33,4.57-.3,9.16-.31,13.74,0,1.25-.42,1.95-1.44,2.61-1.57,1.03-3.03,2.24-4.52,3.39-.79,.62-1.56,1.35-1.5,2.43,.17,3.2-2.1,4.22-4.51,4.77-4.84,1.12-8.75,4.04-13.01,6.29-1.49,.78-1.53,1.69-.32,2.93,3.19,3.29,6.38,6.58,10.02,9.38,2.15,1.65,2.92,3.57,1.64,6.07-2.44,4.78-4.8,9.62-7.4,14.32-2.36,4.27-6.5,5.16-11,5.33-13.31,.5-26.36,2.88-39.22,6.18-4.16,1.07-6.85,4.8-9.99,7.57-2.22,1.95-4.27,4.11-6.27,6.3-1.7,1.87-3.67,2.41-6.07,1.85-3.68-.86-7.42-1.35-11.2-1.32-2.66,.03-5.39-.35-7.84,1.23-1.13,.73-1.87-.19-2.42-1.01-.58-.88,0-1.41,.7-1.99,6.94-5.82,13.86-11.66,21.72-16.28,6.87-4.05,13.64-8.28,20.5-12.33,8.76-5.18,14.94-12.46,19.6-21.28,.41-.78,.62-1.68,.82-2.55,2.99-12.44,6.03-24.88,8.88-37.35,1.16-5.1,.81-10.34,.7-15.54-.22-10.89,.33-21.68,4.39-32,.96-2.45,1.58-5.03,2.36-7.55-1.42,.62-1.4,1.88-1.85,2.89-3.85,8.83-5.47,18.14-5.67,27.7-.08,3.64-1.08,7.3-.04,10.96,.16,.56,.19,1.44-.64,1.52-.9,.09-1.05-.85-1.32-1.47-4.09-9.23-9.59-17.6-15.21-25.95-9.2-13.69-20.8-24.87-33.97-34.6-2.02-1.49-3.95-3.08-6.11-4.4-1.99-1.21-2.97-3.29-3.98-5.31-4.32-8.65-8.28-17.5-13.53-25.65-1.32-2.05,.36-2.81,1.44-3.67,5.99-4.73,12.11-9.31,18.69-13.17,11.05-6.49,20.73-14.47,28.37-24.81,1.07-1.46,2.54-2.31,4.21-2.73,10.16-2.57,19.38-7.45,28.8-11.81,8.69-4.02,17.25-8.36,25.86-12.56,.53-.26,1.39-.89,1.49,.04,.13,1.11,1.24,2.13,.12,3.48-2.16,2.63-4.12,5.43-6.07,8.23-4.6,6.62-9.55,13.02-13.29,20.21-3.69,7.1-5.65,14.63-5.79,22.68-.1,5.91-1.27,11.78-.97,17.71,.71,14,.4,28,.53,41.99,.03,3.01,1.37,5.76,3.28,8.1,9.86,12.07,20.67,23.18,33.08,32.66,1.32,1.01,2.21,1.89,1.44,3.78Z"/>
      <path class="cls-2" d="M55.93,223.71c-.73,2.9-2.47,2.06-4.23,1.15,0,0,0,.04,0,.04,.19-1.04-.36-1.78-.99-2.5,0-2.61-.65-5.29,.34-7.81,.33-.83,1.24-1.9,1.97-1.98,.93-.1,1.24,1.13,1.46,2.1,.39,1.73,.93,3.44,1.4,5.16,.05,.39,.09,.77,.14,1.16l-.09,2.69Z"/>
      <path class="cls-2" d="M113.72,215.42c.31-.33,.62-.66,.93-.98,3.38-.39,3.58,2.35,4.13,4.45,.69,2.65,.34,5.41-1.54,7.44-1.62,1.74-2.98,.29-3.87-1.22-1.45-2.44-.94-5.1-.61-7.71,.33-.66,.65-1.32,.98-1.98Z"/>
    </g>
  </g>
</svg>