<?xml version="1.0" encoding="UTF-8"?>
<svg id="Layer_2" data-name="Layer 2" xmlns="http://www.w3.org/2000/svg" viewBox="0 0 342.74 301.65">
   <defs>
    <style>
      .cls-1 {
        fill: #FFFFFF;
      }
    </style>
  </defs>
  <g id="Layer_1-2" data-name="Layer 1">
    <path class="cls-1" d="M171.63,301.65c-7.27-5.45-14.23-11-21.51-16.08-14.14-9.88-28.52-19.42-42.68-29.26-18.07-12.55-35.5-25.93-51.34-41.25-21.12-20.42-38.56-43.35-48.33-71.44C2.03,127.14-.81,110.14,.2,92.75,2.08,60.39,16.51,34.78,43.22,16.41,61.52,3.81,82.06-1.42,104.16,.33c24.69,1.96,45.64,12.12,62.76,30.09,1.46,1.53,2.86,3.13,4.45,4.87,1.91-2.06,3.74-4.13,5.68-6.1,15.41-15.66,33.95-25.31,55.74-28.18,29.37-3.87,55.41,4.09,77.53,23.76,18.31,16.3,29.05,36.89,31.7,61.32,2.67,24.61-2.02,48.11-12.24,70.54-9.73,21.35-23.93,39.49-40.49,55.91-16.55,16.4-34.93,30.54-54.01,43.81-16.24,11.29-32.63,22.37-48.86,33.68-4.54,3.17-8.74,6.83-13.09,10.26-.64,.5-1.26,1.02-1.68,1.36Zm63.69-158.86c-3.2-21.97-13.84-38.81-33.17-49.13-22.92-12.25-45.85-10.94-67.4,3.61-15.91,10.73-24.63,26.23-27.22,45.43h28.62c5.2-17.45,16.4-28.13,34.83-28.31,18.85-.19,30.28,10.57,35.68,28.41,8.79,0,17.69,0,26.59,0,.54,0,1.08,0,2.07,0Zm-.32,14.23c-.98,0-1.8,0-2.61,0-7.87,.01-15.75,.09-23.62-.02-1.87-.03-2.52,.57-3.01,2.34-4.37,15.76-18.55,26.35-34.92,26.23-15.78-.11-29.82-11.12-33.93-26.7-.4-1.52-1.07-1.89-2.53-1.88-8.22,.07-16.43,.05-24.65,.06-.66,0-1.31,.07-1.97,.11,2.42,28.57,28.26,57.71,65.13,56.86,35.82-.82,59.98-29.69,62.11-57.01Zm-63.64,14.23c11.62,.1,21.34-9.49,21.46-21.2,.13-11.72-9.44-21.41-21.31-21.58-11.63-.17-21.37,9.42-21.48,21.12-.11,12.02,9.28,21.55,21.33,21.66Z"/>
  </g>
</svg>