<?xml version="1.0" encoding="UTF-8"?>
<svg id="Layer_2" data-name="Layer 2" xmlns="http://www.w3.org/2000/svg" viewBox="0 0 122.13 130.5">
  <defs>
    <style>
      .cls-1 {
        fill: #FFFFFF;
      }
    </style>
  </defs>
  <g id="Layer_1-2" data-name="Layer 1">
    <path class="cls-1" d="M122.13,97.11c-1.05,1.9-2.15,3.66-3.25,5.14-1.27,1.73-2.56,3.46-3.83,5.19-.77,.9-1.56,1.78-2.38,2.65-.67,.71-1.35,1.4-2.04,2.07l-.02,.02c-.23,.14-.46,.28-.65,.47-7.26,6.87-15.62,11.94-25.2,14.79-6.65,1.98-13.19,3-19.59,3.05-.52,.01-1.04,.01-1.57-.01-.41,0-.82-.02-1.22-.04-.53-.02-1.04-.05-1.57-.08-3.12-.21-6.24-.64-9.32-1.31-.51-.11-1.02-.22-1.53-.35-.27-.06-.54-.13-.82-.2-6.55-1.72-12.95-4.53-19.2-8.47-1.52-.95-2.97-1.99-4.45-3.03,0,0-.02,0-.02-.02-1.08-.83-2.15-1.7-3.19-2.62l-3.66-3.46c-.71-.72-1.4-1.46-2.06-2.21-.07-.12-.15-.23-.24-.34-1.35-1.49-2.61-3.04-3.78-4.62-.27-.34-.52-.7-.77-1.06-.6-.86-1.18-1.73-1.75-2.61,0-.03-.03-.07-.05-.09-.28-.46-.56-.92-.84-1.38-.41-.68-.81-1.38-1.19-2.08-.38-.71-.76-1.42-1.11-2.14-.23-.45-.45-.92-.66-1.38-.16-.33-.32-.66-.45-.99-.26-.59-.52-1.19-.76-1.79-.03-.06-.06-.13-.08-.19-.16-.38-.3-.76-.45-1.15-.11-.24-.21-.5-.29-.77-.87-2.38-1.56-4.81-2.26-7.24-.21-.85-.4-1.7-.57-2.57-1.74-8.52-1.75-17.34-.04-25.89,.08-.45,.17-.9,.28-1.34,.3-1.39,.65-2.78,1.06-4.16,.15-.5,.3-1.01,.46-1.51,.16-.5,.33-1,.5-1.5s.35-1,.54-1.5,.38-.99,.58-1.48c.19-.49,.39-.99,.6-1.47,.12-.27,.24-.54,.36-.8,.1-.23,.2-.46,.31-.68,.27-.59,.55-1.16,.84-1.74,1.72-3.46,3.77-6.81,6.13-9.96,.4-.53,.8-1.06,1.21-1.58l.9-1.11c.31-.37,.62-.74,.94-1.11,.32-.36,.64-.72,.96-1.08,.29-.33,.59-.65,.9-.97l.08-.09c.36-.38,.73-.75,1.08-1.11,.4-.4,.8-.79,1.2-1.18,.4-.38,.82-.76,1.22-1.13,.82-.76,1.66-1.47,2.5-2.17,.32-.26,.65-.52,.96-.77,.33-.25,.65-.5,.98-.75,3.91-2.97,8.08-5.44,12.43-7.41,.72-.33,1.45-.65,2.19-.95,.36-.15,.73-.29,1.1-.44,1.11-.42,2.23-.82,3.36-1.19,.49-.16,.99-.32,1.5-.46,.4-.13,.81-.25,1.22-.36,.69-.2,1.39-.38,2.09-.54,.48-.12,.96-.23,1.44-.33,.96-.21,1.94-.4,2.91-.57h.03c.97-.17,1.97-.31,2.96-.43,2.01-.25,3.99-.41,5.95-.49,.65-.02,1.3-.03,1.95-.04,.62,0,1.25,0,1.87,.02,.42,0,.85,.02,1.27,.04,.52,.02,1.04,.05,1.56,.08,.52,.03,1.05,.08,1.56,.13,.42,.03,.85,.08,1.27,.12,6.33,.7,12.59,2.34,18.55,4.9,.42,.18,.83,.37,1.24,.56,.36,.16,.73,.33,1.08,.5,.47,.22,.94,.46,1.41,.7,10.27,5.26,18.71,13.06,24.64,21.93-7.35-5.54-16.49-8.81-26.39-8.81-24.29,0-43.97,19.69-43.97,43.97s19.68,43.97,43.97,43.97c11.15,0,21.33-4.15,29.08-11Z"/>
  </g>
</svg>