<?xml version="1.0" encoding="UTF-8"?>
<svg id="Layer_2" data-name="Layer 2" xmlns="http://www.w3.org/2000/svg" viewBox="0 0 255.58 212.73">
  <g id="Layer_1-2" data-name="Layer 1">
    <path d="M63.82,132.09c6.29-6.55,12.04-12.53,17.79-18.52,2.19-2.28,4.33-4.61,6.58-6.83,4.39-4.31,10.78-4.39,15.01-.27,4.11,4.01,4.38,10.5,.25,14.83-14.17,14.88-28.4,29.7-42.7,44.46-4.3,4.44-10.83,4.37-15.16-.11-14.18-14.64-28.29-29.35-42.36-44.1-4.41-4.63-4.25-11.03,.12-15.18,4.36-4.14,10.72-3.92,15.17,.65,7.25,7.45,14.43,14.98,21.62,22.48,.63,.65,1.17,1.38,2.35,1.89,.05-.84,.13-1.68,.14-2.52,.07-8.98-.15-17.98,.23-26.95,1.2-28.48,12.19-52.7,32.68-72.43C93.28,12.43,114.58,2.73,139.14,.46c54.42-5.01,103.08,31.1,114.26,84.7,11.74,56.29-24.96,112.86-81.06,125.03-9.58,2.08-19.24,2.75-29,2.48-5.73-.16-10.1-4.75-10.1-10.53,0-5.74,4.45-10.48,10.17-10.43,10.45,.08,20.81-.52,30.77-3.92,32.64-11.15,53.01-33.56,58.84-67.57,7.86-45.89-21.9-88.19-67.5-97.59-44.59-9.19-89.67,20.05-99.51,64.77-1.38,6.28-1.82,12.83-2.1,19.28-.35,8.2-.08,16.43-.08,25.42Z"/>
  </g>
</svg>