<?xml version="1.0" encoding="UTF-8"?>
<svg id="Layer_2" data-name="Layer 2" xmlns="http://www.w3.org/2000/svg" viewBox="0 0 78.05 79.69">
  <defs>
    <style>
      .cls-1 {
        fill: #37636d;
      }
    </style>
  </defs>
  <g id="Layer_1-2" data-name="Layer 1">
    <g id="nRapUB.tif">
      <g>
        <path class="cls-1" d="M46.84,60.1c-19.56-1.12-14.86-33.38-21.64-11.4-1.71,9.41-18.23,10.55-14.22,12.54,16.19,3.35,17.24,22.95,18.32,17.5,2.58-7.27,7.15-14.83,15.79-16.7,.95,0,3.45-1.2,1.75-1.93Z"/>
        <path class="cls-1" d="M16.45,33.98c2.11,7.6,2.86,5.06,4.52-1.1,2.83-9.88,19.46-12.09,15.64-13.79C18.47,15.57,24.23,4.08,17.86,0,15.66,8.59,10.77,17.71,.69,18.83c-.81-.05-.97,1.18-.16,1.44,6.75,2.21,13.6,6.28,15.92,13.7Z"/>
        <path class="cls-1" d="M78.05,39.95c-4.94-2.32-11.63-3.69-14.52-9.45-1.47-1.26-3.19-14.9-5.32-9.1-4.09,21.89-28.02,14.9-11.49,21.37,4.2,.73,8.27,7.77,9.59,8.42,3.96,14.42,2.96,5.14,7.62-2.08,3.16-5.11,9.64-6.48,14.12-9.17Zm-22.28,10.21c.06,.11,.13,.23,.2,.34-.07-.11-.14-.23-.2-.34Z"/>
      </g>
    </g>
  </g>
</svg>