<?xml version="1.0" encoding="UTF-8"?>
<svg id="Layer_2" data-name="Layer 2" xmlns="http://www.w3.org/2000/svg" viewBox="0 0 133 134.23">
  <defs>
    <style>
      .cls-1 {
        fill: #FFFFFF;
      }

      .cls-2 {
        fill: #FFFFFF;
      }

      .cls-3 {
        fill: #FFFFFF;
      }

      .cls-4 {
        fill: #FFFFFF;
      }

      .cls-5 {
        fill: #FFFFFF;
      }

      .cls-6 {
        fill: #FFFFFF;
      }

      .cls-7 {
        fill: #FFFFFF;
      }

      .cls-8 {
        fill: #FFFFFF;
      }

      .cls-9 {
        fill: #FFFFFF;
      }
    </style>
  </defs>
  <g id="Layer_1-2" data-name="Layer 1">
    <g>
      <path class="cls-9" d="M77.74,19.45c-2.3-4.87-8.38-27.61-14.02-16.36-.96,3.64-4.99,8.62-6.92,13.18-1.65,3.9,1.13,8.18,5.36,8.39,7.13,.35,17.68,3,15.59-5.21Z"/>
      <path class="cls-5" d="M104.54,62.21c-.01-.09-.02-.18-.03-.28-2.08-45.54-76.12-42.31-75.98,2.94-4.51,55.59,83.6,51.42,76-2.66Z"/>
      <path class="cls-8" d="M39.91,100.64c-2.82-1.89-4.71-5.65-7.15-8.1-1.85-1.85-4.92-1.56-6.38,.61-4.8,7.13-12.04,23.53-2.61,21.27,.29-.07,.57-.2,.84-.33,5.6-2.81,27.04-6.64,15.29-13.44Z"/>
      <path class="cls-2" d="M23.12,57.95c0-2.88-3.97-1.32-5.5-.81-24.39,8.16-22.75,12.2,.56,20.31,9.36,2.81,4.93-14.06,4.95-19.5Z"/>
      <path class="cls-4" d="M131.95,64.89c-.55-.59-1.28-.96-2.07-1.14-6.7-1.59-20.97-13.35-20.97-4.92,0,4.83-3.31,18.2,3.04,18.75,.84,.07,1.66-.2,2.38-.62,5.32-3.08,23.15-6.2,17.61-12.07Z"/>
      <path class="cls-3" d="M39.62,34.1c-6.92,4.73-11.27,17.21-15.43,2.54-.03-.1-.06-.19-.09-.29-1.75-4.81-10.65-19.49-.14-16.85,.38,.09,.73,.27,1.06,.47,6.17,3.6,26.18,5.06,14.6,14.12Z"/>
      <path class="cls-6" d="M73.26,108.87c-.28-.03-.56-.01-.84,.01-5.2,.44-22.8-4.19-14.63,8.17,2.6,4.06,8.51,24.22,12.02,14.62,2.32-6.34,15.03-21.53,3.44-22.8Z"/>
      <path class="cls-1" d="M114.75,111.11c-.1-.49-.26-.98-.52-1.4-3.56-5.81-6.51-25.55-12.99-16.62-3.59,4.95-17.57,11.22-7.65,15.91,.26,.12,.55,.21,.83,.28,5.73,1.5,22.41,12.53,20.34,1.83Z"/>
      <path class="cls-7" d="M110.49,18.17c-11.5,.8-31.47,11.5-15,18.33,.82,.34,1.52,.95,1.97,1.72,9.39,16.14,17.71-4.25,17.47-16.08-.05-2.34-2.09-4.14-4.43-3.98Z"/>
    </g>
  </g>
</svg>