<?xml version="1.0" encoding="UTF-8"?>
<svg id="Layer_2" data-name="Layer 2" xmlns="http://www.w3.org/2000/svg" viewBox="0 0 383.25 522.06">
  <defs>
    <style>
      .cls-1 {
        fill: #f8f8f9;
      }

      .cls-2 {
        fill: #f8f9fb;
      }

      .cls-3 {
        fill: #ecced1;
      }

      .cls-4 {
        fill: #f2aeb8;
      }

      .cls-5 {
        fill: #fefefe;
      }

      .cls-6 {
        fill: #ee9bad;
      }

      .cls-7 {
        fill: #6596cc;
      }

      .cls-8 {
        fill: #231f20;
      }

      .cls-9 {
        fill: #6d98cc;
      }

      .cls-10 {
        fill: #88ceef;
      }
    </style>
  </defs>
  <g id="Layer_1-2" data-name="Layer 1">
    <g>
      <g>
        <path class="cls-8" d="M102.23,331.02h0c.1,.03,.2,.05,.31,.06-.11,0-.21-.03-.31-.06Zm-.07,.01s.06,.06,.06,.06v-.03s-.04-.02-.06-.03Zm-.02-.02h.01s0,0,0,0h-.01Z"/>
        <path class="cls-8" d="M381.12,151.92c-2.24-1.2-4.87-1.9-7.41-2.28-3.29-.49-6.67-.43-10.5-.64,.87-.99,1.56-1.57,2-2.29,2.13-3.5,4.63-6.87,6.17-10.62,1.83-4.47-.4-6.85-5.16-6.02-9.57,1.66-18.61,4.87-27.46,8.63-1.05,.45-2.1,.9-3.14,1.36-2.24,.98-4.47,2-6.69,3.03-2.29,1.06-4.55,2.16-6.78,3.31-4.62,2.36-9.12,4.92-13.5,7.65-9.22,5.72-17.95,12.19-26.33,19.24-14.42,12.14-27.85,25.46-43.71,35.91-9.41,6.21-18.74,12.31-30.08,14.23-4.27,.73-8.61,.99-13.37,1.51,5.04-5.07,9.56-9.46,13.9-14.01,6.92-7.27,10.79-16.01,11.79-25.96,.51-5.16-1.06-7.41-5.94-9.43-.26-.11-.49-.32-1.1-.74,1.68-1.11,3.19-1.87,4.42-2.95,5.98-5.25,12.45-10.11,17.67-16.04,5.61-6.39,10.24-13.7,14.87-20.88,1.74-2.69,2.96-6.22,.84-9.45-1.08-1.64-.63-2.58,.3-3.99,3.66-5.56,7.53-11.04,10.65-16.9,4.54-8.52,9.42-16.98,10.49-26.91,.57-5.4-1.97-8.54-7.33-8.79-7.82-.38-15.34,1.38-22.52,4.03-14.32,5.27-28.02,11.91-40.8,20.32-11.01,7.24-21.18,15.5-30.07,25.24-9.29,10.19-16.97,21.57-24.1,33.32-.49,.81-1.04,1.59-1.93,2.94-.72-1.82-1.08-3.06-1.68-4.18-3.22-6.03-6.15-12.25-9.85-17.97-3.84-5.93-8.99-6.31-14.36-1.64-5.59,4.85-9.55,10.88-12.42,17.68-1.16,2.75-2.45,5.45-3.7,8.22-3.33-2.31-6.43-4.35-9.39-6.59-.62-.46-1.12-1.68-1-2.45,1.05-6.77,2.2-13.52,3.42-20.27,2.87-15.91,3-31.88,.99-47.88-.25-1.93,.18-3.01,1.91-3.84,4.55-2.2,9.19-4.25,13.51-6.83,8.12-4.85,16.41-9.55,23.93-15.24,6.73-5.1,5.57-10.01-2.23-13.5-.54-.24-1.14-.4-1.71-.58-5.85-1.82-11.76-1.57-17.67-.47-4.47,.83-8.92,1.77-14.19,2.82,1.16-1.36,1.78-2.09,2.42-2.82,5.63-6.43,10.14-13.59,13.36-21.5,1.96-4.8-.54-8.06-5.69-7.79-.91,.04-1.86,.09-2.69,.4-6.02,2.27-12.03,4.58-18.02,6.95-1.53,.61-2.97,1.49-4.48,2.26-1.4-3.73-2.4-7.25-3.99-10.47-5.36-10.85-10.91-12.1-19.4-2.89-6.68,7.26-11.44,15.85-14.93,25.11-1.3,3.44-2.59,6.89-3.89,10.34-.27,.17-.54,.34-.81,.52-.1-.42-.1-.91-.33-1.23-2.01-2.85-3.28-2.92-5.55-.26-.78,.92-1.47,1.94-2.08,2.98-4.19,7.2-6.21,15.05-6.98,23.3-.18,1.86-.57,3.88-1.5,5.44-1.97,3.29-4.26,6.38-6.58,9.43-8.7,11.43-15.85,23.71-19.39,37.7-1.21,4.78-1.85,10.24-.81,14.96,2.13,9.61,6.97,17.88,15.43,23.79,6.94,4.85,14.7,7.52,22.59,10.03,2.35,.75,4.09,1.82,4.56,4.97-1.08-.45-1.75-.77-2.44-1.02-4.07-1.46-8.09-3.13-12.25-4.24-1.5-.39-3.77,.13-4.9,1.13-.72,.62-.36,3.05,.16,4.41,2.22,5.71,5.38,10.83,10.28,14.71,.98,.77,1.73,1.83,2.87,3.06-1.14,.37-1.77,.58-2.4,.78-1.92,.61-3.9,1.06-5.74,1.86-3.55,1.55-3.8,3.65-.57,5.89,1.79,1.24,3.89,2.3,5.99,2.71,2.88,.57,3.49,1.72,2.38,4.31-1.19,2.78-2.5,5.57-3.19,8.49-2.65,11.17-5.3,22.36-7.49,33.63-1.47,7.5-.27,14.79,4.87,20.82,2.73,3.21,5.89,6.09,9.03,8.91,1.71,1.54,2.57,2.82,1.26,5.12-.92,1.64-1.51,3.56-1.82,5.42-2.05,12.02-.76,23.51,5.6,34.19,.41,.68,.27,2.23-.25,2.83-6.26,7.18-11.61,14.96-15.95,23.44-7.17,14.02-10.23,28.49-4.05,43.69,2.31,5.68,4.88,11.25,9.74,15.47,13.03,11.31,28.91,15.17,45.34,17.5,4.42,.63,7.58,4.36,6.26,8.69-1.62,5.3-3.34,10.59-5.36,15.74-.56,1.43-2.22,3.15-3.61,3.39-4.74,.82-9.58,1.36-14.38,1.39-4.22,.02-8.44-.79-12.65-1.22-4.96-.51-7.35,2.65-5.18,7.16,1.02,2.14,2.53,4.15,4.19,5.86,2.57,2.63,5.46,4.96,8.43,7.61-.86,.31-1.68,.57-2.48,.89-5.05,2.03-10.2,3.86-15.1,6.21-1.67,.81-4.07,3.27-3.78,4.34,.54,2.02,2.48,4.21,4.41,5.19,2.52,1.27,5.58,1.63,8.45,2.04,3.73,.53,7.51,.73,11.67,1.11-.67,.95-.96,1.59-1.45,2.03-3.27,2.97-6.47,6.05-9.91,8.82-5.91,4.75-5.37,11.84,1.28,14.84,8.66,3.91,21.54,.5,26.73-7.52,2.99-4.63,5.18-9.79,7.82-14.65,1-1.84,1.87-4.26,3.48-5.13,4.29-2.29,8.95-3.88,13.55-5.78,1.01,2.73-.08,4.8-1.63,6.75-1.5,1.9-3.15,3.7-4.47,5.71-2.95,4.52-1.39,8.08,3.78,9.6,9.61,2.8,20.58-5.32,22.74-14.8,1.67-7.36,3.31-14.87,3.55-22.36,.25-7.53,1.98-14.4,4.57-21.34,2.8-7.49,4.12-15.57,1.39-23.14-2.19-6.06-.27-9.79,3.28-14.2,2.83-3.51,5.67-6.42,10.13-7.53,1.45-.36,2.84-.98,4.23-1.55,8.67-3.59,17.68-5.67,27.08-5.59,1.24,.01,3.16,.91,3.6,1.91,4.14,9.43,10.8,17.02,17.6,24.49,4.21,4.62,8.76,8.94,13.07,13.48,2.94,3.11,4.4,6.61,2.95,11.04-1.81,5.55-3.17,11.26-5,16.8-3.29,10-6.7,19.93-15.48,26.83-2.29,1.8-3.09,4.57-2.02,7.42,1.07,2.84,3.46,4.02,6.42,4.27,7.92,.69,17.75-4.53,21.11-11.69,7.16-15.27,13.76-30.77,18.81-46.88,.81-2.56,.75-5.54,.45-8.25-.35-3.19-1.38-6.3-2.14-9.44-.83-3.47-1.68-6.94-2.7-11.11,8.77,4.45,17.01,8.3,22.96,15.4,1.35,1.61,2.15,4.28,2.05,6.41-.7,14.84-4.4,29.07-9.41,43-1.6,4.45-4.31,7.7-8.25,10.42-2.99,2.06-5.5,5.03-7.66,8-2.09,2.87-1.32,6.55,1.67,8.5,2.28,1.49,5.01,2.74,7.67,3.11,5.69,.78,11.07-.96,15.89-3.89,1.85-1.12,3.6-3.12,4.43-5.12,2.71-6.51,4.98-13.2,7.41-19.82,4.1-11.17,8.08-22.39,12.32-33.51,3.35-8.78,6.26-17.6,3.67-27.09-2.93-10.7-6.12-21.32-9.15-31.99-.3-1.03-.64-2.23-.39-3.2,2.25-8.7,1.61-17.51,.27-26.15-1.6-10.24-4.06-20.35-6.25-30.49-.38-1.75-.13-2.67,1.7-3.08,8.23-1.89,15.85-5.06,23.07-9.57,7.4-4.64,13.81-10.14,18.72-17.35,1.18-1.74,2.39-3.72-.58-4.88-2.21-.86-1.96-1.79-1-3.62,7.83-14.88,12.26-30.68,12.26-47.56,0-4.92-.26-9.88-.91-14.76-1.31-9.97-4.19-19.51-9.44-28.16-1.12-1.84-1.06-2.75,.57-3.94,4.15-3.05,8.3-6.1,12.32-9.31,2.19-1.74,4.39-3.45,6.61-5.12,1.16-.88,2.33-1.75,3.51-2.6,1.21-.88,2.42-1.75,3.65-2.6,9.77-6.78,20.11-12.61,31.61-16.51,3.17-1.08,6.17-2.93,8.93-4.88,2.46-1.75,2.29-4.08-.39-5.5Zm-230.14-1.88c7.28-12.02,15.29-23.59,25.2-33.59,10.53-10.64,22.15-19.94,35.41-27.2,10.74-5.87,21.57-11.47,33.23-15.17,5.63-1.79,11.54-2.8,17.38-3.84,1.89-.34,4.02,.08,5.93,.56,3.02,.76,4.05,2.86,3.8,5.93-.6,7.22-3.53,13.63-6.77,19.92-10.38,20.19-23.39,38.38-40.76,53.23-.56,.47-.98,1.09-1.47,1.65,.24,.25,.48,.51,.72,.77,1.09-.79,2.35-1.43,3.25-2.4,6.84-7.26,13.58-14.61,20.41-21.88,.81-.85,1.98-1.36,2.97-2.02,.34,1.21,1.19,2.56,.91,3.61-.7,2.59-1.42,5.42-3.01,7.49-5.88,7.65-11.95,15.18-18.26,22.48-4.9,5.67-10.61,10.52-17.39,13.91-1.04,.52-2.28,.94-3.41,.91-11.27-.29-22.35,.79-33.13,4.27-.16,.05-.38-.07-.83-.17,.25-.44,.37-.9,.66-1.17,9.7-9.01,17.67-19.42,24.24-30.82,2.9-5.02,4.82-10.64,6.85-16.1,.49-1.33,.19-3.59-.69-4.57-.62-.68-3.03-.33-4.33,.26-15.5,7-27.52,18.18-37.42,31.76-4.32,5.93-8.23,12.17-12.57,18.64-.5-2.33-.96-4.5-1.44-6.66-.44-1.97-.54-4.1-1.4-5.87-2.52-5.16-.65-9.67,1.92-13.93Zm53.98-19.12c-2.84,6.31-5.38,12.81-8.88,18.74-6.66,11.28-14.72,21.58-25.56,29.13-3.94,2.75-8.93,4.02-13.44,5.94-1.45,.61-2.92,1.17-4.48,1.8-1.18-3.12-.52-5.79,.9-8.3,7.8-13.86,16.24-27.33,28.79-37.44,5.93-4.78,12.67-8.55,19.13-12.63,.98-.62,2.46-.44,3.71-.63-.04,1.14,.27,2.43-.17,3.39Zm-93.15,13.69c2.61-5.05,6.84-9.44,10.98-13.48,3.41-3.34,6.74-2.72,9.57,.83,5.6,7.04,9.73,14.89,12.3,23.44,2.17,7.23,3.75,14.65,5.26,22.04,.59,2.9,.3,5.98,.41,8.98,.07,2.26,1.04,2.69,3.16,1.95,9.7-3.36,19.29-7.28,29.23-9.68,10.05-2.42,20.45-3.69,30.91-2.42,3.32,.4,6.18,3.67,5.85,6.95-.93,9.22-4.19,17.35-9.82,24.93-8.53,11.48-19.79,18.15-33.35,21.4-5.64,1.35-11.3,3.11-17.27,1.8-8.78-1.93-9.12-2.84-10.94-11.13-1.33-6.02-1.02-12.41-1.46-18.63-.06-.94-.21-1.88-.39-3.46-1.49,1.01-2.45,1.64-3.39,2.31-8.95,6.5-18.55,10.57-29.93,8.12-3.04-.65-5.27-2.23-6.8-5-3.91-7.11-4.72-14.82-4.86-22.75-.22-13.17,4.71-24.91,10.54-36.2Zm14.88,168c-4.04-3.72-6.71-8.28-8.72-13.28-.76-1.87,.03-2.84,1.94-3.62,9.09-3.68,17.85-7.9,24.95-14.99,3.6-3.59,4.43-8.12,5.07-12.65,1.67-11.92,2.41-23.89,.27-35.86-.09-.49-.1-1.01-.06-1.51,.02-.27,.2-.54,.11-.32,4.59,1.04,9.04,1.98,13.45,3.1,1.01,.26,1.9,1.1,2.78,1.76,17.9,13.29,38.14,17.1,59.88,14.73,18.35-1.99,34.45-9.67,49.35-20.1,7.17-5.02,13.99-10.57,20.97-15.86,.3-.23,.67-.36,1.65-.87-.78,35.32-11.02,65.55-40.6,87.07-.52-.73-1.27-1.64-1.87-2.63-9.38-15.49-22.51-26.36-39.92-31.49-6.94-2.04-14.16-1.2-21.16,.97-8.39,2.61-15.4,7.66-22.09,12.93-12.12,9.55-23.74,19.72-35.6,29.61-1.39,1.16-2.99,2.08-4.35,3.27-2.16,1.89-3.96,1.67-6.05-.26Zm.8,2.66c-3.39,3.21-14.02,6.14-18.27,5.19,2.47-7.21,4.88-14.24,7.46-21.77,1.37,7.12,6.22,11.79,10.81,16.58Zm-24.93-157.12c.46,.36,.61,1.45,.49,2.14-1.13,6.51-2.34,13-3.55,19.5-.05,.27-.28,.5-.59,1.02-4.56-1.81-8.95-3.5-13.29-5.33-.48-.2-1.02-1.37-.85-1.84,2.7-7.43,5.52-14.81,8.44-22.55,3.16,2.36,6.32,4.63,9.35,7.06ZM36.42,45.78c.32-.94,.83-1.91,1.52-2.59,1.08-1.05,2.39-1.85,3.6-2.76,.5,1.47,1.18,2.91,1.44,4.42,.25,1.44,.06,2.95,.06,4.44,.28,.08,.56,.17,.85,.26,.35-.85,.89-1.66,1.03-2.54,1.2-7.53,4.08-14.52,7.5-21.19,2.97-5.79,6.6-11.28,10.38-16.59,1.81-2.54,4.47-4.61,7.09-6.4,3.22-2.21,5.78-1.89,8.09,1.38,2.17,3.07,3.71,6.64,5.2,10.14,2.5,5.86,2.23,5.66-2.95,9.27-11.79,8.21-23.17,16.91-33.04,27.44-.6,.63-1.19,1.27-1.77,1.92-3.33,3.69-6.84,7.22-10.34,10.76-1.32,1.34-2.64,2.67-3.95,4.02-.25,.25-.68,.32-1.03,.48-.31-.18-.62-.37-.93-.55,2.41-7.31,4.8-14.62,7.25-21.91Zm-4.51,118.83c-5.69-2.74-11.61-5.29-16.7-8.95C2.28,146.35-1.1,129.19,3.97,114.85c5.78-16.31,14.94-30.74,26.34-43.47,1.82-2.03,3.66-4.06,5.51-6.07,4.4-4.78,8.88-9.49,13.5-14.06l.09-.09c4.12-4.09,8.34-8.05,12.69-11.84,1.11-.99,2.23-1.95,3.36-2.9,11.71-9.87,24.48-18.86,39.5-23.59,2.39-.75,4.86-1.32,7.34-1.76,2.99-.52,4.96,1.4,4.18,4.34-.76,2.87-1.81,5.74-3.22,8.35-3.75,6.95-8.15,13.47-14.16,18.73-1.32,1.15-2.84,2.06-4.27,3.07,.06,.1,.12,.21,.17,.31,4.8-1.35,9.61-2.64,14.39-4.05,6.81-2.01,13.76-2.1,20.68-1.09,2.91,.42,5.79,1.74,8.44,3.11,3.08,1.58,3.2,4.17,.76,6.65-5.68,5.74-12.49,9.78-19.57,13.55-8.41,4.48-16.86,8.91-25.24,13.46-4.9,2.65-9.77,5.35-14.59,8.12-.43,.24-.85,.49-1.27,.73-1.5,.86-3,1.74-4.49,2.62-2.79,1.65-5.52,3.4-8.19,5.23-10.22,7.01-19.58,15.24-28.42,23.94-6.68,6.57-11.19,14.79-13.04,24.16-.71,3.61-.96,7.32-1.36,10.99-.05,.49,.26,1.02,.52,1.94,.7-4.67,.97-8.94,2.05-13.01,1.04-3.95,2.91-7.68,4.94-11.36,1.69,12.53,5.29,24.25,10.26,36.43-3.4-.98-6.37-1.44-8.96-2.68Zm24.34-52.76c-1.25-7.52,3.6-11.33,8.98-14.83,1.25-.81,2.48-1.64,4.38-2.91,2.16,26.72,3.72,52.6-4.86,77.81-.39,.08-.78,.16-1.17,.25-1.53-4.28-3.3-8.5-4.55-12.86-4.36-15.19-3.47-30.74-2.89-46.26,.01-.4,.17-.82,.11-1.2Zm-16.5,91.85c.45-.97,2.29-1.28,3.57-2.22-6.19,1.04-11.6-.38-16.61-4.87,5.33-4.22,11.32-3.51,17.9-3.03-.86-.93-1.22-1.63-1.56-1.62-3.82,.04-5.97-2.72-8.28-5.01-4.17-4.13-8.11-8.47-10.06-14.21-.95-2.8-.15-4.25,2.64-3.42,5.56,1.64,11.17,3.47,16.32,6.09,4.7,2.39,8.81,5.93,13.19,8.95,.62,.43,1.28,.81,1.92,1.21,.3-.36,.6-.71,.9-1.07-3.08-2.46-5.87-5.48-9.31-7.24-4.11-2.09-6.02-5.37-7.59-9.29-4.85-12.14-8.18-24.7-10.21-37.6-.24-1.58,.29-3.83,1.33-4.98,4.78-5.31,9.83-10.37,14.87-15.44,1.67-1.67,3.61-3.07,6.02-5.1-1.78,25-3.43,49.26,9.86,72.53,1.34-3.42,2.61-6.07,3.42-8.86,5.76-19.9,5.88-40.23,4.42-60.67-.31-4.42-.92-8.82-1.22-13.24-.06-.82,.47-2.07,1.13-2.49,5.42-3.39,10.87-6.72,16.51-9.94,.09-.05,.18-.11,.28-.16,2.34-1.34,4.71-2.65,7.12-3.95,2.09,18,2.35,35.72-.68,53.31-3.05,17.62-9.22,34.34-16.27,50.72,.2,.17,.41,.35,.61,.52,.82-1.15,1.93-2.19,2.39-3.46,.87-2.35,2.11-2.52,4.17-1.54,2,.95,4.09,1.83,6.23,2.32,6.26,1.43,7.18,6.15,8.03,11.48,.68,4.31,2.08,8.63,3.88,12.62,2.25,4.99,6.77,6.81,12.13,7.02,9.52,.37,17.74-3.14,25.51-8.15,.63-.41,1.33-.71,1.89-1,1.26,9.47,2.49,18.71,3.75,28.16-.6-.85-1.22-1.67-1.78-2.53-3.27-5.08-7.42-9.37-13.5-10.43-3.38-.59-7.37-.31-10.52,.96-8.56,3.44-14.93,9.8-20.24,17.25-2.2,3.08-4.44,6.14-6.96,9.63-.2-.98-.37-1.49-.39-2-.84-15.19-5.45-28.74-18.69-37.46-9.14-6.01-18.86-4.69-28.05,.75-4.72,2.79-8.99,6.17-12.09,10.82-.37,.55-.92,.99-2.05,1.12,1.99-4.84,3.84-9.75,6.07-14.48Zm-12.76,54.53c-.45-3.64-.16-7.48,.46-11.11,1.12-6.55,2.21-13.19,4.26-19.48,3.4-10.4,10.82-17.54,20.65-22.12,15.17-7.07,28.34,1.73,34.38,13.81,4.37,8.75,7.21,17.94,6.75,27.89-.01,.3,.03,.61,.12,.89,.05,.17,.24,.29,.68,.8,.56-.69,1.18-1.25,1.54-1.95,4.5-8.48,10.34-16.02,17.66-22.1,5.66-4.71,12.08-8.47,20.25-5.86,5.16,1.65,8.55,5.15,11.42,9.39,3.28,4.85,4.69,10.45,4.5,16.09-.31,9.55-1.13,19.1-2.37,28.56-.35,2.71-2.38,5.66-4.47,7.6-7.28,6.72-16.03,11.08-25.33,14.34-.16,.06-.38-.07-.59-.12-.36-4.37-.49-8.58-1.11-12.71-.59-3.91-3.18-6.3-7.09-5.94-4.33,.4-8.71,1.35-12.82,2.77-8.85,3.05-14.73,9.52-19.2,17.56-2.23,4-2.64,3.69-5.57,.26-4.5-5.28-9.28-10.32-14.02-15.37-1.02-1.09-2.36-1.92-3.65-2.69-4.91-2.94-6.52-2.81-10.99,.92-6.31-6.31-14.25-11.51-15.46-21.43Zm14.5,27.14c.07-.29,.2-.57,.3-.85,2.33-6.57,6.39-8,12.03-3.93,8.21,5.93,14.46,13.63,19.37,22.46,.27,.48,.64,.92,1.01,1.46,5.12-12.1,12.61-21.56,25.43-25.6,2.94-.93,6.08-1.43,9.17-1.68,2.82-.23,5.64,2.77,6.06,6.53,.78,7.06,.09,14.06-1.56,20.98-2.66,11.17-8.83,20.2-17.05,27.95-3.52,3.31-6.01,3.54-9.45,.03-3.92-4-7.27-8.56-10.87-12.88-.37-.44-.73-.9-1.33-1.65-2.51,4.1-4.47,8.11-7.16,11.55-7.23,9.24-9.16,7.38-15.27,1.05-12.55-13-14.96-28.44-10.68-45.42Zm25.15,108.85c-6.15-2.03-10.74-6.01-15.2-10.24-2.58-2.44-3.23-5.59-3.33-8.78-.1-3.1,.12-6.32,.88-9.31,2.1-8.29,4.49-16.5,6.91-24.7,.4-1.35,1.55-2.47,2.78-3.51-.52,19.39,2.16,38.09,7.96,56.54Zm-29.96,15c-6.65-5.4-10.16-12.95-12.4-21.03-3.58-12.96-1.11-25.39,5.07-36.82,4.51-8.35,10.56-15.87,15.95-23.74,.27-.39,.75-.62,.78-.65,3.3,3.03,6.55,5.88,9.58,8.94,.52,.53,.49,2.18,.07,2.97-4.6,8.65-7.37,17.87-8.47,27.54-.51,4.48-.64,9.1-.21,13.58,.57,5.86,1.23,11.86,3.04,17.42,1.62,4.97,4.78,9.47,7.43,14.07,.69,1.19,2.04,2,3.08,2.98,.23-.17,.46-.34,.69-.51-7.98-8.65-11.56-19.1-13.15-31.34,1.24,1.14,1.97,1.71,2.58,2.38,4.05,4.45,8.53,8.33,14.31,10.37,2.33,.82,3.75,2.34,4.84,4.59,3.64,7.52,7.49,14.94,11.24,22.42,.37,.73,.58,1.55,.98,2.66-16.67-1.99-32.37-5.26-45.41-15.83Zm21.56,83.73c-5.17-.85-10.41-1.25-15.55-2.23-1.87-.36-3.62-1.69-5.25-2.83-1.51-1.04-1.44-2.46,.18-3.38,2.18-1.24,4.4-2.49,6.75-3.36,5.64-2.09,11.36-3.96,17.94-6.22-2.15-.97-3.6-1.52-4.97-2.26-5.14-2.77-8.57-7.3-11.74-11.99-.59-.89-.72-2.83-.15-3.55,.68-.85,2.4-1.32,3.59-1.21,9.63,.88,19.25,2.25,28.82-.41,.15-.04,.36,.13,.99,.38-1.38,3.6-2.58,7.29-4.18,10.8-3.58,7.89-7.34,15.69-11.05,23.52-1.08,2.29-2.76,3.17-5.38,2.74Zm23.85,7.75c-3.18,6.51-6.01,13.5-12.91,17.04-2.93,1.51-6.46,2.03-9.78,2.58-2.46,.41-3.42-1.16-2.38-3.38,.94-2.03,2.27-3.89,3.42-5.82-2.66,2.04-5.86,3.78-5.25,7.95,.05,.36-.84,1.27-1.23,1.23-2.93-.26-6.61-3.58-4.89-6.4,1.29-2.11,2.7-4.14,3.6-6.6-1.9,2.45-3.79,4.91-5.69,7.36-.27-.06-.53-.13-.8-.2,.36-1.49,.37-3.22,1.17-4.42,1.21-1.81,2.77-3.55,4.55-4.79,9.63-6.67,14.9-16.52,19.7-26.69,2.07-4.37,3.71-8.94,5.58-13.4,.25-.6,.67-1.12,1.48-2.44,.4,5.78,.75,10.72,1.12,15.99,5.58-3.62,11.01-7.14,16.44-10.67,.22,.2,.45,.4,.67,.6-.13,.59-.15,1.23-.4,1.76-4.78,10.11-9.5,20.25-14.4,30.3Zm40.15-13.52c-.27,2-.49,4.04-1.14,5.93-2.55,7.5-7.42,12.77-15.22,14.92-.92,.26-2.04-.22-3.07-.35,.38-.98,.63-2.03,1.16-2.92,.7-1.15,1.61-2.18,2.07-3.55-3.09,1.19-4.93,3.48-6,7.46-1.6-1.38-4.12-2.89-3.92-3.5,.66-2,2.31-3.67,3.76-5.73-.02-.03-.44-.48-.95-1.04,3.16-3.25,5.53-6.78,5.57-11.45,0-.5,.46-1.15,.9-1.48,7.1-5.38,13.48-11.48,18.54-18.89,.31,.11,.63,.22,.94,.33-.87,6.76-1.72,13.52-2.64,20.27Zm-33.9,3.66c11.88-24.24,22.84-48.29,40.38-68.66,10.24,23.38-8.45,59.23-40.38,68.66Zm138.85-20.01c-2.8,6.69-6.05,13.19-8.94,19.85-3.11,7.18-8.46,11.36-16.15,12.56-.54,.08-1.45,0-1.62-.32-.27-.5-.32-1.45-.01-1.87,1.25-1.67,2.6-3.27,4.07-4.75,.5-.51,1.44-.59,1.76-1.29-3.64-.39-7.45,3.01-8.04,6.09-.15,.8-.57,1.55-.87,2.32-1.47-.78-3.04-1.43-4.35-2.43-.37-.28-.27-1.84,.16-2.36,.94-1.13,2.24-1.96,3.39-2.92-.15-.22-.3-.44-.45-.66-.64,.03-1.29,.07-2.53,.14,.78-.94,1.19-1.76,1.85-2.16,7.26-4.46,10.01-11.85,12.68-19.3,1.77-4.91,3.55-9.82,5.56-15.4,.55,2.22,.94,3.88,1.38,5.53,.52,1.97,1.28,2.34,3.18,1.04,4.38-3.01,8.97-5.72,14.24-9.03-1.95,5.55-3.38,10.36-5.31,14.96Zm46.89-2.76c-3.77,10.42-7.64,20.81-11.37,31.25-2.02,5.65-5.65,9.48-11.56,10.86-.96,.23-2.05-.09-3.08-.15,.11-1.12-.07-2.39,.41-3.33,.87-1.75,2.13-3.3,3.23-4.94-.24-.18-.48-.36-.72-.55-2.77,2.56-5.36,5.22-4.91,9.45-.32,.19-.52,.4-.67,.37-2.49-.44-4.97-.9-7.46-1.36,.9-2.13,1.75-4.29,2.73-6.39,.38-.83,1.03-1.55,1.56-2.33-.23-.18-.47-.36-.71-.55-2.07,2.57-4.14,5.14-6.21,7.7-2.61-2.66-2.59-6.25,.47-9.21,2.45-2.37,5.37-4.25,7.94-6.51,1.55-1.36,3.38-2.82,4.11-4.63,2.57-6.42,4.73-13.01,7.04-19.53,.22-.62,.44-1.24,.86-2.43,1.12,2.48,2.01,4.47,2.86,6.37,6.22-5.08,12.07-9.85,17.91-14.63,.29,.25,.58,.5,.87,.75-1.1,3.26-2.13,6.55-3.3,9.79Zm6.29-60.97c2.53,8.31,4.01,17.05,4.92,25.71,.81,7.64-3.28,14.42-6.34,21.18-.78,1.71-3.16,2.7-4.79,4.02-4.3,3.5-8.63,6.95-12.85,10.54-1.67,1.42-2.52,1.76-3.26-.8-1.24-4.28-1.17-8.42-.36-12.8,1.12-6.03,1.85-12.17,2.18-18.29,.1-1.75-1.32-4.23-2.81-5.31-6.02-4.36-12.26-8.44-18.58-12.36-7.71-4.77-15.74-9.03-23.35-13.95-5.89-3.82-9.9-9.41-12.3-16.07-.17-.49-.62-.88-.94-1.31-.33,.18-.65,.37-.98,.55,2.19,3.96,4.11,8.1,6.65,11.82,4,5.86,10.2,9.19,16.26,12.38,4.89,2.58,8.68,5.32,9.42,11.42,.56,4.65,3.17,9.15,3.24,13.75,.08,5.08-1.64,10.2-2.71,15.27-.14,.62-1.11,1.13-1.77,1.55-4.36,2.73-8.8,5.35-13.09,8.18-2.06,1.36-2.68,.61-2.91-1.4-.55-4.88-1.41-9.69-.45-14.72,.39-2.04-.53-5-1.92-6.61-5.65-6.57-12.01-12.54-17.56-19.2-5.14-6.18-9.58-12.94-14.31-19.46-.27-.38-.36-.89-.94-2.38,6.44,1.07,12.23,2.02,18.01,2.98v-.79c-19.83-7.77-38.76-3.34-57.91,5.57,2.8-5.93,5.2-11.01,7.6-16.09-.28-.13-.56-.26-.84-.4-1.88,3.64-3.47,7.48-5.72,10.87-3.68,5.53-7.63,10.9-11.75,16.12-11.51,14.62-21.78,30.03-30.6,46.44-1.14,2.13-3.95,3.45-6.13,4.94-3.23,2.21-6.56,4.27-9.89,6.33-.69,.44-1.54,.62-2.31,.92-.09-.83-.2-1.66-.27-2.5-.24-2.8,0-5.74-.8-8.37-1.44-4.76,.18-8.92,1.53-13.23,3.38-10.77,6.94-21.49,10.05-32.34,4.54-15.88,8.79-31.86,13.1-47.81,.91-3.37,1.58-6.8,2.36-10.2-.24-.07-.48-.14-.71-.2-3.8,12.23-7.59,24.46-11.51,37.1-2.22-1.79-4.2-3.39-6.19-4.98-.21,.2-.42,.41-.63,.61,1.41,1.43,2.68,3.03,4.26,4.25,1.82,1.41,2.3,2.69,1.65,5.11-2.3,8.56-4.2,17.22-6.27,25.84-.04,.16-.25,.28-.71,.76-.48-.55-1.07-1-1.36-1.6-5.4-10.72-11.05-21.32-16.04-32.23-3.99-8.73-6.63-17.94-7.26-27.66-.46-7.04-1.39-14.05-2.09-21.08-.12-1.2-.09-2.42-.19-3.63-.32-3.58,1.1-5.86,3.92-8.39,3.8-3.41,6.43-8.14,9.53-12.31,.34-.45,.51-1.02,.99-1.98,1.54,2.17,2.63,4.22,4.19,5.81,3.08,3.15,6.36,6.1,9.67,9.02,1.97,1.74,4.13,1.32,6.09-.14,1.54-1.14,2.89-2.53,4.49-3.57,.88-.56,2.08-.61,3.14-.89,0,0-.04-.04-.06-.06h-.01v-.02s0,0,0,0c.03,0,.05,.01,.08,.01,.11-1.07-.05-2.33,.46-3.16,.98-1.62,2.28-3.08,3.65-4.42,.63-.62,1.69-1.07,2.58-1.11,10.25-.39,19.28-3.92,27.14-10.42,9.62-7.97,18.99-16.26,28.78-24.01,7.25-5.74,14.6-11.53,22.6-16.07,15.48-8.81,30.68-6.88,45.17,3.15,9.56,6.62,16.89,15.21,22.79,25.11,.37,.63,.11,2.23-.44,2.73-6.65,5.98-14.05,10.77-22.49,13.9-1.81,.67-2.5,.2-3.09-1.5-3.66-10.55-11.87-16.72-21.25-21.68-1.35-.71-3.06-.75-4.68-1.53,9.59-5.71,19.79-8.71,31.18-6.93-3.25-1.86-6.79-1.59-10.26-1.3-16.78,1.42-29.66,9.96-40.54,22.23-4.62,5.2-9.37,10.3-14.31,15.19-9,8.92-19.93,14.37-32.37,16.46-11.72,1.98-22.85-.16-33.17-6.2-.33-.19-.73-.27-1.13-.33-.11-.02-.21-.03-.31-.05-.11,0-.21-.03-.31-.05,0,.01-.01,.02-.01,.03,2.79,1.64,5.43,3.77,8.33,5.02,.2,.09,.41,.18,.63,.26,.29,.12,.59,.22,.89,.31,21.77,6.6,40.98,1.67,57.55-13.76,1.92-1.79,3.86-2.86,6.58-3.19,7.39-.91,14.69-2.69,22.09-3.32,15.62-1.33,30.39,.17,42.94,11.6,11.84,10.79,19.89,23.62,24.99,38.62,4.61,13.54,9.97,26.84,14.15,40.5Zm-52.49-89.39c-17.85-5.82-35.27-2.61-52.67,1.1-.13-.23-.25-.45-.38-.68,1.69-1.89,3.32-3.84,5.08-5.66,4.85-4.99,9.85-9.83,14.6-14.9,4.95-5.29,10.59-4.08,15.79-1.33,8.15,4.31,14.25,10.83,17.57,19.63,.09,.26,.01,.58,.01,1.84Zm46.56,41.52c1.08,7.52,.9,15.22,1.24,22.84,.04,.84-.2,1.69-.68,2.61-7-19.04-12.78-38.6-28.25-53.5,7.1-.65,13.25-1.33,19.42-1.62,.86-.04,2.35,1.72,2.61,2.87,2.07,8.89,4.37,17.78,5.66,26.8Zm42.32-148.75c6.33,15.31,8.09,31.38,5.45,47.54-1.96,12.07-4.88,24.14-11.51,34.85-1.15,1.85-2.31,2.91-4.56,3.38-11.05,2.26-20.91,7.29-30.13,13.63-.33,.23-.47,.74-.31,1.63,.99-.53,2.01-1.02,2.97-1.61,8.98-5.57,18.49-9.88,28.91-12.03,.19-.04,.39-.18,.58-.16,1.63,.18,3.25,.39,4.88,.58-.62,1.4-1,3-1.91,4.17-11.03,14.18-25.66,22.15-43.32,24.59-6.87,.95-13.83,1.34-20.75,1.83-1.21,.09-2.7-.3-3.66-1.01-3.86-2.85-7.57-5.9-11.38-8.91,12.8-4.86,23.33-13.11,32.92-22.55,5.87-5.78,11.47-11.92,16.51-18.43,6.22-8.03,10.25-17.27,12.91-27.14,3.36-12.43,5.03-25.08,5.68-37.9,.03-.58,.08-1.35,.45-1.7,3.56-3.35,7.2-6.64,11.34-10.43,1.87,3.64,3.64,6.55,4.93,9.67Zm61.06-51.77c-3.45,1.83-7.18,3.16-10.86,4.52-.62,.23-1.25,.47-1.86,.72-.29,.1-.58,.22-.86,.34-.47,.18-.94,.37-1.4,.58-.04,.01-.09,.02-.13,.05-.82,.34-1.64,.7-2.45,1.06-1.22,.55-2.42,1.12-3.61,1.72-.48,.23-.96,.48-1.44,.72-.54,.28-1.08,.56-1.62,.85-1.1,.59-2.2,1.19-3.28,1.82-.36,.21-.72,.42-1.08,.63-.95,.56-1.9,1.13-2.84,1.73-.47,.3-.94,.6-1.41,.9-.96,.62-1.91,1.24-2.86,1.89-.47,.32-.94,.64-1.41,.97-1.17,.82-2.33,1.66-3.48,2.52-.53,.4-1.08,.8-1.61,1.22-.04,.02-.07,.05-.11,.08-.57,.43-1.14,.87-1.7,1.32-.6,.47-1.19,.94-1.79,1.42-8.14,6.47-16.16,13.09-24.17,19.74-4.59,3.81-9.17,7.63-13.77,11.43-13.75,11.35-28.36,21.48-44.93,28.12-15,6.02-30.75,7.63-46.9,5.03-9.09-1.46-17.62-4.28-25.74-8.4-3.36-1.71-6.43-3.98-9.64-5.99,.1-.27,.21-.53,.31-.79,8.17-.94,15.91-3.33,23.35-6.74,.78-.36,1.79-.42,2.67-.34,15.12,1.32,28.18-3.92,40.66-11.94,15.61-10.05,29.28-22.37,43.19-34.53,1.34-1.17,2.68-2.33,4.04-3.47,.84-.71,1.68-1.41,2.52-2.12,.46-.37,.92-.75,1.38-1.13,.47-.39,.95-.78,1.43-1.15,2.05-1.67,4.13-3.3,6.23-4.88,.63-.49,1.28-.97,1.92-1.45,3.82-2.84,7.73-5.55,11.74-8.11,.71-.46,1.44-.91,2.16-1.35,.05-.05,.11-.08,.16-.1,.55-.35,1.09-.68,1.64-1,.64-.41,1.3-.79,1.95-1.17,1.05-.62,2.1-1.22,3.17-1.81,.77-.43,1.55-.86,2.33-1.27,.27-.16,.55-.3,.82-.44,.24-.13,.47-.25,.71-.37,.11-.07,.22-.12,.34-.18,.68-.36,1.37-.71,2.06-1.05,1.01-.51,2.03-1,3.06-1.48,.15-.08,.31-.16,.47-.23,1.56-.73,3.13-1.46,4.7-2.17,1.03-.47,2.06-.93,3.09-1.39,.88-.39,1.77-.78,2.65-1.16,1.73-.76,3.47-1.5,5.22-2.21,.93-.38,1.87-.76,2.81-1.13,1.88-.74,3.77-1.46,5.67-2.15,.95-.34,1.9-.68,2.86-1.01,.95-.33,1.91-.65,2.87-.96,.88-.29,1.77-.57,2.66-.85,.16-.05,.33-.1,.49-.15,.61-.18,1.21-.36,1.82-.53,.1-.03,.19-.06,.29-.09,.55-.16,1.1-.31,1.65-.46,.61-.17,1.23-.34,1.84-.5,1.06-.28,2.17-.5,3.27-.54,3.41-.12,5.01,1.86,3.29,4.69-2.64,4.34-5.85,8.34-8.92,12.4-.41,.54-1.44,.61-2.18,.91,.29,.43,.59,.87,.89,1.31,1.94,0,3.89-.08,5.83,.02,3.62,.17,7.29,.17,10.83,.81,1.74,.32,3.25,1.92,4.86,2.93-1.26,1.49-2.25,3.5-3.85,4.34Z"/>
        <path class="cls-8" d="M102.16,331.03s.06,.06,.06,.06v-.03s-.04-.02-.06-.03Z"/>
        <path class="cls-8" d="M102.23,331.03s-.01,.02-.01,.03v.03s-.04-.04-.06-.06h-.01v-.02s0,0,0,0c.03,.01,.05,.01,.08,.02Z"/>
        <path class="cls-8" d="M102.54,331.08c-.11,0-.21-.03-.31-.05h0c.1,.02,.2,.04,.31,.05Z"/>
        <path class="cls-2" d="M103.05,160.29c-1.13,6.51-2.34,13-3.55,19.5-.05,.27-.28,.5-.59,1.02-4.56-1.81-8.95-3.5-13.29-5.33-.48-.2-1.02-1.37-.85-1.84,2.7-7.43,5.52-14.81,8.44-22.55,3.16,2.36,6.32,4.63,9.35,7.06,.46,.36,.61,1.45,.49,2.14Z"/>
        <path class="cls-8" d="M211.03,345.94c-3.35,9.35-7,19.52-10.5,29.29,.53-10.82,5.28-20.59,10.5-29.29Z"/>
        <path class="cls-8" d="M84.3,387.56c-2.79-.61-8.94-8.85-9.57-13.5,3.17,4.48,6.34,8.95,9.57,13.5Z"/>
        <path class="cls-8" d="M75.28,240.94c.16-6.84-1.33-12.97-4.04-18.78-3.36-7.22-9.82-8.97-16.46-4.6-5.01,3.29-8.33,8.03-11.4,13.09-4.3,7.09-2.35,19.12,3.2,24.09,2.44,2.18,5.68,4.15,8.83,4.73,8.04,1.47,20.98-9.09,19.87-18.53Zm-17.38,17.18c-5.79,.65-12.16-4.09-13.99-10.68-1.15-4.14-2.75-8.48-.84-12.68,3.26-7.13,7.38-13.72,14.87-17.24,3.92-1.84,8.2-.4,10.8,3.43,3.15,4.63,4.43,9.38,4.95,18.38,.51,8.69-7.17,17.82-15.79,18.79Z"/>
        <path class="cls-8" d="M139.86,252.24c-.46-6.49-1.29-12.86-6.13-17.86-3.17-3.28-5.99-3.86-10.04-1.72-6.81,3.6-11.26,9.33-14.01,16.4-.79,2.04-1.87,4.35-1.57,6.35,.53,3.46,1.73,6.91,3.19,10.12,3.18,6.98,9.84,10.24,17.36,6.61,6.7-3.24,11.75-12.4,11.2-19.9Zm-10.43,17.97c-5.7,3.96-13.24,1.95-16.51-4.24-7.08-13.37,2.12-27.5,10.9-31.6,4.32-2.01,8.08-1.03,10.64,3.09,2.73,4.38,3.93,9.21,3.9,14.37,.08,7.59-2.48,13.9-8.93,18.38Z"/>
        <path class="cls-8" d="M87.58,280.45c-4.54,.88-12.8-3.85-14.53-8.36,4.1,4.12,8.75,7.2,14.53,8.36Z"/>
        <path class="cls-8" d="M94.4,262.05c-.1,.46-.21,.91-.31,1.37-1.78-.42-3.56-.84-5.34-1.27,.09-.44,.17-.89,.25-1.33,1.8,.41,3.6,.82,5.4,1.23Z"/>
      </g>
      <path class="cls-2" d="M94.46,77.5c-1.33,.72-2.65,1.44-3.97,2.16-1.91,1.05-3.82,2.11-5.72,3.18-1.34,.75-2.67,1.5-4,2.27-.73,.41-1.45,.82-2.17,1.24-1.5,.86-3,1.74-4.49,2.62-13.49,7.98-25.46,18.2-36.61,29.17-6.68,6.57-11.19,14.79-13.04,24.16-.71,3.61-.96,7.32-1.36,10.99-.05,.49,.26,1.02,.52,1.94,.7-4.67,.97-8.94,2.05-13.01,1.04-3.95,2.91-7.68,4.94-11.36,1.69,12.53,5.29,24.25,10.26,36.43-3.4-.98-6.37-1.44-8.96-2.68-5.69-2.74-11.61-5.29-16.7-8.95C2.28,146.35-1.1,129.19,3.97,114.85c5.78-16.31,14.94-30.74,26.34-43.47,4.16-4.65,8.4-9.26,12.75-13.77,2.06-2.15,4.15-4.27,6.26-6.36,.06-.06,.11-.11,.17-.17,.98-.97,1.97-1.94,2.96-2.89,.96-.93,1.92-1.85,2.89-2.75,.29-.27,.57-.54,.86-.81,1.94-1.8,3.91-3.58,5.9-5.31,8.45,1.09,17.32,1.06,23.05,9.08,2.21,1.31,3.87,3.15,5.16,5.34,3.66,7.53,4.32,15.58,4.15,23.76Z"/>
      <path class="cls-2" d="M127.49,315.27c-3.39,3.21-14.02,6.14-18.27,5.19,2.47-7.21,4.88-14.24,7.46-21.77,1.37,7.12,6.22,11.79,10.81,16.58Z"/>
      <path class="cls-2" d="M66.11,292.41c-1.23-1.45-2.65-3.09-4.31-4.91,1.53,1.56,2.96,3.2,4.31,4.91Z"/>
      <path class="cls-2" d="M70.23,325.65c-.88,1.43-1.78,2.8-2.79,4.09-7.23,9.24-9.16,7.38-15.27,1.05-12.55-13-14.96-28.44-10.68-45.42,.07-.29,.2-.57,.3-.85,2.33-6.57,6.39-8,12.03-3.93,1.43,1.04,2.81,2.13,4.13,3.28-14.16,8.93-5.58,41.26,12.28,41.78Z"/>
      <path class="cls-2" d="M113.3,304.74c-2.66,11.17-8.83,20.2-17.05,27.95-3.52,3.31-6.01,3.54-9.45,.03-2.56-2.61-4.87-5.46-7.17-8.32,2.87,2.46,6.21,4.61,10.75-.74,9.39-9.09,14.94-36.13,1.2-41.12,2.42-1.48,5.09-2.7,8.05-3.63,2.94-.93,6.08-1.43,9.17-1.68,2.82-.23,5.64,2.77,6.06,6.53,.78,7.06,.09,14.06-1.56,20.98Z"/>
      <path class="cls-2" d="M82.09,425.05c-16.67-1.99-32.37-5.26-45.41-15.83-6.65-5.4-10.16-12.95-12.4-21.03-3.58-12.96-1.11-25.39,5.07-36.82,4.51-8.35,10.56-15.87,15.95-23.74,.27-.39,.75-.62,.78-.65,3.3,3.03,6.55,5.88,9.58,8.94,.52,.53,.49,2.18,.07,2.97-4.6,8.65-7.37,17.87-8.47,27.54-.51,4.48-.64,9.1-.21,13.58,.57,5.86,1.23,11.86,3.04,17.42,1.62,4.97,4.78,9.47,7.43,14.07,.69,1.19,2.04,2,3.08,2.98,.23-.17,.46-.34,.69-.51-7.98-8.65-11.56-19.1-13.15-31.34,1.24,1.14,1.97,1.71,2.58,2.38,4.05,4.45,8.53,8.33,14.31,10.37,2.33,.82,3.75,2.34,4.84,4.59,3.64,7.52,7.49,14.94,11.24,22.42,.37,.73,.58,1.55,.98,2.66Z"/>
      <path class="cls-10" d="M78.85,455.89c-1.38,3.6-2.58,7.29-4.18,10.8-3.58,7.89-7.34,15.69-11.05,23.52-1.08,2.29-2.76,3.17-5.38,2.74-5.17-.85-10.41-1.25-15.55-2.23-1.87-.36-3.62-1.69-5.25-2.83-1.51-1.04-1.44-2.46,.18-3.38,2.18-1.24,4.4-2.49,6.75-3.36,5.64-2.09,11.36-3.96,17.94-6.22-2.15-.97-3.6-1.52-4.97-2.26-5.14-2.77-8.57-7.3-11.74-11.99-.59-.89-.72-2.83-.15-3.55,.68-.85,2.4-1.32,3.59-1.21,9.63,.88,19.25,2.25,28.82-.41,.15-.04,.36,.13,.99,.38Z"/>
      <path class="cls-4" d="M96.89,468.64c-.13,.59-.15,1.23-.4,1.76-4.78,10.11-9.5,20.25-14.4,30.3-3.18,6.51-6.01,13.5-12.91,17.04-2.93,1.51-6.46,2.03-9.78,2.58-2.46,.41-3.42-1.16-2.38-3.38,.94-2.03,2.27-3.89,3.42-5.82-2.66,2.04-5.86,3.78-5.25,7.95,.05,.36-.84,1.27-1.23,1.23-2.93-.26-6.61-3.58-4.89-6.4,1.29-2.11,2.7-4.14,3.6-6.6-1.9,2.45-3.79,4.91-5.69,7.36-.27-.06-.53-.13-.8-.2,.36-1.49,.37-3.22,1.17-4.42,1.21-1.81,2.77-3.55,4.55-4.79,9.63-6.67,14.9-16.52,19.7-26.69,2.07-4.37,3.71-8.94,5.58-13.4,.25-.6,.67-1.12,1.48-2.44,.4,5.78,.75,10.72,1.12,15.99,5.58-3.62,11.01-7.14,16.44-10.67,.22,.2,.45,.4,.67,.6Z"/>
      <g>
        <path class="cls-3" d="M90.38,323.66c-4.54,5.35-7.88,3.2-10.75,.74-1.23-1.53-2.45-3.06-3.7-4.56-.37-.44-.73-.9-1.33-1.65-1.57,2.56-2.92,5.09-4.37,7.46-17.86-.52-26.44-32.85-12.28-41.78,1.34,1.15,2.62,2.36,3.85,3.63,1.66,1.82,3.08,3.46,4.31,4.91,2.64,3.31,4.99,6.87,7.08,10.64,.27,.48,.64,.92,1.01,1.46,2.68-6.34,6.02-11.96,10.43-16.45l.18-.18c2.02-2.03,4.26-3.82,6.77-5.34,13.74,4.99,8.19,32.03-1.2,41.12Z"/>
        <path class="cls-3" d="M58.25,283.68c1.29,1.36,2.47,2.63,3.55,3.82-1.23-1.27-2.51-2.48-3.85-3.63,.1-.07,.2-.13,.3-.19Z"/>
        <path class="cls-3" d="M91.58,282.54c-2.51,1.52-4.75,3.31-6.77,5.34,1.71-1.73,3.75-3.58,6.19-5.54,.2,.06,.39,.13,.58,.2Z"/>
        <path class="cls-3" d="M71.07,297.59s.03,.09,.08,.09l-.08-.09Z"/>
      </g>
      <path class="cls-4" d="M124.88,466.91c-.87,6.76-1.72,13.52-2.64,20.27-.27,2-.49,4.04-1.14,5.93-2.55,7.5-7.42,12.77-15.22,14.92-.92,.26-2.04-.22-3.07-.35,.38-.98,.63-2.03,1.16-2.92,.7-1.15,1.61-2.18,2.07-3.55-3.09,1.19-4.93,3.48-6,7.46-1.6-1.38-4.12-2.89-3.92-3.5,.66-2,2.31-3.67,3.76-5.73-.02-.03-.44-.48-.95-1.04,3.16-3.25,5.53-6.78,5.57-11.45,0-.5,.46-1.15,.9-1.48,7.1-5.38,13.48-11.48,18.54-18.89,.31,.11,.63,.22,.94,.33Z"/>
      <path class="cls-2" d="M88.34,490.84c11.88-24.24,22.84-48.29,40.38-68.66,10.24,23.38-8.45,59.23-40.38,68.66Z"/>
      <path class="cls-4" d="M232.5,455.87c-1.95,5.55-3.38,10.36-5.31,14.96-2.8,6.69-6.05,13.19-8.94,19.85-3.11,7.18-8.46,11.36-16.15,12.56-.54,.08-1.45,0-1.62-.32-.27-.5-.32-1.45-.01-1.87,1.25-1.67,2.6-3.27,4.07-4.75,.5-.51,1.44-.59,1.76-1.29-3.64-.39-7.45,3.01-8.04,6.09-.15,.8-.57,1.55-.87,2.32-1.47-.78-3.04-1.43-4.35-2.43-.37-.28-.27-1.84,.16-2.36,.94-1.13,2.24-1.96,3.39-2.92-.15-.22-.3-.44-.45-.66-.64,.03-1.29,.07-2.53,.14,.78-.94,1.19-1.76,1.85-2.16,7.26-4.46,10.01-11.85,12.68-19.3,1.77-4.91,3.55-9.82,5.56-15.4,.55,2.22,.94,3.88,1.38,5.53,.52,1.97,1.28,2.34,3.18,1.04,4.38-3.01,8.97-5.72,14.24-9.03Z"/>
      <path class="cls-4" d="M277.38,458.28c-1.1,3.26-2.13,6.55-3.3,9.79-3.77,10.42-7.64,20.81-11.37,31.25-2.02,5.65-5.65,9.48-11.56,10.86-.96,.23-2.05-.09-3.08-.15,.11-1.12-.07-2.39,.41-3.33,.87-1.75,2.13-3.3,3.23-4.94-.24-.18-.48-.36-.72-.55-2.77,2.56-5.36,5.22-4.91,9.45-.32,.19-.52,.4-.67,.37-2.49-.44-4.97-.9-7.46-1.36,.9-2.13,1.75-4.29,2.73-6.39,.38-.83,1.03-1.55,1.56-2.33-.23-.18-.47-.36-.71-.55-2.07,2.57-4.14,5.14-6.21,7.7-2.61-2.66-2.59-6.25,.47-9.21,2.45-2.37,5.37-4.25,7.94-6.51,1.55-1.36,3.38-2.82,4.11-4.63,2.57-6.42,4.73-13.01,7.04-19.53,.22-.62,.44-1.24,.86-2.43,1.12,2.48,2.01,4.47,2.86,6.37,6.22-5.08,12.07-9.85,17.91-14.63,.29,.25,.58,.5,.87,.75Z"/>
      <path class="cls-2" d="M285.29,432.81c-.91-8.66-2.39-17.4-4.92-25.71-4.18-13.66-9.54-26.96-14.15-40.5-5.1-15-13.15-27.83-24.99-38.62-12.55-11.43-27.32-12.93-42.94-11.6-7.4,.63-14.7,2.41-22.09,3.32-2.72,.33-4.66,1.4-6.58,3.19-16.57,15.43-35.78,20.36-57.55,13.76-.3-.09-.6-.19-.89-.31-.21-.08-.42-.16-.63-.26-2.9-1.25-5.54-3.38-8.33-5.02v.03c-1.06,.28-2.26,.33-3.14,.89-1.6,1.04-2.95,2.43-4.49,3.57-1.96,1.46-4.12,1.88-6.09,.14-3.31-2.92-6.59-5.87-9.67-9.02-1.56-1.59-2.65-3.64-4.19-5.81-.48,.96-.65,1.53-.99,1.98-3.1,4.17-5.73,8.9-9.53,12.31-2.82,2.53-4.24,4.81-3.92,8.39,.1,1.21,.07,2.43,.19,3.63,.7,7.03,1.63,14.04,2.09,21.08,.63,9.72,3.27,18.93,7.26,27.66,4.99,10.91,10.64,21.51,16.04,32.23,.29,.6,.88,1.05,1.36,1.6,.46-.48,.67-.6,.71-.76,2.07-8.62,3.97-17.28,6.27-25.84,.65-2.42,.17-3.7-1.65-5.11-1.58-1.22-2.85-2.82-4.26-4.25,.21-.2,.42-.41,.63-.61,1.99,1.59,3.97,3.19,6.19,4.98,3.92-12.64,7.71-24.87,11.51-37.1,.23,.06,.47,.13,.71,.2-.78,3.4-1.45,6.83-2.36,10.2-4.31,15.95-8.56,31.93-13.1,47.81-3.11,10.85-6.67,21.57-10.05,32.34-1.35,4.31-2.97,8.47-1.53,13.23,.8,2.63,.56,5.57,.8,8.37,.07,.84,.18,1.67,.27,2.5,.77-.3,1.62-.48,2.31-.92,3.33-2.06,6.66-4.12,9.89-6.33,2.18-1.49,4.99-2.81,6.13-4.94,8.82-16.41,19.09-31.82,30.6-46.44,4.12-5.22,8.07-10.59,11.75-16.12,2.25-3.39,3.84-7.23,5.72-10.87,.28,.14,.56,.27,.84,.4-2.4,5.08-4.8,10.16-7.6,16.09,19.15-8.91,38.08-13.34,57.91-5.57v.79c-5.78-.96-11.57-1.91-18.01-2.98,.58,1.49,.67,2,.94,2.38,4.73,6.52,9.17,13.28,14.31,19.46,5.55,6.66,11.91,12.63,17.56,19.2,1.39,1.61,2.31,4.57,1.92,6.61-.96,5.03-.1,9.84,.45,14.72,.23,2.01,.85,2.76,2.91,1.4,4.29-2.83,8.73-5.45,13.09-8.18,.66-.42,1.63-.93,1.77-1.55,1.07-5.07,2.79-10.19,2.71-15.27-.07-4.6-2.68-9.1-3.24-13.75-.74-6.1-4.53-8.84-9.42-11.42-6.06-3.19-12.26-6.52-16.26-12.38-2.54-3.72-4.46-7.86-6.65-11.82,.33-.18,.65-.37,.98-.55,.32,.43,.77,.82,.94,1.31,2.4,6.66,6.41,12.25,12.3,16.07,7.61,4.92,15.64,9.18,23.35,13.95,6.32,3.92,12.56,8,18.58,12.36,1.49,1.08,2.91,3.56,2.81,5.31-.33,6.12-1.06,12.26-2.18,18.29-.81,4.38-.88,8.52,.36,12.8,.74,2.56,1.59,2.22,3.26,.8,4.22-3.59,8.55-7.04,12.85-10.54,1.63-1.32,4.01-2.31,4.79-4.02,3.06-6.76,7.15-13.54,6.34-21.18Zm-210.56-58.75c3.17,4.48,6.34,8.95,9.57,13.5-2.79-.61-8.94-8.85-9.57-13.5Zm125.8,1.17c.53-10.82,5.28-20.59,10.5-29.29-3.35,9.35-7,19.52-10.5,29.29Z"/>
      <path class="cls-5" d="M275.68,382.07c.04,.84-.2,1.69-.68,2.61-7-19.04-12.78-38.6-28.25-53.5,7.1-.65,13.25-1.33,19.42-1.62,.86-.04,2.35,1.72,2.61,2.87,2.07,8.89,4.37,17.78,5.66,26.8,1.08,7.52,.9,15.22,1.24,22.84Z"/>
      <path class="cls-4" d="M276.01,309.88c-.33,.23-.47,.74-.31,1.63,.99-.53,2.01-1.02,2.97-1.61,8.98-5.57,18.49-9.88,28.91-12.03,.19-.04,.39-.18,.58-.16,1.63,.18,3.25,.39,4.88,.58-.62,1.4-1,3-1.91,4.17-11.03,14.18-25.66,22.15-43.32,24.59-6.87,.95-13.83,1.34-20.75,1.83-1.21,.09-2.7-.3-3.66-1.01-3.86-2.85-7.57-5.9-11.38-8.91,12.8-4.86,23.33-13.11,32.92-22.55,5.87-5.78,11.47-11.92,16.51-18.43,6.22-8.03,10.25-17.27,12.91-27.14,3.36-12.43,5.03-25.08,5.68-37.9,.03-.58,.08-1.35,.45-1.7,3.56-3.35,7.2-6.64,11.34-10.43,1.87,3.64,3.64,6.55,4.93,9.67,6.33,15.31,8.09,31.38,5.45,47.54-1.96,12.07-4.88,24.14-11.51,34.85-1.15,1.85-2.31,2.91-4.56,3.38-11.05,2.26-20.91,7.29-30.13,13.63Z"/>
      <path class="cls-2" d="M254.96,302.82c-6.65,5.98-14.05,10.77-22.49,13.9-1.81,.67-2.5,.2-3.09-1.5-3.66-10.55-11.87-16.72-21.25-21.68-1.35-.71-3.06-.75-4.68-1.53,9.59-5.71,19.79-8.71,31.18-6.93-3.25-1.86-6.79-1.59-10.26-1.3-16.78,1.42-29.66,9.96-40.54,22.23-4.62,5.2-9.37,10.3-14.31,15.19-9,8.92-19.93,14.37-32.37,16.46-11.72,1.98-22.85-.16-33.17-6.2-.33-.19-.73-.27-1.13-.33-.21-.03-.42-.06-.62-.11,.11-1.07-.05-2.33,.46-3.16,.98-1.62,2.28-3.08,3.65-4.42,.63-.62,1.69-1.07,2.58-1.11,10.25-.39,19.28-3.92,27.14-10.42,9.62-7.97,18.99-16.26,28.78-24.01,7.25-5.74,14.6-11.53,22.6-16.07,15.48-8.81,30.68-6.88,45.17,3.15,9.56,6.62,16.89,15.21,22.79,25.11,.37,.63,.11,2.23-.44,2.73Z"/>
      <path class="cls-2" d="M354.77,167.53c-.34,.65-.74,1.23-1.18,1.74-1.1,.59-2.2,1.19-3.28,1.82-.36,.21-.72,.42-1.08,.63-.95,.56-1.9,1.13-2.84,1.73-.47,.28-.94,.58-1.41,.9-.96,.62-1.91,1.24-2.86,1.89-.47,.32-.94,.64-1.41,.97-1.17,.82-2.33,1.66-3.48,2.52-.54,.39-1.08,.8-1.61,1.22-.04,.02-.07,.05-.11,.08-.57,.43-1.14,.87-1.7,1.32-.6,.47-1.19,.94-1.79,1.42-8.14,6.47-16.16,13.09-24.17,19.74-4.59,3.81-9.17,7.63-13.77,11.43-13.75,11.35-28.36,21.48-44.93,28.12-15,6.02-30.75,7.63-46.9,5.03-9.09-1.46-17.62-4.28-25.74-8.4-3.36-1.71-6.43-3.98-9.64-5.99,.1-.27,.21-.53,.31-.79,8.17-.94,15.91-3.33,23.35-6.74,.78-.36,1.79-.42,2.67-.34,15.12,1.32,28.18-3.92,40.66-11.94,15.61-10.05,29.28-22.37,43.19-34.53,1.34-1.17,2.68-2.33,4.04-3.47,.84-.71,1.68-1.41,2.52-2.12,.46-.37,.92-.75,1.38-1.13,.47-.39,.95-.78,1.43-1.15,2.05-1.67,4.13-3.3,6.23-4.88,.63-.49,1.28-.97,1.92-1.45,3.82-2.84,7.73-5.55,11.74-8.11,.71-.46,1.44-.91,2.16-1.35,.05-.05,.11-.08,.16-.1,.55-.35,1.09-.68,1.64-1,.65-.4,1.29-.79,1.95-1.17,1.05-.62,2.1-1.22,3.17-1.81,.77-.43,1.55-.86,2.33-1.27,.27-.16,.55-.3,.82-.44,.24-.13,.47-.25,.71-.37,.11-.07,.22-.12,.34-.18,.68-.36,1.37-.71,2.06-1.05,1.01-.51,2.03-1,3.06-1.48,.15-.08,.31-.16,.47-.23,1.56-.73,3.13-1.46,4.7-2.17,1.03-.47,2.06-.93,3.09-1.39,.88-.39,1.77-.78,2.65-1.16,1.73-.76,3.47-1.5,5.22-2.21,4.48,2.12,8.88,4.37,12.33,8.15,.42,2.04,1.67,3.91,1.27,6.12,3.04,4.46,.72,9.05,.33,13.59Z"/>
      <path class="cls-4" d="M271.93,76.73c-.6,7.22-3.53,13.63-6.77,19.92-10.38,20.19-23.39,38.38-40.76,53.23-.56,.47-.98,1.09-1.47,1.65,.24,.25,.48,.51,.72,.77,1.09-.79,2.35-1.43,3.25-2.4,6.84-7.26,13.58-14.61,20.41-21.88,.81-.85,1.98-1.36,2.97-2.02,.34,1.21,1.19,2.56,.91,3.61-.7,2.59-1.42,5.42-3.01,7.49-5.88,7.65-11.95,15.18-18.26,22.48-4.9,5.67-10.61,10.52-17.39,13.91-1.04,.52-2.28,.94-3.41,.91-11.27-.29-22.35,.79-33.13,4.27-.16,.05-.38-.07-.83-.17,.25-.44,.37-.9,.66-1.17,9.7-9.01,17.67-19.42,24.24-30.82,2.9-5.02,4.82-10.64,6.85-16.1,.49-1.33,.19-3.59-.69-4.57-.62-.68-3.03-.33-4.33,.26-15.5,7-27.52,18.18-37.42,31.76-4.32,5.93-8.23,12.17-12.57,18.64-.5-2.33-.96-4.5-1.44-6.66-.44-1.97-.54-4.1-1.4-5.87-2.52-5.16-.65-9.67,1.92-13.93,7.28-12.02,15.29-23.59,25.2-33.59,10.53-10.64,22.15-19.94,35.41-27.2,10.74-5.87,21.57-11.47,33.23-15.17,5.63-1.79,11.54-2.8,17.38-3.84,1.89-.34,4.02,.08,5.93,.56,3.02,.76,4.05,2.86,3.8,5.93Z"/>
      <path class="cls-7" d="M204.96,130.92c-2.84,6.31-5.38,12.81-8.88,18.74-6.66,11.28-14.72,21.58-25.56,29.13-3.94,2.75-8.93,4.02-13.44,5.94-1.45,.61-2.92,1.17-4.48,1.8-1.18-3.12-.52-5.79,.9-8.3,7.8-13.86,16.24-27.33,28.79-37.44,5.93-4.78,12.67-8.55,19.13-12.63,.98-.62,2.46-.44,3.71-.63-.04,1.14,.27,2.43-.17,3.39Z"/>
      <path class="cls-2" d="M219.48,183.22c-.93,9.22-4.19,17.35-9.82,24.93-8.53,11.48-19.79,18.15-33.35,21.4-5.64,1.35-11.3,3.11-17.27,1.8-8.78-1.93-9.12-2.84-10.94-11.13-1.33-6.02-1.02-12.41-1.46-18.63-.06-.94-.21-1.88-.39-3.46-1.49,1.01-2.45,1.64-3.39,2.31-8.95,6.5-18.55,10.57-29.93,8.12-3.04-.65-5.27-2.23-6.8-5-3.91-7.11-4.72-14.82-4.86-22.75-.22-13.17,4.71-24.91,10.54-36.2,2.61-5.05,6.84-9.44,10.98-13.48,3.41-3.34,6.74-2.72,9.57,.83,5.6,7.04,9.73,14.89,12.3,23.44,2.17,7.23,3.75,14.65,5.26,22.04,.59,2.9,.3,5.98,.41,8.98,.07,2.26,1.04,2.69,3.16,1.95,9.7-3.36,19.29-7.28,29.23-9.68,10.05-2.42,20.45-3.69,30.91-2.42,3.32,.4,6.18,3.67,5.85,6.95Z"/>
      <path class="cls-5" d="M145.16,228.39c-2.87-4.24-6.26-7.74-11.42-9.39-8.17-2.61-14.59,1.15-20.25,5.86-7.32,6.08-13.16,13.62-17.66,22.1-.36,.7-.98,1.26-1.54,1.95-.44-.51-.63-.63-.68-.8-.09-.28-.13-.59-.12-.89,.46-9.95-2.38-19.14-6.75-27.89-6.04-12.08-19.21-20.88-34.38-13.81-9.83,4.58-17.25,11.72-20.65,22.12-2.05,6.29-3.14,12.93-4.26,19.48-.62,3.63-.91,7.47-.46,11.11,1.21,9.92,9.15,15.12,15.46,21.43,4.47-3.73,6.08-3.86,10.99-.92,1.29,.77,2.63,1.6,3.65,2.69,4.74,5.05,9.52,10.09,14.02,15.37,2.93,3.43,3.34,3.74,5.57-.26,4.47-8.04,10.35-14.51,19.2-17.56,4.11-1.42,8.49-2.37,12.82-2.77,3.91-.36,6.5,2.03,7.09,5.94,.62,4.13,.75,8.34,1.11,12.71,.21,.05,.43,.18,.59,.12,9.3-3.26,18.05-7.62,25.33-14.34,2.09-1.94,4.12-4.89,4.47-7.6,1.24-9.46,2.06-19.01,2.37-28.56,.19-5.64-1.22-11.24-4.5-16.09Zm-89.75,31.08c-3.15-.58-6.39-2.55-8.83-4.73-5.55-4.97-7.5-17-3.2-24.09,3.07-5.06,6.39-9.8,11.4-13.09,6.64-4.37,13.1-2.62,16.46,4.6,2.71,5.81,4.2,11.94,4.04,18.78,1.11,9.44-11.83,20-19.87,18.53Zm17.64,12.62c4.1,4.12,8.75,7.2,14.53,8.36-4.54,.88-12.8-3.85-14.53-8.36Zm21.04-8.67c-1.78-.42-3.56-.84-5.34-1.27,.09-.44,.17-.89,.25-1.33,1.8,.41,3.6,.82,5.4,1.23-.1,.46-.21,.91-.31,1.37Zm34.57,8.72c-7.52,3.63-14.18,.37-17.36-6.61-1.46-3.21-2.66-6.66-3.19-10.12-.3-2,.78-4.31,1.57-6.35,2.75-7.07,7.2-12.8,14.01-16.4,4.05-2.14,6.87-1.56,10.04,1.72,4.84,5,5.67,11.37,6.13,17.86,.55,7.5-4.5,16.66-11.2,19.9Z"/>
      <path class="cls-10" d="M138.36,251.83c.08,7.59-2.48,13.9-8.93,18.38-5.7,3.96-13.24,1.95-16.51-4.24-7.08-13.37,2.12-27.5,10.9-31.6,4.32-2.01,8.08-1.03,10.64,3.09,2.73,4.38,3.93,9.21,3.9,14.37Z"/>
      <path class="cls-10" d="M57.9,258.12c-5.79,.65-12.16-4.09-13.99-10.68-1.15-4.14-2.75-8.48-.84-12.68,3.26-7.13,7.38-13.72,14.87-17.24,3.92-1.84,8.2-.4,10.8,3.43,3.15,4.63,4.43,9.38,4.95,18.38,.51,8.69-7.17,17.82-15.79,18.79Z"/>
      <path class="cls-7" d="M64.75,171.92c-.39,.08-.78,.16-1.17,.25-1.53-4.28-3.3-8.5-4.55-12.86-4.36-15.19-3.47-30.74-2.89-46.26,.01-.4,.17-.82,.11-1.2-1.25-7.52,3.6-11.33,8.98-14.83,1.25-.81,2.48-1.64,4.38-2.91,2.16,26.72,3.72,52.6-4.86,77.81Z"/>
      <path class="cls-4" d="M147.95,230.07c-.6-.85-1.22-1.67-1.78-2.53-3.27-5.08-7.42-9.37-13.5-10.43-3.38-.59-7.37-.31-10.52,.96-8.56,3.44-14.93,9.8-20.24,17.25-2.2,3.08-4.44,6.14-6.96,9.63-.2-.98-.37-1.49-.39-2-.84-15.19-5.45-28.74-18.69-37.46-9.14-6.01-18.86-4.69-28.05,.75-4.72,2.79-8.99,6.17-12.09,10.82-.37,.55-.92,.99-2.05,1.12,1.99-4.84,3.84-9.75,6.07-14.48,.45-.97,2.29-1.28,3.57-2.22-6.19,1.04-11.6-.38-16.61-4.87,5.33-4.22,11.32-3.51,17.9-3.03-.86-.93-1.22-1.63-1.56-1.62-3.82,.04-5.97-2.72-8.28-5.01-4.17-4.13-8.11-8.47-10.06-14.21-.95-2.8-.15-4.25,2.64-3.42,5.56,1.64,11.17,3.47,16.32,6.09,4.7,2.39,8.81,5.93,13.19,8.95,.62,.43,1.28,.81,1.92,1.21,.3-.36,.6-.71,.9-1.07-3.08-2.46-5.87-5.48-9.31-7.24-4.11-2.09-6.02-5.37-7.59-9.29-4.85-12.14-8.18-24.7-10.21-37.6-.24-1.58,.29-3.83,1.33-4.98,4.78-5.31,9.83-10.37,14.87-15.44,1.67-1.67,3.61-3.07,6.02-5.1-1.78,25-3.43,49.26,9.86,72.53,1.34-3.42,2.61-6.07,3.42-8.86,5.76-19.9,5.88-40.23,4.42-60.67-.31-4.42-.92-8.82-1.22-13.24-.06-.82,.47-2.07,1.13-2.49,7.76-4.85,15.59-9.58,23.91-14.05,2.09,18,2.35,35.72-.68,53.31-3.05,17.62-9.22,34.34-16.27,50.72,.2,.17,.41,.35,.61,.52,.82-1.15,1.93-2.19,2.39-3.46,.87-2.35,2.11-2.52,4.17-1.54,2,.95,4.09,1.83,6.23,2.32,6.26,1.43,7.18,6.15,8.03,11.48,.68,4.31,2.08,8.63,3.88,12.62,2.25,4.99,6.77,6.81,12.13,7.02,9.52,.37,17.74-3.14,25.51-8.15,.63-.41,1.33-.71,1.89-1,1.26,9.47,2.49,18.71,3.75,28.16Z"/>
      <path class="cls-4" d="M80.23,23.62c-12.5,8.7-24.54,17.96-34.81,29.36-4.59,5.08-9.51,9.87-14.29,14.78-.25,.25-.68,.32-1.03,.48-.31-.18-.62-.37-.93-.55,2.41-7.31,4.8-14.62,7.25-21.91,.32-.94,.83-1.91,1.52-2.59,1.08-1.05,2.39-1.85,3.6-2.76,.5,1.47,1.18,2.91,1.44,4.42,.25,1.44,.06,2.95,.06,4.44,.28,.08,.56,.17,.85,.26,.35-.85,.89-1.66,1.03-2.54,1.2-7.53,4.08-14.52,7.5-21.19,2.97-5.79,6.6-11.28,10.38-16.59,1.81-2.54,4.47-4.61,7.09-6.4,3.22-2.21,5.78-1.89,8.09,1.38,2.17,3.07,3.71,6.64,5.2,10.14,2.5,5.86,2.23,5.66-2.95,9.27Z"/>
      <g>
        <path class="cls-7" d="M89.21,82.15s-.04,0-.06,0c0,.02-.02,.04-.02,.07l.09-.08Z"/>
        <path class="cls-7" d="M89.19,82.02c-.02,.05-.04,.09-.05,.14-.08,0-.15,.01-.23,.02,.09-.05,.18-.11,.28-.16Z"/>
        <path class="cls-7" d="M94.46,77.5c-1.33,.72-2.65,1.44-3.97,2.16-1.91,1.05-3.82,2.11-5.72,3.18-1.34,.75-2.67,1.5-4,2.27-.73,.41-1.45,.82-2.17,1.24-.2-2.22-.12-4.45-.15-6.69-.02-2.11-.12-4.24-.62-6.37-3.14-13.43-10.64-20.13-24.37-21.11-1.43-.1-2.95,.14-4.14-.93,.06-.06,.11-.11,.17-.17,.98-.97,1.97-1.94,2.96-2.89,.96-.93,1.92-1.85,2.89-2.75,.29-.27,.57-.54,.86-.81,1.94-1.8,3.91-3.57,5.9-5.31,8.45,1.09,17.32,1.06,23.05,9.08,2.21,1.31,3.87,3.15,5.16,5.34,3.66,7.53,4.32,15.58,4.15,23.76Z"/>
      </g>
      <path class="cls-6" d="M340.97,178.81l-7.16,5.2c2.36-1.78,4.74-3.52,7.16-5.2Z"/>
      <path class="cls-6" d="M344.98,163.67v10.68c-.96,.62-1.91,1.24-2.86,1.89-.47,.32-.94,.64-1.41,.97-1.17,.82-2.33,1.66-3.48,2.52-.57,.43-1.15,.86-1.72,1.3-.57,.43-1.14,.87-1.7,1.32-.6,.47-1.19,.94-1.79,1.42-1.34-3.16,.1-6.54,.01-9.71-.32-11.03-9.29-16.96-19.44-17.71-1.47-.1-3.41,.21-3.96-.75,.55-.35,1.09-.68,1.64-1,.64-.41,1.3-.79,1.95-1.17,1.05-.62,2.1-1.22,3.17-1.81,.77-.43,1.55-.86,2.33-1.27,.27-.16,.55-.3,.82-.44,.24-.13,.47-.25,.71-.37,.11-.07,.22-.12,.34-.18,.68-.36,1.37-.71,2.06-1.05,1.01-.51,2.03-1,3.06-1.48,9.63,1.8,17.79,5.56,20.27,16.84Z"/>
      <path class="cls-9" d="M354.77,167.53c-.34,.65-.74,1.23-1.18,1.74-1.1,.59-2.2,1.19-3.28,1.82-.36,.21-.72,.42-1.08,.63-.95,.56-1.9,1.13-2.84,1.73-.47,.3-.94,.6-1.41,.9v-10.68c-1.45-6.61-4.86-10.64-9.36-13.2-3.19-1.81-6.93-2.89-10.91-3.64,.15-.08,.31-.16,.47-.23,1.56-.73,3.13-1.46,4.7-2.17,1.03-.47,2.06-.93,3.09-1.39,.88-.39,1.77-.78,2.65-1.16,1.73-.76,3.47-1.5,5.22-2.21,4.48,2.12,8.88,4.37,12.33,8.15,.42,2.04,1.67,3.91,1.27,6.12,3.04,4.46,.72,9.05,.33,13.59Z"/>
      <path class="cls-10" d="M381.67,154.37c-1.26,1.49-2.25,3.5-3.85,4.34-3.45,1.83-7.18,3.16-10.86,4.52-.62,.23-1.25,.47-1.86,.72-.29,.1-.58,.22-.86,.34-.47,.18-.94,.37-1.4,.58-.04,.01-.09,.02-.13,.05-.82,.34-1.64,.7-2.45,1.06-1.22,.55-2.42,1.12-3.61,1.72-.49,.23-.96,.47-1.44,.72-.54,.28-1.08,.56-1.62,.85,.44-.51,.84-1.09,1.18-1.74,.39-4.54,2.71-9.13-.33-13.59,.4-2.21-.85-4.08-1.27-6.12-3.45-3.78-7.85-6.03-12.33-8.15,.93-.38,1.87-.76,2.81-1.13,1.88-.74,3.77-1.46,5.67-2.15,.95-.34,1.9-.68,2.86-1.01,.95-.33,1.91-.65,2.87-.96,.88-.29,1.77-.57,2.66-.85,.16-.05,.33-.1,.49-.15,.61-.18,1.21-.36,1.82-.53,.1-.03,.19-.06,.29-.09,.55-.16,1.1-.31,1.65-.46,.61-.17,1.23-.34,1.84-.5,1.06-.28,2.17-.5,3.27-.54,3.41-.12,5.01,1.86,3.29,4.69-2.64,4.34-5.85,8.34-8.92,12.4-.41,.54-1.44,.61-2.18,.91,.29,.43,.59,.87,.89,1.31,1.94,0,3.89-.08,5.83,.02,3.62,.17,7.29,.17,10.83,.81,1.74,.32,3.25,1.92,4.86,2.93Z"/>
      <g>
        <path class="cls-3" d="M142.59,148.49s.02,.03,.03,.04c.06,0,.11-.02,.17-.02,0,0-.2-.02-.2-.02Z"/>
        <path class="cls-3" d="M190.36,188.43c-.45,2.27-.91,4.55-1.36,6.83-6.1,10.68-14.81,18.27-26.33,22.74-5.5,2.13-10.61,2.52-15.37-1.57-.22-3.35-.38-6.71-.67-10.05-.19-2.17,1.1-5.14-.73-6.34-2.24-1.46-3.67,1.75-5.58,2.67-2.39,1.15-4.26,3.34-7.09,3.66-10.78-4.66-8.26-14.62-9.24-23.18,.51-9.13,2.38-17.89,6.71-26.05,2.61-4.92,6.17-8.24,11.93-8.61,.33,.47,.67,.96,1,1.44,.43,.65,.85,1.31,1.29,1.97,2.5,11.6,6.34,22.99,5.6,35.12,.99,1.46,2.46,1.26,3.9,1.18,7-4.28,15.1-5.77,22.52-8.99,4.17-.88,8.35-1.75,12.51-2.63,2.85,3.74,3.75,7.63,.91,11.81Z"/>
      </g>
      <path class="cls-6" d="M80.6,85.01c-.24,.2-.48,.41-.73,.61-.43,.24-.85,.49-1.27,.73-1.5,.86-3,1.74-4.49,2.62-2.79,1.65-5.52,3.4-8.19,5.23,0-3.2,.03-6.4-.01-9.59-.19-12.12-7.41-19.36-19.57-19.53-3.46-.04-6.93,.28-10.4,.43-.05-.07-.09-.13-.12-.2,4.4-4.78,8.88-9.49,13.5-14.06l.09-.09c.98-.04,1.96-.24,2.94-.69,1.16,1.12,2.64,.88,4.05,.98,13.13,.94,20.3,7.34,23.3,20.18,1.05,4.5,.28,8.97,.83,13.41l.07-.03Z"/>
      <path class="cls-10" d="M139.27,50.49c-5.68,5.74-12.49,9.78-19.57,13.55-8.41,4.48-16.86,8.91-25.24,13.46,.17-8.18-.49-16.23-4.15-23.76-1.29-2.19-2.95-4.03-5.16-5.34-5.73-8.02-14.6-7.99-23.05-9.08,1.11-.99,2.23-1.95,3.36-2.9,11.71-9.87,24.48-18.86,39.5-23.59,2.39-.75,4.86-1.32,7.34-1.76,2.99-.52,4.96,1.4,4.18,4.34-.76,2.87-1.81,5.74-3.22,8.35-3.75,6.95-8.15,13.47-14.16,18.73-1.32,1.15-2.84,2.06-4.27,3.07,.06,.1,.12,.21,.17,.31,4.8-1.35,9.61-2.64,14.39-4.05,6.81-2.01,13.76-2.1,20.68-1.09,2.91,.42,5.79,1.74,8.44,3.11,3.08,1.58,3.2,4.17,.76,6.65Z"/>
      <path class="cls-1" d="M66.39,249.42c-2.56,.63-4.14-1.07-5.87-2.43-1.1-6.43,.03-12.47,3.43-18,2.04-3.31,4.59-5.37,7.94-1.24,.43,1.84,.87,3.67,1.3,5.51,.44,6.53-2.21,11.76-6.81,16.16Z"/>
      <path class="cls-1" d="M113.8,244.46c.59-3.26,3.95-4.44,5.31-7.12,.55-.13,1.1-.26,1.65-.38,6.83,5.45,5.93,18.46-1.6,22.72-3.26,1.84-5.11,.41-5.34-2.88-.28-4.09-.04-8.22-.03-12.34Z"/>
    </g>
  </g>
</svg>