<?xml version="1.0" encoding="UTF-8"?>
<svg id="Layer_2" data-name="Layer 2" xmlns="http://www.w3.org/2000/svg" viewBox="0 0 376.33 452.66">
  <defs>
    <style>
      .cls-1 {
        fill: #e4ca85;
      }

      .cls-2 {
        fill: #fff;
      }

      .cls-3 {
        fill: #d16b4a;
      }

      .cls-4 {
        fill: #484d52;
      }

      .cls-5 {
        fill: #34383a;
      }
    </style>
  </defs>
  <g id="Layer_1-2" data-name="Layer 1">
    <g>
      <path d="M372.83,154.68c-3.68-3.15-6.97-6.18-7.57-11.56-.53-4.8-4.29-8.48-5.92-13.03-3.09-8.61-8.3-15.68-16.43-20.35-5.5-3.15-11.2-5.74-17.44-6.99-1.53-.31-2.56-1.02-2.96-2.56-1.38-5.36-3.97-10.26-5.74-15.48-4.23-12.46-10.71-23.68-18.92-33.94-4.23-5.27-9.05-9.93-14.28-14.2-9.4-7.65-19.46-14.27-30.71-18.85-9.87-4.01-19.98-7.36-30.06-10.8-5.44-1.86-10.49-4.77-16.05-6.4-1.18-.35-2.43-1-3.43,.04-.93,.98,.1,1.92,.5,2.85,3.5,8.05,8.26,15.34,13.06,22.68,6.57,10.06,14.11,19.33,21.76,28.52,5.78,6.94,12.89,12.54,19.42,18.71,6.34,6.01,13.36,11.23,20.78,15.92,5.84,3.69,11.57,7.54,17.55,11,.64,.37,1.64,.7,1.36,1.67-.24,.8-1.2,.56-1.85,.65-8.43,1.14-16.22,3.88-23.41,8.52-6.16,3.98-11.21,8.96-14.77,15.3-1.43,2.54-2.93,3.11-5.48,2.22-4.48-1.56-9.2-2.2-13.85-2.86-9.69-1.36-19.45-1.39-29.24-1.34-13.73,.06-26.8,3.32-39.78,7.16-6.1,1.8-11.92,4.54-18.01,6.39-12.23,3.72-23.61,9.59-35.66,13.74-.79,.27-1.45,.67-1.49,1.61-.05,1.06,.69,1.53,1.51,1.92,1.81,.86,3.78,1.41,5.56,2.27,11.71,5.67,24.21,8.95,36.65,12.43,13.44,3.75,26.97,6.27,41.08,5.16,10.62-.84,20.92-2.85,31.04-6.04,6.25-1.96,12.42-4.13,18.4-6.83,2.02-.92,3.05-.57,3.24,1.89,.19,2.51,.6,5.04,1.23,7.48,2.18,8.51,3.65,17.08,2.82,24.69,0,5.16,.17,9.11-.04,13.03-.26,4.95-1.89,9.29-5.88,12.68-2.24,1.9-4.48,3.88-6.31,6.25-3.83,4.96-8.67,7.16-15.1,6.08-9.73-1.64-19.53-2.93-28.81-6.52-7.43-2.87-15.19-3.99-23.07-4.06-7.28-.06-14.4,1.25-21.23,3.89-1.02,.39-1.9,1.04-2.37-.65-2.8-10.07-8.83-18.57-13.45-27.76-1.27-2.51-2.69-4.91-4.61-6.98-4.87-5.25-9.59-10.61-14.88-15.48-5.61-5.17-11.49-9.97-17.75-14.29-8.45-5.83-17.49-10.47-27.12-14.14-10.03-3.82-19.87-8.22-30.03-11.69-15.13-5.16-28.82-12.9-41.65-22.29-.82-.61-1.54-1.73-2.7-1.01-1.07,.66-.68,1.91-.6,2.9,.23,2.77,2,4.99,2.79,7.57,4.71,15.46,9.17,31,14.59,46.24,2.42,6.82,4.27,13.98,7.65,20.31,8.07,15.16,18.66,28.39,32.21,39.23,11.66,9.33,24.99,15.36,38.89,20.15,7.8,2.69,15.94,4.55,24.29,5.07,4.13,.25,4.24,.55,2.01,4.13-2.19,3.54-3.76,7.32-4.4,11.43-1.33,8.45-2.1,17.03-3.93,25.37-3.47,15.76-10.12,30.3-18.75,43.9-4.16,6.55-7.13,13.1-4.64,21.15,1.18,3.81,1.54,7.87,2.25,11.82,1.55,8.7,2.47,17.49,2.91,26.28,.31,6.14,1.96,12.3,.31,18.48-.23,.87,.07,1.72,.54,2.5,1.79,2.98,3.92,5.71,7.18,7.07,4.74,1.99,9.51,3.96,14.52,5.25,2.07,.53,4.12,.34,6.23,.18,3.41-.24,6.71-1.11,10.11-1.37,1.73-.13,2.88,.41,3.86,2,1.95,3.2,3.8,6.48,6.4,9.25,.82,.89,1.44,1.95,1.96,3.08,2.08,4.44,5.82,6.89,10.52,7.11,7.59,.36,15.21,.18,22.82,.21,.96,.01,1.94,.02,2.76-.63,3.24-2.61,4.96-6.12,4.26-10.12-.7-3.94-2.72-7.36-6.92-8.85-3.24-1.16-6.67-1.33-10.01-2.02-2.25-.47-4.1-1.49-5.32-3.48-2.97-4.84-5.87-9.68-7.69-15.14-1.8-5.39-2.64-10.54-.36-16.07,2.15-5.25,3.71-10.73,5.5-16.12,1.04-3.14,2.53-5.84,5.54-7.63,8.67-5.18,16.14-11.87,23.53-18.7,9.65-8.91,18.06-18.73,23.96-30.55,.71-1.43,1.77-2.3,3.34-2.68,3.14-.77,6.24-1.67,9.38-2.41,5.23-1.25,7.12-.1,8.39,5,1.49,6,3.33,11.91,3.55,18.19,.26,7.35,.55,14.7-.84,21.95-1.09,5.73-.7,11.02,2.5,16.1,2.15,3.4,4.58,6.62,6.61,10.08,5.96,10.19,13.07,19.61,19.67,29.37,.83,1.23,1.95,2.22,3.52,2.59,4.24,1,8.56,1.55,12.88,2.07,1.52,.18,2.35,.7,2.87,2.15,1.25,3.54,2.72,7,3.95,10.55,.73,2.08,2.11,3.22,4.07,4.1,3.74,1.69,7.8,1.93,11.68,2.92,5.38,1.39,10.89,1.5,16.41,1.38,1.65-.04,3.17-.5,3.84-2.22,2.01-5.18-.37-11.65-5.25-14.32-1.15-.62-2.36-1.16-3.5-1.79-1.56-.86-2.96-1.96-3.58-3.69-1.02-2.88-2.22-5.69-2.81-8.72-1.48-7.5-1.65-15.11-1.86-22.69-.28-10.13,.29-20.21,3.13-30.06,4.27-14.77,9.71-29.15,14.59-43.71,4.78-14.25,6.37-28.47,3.51-43.33-2.42-12.52-3.85-25.23-4.03-38.01-.1-7.43-.45-14.87,.49-22.27,.42-3.28,1.67-5.78,5.1-6.89,7.82-2.52,14.02-7.75,20.38-12.65,3.69-2.84,6.48-6.65,9.92-9.69,5.17-4.56,9.09-9.82,11.82-16.08,1.83-4.2,.8-10.98-2.61-13.89ZM241.94,52.09c-.12,.51-.15,1.1-.81,1.18-.73,.09-1.03-.54-1.41-1-6.88-8.47-13.66-17.01-19.74-26.09-4.65-6.96-9.68-13.69-13.23-21.34-.21-.46-.68-.82-.35-1.73,2.52,1,5.08,1.94,7.58,3.01,6.18,2.66,12.56,4.73,18.96,6.79,12.24,3.93,24.19,8.57,35.1,15.5,.37,.23,.79,.42,.73,1.46-2.56-.21-4.96,.76-7.36,1.67-9.75,3.72-16.84,10.04-19.47,20.55Zm14.77,14.9c-.03,.52,.03,1.17-.61,1.26-.33,.05-.79-.3-1.09-.57-2.76-2.53-5.58-5.01-8.22-7.66-3.98-4.01-4.22-6.14-2.05-11.4,2.92-7.05,8.35-11.47,14.99-14.64,3.5-1.67,7.23-2.52,11.4-2.75,.71-.07,1.59,.2,2.4,.8,3.85,2.86,7.71,5.71,11.57,8.56,.41,.3,.96,.62,.8,1.21-.2,.68-.85,.37-1.34,.41-10.55,.84-27.05,9.02-27.85,24.78Zm10.84,10.99c-2.82-2.32-5.38-4.96-8.05-7.46-1-.94-1.01-2.17-.99-3,.58-8.83,5.11-14.56,12.08-18.9,5.11-3.17,10.64-4.22,16.46-4.5,1.91-.1,3.08,1.17,4.13,2.43,4,4.75,7.6,9.79,11,14.98,5.78,8.83,9.66,18.54,13.27,28.39,1.25,3.43,3.27,6.55,4.32,10.1,.41,1.39,.73,1.95-1.34,1.69-4.12-.5-8.3-.88-12.46-.04-1.35,.27-2.62,.06-3.76-.68-11.62-7.58-23.89-14.17-34.66-23.01Zm-83.89,94.41c-.44,.66-1.3,.24-1.96,.13-9.14-1.51-18.08-3.91-26.98-6.4-7.73-2.16-15.56-4-23.02-7.05-3.79-1.56-7.59-3.11-11.39-4.66-.46-.2-1.14-.32-.94-1.01,.09-.33,.56-.66,.92-.79,10.18-3.66,19.73-8.84,30.16-11.91,6.59-1.93,12.94-4.64,19.43-6.92,2.29-.8,4.66-1.34,7.39-2.11-4.68,12.48-2.44,23.91,3.06,35.01,.69,1.4,1.67,2.66,2.53,3.97,.36,.55,1.28,1,.8,1.74Zm23.26-.68c-.1,.23-.56,.48-.83,.46-3.54-.28-6.92,.96-10.67,1.05-1.91-.28-4.08-.39-6.25-.04-1.33,.21-2.34-.39-3.19-1.41-5.54-6.64-8.9-14.18-9.23-22.88-.14-3.84-.35-7.69,.31-11.52,.86-4.92,3.08-7.06,8.02-7.85,4.13-.65,8.24-1.46,12.37-2.19,.63-.11,1.37-.76,1.89,.06,.44,.69-.09,1.34-.44,1.93-2.57,4.32-3.96,8.96-3.61,14,.58,8.46,2.23,16.63,7.32,23.7,1.02,1.42,2.15,2.77,3.69,3.69,.38,.22,.81,.51,.62,1ZM28.92,191.97c-6.07-11.99-9.64-24.87-13.81-37.54-3.73-11.35-7.45-22.71-11.19-34.05-.2-.59-.58-1.19-.02-1.69,.69-.6,1.28-.09,1.86,.33,7.94,5.78,16.47,10.55,25.34,14.74,6.4,3.02,13.16,5.16,19.76,7.7,5.7,2.2,11.42,4.35,17.05,6.74,4.89,2.07,6.47,6.62,7.53,11.3,1.97,8.79,1.68,17.41-2.93,25.42-5.09,8.83-12.52,14.38-22.86,15.6-1.82,.21-3.63,.47-5.71,.74-6.42-.56-11.81-2.93-15.02-9.29Zm22,28.38c-5.99-5.63-11.5-11.73-16.22-18.5-.24-.34-.4-.73-.59-1.09,.13-.19,.26-.39,.39-.58,3.5,2.06,7.21,2.85,11.26,2.76,19.27-.44,32.07-16.69,32.32-32.46,.1-6.37-.49-12.55-3.85-18.17-.27-.46-.56-.97-.16-1.44,.46-.53,.96-.08,1.42,.1,7.51,2.93,14.67,6.56,21.54,10.74,4.67,2.84,6.26,7.86,7.11,12.61,1.57,8.85,1.96,17.85-1.23,26.6-3.48,9.56-8.46,17.81-18.2,22.27-3.32,1.52-6.94,1.56-10.41,2.36-5.08,1.17-10.18,.93-15.26-.6-3.12-.94-5.87-2.48-8.12-4.6Zm232.91,201.1c-3.91-.32-7.82-.72-11.6-1.85-.87-.27-1.48-.92-1.98-1.66-6.54-9.6-13.44-18.96-19.23-29.06-2.52-4.39-5.71-8.34-7.91-12.96-1.63-3.41-1.74-6.73-.99-10.19,1.12-5.23,2.17-10.45,1.7-14.99,.17-11.4-2.11-21.5-5.58-31.37-.71-2.04-.47-2.41,1.81-2.4,9.47,.07,18.49,2.28,27.39,5.24,2.4,.8,3.62,2.7,4.12,5,.88,4.1,1.69,8.22,2.35,12.36,.58,3.63-.33,7.19-1.5,10.55-1.7,4.87-3.28,9.75-4.34,14.8-.18,.89-.08,1.72,.01,2.59,1.08,10.98,4.98,21.02,10.27,30.57,2.76,4.97,3.46,10.61,5.58,15.78,.66,1.61,1.1,3.32,1.72,4.95,.69,1.82,.11,2.8-1.82,2.64Zm-9.74-67.39c.4-1.5,.83-2.99,1.48-4.48,3.25,14.26,3.57,28.74,3.12,43.34-2.4-5.58-4.2-11.38-6.14-17.14-2.56-7.62-.4-14.59,1.54-21.72Zm42.77-18.95c-.47,5.7-1.43,11.26-4.24,16.33-2.7,4.87-5.86,9.33-10.97,12-3.85,2-5.53,1.6-7.74-2.18-2.71-4.64-3.52-9.81-3.81-15.08-.1-1.83-.02-3.67-.02-5.51-.21-10.35,2.71-19.97,7.06-29.22,1.39-2.98,3.35-5.5,6.34-7.12,1.92-1.03,3.67-.91,5.38,.39,1.27,.97,2.26,2.14,3.07,3.53,4.85,8.37,5.71,17.46,4.93,26.86Zm56.01-167.63c-1.23,4.21-3.28,8.09-6.35,11.34-1.53,1.62-3.31,2.73-5.48,3.42-3.29,1.05-5.97,3.22-8.6,5.38-.45,.36-1.14,.87-.64,1.5,.52,.66,1.1,.02,1.58-.31,1.73-1.19,3.43-2.43,5.17-3.59,.53-.35,.99-1.07,2.11-.53-5.23,5.66-11.29,10.02-17.54,14.29-6.23,4.27-13.48,6.45-20.23,10.44,4.28-.98,3.02,1.11,2.88,3.39-.51,8.55-.94,17.1-.65,25.68,.35,10.49,1.53,20.9,3.04,31.27,.77,5.27,1.68,10.51,2.26,15.81,.77,7.14,.39,14.21-1.59,21.04-3.04,10.47-6.56,20.79-10.05,31.73-.62-1.58-.44-2.69-.29-3.72,1.07-7.35,.36-14.49-2.58-21.31-1.62-3.75-3.15-7.57-6.72-10.12-2.14-1.52-4.11-1.54-6.36-.47-3.62,1.72-5.85,4.73-7.43,8.19-4.72,10.38-7.73,21.19-7.12,32.71,.32,6.19,.87,12.4,4.06,17.98,.22,.38,.41,.78,.64,1.14,2.58,4.03,5.07,4.7,9.21,2.32,3.89-2.24,7.21-5.15,9.86-8.99-1.08,3.86-1.41,7.8-2.48,11.55-.81,2.82-1.11,5.68-1.28,8.52-.63,10.29-.41,20.6,.48,30.86,.43,5.05,2.22,9.86,3.42,14.77,.83,3.44,3.45,5.54,6.49,6.77,5.81,2.35,6.31,4.53,6.26,11.44-.01,1.61-.84,2.41-2.41,2.49-8.87,.47-17.43-.94-25.61-4.39-1.63-.69-3.08-1.75-3.7-3.53-3.29-9.5-6.53-19.01-9.84-28.5-2.21-6.35-1.78-12.94-1.72-19.47,.14-13.69-1.57-27.11-4.32-40.53-2.23-10.93-4.05-21.98-5.03-33.13-.32-3.74,.75-7.49-.06-11.24-.19-.89-.03-1.91-1.04-2.46-.94,.7-.8,1.65-.76,2.47,.28,5.5-.38,11.02,.19,16.51,.19,1.88-.44,2.51-2.23,1.77-7.59-3.11-15.66-4.18-23.66-5.43-5.88-.92-11.65,.52-17.39,1.62-2.49,.47-4.97,.98-7.46,1.46-.56,.11-1.21,.6-1.7-.02-.47-.58,.06-1.14,.25-1.7,2.03-6.05,3.69-12.19,4.56-18.52,.1-.73,.54-1.85-.58-1.92-1.04-.07-.79,1.11-.92,1.84-2.16,12.08-6.19,23.41-13.19,33.61-5.86,8.54-12.43,16.48-20.14,23.35-4.29,3.82-8.79,7.47-13.63,10.65-3.42,2.24-6.76,4.64-10,7.14-2.37,1.84-3.38,4.66-4.32,7.38-2.58,7.51-5.65,14.87-7.09,22.74-.21,1.13-.54,2.27-.25,3.37,1.62,6.15,2.71,12.5,6.79,17.72,.97,1.23,1.94,2.52,2.6,3.93,2.36,4.96,6.7,6.33,11.64,6.57,6.25,.29,8.64,2.04,10.44,7.9,1.68,5.44-1.6,9.19-7.25,8.31-4.11-.64-8.19,.24-12.29,.32-3.3,.07-6.42-.75-9.49-1.73-3.17-1.03-5.62-3-7.37-5.95-6.37-10.75-12.86-21.42-19.26-32.15-2.1-3.53-2.03-7.32-.96-11.16,3.13-11.3,4.56-22.93,6.44-34.47,.51-3.18,2.76-5.43,4.43-7.92,8.57-12.75,12.9-27.03,15.54-41.95,1.13-6.36,2.06-12.75,3.03-19.13,.17-1.08,.73-2.19,.03-3.43-1.08,.33-1.04,1.29-1.2,2.07-1.15,5.37-2.36,10.74-3.38,16.13-.47,2.45-1.37,2.14-2.86,.89-3.72-3.08-7.08-6.51-10-10.35-.56-.75-1-1.62-2.61-2.45,1.27,2.94,2.69,4.94,4.27,6.82,2.7,3.22,5.65,6.2,8.93,8.85,1.12,.91,1.65,1.95,1.34,3.43-2.37,10.97-5.35,21.7-11.05,31.53-1.78,3.08-4.73,4.61-7.41,6.49-4.28,3.01-8.78,5.73-13.18,8.58-1.93,1.25-2.85,3.13-2.7,5.35,.51,7.24-.11,14.5,.79,21.73,.39,3.11,.35,6.29,.87,9.37,1.01,6.07,4.39,10.74,9.21,14.45,.61,.47,1.29,.97,1.67,1.61,1.81,3.08,3.52,6.23,5.29,9.33,.64,1.12,.74,1.53-.85,2.11-10.24,3.77-19.43-.24-28.63-3.76-4.09-1.57-6.22-4.51-6.3-9.45-.29-18.11-2.6-36.03-6.05-53.81-1.42-7.35-.65-13.9,4.26-20.43,5.92-7.86,9.5-17.26,13.5-26.3,5.63-12.75,7.49-26.3,8.88-39.98,.66-6.54,2.75-12.58,6.58-18.01,1.03-1.45,2.32-1.36,3.71-1.18,2.94,.39,5.87,.88,8.81,1.27,.86,.12,1.74,.1,2.61,.08,.45-.01,.89-.28,.95-.75,.09-.66-.43-.87-.97-.98-4.95-1.02-9.89-1.78-15-1.77-4.06,0-8.12-1.04-12.18-1.59-15.5-2.12-29.46-8.5-43.15-15.58-4.57-2.36-8.35-5.85-12.56-9.02,.49-.24,.67-.41,.77-.37,8.12,3.03,16.07,.8,23.99-.9,2.74-.59,5.01-2.47,7.27-4.1,6.98-5.02,10.75-12.21,13.51-20.11,3.24-9.27,2.97-18.69,1.65-28.22-.34-2.49-2.05-4.36-2.7-6.55,.5-.53,.82-.34,1.1-.13,15.04,11.4,27.96,24.5,37.08,41.43,5.05,9.36,8.39,19.15,11.9,29,1,2.8,2.11,5.57,3.72,8.09,.63,.98,1.22,2.08,2.97,2.51-1.78-3.96-3.49-7.55-4.74-11.32-2.12-6.38-2.14-6.28,4.44-7.98,12.51-3.24,24.81-2.84,37.1,1.31,9.61,3.24,19.54,5.35,29.54,6.96,5.73,.92,11.25,.3,15.89-4.08,3.16-2.99,6.67-5.6,9.77-8.7,4.07-4.09,5.1-9.29,5.79-14.56,1.74-13.34,.07-26.48-2.77-39.53-.49-2.23-.57-4.49-.78-6.75-.25-2.84,.82-4.39,3.47-5.28,5.95-2.01,11.53-5.08,17.81-6.14,.67-.11,1.56-.28,1.31-1.25-.25-.99-1.18-.92-1.96-.74-3.42,.79-6.71,1.97-9.97,3.25-10.48,4.1-20.92,8.33-31.45,12.33-6.62,2.51-13.47,4.29-20.42,5.71-3.91,.8-6.35-1.55-8.53-4.04-3.77-4.33-5.67-9.58-6.58-15.2-1.13-6.98-1.47-13.86,1.61-20.56,1.47-3.18,3.55-4.26,7.09-4.51,9.13-.66,18.17,.23,27.13,1.35,9.5,1.19,18.99,2.76,28.12,6.02,4.17,1.49,8.46,2.78,12.9,3.41,.58,.09,1.36,.39,1.51-.46,.15-.84-.67-.86-1.26-.95-5.3-.82-10.2-2.99-15.27-4.58-1.85-.58-1.76-1.42-.83-2.88,7.55-11.83,17.85-19.41,31.84-22.38,13.05-2.77,25.91-3.84,38.81,.17,5.95,1.85,11.73,4.32,16.63,8.17,4.69,3.69,7.28,9.07,9.72,14.44,1.78,3.92,2.56,8.16,4,12.2,1.77,4.97,4.35,9.47,8.73,12.48,5.24,3.6,5.74,8.44,4.16,13.84ZM125.57,409.8c-2.41-2.49-4.05-4.92-4.01-7.67,.12-9.2-1.93-18.25-1.58-27.44,.08-1.92,.3-3.83,.44-5.75,.06-.82,.33-1.58,.96-2.09,3.95-3.13,8.28-5.67,12.78-8.19-2.48,3.78-2.53,8.1-3.37,12.21-1.42,6.92-2.75,13.87-4.22,20.78-.46,2.22-1.31,4.35-1.84,6.55-.89,3.71-.51,7.39,.84,11.6Z"/>
      <path class="cls-4" d="M268.77,29.87c-2.56-.21-4.96,.76-7.36,1.67-9.75,3.72-16.84,10.04-19.47,20.55-.12,.51-.15,1.1-.81,1.18-.73,.09-1.03-.54-1.41-1-6.88-8.47-13.66-17.01-19.74-26.09-4.65-6.96-9.68-13.69-13.23-21.34-.21-.46-.68-.82-.35-1.73,2.52,1,5.08,1.94,7.58,3.01,6.18,2.66,12.56,4.73,18.96,6.79,12.24,3.93,24.19,8.57,35.1,15.5,.37,.23,.79,.42,.73,1.46Z"/>
      <path class="cls-1" d="M285.9,41.8c-.2,.68-.85,.37-1.34,.41-10.55,.84-27.05,9.02-27.85,24.78-.03,.52,.03,1.17-.61,1.26-.33,.05-.79-.3-1.09-.57-2.76-2.53-5.58-5.01-8.22-7.66-3.98-4.01-4.22-6.14-2.05-11.4,2.92-7.05,8.35-11.47,14.99-14.64,3.5-1.67,7.23-2.52,11.4-2.75,.71-.07,1.59,.2,2.4,.8,3.85,2.86,7.71,5.71,11.57,8.56,.41,.3,.96,.62,.8,1.21Z"/>
      <path class="cls-4" d="M318.43,101.71c-4.12-.5-8.3-.88-12.46-.04-1.35,.27-2.62,.06-3.76-.68-11.62-7.58-23.89-14.17-34.66-23.01-2.82-2.32-5.38-4.96-8.05-7.46-1-.94-1.01-2.17-.99-3,.58-8.83,5.11-14.56,12.08-18.9,5.11-3.17,10.64-4.22,16.46-4.5,1.91-.1,3.08,1.17,4.13,2.43,4,4.75,7.6,9.79,11,14.98,5.78,8.83,9.66,18.54,13.27,28.39,1.25,3.43,3.27,6.55,4.32,10.1,.41,1.39,.73,1.95-1.34,1.69Z"/>
      <path class="cls-1" d="M311.93,308.25c-.81-1.39-1.8-2.56-3.07-3.53-1.71-1.3-3.46-1.42-5.38-.39-2.99,1.62-4.95,4.14-6.34,7.12-4.35,9.25-7.27,18.87-7.06,29.22,0,1.84-.08,3.68,.02,5.51,.29,5.27,1.1,10.44,3.81,15.08,2.21,3.78,3.89,4.18,7.74,2.18,5.11-2.67,8.27-7.13,10.97-12,2.81-5.07,3.77-10.63,4.24-16.33,.78-9.4-.08-18.49-4.93-26.86Zm-7.41,41.56c-1.1,1.82-2.32,4.4-4.72,3.95-2.58-.49-2.5-3.42-2.53-5.5-.15-9.49,.82-18.82,4.87-27.58,.74-1.61,1.7-3.54,3.57-3.44,2.04,.1,2.65,2.27,3.24,4,.8,2.35,.86,4.81,1.01,7.78-.09,7.02-1.53,14.24-5.44,20.79Z"/>
      <path class="cls-5" d="M283.83,421.45c-3.91-.32-7.82-.72-11.6-1.85-.87-.27-1.48-.92-1.98-1.66-6.54-9.6-13.44-18.96-19.23-29.06-2.52-4.39-5.71-8.34-7.91-12.96-1.63-3.41-1.74-6.73-.99-10.19,1.12-5.23,2.17-10.45,1.7-14.99,.17-11.4-2.11-21.5-5.58-31.37-.71-2.04-.47-2.41,1.81-2.4,9.47,.07,18.49,2.28,27.39,5.24,2.4,.8,3.62,2.7,4.12,5,.88,4.1,1.69,8.22,2.35,12.36,.58,3.63-.33,7.19-1.5,10.55-1.7,4.87-3.28,9.75-4.34,14.8-.18,.89-.08,1.72,.01,2.59,1.08,10.98,4.98,21.02,10.27,30.57,2.76,4.97,3.46,10.61,5.58,15.78,.66,1.61,1.1,3.32,1.72,4.95,.69,1.82,.11,2.8-1.82,2.64Z"/>
      <path class="cls-4" d="M183.66,172.39c-.44,.66-1.3,.24-1.96,.13-9.14-1.51-18.08-3.91-26.98-6.4-7.73-2.16-15.56-4-23.02-7.05-3.79-1.56-7.59-3.11-11.39-4.66-.46-.2-1.14-.32-.94-1.01,.09-.33,.56-.66,.92-.79,10.18-3.66,19.73-8.84,30.16-11.91,6.59-1.93,12.94-4.64,19.43-6.92,2.29-.8,4.66-1.34,7.39-2.11-4.68,12.48-2.44,23.91,3.06,35.01,.69,1.4,1.67,2.66,2.53,3.97,.36,.55,1.28,1,.8,1.74Z"/>
      <path class="cls-1" d="M206.92,171.71c-.1,.23-.56,.48-.83,.46-3.54-.28-6.92,.96-10.67,1.05-1.91-.28-4.08-.39-6.25-.04-1.33,.21-2.34-.39-3.19-1.41-5.54-6.64-8.9-14.18-9.23-22.88-.14-3.84-.35-7.69,.31-11.52,.86-4.92,3.08-7.06,8.02-7.85,4.13-.65,8.24-1.46,12.37-2.19,.63-.11,1.37-.76,1.89,.06,.44,.69-.09,1.34-.44,1.93-2.57,4.32-3.96,8.96-3.61,14,.58,8.46,2.23,16.63,7.32,23.7,1.02,1.42,2.15,2.77,3.69,3.69,.38,.22,.81,.51,.62,1Z"/>
      <path class="cls-4" d="M368.71,153.64c-4.38-3.01-6.96-7.51-8.73-12.48-1.44-4.04-2.22-8.28-4-12.2-2.44-5.37-5.03-10.75-9.72-14.44-4.9-3.85-10.68-6.32-16.63-8.17-12.9-4.01-25.76-2.94-38.81-.17-13.99,2.97-24.29,10.55-31.84,22.38-.93,1.46-1.02,2.3,.83,2.88,5.07,1.59,9.97,3.76,15.27,4.58,.59,.09,1.41,.11,1.26,.95-.15,.85-.93,.55-1.51,.46-4.44-.63-8.73-1.92-12.9-3.41-9.13-3.26-18.62-4.83-28.12-6.02-8.96-1.12-18-2.01-27.13-1.35-3.54,.25-5.62,1.33-7.09,4.51-3.08,6.7-2.74,13.58-1.61,20.56,.91,5.62,2.81,10.87,6.58,15.2,2.18,2.49,4.62,4.84,8.53,4.04,6.95-1.42,13.8-3.2,20.42-5.71,10.53-4,20.97-8.23,31.45-12.33,3.26-1.28,6.55-2.46,9.97-3.25,.78-.18,1.71-.25,1.96,.74,.25,.97-.64,1.14-1.31,1.25-6.28,1.06-11.86,4.13-17.81,6.14-2.65,.89-3.72,2.44-3.47,5.28,.21,2.26,.29,4.52,.78,6.75,2.84,13.05,4.51,26.19,2.77,39.53-.69,5.27-1.72,10.47-5.79,14.56-3.1,3.1-6.61,5.71-9.77,8.7-4.64,4.38-10.16,5-15.89,4.08-10-1.61-19.93-3.72-29.54-6.96-12.29-4.15-24.59-4.55-37.1-1.31-6.58,1.7-6.56,1.6-4.44,7.98,1.25,3.77,2.96,7.36,4.74,11.32-1.75-.43-2.34-1.53-2.97-2.51-1.61-2.52-2.72-5.29-3.72-8.09-3.51-9.85-6.85-19.64-11.9-29-9.12-16.93-22.04-30.03-37.08-41.43-.28-.21-.6-.4-1.1,.13,.65,2.19,2.36,4.06,2.7,6.55,1.32,9.53,1.59,18.95-1.65,28.22-2.76,7.9-6.53,15.09-13.51,20.11-2.26,1.63-4.53,3.51-7.27,4.1-7.92,1.7-15.87,3.93-23.99,.9-.1-.04-.28,.13-.77,.37,4.21,3.17,7.99,6.66,12.56,9.02,13.69,7.08,27.65,13.46,43.15,15.58,4.06,.55,8.12,1.59,12.18,1.59,5.11-.01,10.05,.75,15,1.77,.54,.11,1.06,.32,.97,.98-.06,.47-.5,.74-.95,.75-.87,.02-1.75,.04-2.61-.08-2.94-.39-5.87-.88-8.81-1.27-1.39-.18-2.68-.27-3.71,1.18-3.83,5.43-5.92,11.47-6.58,18.01-1.39,13.68-3.25,27.23-8.88,39.98-4,9.04-7.58,18.44-13.5,26.3-4.91,6.53-5.68,13.08-4.26,20.43,3.45,17.78,5.76,35.7,6.05,53.81,.08,4.94,2.21,7.88,6.3,9.45,9.2,3.52,18.39,7.53,28.63,3.76,1.59-.58,1.49-.99,.85-2.11-1.77-3.1-3.48-6.25-5.29-9.33-.38-.64-1.06-1.14-1.67-1.61-4.82-3.71-8.2-8.38-9.21-14.45-.52-3.08-.48-6.26-.87-9.37-.9-7.23-.28-14.49-.79-21.73-.15-2.22,.77-4.1,2.7-5.35,4.4-2.85,8.9-5.57,13.18-8.58,2.68-1.88,5.63-3.41,7.41-6.49,5.7-9.83,8.68-20.56,11.05-31.53,.31-1.48-.22-2.52-1.34-3.43-3.28-2.65-6.23-5.63-8.93-8.85-1.58-1.88-3-3.88-4.27-6.82,1.61,.83,2.05,1.7,2.61,2.45,2.92,3.84,6.28,7.27,10,10.35,1.49,1.25,2.39,1.56,2.86-.89,1.02-5.39,2.23-10.76,3.38-16.13,.16-.78,.12-1.74,1.2-2.07,.7,1.24,.14,2.35-.03,3.43-.97,6.38-1.9,12.77-3.03,19.13-2.64,14.92-6.97,29.2-15.54,41.95-1.67,2.49-3.92,4.74-4.43,7.92-1.88,11.54-3.31,23.17-6.44,34.47-1.07,3.84-1.14,7.63,.96,11.16,6.4,10.73,12.89,21.4,19.26,32.15,1.75,2.95,4.2,4.92,7.37,5.95,3.07,.98,6.19,1.8,9.49,1.73,4.1-.08,8.18-.96,12.29-.32,5.65,.88,8.93-2.87,7.25-8.31-1.8-5.86-4.19-7.61-10.44-7.9-4.94-.24-9.28-1.61-11.64-6.57-.66-1.41-1.63-2.7-2.6-3.93-4.08-5.22-5.17-11.57-6.79-17.72-.29-1.1,.04-2.24,.25-3.37,1.44-7.87,4.51-15.23,7.09-22.74,.94-2.72,1.95-5.54,4.32-7.38,3.24-2.5,6.58-4.9,10-7.14,4.84-3.18,9.34-6.83,13.63-10.65,7.71-6.87,14.28-14.81,20.14-23.35,7-10.2,11.03-21.53,13.19-33.61,.13-.73-.12-1.91,.92-1.84,1.12,.07,.68,1.19,.58,1.92-.87,6.33-2.53,12.47-4.56,18.52-.19,.56-.72,1.12-.25,1.7,.49,.62,1.14,.13,1.7,.02,2.49-.48,4.97-.99,7.46-1.46,5.74-1.1,11.51-2.54,17.39-1.62,8,1.25,16.07,2.32,23.66,5.43,1.79,.74,2.42,.11,2.23-1.77-.57-5.49,.09-11.01-.19-16.51-.04-.82-.18-1.77,.76-2.47,1.01,.55,.85,1.57,1.04,2.46,.81,3.75-.26,7.5,.06,11.24,.98,11.15,2.8,22.2,5.03,33.13,2.75,13.42,4.46,26.84,4.32,40.53-.06,6.53-.49,13.12,1.72,19.47,3.31,9.49,6.55,19,9.84,28.5,.62,1.78,2.07,2.84,3.7,3.53,8.18,3.45,16.74,4.86,25.61,4.39,1.57-.08,2.4-.88,2.41-2.49,.05-6.91-.45-9.09-6.26-11.44-3.04-1.23-5.66-3.33-6.49-6.77-1.2-4.91-2.99-9.72-3.42-14.77-.89-10.26-1.11-20.57-.48-30.86,.17-2.84,.47-5.7,1.28-8.52,1.07-3.75,1.4-7.69,2.48-11.55-2.65,3.84-5.97,6.75-9.86,8.99-4.14,2.38-6.63,1.71-9.21-2.32-.23-.36-.42-.76-.64-1.14-3.19-5.58-3.74-11.79-4.06-17.98-.61-11.52,2.4-22.33,7.12-32.71,1.58-3.46,3.81-6.47,7.43-8.19,2.25-1.07,4.22-1.05,6.36,.47,3.57,2.55,5.1,6.37,6.72,10.12,2.94,6.82,3.65,13.96,2.58,21.31-.15,1.03-.33,2.14,.29,3.72,3.49-10.94,7.01-21.26,10.05-31.73,1.98-6.83,2.36-13.9,1.59-21.04-.58-5.3-1.49-10.54-2.26-15.81-1.51-10.37-2.69-20.78-3.04-31.27-.29-8.58,.14-17.13,.65-25.68,.14-2.28,1.4-4.37-2.88-3.39,6.75-3.99,14-6.17,20.23-10.44,6.25-4.27,12.31-8.63,17.54-14.29-1.12-.54-1.58,.18-2.11,.53-1.74,1.16-3.44,2.4-5.17,3.59-.48,.33-1.06,.97-1.58,.31-.5-.63,.19-1.14,.64-1.5,2.63-2.16,5.31-4.33,8.6-5.38,2.17-.69,3.95-1.8,5.48-3.42,3.07-3.25,5.12-7.13,6.35-11.34,1.58-5.4,1.08-10.24-4.16-13.84Zm-180.68,199.33c-4.69,3.75-9.52,7-15.82,7.48-7.55,.59-10.56-1.98-10.52-11.28,1.47-8.61,3.6-18.82,8.03-28.44,3.17-6.88,7.15-13.19,12.75-18.38,1.96-1.81,4.17-3.15,6.76-3.86,4.07-1.12,8.14,.51,9.94,4.3,8.61,18.15,3.57,38.4-11.14,50.18Zm150.58-185.43c-4.77,6.69-10.92,11.28-18.97,13-8,1.7-13.44-2.87-18.46-8.13-2.79-2.92-3.57-6.93-5.54-10.31-.55-.95,.52-1.33,1.15-1.72,4.96-3.13,10.52-4.08,16.24-4.39,1.05-.06,2.1-.01,3.15-.01,8.14-.4,15.25,2.18,21.64,7.15,1.76,1.37,2.26,2.35,.79,4.41Zm7.58-19.07c-9.23-1.66-17.76-4.92-24.75-11.46-4.59-4.29-8.32-9.18-9.82-15.46-1.82-7.55,3.37-12.66,11.12-12.21,15.42,.9,28.74,15.72,32.24,29.43,1.21,4.76-3.23,10.5-8.79,9.7Z"/>
      <path class="cls-1" d="M102.91,200.92c-3.48,9.56-8.46,17.81-18.2,22.27-3.32,1.52-6.94,1.56-10.41,2.36-5.08,1.17-10.18,.93-15.26-.6-3.12-.94-5.87-2.48-8.12-4.6-5.99-5.63-11.5-11.73-16.22-18.5-.24-.34-.4-.73-.59-1.09,.13-.19,.26-.39,.39-.58,3.5,2.06,7.21,2.85,11.26,2.76,19.27-.44,32.07-16.69,32.32-32.46,.1-6.37-.49-12.55-3.85-18.17-.27-.46-.56-.97-.16-1.44,.46-.53,.96-.08,1.42,.1,7.51,2.93,14.67,6.56,21.54,10.74,4.67,2.84,6.26,7.86,7.11,12.61,1.57,8.85,1.96,17.85-1.23,26.6Z"/>
      <path class="cls-4" d="M72.51,184.92c-5.09,8.83-12.52,14.38-22.86,15.6-1.82,.21-3.63,.47-5.71,.74-6.42-.56-11.81-2.93-15.02-9.29-6.07-11.99-9.64-24.87-13.81-37.54-3.73-11.35-7.45-22.71-11.19-34.05-.2-.59-.58-1.19-.02-1.69,.69-.6,1.28-.09,1.86,.33,7.94,5.78,16.47,10.55,25.34,14.74,6.4,3.02,13.16,5.16,19.76,7.7,5.7,2.2,11.42,4.35,17.05,6.74,4.89,2.07,6.47,6.62,7.53,11.3,1.97,8.79,1.68,17.41-2.93,25.42Z"/>
      <path d="M337.82,163.13c-6.39-4.97-13.5-7.55-21.64-7.15-1.05,0-2.1-.05-3.15,.01-5.72,.31-11.28,1.26-16.24,4.39-.63,.39-1.7,.77-1.15,1.72,1.97,3.38,2.75,7.39,5.54,10.31,5.02,5.26,10.46,9.83,18.46,8.13,8.05-1.72,14.2-6.31,18.97-13,1.47-2.06,.97-3.04-.79-4.41Zm-1.4,4.79c-5.45,7.45-12.85,11.52-21.98,10.94-5.97-.38-10.06-4.8-13.45-9.55-.15-.21-.26-.45-.39-.68-3.8-6.81-2.85-8.69,4.97-9.87,.94-.15,1.93-.21,2.82-.53,1.59-.57,2.84-.83,3.29,1.4,.21,1.01,1.38,1.24,2.19,1.73,3.16,1.95,3.34,3.8,.55,6.1-.65,.54-.94,1.1-.39,1.76,1.64,2.02,2.75,4.48,5.1,5.89,2.49,1.49,4.38,.89,5.34-1.84,1.78-5.1-.24-9.37-2.99-13.47-.37-.55-1.16-.83-1.08-1.84,1.77-.44,3.36,.5,4.98,.84,3.69,.78,7.07,2.39,10.21,4.51,1.88,1.27,2.21,2.73,.83,4.61Z"/>
      <path class="cls-3" d="M336.42,167.92c-5.45,7.45-12.85,11.52-21.98,10.94-5.97-.38-10.06-4.8-13.45-9.55-.15-.21-.26-.45-.39-.68-3.8-6.81-2.85-8.69,4.97-9.87,.94-.15,1.93-.21,2.82-.53,1.59-.57,2.84-.83,3.29,1.4,.21,1.01,1.38,1.24,2.19,1.73,3.16,1.95,3.34,3.8,.55,6.1-.65,.54-.94,1.1-.39,1.76,1.64,2.02,2.75,4.48,5.1,5.89,2.49,1.49,4.38,.89,5.34-1.84,1.78-5.1-.24-9.37-2.99-13.47-.37-.55-1.16-.83-1.08-1.84,1.77-.44,3.36,.5,4.98,.84,3.69,.78,7.07,2.39,10.21,4.51,1.88,1.27,2.21,2.73,.83,4.61Z"/>
      <path d="M199.17,302.79c-1.8-3.79-5.87-5.42-9.94-4.3-2.59,.71-4.8,2.05-6.76,3.86-5.6,5.19-9.58,11.5-12.75,18.38-4.43,9.62-6.56,19.83-8.03,28.44-.04,9.3,2.97,11.87,10.52,11.28,6.3-.48,11.13-3.73,15.82-7.48,14.71-11.78,19.75-32.03,11.14-50.18Zm-21.93,54.52c-3.01,1.22-6.17,1.17-9.27,1.45-1.94,.17-4.12-2.36-4.29-4.61-.33-4.12,.07-8.18,1.05-12.21,1.5-6.19,2.74-12.44,5.42-18.3,3.69-8.08,7.72-15.89,15.03-21.42,1.41-1.07,2.95-1.88,4.71-2.19,4.78-.82,7.73,1.07,9.33,6.62,1.36,4.76,2.99,9.54,2.39,14.14,.57,15.54-10.09,30.67-24.37,36.52Z"/>
      <path class="cls-1" d="M199.22,306.65c-1.6-5.55-4.55-7.44-9.33-6.62-1.76,.31-3.3,1.12-4.71,2.19-7.31,5.53-11.34,13.34-15.03,21.42-2.68,5.86-3.92,12.11-5.42,18.3-.98,4.03-1.38,8.09-1.05,12.21,.17,2.25,2.35,4.78,4.29,4.61,3.1-.28,6.26-.23,9.27-1.45,14.28-5.85,24.94-20.98,24.37-36.52,.6-4.6-1.03-9.38-2.39-14.14Zm-16.7,39.7c-1.7,1.67-3.81,2.41-6.11,2.67-2.54,.28-3.45-.56-2.98-3.14,1.63-8.92,4.77-17.26,9.69-24.92,1.38-2.15,2.92-4.14,4.9-5.74,2.22-1.79,3.8-1.21,4.58,1.57,.44,1.54,.42,3.11,.52,4.73-.82,9.41-3.64,17.99-10.6,24.83Z"/>
      <path d="M354.98,138.77c-3.5-13.71-16.82-28.53-32.24-29.43-7.75-.45-12.94,4.66-11.12,12.21,1.5,6.28,5.23,11.17,9.82,15.46,6.99,6.54,15.52,9.8,24.75,11.46,5.56,.8,10-4.94,8.79-9.7Zm-9.43,8.12c-6.7-.86-13.82-3.59-20.03-8.36-4.38-3.36-8.21-7.3-10.76-12.34-.96-1.9-1.7-3.85-2.06-5.91-.99-5.7,2.4-9.39,8.64-9.29,7.91,.12,14.55,3.46,20.25,8.67,5.72,5.24,9.82,11.56,11.57,19.22,1.12,4.91-1.47,8.05-7.61,8.01Z"/>
      <path class="cls-1" d="M353.16,138.88c-1.75-7.66-5.85-13.98-11.57-19.22-5.7-5.21-12.34-8.55-20.25-8.67-6.24-.1-9.63,3.59-8.64,9.29,.36,2.06,1.1,4.01,2.06,5.91,2.55,5.04,6.38,8.98,10.76,12.34,6.21,4.77,13.33,7.5,20.03,8.36,6.14,.04,8.73-3.1,7.61-8.01Zm-8.28-.46c-1.18,1.32-2.65,.7-4.11,.2-7-2.43-12.28-7.1-16.79-12.77-.69-.88-1.21-1.93-1.64-2.96-1.3-3.12,.69-5.85,5-5.62,4.35,.74,8.33,3.89,11.94,7.42,2.68,2.63,4.45,6.02,5.86,9.51,.58,1.43,.84,3-.26,4.22Z"/>
      <path d="M308.95,321.24c-.59-1.73-1.2-3.9-3.24-4-1.87-.1-2.83,1.83-3.57,3.44-4.05,8.76-5.02,18.09-4.87,27.58,.03,2.08-.05,5.01,2.53,5.5,2.4,.45,3.62-2.13,4.72-3.95,3.91-6.55,5.35-13.77,5.44-20.79-.15-2.97-.21-5.43-1.01-7.78Zm-6.74,29.1c-.47,.69-.98,1.67-1.97,1.47-1.03-.2-1.06-1.32-1.14-2.14-.18-1.73-.19-3.48-.26-4.92,.23-6.79,1.4-13.13,3.03-19.38,.39-1.52,1-2.98,1.87-4.31,.52-.79,.93-1.85,2.13-1.57,1.06,.25,1.45,1.3,1.58,2.23,1.39,10.1,.77,19.86-5.24,28.62Z"/>
      <path class="cls-4" d="M302.21,350.34c-.47,.69-.98,1.67-1.97,1.47-1.03-.2-1.06-1.32-1.14-2.14-.18-1.73-.19-3.48-.26-4.92,.23-6.79,1.4-13.13,3.03-19.38,.39-1.52,1-2.98,1.87-4.31,.52-.79,.93-1.85,2.13-1.57,1.06,.25,1.45,1.3,1.58,2.23,1.39,10.1,.77,19.86-5.24,28.62Z"/>
      <path d="M192.6,316.79c-.78-2.78-2.36-3.36-4.58-1.57-1.98,1.6-3.52,3.59-4.9,5.74-4.92,7.66-8.06,16-9.69,24.92-.47,2.58,.44,3.42,2.98,3.14,2.3-.26,4.41-1,6.11-2.67,6.96-6.84,9.78-15.42,10.6-24.83-.1-1.62-.08-3.19-.52-4.73Zm-1.44,4.41c.06,.34,.01,.7,.01,1.05-.6,8.6-3.19,16.37-9.64,22.42-1.55,1.44-3.64,3.52-5.64,2.26-1.7-1.07-.11-3.52,.3-5.29,1.86-7.98,4.91-15.45,9.87-22.03,1.07-1.42,2.15-3.7,4.07-3.09,1.99,.63,.72,3.07,1.03,4.68Z"/>
      <path class="cls-4" d="M191.16,321.2c.06,.34,.01,.7,.01,1.05-.6,8.6-3.19,16.37-9.64,22.42-1.55,1.44-3.64,3.52-5.64,2.26-1.7-1.07-.11-3.52,.3-5.29,1.86-7.98,4.91-15.45,9.87-22.03,1.07-1.42,2.15-3.7,4.07-3.09,1.99,.63,.72,3.07,1.03,4.68Z"/>
      <path d="M345.14,134.2c-1.41-3.49-3.18-6.88-5.86-9.51-3.61-3.53-7.59-6.68-11.94-7.42-4.31-.23-6.3,2.5-5,5.62,.43,1.03,.95,2.08,1.64,2.96,4.51,5.67,9.79,10.34,16.79,12.77,1.46,.5,2.93,1.12,4.11-.2,1.1-1.22,.84-2.79,.26-4.22Zm-4.27,3.13c-3.36-.9-6.24-2.75-8.86-4.96-3.09-2.59-5.98-5.39-7.94-8.99-.64-1.16-1.12-2.43-.07-3.66,.96-1.11,2.28-1.02,3.41-.65,7.78,2.54,13.16,7.7,16.25,15.26,.13,.31,.15,.68,.2,.94,.07,2.35-1.37,2.49-2.99,2.06Z"/>
      <path class="cls-4" d="M343.86,135.27c.07,2.35-1.37,2.49-2.99,2.06-3.36-.9-6.24-2.75-8.86-4.96-3.09-2.59-5.98-5.39-7.94-8.99-.64-1.16-1.12-2.43-.07-3.66,.96-1.11,2.28-1.02,3.41-.65,7.78,2.54,13.16,7.7,16.25,15.26,.13,.31,.15,.68,.2,.94Z"/>
      <ellipse class="cls-2" cx="312.52" cy="164.45" rx="5.24" ry="3.93"/>
    </g>
  </g>
</svg>