<?xml version="1.0" encoding="UTF-8"?>
<svg id="Layer_2" data-name="Layer 2" xmlns="http://www.w3.org/2000/svg" viewBox="0 0 218.75 239.77">
  <defs>
    <style>
      .cls-1 {
        fill: #e6e5c6;
      }

      .cls-2 {
        fill: #e3eaf3;
      }

      .cls-3 {
        fill: #fff;
      }

      .cls-4 {
        fill: #80b4c3;
      }

      .cls-5 {
        fill: #85667d;
      }

      .cls-6 {
        fill: #ceb1ca;
      }

      .cls-7 {
        fill: #3e6175;
      }

      .cls-8 {
        fill: #88c5dc;
      }

      .cls-9 {
        fill: #81b4c3;
      }

      .cls-10 {
        fill: #513e6f;
      }
    </style>
  </defs>
  <g id="Layer_1-2" data-name="Layer 1">
    <g>
      <path d="M217.83,166.98c-4.25-1.35-8.26-3.33-12.43-4.92-4.35-1.66-8.74-3.13-13.37-3.81-2.15-.32-4.25-.02-6.36,.16-3.2,.27-6.32,.98-9.23,2.33-2.46,1.15-4.89,2.42-7.08,4.04-1.47,1.09-3.2,1.85-4.41,3.23-1.18,1.34-2.6,2.38-3.82,3.63-.35,.36-.67,.41-1.16,.34-2.69-.42-5.41-.58-8.14-.52-1.55,.03-3.24,.53-4.53-.94-.26-.3-.74-.34-1.07,.03-.91,1.04-2.04,1.06-3.33,1.05-1.98,0-3.97,.3-5.95,.49-.99,.1-1.98,.28-2.74-.66-.12-.15-.42-.21-.64-.22-.69-.03-.64-.4-.45-.86,.38-.89,.83-1.75,1.12-2.66,1.18-3.79,1.43-7.65,.84-11.59-.64-4.23-1.8-8.36-2.3-12.63-.45-3.85-1.25-7.66-1.64-11.53-.06-.63,.09-1.06,.54-1.49,2.59-2.4,5.67-4.04,8.8-5.57,1.91-.94,4-1.2,6.08-1.44,.77-.09,1.27-.35,1.23-1.2-.06-1.62-.13-3.22,.23-4.83,1.12-4.94,3.49-8.87,8.49-10.73,.66-.25,.87-.66,.65-1.32-.6-1.76-1.01-3.53-1.15-5.43-.23-3.33,.21-6.41,2.14-9.21,.89-1.29,.86-1.28-.04-2.57-.83-1.2-1.69-2.41-1.98-3.88-.13-.65-.04-1.2,.91-.96,.57,.15,1.18,.19,1.77,.25,3.78,.38,7.38,1.36,10.78,3.05,.41,.21,.86,.77,1.34,.37,.5-.4,.17-1.05,.14-1.6-.01-.16-.09-.32-.14-.47-.45-1.18-.96-2.34-1.33-3.54-.49-1.58-1.19-3.12-1.35-4.77-.29-2.99-.38-5.97-.13-8.97,.33-3.85,.77-7.68,2-11.36,1.08-3.25,2.36-6.42,3.8-9.53,1.49-3.22,3.67-5.93,5.83-8.65,1.39-1.73,3.24-3.05,4.72-4.72,.37-.41,.79-.86,.67-1.38-.39-1.64,.02-3.25,.09-4.87,.16-4.3,1.49-8.34,3.07-12.31,.29-.72,.99-1.5,.38-2.19-.6-.68-1.5-.18-2.26,.02-2.23,.59-4.25,1.7-6.35,2.59-5.31,2.24-10.29,5.09-15.06,8.32-4.02,2.71-8.03,5.47-11.77,8.55-3.95,3.25-7.98,6.42-11.74,9.89-1.98,1.82-4.16,3.42-5.94,5.44-.87,.99-1.62,.86-2.08-.39-.32-.87-.61-1.75-.92-2.63-.55-1.58-.96-1.81-2.66-1.65-4.11,.41-7.62-.93-10.49-3.82-.72-.73-1.35-.97-2.26-.69-.22,.07-.46,.1-.67,.18-4.67,1.75-9.21,1.86-13.58-.89-.48-.31-1.02-.23-1.37,.36-.37,.64-.98,.98-1.66,1.2-.31,.1-.5,.08-.65-.34-1.72-5.17-3.48-10.33-5.23-15.49-1.21-3.55-2.48-7.08-3.76-10.61-1.56-4.34-3.01-8.73-5.5-12.66h-.4c-.49,.6-.54,1.3-.53,2.04,.03,1.6,.29,3.18,.51,4.76,.55,3.98,1.13,7.95,2.09,11.86,.89,3.64,1.75,7.28,2.62,10.93,.84,3.58,1.49,7.21,2.54,10.75,.16,.53-.08,.62-.48,.72-1.76,.44-3.45,.42-5.18-.26-1.67-.65-2.14-.31-3.08,1.2-1.51,2.44-3.53,4.36-6.15,5.65-1.36,.66-2.83,.94-4.22,1.49-.73,.28-1.06,.7-1.19,1.52-.35,2.18-1.08,4.22-2.53,5.97-1.27,1.54-2.92,2.51-4.66,3.36-.86,.42-1.16,.95-1.03,1.88,.13,.85,.14,1.73,.12,2.59,0,.87-.7,1.62-1.3,1.41-1.2-.43-2.46-.55-3.69-.85-2.03-.49-4.06-.97-6.1-1.41-1.97-.43-3.95-.79-5.97-1.01-2.63-.3-5.21-1.01-7.87-1.18-.66-.04-1.32,0-1.98-.13-3-.58-6.05-.76-9.08-1.06-2.24-.22-4.49-.17-6.74-.47-3.12-.42-6.28-.48-9.43-.55-1.15-.03-2.31,.2-3.27,.99-.45,.38-.44,.7,.02,1.03,.52,.37,1.05,.69,1.46,1.2,.89,1.08,1.79,2.15,2.7,3.21,2.72,3.16,5.22,6.47,6.9,10.33,.49,1.12,1.23,1.95,2.34,2.45,1.56,.71,3.21,1.27,4.7,2.13,4.2,2.43,8.17,5.13,11.54,8.75,3.13,3.38,6.13,6.81,8.64,10.67,2.28,3.5,4.25,7.13,4.89,11.34,.13,.86,.27,1.71,.45,2.56,.27,1.19,.85,1.18,1.95,.62,.25-.13,.42-.43,.62-.65,1.47-1.54,3.16-2.85,4.55-4.47,.34-.39,.55-.26,.66,.18,.29,1.16,.75,2.28,.49,3.52-.15,.71-.16,1.45-.21,2.18-.06,.75,.25,1.11,1.05,1.07,.72-.04,1.43-.15,2.17,.03,4.21,1.03,7.12,3.82,9.71,7.04,.5,.61,.31,1.08-.42,1.38-.9,.36-1.86,.5-2.8,.67-1.55,.27-1.94,.68-2.18,2.22-.18,1.14-.25,2.3-.69,3.4-.81,2.05-2.45,3.15-4.4,3.91-1.31,.51-1.89,1.54-1.95,2.93-.05,1.21-.05,2.47-.81,3.53-1.87,2.64-4.16,3.3-7.12,2.03-1.68-.71-2.3-.53-3.48,.8-.97,1.09-1.84,2.37-3.17,2.98-2.16,.99-4.43,1.34-6.77,.41-1.44-.59-1.74-.44-2.62,.87-.54,.8-1.07,1.61-1.65,2.38-1.5,2.01-4.42,3.04-6.83,2.43-.9-.24-1.66-.8-2.59-1.03-.95-.24-1.45,.02-1.77,.89-.52,1.41-1.27,2.71-1.91,4.06-.97,2.08-2.47,3.41-4.71,3.92-.86,.2-1.62,.47-2.59,.25-1.72-.4-2.54,.37-2.67,2.11-.12,1.45,.01,2.92-.31,4.36-.46,2.06-1.48,3.61-3.43,4.6-1.32,.67-2.77,1.13-3.92,2.13-.49,.41-.8,.86-.56,1.46,.66,1.64,.85,3.41,1.49,5.05,.6,1.53,.3,2.91-.72,4.19-.82,1.02-1.77,1.89-2.77,2.73-1.27,1.06-1.28,1.08-.37,2.5,.8,1.27,1.44,2.61,1.79,4.09,.34,1.5,.66,3.04,.27,4.54-.41,1.56,.24,3.02,.05,4.6-.41,3.48-.48,7.02-.07,10.55,.4,3.38,1.69,6.33,3.8,8.94,3.64,4.52,8.26,7.83,13.29,10.63,1.87,1.04,3.83,1.82,5.82,2.59,3.15,1.2,6.37,2.06,9.74,2.37,1.58,.15,3.16,.35,4.75,.52,2.11,.24,4.24,.54,6.33,.31,1.95-.22,3.9-.38,5.84-.6,3.88-.43,7.7-1.03,11.4-2.29,2.55-.86,5.17-1.55,7.63-2.61,4.38-1.87,8.47-4.32,12.36-7.04,3.12-2.19,6.24-4.4,9.18-6.86,1.11-.93,1.14-.94,1.47,.48,.51,2.21,1.32,4.31,2.1,6.43,1.18,3.25,2.5,6.41,4.7,9.17,1.52,1.9,3.44,2.6,5.75,2.73,1.13,.06,2.07-.43,3.07-.72,1.61-.48,2.98-1.33,3.87-2.79,.26-.44,.48-.57,.93-.34,.88,.46,1.82,.53,2.78,.4,.76-.1,1.53-.14,2.28-.3,1.93-.41,3.63-1.19,4.22-3.3,.39-1.37,.34-2.74-.12-4.12-1.55-4.64-1.89-9.34-.81-14.15,.62-2.75,.77-5.59,1.6-8.3,.77-2.52,1.45-5.06,1.75-7.66,.28-2.37,1.45-3.92,3.54-4.88,.66-.31,1.31-.64,1.98-.93,2.3-.96,4.61-1.89,6.9-2.88,4.83-2.07,9.73-3.88,15.08-4.06,.8-.03,1.18,.03,1.17,1-.04,3.75-.13,7.51,.49,11.24,.47,2.8,1.01,5.55,2.17,8.16,1.12,2.54,2.51,4.91,4.25,7.06,2.12,2.62,4.43,5.05,7.29,6.88,2.29,1.46,4.61,2.88,6.9,4.35,2.32,1.49,4.57,3.09,6.96,4.47,4.7,2.71,9.19,5.7,12.61,10.04,.22,.28,.58,.55,.94,.48,.41-.08,.4-.54,.49-.9,.47-1.94,.62-3.91,.71-5.91,.25-5.31,.19-10.57-1.06-15.77-.63-2.62-1.05-5.3-1.9-7.85-1.85-5.63-4.69-10.77-8.27-15.49-.77-1-1.65-1.91-2.47-2.88-.18-.21-.5-.41-.3-.76,.16-.28,.44-.39,.77-.37,.23,0,.46,.02,.7,.02,2.45,0,4.88-.02,7.32-.6,3.67-.88,7.06-2.38,10.13-4.49,2.4-1.65,4.62-3.59,6.64-5.7,2.04-2.13,3.9-4.44,5.83-6.67,.82-.96,1.72-1.84,2.7-2.62,.37-.29,.82-.42,.77-1.02-.04-.6-.55-.64-.92-.76Zm-62.11,5.6c-1.45,1.49-4.31,1.67-6-.17,2.07-.56,4.03-.29,6,.17Zm-12.32-.12c-1.72,1.85-4.85,2.16-6.7,.6,2.3-.16,4.38-.72,6.7-.6Zm-10.86-24.36c.78,3.35,1.56,6.72,2.08,10.11,.32,2.06,.03,4.16-.43,6.24-.44,1.96-1.22,3.77-1.93,5.62-.52,1.33-1.11,2.63-3.03,2.59-1.3-.03-2.66,.22-3.91,.66-1.54,.54-2.78-.06-4.02-.83-1.15-.71-1.62-.61-2.4,.49-.55,.78-1.11,1.53-1.77,2.25-1.25,1.35-2.88,.87-4.28,1.26,1.97-2.83,3.63-5.81,4.75-9.07-.65,1.77-1.67,3.33-2.76,4.85-1,1.4-2.16,2.68-2.87,4.27-.16,.37-.47,.35-.75,.32-.43-.03-.31-.36-.26-.6,.65-3.38,.6-6.81,.81-10.23,.23-3.78,.09-7.57,.43-11.35,.08-.96-.14-1.95-.31-2.93,.16,2.89-.69,5.69-.63,8.56,.04,2.28-.18,4.57-.1,6.84,.08,2.41-.23,4.73-.8,7.05-.17,.7-.11,1.45-.1,2.18,0,.4-.13,.56-.52,.71-1.09,.41-2.13,.55-3.28,.12-1.57-.59-1.88-.44-2.59,1.13-.33,.75-.96,1-1.59,1.24-3.04,1.13-5.98,2.49-8.84,4-1.28,.67-2.53,.21-3.79,.31-.44,.03-.45-.55-.49-.87-.3-2.16-.53-4.33-.73-6.51-.18-1.88-.27-3.77-.38-5.65-.12-2.15-.08-4.31-.14-6.46-.05-2.09-.1-4.17-.39-6.23-.05-.32-.16-.62-.25-.93-.05,.02-.1,.03-.15,.04,.06,1.32,.19,2.64,.17,3.96-.04,2.78-.06,5.56,.07,8.34,.22,4.63,.19,9.28,1.32,13.83,.25,.99-1.02,3.59-1.94,4.04-2.17,1.06-4.34,2.12-6.51,3.17-.12,.06-.25,.11-.37,.15-1.59,.5-1.61,.49-1.52-1.13,.1-1.8-.53-3.45-1.01-5.14-.67-2.37-1.42-4.7-3.03-6.64-.18-.23-.33-.5-.72-.61,.04,.47,.28,.82,.51,1.15,1.78,2.57,2.33,5.61,3.26,8.51,.23,.72,.32,1.49,.54,2.22,.21,.73-.1,1.37-.32,2.01-.16,.47-.58,.49-1,.33-.72-.27-1.42-.56-2.15-.79-1.05-.33-1.45-.08-1.7,.96-.38,1.63-.78,1.93-2.47,2.19-1.54,.24-3.04,.65-4.57,.9-1.05,.17-2.11,.21-3.17,.3-3.14,.28-6.3,.18-9.45,.31-5.09,.21-10.06-.61-14.97-1.73-3.41-.78-6.84-1.62-10.03-3.12-.14-.07-.31-.05-.58-.08,.57,1.05,1.6,1.25,2.43,1.53,3.2,1.06,6.41,2.18,9.72,2.84,2.57,.52,5.21,.67,7.79,1.1,3.89,.64,7.76,.13,11.63,.11,4.05-.01,8.05-.71,11.98-1.71,.33-.08,.78-.37,1.03-.09,.27,.3-.11,.67-.25,.99-1.03,2.33-3.01,3.62-5.21,4.65-2.26,1.05-4.45,.7-6.63-.3-1.26-.58-1.67-.49-2.26,.74-.9,1.9-2.26,3.16-4.28,3.79-2.23,.7-4.42,.84-6.63-.03-.62-.25-1.24-.47-1.87-.67-1.68-.51-1.82-.47-2.48,1.11-.6,1.42-1.56,2.54-2.66,3.56-1.01,.92-2.27,1.03-3.53,.83-2.28-.37-4.14-1.58-5.85-3.05-.35-.3-.72-.58-1.09-.87-.69-.55-1.28-.43-1.93,.18-.88,.82-1.66,1.79-2.94,2.12-2.18,.57-3.88-.42-5.52-1.59-.81-.58-1.5-1.31-2.28-1.93-.62-.5-1.1-.36-1.34,.43-.03,.12-.07,.25-.11,.38-.12,.47-.24,1.25-.59,1.23-.46-.03-1.02-.44-1.31-.93-1.48-2.43-2.56-4.98-2.92-7.83-.41-3.16,.06-6.29,.25-9.42,.12-1.91,.95-3.59,2.07-5.12,.68-.92,.94-2.04,1.42-3.05,1.45-3.05,3.15-5.95,5.06-8.74,1.92-2.79,3.95-5.48,6.37-7.88,1.69-1.67,3.79-2.4,5.94-3.18,3.01-1.1,6.13-1.75,9.17-2.67,3.23-.97,6.45-2.01,9.62-3.16,3.55-1.29,7.09-2.57,10.66-3.79,1.91-.66,3.57-1.74,4.82-3.49,2.47-3.46,5.01-6.86,7.1-10.58,.84-1.5,1.65-3.02,2.48-4.53,.13-.23,.17-.52,.45-.63,.06,.03,.13,.05,.15,.1,.73,1.61,.73,1.59,2.53,1.1,3.16-.86,6.23-.58,9.22,.78,1.08,.49,2.23,.75,3.39,1.02,1.67,.39,2.88,1.75,4.51,2.25,1.72,.53,2.67,1.99,3.88,3.14,1.14,1.09,1.77,.95,2.97,.01,2.51-1.98,5.02-4,8.43-4.32,1.27-.13,2.51-.62,3.76-.95,2.64-.7,5.25-.48,7.89,.06,1.18,.24,2.33,.43,3.38,1.08,.66,.42,1.19,.2,1.71-.42,.74-.88,1.61-1.64,2.54-2.58,.34,2.33,.64,4.44,.94,6.55,.45,3.18,.72,6.38,1.45,9.52Zm-3.04,25.17c-.6,.85-2.53,1.23-4.07,.73,1.43-.51,2.71-.78,4.07-.73Zm-27.32,6.96c-.32,2-5.59,4.49-8.03,3.75,2.57-1.67,5.37-2.46,8.03-3.75Zm-15.43,7.89c-.76,2.49-4.43,3.91-7.75,3.56,2.85-.57,5.22-2.16,7.75-3.56Zm83.2-103.62c.03,.06,.08,.12,.09,.18,.12,.37,.52,.78,.23,1.11-.37,.41-.83-.03-1.16-.2-4.62-2.45-9.68-2.86-14.74-3.28-1.75-.15-3.48-.49-5.23-.64-3.6-.3-7.2-.54-10.8,.05-1.62,.26-1.6,.27-1.95-1.34-.22-1.04-.03-2.12-.47-3.14-.24-.57,.37-.71,.72-.89,2.71-1.35,5.51-2.45,8.39-3.36,6.83-2.15,13.76-3.76,20.95-4.08,.96-.04,1.25,.21,1.14,1.11-.07,.56-.09,1.13-.13,1.69,.06,4.48,1.06,8.74,2.96,12.79Zm-33.08,2.78c.17,3.12,.05,6.23-1.74,8.97-.65,.99-1.63,1.79-2.17,2.83-1.06,2.04-2.96,3.31-4.39,5-.76,.89-2.25,1.28-3.2,2.12-2.06,1.8-4.62,2.77-6.96,4-2.22,1.17-4.45,2.64-7.08,2.99-.5,.06-.99,.14-1.51,.23-1.82-.31-3.64-.6-5.46-.94-1.37-.25-2.75-.41-4.11-.65-3.36-.6-6.58-1.63-9.68-2.97-2.22-.96-4.64-1.75-6.14-3.89-1.5-2.15-2.77-4.39-3.55-6.94-.92-3-2.08-5.94-2.71-9.02-.67-3.31-2.08-6.47-2.04-9.94,.02-1.35,.4-2.63,.8-3.86,.57-1.81,1.2-3.59,2.09-5.32,1.58-3.07,3.77-5.57,5.95-8.16,1.14-1.36,2.6-2.13,3.99-3.07,.36-.24,.77-.1,1.16,.02,1.83,.6,3.56,1.42,5.31,2.22,1.35,.63,2.71,1.24,4.06,1.87,.43,.19,.84,.4,1.24,.65,.46,.28,.74,1.04,1.37,.8,.73-.28,1.39-.71,1.97-1.31,1.53-1.6,3.13-3.13,4.72-4.68,1.16-1.14,2.41-2.18,3.35-3.51,.76-1.07,1.89-1.53,3.28-1.17,3.51,.91,6.8,2.35,9.4,4.89,1.77,1.74,3.63,3.39,5.37,5.16,1.01,1.02,2.04,2.12,2.66,3.44,.48,1.03,.72,2.18,1.04,3.28,.89,3.03,1.2,6.17,1.68,9.27,.39,2.57,1.16,5.09,1.3,7.69Zm38.67-44.87c-2.01,2.63-3.18,5.66-4.34,8.7-1.1,2.88-2.33,5.71-2.95,8.77-.48,2.42-.75,4.86-.9,7.31-.04,.73-.14,1.07-1.05,1.12-5.31,.33-10.57,1.07-15.7,2.51-4.88,1.36-9.8,2.62-14.41,4.8-.28,.13-.56,.21-.58-.19-.06-.84-.23-1.64,.08-2.53,1.2-3.44,3.92-5.63,6.34-8.07,4.92-4.96,10.34-9.34,15.86-13.62,3.97-3.08,8.19-5.77,12.3-8.63,2.45-1.71,5.04-3.2,7.69-4.58,.25-.13,.5-.35,.85-.15-1.06,1.53-2.07,3.09-3.19,4.56Zm11.81-27.99c-.37,1.51-.92,2.89-1.35,4.31-.73,2.39-1.14,4.83-1.51,7.29-.29,1.84-.51,3.68-.34,5.55,.07,.78-.25,1.38-.91,1.87-.9,.68-1.81,1.35-2.52,2.25-.38,.49-.94,.76-1.46,1.03-5.83,3-11.3,6.61-16.67,10.33-3.82,2.64-7.46,5.54-11.1,8.42-4.52,3.58-8.66,7.54-12.65,11.68-1.18,1.22-2.2,2.57-3.09,4.03-.2,.33-.35,.72-.86,.88-.43-1.44-.53-2.95-1.04-4.35-.17-.46,.35-.8,.43-1.28,.59-3.8,2.2-7.17,4.31-10.36,1.16-1.74,2.36-3.43,3.71-5.03,2.13-2.5,4.35-4.9,6.59-7.3,3.01-3.23,6.12-6.37,9.38-9.34,2.49-2.28,5.05-4.48,7.71-6.57,2.11-1.64,4.17-3.34,6.27-5.01,1.58-1.26,3.27-2.36,5.05-3.3,3.22-1.7,6.46-3.35,9.7-5.02,.08-.04,.17-.04,.35-.08Zm-87.42,25.45c.73-.27,1.37-.69,1.88-1.26,.45-.49,.8-.46,1.36-.14,2.31,1.3,4.7,2.44,7.44,2.03,1.52-.23,3.08-.38,4.53-.94,.63-.24,1.27-.38,1.92-.53,.58-.14,1.02,.01,1.43,.45,3.11,3.3,7.11,4.14,11.42,4,1.16-.04,1.7,.22,1.98,1.32,.4,1.57,.66,3.19,2.01,4.32,.28,.24,.16,.49-.07,.68-1.18,1-1.78,2.45-2.8,3.59-.64,.72-1.43,.92-2.19,.34-2.14-1.63-4.6-2.75-6.82-4.26-.56-.39-1.24-.68-1.9-.83-.93-.21-.9-.69-.6-1.37,.2-.47,.42-.94,.27-1.51-.24,.53-.5,1.05-.7,1.59-.2,.53-.5,.71-1.07,.53-3.43-1.11-6.97-1.7-10.52-2.17-1.23-.16-2.55-.1-3.82-.1-1.46,0-2.2-.62-2.79-1.95-.47-1.05-.56-2.25-1.22-3.21-.23-.34-.03-.47,.26-.58Zm-34.94,20.68c3.86-1.59,6.08-4.53,6.81-8.56,.24-1.35,.85-2.06,2.12-2.39,4.26-1.11,7.36-3.79,9.9-7.27,.96-1.31,.91-1.33,2.24-.76,1.65,.7,3.35,.83,5.07,.4,.78-.2,1.07,.11,1.19,.84,.19,1.1,.67,2.16,.65,3.3-.04,1.36-.39,2.3-1.75,3.17-3.19,2.03-6.69,3.72-9.13,6.78-.29,.36-.54,.41-.91,.09-.4-.35-.86-.62-1.44-1.04,.03,.76,.43,1.08,.81,1.25,.94,.42,.65,.8,.16,1.39-.93,1.12-2,2.21-2.6,3.5-1.12,2.42-2.86,4.42-4.06,6.78-.55,1.1-1.3,1.28-2.47,.91-2.27-.72-4.54-1.44-6.83-2.08-.83-.23-1.19-.5-.93-1.43,.25-.86,.2-1.76-.02-2.66-.33-1.41-.12-1.68,1.19-2.22Zm-45.55,.02c1.49,.2,2.98,.25,4.46,.39,2.64,.26,5.29,.43,7.93,.73,2.27,.26,4.52,.68,6.82,.68s4.73,.59,7.08,1c5,.86,9.93,2.1,14.86,3.28,2.55,.61,5.15,1.18,7.64,2.14,1.38,.54,2.93,.78,4.4,1.18,.99,.27,1.48-.47,1.79-1.21,.87-2.07,2.15-3.9,3.46-5.69,1.76-2.4,3.03-5.17,5.35-7.15,3.11-2.64,6.11-5.44,10.01-6.95,.81-.31,1.11-.63,.81-1.66-.6-2.02-.78-4.2-1.43-6.19-.88-2.66-1.28-5.41-1.93-8.11-1.4-5.7-2.77-11.41-4.1-17.13-.59-2.54-.85-5.17-1.25-7.75-.28-1.73-.57-3.46-.63-5.22-.01-.24-.19-.59,.17-.68,.33-.09,.4,.28,.53,.5,.77,1.28,1.14,2.74,1.7,4.12,.92,2.24,1.76,4.51,2.57,6.79,1.05,2.97,2.03,5.96,3.06,8.94,.72,2.07,1.45,4.14,2.23,6.19,.95,2.48,1.79,4.99,2.51,7.55,.91,3.23,2.07,6.37,3.32,9.48,.19,.5,.54,.41,.89,.4,5.17,0,10.25,.67,15.22,2.1,2.02,.58,3.9,1.51,5.71,2.57,2.26,1.32,4.63,2.45,6.69,4.12,.41,.33,1.09,.41,1.62-.28,1.77-2.27,3.43-4.64,5.52-6.64,3.22-3.1,6.46-6.19,9.76-9.21,1.4-1.27,2.97-2.35,4.44-3.53,2.23-1.78,4.37-3.67,6.67-5.35,1.85-1.35,3.6-2.82,5.58-3.99,1.86-1.09,3.55-2.45,5.38-3.58,3.74-2.33,7.51-4.64,11.61-6.25,1.82-.72,3.5-1.74,5.37-2.29,.34-.1,.67-.33,1.23-.11-1.2,.66-2.29,1.26-3.38,1.84-4.43,2.36-8.9,4.62-12.82,7.83-1.82,1.49-3.8,2.79-5.62,4.28-2.02,1.67-3.95,3.45-5.92,5.18-3.22,2.83-6.21,5.9-9.22,8.94-2.23,2.24-4.23,4.69-6.25,7.11-1.13,1.35-2.46,2.53-3.48,3.98-1.86,2.66-3.66,5.34-4.89,8.4-.64,1.57-.96,3.24-1.73,4.75-.2,.04-.34-.08-.41-.22-1.15-2.26-3.2-3.7-4.87-5.49-.69-.72-1.29-1.54-2.06-2.16-2.39-1.91-5.06-3.44-7.8-4.74-1.39-.66-3.12-.61-4.71-.8-.46-.05-.83,.38-1.11,.76-1.46,2.03-3.41,3.62-4.97,5.57-.14,.18-.36,.28-.54,.43-1.02,.84-2.16,1.5-2.96,2.63-.91,1.29-1.61,1.33-2.99,.63-1.74-.89-3.62-1.43-5.36-2.34-1.76-.91-3.71-1.43-5.4-2.5-.66-.41-1.32-.5-1.9,.12-1.29,1.42-3.04,2.35-4.23,3.88-1.22,1.56-2.71,2.9-3.62,4.72-.52,1.04-1.4,1.87-1.92,2.96-1.14,2.36-2.1,4.77-2.58,7.35-.1,.53-.34,.81-.89,.48-1.83-1.11-3.89-1.7-5.77-2.7-2.96-1.57-6.04-2.88-9.16-4.08-3.09-1.19-6.29-2.06-9.49-2.93-2.06-.56-4.04-1.43-6.14-1.93-3.22-.76-6.41-1.72-9.67-2.26-3.82-.63-7.66-1.11-11.51-1.53-2.47-.27-4.91-.77-7.35-1.26-.59-.12-1.28,.15-1.95-.5,1.99,.13,3.82,.17,5.62,.41Zm.82,15.83c-2.29-5.16-5.65-9.58-9.42-13.72-.6-.65-1.3-1.2-1.95-1.81,.59-.62,1.28-.44,1.91-.3,4.5,1.02,9.07,1.59,13.63,2.2,4.3,.59,8.6,1.22,12.85,2.15,5.24,1.13,10.27,2.96,15.47,4.19,3.67,.87,7.11,2.33,10.56,3.78,3.76,1.58,7.31,3.6,11.12,5.07,.7,.28,1.08,.78,1.08,1.61,0,1.12,.13,2.24,.2,3.44-1.96-.73-3.83-1.49-5.74-2.14-3.41-1.16-6.93-1.79-10.51-2.15-2.81-.28-5.62-.49-8.4-.98-1.77-.31-3.57-.36-5.36-.39-4.02-.09-8.03-.22-12.04-.17-3.88,.06-7.77,.04-11.65,.39-.99,.1-1.45-.5-1.75-1.17Zm24.4,20.08c-3.45-4.81-7.48-9.1-12.17-12.68-2.68-2.05-5.58-3.84-8.76-5.08-.08-.04-.15-.12-.4-.34,1.33-.42,2.55-.46,3.76-.46,6.68-.01,13.35,.02,20.03,.08,2.16,.02,4.3,.34,6.44,.54,2.65,.25,5.28,.55,7.91,.9,4.91,.66,9.61,1.98,14.08,4.11,.4,.19,.49,.49,.61,.82,.26,.72,.51,1.43,.75,2.15,.19,.56,.02,.87-.6,.97-3.13,.5-6.26,1.11-9.34,1.86-5.29,1.29-10.62,2.43-15.55,4.85-1.78,.88-3.56,1.77-5.29,2.76-.8,.45-1.06,.08-1.47-.48Zm13.58,12.01c-1.6,1.64-3.3,3.17-4.88,4.83-.31,.33-.59,.73-1.09,.64-.47-3.29-1.21-6.45-2.61-9.47-.92-2-2.08-3.85-3.38-5.62-.56-.76-.39-1.05,.39-1.5,4.13-2.43,8.49-4.27,13.12-5.49,4.99-1.31,9.94-2.81,15.08-3.46,2.95-.37,2.46-.47,3.07,2.19,.24,1.03,.48,2.07,.81,3.08,.18,.53,.08,.79-.41,1-4.34,1.85-8.17,4.5-11.97,7.27-2.81,2.06-5.69,4.04-8.13,6.53Zm9.04,9.07c-1.81-1.26-3.74-2.14-6-2.04-.6,.03-.91-.18-.74-.81,.55-2.05-.02-3.96-.73-5.83-.2-.54-.13-.82,.3-1.17,3.27-2.72,6.68-5.25,10.12-7.74,2.57-1.86,5.4-3.25,8.21-4.66,.45-.23,.66-.27,.85,.31,.49,1.47,1.04,2.93,1.62,4.37,.19,.47,.02,.65-.33,.86-1.51,.89-2.78,2.03-3.76,3.77,1.28-1.18,2.49-2.12,3.85-2.86,.71-.38,1.07-.29,1.43,.49,.54,1.16,1.08,2.4,1.93,3.32,1.16,1.25,2.55,2.32,4.09,3.13,.92,.48,.99,.59,.21,1.3-1.98,1.79-3.11,4.12-4.21,6.47-.07,.16-.24,.34-.02,.63,1.29-2.7,3.3-4.84,5.12-7.11,.41-.51,.8-.62,1.37-.36,1.78,.8,3.56,1.66,5.51,1.96,1.64,.25,3.29,.43,4.89,.89,2.78,.82,2.36,.81,1.8,3.09-.48,1.93-.58,3.93-.87,5.89-.42,2.79-.77,5.58-.98,8.39-.08,1.09-.02,2.18,.03,3.27,.67-2.55,.65-5.18,.96-7.78,.27-2.22,.43-4.46,.97-6.66,.35-1.43,.33-2.94,.79-4.37,.2-.67,.44-.94,1.15-.83,1.25,.18,2.51,.31,3.77,.4,2.32,.17,4.54-.19,6.66-1.26,2.15-1.07,1.61-1.4,3.13,.88,2.13,3.21,3.72,6.72,5.34,10.2,.95,2.03,1.59,4.21,2.37,6.32,.07,.18,.15,.36,.33,.51-.25-1.63-.51-3.27-1.22-4.77-1.87-3.96-3.52-8.03-5.82-11.78-.4-.65-.77-1.31-1.2-1.95-.3-.45-.21-.75,.27-.92,3.3-1.11,5.87-3.44,8.77-5.22,.83-.51,1.37-.35,2,.25,1.92,1.79,3.87,3.55,5.8,5.32,.09,.08,.2,.15,.3,.22-1.74-2.35-3.85-4.33-6.01-6.26-.46-.41-.45-.57-.04-.96,1.47-1.4,3.01-2.73,4.15-4.44,.83-1.23,1.7-2.43,2.36-3.77,.55-1.12,.77-1.16,1.9-.68,1.39,.59,2.79,1.18,4.24,1.65-1.48-.81-2.85-1.82-4.47-2.36-.45-.14-.73-.27-.52-.81,.86-2.27,.71-4.62,.47-6.97-.13-1.26-.3-2.51-.52-3.76-.12-.69,.36-.69,.76-.76,2.92-.56,5.86-.39,8.81-.34,2.5,.04,4.93,.57,7.41,.74,.67,.04,1.15,.18,1.25,1.03,.18,1.49,1.08,2.7,1.85,3.93,.5,.81,.75,1.38,.21,2.39-1.5,2.78-2.16,5.77-2.22,8.98-.04,2.08,.42,3.93,1.08,5.8,.2,.58,.05,.86-.49,1.06-4.58,1.71-6.9,5.32-8.31,9.76-.61,1.9-.5,3.79-.35,5.69,.05,.69-.1,.94-.81,1-4.31,.38-8.13,2.12-11.66,4.46-2.68,1.77-5.12,3.89-6.9,6.64-.42,.64-.89,.92-1.67,.56-4.59-2.1-9.28-2.26-14.01-.53-1.2,.44-2.45,.58-3.66,.94-1.99,.6-3.83,1.42-5.29,2.99-.48,.52-1.16,.87-1.76,1.28-.45,.31-.88,.12-1.15-.22-1.68-2.1-4.02-3.16-6.37-4.3-3.32-1.61-6.8-2.72-10.37-3.57-1.62-.39-4.79,.07-6.24,.82-.2-.66-.39-1.31-.58-1.96-1.54-5.18-4.77-9.1-9.15-12.15ZM1.81,190.72c-.76-1.41-.61-1.69,.75-2.66,1.18-.83,2.52-1.47,3.03-3.03,.57-1.75-.03-3.34-.46-4.96-.36-1.34-.82-2.66-1.26-3.97-.14-.43,.03-.57,.4-.73,1.24-.55,2.48-1.13,3.69-1.74,1.94-.99,2.9-2.67,3.46-4.72,.49-1.78,.61-3.59,.95-5.38,.07-.38,.23-.85,.6-.8,1.02,.13,1.91-.53,2.9-.4,2.86,.35,4.56-1.19,5.72-3.55,.86-1.72,1.9-3.36,2.54-5.19,.26-.73,.73-.76,1.33-.42,.52,.3,1.04,.61,1.59,.84,2.87,1.2,6.76-.18,8.45-2.91,.51-.84,1.18-1.59,1.79-2.37,.45-.58,.98-.52,1.6-.24,3.58,1.63,6.15,.94,8.61-1.69,.82-.87,1.64-1.75,2.44-2.64,.39-.44,.79-.56,1.31-.26,.26,.15,.54,.25,.8,.4,2.39,1.41,4.86,.97,6.72-1.07,1.35-1.48,1.91-3.22,2.02-5.15,.07-1.42,.34-1.88,1.74-2.31,3.06-.93,4.59-3.08,5.01-6.16,.07-.49,.23-.97,.3-1.46,.19-1.21,.55-1.58,1.78-1.68,1.26-.09,2.44-.4,3.41-1.24,.41-.35,.6-.13,.77,.17,.57,1.01,.97,2.1,1.36,3.19,.44,1.27-.31,2.18-.85,3.13-2,3.52-3.79,7.17-6.36,10.34-1.29,1.6-2.48,3.28-3.82,4.84-1.83,2.12-4.35,2.84-6.89,3.52-2.32,.61-4.47,1.67-6.75,2.4-3.94,1.26-7.79,2.83-11.86,3.7-4.37,.93-8.56,2.41-12.4,4.7-2.14,1.28-3.78,3.23-5.26,5.24-1.74,2.34-3.46,4.71-5.03,7.17-1.36,2.12-2.28,4.5-3.36,6.78-.86,1.82-1.89,3.58-2.34,5.59-.79,3.51-1.13,7.06-1,10.66,.02,.64,.25,1.23,.44,1.84,.77,2.48,1.65,4.91,3.09,7.1,.13,.2,.52,.47,.18,.75-.23,.18-.57,.11-.83-.1-.1-.09-.22-.17-.34-.2-.23-.05-.49-.07-.64,.14-.19,.25,.03,.44,.18,.6,.68,.66,1.57,.93,2.38,.61,.85-.33,2.01-.56,1.91-1.94-.02-.31,.07-.73,.38-.86,.34-.15,.61,.18,.85,.4,1.36,1.3,2.83,2.43,4.7,2.88,1.78,.42,3.45,.29,4.91-1.05,.46-.43,1.16-.59,1.57-1.15,.25-.34,.51-.03,.76,.15,1.66,1.15,3.21,2.49,5.16,3.17,1.64,.57,3.36,.84,5.07,.47,1.01-.21,1.62-1.13,2.26-1.87,.78-.9,1.58-1.8,1.91-3,.17-.62,.48-.7,1.12-.43,1.4,.59,2.83,1.16,4.33,1.45,1.74,.34,3.37-.17,4.98-.68,1.22-.38,2.23-1.12,3.18-1.98,.51-.47,.78-1.07,1.1-1.63,.47-.83,1.1-1,1.93-.72,1.4,.47,2.83,.57,4.31,.53,3.23-.08,5.55-1.64,7.51-4.06,.9-1.12,1.1-2.38,1.3-3.69,.05-.36,.13-.72,.2-1.07,.14-.74,.65-.83,1.19-.56,2.47,1.27,5.09,1.18,7.71,.86,2-.25,3.52-1.45,4.83-2.94,.99-1.12,1.38-2.51,1.84-3.87,.32-.96,.64-1.11,1.61-.85,4.97,1.32,10.7-.6,13.32-5.1,.33-.57,.85-1.02,1.08-1.67,.14-.39,.52-.45,.83-.27,1.06,.63,2.27,.65,3.39,.6,1.11-.04,2.14,.52,3.25,.18,1.73-.53,3.51-.91,4.8-2.37,.8-.9,1.92-1.5,2.33-2.78,.19-.6,.75-.46,1.26-.21,1.31,.62,2.5,1.45,3.99,1.77,2.03,.44,3.81-.09,5.54-.99,.91-.47,1.76-1.07,2.59-1.67,.54-.39,.94-.32,1.4,.1,.66,.6,1.34,1.17,2.13,1.63,2.35,1.39,4.57,.9,6.79-.33,1.07-.6,2.01-1.4,3-2.12,.44-.32,.69-.32,1.1,.02,.68,.57,1.45,1.05,2.14,1.62,2.08,1.72,4.27,1.49,6.52,.4,1.34-.66,1.59-.65,2.6,.39,1.48,1.53,3.05,2.96,4.95,3.98,.14,.07,.26,.2,.38,.32,.06,.06,.08,.16,.19,.38-1.27-.08-2.33-.5-3.41-.79-5.51-1.52-11.12-1.67-16.79-1.5-3.83,.11-7.61,.51-11.37,1.18-3.1,.55-6.18,1.21-9.21,2.13-1.94,.58-3.9,1.06-5.82,1.72-2.2,.75-4.37,1.55-6.53,2.41-2.72,1.08-5.44,2.15-8.08,3.39-1.71,.8-3.32,1.81-5.04,2.6-3.04,1.4-5.82,3.28-8.71,4.95-2.75,1.59-5.4,3.37-8.15,4.98-1.94,1.15-3.99,2.1-6.01,3.1-3.29,1.63-6.55,3.33-9.93,4.77-2.91,1.25-5.87,2.39-9.03,2.99-3.78,.72-7.52,1.64-11.3,2.37-2.41,.46-4.85,.75-7.32,.89-2.25,.13-4.49,.49-6.74,.03-2.37-.47-4.8-.65-7.16-1.24-3.6-.9-7.05-2.17-10.2-4.13-1.32-.82-2.43-1.96-3.44-3.14-1.37-1.6-2.92-2.9-4.98-3.51-.62-.19-1.09-.63-.91-1.34,.94-3.65-.28-6.85-1.96-9.98Zm110.43,44.5c-.23-1.11-.37-2.2-1.29-2.99-.21,.32,.03,.51,.14,.7,.68,1.09,.7,2.27,.41,3.46-.2,.84-2.43,1.91-3.28,1.64-.52-.17-.29-.61-.28-.93,.03-1.58-.33-2.85-1.18-3.98-.16,.28-.06,.53,.09,.75,.66,1.03,.58,2.13,.48,3.28-.09,.96-.62,1-1.36,.91-2.72-.34-4.47-1.88-5.65-4.29-1.68-3.4-3-6.93-4.36-10.46-.54-1.38-.76-2.89-1.15-4.33-.11-.4,.07-.62,.32-.86,3.32-3.36,6.68-6.66,10.48-9.47,1.3-.97,2.56-2.01,3.97-2.82,.25-.14,.45-.59,.85-.27,.3,.25,.35,.56,.33,.97-.15,3.48-.39,6.97-.36,10.45,.02,2.52-.01,5.04,.28,7.56,.27,2.4,1.32,4.5,2.28,6.65,.69,1.55,.53,2.6-.72,4.03Zm13.58-39.35c-.49,3.63-1.65,7.09-2.48,10.63-.66,2.8-1.1,5.66-1.53,8.51-.68,4.52-.13,8.91,1.42,13.22,.56,1.56,.24,3.14-.56,4.59-.08,.14-.22,.26-.46,.22,.17-1.65-.34-3.1-1.47-4.33,.21,.46,.39,.94,.65,1.37,.46,.75,.35,1.47-.01,2.18-.35,.71-.92,1.29-1.16,2.07-.1,.33-2.17,.82-2.4,.62-.33-.29-.07-.63,.02-.92,.45-1.57,0-2.92-.9-4.18-.3,.15-.15,.28-.08,.41,.82,1.57,.61,3.22-.56,4.49-.25,.28-.52,.28-.79,.14-.49-.24-1.35-.27-1.32-.88,.1-1.87-.8-3.42-1.53-4.99-1.06-2.27-1.27-4.64-1.37-7.08-.2-4.85,.06-9.7,.06-14.54,.01-.8,.11-1.6,.18-2.39,.08-.83,.86-1.09,1.38-1.47,2.46-1.86,4.97-3.67,7.52-5.41,1.5-1.02,3.12-1.88,4.69-2.8,.19-.11,.49-.25,.64-.17,.29,.15,.1,.47,.06,.71Zm86.99-22.91c-1.71,1.9-3.31,3.89-5.21,5.63-3.16,2.9-6.61,5.41-10.56,7.02-4.14,1.69-8.48,2.75-13.04,2.1-1.59-.23-2.98-.71-4.18-1.98-1.38-1.44-3.02-2.67-5.13-3.07,.61,.44,1.19,.94,1.84,1.32,2.42,1.42,4.2,3.54,6.08,5.54,1.32,1.4,2.71,2.73,3.8,4.34,2.08,3.07,3.96,6.26,5.41,9.69,.78,1.82,1.65,3.62,2.13,5.54,.93,3.7,1.89,7.4,2.58,11.14,.63,3.49,.75,7.06,.53,10.62-.06,.99-.06,2,.05,2.98,.11,1.05-.33,2-.4,3.01-.01,.16-.04,.45-.3,.44-.13,0-.27-.17-.37-.29-2.6-3.26-5.92-5.66-9.48-7.74-6.04-3.52-11.99-7.19-17.71-11.21-2.4-1.68-4.36-3.94-6.21-6.26-3.08-3.85-4.77-8.29-5.82-13.02-.61-2.74-.73-5.52-.83-8.31-.07-2.08-.17-4.15,.15-6.21,.08-.51,.26-1.03,.05-1.54-.12-.3-.11-.75-.63-.82-.12,.38,.16,.71,.02,1.13-.25,.77-.59,1.09-1.42,1.13-3.37,.15-6.67,.75-9.83,1.93-2.67,.99-5.32,2.06-7.97,3.12-2.98,1.2-5.91,2.49-8.81,3.9-4.77,2.31-9.03,5.4-13.27,8.55-2.6,1.93-5.43,3.55-8.04,5.46-2.14,1.56-4.23,3.2-6.11,5.07-3.98,3.96-7.95,7.92-12.67,11.03-1.47,.96-2.67,2.28-4.2,3.18-1.95,1.13-3.75,2.54-5.77,3.5-3.84,1.83-7.43,4.15-11.63,5.28-3.69,1-7.38,1.9-11.13,2.6-1.59,.29-3.21,.39-4.82,.55-1.59,.15-3.12,.6-4.72,.68-2.27,.11-4.49-.35-6.73-.6-3.29-.37-6.56-.84-9.77-1.76-4.75-1.36-9.12-3.43-13.04-6.43-1.45-1.11-3.02-2.06-4.35-3.33-2.99-2.85-5.87-5.73-7.26-9.81-.88-2.62-.87-5.28-.86-7.95,.01-1.99,.27-3.97,.4-5.96,.04-.64,.38-.44,.74-.37,2.15,.42,3.7,1.81,5.03,3.35,1.85,2.16,4.1,3.69,6.6,4.91,3.41,1.66,7.04,2.76,10.74,3.53,1.67,.35,3.46,.19,5.14,.39,2.3,.28,4.5-.29,6.75-.18,2.81,.14,5.54-.57,8.26-1.08,3.45-.64,6.87-1.44,10.27-2.33,1.79-.47,3.45-1.41,5.24-1.87,3.39-.88,6.39-2.62,9.53-4.04,4.31-1.95,8.46-4.23,12.52-6.63,2.95-1.73,5.78-3.65,8.75-5.36,4.13-2.37,8.32-4.66,12.75-6.48,4.63-1.91,9.22-3.93,14.03-5.33,3.49-1.01,7.02-1.98,10.59-2.64,6.72-1.24,13.52-1.93,20.37-1.55,3,.17,6,.39,8.92,1.26,1.58,.47,3.24,.62,4.87,.9,.25,.05,.56,.18,.71-.14,.1-.23-.1-.44-.23-.62-.88-1.16-2.11-1.92-3.25-2.76-1.12-.8-2.04-1.8-3.02-2.74-.17-.16-.3-.36-.21-.68,.77,.05,1.57,.03,2.34,.15,.74,.11,1.18-.23,1.33-.83,.15-.65,.64-.93,1.02-1.37,1.85-2.18,4.22-3.74,6.55-5.29,4.72-3.16,9.73-5.64,15.58-5.95,1.51-.08,3.05,0,4.56-.3,.79-.16,1.55,.3,2.34,.35,4.54,.31,8.69,2.02,12.88,3.55,3.08,1.13,6.06,2.5,9.11,3.73,1.06,.43,2.16,.75,3.42,1.18-2.05,1.43-3.44,3.32-5,5.05Z"/>
      <path class="cls-8" d="M129.5,173.27c-.6,.85-2.53,1.23-4.07,.73,1.43-.51,2.71-.78,4.07-.73Z"/>
      <path class="cls-8" d="M102.18,180.23c-.32,2-5.59,4.49-8.03,3.75,2.57-1.67,5.37-2.46,8.03-3.75Z"/>
      <path class="cls-2" d="M92.97,46.11c-.04,1.36-.39,2.3-1.75,3.17-3.19,2.03-6.69,3.72-9.13,6.78-.29,.36-.54,.41-.91,.09-.4-.35-.86-.62-1.44-1.04,.03,.76,.43,1.08,.81,1.25,.94,.42,.65,.8,.16,1.39-.93,1.12-2,2.21-2.6,3.5-1.12,2.42-2.86,4.42-4.06,6.78-.55,1.1-1.3,1.28-2.47,.91-2.27-.72-4.54-1.44-6.83-2.08-.83-.23-1.19-.5-.93-1.43,.25-.86,.2-1.76-.02-2.66-.33-1.41-.12-1.68,1.19-2.22,3.86-1.59,6.08-4.53,6.81-8.56,.24-1.35,.85-2.06,2.12-2.39,4.26-1.11,7.36-3.79,9.9-7.27,.96-1.31,.91-1.33,2.24-.76,1.65,.7,3.35,.83,5.07,.4,.78-.2,1.07,.11,1.19,.84,.19,1.1,.67,2.16,.65,3.3Z"/>
      <path class="cls-2" d="M133.83,49.8c-1.18,1-1.78,2.45-2.8,3.59-.64,.72-1.43,.92-2.19,.34-2.14-1.63-4.6-2.75-6.82-4.26-.56-.39-1.24-.68-1.9-.83-.93-.21-.9-.69-.6-1.37,.2-.47,.42-.94,.27-1.51-.24,.53-.5,1.05-.7,1.59-.2,.53-.5,.71-1.07,.53-3.43-1.11-6.97-1.7-10.52-2.17-1.23-.16-2.55-.1-3.82-.1-1.46,0-2.2-.62-2.79-1.95-.47-1.05-.56-2.25-1.22-3.21-.23-.34-.03-.47,.26-.58,.73-.27,1.37-.69,1.88-1.26,.45-.49,.8-.46,1.36-.14,2.31,1.3,4.7,2.44,7.44,2.03,1.52-.23,3.08-.38,4.53-.94,.63-.24,1.27-.38,1.92-.53,.58-.14,1.02,.01,1.43,.45,3.11,3.3,7.11,4.14,11.42,4,1.16-.04,1.7,.22,1.98,1.32,.4,1.57,.66,3.19,2.01,4.32,.28,.24,.16,.49-.07,.68Z"/>
      <path class="cls-7" d="M185.26,13.87c-1.87,.55-3.55,1.57-5.37,2.29-4.1,1.61-7.87,3.92-11.61,6.25-1.83,1.13-3.52,2.49-5.38,3.58-1.98,1.17-3.73,2.64-5.58,3.99-2.3,1.68-4.44,3.57-6.67,5.35-1.47,1.18-3.04,2.26-4.44,3.53-3.3,3.02-6.54,6.11-9.76,9.21-2.09,2-3.75,4.37-5.52,6.64-.53,.69-1.21,.61-1.62,.28-2.06-1.67-4.43-2.8-6.69-4.12-1.81-1.06-3.69-1.99-5.71-2.57-4.97-1.43-10.05-2.11-15.22-2.1-.35,.01-.7,.1-.89-.4-1.25-3.11-2.41-6.25-3.32-9.48-.72-2.56-1.56-5.07-2.51-7.55-.78-2.05-1.51-4.12-2.23-6.19-1.03-2.98-2.01-5.97-3.06-8.94-.81-2.28-1.65-4.55-2.57-6.79-.56-1.38-.93-2.84-1.7-4.12-.13-.22-.2-.59-.53-.5-.36,.09-.18,.44-.17,.68,.06,1.76,.35,3.49,.63,5.22,.4,2.58,.66,5.21,1.25,7.75,1.33,5.72,2.7,11.43,4.1,17.13,.65,2.7,1.05,5.45,1.93,8.11,.65,1.99,.83,4.17,1.43,6.19,.3,1.03,0,1.35-.81,1.66-3.9,1.51-6.9,4.31-10.01,6.95-2.32,1.98-3.59,4.75-5.35,7.15-1.31,1.79-2.59,3.62-3.46,5.69-.31,.74-.8,1.48-1.79,1.21-1.47-.4-3.02-.64-4.4-1.18-2.49-.96-5.09-1.53-7.64-2.14-4.93-1.18-9.86-2.42-14.86-3.28-2.35-.41-4.67-1-7.08-1s-4.55-.42-6.82-.68c-2.64-.3-5.29-.47-7.93-.73-1.48-.14-2.97-.19-4.46-.39-1.8-.24-3.63-.28-5.62-.41,.67,.65,1.36,.38,1.95,.5,2.44,.49,4.88,.99,7.35,1.26,3.85,.42,7.69,.9,11.51,1.53,3.26,.54,6.45,1.5,9.67,2.26,2.1,.5,4.08,1.37,6.14,1.93,3.2,.87,6.4,1.74,9.49,2.93,3.12,1.2,6.2,2.51,9.16,4.08,1.88,1,3.94,1.59,5.77,2.7,.55,.33,.79,.05,.89-.48,.48-2.58,1.44-4.99,2.58-7.35,.52-1.09,1.4-1.92,1.92-2.96,.91-1.82,2.4-3.16,3.62-4.72,1.19-1.53,2.94-2.46,4.23-3.88,.58-.62,1.24-.53,1.9-.12,1.69,1.07,3.64,1.59,5.4,2.5,1.74,.91,3.62,1.45,5.36,2.34,1.38,.7,2.08,.66,2.99-.63,.8-1.13,1.94-1.79,2.96-2.63,.18-.15,.4-.25,.54-.43,1.56-1.95,3.51-3.54,4.97-5.57,.28-.38,.65-.81,1.11-.76,1.59,.19,3.32,.14,4.71,.8,2.74,1.3,5.41,2.83,7.8,4.74,.77,.62,1.37,1.44,2.06,2.16,1.67,1.79,3.72,3.23,4.87,5.49,.07,.14,.21,.26,.41,.22,.77-1.51,1.09-3.18,1.73-4.75,1.23-3.06,3.03-5.74,4.89-8.4,1.02-1.45,2.35-2.63,3.48-3.98,2.02-2.42,4.02-4.87,6.25-7.11,3.01-3.04,6-6.11,9.22-8.94,1.97-1.73,3.9-3.51,5.92-5.18,1.82-1.49,3.8-2.79,5.62-4.28,3.92-3.21,8.39-5.47,12.82-7.83,1.09-.58,2.18-1.18,3.38-1.84-.56-.22-.89,.01-1.23,.11ZM93.74,30.75c3.02,9.69,6.15,19.35,7.91,29.37-3.09-9.67-5.61-19.49-7.91-29.37Z"/>
      <path class="cls-1" d="M187.35,14.42c-.37,1.51-.92,2.89-1.35,4.31-.73,2.39-1.14,4.83-1.51,7.29-.29,1.84-.51,3.68-.34,5.55,.07,.78-.25,1.38-.91,1.87-.9,.68-1.81,1.35-2.52,2.25-.38,.49-.94,.76-1.46,1.03-5.83,3-11.3,6.61-16.67,10.33-3.82,2.64-7.46,5.54-11.1,8.42-4.52,3.58-8.66,7.54-12.65,11.68-1.18,1.22-2.2,2.57-3.09,4.03-.2,.33-.35,.72-.86,.88-.43-1.44-.53-2.95-1.04-4.35-.17-.46,.35-.8,.43-1.28,.59-3.8,2.2-7.17,4.31-10.36,1.16-1.74,2.36-3.43,3.71-5.03,2.13-2.5,4.35-4.9,6.59-7.3,3.01-3.23,6.12-6.37,9.38-9.34,2.49-2.28,5.05-4.48,7.71-6.57,2.11-1.64,4.17-3.34,6.27-5.01,1.58-1.26,3.27-2.36,5.05-3.3,3.22-1.7,6.46-3.35,9.7-5.02,.08-.04,.17-.04,.35-.08Z"/>
      <path class="cls-1" d="M178.73,37.85c-1.06,1.53-2.07,3.09-3.19,4.56-2.01,2.63-3.18,5.66-4.34,8.7-1.1,2.88-2.33,5.71-2.95,8.77-.48,2.42-.75,4.86-.9,7.31-.04,.73-.14,1.07-1.05,1.12-5.31,.33-10.57,1.07-15.7,2.51-4.88,1.36-9.8,2.62-14.41,4.8-.28,.13-.56,.21-.58-.19-.06-.84-.23-1.64,.08-2.53,1.2-3.44,3.92-5.63,6.34-8.07,4.92-4.96,10.34-9.34,15.86-13.62,3.97-3.08,8.19-5.77,12.3-8.63,2.45-1.71,5.04-3.2,7.69-4.58,.25-.13,.5-.35,.85-.15Z"/>
      <path class="cls-1" d="M170.27,85.79c-.37,.41-.83-.03-1.16-.2-4.62-2.45-9.68-2.86-14.74-3.28-1.75-.15-3.48-.49-5.23-.64-3.6-.3-7.2-.54-10.8,.05-1.62,.26-1.6,.27-1.95-1.34-.22-1.04-.03-2.12-.47-3.14-.24-.57,.37-.71,.72-.89,2.71-1.35,5.51-2.45,8.39-3.36,6.83-2.15,13.76-3.76,20.95-4.08,.96-.04,1.25,.21,1.14,1.11-.07,.56-.09,1.13-.13,1.69,.06,4.48,1.06,8.74,2.96,12.79,.03,.06,.08,.12,.09,.18,.12,.37,.52,.78,.23,1.11Z"/>
      <path class="cls-8" d="M136.87,87.28c-.14-2.6-.91-5.12-1.3-7.69-.48-3.1-.79-6.24-1.68-9.27-.32-1.1-.56-2.25-1.04-3.28-.62-1.32-1.65-2.42-2.66-3.44-1.74-1.77-3.6-3.42-5.37-5.16-2.6-2.54-5.89-3.98-9.4-4.89-1.39-.36-2.52,.1-3.28,1.17-.94,1.33-2.19,2.37-3.35,3.51-1.59,1.55-3.19,3.08-4.72,4.68-.58,.6-1.24,1.03-1.97,1.31-.63,.24-.91-.52-1.37-.8-.4-.25-.81-.46-1.24-.65-1.35-.63-2.71-1.24-4.06-1.87-1.75-.8-3.48-1.62-5.31-2.22-.39-.12-.8-.26-1.16-.02-1.39,.94-2.85,1.71-3.99,3.07-2.18,2.59-4.37,5.09-5.95,8.16-.89,1.73-1.52,3.51-2.09,5.32-.4,1.23-.78,2.51-.8,3.86-.04,3.47,1.37,6.63,2.04,9.94,.63,3.08,1.79,6.02,2.71,9.02,.78,2.55,2.05,4.79,3.55,6.94,1.5,2.14,3.92,2.93,6.14,3.89,3.1,1.34,6.32,2.37,9.68,2.97,1.36,.24,2.74,.4,4.11,.65,1.82,.34,3.64,.63,5.46,.94,.52-.09,1.01-.17,1.51-.23,2.63-.35,4.86-1.82,7.08-2.99,2.34-1.23,4.9-2.2,6.96-4,.95-.84,2.44-1.23,3.2-2.12,1.43-1.69,3.33-2.96,4.39-5,.54-1.04,1.52-1.84,2.17-2.83,1.79-2.74,1.91-5.85,1.74-8.97Zm-29.39-3.68c.32-.12,.81-.28,.93,.17,.16,.56-.4,.34-.65,.39-.3,.05-.56,.37-.98,.15,.14-.41,.42-.6,.7-.71Zm-12.58,1.72c-2.13,1.97-4.62,3.22-7.54,3.37-1.36,.08-2.63-.37-3.75-1.3-1.53-1.28-2.3-3.04-2.89-4.79-.45-1.31-.36-2.86,.05-4.29,.15-.54,.49-1.14-.45-1.47,3.38-1.47,6.64-1,9.84-.01,3.38,1.05,5.42,3.5,6.47,6.81,.11,.34,.36,.63-.4,.59-.42-.02-.89,.69-1.33,1.09Zm22.77,7.11c-.75-.14-.91,.09-.98,.86-.22,2.39,.09,4.78-.12,7.17-.2,2.27-1.38,4.67-3.68,5.43-3.14,1.04-4.84,.6-6.95-2.1-1.46-1.87-2.48-4-3.42-6.16-.13-.3-.26-.61-.43-.9-.52-.86-1.01-.96-1.88-.42-1.73,1.09-3.43,.87-5.02-.67,.47-.22,.71,.25,1.06,.32,2,.4,3.85,.07,5.45-1.2,2.12-1.69,4.28-3.35,5.9-5.58,.43-.6,.93-.67,1.64-.45,1.47,.45,2.82,1.11,4.19,1.8,1.79,.88,3.7,1.38,5.72,1.38,.77,0,1.32-.71,2.12-.67-1.09,.73-2.19,1.46-3.6,1.19Zm12.84-15c-.76,1.59-1.63,3.06-3.23,3.98-.93,.55-1.95,.41-2.89,.37-1.64-.07-3.25-.46-4.81-1.06-.77-.29-1.2-1.08-2.04-1.17-.16-.02-.19-.15-.18-.3,.16-1.94-.2-3.94,.74-5.79,.48-.94,.91-1.91,1.37-2.86,.74-1.53,2.36-1.87,3.67-2.53,1.25-.64,2.68-.98,4.23-.87,.16,.26,1.22-.66,.88,.72-.1,.41,.58,1.34,.97,1.98,1.17,1.9,1.4,4.03,1.55,6.18,.03,.47-.06,.91-.26,1.35Z"/>
      <path class="cls-1" d="M75.71,83.01c-1.96-.73-3.83-1.49-5.74-2.14-3.41-1.16-6.93-1.79-10.51-2.15-2.81-.28-5.62-.49-8.4-.98-1.77-.31-3.57-.36-5.36-.39-4.02-.09-8.03-.22-12.04-.17-3.88,.06-7.77,.04-11.65,.39-.99,.1-1.45-.5-1.75-1.17-2.29-5.16-5.65-9.58-9.42-13.72-.6-.65-1.3-1.2-1.95-1.81,.59-.62,1.28-.44,1.91-.3,4.5,1.02,9.07,1.59,13.63,2.2,4.3,.59,8.6,1.22,12.85,2.15,5.24,1.13,10.27,2.96,15.47,4.19,3.67,.87,7.11,2.33,10.56,3.78,3.76,1.58,7.31,3.6,11.12,5.07,.7,.28,1.08,.78,1.08,1.61,0,1.12,.13,2.24,.2,3.44Z"/>
      <path class="cls-1" d="M76.31,87.49c-3.13,.5-6.26,1.11-9.34,1.86-5.29,1.29-10.62,2.43-15.55,4.85-1.78,.88-3.56,1.77-5.29,2.76-.8,.45-1.06,.08-1.47-.48-3.45-4.81-7.48-9.1-12.17-12.68-2.68-2.05-5.58-3.84-8.76-5.08-.08-.04-.15-.12-.4-.34,1.33-.42,2.55-.46,3.76-.46,6.68-.01,13.35,.02,20.03,.08,2.16,.02,4.3,.34,6.44,.54,2.65,.25,5.28,.55,7.91,.9,4.91,.66,9.61,1.98,14.08,4.11,.4,.19,.49,.49,.61,.82,.26,.72,.51,1.43,.75,2.15,.19,.56,.02,.87-.6,.97Z"/>
      <path class="cls-1" d="M78.34,94.69c-4.34,1.85-8.17,4.5-11.97,7.27-2.81,2.06-5.69,4.04-8.13,6.53-1.6,1.64-3.3,3.17-4.88,4.83-.31,.33-.59,.73-1.09,.64-.47-3.29-1.21-6.45-2.61-9.47-.92-2-2.08-3.85-3.38-5.62-.56-.76-.39-1.05,.39-1.5,4.13-2.43,8.49-4.27,13.12-5.49,4.99-1.31,9.94-2.81,15.08-3.46,2.95-.37,2.46-.47,3.07,2.19,.24,1.03,.48,2.07,.81,3.08,.18,.53,.08,.79-.41,1Z"/>
      <path class="cls-2" d="M156.98,87.92c-.77-1.23-1.67-2.44-1.85-3.93-.1-.85-.58-.99-1.25-1.03-2.48-.17-4.91-.7-7.41-.74-2.95-.05-5.89-.22-8.81,.34-.4,.07-.88,.07-.76,.76,.22,1.25,.39,2.5,.52,3.76,.24,2.35,.39,4.7-.47,6.97-.21,.54,.07,.67,.52,.81,1.62,.54,2.99,1.55,4.47,2.36-1.45-.47-2.85-1.06-4.24-1.65-1.13-.48-1.35-.44-1.9,.68-.66,1.34-1.53,2.54-2.36,3.77-1.14,1.71-2.68,3.04-4.15,4.44-.41,.39-.42,.55,.04,.96,2.16,1.93,4.27,3.91,6.01,6.26-.1-.07-.21-.14-.3-.22-1.93-1.77-3.88-3.53-5.8-5.32-.63-.6-1.17-.76-2-.25-2.9,1.78-5.47,4.11-8.77,5.22-.48,.17-.57,.47-.27,.92,.43,.64,.8,1.3,1.2,1.95,2.3,3.75,3.95,7.82,5.82,11.78,.71,1.5,.97,3.14,1.22,4.77-.18-.15-.26-.33-.33-.51-.78-2.11-1.42-4.29-2.37-6.32-1.62-3.48-3.21-6.99-5.34-10.2-1.52-2.28-.98-1.95-3.13-.88-2.12,1.07-4.34,1.43-6.66,1.26-1.26-.09-2.52-.22-3.77-.4-.71-.11-.95,.16-1.15,.83-.46,1.43-.44,2.94-.79,4.37-.54,2.2-.7,4.44-.97,6.66-.31,2.6-.29,5.23-.96,7.78-.05-1.09-.11-2.18-.03-3.27,.21-2.81,.56-5.6,.98-8.39,.29-1.96,.39-3.96,.87-5.89,.56-2.28,.98-2.27-1.8-3.09-1.6-.46-3.25-.64-4.89-.89-1.95-.3-3.73-1.16-5.51-1.96-.57-.26-.96-.15-1.37,.36-1.82,2.27-3.83,4.41-5.12,7.11-.22-.29-.05-.47,.02-.63,1.1-2.35,2.23-4.68,4.21-6.47,.78-.71,.71-.82-.21-1.3-1.54-.81-2.93-1.88-4.09-3.13-.85-.92-1.39-2.16-1.93-3.32-.36-.78-.72-.87-1.43-.49-1.36,.74-2.57,1.68-3.85,2.86,.98-1.74,2.25-2.88,3.76-3.77,.35-.21,.52-.39,.33-.86-.58-1.44-1.13-2.9-1.62-4.37-.19-.58-.4-.54-.85-.31-2.81,1.41-5.64,2.8-8.21,4.66-3.44,2.49-6.85,5.02-10.12,7.74-.43,.35-.5,.63-.3,1.17,.71,1.87,1.28,3.78,.73,5.83-.17,.63,.14,.84,.74,.81,2.26-.1,4.19,.78,6,2.04,4.38,3.05,7.61,6.97,9.15,12.15,.19,.65,.38,1.3,.58,1.96,1.45-.75,4.62-1.21,6.24-.82,3.57,.85,7.05,1.96,10.37,3.57,2.35,1.14,4.69,2.2,6.37,4.3,.27,.34,.7,.53,1.15,.22,.6-.41,1.28-.76,1.76-1.28,1.46-1.57,3.3-2.39,5.29-2.99,1.21-.36,2.46-.5,3.66-.94,4.73-1.73,9.42-1.57,14.01,.53,.78,.36,1.25,.08,1.67-.56,1.78-2.75,4.22-4.87,6.9-6.64,3.53-2.34,7.35-4.08,11.66-4.46,.71-.06,.86-.31,.81-1-.15-1.9-.26-3.79,.35-5.69,1.41-4.44,3.73-8.05,8.31-9.76,.54-.2,.69-.48,.49-1.06-.66-1.87-1.12-3.72-1.08-5.8,.06-3.21,.72-6.2,2.22-8.98,.54-1.01,.29-1.58-.21-2.39Zm-79.73,42.29c.25-1.51,.47-3.02,1.58-4.2-.6,1.37-1.19,2.75-1.58,4.2Z"/>
      <path class="cls-8" d="M155.72,172.58c-1.45,1.49-4.31,1.67-6-.17,2.07-.56,4.03-.29,6,.17Z"/>
      <path class="cls-8" d="M143.4,172.46c-1.72,1.85-4.85,2.16-6.7,.6,2.3-.16,4.38-.72,6.7-.6Z"/>
      <path class="cls-8" d="M86.75,188.12c-.76,2.49-4.43,3.91-7.75,3.56,2.85-.57,5.22-2.16,7.75-3.56Z"/>
      <path class="cls-8" d="M134.62,158.21c-.52-3.39-1.3-6.76-2.08-10.11-.73-3.14-1-6.34-1.45-9.52-.3-2.11-.6-4.22-.94-6.55-.93,.94-1.8,1.7-2.54,2.58-.52,.62-1.05,.84-1.71,.42-1.05-.65-2.2-.84-3.38-1.08-2.64-.54-5.25-.76-7.89-.06-1.25,.33-2.49,.82-3.76,.95-3.41,.32-5.92,2.34-8.43,4.32-1.2,.94-1.83,1.08-2.97-.01-1.21-1.15-2.16-2.61-3.88-3.14-1.63-.5-2.84-1.86-4.51-2.25-1.16-.27-2.31-.53-3.39-1.02-2.99-1.36-6.06-1.64-9.22-.78-1.8,.49-1.8,.51-2.53-1.1-.02-.05-.09-.07-.15-.1-.28,.11-.32,.4-.45,.63-.83,1.51-1.64,3.03-2.48,4.53-2.09,3.72-4.63,7.12-7.1,10.58-1.25,1.75-2.91,2.83-4.82,3.49-3.57,1.22-7.11,2.5-10.66,3.79-3.17,1.15-6.39,2.19-9.62,3.16-3.04,.92-6.16,1.57-9.17,2.67-2.15,.78-4.25,1.51-5.94,3.18-2.42,2.4-4.45,5.09-6.37,7.88-1.91,2.79-3.61,5.69-5.06,8.74-.48,1.01-.74,2.13-1.42,3.05-1.12,1.53-1.95,3.21-2.07,5.12-.19,3.13-.66,6.26-.25,9.42,.36,2.85,1.44,5.4,2.92,7.83,.29,.49,.85,.9,1.31,.93,.35,.02,.47-.76,.59-1.23,.04-.13,.08-.26,.11-.38,.24-.79,.72-.93,1.34-.43,.78,.62,1.47,1.35,2.28,1.93,1.64,1.17,3.34,2.16,5.52,1.59,1.28-.33,2.06-1.3,2.94-2.12,.65-.61,1.24-.73,1.93-.18,.37,.29,.74,.57,1.09,.87,1.71,1.47,3.57,2.68,5.85,3.05,1.26,.2,2.52,.09,3.53-.83,1.1-1.02,2.06-2.14,2.66-3.56,.66-1.58,.8-1.62,2.48-1.11,.63,.2,1.25,.42,1.87,.67,2.21,.87,4.4,.73,6.63,.03,2.02-.63,3.38-1.89,4.28-3.79,.59-1.23,1-1.32,2.26-.74,2.18,1,4.37,1.35,6.63,.3,2.2-1.03,4.18-2.32,5.21-4.65,.14-.32,.52-.69,.25-.99-.25-.28-.7,0-1.03,.09-3.93,1-7.93,1.7-11.98,1.71-3.87,.02-7.74,.53-11.63-.11-2.58-.43-5.22-.58-7.79-1.1-3.31-.66-6.52-1.78-9.72-2.84-.83-.28-1.86-.48-2.43-1.53,.27,.03,.44,.01,.58,.08,3.19,1.5,6.62,2.34,10.03,3.12,4.91,1.12,9.88,1.94,14.97,1.73,3.15-.13,6.31-.03,9.45-.31,1.06-.09,2.12-.13,3.17-.3,1.53-.25,3.03-.66,4.57-.9,1.69-.26,2.09-.56,2.47-2.19,.25-1.04,.65-1.29,1.7-.96,.73,.23,1.43,.52,2.15,.79,.42,.16,.84,.14,1-.33,.22-.64,.53-1.28,.32-2.01-.22-.73-.31-1.5-.54-2.22-.93-2.9-1.48-5.94-3.26-8.51-.23-.33-.47-.68-.51-1.15,.39,.11,.54,.38,.72,.61,1.61,1.94,2.36,4.27,3.03,6.64,.48,1.69,1.11,3.34,1.01,5.14-.09,1.62-.07,1.63,1.52,1.13,.12-.04,.25-.09,.37-.15,2.17-1.05,4.34-2.11,6.51-3.17,.92-.45,2.19-3.05,1.94-4.04-1.13-4.55-1.1-9.2-1.32-13.83-.13-2.78-.11-5.56-.07-8.34,.02-1.32-.11-2.64-.17-3.96,.05-.01,.1-.02,.15-.04,.09,.31,.2,.61,.25,.93,.29,2.06,.34,4.14,.39,6.23,.06,2.15,.02,4.31,.14,6.46,.11,1.88,.2,3.77,.38,5.65,.2,2.18,.43,4.35,.73,6.51,.04,.32,.05,.9,.49,.87,1.26-.1,2.51,.36,3.79-.31,2.86-1.51,5.8-2.87,8.84-4,.63-.24,1.26-.49,1.59-1.24,.71-1.57,1.02-1.72,2.59-1.13,1.15,.43,2.19,.29,3.28-.12,.39-.15,.52-.31,.52-.71-.01-.73-.07-1.48,.1-2.18,.57-2.32,.88-4.64,.8-7.05-.08-2.27,.14-4.56,.1-6.84-.06-2.87,.79-5.67,.63-8.56,.17,.98,.39,1.97,.31,2.93-.34,3.78-.2,7.57-.43,11.35-.21,3.42-.16,6.85-.81,10.23-.05,.24-.17,.57,.26,.6,.28,.03,.59,.05,.75-.32,.71-1.59,1.87-2.87,2.87-4.27,1.09-1.52,2.11-3.08,2.76-4.85-1.12,3.26-2.78,6.24-4.75,9.07,1.4-.39,3.03,.09,4.28-1.26,.66-.72,1.22-1.47,1.77-2.25,.78-1.1,1.25-1.2,2.4-.49,1.24,.77,2.48,1.37,4.02,.83,1.25-.44,2.61-.69,3.91-.66,1.92,.04,2.51-1.26,3.03-2.59,.71-1.85,1.49-3.66,1.93-5.62,.46-2.08,.75-4.18,.43-6.24Zm-108.72,28.02c1.61,.18,2.97,.82,3.93,2.17-1.12-1.08-2.66-1.38-3.93-2.17Zm38.49-17.73c1.66,1.03,3.38,1.97,4.66,3.49-1.72-.93-3.18-2.24-4.66-3.49Zm55.58-9.03c.5-2.94,.35-5.95,.95-8.89,.22,3.03-.03,6-.95,8.89Z"/>
      <path class="cls-7" d="M163.9,178.84c-1.27-.08-2.33-.5-3.41-.79-5.51-1.52-11.12-1.67-16.79-1.5-3.83,.11-7.61,.51-11.37,1.18-3.1,.55-6.18,1.21-9.21,2.13-1.94,.58-3.9,1.06-5.82,1.72-2.2,.75-4.37,1.55-6.53,2.41-2.72,1.08-5.44,2.15-8.08,3.39-1.71,.8-3.32,1.81-5.04,2.6-3.04,1.4-5.82,3.28-8.71,4.95-2.75,1.59-5.4,3.37-8.15,4.98-1.94,1.15-3.99,2.1-6.01,3.1-3.29,1.63-6.55,3.33-9.93,4.77-2.91,1.25-5.87,2.39-9.03,2.99-3.78,.72-7.52,1.64-11.3,2.37-2.41,.46-4.85,.75-7.32,.89-2.25,.13-4.49,.49-6.74,.03-2.37-.47-4.8-.65-7.16-1.24-3.6-.9-7.05-2.17-10.2-4.13-1.32-.82-2.43-1.96-3.44-3.14-1.37-1.6-2.92-2.9-4.98-3.51-.62-.19-1.09-.63-.91-1.34,.94-3.65-.28-6.85-1.96-9.98-.76-1.41-.61-1.69,.75-2.66,1.18-.83,2.52-1.47,3.03-3.03,.57-1.75-.03-3.34-.46-4.96-.36-1.34-.82-2.66-1.26-3.97-.14-.43,.03-.57,.4-.73,1.24-.55,2.48-1.13,3.69-1.74,1.94-.99,2.9-2.67,3.46-4.72,.49-1.78,.61-3.59,.95-5.38,.07-.38,.23-.85,.6-.8,1.02,.13,1.91-.53,2.9-.4,2.86,.35,4.56-1.19,5.72-3.55,.86-1.72,1.9-3.36,2.54-5.19,.26-.73,.73-.76,1.33-.42,.52,.3,1.04,.61,1.59,.84,2.87,1.2,6.76-.18,8.45-2.91,.51-.84,1.18-1.59,1.79-2.37,.45-.58,.98-.52,1.6-.24,3.58,1.63,6.15,.94,8.61-1.69,.82-.87,1.64-1.75,2.44-2.64,.39-.44,.79-.56,1.31-.26,.26,.15,.54,.25,.8,.4,2.39,1.41,4.86,.97,6.72-1.07,1.35-1.48,1.91-3.22,2.02-5.15,.07-1.42,.34-1.88,1.74-2.31,3.06-.93,4.59-3.08,5.01-6.16,.07-.49,.23-.97,.3-1.46,.19-1.21,.55-1.58,1.78-1.68,1.26-.09,2.44-.4,3.41-1.24,.41-.35,.6-.13,.77,.17,.57,1.01,.97,2.1,1.36,3.19,.44,1.27-.31,2.18-.85,3.13-2,3.52-3.79,7.17-6.36,10.34-1.29,1.6-2.48,3.28-3.82,4.84-1.83,2.12-4.35,2.84-6.89,3.52-2.32,.61-4.47,1.67-6.75,2.4-3.94,1.26-7.79,2.83-11.86,3.7-4.37,.93-8.56,2.41-12.4,4.7-2.14,1.28-3.78,3.23-5.26,5.24-1.74,2.34-3.46,4.71-5.03,7.17-1.36,2.12-2.28,4.5-3.36,6.78-.86,1.82-1.89,3.58-2.34,5.59-.79,3.51-1.13,7.06-1,10.66,.02,.64,.25,1.23,.44,1.84,.77,2.48,1.65,4.91,3.09,7.1,.13,.2,.52,.47,.18,.75-.23,.18-.57,.11-.83-.1-.1-.09-.22-.17-.34-.2-.23-.05-.49-.07-.64,.14-.19,.25,.03,.44,.18,.6,.68,.66,1.57,.93,2.38,.61,.85-.33,2.01-.56,1.91-1.94-.02-.31,.07-.73,.38-.86,.34-.15,.61,.18,.85,.4,1.36,1.3,2.83,2.43,4.7,2.88,1.78,.42,3.45,.29,4.91-1.05,.46-.43,1.16-.59,1.57-1.15,.25-.34,.51-.03,.76,.15,1.66,1.15,3.21,2.49,5.16,3.17,1.64,.57,3.36,.84,5.07,.47,1.01-.21,1.62-1.13,2.26-1.87,.78-.9,1.58-1.8,1.91-3,.17-.62,.48-.7,1.12-.43,1.4,.59,2.83,1.16,4.33,1.45,1.74,.34,3.37-.17,4.98-.68,1.22-.38,2.23-1.12,3.18-1.98,.51-.47,.78-1.07,1.1-1.63,.47-.83,1.1-1,1.93-.72,1.4,.47,2.83,.57,4.31,.53,3.23-.08,5.55-1.64,7.51-4.06,.9-1.12,1.1-2.38,1.3-3.69,.05-.36,.13-.72,.2-1.07,.14-.74,.65-.83,1.19-.56,2.47,1.27,5.09,1.18,7.71,.86,2-.25,3.52-1.45,4.83-2.94,.99-1.12,1.38-2.51,1.84-3.87,.32-.96,.64-1.11,1.61-.85,4.97,1.32,10.7-.6,13.32-5.1,.33-.57,.85-1.02,1.08-1.67,.14-.39,.52-.45,.83-.27,1.06,.63,2.27,.65,3.39,.6,1.11-.04,2.14,.52,3.25,.18,1.73-.53,3.51-.91,4.8-2.37,.8-.9,1.92-1.5,2.33-2.78,.19-.6,.75-.46,1.26-.21,1.31,.62,2.5,1.45,3.99,1.77,2.03,.44,3.81-.09,5.54-.99,.91-.47,1.76-1.07,2.59-1.67,.54-.39,.94-.32,1.4,.1,.66,.6,1.34,1.17,2.13,1.63,2.35,1.39,4.57,.9,6.79-.33,1.07-.6,2.01-1.4,3-2.12,.44-.32,.69-.32,1.1,.02,.68,.57,1.45,1.05,2.14,1.62,2.08,1.72,4.27,1.49,6.52,.4,1.34-.66,1.59-.65,2.6,.39,1.48,1.53,3.05,2.96,4.95,3.98,.14,.07,.26,.2,.38,.32,.06,.06,.08,.16,.19,.38Z"/>
      <path class="cls-8" d="M121.81,215.01c-.68,4.52-.13,8.91,1.42,13.22,.56,1.56,.24,3.14-.56,4.59-.08,.14-.22,.26-.46,.22,.17-1.65-.34-3.1-1.47-4.33,.21,.46,.39,.94,.65,1.37,.46,.75,.35,1.47-.01,2.18-.35,.71-.92,1.29-1.16,2.07-.1,.33-2.17,.82-2.4,.62-.33-.29-.07-.63,.02-.92,.45-1.57,0-2.92-.9-4.18-.3,.15-.15,.28-.08,.41,.82,1.57,.61,3.22-.56,4.49-.25,.28-.52,.28-.79,.14-.49-.24-1.35-.27-1.32-.88,.1-1.87-.8-3.42-1.53-4.99-1.06-2.27-1.27-4.64-1.37-7.08-.2-4.85,.06-9.7,.06-14.54,.01-.8,.11-1.6,.18-2.39,.08-.83,.86-1.09,1.38-1.47,2.46-1.86,4.97-3.67,7.52-5.41,1.5-1.02,3.12-1.88,4.69-2.8,.19-.11,.49-.25,.64-.17,.29,.15,.1,.47,.06,.71-.49,3.63-1.65,7.09-2.48,10.63-.66,2.8-1.1,5.66-1.53,8.51Z"/>
      <path class="cls-8" d="M110.95,232.23c-.21,.32,.03,.51,.14,.7,.68,1.09,.7,2.27,.41,3.46-.2,.84-2.43,1.91-3.28,1.64-.52-.17-.29-.61-.28-.93,.03-1.58-.33-2.85-1.18-3.98-.16,.28-.06,.53,.09,.75,.66,1.03,.58,2.13,.48,3.28-.09,.96-.62,1-1.36,.91-2.72-.34-4.47-1.88-5.65-4.29-1.68-3.4-3-6.93-4.36-10.46-.54-1.38-.76-2.89-1.15-4.33-.11-.4,.07-.62,.32-.86,3.32-3.36,6.68-6.66,10.48-9.47,1.3-.97,2.56-2.01,3.97-2.82,.25-.14,.45-.59,.85-.27,.3,.25,.35,.56,.33,.97-.15,3.48-.39,6.97-.36,10.45,.02,2.52-.01,5.04,.28,7.56,.27,2.4,1.32,4.5,2.28,6.65,.69,1.55,.53,2.6-.72,4.03-.23-1.11-.37-2.2-1.29-2.99Z"/>
      <path class="cls-8" d="M214.39,166.73c-3.05-1.23-6.03-2.6-9.11-3.73-4.19-1.53-8.34-3.24-12.88-3.55-.79-.05-1.55-.51-2.34-.35-1.51,.3-3.05,.22-4.56,.3-5.85,.31-10.86,2.79-15.58,5.95-2.33,1.55-4.7,3.11-6.55,5.29-.38,.44-.87,.72-1.02,1.37-.15,.6-.59,.94-1.33,.83-.77-.12-1.57-.1-2.34-.15-.09,.32,.04,.52,.21,.68,.98,.94,1.9,1.94,3.02,2.74,1.14,.84,2.37,1.6,3.25,2.76,.13,.18,.33,.39,.23,.62-.15,.32-.46,.19-.71,.14-1.63-.28-3.29-.43-4.87-.9-2.92-.87-5.92-1.09-8.92-1.26-6.85-.38-13.65,.31-20.37,1.55-3.57,.66-7.1,1.63-10.59,2.64-4.81,1.4-9.4,3.42-14.03,5.33-4.43,1.82-8.62,4.11-12.75,6.48-2.97,1.71-5.8,3.63-8.75,5.36-4.06,2.4-8.21,4.68-12.52,6.63-3.14,1.42-6.14,3.16-9.53,4.04-1.79,.46-3.45,1.4-5.24,1.87-3.4,.89-6.82,1.69-10.27,2.33-2.72,.51-5.45,1.22-8.26,1.08-2.25-.11-4.45,.46-6.75,.18-1.68-.2-3.47-.04-5.14-.39-3.7-.77-7.33-1.87-10.74-3.53-2.5-1.22-4.75-2.75-6.6-4.91-1.33-1.54-2.88-2.93-5.03-3.35-.36-.07-.7-.27-.74,.37-.13,1.99-.39,3.97-.4,5.96-.01,2.67-.02,5.33,.86,7.95,1.39,4.08,4.27,6.96,7.26,9.81,1.33,1.27,2.9,2.22,4.35,3.33,3.92,3,8.29,5.07,13.04,6.43,3.21,.92,6.48,1.39,9.77,1.76,2.24,.25,4.46,.71,6.73,.6,1.6-.08,3.13-.53,4.72-.68,1.61-.16,3.23-.26,4.82-.55,3.75-.7,7.44-1.6,11.13-2.6,4.2-1.13,7.79-3.45,11.63-5.28,2.02-.96,3.82-2.37,5.77-3.5,1.53-.9,2.73-2.22,4.2-3.18,4.72-3.11,8.69-7.07,12.67-11.03,1.88-1.87,3.97-3.51,6.11-5.07,2.61-1.91,5.44-3.53,8.04-5.46,4.24-3.15,8.5-6.24,13.27-8.55,2.9-1.41,5.83-2.7,8.81-3.9,2.65-1.06,5.3-2.13,7.97-3.12,3.16-1.18,6.46-1.78,9.83-1.93,.83-.04,1.17-.36,1.42-1.13,.14-.42-.14-.75-.02-1.13,.52,.07,.51,.52,.63,.82,.21,.51,.03,1.03-.05,1.54-.32,2.06-.22,4.13-.15,6.21,.1,2.79,.22,5.57,.83,8.31,1.05,4.73,2.74,9.17,5.82,13.02,1.85,2.32,3.81,4.58,6.21,6.26,5.72,4.02,11.67,7.69,17.71,11.21,3.56,2.08,6.88,4.48,9.48,7.74,.1,.12,.24,.29,.37,.29,.26,.01,.29-.28,.3-.44,.07-1.01,.51-1.96,.4-3.01-.11-.98-.11-1.99-.05-2.98,.22-3.56,.1-7.13-.53-10.62-.69-3.74-1.65-7.44-2.58-11.14-.48-1.92-1.35-3.72-2.13-5.54-1.45-3.43-3.33-6.62-5.41-9.69-1.09-1.61-2.48-2.94-3.8-4.34-1.88-2-3.66-4.12-6.08-5.54-.65-.38-1.23-.88-1.84-1.32,2.11,.4,3.75,1.63,5.13,3.07,1.2,1.27,2.59,1.75,4.18,1.98,4.56,.65,8.9-.41,13.04-2.1,3.95-1.61,7.4-4.12,10.56-7.02,1.9-1.74,3.5-3.73,5.21-5.63,1.56-1.73,2.95-3.62,5-5.05-1.26-.43-2.36-.75-3.42-1.18Zm-47,11.98c1.22,.2,2.22,.83,3.17,1.57-1.12-.39-2.24-.78-3.17-1.57Z"/>
      <path d="M119.97,159.47c.5-2.94,.35-5.95,.95-8.89,.22,3.03-.03,6-.95,8.89Z"/>
      <path d="M69.05,171.99c-1.72-.93-3.18-2.24-4.66-3.49,1.66,1.03,3.38,1.97,4.66,3.49Z"/>
      <path d="M29.83,188.4c-1.12-1.08-2.66-1.38-3.93-2.17,1.61,.18,2.97,.82,3.93,2.17Z"/>
      <path d="M170.56,180.28c-1.12-.39-2.24-.78-3.17-1.57,1.22,.2,2.22,.83,3.17,1.57Z"/>
      <path d="M78.83,126.01c-.6,1.37-1.19,2.75-1.58,4.2,.25-1.51,.47-3.02,1.58-4.2Z"/>
      <path d="M96.63,83.64c-1.05-3.31-3.09-5.76-6.47-6.81-3.2-.99-6.46-1.46-9.84,.01,.94,.33,.6,.93,.45,1.47-.41,1.43-.5,2.98-.05,4.29,.59,1.75,1.36,3.51,2.89,4.79,1.12,.93,2.39,1.38,3.75,1.3,2.92-.15,5.41-1.4,7.54-3.37,.44-.4,.91-1.11,1.33-1.09,.76,.04,.51-.25,.4-.59Zm-7.28,3.49c-.51,.19-1.04,.16-1.45,.18-.93,.01-1.72-.07-2.46-.43-.51-.25-.88-.6-.9-1.21-.02-.62,.37-1.04,.87-1.23,1.48-.57,2.95-.42,4.31,.38,.44,.26,.78,.69,.71,1.24-.08,.61-.56,.87-1.08,1.07Zm1.96-4.34c-.67,1.39-2.34,1.61-3.33,.44-1.08-1.28-1.66-2.68-.91-4.32,.7-1.53,2.43-1.73,3.49-.43,.68,.82,.99,1.8,1.07,2.76,0,.6-.1,1.09-.32,1.55Z"/>
      <path class="cls-10" d="M90.43,86.06c-.08,.61-.56,.87-1.08,1.07-.51,.19-1.04,.16-1.45,.18-.93,.01-1.72-.07-2.46-.43-.51-.25-.88-.6-.9-1.21-.02-.62,.37-1.04,.87-1.23,1.48-.57,2.95-.42,4.31,.38,.44,.26,.78,.69,.71,1.24Z"/>
      <path class="cls-3" d="M91.63,81.24c0,.6-.1,1.09-.32,1.55-.67,1.39-2.34,1.61-3.33,.44-1.08-1.28-1.66-2.68-.91-4.32,.7-1.53,2.43-1.73,3.49-.43,.68,.82,.99,1.8,1.07,2.76Z"/>
      <path d="M129.22,69.9c-.39-.64-1.07-1.57-.97-1.98,.34-1.38-.72-.46-.88-.72-1.55-.11-2.98,.23-4.23,.87-1.31,.66-2.93,1-3.67,2.53-.46,.95-.89,1.92-1.37,2.86-.94,1.85-.58,3.85-.74,5.79-.01,.15,.02,.28,.18,.3,.84,.09,1.27,.88,2.04,1.17,1.56,.6,3.17,.99,4.81,1.06,.94,.04,1.96,.18,2.89-.37,1.6-.92,2.47-2.39,3.23-3.98,.2-.44,.29-.88,.26-1.35-.15-2.15-.38-4.28-1.55-6.18Zm-8.58,1.46c.3-.86,.92-1.41,1.79-1.56,.83-.14,1.47,.34,1.98,.95,.65,.79,1.08,2.19,1.06,3.54,0,.13-.03,.43-.08,.72-.34,1.95-1.16,2.33-2.89,1.34-1.53-.87-2.45-3.32-1.86-4.99Zm7.84,7.71c-.99,1.18-2.23,1.86-4.03,1.88-.54,0-1.25-.14-1.59-.94-.35-.81,.04-1.41,.61-1.94,1.13-1.07,2.49-1.47,4.03-1.34,.56,.04,1.05,.23,1.3,.77,.27,.58,.06,1.12-.32,1.57Z"/>
      <path class="cls-3" d="M125.47,74.29c0,.13-.03,.43-.08,.72-.34,1.95-1.16,2.33-2.89,1.34-1.53-.87-2.45-3.32-1.86-4.99,.3-.86,.92-1.41,1.79-1.56,.83-.14,1.47,.34,1.98,.95,.65,.79,1.08,2.19,1.06,3.54Z"/>
      <path class="cls-10" d="M128.48,79.07c-.99,1.18-2.23,1.86-4.03,1.88-.54,0-1.25-.14-1.59-.94-.35-.81,.04-1.41,.61-1.94,1.13-1.07,2.49-1.47,4.03-1.34,.56,.04,1.05,.23,1.3,.77,.27,.58,.06,1.12-.32,1.57Z"/>
      <path d="M119.15,91.91c-2.02,0-3.93-.5-5.72-1.38-1.37-.69-2.72-1.35-4.19-1.8-.71-.22-1.21-.15-1.64,.45-1.62,2.23-3.78,3.89-5.9,5.58-1.6,1.27-3.45,1.6-5.45,1.2-.35-.07-.59-.54-1.06-.32,1.59,1.54,3.29,1.76,5.02,.67,.87-.54,1.36-.44,1.88,.42,.17,.29,.3,.6,.43,.9,.94,2.16,1.96,4.29,3.42,6.16,2.11,2.7,3.81,3.14,6.95,2.1,2.3-.76,3.48-3.16,3.68-5.43,.21-2.39-.1-4.78,.12-7.17,.07-.77,.23-1,.98-.86,1.41,.27,2.51-.46,3.6-1.19-.8-.04-1.35,.67-2.12,.67Zm-3.85,10.38c-.27,1.46-2.21,3.51-3.68,3.54-1.62,.02-3.32,.02-4.53-1.47-.41-.51-.37-.85,.06-1.26,1.61-1.57,3.48-2.45,5.78-2.17,.64,.1,1.33-.18,1.92,.34,.32,.29,.53,.57,.45,1.02Zm.82-5c0,.6,.03,1.2,0,1.79-.06,1.17-.54,1.45-1.67,1.28-1.55-.22-3.08,.1-4.62,.33-1.38,.21-2.62,.55-3.61,1.55-.36,.36-.55,.23-.75-.11-1.06-1.77-2.25-3.47-2.89-5.44-.27-.84-.32-1.83,.62-2.57,1.72-1.36,3.34-2.83,5.04-4.22,.5-.41,1.11-.55,1.76-.23,1.51,.76,3.05,1.41,4.67,1.92,1.35,.42,1.3,1.8,1.42,2.92,.1,.92,.02,1.85,.02,2.78h.01Z"/>
      <path class="cls-6" d="M115.3,102.29c-.27,1.46-2.21,3.51-3.68,3.54-1.62,.02-3.32,.02-4.53-1.47-.41-.51-.37-.85,.06-1.26,1.61-1.57,3.48-2.45,5.78-2.17,.64,.1,1.33-.18,1.92,.34,.32,.29,.53,.57,.45,1.02Z"/>
      <path class="cls-5" d="M116.12,97.29c0,.6,.03,1.2,0,1.79-.06,1.17-.54,1.45-1.67,1.28-1.55-.22-3.08,.1-4.62,.33-1.38,.21-2.62,.55-3.61,1.55-.36,.36-.55,.23-.75-.11-1.06-1.77-2.25-3.47-2.89-5.44-.27-.84-.32-1.83,.62-2.57,1.72-1.36,3.34-2.83,5.04-4.22,.5-.41,1.11-.55,1.76-.23,1.51,.76,3.05,1.41,4.67,1.92,1.35,.42,1.3,1.8,1.42,2.92,.1,.92,.02,1.85,.02,2.78h.01Z"/>
      <path d="M107.76,84.16c-.3,.05-.56,.37-.98,.15,.14-.41,.42-.6,.7-.71,.32-.12,.81-.28,.93,.17,.16,.56-.4,.34-.65,.39Z"/>
      <path d="M101.65,60.12c-3.09-9.67-5.61-19.49-7.91-29.37,3.02,9.69,6.15,19.35,7.91,29.37Z"/>
      <path class="cls-4" d="M111.8,225.51c-.41-3.43-.5-6.87-.35-10.33,.11-2.55,.16-5.11,.07-7.67-.07-2.05,.47-3.53,2.36-4.67,2.32-1.4,4.4-3.2,6.65-4.73,1.48-1.01,3.06-1.85,4.6-2.76,.17-.1,.36-.26,.55-.15,.26,.15,.12,.41,.09,.63-.34,3.11-1.23,6.11-2.1,9.1-.68,2.34-.9,4.75-1.43,7.11-.9,4.08-.91,8.16-.24,12.26-1.65,.13-3.25,.84-4.96,.42-.23-.06-.51,.07-.77,.13-1.48,.32-2.96,.62-4.48,.66Z"/>
      <path class="cls-4" d="M99.75,231.91c-.37-.36-.52-.85-.7-1.31-.96-2.37-1.97-4.72-2.83-7.13-.53-1.5-.82-3.08-1.23-4.62-.1-.39,.11-.61,.36-.86,3.26-3.31,6.62-6.53,10.32-9.36,1.32-1.01,2.71-1.92,4.07-2.86,.22-.15,.41-.49,.77-.19,.27,.23,.24,.49,.23,.81-.18,5.04-.49,10.09-.3,15.14,.06,1.46,.25,2.91,.38,4.36-1.48,.5-3,.9-4.41,1.54-1.71,.76-3.37,1.64-4.69,3.09-.51,.56-.98,1.41-1.96,1.39Z"/>
      <path class="cls-9" d="M134.19,156.82c-.36-1.68-.44-3.42-.85-5.08-1.25-5.06-1.95-10.21-2.55-15.38-.16-1.36-.42-2.7-.62-3.93-.85,.75-1.72,1.46-2.51,2.25-.46,.46-.96,.75-1.49,.42-1.5-.94-3.22-.95-4.85-1.35-3.1-.76-6.04-.11-8.97,.82-.16,0-.32,0-.38,.2-.53,.07-1.06,.14-1.59,.21-.03,.6,.34,1.06,.63,1.52,1.57,2.42,3.03,4.88,3.67,7.73,.59,2.64,.58,5.19-1.39,7.37-.31,.34-.46,.83-1.05,.76,.06,.6,.12,1.2,.18,1.8-.05,.86-.13,1.72-.16,2.58-.13,3.88-.25,7.76-.37,11.64-.12,1.75-.22,3.51-.37,5.26-.07,.82-.26,1.63-.39,2.45-.03,.23-.06,.5,.27,.54,.24,.03,.45-.03,.57-.29,.72-1.54,1.88-2.79,2.82-4.19,1.05-1.56,2.17-3.1,2.69-4.96,.1-.36-.03-.89,.65-1.16-.75,3.82-3.1,6.75-4.75,10.13,1.21-.12,2.33,.07,3.37-.83,.85-.73,1.52-1.54,2.13-2.46,.8-1.2,1.12-1.27,2.47-.68,1.07,.8,2.13,1.43,3.61,1.01,1.71-.49,3.48-.79,5.27-.86,.39-.01,.75-.16,.95-.47,.39-.61,.79-1.23,1.04-1.89,.71-1.85,1.54-3.66,1.82-5.65,.56-1.29,.38-2.71,.65-4.05,.24-1.19-.25-2.32-.5-3.47Zm-12.92-5.22c-.09,2.98-.4,5.94-1.28,8.81-.03,.36-.05,.72-.47,.9-.29-.36,.01-.62,.13-.9,.64-2.92,.69-5.91,.92-8.88,.03-.4-.08-1.11,.4-1.08,.6,.04,.32,.74,.31,1.14Z"/>
    </g>
  </g>
</svg>